<svg id="Layer_1" data-name="Layer 1" xmlns="http://www.w3.org/2000/svg" viewBox="0 0 703.57 694.79"><path d="M602.13,193.55c3.11,1.59,7.18,2.4,8.61,4.79s-.08,6.18-.3,9.6c4.94,1.51,9.12,4.23,10.71,9.59,1.47,4.95,1.36,9.84-1.7,14.68a15.19,15.19,0,0,1,4.88,13c-.06.55.76,1.36,1.36,1.78,6.1,4.3,8.34,10,6.4,17.27-.49,1.83.21,2.59,1.44,3.56,4,3.14,4.07,3.21,2.08,7.9a3,3,0,0,0,.79,4c5.14,5.1,6.07,11.64,2.93,17.94a3.35,3.35,0,0,0-.06,2.7c2.9,5.42,3.15,6.58,2.18,13.06,8.8,5.39,12.73,17,4.12,25.75,1.56,2.22,3.28,4.39,4.66,6.77a3.75,3.75,0,0,1,0,3.19c-1.34,2.31-3,4.42-4.57,6.59,7.41,10.18,6,18.91-4.31,25.78,1.14,4.71.82,9.31-2.26,13.47-.36.49-.1,1.73.25,2.42a14.71,14.71,0,0,1-2.71,17.71c-1.55,1.5-1.72,2.62-.89,4.52,1.91,4.38,1.87,4.53-2,7.4-1.66,1.24-2,2.26-1.47,4.35,1.78,6.62-.83,12.74-6.59,16.69a3.06,3.06,0,0,0-1.34,2.08,14.77,14.77,0,0,1-4.74,12.51c5.13,12,1.95,20.45-9.26,24.53.24,2.49.36,5.06.78,7.59a2.85,2.85,0,0,1-2,3.57c-2.3.94-4.52,2-6.93,3.14a6,6,0,0,0,0,1.12c1.86,9.51-4.32,18-14,18.89-2.17.19-3,.92-3.63,2.81-1.13,3.4-3.6,5.68-6.68,7.48a4.31,4.31,0,0,0-2,2.86c-.5,6.54-4.76,12.21-11.16,13.72-2.37.56-3.1,1.68-3.08,3.74,0,3.6-1.81,5.26-5.3,5.16-2.27-.06-3.09,1-3.63,3.19A15,15,0,0,1,539,571.58a3.9,3.9,0,0,0-2.71,1.7,15.43,15.43,0,0,1-8.44,7.41,3.16,3.16,0,0,0-1.8,2c-1.91,11.86-8,16.51-20.14,15.23-1.06,2.29-2.24,4.58-3.19,7-.7,1.79-1.8,2.22-3.61,1.94-2.44-.39-4.92-.54-7.35-.78-5.11,11.48-14.11,14.89-24.49,9.11a15.25,15.25,0,0,1-13,4.94c-.55-.06-1.37.72-1.77,1.31-4.1,5.93-10.16,8.39-17,6.49-1.86-.52-2.75-.11-3.84,1.33-3.07,4-3.16,4-7.9,2.12-1.45-.58-2.51-1-3.76.53-4,4.77-12.86,6.8-18.44,3a2.65,2.65,0,0,0-2.43.1c-4,2.87-8.42,3.21-13,2.13-8.36,10.56-15.74,11.76-26,4.25-2.16,1.55-4.25,3.25-6.56,4.6a3.78,3.78,0,0,1-3.22,0c-2.3-1.35-4.4-3.06-6.56-4.61-10.27,7.37-19,6-25.81-4.3-4.81,1.2-9.5.76-13.7-2.43a2.15,2.15,0,0,0-1.93.22c-5.32,3.83-14.3,1.94-18.43-2.93-1.25-1.46-2.29-1.17-3.76-.56-4.73,2-4.82,2-7.91-2.1-1.09-1.43-2-1.85-3.84-1.34-6.83,1.9-12.88-.57-17-6.49a3.24,3.24,0,0,0-2.08-1.31c-7.16-.51-7.16-.47-12.69-4.73-11.81,5.1-20.35,1.9-24.3-9.32a75.92,75.92,0,0,1-7.87.69,4.13,4.13,0,0,1-3-1.64,73.66,73.66,0,0,1-3.43-7.18c-11,1.15-18.23-3.38-19.71-12.78-.46-2.88-1.47-4.15-4.07-5.48s-4.31-4.21-6.5-6.32a5.33,5.33,0,0,0-2.75-1.72c-6.75-.46-12.34-4.74-13.91-11.32-.51-2.16-1.46-2.79-3.5-3-4.67-.45-4.74-.55-5.36-5.38-.25-2-.86-2.95-3-3.47a14.85,14.85,0,0,1-11.23-13.66,3.88,3.88,0,0,0-1.62-2.77,15.29,15.29,0,0,1-7.44-8.41,3.33,3.33,0,0,0-2.22-1.85c-11.08-1.32-16.72-8.77-14.91-20.13-2.37-1.11-4.75-2.32-7.21-3.33-1.66-.67-2.08-1.69-1.83-3.38.38-2.45.54-4.93.82-7.63-5-1.59-9.2-4.23-10.81-9.6-1.52-5.05-1.39-10,1.7-14.81a14.75,14.75,0,0,1-4.92-12.58,3,3,0,0,0-1.27-2.12c-6-4.23-8.47-10.19-6.6-17,.56-2,0-2.94-1.48-4.07-3.89-2.94-4-3.06-1.94-7.67.82-1.86.42-2.88-.93-4.23a14.79,14.79,0,0,1-2.79-17.72,3.17,3.17,0,0,0,.11-2.68c-2.81-4.05-3.23-8.42-2.12-13-10.67-8.95-11.85-16.15-4.22-26-1.19-1.64-2.28-3.42-3.64-4.95-2-2.19-2.19-4.14-.09-6.4a53.71,53.71,0,0,0,3.66-5c-7.27-10.84-5.91-18.93,4.43-26a14.73,14.73,0,0,1,2-13.22,2.85,2.85,0,0,0,0-2.42c-3.16-6.47-2.3-13,2.72-18,1.4-1.39,1.64-2.44.85-4.25-2-4.56-1.93-4.68,2-7.66,1.53-1.15,2-2.1,1.42-4.1-1.84-6.63.75-12.93,6.42-16.74.67-.45,1.53-1.39,1.47-2a14.81,14.81,0,0,1,4.83-12.76c-5.53-11-2.22-19.76,9.17-24.56a69.47,69.47,0,0,0-.75-7c-.47-2.29.39-3.45,2.41-4.25,2.2-.87,4.33-1.93,6.66-3-2-8,.67-14.1,7.88-18a16.46,16.46,0,0,1,6.16-1.92c1.85-.16,2.75-.67,3.28-2.42a12.23,12.23,0,0,1,6.79-7.7A3.09,3.09,0,0,0,128,160.3a14.53,14.53,0,0,1,10.86-13.57c2.16-.54,3-1.39,3.29-3.6.52-4.63.63-4.67,5.42-5.33,1.8-.25,2.86-.71,3.38-2.79,1.69-6.85,7-10.93,14.11-11.46a3.55,3.55,0,0,0,2.46-1.61,15.41,15.41,0,0,1,8.36-7.5,3.44,3.44,0,0,0,1.89-2.18c1.42-11.14,8.61-16.6,20.13-15,1-2.17,2.13-4.37,3-6.66.76-2,1.83-2.72,4-2.3,2.33.46,4.72.53,7.29.79,1.55-5,4.27-9.21,9.63-10.82,5-1.52,10-1.41,14.66,1.71,3.59-3.56,7.69-5.4,12.71-4.93a2.92,2.92,0,0,0,2.08-1.29c4.18-6,10.14-8.43,17.27-6.48,1.8.5,2.58,0,3.57-1.34,3.14-4.08,3.24-4.16,7.88-2.16,1.85.79,2.86.42,4.23-.94A14.83,14.83,0,0,1,302,60.1a3.23,3.23,0,0,0,2.69.11c4-2.81,8.42-3.23,13-2.13,8.71-10.62,16-11.82,26-4.22,2-1.43,4-2.81,6-4.36,1.52-1.21,2.8-1.36,4.37-.06,1.92,1.57,4,2.93,6,4.37,10.66-7.38,18.43-6.11,26,4.28,4.69-1.11,9.17-.74,13.28,2.21a2.94,2.94,0,0,0,2.43-.12c6.37-3.09,12.77-2.29,17.73,2.63,1.48,1.47,2.56,1.8,4.5,1,4.48-2,4.62-1.89,7.6,2.09,1.18,1.58,2.19,1.86,4.11,1.34,6.66-1.81,12.87.77,16.76,6.47a3.26,3.26,0,0,0,2.31,1.42A15.05,15.05,0,0,1,467.17,80a17,17,0,0,1,14.6-1.74c5.35,1.6,8.25,5.6,9.69,10.88,2.62-.26,5.1-.38,7.53-.81,2-.35,3.07.35,3.8,2.17.92,2.29,2,4.5,3,6.71,10.34-.85,16,1.51,18.61,9.55,1.56,4.87,3.49,8.21,8.06,10.58,2,1,2.65,4.63,4.66,5.91s5.09.74,7.39,1.72a13.83,13.83,0,0,1,8.27,9.88,3.26,3.26,0,0,0,3.24,2.94c4.94.65,5,.73,5.6,5.5.24,2.09,1.06,2.9,3.12,3.41a15.15,15.15,0,0,1,11.15,13.76,4.24,4.24,0,0,0,1.9,2.89,14.75,14.75,0,0,1,7,8,3.57,3.57,0,0,0,2,2.13C598.92,175.44,603.81,181.75,602.13,193.55ZM377.91,624.65a15.48,15.48,0,0,0,11.59-5.34c2.1-2.43,4.06-5,6.2-7.38a11.06,11.06,0,0,1,10.3-3.85c1.65.22,3.31.26,4.95.49,7.22,1,14.14-.28,19.52-5.05,7-6.23,13.9-6.73,22.21-2.82,7.93,3.73,14.07,2.11,19.85-4.37A20.28,20.28,0,0,1,489,589.21a3.48,3.48,0,0,0,3.6-2.15c2.82-5.09,6.81-8.76,12.68-10.2,11.28-2.78,14.58-6.41,15.85-18,.76-7,3.72-11.94,10.69-14.06a20.63,20.63,0,0,0,3.14-1.35,27.08,27.08,0,0,0,12.84-12.92c.84-1.78,1.68-3.57,2.37-5.4,1.71-4.56,5.17-6.83,9.76-7.67,2.24-.41,4.49-.75,6.75-1.07,7.91-1.1,12.46-6,14-13.44a20.32,20.32,0,0,1,10.82-14.69c1.71-.91,2-2,2-3.69,0-5.9,1.61-11.17,6.16-15.37,7.81-7.21,9.19-12.46,4.86-22.15-3.29-7.37-3.19-13.76,2.59-19.67a8.15,8.15,0,0,0,.75-1c4.35-6.07,6.34-12.82,4.92-20.19-1.48-7.65.28-13.73,7.17-17.9a14.45,14.45,0,0,0,1.45-1.16c7.14-5.79,9-11.32,6.13-20a19.66,19.66,0,0,1,2.11-17.26,3.66,3.66,0,0,0,0-4.46c-3.06-5-4.2-10.27-2.49-16.06,3.22-10.86,2-15.64-7.26-22.3-6.48-4.69-8.64-10.31-7.15-18a23.57,23.57,0,0,0-5.33-20.63c-5.76-6.58-6.77-13.21-2.61-20.77a6.49,6.49,0,0,0,.33-.87c3.13-8.18,2-14-4.59-19.89-5-4.51-7-10-7.2-16.55A4.58,4.58,0,0,0,591.5,207c-5.4-3.25-9.21-7.52-10.57-13.89-2-9.35-6.47-13.87-16-14.58-8.43-.64-13.68-4.45-16.37-12.24-.21-.59-.48-1.15-.74-1.72a26.64,26.64,0,0,0-13.12-13c-2.06-1-4.17-1.85-6.25-2.79a10.32,10.32,0,0,1-6.16-7.33c-.65-2.83-1.14-5.69-1.54-8.56-1.14-8-6-12.64-13.63-14.18a20.3,20.3,0,0,1-14.49-10.64,3.45,3.45,0,0,0-3.6-2.15,20.29,20.29,0,0,1-16.51-7.12c-5.71-6.42-11.81-8.08-19.55-4.47-8.49,4-15.53,3.56-22.76-2.89-5.26-4.68-12.15-5.9-19.25-4.88-1.74.24-3.51.31-5.26.5a10.8,10.8,0,0,1-9.57-3.45c-2-2.12-3.78-4.4-5.59-6.66-4.61-5.76-10.68-7.74-17.49-5.47a22.49,22.49,0,0,1-19.63-2,3.52,3.52,0,0,0-3.05-.1c-6.09,4-12.36,4.41-19.27,2.15-7.07-2.31-13.29-.41-18,5.61q-1.81,2.32-3.68,4.61c-3.24,4-7.22,6.14-12.52,5.2-1.53-.26-3.09-.31-4.64-.5A26.45,26.45,0,0,0,274,91c-2.08,1.36-4,2.94-6.05,4.36A10.14,10.14,0,0,1,258.82,97c-2.77-.86-5.52-1.81-8.19-2.91-7.48-3.09-13.93-1.39-19.12,4.48-4.61,5.23-10.23,7.47-17,7.5a4.14,4.14,0,0,0-3,1.78,21.53,21.53,0,0,1-15,11c-7.47,1.54-12.26,6.19-13.35,14.08-.26,1.95-.62,3.89-.88,5.84-.69,5.15-3.2,8.88-8.21,10.73-1.36.5-2.67,1.15-4,1.73a27,27,0,0,0-14.51,14.54c-.74,1.72-1.5,3.42-2.24,5.13a10.53,10.53,0,0,1-7.55,6.35c-2.82.66-5.69,1.14-8.55,1.55-7.76,1.1-12.42,5.78-13.94,13.11a21.56,21.56,0,0,1-11.37,15.42,3.18,3.18,0,0,0-1.46,2.32c.22,7.45-2.55,13.31-8.15,18.33-5.23,4.69-6.7,10.79-4.08,17.57q1.17,3,2.39,6.08c1.95,4.81,1.57,9.29-1.76,13.43a56,56,0,0,0-3.66,5,26.75,26.75,0,0,0-4.36,17.68c.23,2.26.31,4.55.63,6.8a9.51,9.51,0,0,1-2.88,8.18,36.94,36.94,0,0,1-4.9,4.27c-8.16,5.94-10.32,11.93-7.23,21.58a19.21,19.21,0,0,1-2.15,16.67,3.87,3.87,0,0,0,0,4.73c3,5,4.1,10.29,2.35,16.07-3.2,10.53-1.86,15.5,7.21,22.06,6.58,4.75,8.79,10.42,7.24,18.23-1.43,7.13,0,14.16,4.76,19.56,6.31,7.22,7,14.22,2.93,22.76-3.66,7.74-2,13.85,4.41,19.57,5.13,4.57,7.23,10.13,7.29,16.8a4.18,4.18,0,0,0,1.76,3,21.45,21.45,0,0,1,11,15c1.54,7.47,6.15,12.29,14.06,13.36,2.16.3,4.3.64,6.45,1,4.72.81,8.26,3.11,10,7.8.61,1.65,1.4,3.23,2.12,4.83a26.42,26.42,0,0,0,13.71,13.69c1.7.77,3.39,1.57,5.13,2.25,4.25,1.69,6.54,4.92,7.37,9.3.44,2.34.78,4.7,1.11,7.06,1.14,8,6.09,12.57,13.7,14.11A19.9,19.9,0,0,1,211,586.88a3.89,3.89,0,0,0,4.12,2.32A19.84,19.84,0,0,1,230.89,596c6.24,6.94,12.15,8.56,20.59,4.61,8.14-3.8,14.84-3.23,21.63,2.84A21.54,21.54,0,0,0,292,608.55c9-1.81,15.66.59,20.34,8.47a3.56,3.56,0,0,0,.39.48c5.48,6.65,11.16,8.54,19.3,5.83a19.91,19.91,0,0,1,17.84,2.1,3.39,3.39,0,0,0,4.19,0,19.56,19.56,0,0,1,17.85-2A42.9,42.9,0,0,0,377.91,624.65ZM555.66,171.91c8.42,4.09,19.21,1.49,24.88,10.73,3.82-6.26.14-14.85-6.8-16.67S561.12,166.93,555.66,171.91ZM88,297.39c-7.39-1.44-13.6-1.27-18.76,3.67-5.34,5.12-4.33,14.58,2.15,17.95.69-7.75,6.07-12.1,11.54-16.45A59.94,59.94,0,0,0,88,297.39ZM301.9,611.57c-2.5,10.49.85,19,7.87,21.59,4.73,1.76,11.3-.57,13.38-4.75-9-3-9.39-3.39-15.73-11.2C305.9,615.35,304.06,613.75,301.9,611.57Zm-.2-528.18c7.61-5.66,11.05-15.9,21.75-16.39a11.46,11.46,0,0,0-18.17-2C300.51,70.1,300.27,76.18,301.7,83.39ZM616,397.57c10.38,2.54,18.81-.79,21.52-7.87,1.78-4.64-.57-11.31-5-13.52-.8,7.42-5.71,11.9-11.18,16.06A56.8,56.8,0,0,0,616,397.57ZM380.62,66.71c8.11,2.79,9.39,3.55,13.2,8.06,1.61,1.9,3.08,3.91,4.77,5.72A25.14,25.14,0,0,0,402,83.1c2.44-9.9-.94-18.5-8-21.13C389.31,60.2,382.79,62.51,380.62,66.71Zm21.5,545.1c-7.71,5.53-11.07,15.86-21.81,16.32a11.49,11.49,0,0,0,18,2.2C403.2,625.28,403.54,619.16,402.12,611.81ZM186.58,576.37c-6-6.63-6.32-7.38-7.85-16.61-.46-2.74-1.34-5.4-2-8.1l-1.21-.08a91.5,91.5,0,0,0-4.69,8.57,13,13,0,0,0,1.29,13C175.18,577.64,182.52,579.24,186.58,576.37ZM632.35,319.29c6.57-4.38,7.44-12.92,2.49-18-4.34-4.47-12-6.05-18.39-3.57C621.59,305.08,632.07,308.28,632.35,319.29ZM87.65,397.82c-5.52-7.75-15.89-11.06-16.32-21.85a11.53,11.53,0,0,0-2,18.25C74.42,398.94,80.45,399.14,87.65,397.82Zm175.6-304c-3.53-10.81-10.93-16.33-18.35-14.53-4.83,1.17-9.08,6.56-8.46,10.18,3.42-.2,6.84-.89,10.12-.45s6.46,2,9.71,3C258.36,92.72,260.5,93.17,263.25,93.86ZM440.58,601.24c3.2,10.51,10.63,16.22,18,14.63,5-1.08,9.38-6.43,8.81-10.26-3.4.2-6.82.88-10.1.47s-6.27-2-9.42-2.92C445.65,602.49,443.41,602,440.58,601.24ZM187.05,118.87a11.58,11.58,0,0,0-16.84,7.36c-1.6,6.89,1.52,12.18,6.06,17.58C180.29,135.41,177.73,124.7,187.05,118.87Zm-39.46,404.9.1-1.3c-4.41-.88-8.83-1.72-13.23-2.65a19.15,19.15,0,0,1-11.29-7.14c-3.47,5.32-.59,13.58,5.44,15.92C136.11,531.52,142,528.21,147.59,523.77Zm407.74-.94c8.89,7.8,18,8.87,23.45,3.45,3.59-3.57,4.48-10.27,1.77-13.34-5.72,5.57-7.72,6.45-16,7.73C561.67,521.11,558.85,522,555.33,522.83ZM527.1,143.46l1.16.12A83.65,83.65,0,0,0,533,135a13.21,13.21,0,0,0-1.44-13.26c-3-4.31-10.26-5.82-14.53-2.9,5.83,4.22,7.31,10.45,8.2,17A65,65,0,0,0,527.1,143.46ZM94.76,232.08c-6.22-.34-12,6-11.43,11.82.62,6.92,7.06,13.55,14.6,14.55C97,249.6,89.74,241.65,94.76,232.08Zm422,344.13A11.52,11.52,0,0,0,533.56,569c1.64-6.88-1.46-12.2-6-17.63C523.44,559.67,526.1,570.45,516.72,576.21ZM148.33,172.33c-8-7.63-17.44-8.93-23-3.79-3.76,3.46-4.84,10.2-2,13.85,4.1-5.55,10-7.22,16.46-8A83,83,0,0,0,148.33,172.33Zm456.95,264c1.68,5,3.67,9.13,4.4,13.49s.15,8.85.15,13.29c5.81,0,11.32-6.36,10.57-12.36C619.55,444.07,614,438.37,605.28,436.38ZM93.82,463.09c-.2-3.59-.86-7-.43-10.29s2-6.26,2.94-9.42c.66-2.15,1.13-4.37,1.77-6.91-8.25,1.89-13.76,7.46-14.69,14.2C82.58,456.8,88.3,463.44,93.82,463.09Zm515.63-231c1.86,7.59,1.7,10.23-.88,16.87-.75,1.93-1.56,3.85-2.12,5.83a20.56,20.56,0,0,0-.33,3.9c8.39-2.43,13.59-7.83,14.28-14.45C621,238.09,615.4,231.7,609.45,232.07ZM262.85,601.89c-4.83-.59-8.67,2.27-12.89,3.53a20.94,20.94,0,0,1-13.58-.45c-.31,6.24,6.24,11.89,12.41,11.09C255.44,615.19,261.07,609.61,262.85,601.89ZM440.43,93.62c9.5-.93,17.54-8.28,27-3.21.2-6.59-6.34-12.24-12.47-11.32C447.08,80.29,443.38,85.89,440.43,93.62ZM340.36,68.53l1.13.78a75.06,75.06,0,0,0,8.12-4.21c1.78-1.2,2.83-1.12,4.58,0A89,89,0,0,0,363,69.61c.77-4.16.07-7.15-2.33-9.34-2.84-2.59-6.05-4.77-9.1-7.12-3.39,3.26-7,6.35-10,9.9C340.42,64.29,340.69,66.67,340.36,68.53Zm1,557.33-1.12.84c.42,1.94.25,4.37,1.38,5.72a102.45,102.45,0,0,0,9.4,9.23,2,2,0,0,0,1.88-.1c3-2.64,6.22-5.14,8.7-8.23,1.35-1.68,1.39-4.41,2-6.67l-1.13-.81c-2.55,1.21-5.33,2.13-7.61,3.73s-3.66,1.69-5.91.07S343.94,627.09,341.38,625.86ZM587.4,199c2.33,1.72,4.19,3.72,6.49,4.61,3.33,1.28,4.07,3.22,3.73,6.53-.26,2.44.43,5,.71,7.62a11,11,0,0,0,1.8-.36c4-1.82,7.87-9.92,6.79-16-.63-3.52-4.83-3.1-7.44-4.39a10,10,0,0,0-3-.73C593.34,195.91,590.29,196,587.4,199Zm-471,297.11c-2.43-1.74-4.39-3.77-6.78-4.72-3.12-1.24-3.73-3-3.47-6.11.22-2.55-.43-5.18-.71-8a12.58,12.58,0,0,0-2.17.56c-3.79,2-8,10.78-6.26,15.91.68,2.06,4.84,3,7.47,4.36a8.48,8.48,0,0,0,2.71.66C110.36,499.21,113.44,499.21,116.42,496.11Zm513.65-138,.77,1c1.74-.25,3.61-.18,5.19-.83,4.63-1.88,7.31-5.91,10-9.86a2,2,0,0,0-.21-1.88,87.67,87.67,0,0,0-7.67-8.42c-2-1.79-4.63-2.56-8.15-1.16,1.66,3.17,3.31,6.09,4.7,9.12a4.28,4.28,0,0,1,0,3.15C633.26,352.19,631.62,355.1,630.07,358.06ZM73.54,337l-.76-1.09c-1.94.41-4.38.22-5.72,1.35a101.19,101.19,0,0,0-9.21,9.42,1.93,1.93,0,0,0,.09,1.87c2.64,3,5.12,6.24,8.2,8.72,1.67,1.36,4.4,1.39,6.65,2l.78-1.1c-1.09-2.4-1.83-5.05-3.34-7.13-1.82-2.52-2.16-4.33-.08-6.95C71.75,342.14,72.44,339.42,73.54,337Zm42.71-137.81-.16-1.3c-2.07-.59-4.25-1.94-6.17-1.63a83.26,83.26,0,0,0-12.08,3.42,2.24,2.24,0,0,0-1,1.89,83.26,83.26,0,0,0,2.48,11.1,6.89,6.89,0,0,0,6.36,5,75,75,0,0,0,.5-9c-.13-2.28.39-3.41,2.55-4.46C111.39,202.94,113.75,200.92,116.25,199.21ZM587.15,496.1a26,26,0,0,0,2.35,1.83C593.09,500,603,499,606,495.11c1.43-1.85.31-6-.21-9a14.9,14.9,0,0,0-2.65-5.83c-1-1.34-2.66-2.16-4-3.21l-1.13.59c-.13,3.24-.4,6.5-.35,9.74a2.86,2.86,0,0,1-1.79,3.06C593,492.1,590.26,494.07,587.15,496.1ZM500.41,583c-1.81,2.61-3.87,4.85-5,7.48s-2.5,2.88-4.94,2.78a74.57,74.57,0,0,0-8.9.66c1.23,4.61,4.24,6.13,7.5,7.25,9.07,3.1,11.72,1.66,13.85-7.65C503.69,590,503.9,586.41,500.41,583Zm-296.85.19-1.31.16c-.6,2.06-1.95,4.24-1.64,6.15A82,82,0,0,0,204,601.61a2.21,2.21,0,0,0,1.89,1,82.89,82.89,0,0,0,11.1-2.47,6.75,6.75,0,0,0,5-6.37,71.65,71.65,0,0,0-8.91-.51c-2.26.12-3.42-.33-4.46-2.52C207.29,588.09,205.27,585.73,203.56,583.22Zm18.23-481.8.59-1.39c-1.14-1.34-2.08-3-3.46-4-3.9-2.89-8.58-3.34-13.23-3.59a2.36,2.36,0,0,0-1.79,1.26,86.66,86.66,0,0,0-3.32,10.56c-.56,2.64,0,5.34,2.89,7.79a90.86,90.86,0,0,0,5.36-8.23,3.22,3.22,0,0,1,3.53-2C215.5,101.88,218.65,101.57,221.79,101.42Zm278.37,10.47,1.44-.21c.58-1.92,1.87-4,1.57-5.73a94.5,94.5,0,0,0-3.41-12.45,2.25,2.25,0,0,0-1.91-1,94.8,94.8,0,0,0-12,3,5.63,5.63,0,0,0-3.92,5.95c3.13.17,6.2.53,9.25.43,1.9-.06,2.86.34,3.78,2.15A82.63,82.63,0,0,0,500.16,111.89ZM620.43,283.06a12.27,12.27,0,0,0,11.91-9.59,2.58,2.58,0,0,0-.48-1.89,12.17,12.17,0,0,0-15.77-2.07c-1.27.91-2,1.79-1.27,3.6a23,23,0,0,1,1.76,6.55C616.86,282.55,618.33,283.32,620.43,283.06ZM287.4,79.54a12.3,12.3,0,0,0-9.5-12.4,2.59,2.59,0,0,0-1.92.4c-4.57,3.56-5.58,11.37-1.92,15.92a4.09,4.09,0,0,0,3.25,1c2.33-.34,4.57-1.45,6.89-1.67C286.83,82.58,287.53,81.27,287.4,79.54Zm129-.57c-.16,1.89.23,3.64,3.29,3.88a21.47,21.47,0,0,1,6.55,1.74c1.94.82,2.85,0,3.8-1.38a12.1,12.1,0,0,0-2-15.52,2.62,2.62,0,0,0-1.86-.61C420.89,67.91,416.59,73,416.38,79ZM83.71,283.06c1.84.13,3.22-.5,3.44-3.17a22.43,22.43,0,0,1,1.73-6.55c.78-1.87.21-2.86-1.23-3.87-4.7-3.3-12.15-2.33-15.77,2.15a2.56,2.56,0,0,0-.41,1.91A12.23,12.23,0,0,0,83.71,283.06Zm537,129c-2-.19-3.77.15-4,3.25a22,22,0,0,1-1.78,6.54,2.65,2.65,0,0,0,1.06,3.66c4.62,3.45,12.49,2.5,16-2.06a2.59,2.59,0,0,0,.35-1.93A12.19,12.19,0,0,0,620.68,412.08ZM287.41,615.56c.06-1.36-.25-3-3.2-3.26-2.32-.18-4.56-1.33-6.88-1.67a4.09,4.09,0,0,0-3.27,1c-3.66,4.58-2.67,12.32,1.91,16a2.56,2.56,0,0,0,1.91.41C283.35,626.79,287.3,622,287.41,615.56ZM83.23,412.08c-5.82.15-10.88,4.38-11.8,9.63a2.39,2.39,0,0,0,.32,1.68C75,428,83.59,429.1,87.93,425.32a4.19,4.19,0,0,0,.88-3.32c-.33-2.23-1.42-4.36-1.62-6.59C86.93,412.45,85.33,411.85,83.23,412.08Zm469.6,142.26c1.63-.76,4.2-1.1,4.74-2.33,2.34-5.28-.75-12.25-6-14.68-1.44-.67-2.53-.82-3.75.66-1.7,2.06-3.86,3.72-5.58,5.76a3.72,3.72,0,0,0-.69,3.08C543.19,551.32,547.44,553.9,552.83,554.34Zm-.21-413c-5.14-.11-9.39,2.44-11,6.93a3.77,3.77,0,0,0,.65,3.1,50.32,50.32,0,0,0,5.9,5.87,3.78,3.78,0,0,0,3.1.6c4.31-1.55,6.9-5.77,6.9-10.74S557.61,141.44,552.62,141.33Zm-407,5.76c.05,5.07,2.56,9.17,6.9,10.74a3.71,3.71,0,0,0,3.1-.61,50.41,50.41,0,0,0,5.9-5.88,3.73,3.73,0,0,0,.63-3.09c-1.61-4.48-5.88-7.05-11-6.92S145.59,142.05,145.64,147.09ZM416.41,616.32c.19,5.8,4.37,10.79,9.66,11.71a2.59,2.59,0,0,0,1.86-.57,12.09,12.09,0,0,0,2.59-14.7c-1.08-2-2.21-3.33-4.84-2.06a16.89,16.89,0,0,1-5.94,1.62C416.77,612.54,416.16,614.15,416.41,616.32ZM151.21,553.8c5.11.1,9.42-2.52,11-7a3.74,3.74,0,0,0-.7-3.07c-1.72-2-3.88-3.71-5.57-5.76-1.22-1.48-2.34-1.38-3.75-.64a11.34,11.34,0,0,0-6.54,10.74C145.63,553.11,146.19,553.71,151.21,553.8Zm450.43-80.86,8.51,10.16a9.32,9.32,0,0,0,7.08-6.21c1.36-3.76,1.69-7.62-.53-10.68-3.25.32-6,.57-8.68.9a2.74,2.74,0,0,0-1.57.68C604.64,469.64,602.92,471.55,601.64,472.94ZM102.12,222.13l-8.45-10a9.48,9.48,0,0,0-7.38,6.9c-1,3.62-1.31,7.23.89,10C93.64,228.42,99.54,227.65,102.12,222.13Zm514.35,6.79c4.64-5.79.81-15.42-6.43-16.63l-8.47,9.82c1.42,1.53,3.13,3.45,4.93,5.28a2.8,2.8,0,0,0,1.58.65C610.79,228.36,613.5,228.62,616.47,228.92ZM470.53,82.86c.32,3.07.59,5.68.89,8.28a3,3,0,0,0,.48,1.67c2,1.89,4,3.69,5.42,5l9.87-8.36C485.71,82.14,477,78.62,470.53,82.86Zm6.78,514.43c-1.36,1.25-3.27,3-5.09,4.76a3.31,3.31,0,0,0-.79,1.83c-.36,2.7-.62,5.41-.93,8.31,6.22,4.51,15.76.59,16.63-6.52Zm-250.82,0-9.89,8.37c1.43,7.36,11.09,11.1,16.62,6.49-.3-3-.53-5.75-.84-8.45a2.83,2.83,0,0,0-.7-1.57C229.84,600.34,227.93,598.63,226.49,597.3Zm0-499.47c1.48-1.37,3.4-3.09,5.23-4.88a2.87,2.87,0,0,0,.65-1.6c.33-2.7.58-5.41.89-8.38-5.82-4.57-15.38-.78-16.64,6.49ZM102.16,473c-1.34-1.46-3.12-3.45-5-5.38a2.31,2.31,0,0,0-1.35-.52c-2.79-.3-5.6-.55-8.63-.83-4.44,6.24-.5,15.75,6.57,16.55ZM586.91,177.73c-1.29,2.9-2.37,5.29-3.42,7.7a2.4,2.4,0,0,0-.33,1.4c.76,2.62,1.62,5.21,2.24,7.13l12.65-2.29C600.93,185.07,594.66,177,586.91,177.73ZM381.6,58.9c-2.71-6.08-14.23-8.8-18.17-1.89a36.75,36.75,0,0,1,3,5.53,37.57,37.57,0,0,1,1.1,6.23c2.66-.62,5.18-1.18,7.67-1.81a2.25,2.25,0,0,0,1.17-.82C378,63.87,379.67,61.57,381.6,58.9Zm123.86,55.18c1.92.61,4.44,1.43,7,2.17a2.12,2.12,0,0,0,1.39-.17c2.57-1.14,5.11-2.34,7.88-3.62.66-7.67-7.27-13.82-13.91-11Zm2.38,479.68c6.92,2.45,14.59-3.59,13.82-11.45-5.53-1.84-11-5.24-16.2-1.14C506.23,585.27,507,589.23,507.84,593.76ZM198.31,581c-1.94-.6-4.39-1.38-6.85-2.09a2.19,2.19,0,0,0-1.41,0c-2.58,1.15-5.12,2.36-8,3.68-1,7.33,6.9,13.61,13.92,11.1ZM118.52,194c.36-3.52,3.79-7.46,0-11.65a3.76,3.76,0,0,1-.52-1.77c-.63-3.28-1.38-3.91-4.42-2.51a21.3,21.3,0,0,0-6.24,4.39,7.88,7.88,0,0,0-1.51,9.18ZM196,101.25a8.62,8.62,0,0,0-9.18,1.66c-3.07,2.6-5.19,5.8-4.92,9.52,3,1.36,5.47,2.51,8,3.58a2.67,2.67,0,0,0,1.67.16c2.47-.7,4.9-1.49,6.77-2.08C197.53,109.87,196.79,105.8,196,101.25ZM116.78,517.39c1.35-2.92,2.52-5.39,3.63-7.88a2.19,2.19,0,0,0,.15-1.4c-.73-2.54-1.55-5.05-2.13-6.93l-12.74,2.29C103.18,510.37,109.16,518,116.78,517.39Zm468.54-16.25c-.66,2.28-2.32,5.14-2,7.78.32,2.91,2.41,5.64,3.77,8.55,8.12,0,14-7.8,11-14ZM63.21,317.83c-7,3.9-8.08,14.07-2.46,17.77L73,331.31c-.47-2-1-4.38-1.64-6.77a2.85,2.85,0,0,0-.9-1.45C68.16,321.38,65.85,319.74,63.21,317.83Zm9.88,45.44a38.55,38.55,0,0,1-6.2-1.18,42.19,42.19,0,0,1-5.65-3,10.9,10.9,0,0,0,2.13,18.11c2.49-1.8,4.79-3.43,7-5.13a2.76,2.76,0,0,0,.9-1.44C71.94,368.22,72.48,365.81,73.09,363.27Zm567.4-45.37c-2.53,1.85-4.73,3.45-6.92,5.07-.39.28-.92.61-1,1-.66,2.66-1.22,5.33-1.79,7.87a39.15,39.15,0,0,1,6.2,1.21,40.57,40.57,0,0,1,5.61,3C648.61,330.94,647.44,322,640.49,317.9Zm-9.71,45.93c.4,1.47.89,3.36,1.41,5.24.27.95.3,2.23.94,2.76,2.32,1.92,4.84,3.59,7.4,5.42,7.1-4.47,8.15-14.18,2.49-17.72ZM335.55,68.6c1.59-4.29,3-8.14,4.52-12.2-5.13-5.61-15.1-4-17.74,2.68,1.81,2.48,3.39,4.71,5,6.88a2.79,2.79,0,0,0,1.36,1C331.2,67.61,333.71,68.16,335.55,68.6ZM381.5,636.1c-1.86-2.53-3.39-4.65-5-6.74-.34-.46-.77-1-1.26-1.16-2.56-.68-5.15-1.23-7.1-1.68l-4.36,12.19C368.25,644.36,378,643,381.5,636.1ZM340,638.79l-4.31-12.27c-2,.47-4.37,1-6.76,1.62a2.85,2.85,0,0,0-1.46.88c-1.7,2.25-3.31,4.56-5.12,7.06C325.56,643,335.39,644.35,340,638.79Zm213.81-470.3c5.38-4.83,11.19-7.16,17.82-6.86a9.85,9.85,0,0,0-9.78-11.16c-1.11,6-5.22,9.52-10.63,11.9C552,164.35,552.76,166.13,553.76,168.49ZM417.85,628.1c-4.72-4.17-6-9.36-5.15-15.4l-6.43-.6c1,6.92.64,13.22-3.2,18.79C408,634.29,413.74,633.22,417.85,628.1ZM297.53,83.16c-1-7-.67-13.36,3.19-19-5.17-3.33-11.07-2.13-14.72,2.94,4.69,4,5.92,9.29,5.11,15.26Zm3.3,547.74c-4.16-5.71-4.14-12.18-3.34-18.95l-5.92.78c-.33,3-.2,5.89-1.07,8.43s-2.76,4.94-4.23,7.44C290.28,633.18,295.61,634.19,300.83,630.9ZM412.77,82.37c-1-6.22.6-11.31,5-15.36-3.94-5.17-10.42-6.3-14.64-2.53,4,5.52,4,11.88,3.16,18.64ZM617,286.81c-.19,2.15-.36,4.11-.55,6.38,6.94-1,13.23-.59,18.82,3.21,3.33-5.25,2.11-11.21-2.79-14.58C626.75,286.59,624.65,287.29,617,286.81Zm-65.87,246c5.71,2.26,9.59,6.1,10.79,12.07,6.34-.9,10.27-5.49,9.71-11.26-6.84.55-12.47-2.55-17.93-6.75ZM86.72,408.3l.72-6.37c-6.91,1-13.3.63-18.94-3.2-3.31,5.34-2,11.42,2.87,14.57C76.82,408.61,79,407.87,86.72,408.3Zm530.38.12c6.33-1,11.43.68,15.45,5.12,5.11-4.48,6.09-10.42,2.48-14.79-5.53,4-11.92,4-18.72,3.19C616.6,404.32,616.84,406.22,617.1,408.42ZM87.49,293.19l-.72-5.95c-3-.34-5.92-.2-8.46-1.06s-4.94-2.76-7.46-4.24c-4.66,4-5.65,9.66-2.21,14.49C74.17,292.42,80.51,292.31,87.49,293.19ZM154.6,557.53c.71,6.38,6,10.76,11.35,9.55-.57-6.74,2.43-12.33,6.63-17.7l-6-2.6C164.39,552.55,160.62,556.24,154.6,557.53ZM538.08,127.81c-.67,7.59-.67,7.59-6.61,18l5.52,2.44c4.26-7.49,5.12-8.25,12-10.85A10.07,10.07,0,0,0,538.08,127.81Zm-.23,439.46A10.07,10.07,0,0,0,549,557.5c-6-1.2-9.66-5.12-11.87-10.77l-5.94,2.71C535.49,554.85,538.41,560.36,537.85,567.27ZM172.61,145.73c-4.38-5.45-7.19-11.09-6.74-17.8a10,10,0,0,0-11.14,9.47c7.07,2.73,7.67,3.27,12.08,10.86Zm455,118.53c2.74-5.56.55-11.9-4.89-13.93-2.76,6.26-8.28,9.47-14.57,12.14l3.89,5.2C616.82,263.75,622,262.54,627.59,264.26ZM81,250.25a10,10,0,0,0-4.79,14c5.72-1.85,10.88-.36,15.61,3.38l3.79-5.22C89.45,259.85,84,256.65,81,250.25ZM627.61,430.79c-5.93,2-11,.24-15.75-3.28l-3.7,5.23c6.45,2.54,11.8,6,14.69,12.18C628.33,442.12,630.18,436.53,627.61,430.79Zm-360.86,173c-2.6,6.53-6,11.93-12.24,14.82,3,5.48,8.67,7.31,14.09,4.74-1.75-5.69-.48-10.9,3.4-15.71ZM152.69,162.3c-5.84-2.31-9.59-6.15-10.82-12-6.24.64-10.62,5.83-9.52,11.34,6.77-.68,12.3,2.45,17.71,6.64C151,166.16,151.78,164.38,152.69,162.3ZM141.94,544.75c1.12-6,5.27-9.65,10.74-12L150,526.9c-5.45,4.29-11,7.23-17.78,6.7A10.12,10.12,0,0,0,141.94,544.75Zm112.71-468c6.31,2.75,9.51,8.34,12.16,14.56l5.18-3.8c-3.86-4.85-5.15-10-3.39-15.72C262.93,69.16,256.76,71.32,254.65,76.76ZM431.79,87.54,437,91.28c2.54-6.37,6-11.75,12.19-14.64-2.67-5.56-9.06-7.6-14-4.69C437,77.59,435.61,82.68,431.79,87.54Zm3.54,535.92c5.8,2.38,11.38.41,13.8-4.92-6.16-3-9.56-8.4-12.14-14.74l-5.06,3.78C436.09,614.05,436.44,615.71,435.33,623.46ZM76.15,430.88c-2.64,5.7-.52,11.76,4.85,13.92,2.91-6.2,8.35-9.57,14.65-12.11l-3.83-5.25C87,431.34,81.83,432.6,76.15,430.88Z"/></svg>