<svg id="Layer_1" data-name="Layer 1" xmlns="http://www.w3.org/2000/svg" viewBox="0 0 320.12 307.45"><defs><style>.cls-1{fill:#1d0d1c;}.cls-2{fill:#100b0c;}</style></defs><path class="cls-1" d="M105.73,23.45A137.44,137.44,0,0,0,49,66.77,144.52,144.52,0,0,0,30.69,98.53a3.18,3.18,0,0,0-1.16,2.8c-13.49,34.06-13.87,72.49,0,106.61a3.2,3.2,0,0,0,.54,1.29A136.38,136.38,0,0,0,42,231.54c17.32,26.28,42.7,46.88,72.67,57.08a143.87,143.87,0,0,0,46.49,7.5v-4.94a141.11,141.11,0,0,1-49.78-9.68c4.78-10.46,10.31-21,18.62-29,8.49-8.2,19.45-11.92,31.16-11.9v-9.68h0a2,2,0,0,1-2-2,2,2,0,0,1,2-2h0V223a5.09,5.09,0,0,0-4.52,2.75,6.42,6.42,0,0,0-.69,2.88,5.62,5.62,0,0,0-.78-1.71,5.09,5.09,0,0,0-5-2.32,5,5,0,0,0-4.09,3.46,6.21,6.21,0,0,0-.2,3.31,6.55,6.55,0,0,0-1.68-2.18,5.05,5.05,0,0,0-8.4,3.79,6.52,6.52,0,0,0,.57,2.71,5.85,5.85,0,0,0-1.75-1.4,5.06,5.06,0,0,0-7.39,5.46,6.5,6.5,0,0,0,1,2.48l0,0a6.09,6.09,0,0,0-2.63-2.17,6.22,6.22,0,0,0-3.43-.34v0a6.21,6.21,0,0,0,2.44-1,5.06,5.06,0,0,0-1.23-9.1,5.92,5.92,0,0,0-2.31-.28,6.23,6.23,0,0,0,2.39-1.59A5.06,5.06,0,0,0,120,219.2a6.54,6.54,0,0,0-2.61.37,6.41,6.41,0,0,0,2.16-2.4,5.05,5.05,0,0,0-5.53-7.33,6,6,0,0,0-1.83.67,6.28,6.28,0,0,0,1.48-2.35,5,5,0,0,0-6.5-6.5,6.3,6.3,0,0,0-2.35,1.49,6.15,6.15,0,0,0,.67-1.84,5.06,5.06,0,0,0-7.33-5.53,6.49,6.49,0,0,0-2.4,2.16,6.37,6.37,0,0,0,.37-2.61,5.07,5.07,0,0,0-8.56-3.44A6.23,6.23,0,0,0,86,194.28a6.16,6.16,0,0,0-.23-2.16,5.1,5.1,0,0,0-3.9-3.62,5,5,0,0,0-5,2,6.28,6.28,0,0,0-1.18,2.7h-.06a5.84,5.84,0,0,0-2.51-6.06l0,0a6.5,6.5,0,0,0,2.48,1A5.06,5.06,0,0,0,81,180.73a6,6,0,0,0-1.4-1.75,6.4,6.4,0,0,0,2.71.57,5.05,5.05,0,0,0,3.79-8.4A6.49,6.49,0,0,0,84,169.47a6.86,6.86,0,0,0,3.18-.13,5.07,5.07,0,0,0,1.55-9,6.13,6.13,0,0,0-2-1,6.39,6.39,0,0,0,2.9-.7,5.06,5.06,0,0,0,0-9,6.5,6.5,0,0,0-2.88-.7,5.91,5.91,0,0,0,1.7-.77,5.07,5.07,0,0,0-1.13-9.11,6.46,6.46,0,0,0-3.32-.2,6.52,6.52,0,0,0,2.18-1.67,5.06,5.06,0,0,0-3.79-8.41,6.63,6.63,0,0,0-2.7.57A6,6,0,0,0,81,127.63a5.05,5.05,0,0,0-5.46-7.38,6.2,6.2,0,0,0-2.48,1l0,0a5.88,5.88,0,0,0,2.51-6h.05a6.33,6.33,0,0,0,1,2.43,5.06,5.06,0,0,0,9.1-1.23,5.9,5.9,0,0,0,.28-2.31,6.23,6.23,0,0,0,1.59,2.39A5.06,5.06,0,0,0,96.13,113a6.37,6.37,0,0,0-.37-2.61,6.49,6.49,0,0,0,2.4,2.16,5.05,5.05,0,0,0,7.33-5.52,6,6,0,0,0-.67-1.84,6.46,6.46,0,0,0,2.35,1.49,5,5,0,0,0,6.5-6.51,6.57,6.57,0,0,0-1.48-2.35,6,6,0,0,0,1.83.67,5.05,5.05,0,0,0,5.53-7.33,6.49,6.49,0,0,0-2.16-2.4,6.21,6.21,0,0,0,2.61.37,5.06,5.06,0,0,0,3.44-8.55,6.15,6.15,0,0,0-2.39-1.6,6.39,6.39,0,0,0,2.16-.22,5.11,5.11,0,0,0,3.62-3.91,5.06,5.06,0,0,0-2-5,6.37,6.37,0,0,0-2.71-1.18V68.6a6.19,6.19,0,0,0,3.42-.33,6.3,6.3,0,0,0,2.63-2.17l0,0a6.41,6.41,0,0,0-1,2.49,5.06,5.06,0,0,0,7.39,5.45,6,6,0,0,0,1.75-1.39,6.47,6.47,0,0,0-.57,2.7,5.05,5.05,0,0,0,8.4,3.79A6.43,6.43,0,0,0,145.86,77a6.69,6.69,0,0,0,.14,3.17,5.06,5.06,0,0,0,9,1.56,6.41,6.41,0,0,0,1-2,6.25,6.25,0,0,0,.69,2.9,5.14,5.14,0,0,0,4.52,2.79v-4h0a2,2,0,0,1,0-4h0V67.8c-11.72,0-22.66-3.69-31.16-11.91-8.31-8-13.84-18.56-18.62-29a132.82,132.82,0,0,1,49.78-9.22V12.12A146.46,146.46,0,0,0,108,22.55,3.23,3.23,0,0,0,105.73,23.45Zm45.27,205h.09a2,2,0,0,1,0,4H151a2,2,0,0,1,0-4Zm-10,3.63h.08a2,2,0,0,1,0,4H141a2,2,0,0,1,0-4Zm-8.58,5.36h.09a2,2,0,1,1,0,4h-.09a2,2,0,0,1-2-2A2,2,0,0,1,132.44,237.43ZM151,76h.09a2,2,0,1,1,0,4H151a2,2,0,0,1-2-2A2,2,0,0,1,151,76Zm-10-3.64h.08a2,2,0,1,1,0,4H141a2,2,0,0,1,0-4ZM132.44,67h.09a2,2,0,0,1,0,4h-.09a2,2,0,0,1,0-4ZM123.5,244.2l.17.05.12,0a2.05,2.05,0,0,1,1.31,1.87,2,2,0,0,1-2,2,2.13,2.13,0,0,1-1.51-.63,2,2,0,0,1,0-2.81A1.91,1.91,0,0,1,123.5,244.2Zm-1-10.92.07.06a2,2,0,1,1-2.82,2.82l-.06-.07a2,2,0,0,1,2.81-2.81Zm-5.08-9.85a2,2,0,0,1,2.81,0l.06.07a2,2,0,0,1-2.81,2.81l-.06-.06A2,2,0,0,1,117.44,223.43Zm-4.5-9.63a2,2,0,0,1,2.82,0l.06.07a2,2,0,0,1-2.82,2.81l-.06-.06A2,2,0,0,1,112.94,213.8Zm-6.06-8.22a2,2,0,0,1,2.81,0l.06.06a2,2,0,1,1-2.81,2.82l-.06-.07A2,2,0,0,1,106.88,205.58Zm-8.23-6.07a2,2,0,0,1,2.82,0l.06.07a2,2,0,1,1-2.81,2.81l-.07-.06A2,2,0,0,1,98.65,199.51ZM89,195a2,2,0,0,1,2.82,0l.06.06a2,2,0,1,1-2.81,2.82l-.07-.07A2,2,0,0,1,89,195Zm-9.84-2.27a2,2,0,0,1,2.81,0l.06.06a2,2,0,0,1-2.81,2.81l-.06-.06A2,2,0,0,1,79.18,192.75Zm20.89,22.52c8.33,8.31,13.44,18.73,13.61,30.59.17,11.54-3.37,22.85-7.38,33.59a132.88,132.88,0,0,1-47.24-34A136.58,136.58,0,0,1,36,209c10.73-4,22-7.51,33.52-7.35C81.35,201.82,91.73,207,100.07,215.27ZM67.2,192.22a2,2,0,0,1,2-2,1.92,1.92,0,0,1,1.69,1l.08.15.06.11a2.07,2.07,0,0,1-.39,2.25,2,2,0,0,1-2.81,0A2.1,2.1,0,0,1,67.2,192.22Zm10.71-9.33a2,2,0,0,1-2,2,2,2,0,0,1-2-2v-.09a2,2,0,1,1,4,0Zm9-18.65v.09a2,2,0,0,1-4,0v-.09a2,2,0,0,1,2-2A2,2,0,0,1,86.89,164.24Zm1.53-10.1v.09a2,2,0,1,1-4,0v-.09a2,2,0,0,1,4,0ZM84.9,142a2,2,0,0,1,2,2v.09a2,2,0,0,1-4,0V144A2,2,0,0,1,84.9,142Zm-5.62-8a2,2,0,1,1,4,0v.09a2,2,0,0,1-4,0Zm0,40.18a2,2,0,0,1,4,0v.09a2,2,0,0,1-4,0Zm-5.35-48.75a2,2,0,1,1,4,0v.08a2,2,0,1,1-4,0Zm.83,28.7c0,11.72-3.68,22.66-11.9,31.16-8,8.3-18.53,13.83-29,18.6-12.26-31.75-12.85-67.67-.3-99.65C44.14,109.1,54.76,114.65,62.86,123S74.78,142.48,74.76,154.18Zm-7.56-38a2.08,2.08,0,0,1,.62-1.51,2,2,0,0,1,2.81,0,2,2,0,0,1,.51,1.89,1.21,1.21,0,0,0,0,.18.36.36,0,0,0,0,.11,2.07,2.07,0,0,1-1.86,1.32A2,2,0,0,1,67.2,116.15Zm14.85-.59-.06.06a2,2,0,0,1-2.81-2.82l.06-.06a2,2,0,0,1,2.81,2.82Zm9.85-2.28-.06.06A2,2,0,0,1,89,110.53l.07-.06a2,2,0,0,1,2.81,2.81Zm9.63-4.49-.06.06A2,2,0,0,1,98.65,106l.07-.07a2,2,0,1,1,2.81,2.82Zm8.22-6.07-.06.06a2,2,0,0,1-2.81-2.81l.06-.06a2,2,0,0,1,2.81,2.81Zm11.86-41.87a2.13,2.13,0,0,1,1.51-.62,2,2,0,0,1,2,2,1.89,1.89,0,0,1-1,1.69L124,64a.67.67,0,0,1-.12.06,2.06,2.06,0,0,1-2.25-.38A2,2,0,0,1,121.61,60.85Zm-1.9,11.42.06-.06A2,2,0,1,1,122.59,75l-.07.06a2,2,0,0,1-2.81-2.81Zm-2.27,9.85.06-.06a2,2,0,0,1,2.81,2.81l-.06.06a2,2,0,0,1-2.81-2.81Zm-1.62,9.57a2,2,0,0,1,0,2.81l-.06.06a2,2,0,1,1-2.82-2.81l.06-.06A2,2,0,0,1,115.82,91.69ZM113.68,62.5c-.17,11.88-5.29,22.26-13.61,30.6s-18.74,13.44-30.6,13.61c-11.6.17-23-3.41-33.78-7.45A130.43,130.43,0,0,1,41.89,87a141.3,141.3,0,0,1,64.45-58C110.33,39.72,113.85,51,113.68,62.5Z"/><path class="cls-1" d="M216.08,284.93a137.44,137.44,0,0,0,56.69-43.32,145,145,0,0,0,18.36-31.76,3.15,3.15,0,0,0,1.15-2.8c13.49-34.06,13.88-72.49,0-106.61a3.37,3.37,0,0,0-.55-1.29,135.56,135.56,0,0,0-11.87-22.31C262.5,50.56,237.12,30,207.16,19.76a143.79,143.79,0,0,0-46.49-7.64v5.53a140.7,140.7,0,0,1,49.78,9.23c-4.78,10.46-10.31,21-18.63,29-8.48,8.2-19.45,11.92-31.15,11.9v9.68h0a2,2,0,1,1,0,4h0v4a5.11,5.11,0,0,0,4.51-2.79,6.43,6.43,0,0,0,.7-2.87,5.91,5.91,0,0,0,.77,1.7,5.07,5.07,0,0,0,9.11-1.13A6.46,6.46,0,0,0,176,77a6.4,6.4,0,0,0,1.67,2.18A5.05,5.05,0,0,0,186,75.4a6.51,6.51,0,0,0-.56-2.71,5.85,5.85,0,0,0,1.75,1.4,5.05,5.05,0,0,0,7.38-5.46,6.2,6.2,0,0,0-1-2.48l0,0a5.88,5.88,0,0,0,6,2.51v0a6.11,6.11,0,0,0-2.43,1,5.06,5.06,0,0,0,1.23,9.1,5.9,5.9,0,0,0,2.31.28,6.23,6.23,0,0,0-2.39,1.59,5.11,5.11,0,0,0-1.08,5.29,5.17,5.17,0,0,0,4.52,3.27,6.54,6.54,0,0,0,2.61-.37,6.52,6.52,0,0,0-2.17,2.4,5.06,5.06,0,0,0,5.53,7.33,6,6,0,0,0,1.84-.67,6.38,6.38,0,0,0-1.49,2.35,5,5,0,0,0,6.51,6.5,6.57,6.57,0,0,0,2.35-1.48,6,6,0,0,0-.68,1.83,5.07,5.07,0,0,0,7.34,5.53,6.49,6.49,0,0,0,2.4-2.16,6.21,6.21,0,0,0-.37,2.61,5.06,5.06,0,0,0,8.55,3.44,6.15,6.15,0,0,0,1.6-2.39,6.15,6.15,0,0,0,.22,2.16A5.05,5.05,0,0,0,245,117.9a6.4,6.4,0,0,0,1.18-2.7h.05a5.89,5.89,0,0,0,2.51,6.06l0,0a6.41,6.41,0,0,0-2.49-1,5.05,5.05,0,0,0-5.45,7.39,5.82,5.82,0,0,0,1.39,1.75,6.47,6.47,0,0,0-2.7-.57,5.05,5.05,0,0,0-3.79,8.4,6.55,6.55,0,0,0,2.18,1.68,6.81,6.81,0,0,0-3.17.13,5.11,5.11,0,0,0-3.61,4.16,5,5,0,0,0,2,4.81,6.08,6.08,0,0,0,2,1,6.39,6.39,0,0,0-2.9.7,5,5,0,0,0,0,9,6.47,6.47,0,0,0,2.88.7,6,6,0,0,0-1.71.77,5.13,5.13,0,0,0-2.32,5,5,5,0,0,0,3.46,4.09,6.43,6.43,0,0,0,3.31.2,6.52,6.52,0,0,0-2.17,1.67,5.06,5.06,0,0,0,3.79,8.41,6.63,6.63,0,0,0,2.7-.57,5.82,5.82,0,0,0-1.39,1.75,5,5,0,0,0,5.45,7.38,6.24,6.24,0,0,0,2.49-1l0,0a5.85,5.85,0,0,0-2.5,6.05h-.05a6.49,6.49,0,0,0-1-2.43,5.06,5.06,0,0,0-9.1,1.23,5.9,5.9,0,0,0-.28,2.31,6.15,6.15,0,0,0-1.6-2.39,5.09,5.09,0,0,0-5.28-1.08,5.15,5.15,0,0,0-3.27,4.52,6.21,6.21,0,0,0,.37,2.61,6.57,6.57,0,0,0-2.4-2.16,5.06,5.06,0,0,0-7.34,5.52,5.81,5.81,0,0,0,.68,1.84,6.46,6.46,0,0,0-2.35-1.49,5.06,5.06,0,0,0-6.51,6.51,6.46,6.46,0,0,0,1.49,2.35,6,6,0,0,0-1.84-.67,5.06,5.06,0,0,0-5.53,7.33,6.6,6.6,0,0,0,2.17,2.4,6.23,6.23,0,0,0-2.61-.37,5.06,5.06,0,0,0-3.44,8.55,6.08,6.08,0,0,0,2.39,1.6,6.36,6.36,0,0,0-2.16.22A5.1,5.1,0,0,0,195,233.5a5,5,0,0,0,2,5,6.39,6.39,0,0,0,2.7,1.18v.06a5.85,5.85,0,0,0-6,2.5l0,0a6.24,6.24,0,0,0,1-2.49,5,5,0,0,0-7.38-5.45,6,6,0,0,0-1.75,1.39A6.47,6.47,0,0,0,186,233a5.07,5.07,0,0,0-2.7-4.48,5.12,5.12,0,0,0-5.7.69,6.4,6.4,0,0,0-1.67,2.18,6.69,6.69,0,0,0-.14-3.17,5.09,5.09,0,0,0-4.16-3.61,5,5,0,0,0-4.8,2,6,6,0,0,0-1,2,6.39,6.39,0,0,0-.7-2.9,4.65,4.65,0,0,0-4.5-2.74v3.91h0a2,2,0,0,1,0,4h0v9.65c11.71,0,22.65,3.71,31.15,11.93,8.32,8,13.85,18.56,18.62,29a133.16,133.16,0,0,1-49.77,9.67v4.94a146.58,146.58,0,0,0,53.18-10.29A3.21,3.21,0,0,0,216.08,284.93Zm-45.26-205h-.09a2,2,0,1,1,0-4h.09a2,2,0,0,1,0,4Zm10-3.63h-.09a2,2,0,0,1,0-4h.09a2,2,0,0,1,0,4ZM189.37,71h-.09a2,2,0,0,1,0-4h.09a2,2,0,1,1,0,4ZM170.82,232.43h-.09a2,2,0,1,1,0-4h.09a2,2,0,0,1,0,4Zm10,3.64h-.09a2,2,0,0,1-2-2,2,2,0,0,1,2-2h.09a2,2,0,0,1,0,4Zm8.57,5.35h-.09a2,2,0,0,1,0-4h.09a2,2,0,1,1,0,4Zm8.95-177.24-.18-.05-.11,0a2.08,2.08,0,0,1-1.32-1.87,2,2,0,0,1,2-2,2.13,2.13,0,0,1,1.51.63,2,2,0,0,1,0,2.81A1.92,1.92,0,0,1,198.32,64.18Zm1,10.92-.06-.06A2,2,0,1,1,202,72.22a.46.46,0,0,1,.07.07,2,2,0,0,1-2.82,2.81ZM204.38,85a2,2,0,0,1-2.81,0l-.06-.06a2,2,0,1,1,2.81-2.82l.06.06A2,2,0,0,1,204.38,85Zm4.49,9.63a2,2,0,0,1-2.81,0l-.06-.07a2,2,0,0,1,2.81-2.81l.06.06A2,2,0,0,1,208.87,94.58Zm6.07,8.22a2,2,0,0,1-2.81,0l-.07-.06a2,2,0,0,1,2.82-2.82l.06.07A2,2,0,0,1,214.94,102.8Zm8.22,6.07a2,2,0,0,1-2.81,0l-.06-.07A2,2,0,0,1,223.1,106l.06.06A2,2,0,0,1,223.16,108.87Zm9.63,4.49a2,2,0,0,1-2.81,0l-.06-.06a2,2,0,0,1,2.81-2.82l.06.07A2,2,0,0,1,232.79,113.36Zm9.85,2.27a2,2,0,0,1-2.81,0l-.06-.06a2,2,0,1,1,2.81-2.81l.06.06A2,2,0,0,1,242.64,115.63ZM221.75,93.12c-8.33-8.32-13.44-18.74-13.62-30.6C208,51,211.51,39.67,215.52,28.93a133,133,0,0,1,47.24,34,136.55,136.55,0,0,1,23.1,36.48c-10.72,4-22,7.52-33.51,7.35C240.47,106.56,230.09,101.44,221.75,93.12Zm32.87,23a2,2,0,0,1-2,2,1.89,1.89,0,0,1-1.69-1,1.09,1.09,0,0,1-.08-.15.6.6,0,0,1-.06-.11,2.06,2.06,0,0,1,.38-2.25,2,2,0,0,1,2.82,0A2.1,2.1,0,0,1,254.62,116.16Zm-10.71,9.33a2,2,0,1,1,4,0v.09a2,2,0,1,1-4,0Zm-9,18.65v-.09a2,2,0,0,1,4,0v.09a2,2,0,0,1-4,0Zm-1.52,10.1v-.09a2,2,0,0,1,4,0v.09a2,2,0,0,1-4,0Zm3.51,12.1a2,2,0,0,1-2-2v-.09a2,2,0,0,1,4,0v.09A2,2,0,0,1,236.91,166.34Zm5.62,8a2,2,0,1,1-4,0v-.09a2,2,0,1,1,4,0Zm0-40.18a2,2,0,1,1-4,0v-.09a2,2,0,1,1,4,0Zm5.36,48.75a2,2,0,1,1-4,0v-.08a2,2,0,0,1,4,0Zm-.84-28.7c0-11.72,3.69-22.66,11.91-31.16,8-8.3,18.53-13.83,29-18.6,12.25,31.75,12.85,67.67.29,99.65-10.54-4.8-21.16-10.35-29.26-18.73S247,165.91,247.05,154.2Zm7.57,38a2.13,2.13,0,0,1-.62,1.51,2,2,0,0,1-2.82,0,1.92,1.92,0,0,1-.5-1.89,1.21,1.21,0,0,1,0-.18.76.76,0,0,1,0-.11,2.07,2.07,0,0,1,1.86-1.32A2,2,0,0,1,254.62,192.23Zm-14.85.59.06-.06a2,2,0,0,1,2.81,2.82l-.06.06a2,2,0,0,1-2.81-2.82Zm-9.85,2.28L230,195a2,2,0,0,1,2.81,2.81l-.06.06a2,2,0,0,1-2.81-2.81Zm-9.63,4.49.06-.06a2,2,0,0,1,2.81,2.81l-.06.07a2,2,0,0,1-2.81-2.82Zm-8.23,6.07.07-.06a2,2,0,0,1,2.81,2.81l-.06.06a2,2,0,0,1-2.82-2.81Zm-11.85,41.87a2.13,2.13,0,0,1-1.51.62,2,2,0,0,1-2-2,1.93,1.93,0,0,1,1-1.69l.15-.08.12-.06a2.07,2.07,0,0,1,2.25.38A2,2,0,0,1,200.21,247.53Zm1.9-11.42-.07.06a2,2,0,0,1-2.81-2.81l.06-.06a2,2,0,0,1,2.82,2.81Zm2.27-9.85-.06.06a2,2,0,0,1-2.81-2.81l.06-.06a2,2,0,0,1,2.81,2.81ZM206,216.7a2,2,0,0,1,0-2.82l.06-.06a2,2,0,0,1,2.81,2.81l-.06.07A2,2,0,0,1,206,216.7Zm2.13,29.18c.18-11.88,5.3-22.26,13.62-30.6s18.73-13.44,30.6-13.61c11.6-.17,23,3.41,33.77,7.45a128.07,128.07,0,0,1-6.2,12.26,141.33,141.33,0,0,1-64.44,58C211.49,268.66,208,257.38,208.13,245.88Z"/><path class="cls-2" d="M173.57,129.24c4.51-7.79,9.86-14.89,14.7-22.46,3.39-5.3,7.35-14.38-.47-17.83l-.31-.1c-.11,0-.21-.12-.32-.16-7.69-3-11.44,5.61-12.83,11.65-2.06,8.94-3.25,18-5.62,26.86C168,130.09,172.05,131.88,173.57,129.24Z"/><path class="cls-2" d="M187.34,145.82c8.89-2.38,17.92-3.56,26.86-5.62,6-1.39,14.69-5.14,11.65-12.83,0-.12-.11-.21-.16-.32s-.06-.21-.11-.31c-3.44-7.82-12.52-3.86-17.83-.47-7.56,4.84-14.66,10.19-22.46,14.7A2.67,2.67,0,0,0,187.34,145.82Z"/><path class="cls-2" d="M214.2,168c-8.94-2.06-18-3.25-26.86-5.62-2.89-.77-4.68,3.33-2.05,4.85,7.8,4.51,14.9,9.86,22.46,14.7,5.31,3.39,14.39,7.35,17.83-.47,0-.1.07-.21.11-.31s.11-.21.16-.32C228.89,173.18,220.23,169.43,214.2,168Z"/><path class="cls-2" d="M173.57,179a2.67,2.67,0,0,0-4.85,2c2.37,8.89,3.56,17.92,5.62,26.86,1.39,6,5.13,14.69,12.83,11.65l.32-.16c.1,0,.21-.06.31-.11,7.82-3.44,3.86-12.52.47-17.83C183.43,193.89,178.08,186.79,173.57,179Z"/><path class="cls-2" d="M163.07,143.77c.55-10.9,3.22-21.47,4.61-32.26.68-5.3.7-15.59-7.26-15.59v50.4h0A2.38,2.38,0,0,0,163.07,143.77Z"/><path class="cls-2" d="M169.61,148.68c8-7.23,17.19-12.76,25.71-19.27,4.29-3.28,12-10.68,6.25-16.44s-13,1.73-16.23,6c-6.6,8.59-12.18,17.93-19.48,26a2.65,2.65,0,0,0,3.75,3.75Z"/><path class="cls-2" d="M218.61,154.12c0-8-10.28-7.94-15.58-7.26-10.79,1.39-21.36,4.06-32.26,4.61a2.65,2.65,0,0,0,0,5.3c10.9.55,21.47,3.22,32.26,4.61C208.33,162.06,218.61,162.08,218.61,154.12Z"/><path class="cls-2" d="M201.57,195.27c5.64-5.64-1.73-13-6-16.23-8.59-6.61-17.93-12.18-26-19.48a2.65,2.65,0,0,0-3.75,3.75c7.23,8,12.76,17.19,19.27,25.71C188.41,193.31,195.81,201,201.57,195.27Z"/><path class="cls-2" d="M167.68,196.73c-1.39-10.79-4.06-21.36-4.61-32.26a2.38,2.38,0,0,0-2.65-2.55v50.39C168.38,212.31,168.36,202,167.68,196.73Z"/><path class="cls-2" d="M162.22,159.32a5.54,5.54,0,0,0,3.48-6.81,5.73,5.73,0,0,0-5.28-3.92v11A5.14,5.14,0,0,0,162.22,159.32Z"/><path class="cls-2" d="M148.25,179c-4.51,7.79-9.86,14.89-14.7,22.46-3.39,5.3-7.35,14.38.46,17.83l.32.1a1.59,1.59,0,0,0,.32.16c7.69,3,11.44-5.61,12.83-11.64,2.06-9,3.24-18,5.62-26.87C153.87,178.14,149.77,176.36,148.25,179Z"/><path class="cls-2" d="M134.48,162.41c-8.89,2.38-17.93,3.56-26.87,5.62-6,1.39-14.68,5.14-11.64,12.83a1.59,1.59,0,0,0,.16.32c0,.1.06.21.1.31,3.45,7.82,12.53,3.86,17.83.47,7.57-4.84,14.67-10.19,22.46-14.7A2.66,2.66,0,0,0,134.48,162.41Z"/><path class="cls-2" d="M107.61,140.19c8.94,2.06,18,3.25,26.87,5.62,2.88.77,4.67-3.32,2-4.85-7.79-4.51-14.89-9.86-22.46-14.7-5.3-3.38-14.38-7.35-17.83.47,0,.11-.07.21-.1.31a2.39,2.39,0,0,0-.16.32C92.93,135.05,101.58,138.8,107.61,140.19Z"/><path class="cls-2" d="M148.25,129.24a2.67,2.67,0,0,0,4.85-2.05c-2.38-8.89-3.56-17.92-5.62-26.86-1.39-6-5.14-14.69-12.83-11.65-.12,0-.22.11-.32.16s-.21.06-.32.11c-7.81,3.44-3.85,12.52-.46,17.83C138.38,114.34,143.74,121.44,148.25,129.24Z"/><path class="cls-2" d="M158.74,164.46c-.54,10.9-3.22,21.47-4.6,32.26-.68,5.3-.7,15.59,7.26,15.59V161.92h0A2.38,2.38,0,0,0,158.74,164.46Z"/><path class="cls-2" d="M152.2,159.55c-8,7.23-17.18,12.76-25.7,19.27-4.29,3.28-12,10.69-6.25,16.44s12.95-1.72,16.23-6c6.6-8.59,12.17-17.93,19.47-26a2.66,2.66,0,0,0-3.75-3.76Z"/><path class="cls-2" d="M103.2,154.11c0,8,10.29,7.94,15.58,7.26,10.8-1.38,21.37-4.06,32.27-4.61a2.65,2.65,0,0,0,0-5.3c-10.9-.55-21.47-3.22-32.27-4.61C113.49,146.17,103.2,146.15,103.2,154.11Z"/><path class="cls-2" d="M120.25,113c-5.64,5.64,1.72,13,6,16.23,8.59,6.61,17.93,12.18,26,19.48a2.65,2.65,0,0,0,3.75-3.75c-7.22-8-12.75-17.19-19.27-25.71C133.41,114.92,126,107.2,120.25,113Z"/><path class="cls-2" d="M154.14,111.5c1.38,10.79,4.06,21.36,4.6,32.26a2.39,2.39,0,0,0,2.66,2.55V95.92C153.44,95.92,153.46,106.21,154.14,111.5Z"/><path class="cls-2" d="M159.6,148.91a5.53,5.53,0,0,0-3.48,6.81,5.68,5.68,0,0,0,5.28,3.92v-11A5.14,5.14,0,0,0,159.6,148.91Z"/></svg>