<svg id="Layer_1" data-name="Layer 1" xmlns="http://www.w3.org/2000/svg" viewBox="0 0 519.58 539.62"><defs><style>.cls-1{fill:#2a273d;}</style></defs><path class="cls-1" d="M453.89,295.94a6.19,6.19,0,0,1,6.71-5.2,5.85,5.85,0,0,1,5.11,6.82,6.28,6.28,0,0,1-2.34,4.11,5.77,5.77,0,0,1-4.48,1.08,6,6,0,0,1-3.86-2.41A6.14,6.14,0,0,1,453.89,295.94Zm2.23.28c-.59,4.73,6.63,6.06,7.36,1.06S456.89,291.51,456.12,296.22Z"/><path class="cls-1" d="M461.28,277.52a6,6,0,0,0,6.19-6v-.27H465.2c0,.09,0,.17,0,.26-.21,5.05-7.53,4.62-7.44-.14l0-.12h-2.26v.12A6,6,0,0,0,461.28,277.52Z"/><path class="cls-1" d="M404.36,309c.74-2.36,3.64-3.76,6.93-3a6.65,6.65,0,0,1,3.77,2.33,4.17,4.17,0,0,1,.82,3.74c-.81,2.59-4,3.91-7.13,2.94S403.67,311.39,404.36,309Zm2.18.56c-1,3.51,6,5.71,7.16,2,.58-1.87-1-3.27-2.81-3.71S407.11,307.83,406.54,309.57Z"/><path class="cls-1" d="M408,290.37c.43-2.44,3.27-4.18,6.56-3.84s5.66,2.76,5.27,5.45a4.38,4.38,0,0,1-2.21,3.13,6.76,6.76,0,0,1-4.42.69,6.91,6.91,0,0,1-3.91-2A4.2,4.2,0,0,1,408,290.37Zm2.24.28c-.44,3.63,6.78,4.93,7.35,1S410.88,287.05,410.25,290.65Z"/><path class="cls-1" d="M415.08,276.11c3.3.16,6-1.92,6.16-4.63v-.21H419a1.41,1.41,0,0,1,0,.21c-.19,3.93-7.51,3.55-7.43-.12,0,0,0-.06,0-.09h-2.26v.09C409.24,273.85,411.74,276,415.08,276.11Z"/><path class="cls-1" d="M408.24,387.31c-.21-1.56-.43-3.12-.67-4.65l-.37-2.29-.44-2.31c-.6-3.07-1.26-6.07-1.95-9s-1.6-5.91-2.45-8.76c-.44-1.43-.88-2.84-1.33-4.23s-1-2.83-1.53-4.21a1,1,0,0,1-.08-.67l-.05.05-.05-.09,0,0,0-.05h0l.08.05h0a1.28,1.28,0,0,1,.58-.22,173,173,0,0,0,17.85-4c3-.87,5.89-1.82,8.9-2.84,1.48-.51,3-1,4.5-1.59s2.93-1.15,4.41-1.75a1.16,1.16,0,0,1,1.49.56c.66,1.45,1.31,2.91,1.95,4.4s1.18,3,1.76,4.46c1.15,3,2.28,6.08,3.33,9.21a195.88,195.88,0,0,1,5.18,19.32,2.06,2.06,0,0,1-.11.81,2.24,2.24,0,0,1-.71.58q-2.46.8-4.89,1.53c-1.67.47-3.32.92-5,1.35-3.31.84-6.51,1.67-9.79,2.34s-6.56,1.26-9.77,1.78l-2.41.39-2.44.31c-1.63.2-3.24.39-4.84.56A1.17,1.17,0,0,1,408.24,387.31Zm3.2-2.73c2.82-.32,5.54-.79,8.36-1.25l4.24-.76,2.14-.4,2.09-.46c5.59-1.27,11.39-2.69,17-4.51-.65-2.88-1.28-5.67-2-8.46s-1.61-5.55-2.47-8.25c-.43-1.35-.85-2.68-1.31-4l-1.47-4q-1.49-3.94-3.05-7.74c-2.66,1-5.29,1.91-7.89,2.77l-3.88,1.26c-1.31.4-2.65.76-4,1.12q-3.94,1.08-7.8,2c-2.6.6-5.27,1.1-7.84,1.57,1.84,4.94,3.26,9.91,4.64,15.13l.51,2,.43,1.95.84,4C410.49,379.13,411.05,381.88,411.44,384.58Z"/><path class="cls-1" d="M385.23,434.42a6.07,6.07,0,0,1-4.62,1.3,5.84,5.84,0,0,1-4-2.28,5.66,5.66,0,0,1-1.07-4.36,6.63,6.63,0,0,1,2.33-3.9,6.19,6.19,0,0,1,8.48.82A5.84,5.84,0,0,1,385.23,434.42Zm-1.37-1.76c4-3.18-.79-8.65-4.62-5.72a3.68,3.68,0,1,0,4.62,5.72Z"/><path class="cls-1" d="M365.34,440.69a5.88,5.88,0,0,0-3.7-2.56,6.27,6.27,0,0,0-4.54.63l0,0,1.13,1.92.06,0c4.22-2.36,8.23,3.68,3.81,6.27a.62.62,0,0,1-.16.07l1.13,1.93.16-.08a6.17,6.17,0,0,0,2.91-3.69A5.7,5.7,0,0,0,365.34,440.69Z"/><path class="cls-1" d="M373.09,384.73c-2,1.9-5.39,1.51-7.65-.85s-2.59-5.63-.83-7.41,5-1.53,7.5.71S375,382.79,373.09,384.73Zm-1.58-1.57c1.39-1.4.68-3.38-.65-4.61s-3.31-1.77-4.67-.51C363.61,380.67,368.66,385.92,371.51,383.16Z"/><path class="cls-1" d="M357.33,398.21a4.13,4.13,0,0,1-1.79.83,5.17,5.17,0,0,1-2-.1,7,7,0,0,1-5.05-6.65,4.7,4.7,0,0,1,.43-1.85A4.31,4.31,0,0,1,350,389c2-1.53,5.22-.84,7.38,1.68S359.46,396.5,357.33,398.21ZM356,396.45c3.09-2.49-1.67-8-4.6-5.73-1.4,1.22-1.08,3.19,0,4.65S354.44,397.72,356,396.45Z"/><path class="cls-1" d="M341,402.1a6.82,6.82,0,0,0-3.35-2.78,4.35,4.35,0,0,0-3.69.14l0,0,1.13,1.93a.2.2,0,0,1,.05-.05c3.24-1.79,7.22,4.27,3.79,6.28a.53.53,0,0,1-.13.06l1.13,1.92a.53.53,0,0,0,.13-.06,4.25,4.25,0,0,0,2.06-3.19A6.6,6.6,0,0,0,341,402.1Z"/><path class="cls-1" d="M433.71,370.59a2,2,0,0,1-.68.51c-4.35,1.26-8.86,2.22-13.24,3.11a1.18,1.18,0,0,1-1.33-.86c-1-4.3-2-8.44-3.4-12.58a1.21,1.21,0,0,1,0-.72l0,.06s-.05-.11-.06-.09l0,0,0-.05h0l.07,0,0,0a1.43,1.43,0,0,1,.61-.27c2.12-.47,4.28-1,6.44-1.53s4.22-1.2,6.35-1.84a1.19,1.19,0,0,1,1.44.69q1.06,3.13,2.09,6.34c.63,2.12,1.21,4.26,1.78,6.44A1.74,1.74,0,0,1,433.71,370.59Zm-2.41-1.33c-1-3.62-1.95-7-3.17-10.54-3.47,1.08-7.1,1.89-10.61,2.71.52,1.71,1,3.43,1.55,5.19s.89,3.46,1.31,5.23c1.82-.37,3.67-.76,5.5-1.18S429.48,369.75,431.3,369.26Z"/><path class="cls-1" d="M379.34,471c2.23-1.21,4.36-2.64,6.59-4l3.33-2.11,1.68-1.07,1.65-1.15c-1-.08-2-.16-3-.27l-3-.38q-3-.41-5.88-.86c-1.94-.3-3.86-.6-5.8-.93L369,459.09l-1.59-2.71c2.3.47,4.63,1,6.95,1.37s4.62.75,7,1.1,4.74.69,7.14,1,4.79.45,7.23.63c4.24-2.85,8.32-6.1,12.52-9.35-2.72,0-5.4-.13-8.06-.24s-5.24-.22-7.9-.48-5.23-.5-7.79-.8l-3.82-.45-3.84-.6c-.05,0-.06,0-.1-.06l-5.13,3.21c-.85.55-1.71,1.05-2.59,1.54l-2.59,1.46-1.13-1.92,3.35-1.89c1.13-.63,2.19-1.35,3.29-2,2.18-1.38,4.39-2.72,6.55-4.15l6.38-4.44c.53-.37,1.07-.74,1.59-1.12l1.55-1.19,3.09-2.37a206.49,206.49,0,0,0,23.15-20.85c-2.59.17-5.14.32-7.66.43s-5.12.09-7.62.1-5-.06-7.46-.14-5-.3-7.41-.5A193.78,193.78,0,0,1,354.82,435l-1.13-1.91,3.41-1.92c0-.11-.08-.19-.05-.32,1-4.73,2-9.27,2.76-13.85.36-2.31.68-4.6,1-6.85l.41-3.37c.12-1.12.2-2.28.28-3.41-1.44,1.17-3,2.19-4.5,3.25l-2.28,1.59c-.76.53-1.51,1.07-2.31,1.55,0,0,0,.06,0,.1-.8,5.18-2.17,10.81-3.1,15.8L347.74,423c.31-1.89.76-3.83,1.2-5.81s.84-4,1.16-6l-2.42,1.52c-1.45,1-3.11,1.85-4.44,2.65l-1.16-2,2-1.14,1-.58,1-.64,4.12-2.58,1.52-.95c.5-.32,1-.68,1.46-1l2.93-2c1-.69,2-1.32,2.9-2.06l2.83-2.18.06-.05a165.62,165.62,0,0,0,19.78-17.92c-.56-4.45-1.35-8.86-2.19-13.06s-2-8.46-3.26-12.53a148.88,148.88,0,0,1-36.28,34.08c-2.81,1.71-5.37,3.5-8.33,5.06l-1.36-2.3a147.57,147.57,0,0,0,14.39-9.29l3.57-2.77c.6-.47,1.23-.92,1.82-1.41l1.75-1.5c1.17-1,2.38-2,3.55-3l3.45-3.24c1.2-1.05,2.27-2.23,3.39-3.38l1.68-1.72c.57-.57,1.13-1.15,1.65-1.77l3.21-3.65c.56-.59,1.06-1.24,1.56-1.87l1.52-1.91,1.54-1.91c.52-.63,1-1.32,1.45-2l2.88-4c1.73-2.76,3.65-5.42,5.21-8.28a139.31,139.31,0,0,0,14.82-35.64,145.85,145.85,0,0,0,4.42-34.84h2.7l-.14,4.9,0,2.45-.2,2.43-.23,3.09c-.08,1-.14,2.07-.3,3.08l-.8,6.14-1.11,6.08c-.14,1-.45,2-.67,3l-.7,3a144,144,0,0,1-8,23.35c1.05-.23,2.13-.47,3.19-.74l3.12-.84c2.1-.58,4.21-1.2,6.35-1.86s4.19-1.4,6.3-2.17,4.2-1.59,6.33-2.45A170.93,170.93,0,0,0,423.9,295s0-.05,0-.08l.89-7,.53-7.07a23.75,23.75,0,0,0,.11-2.39l.06-2.38.12-4.78h2.31c-.08,1.73-.15,3.46-.19,5.18l-.06,2.79q4.6-3.78,9.23-8h3.14c-2.06,1.89-4.12,3.73-6.17,5.5s-4.08,3.49-6.27,5.13a.41.41,0,0,1-.11.07l-.41,5.49c-.14,1.83-.45,3.64-.65,5.46,1.88-1.28,3.78-2.61,5.68-4s3.64-2.8,5.47-4.26,3.69-3,5.49-4.52,3.53-3.14,5.31-4.76a1.17,1.17,0,0,1,.31-.2l.09-3.93H451a188.61,188.61,0,0,1-3.31,35.16A185.84,185.84,0,0,1,462.93,332l2.13-7.42c.68-2.48,1.21-5,1.81-7.5l.86-3.76.69-3.79.68-3.79c.22-1.27.48-2.53.62-3.81l1-7.64c.19-1.27.29-2.55.38-3.82l.29-3.84.29-3.84c.1-1.28.09-2.56.13-3.84l.18-7.68h2.26c-.11,4-.14,8-.34,11.94l.1.11q2.37,2.93,4.73,6c1.55,2,3.19,4.13,4.61,6.25s2.94,4.28,4.39,6.49,2.91,4.47,4.22,6.75c.51-2.59.76-5.19,1.12-7.74.16-1.28.33-2.55.49-3.82s.33-2.52.41-3.78c-2.84-4-5.64-7.82-8.59-11.52s-6.07-7.25-9.13-10.66h3.19a219,219,0,0,1,14.83,18.43c.18-2.65.45-5.25.53-7.82s.13-5.1.2-7.59l-2.5-3h5.27q-.11,4-.19,8l-.12,4-.29,4a233.18,233.18,0,0,1-9.77,52.63,230.54,230.54,0,0,1-21.71,49,237.85,237.85,0,0,1-73.86,77.63c-4.54,2.85-8.8,5.68-13.61,8.3l-2.63-4.48C376.93,470.4,378,470.75,379.34,471Zm83.82-83.64h0Zm9-86.56,2.2,3.16,2,3.21c1.36,2.15,2.72,4.36,4.06,6.6s2.6,4.52,3.82,6.84,2.45,4.68,3.65,7.08c.6-2.55,1.19-5.09,1.79-7.6l.43-1.89.36-1.89.69-3.77c-1.34-2.32-2.68-4.6-4.06-6.83s-2.91-4.45-4.38-6.61-2.91-4.27-4.46-6.34-3.15-4.11-4.74-6.09c-.19,2.35-.32,4.7-.58,7l-.89,7Zm-3.12,17.42c1.25,2.18,2.49,4.41,3.71,6.67s2.28,4.54,3.41,6.87,2.2,4.7,3.28,7.11,2,4.82,2.93,7.29c.43-1.24.85-2.47,1.27-3.7s.84-2.45,1.19-3.7L487,331.3c-1.07-2.4-2.32-4.81-3.53-7.15s-2.46-4.66-3.71-6.92c-.61-1.13-1.28-2.26-2-3.38l-2-3.32q-2-3.28-4.11-6.44l-1.25,7c-.23,1.16-.4,2.33-.67,3.48L469,318ZM464.38,335c1,2.28,2.07,4.6,3.07,7s2.05,4.79,2.91,7.19,1.76,4.88,2.61,7.37l1.26,3.78c.41,1.27.75,2.52,1.13,3.8,1.12-2.35,2-4.77,3-7.17l1.44-3.6c.48-1.2,1-2.4,1.37-3.62q-1.44-3.76-2.92-7.41c-1-2.43-2-4.82-3.12-7.2s-2.23-4.7-3.37-7c-.58-1.15-1.14-2.28-1.73-3.4l-1.87-3.36c-.28,1.14-.51,2.3-.83,3.43l-1,3.41C465.71,330.45,465.1,332.73,464.38,335Zm-40.16-29c1.94-1,3.74-2,5.63-3.08l5.71-3.2c1.95-1.08,3.83-2.19,5.73-3.3l5.82-3.36a1.25,1.25,0,0,1,.41-.14c.36-2.44.49-4.91.69-7.37s.41-4.92.41-7.39l-2.69,2.42c-.92.79-1.87,1.58-2.81,2.35-1.87,1.55-3.73,3.05-5.58,4.52s-3.77,2.87-5.7,4.24-3.84,2.68-5.75,3.95c-.09.87-.26,1.73-.42,2.6l-.46,2.59-.47,2.59-.23,1.3Zm-3.53,13.58a173.21,173.21,0,0,0,24.79-13.36l1-5.33c.18-.89.3-1.79.4-2.68l.35-2.69-5.89,3.4-5.93,3.32-5.77,3.23c-1.94,1-3.92,2.07-5.85,3.07l-.14.06-.64,2.77-.32,1.38-.39,1.37Zm-34.42,21.88,3.47-.46,3.41-.58q3.44-.62,6.94-1.35c2.36-.49,4.58-1.1,6.92-1.71s4.67-1.28,7-2,4.58-1.55,6.91-2.39,4.71-1.72,6.95-2.7c4.54-1.94,9.3-4,13.76-6.43a1.17,1.17,0,0,1,1.53.44c2.62,4.44,4.82,9,7.09,13.74,1.16,2.39,2.15,4.77,3.15,7.22s2,4.93,2.93,7.47,1.74,5.05,2.57,7.65,1.67,5.25,2.36,7.89,1.36,5.33,2,8.07l.94,4.12c.29,1.38.53,2.75.79,4.14,1.66-2.74,3.07-5.61,4.57-8.44l2.2-4.27,2-4.35c-.78-2.78-1.56-5.51-2.41-8.21s-1.83-5.39-2.79-8c-1.84-5.23-4.11-10.39-6.34-15.31a1,1,0,0,1-.26-.56c-1.07-2.4-2.35-4.82-3.57-7.17s-2.48-4.65-3.75-6.9-2.71-4.5-4.08-6.67-2.73-4.29-4.22-6.38a165.06,165.06,0,0,1-54.65,22.63l-1.23,2.7-1.39,2.62C388.17,338,387.32,339.79,386.27,341.47Zm-.53,1.88a152.81,152.81,0,0,1,8.79,26.81c.55,2.37,1,4.71,1.43,7.13s.88,4.9,1.18,7.34.59,4.92.83,7.44l.33,3.81.19,3.78,3.95-.09,3.9-.24c2.63-.17,5.28-.39,8-.64s5.29-.65,8-1,5.43-.81,8.12-1.32a212.51,212.51,0,0,0,32.68-9,192.34,192.34,0,0,0-21.33-61.14A166.16,166.16,0,0,1,385.74,343.35ZM372,420.86c0-4.48,0-8.89.06-13.17s-.07-8.66-.13-12.81c-2.74,2.27-5.36,4.67-8.24,6.77-.14,2.28-.33,4.59-.55,6.93s-.58,4.58-.92,6.92l-.54,3.52c-.18,1.19-.38,2.37-.62,3.51q-.67,3.5-1.46,7.06l3.18-2c1.05-.67,2.13-1.3,3.14-2l6.15-4.28A1.42,1.42,0,0,1,372,420.86Zm10.75-8q.21-3.57.31-7.05t0-7c-.07-2.33-.1-4.57-.28-6.89s-.37-4.57-.6-6.81c-1.34,1.36-2.66,2.75-4,4.1l-4.21,3.91,0,.15c0,1.08.1,2.18.12,3.25l.05,3.23.08,6.57c0,2.24,0,4.43,0,6.65s0,4.51,0,6.76l4.35-3.34,1.08-.84,1.05-.88Zm34-.52a1.08,1.08,0,0,1,.61-.06,192.8,192.8,0,0,0,33.54-5.88c3.83-5.13,7.3-10.53,10.69-15.95-1.32.49-2.67.95-4,1.38l-4.06,1.29c-2.71.82-5.38,1.62-8.07,2.34s-5.45,1.32-8.14,1.91-5.34,1.16-8.08,1.59c-5.43.89-10.66,1.69-16,2.11-2.65.23-5.27.43-7.86.58s-5.25.18-7.82.21a1.16,1.16,0,0,1-1.15-1.08c-.1-2.54-.21-5-.41-7.51s-.52-5-.82-7.45c-.56-4.85-1.53-9.76-2.5-14.41-.47-2.31-1.1-4.68-1.71-7s-1.26-4.54-1.92-6.74-1.47-4.43-2.24-6.57-1.49-4.21-2.39-6.32c-.48.87-1,1.69-1.59,2.52l-1.62,2.49c-1,1.69-2.25,3.26-3.41,4.87A145.41,145.41,0,0,1,384,382.56c.3,2.42.51,4.82.71,7.29l.27,3.73.11,1.88.06,1.85q.09,3.72.07,7.56c0,1.27,0,2.58-.06,3.85l-.19,3.83,3.89.28c1.31.08,2.58.1,3.88.15q3.88.11,7.89.11c2.69,0,5.28-.12,8-.24S414,412.55,416.72,412.33Zm-9.34,12.28c2.56-.06,5.17-.15,7.75-.32s5.13-.43,7.75-.69c5.28-.48,10.48-1.26,16-2.06.84-1,1.72-1.93,2.53-2.93l2.44-3c1.61-2,3.27-4,4.83-6.12-5.39,1.16-10.66,2.18-15.76,3.1s-10.28,1.56-15.39,2C414.18,418,410.92,421.43,407.38,424.61Zm-13.44,11.58c1.28.07,2.59.17,3.87.2l3.85.07c2.58,0,5.19,0,7.84,0,1.33,0,2.64-.05,3.95-.12l4-.19,8.17-.45c1.82-1.82,3.61-3.69,5.42-5.55l2.71-2.82,2.59-2.93A257.71,257.71,0,0,1,405.08,427l-.22,0-1.31,1.21-1.36,1.16-2.73,2.32C397.64,433.18,395.85,434.76,393.94,436.19Zm17.24,12.47,5.89-5c1.95-1.72,3.83-3.54,5.76-5.33-2.7.19-5.37.34-8,.47s-5.34.11-8,.12-5.23,0-7.8-.1-5.21-.29-7.76-.47l-.1,0c-3.72,3-7.72,5.6-11.62,8.34q3.8.5,7.69.91c2.59.25,5.27.55,7.87.67s5.27.27,8,.36l4.05.11C408.49,448.7,409.82,448.68,411.18,448.66Z"/><path class="cls-1" d="M334.52,449.8a6.15,6.15,0,0,1,7.92,3,5.91,5.91,0,0,1-3.44,7.84,6.09,6.09,0,0,1-8-3.27A6,6,0,0,1,334.52,449.8Zm.87,2.05a3.66,3.66,0,1,0,2.74,6.79,3.49,3.49,0,0,0,2.1-4.79A3.65,3.65,0,0,0,335.39,451.85Z"/><path class="cls-1" d="M354.48,446.88a6,6,0,0,0,8.33,2.19l.23-.14L361.91,447a1.82,1.82,0,0,1-.23.15c-4.5,2.45-7.79-4-3.6-6.39l.12-.05-1.13-1.92-.11,0A6,6,0,0,0,354.48,446.88Z"/><path class="cls-1" d="M298.26,414.1c2.44-.58,5.16,1.3,6.11,4.46s-.42,6.18-3.08,6.89a4.24,4.24,0,0,1-2,0,4.87,4.87,0,0,1-1.83-.89,6.44,6.44,0,0,1-2.34-3.75,6.58,6.58,0,0,1,.38-4.31,4.91,4.91,0,0,1,1.13-1.52A3.78,3.78,0,0,1,298.26,414.1Zm.59,2.13a2.63,2.63,0,0,0-1.75,1.68,4.67,4.67,0,0,0,1.18,4.86,2.59,2.59,0,0,0,2.42.54C304.56,422.31,302.46,415.39,298.85,416.23Z"/><path class="cls-1" d="M316.53,408c2.36-.85,5.25.57,6.63,3.6a6.37,6.37,0,0,1,.39,4.36,4.9,4.9,0,0,1-.92,1.77,3.58,3.58,0,0,1-1.61,1.14c-2.58.94-5.57-.73-6.7-3.79S314.19,408.88,316.53,408Zm.87,2c-3.45,1.35-1,8.14,2.76,6.78a2.42,2.42,0,0,0,1.61-1.86,4.24,4.24,0,0,0-.31-2.58C320.73,410.66,319.16,409.41,317.4,410Z"/><path class="cls-1" d="M332.6,406.88c1.53,2.92,4.71,4.17,7.11,2.85l.18-.11-1.13-1.92a1.77,1.77,0,0,0-.17.12c-3.51,1.89-6.83-4.53-3.63-6.38l.09,0-1.13-1.93-.09,0C331.66,400.78,331.08,404,332.6,406.88Z"/><path class="cls-1" d="M231.12,456.63q3.82-3,7.41-5.92c1.19-1,2.37-2,3.53-3.08s2.3-2.1,3.42-3.15A166.41,166.41,0,0,0,258,431.42a1.06,1.06,0,0,1,.56-.38l-.08,0s.07-.09.06-.09a.8.8,0,0,1,0-.15s.06-.14.06-.14h0v.41a1.27,1.27,0,0,1,.49.37,170,170,0,0,0,12.5,13.07q1.68,1.58,3.42,3.15c1.16,1.05,2.34,2.12,3.53,3.09q3.58,3,7.41,5.91a1.14,1.14,0,0,1,.25,1.55q-2.87,3.78-6,7.59c-1,1.29-2.09,2.48-3.17,3.7s-2.18,2.43-3.3,3.65a199,199,0,0,1-14.4,14.16,2.19,2.19,0,0,1-.77.34,2.35,2.35,0,0,1-.87-.34,201.44,201.44,0,0,1-14.42-14.17q-1.68-1.81-3.3-3.65c-1.08-1.21-2.14-2.42-3.18-3.71q-3.1-3.81-6-7.59A1.11,1.11,0,0,1,231.12,456.63Zm4,1.29c3.39,4.49,7.06,8.62,11,12.89,1.95,2.16,4,4.14,6,6.17s4.22,4.06,6.42,6.08c2.21-2,4.34-4.05,6.42-6.07s4.08-4,6-6.17c3.88-4.28,7.54-8.4,10.94-12.89-4.36-3.34-8.51-7.12-12.4-10.75-1.94-1.79-3.84-3.78-5.67-5.7s-3.6-3.85-5.32-5.78c-1.72,1.93-3.49,3.85-5.33,5.78s-3.74,3.9-5.69,5.69C243.66,450.81,239.5,454.57,235.14,457.92Z"/><path class="cls-1" d="M178.07,460.61a5.9,5.9,0,0,1-3.43-7.84,6.12,6.12,0,0,1,7.91-3,5.94,5.94,0,0,1,3.52,7.6A6.08,6.08,0,0,1,178.07,460.61Zm.87-2a3.66,3.66,0,1,0-2.1-4.8A3.5,3.5,0,0,0,178.94,458.57Z"/><path class="cls-1" d="M162.6,446.8a6,6,0,0,0-2.4-8s0,0,0,0L159,440.71l.08,0c4.19,2.39.86,8.82-3.63,6.37a.75.75,0,0,1-.15-.11l-1.14,1.93.16.1A5.91,5.91,0,0,0,162.6,446.8Z"/><path class="cls-1" d="M215.81,425.41c-2.67-.71-4-3.78-3.08-6.89s3.67-5,6.12-4.46c2.4.76,3.84,3.53,3.1,6.76a6.52,6.52,0,0,1-2.34,3.75A4.29,4.29,0,0,1,215.81,425.41Zm.59-2.14a2.62,2.62,0,0,0,2.42-.53,4.45,4.45,0,0,0,1.3-2.28,4.5,4.5,0,0,0-.11-2.58,2.62,2.62,0,0,0-1.76-1.68C214.64,415.35,212.54,422.27,216.4,423.27Z"/><path class="cls-1" d="M196.08,418.79c-2.57-1-3.47-4.34-2.13-7.28s4.28-4.45,6.63-3.59,3.34,4,2.2,7.08S198.66,419.73,196.08,418.79Zm.87-2.05c3.75,1.36,6.21-5.43,2.76-6.77-1.76-.63-3.33.64-4.06,2.32S195.09,416.05,197,416.74Z"/><path class="cls-1" d="M184.51,406.82c1.52-2.89,1-6.08-1.17-7.33h0l-1.13,1.93h.06c3.21,1.85-.15,8.26-3.65,6.36a.31.31,0,0,1-.11-.08l-1.14,1.92.12.08C179.87,411,183,409.74,184.51,406.82Z"/><path class="cls-1" d="M258.62,469.92a2.05,2.05,0,0,1-.8-.34c-3.28-3.23-6.39-6.44-9.36-9.69a1.12,1.12,0,0,1,.09-1.56c3.27-3,6.4-6.14,9.37-9.2a1.19,1.19,0,0,1,.62-.38l-.08,0s.07-.09.06-.09,0-.15,0-.15.06-.14.06-.14h0v.41a1.49,1.49,0,0,1,.54.37c3,3.07,6.11,6.15,9.38,9.21a1.13,1.13,0,0,1,.11,1.56c-3,3.24-6,6.45-9.33,9.68A1.85,1.85,0,0,1,258.62,469.92Zm0-2.72c2.7-2.67,5.21-5.34,7.7-8-2.69-2.54-5.22-5.08-7.7-7.62q-3.72,3.81-7.75,7.62Q254.55,463.19,258.58,467.2Z"/><path class="cls-1" d="M142.88,473.79c1.11.61,2.21,1.25,3.35,1.86l3.47,1.76c2.34,1.16,4.7,2.39,7.14,3.54-3.37-7.37-6-14.37-8.63-21.86l1.6-2.71q1.09,3.28,2.25,6.6c.79,2.19,1.65,4.31,2.51,6.49s1.78,4.36,2.72,6.55,2,4.31,3.05,6.49c2.35,1,4.7,2.12,7.13,3.1l7.41,2.88q-2-3.5-3.84-6.95c-.62-1.16-1.23-2.29-1.81-3.46l-1.7-3.54c-2.23-4.71-4.31-9.29-6.1-14.08,0,0,0-.07,0-.12L156,457.6l-5.22-2.93,1.13-1.92,3.35,1.9,1.68.94,1.73.88,6.93,3.5c2.35,1.1,4.74,2.13,7.11,3.2,1.2.52,2.37,1.1,3.6,1.56l3.65,1.42c4.84,2,9.84,3.58,14.82,5.24,2.51.74,5,1.43,7.56,2.14,1.26.34,2.51.74,3.79,1l3.82.88c-1.45-2.11-2.87-4.14-4.22-6.29s-2.65-4.3-3.91-6.44c-2.53-4.2-4.78-8.66-6.88-13A193.26,193.26,0,0,1,162.42,435l1.13-1.91L167,435c.09-.07.13-.16.26-.2,4.63-1.39,9.21-3,13.57-4.52,4.46-1.74,8.71-3.44,12.85-5.39-1.74-.66-3.4-1.49-5.1-2.23s-3.4-1.47-5-2.35c0,0,0,.06-.08.08-2.5,1-5.15,1.84-7.8,2.72s-5.23,1.62-7.69,2.53L169.5,423c1.81-.68,3.76-1.28,5.72-1.88s4-1.3,5.86-2l-2.55-1.28C177,417,175.36,416,174,415.31l1.16-2c1.33.75,2.71,1.56,4.12,2.33l4.34,2.19c1.07.53,2.11,1.11,3.21,1.59l3.25,1.45,3.26,1.46c1.1.46,2.22.87,3.33,1.31l.08,0c4.13,1.71,8.4,3.06,12.65,4.46l6.46,1.81c1.07.34,2.18.54,3.27.8l3.27.75a155.45,155.45,0,0,0,19.76-17.46,141.48,141.48,0,0,1-24.62-4.85,151.2,151.2,0,0,1-23.39-8.91l-4.34-2.19c-.73-.34-1.43-.74-2.13-1.15l-2.15-1.22,1.35-2.3c1.18.66,2.37,1.36,3.59,2l3.79,1.89,1.92,1c.65.32,1.33.59,2,.89l4.05,1.81a145.65,145.65,0,0,0,17.54,6,145.86,145.86,0,0,0,77.78,0,146.37,146.37,0,0,0,17.55-6l4-1.81c.67-.3,1.34-.56,2-.89l1.91-1,3.77-1.89c1.22-.66,2.39-1.35,3.56-2l1.36,2.3L329.57,397c-.72.42-1.43.83-2.18,1.18L323,400.35a148.84,148.84,0,0,1-23.4,8.89A141.75,141.75,0,0,1,275,414.08a155.41,155.41,0,0,0,19.75,17.47c2.18-.52,4.38-.95,6.54-1.54l6.46-1.81c4.25-1.39,8.53-2.74,12.66-4.45l.07,0,3.35-1.3,3.28-1.47,3.28-1.46c1.1-.48,2.14-1.07,3.22-1.6l4.32-2.17c1.41-.77,2.8-1.59,4.2-2.38l1.16,2c-1.55.82-3.06,1.72-4.61,2.51l-2.51,1.27c1.88.7,3.83,1.43,5.76,2.06s3.87,1.21,5.86,1.8l1.57,2.67c-2.69-.79-5.28-1.52-7.89-2.42s-5.17-1.84-7.66-2.8l-.12-.06c-1.63.88-3.35,1.58-5.05,2.35l-2.54,1.14c-.85.38-1.69.77-2.57,1.09l1.57.74,1.56.69,3.18,1.35q3.19,1.33,6.53,2.62c4.37,1.57,8.93,3.13,13.57,4.54a1.13,1.13,0,0,1,.33.16l3.47-2,1.13,1.91a193.42,193.42,0,0,1-32.64,14.81c-2.09,4.3-4.34,8.75-6.86,13-1.26,2.13-2.55,4.28-3.9,6.43s-2.76,4.18-4.21,6.29c2.54-.58,5.1-1.14,7.6-1.89s5-1.4,7.54-2.14c4.95-1.65,9.94-3.22,14.76-5.21,2.43-.94,4.88-1.86,7.24-3s4.77-2.11,7.13-3.21l7-3.52,1.74-.88,1.71-1,3.39-1.92,1.13,1.92c-1.76,1-3.51,2-5.29,3l-5.42,2.75a1,1,0,0,1,0,.14c-1.79,4.78-3.89,9.36-6.12,14.08l-1.71,3.54c-.59,1.16-1.21,2.3-1.82,3.46-1.24,2.31-2.53,4.62-3.86,6.95l7.41-2.87c2.44-1,4.79-2.07,7.13-3.1,1.07-2.18,2.12-4.29,3.1-6.49s1.89-4.41,2.79-6.59,1.77-4.33,2.57-6.53,1.55-4.41,2.27-6.6l1.59,2.71A204.7,204.7,0,0,1,360.2,481c2.45-1.13,4.8-2.37,7.15-3.53l3.47-1.76c1.15-.59,2.25-1.24,3.35-1.85l1.4-3.69,2.63,4.48-3.52,2c-1.17.67-2.35,1.33-3.56,1.92l-7.22,3.63a243.1,243.1,0,0,1-210.75-.09l-7.1-3.57c-1.19-.58-2.34-1.23-3.5-1.89l-3.52-2,2.64-4.48C142.17,471.45,142.41,472.55,142.88,473.79Zm115.74,29.55h0Zm80.78-35.57q-1.68,3.39-3.48,6.82L335,476.3l-.95,1.66-1.95,3.34q-2,3.34-4.11,6.73c-1.42,2.22-2.92,4.36-4.44,6.57,5.15-1.35,10.11-3.08,15-4.72.7-1.12,1.38-2.28,2-3.46l2-3.49q1.9-3.48,3.69-6.93,3.47-7.08,6.38-14.05c-2.16,1-4.36,2-6.55,2.95l-3.28,1.46c-1.11.46-2.23.88-3.34,1.32A.36.36,0,0,1,339.4,467.77Zm-16.91,6.09c-2.62,4.23-5.4,8.57-8.4,12.8-1.5,2.08-3.06,4.16-4.65,6.25s-3.23,4.24-4.95,6.22c1.31-.22,2.6-.5,3.89-.79l3.85-.87c2.55-.61,5.12-1.11,7.61-1.85a201.67,201.67,0,0,0,16.35-26.68l-3.36,1.3-3.41,1.15-6.84,2.27A.88.88,0,0,1,322.49,473.86Zm-17.19,4.28a206.53,206.53,0,0,1-20.16,23.91l7.82-1c1.31-.15,2.6-.37,3.89-.6l3.86-.67c1.75-2.05,3.45-4,5.1-6.12s3.23-4.2,4.77-6.3l2.29-3.14c.75-1,1.49-2.08,2.2-3.18q2.16-3.24,4.17-6.45l-6.93,1.93Zm5.51-48.62,5.54,3.28,2.83,1.66,2.84,1.59,11.64,6.54a1,1,0,0,1,.33.27l6.86-3.06,6.71-3.38c-4.74-1.54-9.24-3-13.74-4.81q-3.35-1.32-6.56-2.69c-2.15-.92-4.3-2-6.38-3l-2.49,1c-.83.33-1.65.67-2.5.93Zm-13.74,3.76c1.86,1.32,3.77,2.69,5.7,4s3.9,2.46,5.92,3.68c4.05,2.49,8.2,4.67,12.54,6.84l2.61-.88c.87-.31,1.72-.66,2.57-1l5.13-2-11.82-6.7c-3.9-2.3-7.67-4.47-11.36-6.75l-.12-.09C304.53,431.36,300.85,432.51,297.07,433.28Zm-36.55-18.34a165.43,165.43,0,0,0,43.26,38.32,1.13,1.13,0,0,1,.38,1.52,198.69,198.69,0,0,1-42.22,48.68c3.23-.09,6.46-.12,9.69-.29l9.69-.72c1-1,2.05-2,3.05-3.08l3-3.14c2-2.1,3.85-4.18,5.69-6.29s3.6-4.35,5.33-6.52,3.4-4.27,5-6.55a1.14,1.14,0,0,1,.36-.51q2.35-3.32,4.55-6.6c.73-1.11,1.46-2.17,2.16-3.31l2.05-3.39q2-3.37,3.87-6.72c1.24-2.23,2.38-4.58,3.5-6.85-2.35-1.19-4.62-2.32-6.88-3.61s-4.48-2.6-6.64-3.92l-3.2-2c-1.05-.69-2.11-1.41-3.15-2.12q-3.11-2.14-6.06-4.32l-1.46-1.09L291,431.29,288.13,429q-2.82-2.33-5.47-4.67c-1.79-1.64-3.52-3.3-5.2-4.95L275,416.87l-1.21-1.24-1.19-1.31-6,.46C264.56,414.86,262.54,414.87,260.52,414.94Zm-1.93.54a165.49,165.49,0,0,1-43.23,39,198.52,198.52,0,0,0,43.21,48.81,198.67,198.67,0,0,0,43.18-48.78A165.76,165.76,0,0,1,258.59,415.48Zm-75.17,27c7.88-4.44,15.56-8.62,22.86-13l-5.07-1.7c-1.69-.56-3.33-1.28-5-1.9-2.07,1-4.24,2.07-6.37,3s-4.34,1.81-6.57,2.69l-3.38,1.31c-1.14.43-2.26.8-3.4,1.2-2.28.77-4.6,1.54-7,2.29l6.7,3.39,6.86,3.06A1.26,1.26,0,0,1,183.42,442.52Zm12.42,5.17c4.35-2.17,8.5-4.33,12.56-6.83,2-1.21,4-2.44,5.92-3.67s3.84-2.63,5.7-3.94c-3.78-.77-7.45-1.94-11.17-2.94l-.12.09c-3.68,2.26-7.46,4.44-11.37,6.74l-11.82,6.69,5.13,2,2.56,1Zm17.5,28.63a1.11,1.11,0,0,1,.36.5c1.59,2.29,3.26,4.4,5,6.61s3.49,4.38,5.32,6.58,3.73,4.21,5.68,6.3,3.95,4.19,6,6.12l9.69.73c3.24.18,6.47.21,9.7.3a192.89,192.89,0,0,1-42.18-48.72,1.13,1.13,0,0,1,.38-1.52,171.13,171.13,0,0,0,43.29-38.29c-2-.07-4-.06-6-.16l-6-.46c-.8.91-1.6,1.75-2.41,2.59l-2.48,2.51c-1.68,1.67-3.42,3.34-5.2,5s-3.61,3.12-5.49,4.67-3.82,3.13-5.78,4.53-4,2.87-6.07,4.29c-1,.7-2.09,1.43-3.14,2.1l-3.2,2q-3.24,2-6.63,3.89c-2.26,1.28-4.54,2.41-6.88,3.6,1.11,2.27,2.26,4.61,3.49,6.85s2.53,4.47,3.87,6.73C207.25,467.6,210.21,471.87,213.34,476.32Zm-15.53-1.76c1.34,2.14,2.74,4.27,4.18,6.41l1.08,1.61,1.12,1.55,2.29,3.1c1.55,2.08,3.14,4.17,4.77,6.29s3.34,4.12,5.07,6.24l3.86.67c1.29.22,2.58.47,3.89.61l7.82,1a239.2,239.2,0,0,1-20.14-23.92l-7-1.61Zm-16.94-5.68c2.27,4.61,4.85,8.9,7.57,13.37l2.07,3.35,2.16,3.28c1.5,2.21,3,4.44,4.52,6.69,2.49.73,5.06,1.25,7.61,1.85l3.85.87c1.29.29,2.58.59,3.88.8l-1.25-1.57-1.23-1.61-2.42-3.18c-1.59-2.11-3.14-4.18-4.65-6.24-3-4.2-5.8-8.45-8.42-12.68a.88.88,0,0,1-.09-.2l-6.83-2.28c-1.14-.38-2.28-.75-3.41-1.15Zm-2.39,20.94c4.9,1.62,9.85,3.37,15,4.72-1.52-2.2-3-4.34-4.44-6.58s-2.78-4.49-4.1-6.72c-2.67-4.4-5.06-9-7.3-13.54l0-.09c-1.11-.44-2.24-.85-3.34-1.33L171,464.83c-2.18-1-4.39-1.93-6.54-3,1.92,4.67,4.06,9.33,6.36,14.07C173.2,480.5,175.72,485.21,178.48,489.82Z"/><path class="cls-1" d="M139.22,425.07a6.89,6.89,0,0,1,1.53,1.81,5.77,5.77,0,0,1,.79,2.1,5.62,5.62,0,0,1-1.07,4.36,5.84,5.84,0,0,1-4,2.28,6.73,6.73,0,0,1-2.4-.16,6.46,6.46,0,0,1-2.22-1.15,5.84,5.84,0,0,1-1.13-8.42A6.21,6.21,0,0,1,139.22,425.07Zm-1.37,1.76c-3.83-2.92-8.62,2.54-4.62,5.72a3.68,3.68,0,1,0,4.62-5.72Z"/><path class="cls-1" d="M151.74,440.6a5.64,5.64,0,0,0-.73,4.49A6.21,6.21,0,0,0,154,448.8l.24.13,1.14-1.93c-.08,0-.16-.06-.25-.11-4.41-2.59-.36-8.61,3.85-6.25l.1.07,1.13-1.92-.1-.07a6.46,6.46,0,0,0-4.57-.66A5.86,5.86,0,0,0,151.74,440.6Z"/><path class="cls-1" d="M152.53,376.38c1.75,1.78,1.47,5-.83,7.41s-5.68,2.75-7.66.84-1.44-5.36,1-7.54S150.73,374.63,152.53,376.38ZM150.94,378c-1.34-1.27-3.3-.75-4.66.5s-2,3.21-.65,4.61C148.47,385.83,153.53,380.58,150.94,378Z"/><path class="cls-1" d="M167.14,388.88a4,4,0,0,1,1.09,1.49,4.48,4.48,0,0,1,.43,1.84,6.61,6.61,0,0,1-1.39,4.13,6.72,6.72,0,0,1-3.66,2.52,5.17,5.17,0,0,1-2,.1,4.21,4.21,0,0,1-1.79-.84c-2.13-1.71-2.17-5.08,0-7.57S165.15,387.35,167.14,388.88Zm-1.37,1.75c-2.94-2.24-7.7,3.24-4.6,5.74,1.52,1.26,3.44.37,4.55-1.08S167.17,391.86,165.77,390.63Z"/><path class="cls-1" d="M176.14,402a6.48,6.48,0,0,0-1.07,4.28,4.3,4.3,0,0,0,2.08,3.21l.19.1,1.14-1.92-.2-.09c-3.43-2,.59-8.05,3.83-6.27l.07.07,1.13-1.93-.07-.05a4.42,4.42,0,0,0-3.72-.16A6.7,6.7,0,0,0,176.14,402Z"/><path class="cls-1" d="M81.47,340.56q2.22.9,4.42,1.75c1.46.57,3,1.08,4.49,1.6,3,1,6,2,8.89,2.83a173.72,173.72,0,0,0,17.85,4.05,1,1,0,0,1,.62.27.19.19,0,0,0,0-.07h.11l0,0,0,0h0l-.08,0h0a1.26,1.26,0,0,1-.1.61c-.52,1.39-1,2.79-1.53,4.21s-.9,2.81-1.34,4.24c-.85,2.85-1.73,5.8-2.45,8.76s-1.35,5.94-2,9l-.45,2.32-.36,2.29c-.24,1.53-.47,3.08-.68,4.65a1.16,1.16,0,0,1-1.23,1c-1.6-.17-3.22-.36-4.84-.56l-2.45-.31L98,386.94q-4.81-.79-9.77-1.78c-3.27-.68-6.47-1.49-9.78-2.34-1.64-.43-3.31-.87-5-1.34s-3.24-1-4.88-1.53a2.07,2.07,0,0,1-.67-.5,2.14,2.14,0,0,1-.15-.89A197,197,0,0,1,73,359.22c1-3.14,2.18-6.22,3.32-9.22.58-1.51,1.13-3,1.77-4.47s1.29-2.95,1.95-4.4A1.16,1.16,0,0,1,81.47,340.56Zm.79,4.09q-1.56,3.78-3.05,7.74l-1.47,4c-.46,1.34-.87,2.67-1.31,4-.85,2.71-1.67,5.46-2.46,8.27s-1.39,5.59-2,8.47c5.61,1.82,11.4,3.23,17,4.48,2.76.65,5.66,1.12,8.45,1.61s5.55.92,8.36,1.25c.4-2.71,1-5.45,1.48-8.09s1.07-5.23,1.79-7.86c1.39-5.21,2.82-10.18,4.66-15.11-2.57-.48-5.25-1-7.84-1.58s-5.18-1.29-7.81-2c-1.31-.37-2.65-.73-4-1.13l-3.88-1.27Q86.25,346.13,82.26,344.65Z"/><path class="cls-1" d="M51.5,297.38a6.13,6.13,0,0,1,1.12-4.57,5.77,5.77,0,0,1,4-2.25A6,6,0,0,1,61,291.84a6.35,6.35,0,0,1,2.32,3.93,6.13,6.13,0,0,1-5,6.8,5.75,5.75,0,0,1-4.47-1.08A6.28,6.28,0,0,1,51.5,297.38Zm2.23-.27c.74,5,8,3.67,7.36-1.06C60.32,291.34,53,292.1,53.73,297.11Z"/><path class="cls-1" d="M56,277.34a5.91,5.91,0,0,0,5.75-6s0,0,0,0H59.43a.15.15,0,0,1,0,.08c.09,4.76-7.23,5.14-7.43.09a.54.54,0,0,1,0-.17H49.77s0,.09,0,.18A6,6,0,0,0,56,277.34Z"/><path class="cls-1" d="M101.32,312c-.74-2.61,1.41-5.34,4.6-6.07s6.19.63,6.92,3-1.2,5-4.39,6S102.13,314.54,101.32,312Zm2.18-.56c1.18,3.75,8.16,1.55,7.16-2-.56-1.74-2.54-2.21-4.35-1.76S102.94,309.53,103.5,311.4Z"/><path class="cls-1" d="M97.38,291.84c-.4-2.69,2-5.11,5.27-5.45s6.12,1.41,6.56,3.85a4.23,4.23,0,0,1-1.29,3.43,6.88,6.88,0,0,1-3.92,2,6.63,6.63,0,0,1-4.42-.69A4.36,4.36,0,0,1,97.38,291.84Zm2.23-.29c.58,3.89,7.8,2.6,7.36-1C106.34,286.92,99,287.67,99.61,291.55Z"/><path class="cls-1" d="M102.15,276c3.35-.15,5.84-2.19,5.78-4.69,0,0,0,0,0,0h-2.25a.15.15,0,0,1,0,.06c.09,3.66-7.24,4-7.43.08a.49.49,0,0,1,0-.14H96v.14C96.12,274.12,98.85,276.13,102.15,276Z"/><path class="cls-1" d="M83.52,370.59a2,2,0,0,1-.11-.84c.57-2.19,1.14-4.33,1.78-6.46s1.37-4.28,2.08-6.36a1.18,1.18,0,0,1,1.42-.71q3.21,1,6.36,1.84c2.14.55,4.31,1.06,6.43,1.53a1.29,1.29,0,0,1,.66.33l0-.08h.11l0,0,0,.05h0l-.08.05h0a1.29,1.29,0,0,1-.06.66l-1,3.1c-.32,1.05-.62,2.1-.88,3.13q-.81,3.12-1.57,6.35a1.16,1.16,0,0,1-1.32.87c-4.38-.88-8.86-1.82-13.21-3.07A1.8,1.8,0,0,1,83.52,370.59Zm2.38-1.39c1.82.5,3.62.95,5.41,1.38s3.65.79,5.47,1.17c.43-1.77.85-3.5,1.34-5.22l1.56-5.17c-3.52-.82-7.16-1.67-10.64-2.75C87.83,362.12,86.86,365.59,85.9,369.2Z"/><path class="cls-1" d="M22.25,274.09q.11,3.72.2,7.58c0,1.29.12,2.58.22,3.89s.2,2.61.3,3.94c4.61-6.54,9.79-12,14.85-18.23H41c-3.06,3.54-6.11,6.93-9.14,10.58s-5.76,7.42-8.6,11.4c.05.63.1,1.26.16,1.89l.24,1.89c.16,1.26.32,2.54.49,3.82s.33,2.56.5,3.85c.09.65.18,1.3.26,1.94s.23,1.3.35,1.95c1.31-2.28,2.79-4.54,4.23-6.74s2.92-4.36,4.39-6.47L35,293.8l1.17-1.56,2.36-3.09c1.57-2,3.14-4,4.73-6,0,0,.07,0,.1-.06-.2-4-.23-8.31-.33-11.85h2.25c.06,2.65.12,5.05.18,7.59,0,1.27,0,2.54.13,3.81s.19,2.55.28,3.82l.29,3.83c.1,1.27.19,2.55.37,3.82.33,2.55.65,5.1,1,7.66.14,1.28.39,2.54.61,3.81l.69,3.81.69,3.81c.26,1.26.57,2.51.86,3.77.6,2.51,1.13,5,1.81,7.53L54.29,332a185.32,185.32,0,0,1,15.2-25.61,188.28,188.28,0,0,1-3.3-35.08h2.25c0,.88.07,2.54.1,3.86.1,0,.2,0,.3.12q2.67,2.43,5.31,4.76c1.79,1.55,3.67,3.06,5.49,4.53s3.65,2.89,5.46,4.27,3.8,2.7,5.68,4l-.35-2.73c-.11-.9-.25-1.81-.3-2.72-.13-1.83-.27-3.65-.41-5.48,0,0-.07,0-.1,0-2.19-1.64-4.21-3.46-6.27-5.28s-4.11-3.64-6.17-5.28h3.14c3.08,2.42,6.17,5.42,9.23,7.93l-.06-2.82c0-1.72-.11-3.58-.19-5.11h2.32c0,1.51.08,3.08.12,4.68,0,.79,0,1.6.05,2.4s0,1.61.11,2.4q.25,3.54.53,7l.87,7a.22.22,0,0,1,0,.08,172.07,172.07,0,0,0,5.89,25.75c2.13.86,4.25,1.68,6.34,2.45s4.12,1.53,6.3,2.18,4.25,1.29,6.34,1.87l3.13.84c1,.27,2.13.51,3.18.75a144.37,144.37,0,0,1-8-23.36l-.71-3c-.23-1-.51-2-.66-3L114,293.23l-.79-6.13c-.17-1-.21-2.05-.29-3.08l-.24-3.09c-.06-.81-.14-1.61-.19-2.41s0-1.6,0-2.4c0-1.59-.09-3.2-.13-4.85H115a145.75,145.75,0,0,0,4.43,34.91,140,140,0,0,0,14.8,35.57c1.56,2.86,3.49,5.52,5.22,8.29l2.89,4c.49.65.93,1.34,1.45,2l1.54,1.91,1.52,1.91c.51.64,1,1.29,1.56,1.88l3.23,3.65c.51.63,1.08,1.2,1.65,1.78l1.69,1.72c1.11,1.16,2.2,2.33,3.39,3.39l3.46,3.24c1.17,1,2.39,2,3.56,3l1.75,1.51c.6.48,1.21.93,1.82,1.4l3.57,2.77a152.26,152.26,0,0,0,14.32,9.24l-1.35,2.3c-2.93-1.54-5.64-3.42-8.45-5.13a148.84,148.84,0,0,1-36.24-34.11c-.34,1-.63,2.05-.91,3.07l-.82,3.09q-.81,3.12-1.54,6.36c-.86,4.22-1.63,8.6-2.21,13.06A168,168,0,0,0,155.11,400l.07.05,2.84,2.19c.93.75,1.95,1.38,2.92,2.08l2.94,2.05,1.47,1,1.53.95,4.09,2.56,1,.65,1,.59,2.11,1.18-1.16,2c-1.5-.9-3.05-1.72-4.5-2.69l-2.39-1.5q.5,2.94,1.06,5.94c.4,2,.86,3.9,1.33,5.89l-1.57,2.67c-1.37-5.24-2.34-10.66-3.16-15.84v-.12c-1.58-1-3.06-2.11-4.59-3.15s-3.07-2.09-4.51-3.26c.08,1.13.17,2.28.28,3.42l.4,3.36c.29,2.25.61,4.54,1,6.85.17,1.17.37,2.31.59,3.44l.67,3.43c.46,2.3,1,4.63,1.48,7a1.12,1.12,0,0,1,0,.36l3.48,2L162.42,435a192.65,192.65,0,0,1-29.34-20.4c-2.43.2-4.9.36-7.4.5s-4.94.13-7.45.14-5.1,0-7.61-.09-5.07-.25-7.65-.43A205,205,0,0,0,126,435.48l3.09,2.37c1,.8,2,1.59,3.13,2.31l6.39,4.45c2.16,1.45,4.39,2.79,6.58,4.18,1.11.68,2.19,1.4,3.32,2l3.4,1.92-1.13,1.92-2.64-1.49-1.32-.75-1.29-.8-5.13-3.22-.14,0-3.84.58-3.83.46q-3.85.43-7.81.78c-2.66.26-5.25.35-7.91.46s-5.35.19-8.07.23c4.21,3.25,8.28,6.51,12.51,9.36,2.45-.17,4.87-.38,7.27-.6s4.83-.59,7.2-.91,4.72-.69,7-1.07,4.67-.89,7-1.36l-1.6,2.71c-1.92.39-3.87.76-5.83,1.12s-3.89.61-5.87.9-4,.54-6,.78l-3,.36-3,.25c2.18,1.58,4.47,2.93,6.66,4.34l3.3,2.06,1.62,1,1.66.94,4-.66L139,474.68c-4.75-2.58-9.24-5.56-13.78-8.41a237.75,237.75,0,0,1-73.68-77.52c-1.13-1.93-2.27-3.85-3.37-5.81L45.09,377c-2.14-3.94-3.93-8.05-5.81-12.12-1-2-1.78-4.11-2.62-6.19l-2.5-6.25c-.77-2.11-1.48-4.24-2.22-6.36l-1.09-3.18c-.37-1.06-.72-2.13-1-3.21a232.85,232.85,0,0,1-9.76-52.74c-.1-1.31-.21-2.62-.28-3.91s-.08-2.59-.11-3.89c-.07-2.58-.13-5.22-.19-7.87h5.26C23.92,272.15,23.08,273.07,22.25,274.09ZM54.08,387.32h0ZM125.8,438.2c-2.55.19-5.15.35-7.76.46s-5.18.1-7.81.1-5.33,0-8-.13-5.32-.28-8-.48c1.93,1.8,3.82,3.61,5.76,5.35l5.89,5,4,0,4.06-.11c2.68-.08,5.34-.2,8-.35s5.27-.41,7.86-.67,5.17-.57,7.7-.89c-3.9-2.74-7.89-5.38-11.61-8.35ZM112,426.85q-3.81-.06-7.69-.22c-1.3-.05-2.61-.1-3.91-.18l-3.87-.32c-5.18-.46-10.54-1-15.78-1.89.87,1,1.74,1.95,2.6,2.93s1.8,1.88,2.7,2.82c1.81,1.86,3.62,3.71,5.41,5.56,5.47.41,10.76.76,16,.85q4,0,7.89,0c2.6,0,5.15-.1,7.75-.29-1.92-1.42-3.69-3-5.52-4.55l-2.73-2.31-1.35-1.16-1.31-1.22ZM99.61,414.43c-5.09-.46-10.21-1.15-15.47-1.94s-10.41-1.93-15.66-3.2c1.54,2.1,3.21,4.1,4.82,6.13l2.43,3c.81,1,1.69,2,2.53,2.94,5.37.89,10.57,1.69,15.88,2.15q3.94.38,7.8.64c2.59.17,5.22.23,7.78.3C106.18,421.3,102.93,417.83,99.61,414.43Zm45.62-19.64c-.07,4.15-.15,8.46-.15,12.8s.07,8.68,0,13.18a1.3,1.3,0,0,1-.07.41l6.15,4.28c1,.74,2.08,1.38,3.14,2.05l3.17,2c-.51-2.38-1-4.73-1.45-7.05s-.8-4.73-1.16-7-.65-4.63-.91-6.92-.4-4.65-.55-6.93l-2.11-1.62c-.71-.54-1.36-1.14-2.05-1.71ZM135,385q-.34,3.36-.6,6.81c-.1,1.17-.16,2.31-.19,3.44l-.1,3.45q-.07,3.47,0,7c0,2.33.17,4.67.3,7.05l2.09,1.77c.69.6,1.39,1.18,2.13,1.73l4.34,3.34c0-9.07-.07-17.88.27-26.46a.77.77,0,0,1,0-.15l-4.2-3.91Zm-2.17-40.25c-1,2.13-1.7,4.21-2.5,6.37s-1.55,4.36-2.29,6.61-1.31,4.44-1.92,6.73-1.24,4.66-1.69,7-.95,4.69-1.38,7.1c-.2,1.2-.43,2.43-.6,3.63l-.47,3.62c-.29,2.44-.56,4.91-.79,7.43s-.31,5-.42,7.5a1.14,1.14,0,0,1-1.15,1.08c-2.56,0-5.2-.08-7.8-.22s-5.2-.37-7.84-.61c-5.36-.43-10.55-1.26-16-2.16-2.73-.44-5.35-1-8-1.61s-5.4-1.23-8.15-1.91-5.37-1.51-8.09-2.33l-4.09-1.26L57.59,391l-2-.71c.79,1.39,1.68,2.72,2.55,4.06l2.63,4c1.71,2.71,3.62,5.28,5.5,7.88a214,214,0,0,0,33.53,5.9,1,1,0,0,1,.61.07c2.73.22,5.45.38,8.13.52l4,.17,2,.07h2c2.66,0,5.3,0,7.89-.11,1.3,0,2.57-.07,3.87-.14l3.89-.28-.18-3.83c0-1.28,0-2.58-.05-3.86q0-3.84.1-7.57c0-1.23.1-2.49.19-3.75l.28-3.74c.21-2.47.42-4.87.74-7.3a153.16,153.16,0,0,1,6.24-27.8c-1.16-1.61-2.37-3.19-3.4-4.88l-1.63-2.49C133.88,346.39,133.33,345.57,132.86,344.7Zm-1.39-1.4c-2.29-.27-4.65-.57-7-.94s-4.61-.84-7-1.33c-4.77-.93-9.31-2.2-14.07-3.6-2.41-.7-4.69-1.5-7-2.33s-4.69-1.71-7.06-2.64-4.62-2-7-3l-3.51-1.62c-1.18-.55-2.36-1.12-3.48-1.72-.66,1.13-1.26,2.26-1.84,3.39l-1.77,3.45c-1.16,2.32-2.33,4.7-3.43,7.11s-2.07,4.83-3.07,7.32-2,5-2.86,7.57c-1.73,5.08-3.49,10.41-4.8,15.76q-1,4-2,8.21c-.58,2.76-1.09,5.53-1.59,8.36a200.87,200.87,0,0,0,64.58,12.31A159,159,0,0,1,131.47,343.3ZM70.1,292.91l5.82,3.36c1.92,1.11,3.77,2.23,5.73,3.31l5.71,3.2c1.9,1.05,3.68,2.1,5.63,3.09a25.07,25.07,0,0,1-.52-2.58L92,300.7l-.47-2.6c-.16-.86-.32-1.72-.41-2.6A189.21,189.21,0,0,1,68.61,278c0,1.23,0,2.46.13,3.69l.28,3.69c.2,2.46.31,4.93.68,7.38A1.07,1.07,0,0,1,70.1,292.91Zm1.63,13.16A171.12,171.12,0,0,0,96.5,319.45L94.94,314c-.29-.91-.5-1.83-.71-2.76l-.64-2.77-.14,0c-1.92-1-3.92-2-5.84-3.08l-5.77-3.24-5.93-3.32L70,295.36c.25,1.79.4,3.6.74,5.37ZM55.19,335.25a1,1,0,0,1-.25.56c-2.23,4.91-4.58,10.1-6.45,15.33-1,2.64-1.91,5.31-2.81,8s-1.59,5.41-2.31,8.16l2,4.36c.71,1.43,1.46,2.84,2.19,4.27,1.51,2.82,2.9,5.71,4.56,8.44A186.13,186.13,0,0,1,74,324.12a1.17,1.17,0,0,1,1.53-.44c4.46,2.41,9.23,4.5,13.8,6.43,2.26,1,4.65,1.85,7,2.69s4.66,1.62,7,2.37,4.71,1.38,7,2,4.56,1.22,6.9,1.72,4.63.95,6.9,1.37l3.37.61c1.13.18,2.28.33,3.41.49-1.06-1.68-1.88-3.48-2.82-5.22l-1.38-2.62-1.23-2.7a161.06,161.06,0,0,1-54.63-22.68c-1.5,2.09-2.82,4.2-4.22,6.38s-2.76,4.39-4.09,6.66-2.52,4.55-3.76,6.9S56.27,332.84,55.19,335.25ZM49,321.15A235.16,235.16,0,0,0,36,349.5c.41,1.22.87,2.42,1.36,3.62l1.44,3.6c1,2.39,1.89,4.82,3,7.17.77-2.56,1.65-5.12,2.52-7.62s1.73-4.95,2.6-7.36l.66-1.8.72-1.8,1.47-3.56c1-2.36,2-4.67,3-6.95-.71-2.25-1.33-4.53-2-6.8l-1-3.41C49.53,323.46,49.28,322.3,49,321.15Zm-3.49-17.24c-2.74,4.2-5.46,8.58-8,13.1q-1.86,3.39-3.7,6.91c-1.22,2.35-2.52,4.76-3.66,7.18.71,2.46,1.42,4.94,2.14,7.42l.55,1.86.63,1.85,1.26,3.69,3.09-7.33c1.09-2.41,2.18-4.77,3.27-7.1s2.15-4.58,3.34-6.84,2.41-4.47,3.66-6.65a1.18,1.18,0,0,1,.13-.18l-.8-3.45c-.25-1.16-.44-2.33-.66-3.49ZM25.94,312.3l.69,3.77L27,318l.43,1.89,1.79,7.6A203.71,203.71,0,0,1,45,300.58l.06-.08-.89-7c-.24-2.35-.38-4.7-.57-7.05q-2.39,3-4.74,6.09c-1.56,2.07-3,4.18-4.47,6.34s-2.93,4.35-4.38,6.6S27.28,310,25.94,312.3Z"/><path class="cls-1" d="M63.35,246.59a6.2,6.2,0,0,1-6.71,5.21A5.86,5.86,0,0,1,51.52,245a6.26,6.26,0,0,1,2.35-4.1,5.75,5.75,0,0,1,4.47-1.08,6,6,0,0,1,3.86,2.4A6.1,6.1,0,0,1,63.35,246.59Zm-2.24-.28c.59-4.73-6.62-6.06-7.35-1.06S60.34,251,61.11,246.31Z"/><path class="cls-1" d="M56,265a6,6,0,0,0-6.19,6v.27H52c0-.09,0-.18,0-.27.2-5,7.52-4.62,7.43.14l0,.13h2.26v-.12A6,6,0,0,0,56,265Z"/><path class="cls-1" d="M112.88,233.53c-.75,2.35-3.65,3.75-6.93,3a6.63,6.63,0,0,1-3.77-2.34,4.11,4.11,0,0,1-.82-3.74c.8-2.59,4-3.91,7.13-2.93S113.56,231.14,112.88,233.53ZM110.7,233c1-3.5-6-5.71-7.16-2-.58,1.87,1,3.28,2.8,3.72S110.12,234.71,110.7,233Z"/><path class="cls-1" d="M109.22,252.16c-.42,2.44-3.26,4.18-6.56,3.84s-5.65-2.75-5.26-5.44a4.4,4.4,0,0,1,2.2-3.14,6.73,6.73,0,0,1,4.43-.68,6.92,6.92,0,0,1,3.91,2A4.2,4.2,0,0,1,109.22,252.16Zm-2.23-.28c.43-3.63-6.78-4.93-7.36-1S106.35,255.48,107,251.88Z"/><path class="cls-1" d="M102.16,266.42c-3.31-.15-6,1.92-6.17,4.64v.21h2.27c0-.07,0-.14,0-.21.2-3.94,7.52-3.55,7.43.11,0,0,0,.06,0,.1h2.25l0-.1C108,268.68,105.5,266.58,102.16,266.42Z"/><path class="cls-1" d="M109,155.22c.21,1.57.44,3.12.68,4.65l.36,2.29.44,2.31c.61,3.07,1.26,6.08,2,9s1.59,5.91,2.45,8.76c.43,1.43.88,2.84,1.33,4.23s1,2.83,1.53,4.22a1,1,0,0,1,.07.67l0-.06s0,.1.06.09l0,0,0,0h0l-.08,0,0,0a1.32,1.32,0,0,1-.59.22,170.31,170.31,0,0,0-17.84,4c-3,.86-5.9,1.81-8.9,2.83-1.49.51-3,1-4.5,1.59s-2.94,1.15-4.42,1.75a1.17,1.17,0,0,1-1.49-.55q-1-2.17-1.94-4.41c-.64-1.48-1.19-2.95-1.77-4.46-1.14-3-2.27-6.08-3.32-9.21a190.49,190.49,0,0,1-5.18-19.32,1.93,1.93,0,0,1,.1-.81,2.37,2.37,0,0,1,.71-.58q2.46-.8,4.89-1.53c1.67-.47,3.33-.91,5-1.34,3.31-.85,6.52-1.67,9.8-2.35s6.56-1.25,9.77-1.78l2.4-.38,2.45-.32c1.62-.2,3.24-.38,4.84-.55A1.15,1.15,0,0,1,109,155.22Zm-3.2,2.73c-2.81.33-5.53.79-8.36,1.26l-4.24.75-2.13.41-2.1.46c-5.58,1.26-11.39,2.68-17,4.51.65,2.87,1.28,5.66,2.05,8.45s1.62,5.56,2.47,8.25c.43,1.35.85,2.68,1.31,4l1.47,4c1,2.63,2,5.21,3.06,7.73q4-1.47,7.88-2.77l3.89-1.26c1.31-.39,2.64-.76,4-1.12,2.63-.72,5.23-1.38,7.8-2s5.26-1.09,7.84-1.57c-1.84-4.94-3.26-9.9-4.64-15.13l-.51-2L108.1,170l-.83-3.95C106.74,163.41,106.19,160.66,105.79,158Z"/><path class="cls-1" d="M132,108.12a6.1,6.1,0,0,1,4.63-1.31,5.86,5.86,0,0,1,4,2.28,5.67,5.67,0,0,1,1.06,4.37,6.65,6.65,0,0,1-2.32,3.9,6.21,6.21,0,0,1-8.49-.83A5.82,5.82,0,0,1,132,108.12Zm1.37,1.76c-4,3.18.79,8.64,4.62,5.72a3.68,3.68,0,1,0-4.62-5.72Z"/><path class="cls-1" d="M151.89,101.84a6,6,0,0,0,3.71,2.57,6.29,6.29,0,0,0,4.54-.64s0,0,0,0L159,101.82l-.06.06c-4.22,2.35-8.22-3.69-3.81-6.28a.62.62,0,0,1,.17-.07l-1.14-1.92-.16.08a6.1,6.1,0,0,0-2.9,3.68A5.66,5.66,0,0,0,151.89,101.84Z"/><path class="cls-1" d="M144.14,157.8c2-1.9,5.39-1.51,7.66.85s2.58,5.64.82,7.41-5,1.53-7.5-.71S142.23,159.75,144.14,157.8Zm1.59,1.57c-1.4,1.4-.69,3.39.65,4.61s3.3,1.78,4.66.51C153.63,161.86,148.58,156.61,145.73,159.37Z"/><path class="cls-1" d="M159.91,144.32a4,4,0,0,1,1.78-.83,5.23,5.23,0,0,1,2,.11,7,7,0,0,1,5,6.65,4.65,4.65,0,0,1-.43,1.84,4.32,4.32,0,0,1-1.09,1.49c-2,1.53-5.23.83-7.38-1.68S157.77,146,159.91,144.32Zm1.37,1.76c-3.1,2.5,1.66,8,4.6,5.74,1.4-1.23,1.07-3.19,0-4.66S162.8,144.82,161.28,146.08Z"/><path class="cls-1" d="M176.25,140.43a6.8,6.8,0,0,0,3.36,2.78,4.29,4.29,0,0,0,3.68-.14s0,0,0,0l-1.13-1.92-.05,0c-3.23,1.79-7.22-4.26-3.79-6.28a.44.44,0,0,1,.14,0l-1.14-1.93-.13.06a4.32,4.32,0,0,0-2.06,3.2A6.58,6.58,0,0,0,176.25,140.43Z"/><path class="cls-1" d="M83.52,172a2,2,0,0,1,.68-.52c4.36-1.26,8.87-2.22,13.24-3.1a1.16,1.16,0,0,1,1.33.86c1,4.29,2,8.43,3.4,12.57a1.14,1.14,0,0,1,0,.72l.06-.06s0,.11,0,.1l0,0,0,0h0l-.08-.05,0,0a1.28,1.28,0,0,1-.61.27c-2.12.48-4.28,1-6.43,1.54s-4.22,1.19-6.36,1.83a1.16,1.16,0,0,1-1.43-.68c-.71-2.09-1.41-4.2-2.09-6.35s-1.22-4.25-1.79-6.44A1.69,1.69,0,0,1,83.52,172Zm2.41,1.33c1,3.61,1.95,7,3.17,10.53,3.48-1.07,7.1-1.89,10.62-2.7q-.8-2.56-1.55-5.19c-.47-1.73-.9-3.47-1.32-5.24-1.82.38-3.66.76-5.49,1.19S87.75,172.78,85.93,173.28Z"/><path class="cls-1" d="M137.89,71.57c-2.22,1.21-4.36,2.64-6.58,4L128,77.69l-1.68,1.08-1.65,1.14c1,.09,2,.17,3,.28l3,.38c2,.26,3.94.55,5.88.85s3.86.6,5.8.93l5.89,1.09,1.6,2.71c-2.3-.46-4.64-1-6.95-1.36s-4.63-.76-7-1.11-4.74-.68-7.14-1-4.78-.45-7.23-.63c-4.23,2.85-8.31,6.1-12.52,9.36q4.08.06,8.06.23c2.66.12,5.25.23,7.9.49s5.23.5,7.8.79l3.82.46,3.84.59c.05,0,.05,0,.1.07l5.13-3.22c.84-.55,1.71-1,2.58-1.53l2.59-1.46,1.13,1.91-3.35,1.89c-1.12.63-2.19,1.35-3.29,2-2.17,1.38-4.38,2.72-6.54,4.15l-6.38,4.44c-.53.38-1.07.74-1.6,1.13l-1.54,1.18L126.15,107A203.8,203.8,0,0,0,103,127.82c2.58-.18,5.14-.32,7.66-.43s5.11-.1,7.62-.1,5,0,7.46.13,5,.3,7.41.5a193.78,193.78,0,0,1,29.27-20.35l1.13,1.92-3.41,1.91c0,.11.07.19,0,.32-1,4.73-2,9.27-2.76,13.85-.35,2.32-.68,4.6-1,6.86l-.4,3.36c-.12,1.12-.2,2.28-.29,3.41,1.44-1.17,3-2.19,4.51-3.25l2.27-1.58c.76-.53,1.51-1.08,2.31-1.55,0,0,0-.06,0-.11.8-5.18,2.17-10.81,3.09-15.79l1.57,2.67c-.3,1.88-.76,3.82-1.2,5.8s-.83,4-1.15,6l2.41-1.52c1.45-1,3.12-1.84,4.44-2.65l1.16,2-2,1.14c-.34.2-.69.39-1,.58l-1,.65-4.11,2.58-1.52.94c-.5.33-1,.68-1.47,1l-2.92,2c-1,.69-2,1.32-2.91,2.06l-2.83,2.18-.06,0a167.34,167.34,0,0,0-19.78,17.93c.57,4.45,1.35,8.85,2.2,13.06s2,8.45,3.26,12.52a148.85,148.85,0,0,1,36.27-34.08c2.81-1.7,5.38-3.49,8.34-5.06l1.35,2.3a148.83,148.83,0,0,0-14.38,9.3l-3.58,2.77c-.6.47-1.22.91-1.81,1.4l-1.76,1.51c-1.16,1-2.38,2-3.55,3l-3.45,3.24c-1.19,1-2.27,2.23-3.39,3.38l-1.68,1.73c-.57.57-1.13,1.14-1.65,1.77l-3.21,3.64c-.56.59-1,1.24-1.56,1.88l-1.52,1.91-1.54,1.9c-.51.64-1,1.32-1.44,2l-2.88,4c-1.74,2.77-3.66,5.42-5.22,8.28a139.63,139.63,0,0,0-14.81,35.64A144.85,144.85,0,0,0,115,271.27h-2.7l.13-4.91.06-2.45.19-2.43.24-3.09c.07-1,.13-2.06.3-3.08l.79-6.13,1.11-6.08c.15-1,.45-2,.67-3l.71-3a143.42,143.42,0,0,1,8-23.35c-1.06.24-2.14.48-3.2.74l-3.12.84c-2.09.58-4.21,1.2-6.34,1.87s-4.19,1.4-6.3,2.17-4.21,1.59-6.34,2.44a170.93,170.93,0,0,0-5.92,25.75.22.22,0,0,1,0,.08l-.89,7-.53,7.07c-.08.8-.1,1.59-.11,2.39l-.05,2.39-.12,4.78H89.3c.08-1.74.15-3.47.19-5.19l.06-2.79q-4.59,3.78-9.23,8H77.18c2.07-1.9,4.13-3.73,6.18-5.51s4.07-3.49,6.26-5.13a1.05,1.05,0,0,0,.11-.07l.41-5.48c.15-1.83.45-3.64.66-5.46q-2.83,1.92-5.68,4c-1.83,1.38-3.64,2.8-5.47,4.26s-3.69,3-5.49,4.52-3.53,3.14-5.32,4.76a1.12,1.12,0,0,1-.3.2l-.1,3.94H66.19A189.56,189.56,0,0,1,69.5,236.1a185.84,185.84,0,0,1-15.2-25.57L52.17,218c-.67,2.48-1.2,5-1.8,7.5l-.86,3.76L48.82,233l-.68,3.8c-.22,1.26-.48,2.52-.62,3.8l-1,7.64c-.18,1.27-.28,2.55-.37,3.83l-.3,3.83-.28,3.84c-.11,1.28-.09,2.56-.14,3.84l-.18,7.69H43c.11-4,.13-8,.34-11.95l-.1-.1q-2.37-2.93-4.73-6c-1.55-2-3.19-4.13-4.62-6.24s-2.93-4.29-4.38-6.5-2.92-4.46-4.22-6.74c-.52,2.58-.77,5.18-1.13,7.73-.16,1.28-.32,2.56-.49,3.82s-.32,2.52-.4,3.78c2.83,4,5.64,7.83,8.58,11.52S38,267.86,41,271.27H37.82A215.27,215.27,0,0,1,23,252.83c-.18,2.65-.46,5.26-.53,7.83s-.14,5.1-.2,7.58l2.49,3H19.49c.06-2.65.13-5.31.19-8l.11-4,.29-4a229.95,229.95,0,0,1,31.48-101.6,238,238,0,0,1,73.86-77.63c4.55-2.85,8.8-5.68,13.61-8.29l2.64,4.47C140.31,72.13,139.22,71.78,137.89,71.57ZM54.08,155.21h0ZM45,241.77l-2.19-3.16-2.06-3.2q-2-3.24-4.05-6.61c-1.37-2.25-2.6-4.52-3.83-6.84s-2.44-4.67-3.64-7.07q-.9,3.83-1.79,7.6L27,224.37l-.35,1.89L26,230c1.34,2.32,2.68,4.6,4.05,6.84s2.91,4.44,4.38,6.6,2.92,4.27,4.47,6.34,3.15,4.11,4.73,6.1c.2-2.35.33-4.7.58-7l.9-7A.23.23,0,0,1,45,241.77Zm3.12-17.42c-1.25-2.18-2.48-4.4-3.71-6.67s-2.28-4.53-3.4-6.86-2.21-4.7-3.28-7.12-2-4.81-2.94-7.28l-1.27,3.69c-.42,1.23-.84,2.46-1.18,3.71q-1.08,3.72-2.15,7.41c1.07,2.41,2.32,4.81,3.54,7.16s2.46,4.65,3.71,6.92c.61,1.13,1.27,2.25,1.95,3.37l2,3.32q2,3.28,4.11,6.44l1.26-7c.22-1.16.39-2.33.66-3.49l.8-3.45C48.23,224.47,48.18,224.42,48.14,224.35Zm4.72-16.79q-1.56-3.42-3.08-7c-1-2.35-2.05-4.78-2.9-7.19s-1.77-4.87-2.62-7.37L43,182.25c-.41-1.26-.76-2.52-1.13-3.79-1.13,2.34-2.05,4.77-3,7.17l-1.44,3.6c-.48,1.19-1,2.39-1.37,3.61q1.43,3.78,2.91,7.42c1,2.43,2,4.81,3.13,7.19s2.23,4.7,3.37,7c.57,1.14,1.13,2.27,1.72,3.4l1.87,3.36c.28-1.15.51-2.31.84-3.44l1-3.41C51.53,212.09,52.13,209.8,52.86,207.56Zm40.16,29c-2,1-3.74,2-5.64,3.08l-5.7,3.21c-2,1.07-3.83,2.18-5.74,3.3l-5.81,3.35a1.18,1.18,0,0,1-.41.14c-.37,2.45-.5,4.91-.69,7.37s-.42,4.92-.42,7.39l2.7-2.41c.92-.8,1.87-1.58,2.8-2.36,1.87-1.54,3.73-3,5.58-4.51s3.77-2.88,5.7-4.24,3.84-2.68,5.75-4c.09-.88.26-1.74.42-2.6l.47-2.6.46-2.59.23-1.3Zm3.52-13.58A172.57,172.57,0,0,0,71.76,236.3l-1,5.34c-.18.88-.3,1.78-.41,2.68L70.05,247l5.88-3.4,5.94-3.32,5.77-3.23C89.58,236,91.56,235,93.48,234l.15,0,.64-2.77.32-1.39.39-1.36ZM131,201.07l-3.48.45-3.41.58c-2.28.41-4.6.86-6.94,1.36s-4.58,1.09-6.91,1.71-4.68,1.28-7,2-4.59,1.54-6.92,2.38-4.7,1.72-7,2.7c-4.53,1.94-9.3,4-13.75,6.43a1.18,1.18,0,0,1-1.53-.43c-2.63-4.45-4.83-9-7.1-13.74-1.16-2.39-2.14-4.78-3.14-7.22s-2-4.94-2.93-7.47-1.74-5.06-2.58-7.66-1.66-5.25-2.36-7.89-1.36-5.33-2-8.06L53,162.09c-.28-1.38-.53-2.75-.78-4.14-1.66,2.74-3.07,5.62-4.57,8.44l-2.2,4.27-2,4.36c.77,2.78,1.56,5.5,2.4,8.2s1.84,5.4,2.8,8c1.83,5.23,4.1,10.39,6.34,15.31a1,1,0,0,1,.25.56c1.08,2.41,2.35,4.82,3.57,7.17s2.49,4.65,3.76,6.9,2.7,4.5,4.08,6.67,2.72,4.29,4.21,6.38a165.19,165.19,0,0,1,54.66-22.63l1.23-2.69,1.38-2.63C129.07,204.54,129.91,202.75,131,201.07Zm.53-1.88a152.92,152.92,0,0,1-8.79-26.82c-.55-2.37-1-4.71-1.43-7.13s-.89-4.9-1.19-7.33-.58-4.92-.82-7.45l-.34-3.81-.18-3.78-4,.09-3.91.24c-2.62.18-5.28.39-8,.65s-5.3.64-8,1-5.42.81-8.11,1.33a211,211,0,0,0-32.68,9,192.33,192.33,0,0,0,21.32,61.14A166.12,166.12,0,0,1,131.5,199.19Zm13.77-77.52c0,4.49,0,8.9-.07,13.18s.07,8.65.14,12.8c2.73-2.26,5.36-4.67,8.23-6.76.15-2.28.33-4.6.55-6.94s.58-4.58.92-6.91l.54-3.52c.19-1.19.39-2.37.62-3.52q.69-3.48,1.46-7l-3.17,2c-1.06.67-2.14,1.3-3.15,2l-6.15,4.28A1.07,1.07,0,0,1,145.27,121.67Zm-10.75,8q-.21,3.57-.32,7.06t.05,7c.07,2.33.1,4.56.28,6.88s.37,4.58.61,6.82c1.34-1.37,2.65-2.76,4-4.1l4.2-3.92a.77.77,0,0,1,0-.15c-.05-1.08-.1-2.18-.13-3.25l0-3.22-.08-6.58c0-2.24,0-4.43,0-6.65s0-4.5,0-6.76l-4.34,3.34-1.09.84-1,.88Zm-34,.52a1,1,0,0,1-.62.06,193.64,193.64,0,0,0-33.53,5.88c-3.83,5.14-7.31,10.54-10.69,16,1.31-.5,2.67-1,4-1.39l4.07-1.28c2.71-.83,5.38-1.62,8.06-2.34s5.46-1.33,8.15-1.92,5.33-1.16,8.07-1.59c5.44-.89,10.66-1.69,16-2.1,2.66-.24,5.28-.43,7.86-.59s5.25-.17,7.82-.21a1.15,1.15,0,0,1,1.15,1.08c.1,2.54.22,5,.42,7.52s.51,5,.82,7.45c.55,4.84,1.53,9.76,2.5,14.4.46,2.31,1.1,4.68,1.71,7s1.25,4.53,1.91,6.73,1.48,4.44,2.24,6.58,1.5,4.21,2.4,6.31c.47-.87,1-1.68,1.58-2.51l1.63-2.49c1-1.7,2.25-3.27,3.4-4.88A145.41,145.41,0,0,1,133.24,160c-.3-2.42-.5-4.82-.71-7.29l-.26-3.72-.12-1.89-.05-1.85q-.09-3.72-.08-7.56c0-1.27,0-2.58.06-3.85l.19-3.82-3.89-.28c-1.31-.09-2.57-.11-3.87-.15-2.6-.08-5.23-.11-7.89-.11s-5.29.11-8,.23S103.26,130,100.52,130.2Zm9.34-12.28c-2.57.07-5.17.15-7.75.32s-5.14.43-7.75.69c-5.29.48-10.49,1.26-16,2.06-.85,1-1.72,1.93-2.54,2.93l-2.44,3c-1.6,2-3.27,4-4.82,6.12,5.39-1.16,10.66-2.17,15.75-3.1,5.24-.81,10.28-1.56,15.39-2C103.06,124.56,106.32,121.11,109.86,117.92Zm13.44-11.57c-1.29-.08-2.6-.17-3.88-.21l-3.85-.06q-3.87,0-7.83,0c-1.34,0-2.65,0-4,.11l-4,.19-8.17.46c-1.81,1.82-3.6,3.68-5.41,5.54l-2.71,2.82c-.87,1-1.73,2-2.6,2.93a255.81,255.81,0,0,1,31.24-2.58.79.79,0,0,1,.22,0l1.32-1.21,1.36-1.16,2.72-2.31C119.6,109.35,121.38,107.77,123.3,106.35ZM106.06,93.87l-5.9,5c-1.94,1.73-3.83,3.54-5.76,5.34q4-.28,8-.47c2.65-.12,5.35-.11,8-.12s5.23,0,7.81.1,5.2.28,7.76.46l.1,0c3.72-3,7.71-5.6,11.62-8.34q-3.79-.49-7.7-.9c-2.58-.26-5.27-.56-7.86-.68s-5.28-.27-8-.35l-4.06-.11C108.74,93.83,107.41,93.86,106.06,93.87Z"/><path class="cls-1" d="M182.71,92.73a6.14,6.14,0,0,1-7.91-3,5.91,5.91,0,0,1,3.44-7.84,6.09,6.09,0,0,1,8,3.28A6,6,0,0,1,182.71,92.73Zm-.87-2a3.66,3.66,0,1,0-2.73-6.79A3.49,3.49,0,0,0,177,88.69,3.67,3.67,0,0,0,181.84,90.69Z"/><path class="cls-1" d="M162.76,95.65a6,6,0,0,0-8.33-2.19l-.24.15,1.14,1.92.22-.15c4.5-2.45,7.79,4,3.6,6.39l-.12,0,1.13,1.92.12,0A6.06,6.06,0,0,0,162.76,95.65Z"/><path class="cls-1" d="M219,128.44c-2.44.57-5.15-1.31-6.11-4.47s.42-6.18,3.09-6.88a4.11,4.11,0,0,1,2,0,5,5,0,0,1,1.83.89A6.88,6.88,0,0,1,221.7,126a4.88,4.88,0,0,1-1.12,1.51A4,4,0,0,1,219,128.44Zm-.59-2.14a2.64,2.64,0,0,0,1.76-1.68,4.7,4.7,0,0,0-1.18-4.85,2.59,2.59,0,0,0-2.42-.55C212.67,120.22,214.77,127.15,218.38,126.3Z"/><path class="cls-1" d="M200.7,134.56c-2.36.85-5.25-.56-6.62-3.6a6.38,6.38,0,0,1-.4-4.36,4.77,4.77,0,0,1,.93-1.77,3.58,3.58,0,0,1,1.6-1.13c2.58-.94,5.57.72,6.7,3.78S203.05,133.65,200.7,134.56Zm-.86-2c3.44-1.35,1-8.14-2.76-6.78a2.45,2.45,0,0,0-1.62,1.86,4.31,4.31,0,0,0,.31,2.58C196.51,131.87,198.07,133.13,199.84,132.52Z"/><path class="cls-1" d="M184.64,135.66c-1.54-2.93-4.71-4.18-7.12-2.86l-.18.11,1.14,1.93a1,1,0,0,1,.17-.12c3.5-1.9,6.83,4.53,3.62,6.37l-.09,0,1.13,1.92.09,0C185.58,141.75,186.15,138.54,184.64,135.66Z"/><path class="cls-1" d="M286.11,85.91q-3.83,2.94-7.4,5.92c-1.2,1-2.38,2-3.54,3.07s-2.3,2.1-3.42,3.15a172,172,0,0,0-12.51,13.06,1,1,0,0,1-.55.38l.07,0s-.07.09-.05.09,0,.15,0,.15-.05.15-.05.15h0v-.42a1.18,1.18,0,0,1-.49-.37A168.29,168.29,0,0,0,245.62,98q-1.68-1.58-3.42-3.15c-1.16-1-2.34-2.12-3.53-3.08q-3.58-3-7.4-5.92a1.14,1.14,0,0,1-.26-1.55q2.87-3.78,6-7.58c1-1.29,2.09-2.49,3.17-3.71s2.17-2.43,3.29-3.65a201.2,201.2,0,0,1,14.41-14.16,2,2,0,0,1,.77-.33,2.44,2.44,0,0,1,.86.33c5.13,4.67,9.95,9.2,14.43,14.17q1.68,1.83,3.3,3.65c1.08,1.21,2.14,2.42,3.17,3.71q3.11,3.81,6,7.59A1.14,1.14,0,0,1,286.11,85.91Zm-4-1.29c-3.4-4.49-7.07-8.63-11-12.89-1.95-2.17-4-4.14-6.05-6.18s-4.22-4-6.43-6.08q-3.3,3-6.41,6.08c-2.07,2-4.09,4-6,6.17-3.89,4.27-7.55,8.39-11,12.88,4.37,3.35,8.51,7.12,12.4,10.76,2,1.78,3.84,3.78,5.67,5.69s3.61,3.85,5.32,5.78q2.58-2.88,5.33-5.78c1.84-1.91,3.74-3.9,5.69-5.69C273.57,91.72,277.73,88,282.1,84.62Z"/><path class="cls-1" d="M339.17,81.92a5.92,5.92,0,0,1,3.43,7.84,6.12,6.12,0,0,1-7.91,3,6,6,0,0,1-3.53-7.6A6.09,6.09,0,0,1,339.17,81.92Zm-.87,2a3.66,3.66,0,1,0,2.09,4.8A3.49,3.49,0,0,0,338.3,84Z"/><path class="cls-1" d="M354.64,95.73a6,6,0,0,0,2.39,8s0,0,0,0l1.13-1.92-.08,0a3.67,3.67,0,1,1,3.64-6.38l.15.11L363,93.61a.85.85,0,0,0-.15-.1A5.91,5.91,0,0,0,354.64,95.73Z"/><path class="cls-1" d="M301.42,117.13c2.67.7,4,3.78,3.09,6.88s-3.68,5-6.12,4.46c-2.4-.75-3.84-3.52-3.11-6.76a6.53,6.53,0,0,1,2.35-3.75A4.27,4.27,0,0,1,301.42,117.13Zm-.59,2.13a2.57,2.57,0,0,0-2.41.54,4.32,4.32,0,0,0-1.3,2.27,4.41,4.41,0,0,0,.11,2.58,2.6,2.6,0,0,0,1.75,1.69C302.59,127.18,304.7,120.26,300.83,119.26Z"/><path class="cls-1" d="M321.15,123.75c2.57,1,3.47,4.33,2.13,7.27s-4.27,4.45-6.63,3.59-3.34-4-2.2-7.08S318.57,122.81,321.15,123.75Zm-.86,2c-3.75-1.36-6.21,5.43-2.77,6.78,1.76.62,3.33-.64,4.07-2.33S322.14,126.48,320.29,125.79Z"/><path class="cls-1" d="M332.72,135.72c-1.52,2.88-1,6.07,1.17,7.32h0l1.13-1.92-.06,0c-3.2-1.85.15-8.25,3.66-6.36l.11.09,1.13-1.93-.12-.08C337.36,131.52,334.26,132.8,332.72,135.72Z"/><path class="cls-1" d="M258.62,72.62a2,2,0,0,1,.79.33c3.28,3.23,6.4,6.44,9.37,9.69a1.14,1.14,0,0,1-.09,1.57c-3.28,3-6.41,6.13-9.38,9.19a1.18,1.18,0,0,1-.62.39h.09s-.08.1-.06.1,0,.14,0,.14-.06.15-.06.15h0v-.42a1.25,1.25,0,0,1-.55-.37c-3-3.07-6.1-6.15-9.38-9.21a1.13,1.13,0,0,1-.11-1.56c3-3.23,6-6.45,9.33-9.68A1.79,1.79,0,0,1,258.62,72.62Zm0,2.71c-2.7,2.67-5.21,5.35-7.7,8,2.7,2.54,5.23,5.08,7.71,7.62,2.48-2.54,5-5.08,7.75-7.62C263.92,80.68,261.35,78,258.65,75.33Z"/><path class="cls-1" d="M374.35,68.75c-1.1-.62-2.2-1.26-3.34-1.86l-3.48-1.76c-2.34-1.17-4.7-2.4-7.14-3.54C363.76,69,366.4,76,369,83.44l-1.59,2.71q-1.1-3.29-2.26-6.59c-.78-2.2-1.64-4.32-2.51-6.5s-1.77-4.35-2.72-6.55-2-4.3-3.05-6.49c-2.34-1-4.69-2.12-7.12-3.1L342.36,54q2,3.49,3.84,7c.61,1.15,1.23,2.28,1.81,3.46l1.7,3.53c2.22,4.71,4.3,9.3,6.09,14.08,0,.05,0,.07,0,.12l5.41,2.74,5.21,2.93-1.13,1.92-3.35-1.9-1.68-.94-1.72-.88-6.93-3.49c-2.35-1.11-4.74-2.14-7.12-3.21-1.2-.51-2.37-1.09-3.59-1.55l-3.65-1.43c-4.84-2-9.85-3.57-14.82-5.23-2.51-.75-5-1.44-7.56-2.15-1.27-.33-2.52-.74-3.8-1l-3.82-.88c1.45,2.11,2.88,4.13,4.23,6.29s2.64,4.3,3.9,6.43c2.53,4.2,4.79,8.66,6.88,13a194.16,194.16,0,0,1,32.56,14.78l-1.13,1.92-3.4-1.93c-.1.06-.13.15-.26.19-4.64,1.39-9.21,3-13.58,4.52-4.45,1.74-8.7,3.45-12.84,5.39,1.73.67,3.39,1.5,5.09,2.23s3.41,1.47,5,2.35c0,0,0-.06.09-.07,2.49-1,5.14-1.85,7.79-2.73s5.23-1.61,7.69-2.52l-1.57,2.67c-1.82.68-3.77,1.28-5.72,1.87s-4,1.3-5.87,2l2.55,1.29c1.55.8,3.17,1.75,4.54,2.47l-1.16,2c-1.33-.75-2.7-1.55-4.12-2.33l-4.34-2.19c-1.07-.52-2.11-1.11-3.2-1.59l-3.26-1.45-3.25-1.46c-1.1-.46-2.23-.87-3.34-1.31,0,0-.05,0-.07,0-4.14-1.71-8.41-3.06-12.65-4.45l-6.47-1.82c-1.07-.33-2.17-.54-3.26-.79l-3.28-.75a155.29,155.29,0,0,0-19.76,17.45,140.58,140.58,0,0,1,24.62,4.86,148.93,148.93,0,0,1,23.4,8.91l4.33,2.18c.73.34,1.43.74,2.14,1.15l2.15,1.22-1.36,2.3c-1.18-.66-2.36-1.36-3.59-2l-3.78-1.9-1.93-1c-.65-.31-1.33-.59-2-.89L315,141.5a144.36,144.36,0,0,0-17.53-6,145.63,145.63,0,0,0-77.79,0,142.78,142.78,0,0,0-17.54,6l-4.05,1.8c-.66.3-1.34.57-2,.89l-1.92,1-3.77,1.88c-1.21.66-2.39,1.36-3.56,2l-1.35-2.3,2.15-1.22c.71-.41,1.43-.82,2.17-1.17l4.41-2.22a150.22,150.22,0,0,1,23.4-8.89,140.81,140.81,0,0,1,24.63-4.83A156.25,156.25,0,0,0,222.53,111c-2.17.53-4.38,1-6.54,1.54l-6.46,1.82c-4.25,1.39-8.52,2.73-12.65,4.44l-.08,0-3.35,1.31-3.27,1.47-3.29,1.46c-1.1.47-2.14,1.07-3.21,1.59l-4.32,2.18c-1.42.76-2.8,1.59-4.21,2.37l-1.16-2c1.55-.82,3.06-1.71,4.61-2.51l2.52-1.27c-1.89-.7-3.83-1.42-5.76-2s-3.88-1.22-5.87-1.8l-1.57-2.67c2.69.78,5.28,1.52,7.89,2.42s5.17,1.83,7.66,2.79l.12.06c1.64-.88,3.36-1.58,5-2.35l2.55-1.14c.84-.38,1.69-.77,2.56-1.09l-1.57-.74-1.56-.68-3.17-1.35q-3.21-1.34-6.54-2.63c-4.36-1.57-8.92-3.13-13.57-4.54a1.05,1.05,0,0,1-.32-.15l-3.47,2-1.13-1.92a192.92,192.92,0,0,1,32.63-14.8c2.1-4.31,4.35-8.76,6.87-13q1.88-3.19,3.89-6.43c1.34-2.14,2.77-4.18,4.22-6.28-2.55.58-5.1,1.14-7.61,1.89s-5,1.39-7.53,2.13c-5,1.66-9.94,3.22-14.77,5.21-2.43,1-4.87,1.86-7.23,3s-4.77,2.11-7.13,3.2l-7,3.52-1.74.89-1.7,1-3.4,1.92-1.13-1.91c1.77-1,3.52-2,5.29-3l5.42-2.74a.74.74,0,0,1,0-.14c1.79-4.79,3.89-9.37,6.12-14.09l1.72-3.54c.59-1.16,1.2-2.3,1.82-3.46q1.86-3.45,3.85-7l-7.41,2.87c-2.44,1-4.78,2.08-7.13,3.1-1.06,2.18-2.12,4.3-3.09,6.49s-1.9,4.41-2.8,6.59-1.76,4.33-2.57,6.53-1.54,4.42-2.26,6.6l-1.6-2.71A207.66,207.66,0,0,1,157,61.5c-2.45,1.13-4.8,2.37-7.14,3.53l-3.48,1.76c-1.14.59-2.24,1.24-3.35,1.85l-1.39,3.69L139,67.86l3.52-2c1.18-.67,2.35-1.32,3.57-1.92l7.22-3.63a243.1,243.1,0,0,1,210.75.09l7.1,3.58c1.18.58,2.33,1.22,3.49,1.88l3.52,2-2.63,4.47C375.06,71.08,374.83,70,374.35,68.75ZM258.62,39.2h0ZM177.83,74.76q1.68-3.39,3.49-6.81l.91-1.72,1-1.66,2-3.34q2-3.34,4.1-6.72c1.43-2.23,2.92-4.37,4.45-6.57-5.15,1.34-10.12,3.08-15,4.71-.7,1.12-1.37,2.28-2,3.46L174.7,59.6q-1.92,3.48-3.69,6.93c-2.31,4.72-4.45,9.4-6.38,14,2.16-1,4.36-2,6.54-3l3.28-1.46c1.11-.45,2.23-.88,3.35-1.32Zm16.92-6.09c2.62-4.22,5.4-8.57,8.39-12.8,1.51-2.07,3.06-4.16,4.66-6.25s3.23-4.23,4.94-6.21c-1.31.21-2.6.49-3.88.79l-3.85.87c-2.56.6-5.13,1.1-7.62,1.84a203.3,203.3,0,0,0-16.34,26.68l3.35-1.3,3.42-1.15,6.83-2.27Zm17.19-4.28a205.46,205.46,0,0,1,20.16-23.9l-7.83,1c-1.3.14-2.59.37-3.88.59l-3.87.68c-1.74,2-3.45,4-5.09,6.11s-3.23,4.21-4.78,6.3l-2.28,3.14c-.76,1-1.49,2.09-2.21,3.18Q200,64.71,198,67.93L204.92,66ZM206.42,113l-5.53-3.28-2.84-1.66-2.83-1.59L183.57,100a1.49,1.49,0,0,1-.33-.27l-6.86,3.06-6.7,3.37c4.73,1.55,9.24,3,13.73,4.82,2.23.88,4.42,1.77,6.57,2.69s4.3,2,6.37,3l2.49-1c.83-.32,1.66-.66,2.51-.92Zm13.74-3.75c-1.85-1.33-3.76-2.69-5.7-4s-3.9-2.47-5.91-3.68c-4.06-2.5-8.21-4.67-12.55-6.84l-2.61.87c-.86.32-1.71.66-2.57,1l-5.13,2,11.82,6.69c3.9,2.3,7.68,4.48,11.36,6.75l.13.1C212.71,111.17,216.38,110,220.16,109.26Zm36.55,18.34a164.91,164.91,0,0,0-43.26-38.32,1.14,1.14,0,0,1-.37-1.53,199,199,0,0,1,42.21-48.68c-3.22.09-6.46.12-9.69.29l-9.69.72c-1,1-2,2-3,3.09l-3,3.14q-2.93,3.13-5.69,6.28t-5.33,6.52c-1.72,2.19-3.41,4.27-5,6.56a1,1,0,0,1-.36.51c-1.57,2.21-3.08,4.41-4.55,6.6-.73,1.1-1.46,2.16-2.15,3.3l-2,3.39c-1.34,2.25-2.63,4.5-3.87,6.72s-2.39,4.59-3.5,6.85c2.34,1.2,4.61,2.32,6.88,3.62s4.47,2.6,6.63,3.91l3.2,2c1.06.69,2.11,1.42,3.15,2.13q3.12,2.15,6.06,4.31l1.47,1.09,1.46,1.15,2.86,2.33c1.87,1.54,3.7,3.1,5.47,4.66s3.51,3.3,5.19,5l2.48,2.48,1.2,1.24,1.2,1.31,6-.45C252.68,127.67,254.7,127.66,256.71,127.6Zm1.93-.55a165.88,165.88,0,0,1,43.24-39,199.11,199.11,0,0,0-43.21-48.81A198.9,198.9,0,0,0,215.48,88,165.76,165.76,0,0,1,258.64,127.05Zm75.17-27c-7.88,4.45-15.56,8.62-22.86,13l5.08,1.69c1.69.57,3.32,1.28,5,1.91,2.08-1,4.24-2.08,6.38-3s4.33-1.81,6.57-2.69l3.38-1.31c1.13-.43,2.25-.8,3.39-1.19,2.28-.78,4.61-1.55,7-2.3L341,102.81l-6.86-3.06A1,1,0,0,1,333.81,100Zm-12.42-5.17c-4.35,2.18-8.49,4.33-12.55,6.83-2,1.22-4,2.44-5.92,3.68s-3.85,2.62-5.7,3.94c3.78.76,7.45,1.93,11.16,2.94l.13-.1c3.68-2.26,7.46-4.44,11.36-6.74l11.83-6.68-5.13-2-2.57-1ZM303.9,66.22a1,1,0,0,1-.36-.51c-1.59-2.28-3.27-4.4-5-6.6s-3.49-4.39-5.32-6.58-3.74-4.22-5.69-6.31-3.95-4.19-6-6.12l-9.69-.72c-3.23-.19-6.46-.21-9.69-.31a193.21,193.21,0,0,1,42.17,48.72,1.13,1.13,0,0,1-.37,1.52,171.39,171.39,0,0,0-43.3,38.29c2,.07,4,.07,6.05.17l6,.45c.79-.91,1.59-1.75,2.4-2.58l2.49-2.51c1.68-1.67,3.41-3.35,5.2-5s3.6-3.13,5.48-4.67,3.83-3.14,5.79-4.54,4-2.87,6.06-4.28c1-.71,2.09-1.44,3.15-2.11l3.2-2c2.15-1.31,4.36-2.6,6.63-3.89s4.53-2.41,6.88-3.6c-1.12-2.26-2.26-4.6-3.5-6.85s-2.52-4.47-3.86-6.72C310,74.93,307,70.67,303.9,66.22ZM319.42,68c-1.34-2.15-2.73-4.28-4.17-6.42L314.16,60,313,58.41l-2.29-3.11c-1.54-2.08-3.14-4.17-4.77-6.29s-3.33-4.12-5.06-6.24l-3.87-.67c-1.29-.22-2.58-.46-3.88-.61l-7.83-1a240.33,240.33,0,0,1,20.14,23.92l7,1.61Zm16.94,5.68c-2.27-4.61-4.85-8.91-7.56-13.38l-2.07-3.35-2.17-3.28c-1.49-2.21-3-4.43-4.51-6.68-2.5-.74-5.06-1.26-7.62-1.86l-3.85-.87c-1.29-.29-2.57-.58-3.88-.8L306,45l1.23,1.61,2.41,3.19c1.59,2.1,3.15,4.18,4.65,6.23,3,4.21,5.8,8.46,8.42,12.68l.1.2,6.83,2.28c1.14.39,2.28.75,3.41,1.16Zm2.4-20.94c-4.9-1.63-9.86-3.38-15-4.73,1.52,2.21,3,4.34,4.43,6.58s2.78,4.49,4.11,6.73c2.67,4.39,5,9,7.29,13.53a.32.32,0,0,1,0,.09c1.12.45,2.24.86,3.34,1.33l3.29,1.46c2.18,1,4.38,1.92,6.54,3-1.93-4.67-4.07-9.33-6.37-14.07C344,62,341.52,57.32,338.76,52.72Z"/><path class="cls-1" d="M378,117.46a6.92,6.92,0,0,1-1.53-1.81,6,6,0,0,1-.78-2.09,5.64,5.64,0,0,1,1.06-4.36,5.82,5.82,0,0,1,4-2.28,6,6,0,0,1,4.62,1.31,5.82,5.82,0,0,1,1.12,8.41A6.21,6.21,0,0,1,378,117.46Zm1.37-1.76c3.83,2.93,8.62-2.53,4.63-5.71a3.68,3.68,0,1,0-4.63,5.71Z"/><path class="cls-1" d="M365.49,101.93a5.54,5.54,0,0,0,.73-4.48,6.22,6.22,0,0,0-2.94-3.72l-.24-.12-1.13,1.92c.08,0,.16.07.24.12,4.42,2.59.37,8.6-3.85,6.25l-.1-.08-1.13,1.92.1.07a6.5,6.5,0,0,0,4.58.67A5.85,5.85,0,0,0,365.49,101.93Z"/><path class="cls-1" d="M364.71,166.15c-1.76-1.77-1.48-5,.83-7.41s5.68-2.74,7.66-.84,1.44,5.36-1,7.55S366.51,167.9,364.71,166.15Zm1.58-1.57c1.35,1.28,3.3.75,4.66-.5s2-3.2.66-4.61C368.76,156.71,363.7,162,366.29,164.58Z"/><path class="cls-1" d="M350.09,153.66a4.06,4.06,0,0,1-1.09-1.5,4.61,4.61,0,0,1-.43-1.84,7,7,0,0,1,5.05-6.64,5,5,0,0,1,2-.1,4.1,4.1,0,0,1,1.78.83c2.13,1.72,2.17,5.08,0,7.57S352.09,155.19,350.09,153.66Zm1.37-1.76c2.94,2.24,7.7-3.24,4.61-5.73-1.52-1.27-3.45-.38-4.56,1.07S350.06,150.68,351.46,151.9Z"/><path class="cls-1" d="M341.1,140.51a6.49,6.49,0,0,0,1.07-4.29,4.31,4.31,0,0,0-2.09-3.21l-.19-.1-1.13,1.93.19.08c3.43,2-.58,8.06-3.82,6.27l-.08-.06-1.13,1.92.08,0a4.43,4.43,0,0,0,3.71.17A6.82,6.82,0,0,0,341.1,140.51Z"/><path class="cls-1" d="M435.77,202c-1.48-.61-3-1.19-4.42-1.76s-3-1.08-4.5-1.59c-3-1-6-2-8.89-2.84a172.88,172.88,0,0,0-17.84-4,1.15,1.15,0,0,1-.63-.27s0,0,0,.06-.12,0-.11,0l0,0,0-.05h0l.08,0,0,0a1.26,1.26,0,0,1,.09-.61c.52-1.38,1-2.79,1.53-4.21s.91-2.8,1.34-4.24c.86-2.84,1.73-5.8,2.46-8.75s1.35-5.94,2-9l.44-2.31.37-2.29c.24-1.54.46-3.09.67-4.65a1.17,1.17,0,0,1,1.24-1c1.6.18,3.21.36,4.84.56l2.44.31,2.4.39q4.81.79,9.76,1.77c3.27.68,6.48,1.5,9.78,2.34,1.65.43,3.31.87,5,1.34s3.25,1,4.89,1.53a2,2,0,0,1,.66.5,2.2,2.2,0,0,1,.15.9,196.81,196.81,0,0,1-5.17,19.33c-1.06,3.14-2.18,6.22-3.32,9.23-.59,1.5-1.13,3-1.78,4.46s-1.29,2.95-1.94,4.4A1.17,1.17,0,0,1,435.77,202Zm-.8-4.09q1.56-3.79,3-7.75l1.47-4c.47-1.34.88-2.67,1.31-4q1.27-4,2.46-8.27c.77-2.8,1.4-5.59,2.05-8.46-5.61-1.83-11.4-3.24-17-4.49-2.76-.65-5.67-1.12-8.46-1.61s-5.55-.92-8.35-1.25c-.4,2.71-1,5.45-1.48,8.1s-1.07,5.22-1.8,7.85c-1.38,5.22-2.82,10.18-4.66,15.11,2.58.48,5.25,1,7.84,1.59s5.18,1.28,7.81,2c1.32.36,2.66.73,4,1.13l3.89,1.26C429.68,196,432.31,196.9,435,197.89Z"/><path class="cls-1" d="M465.74,245.15a6.19,6.19,0,0,1-1.13,4.58,5.73,5.73,0,0,1-4,2.24,6,6,0,0,1-4.38-1.28,6.23,6.23,0,0,1-2.32-3.93,6.12,6.12,0,0,1,5-6.8,5.69,5.69,0,0,1,4.47,1.09A6.3,6.3,0,0,1,465.74,245.15Zm-2.24.28c-.73-5-7.94-3.68-7.36,1C456.91,251.19,464.22,250.43,463.5,245.43Z"/><path class="cls-1" d="M461.28,265.19a5.91,5.91,0,0,0-5.75,6v0h2.26a.38.38,0,0,1,0-.08c-.1-4.76,7.22-5.14,7.43-.1a1,1,0,0,1,0,.18h2.27v-.18A6,6,0,0,0,461.28,265.19Z"/><path class="cls-1" d="M415.91,230.57c.75,2.62-1.4,5.34-4.59,6.08s-6.2-.64-6.93-3,1.2-5,4.39-6S415.11,228,415.91,230.57Zm-2.17.57c-1.18-3.75-8.17-1.56-7.17,2,.56,1.75,2.54,2.21,4.35,1.76S414.3,233,413.74,231.14Z"/><path class="cls-1" d="M419.86,250.7c.39,2.69-1.95,5.1-5.28,5.44s-6.12-1.41-6.55-3.85a4.2,4.2,0,0,1,1.28-3.42,7,7,0,0,1,3.92-2,6.69,6.69,0,0,1,4.42.69A4.42,4.42,0,0,1,419.86,250.7Zm-2.24.28c-.57-3.89-7.79-2.59-7.36,1C410.9,255.62,418.21,254.87,417.62,251Z"/><path class="cls-1" d="M415.08,266.56c-3.34.15-5.83,2.19-5.77,4.68,0,0,0,0,0,0h2.26a.13.13,0,0,1,0-.06c-.08-3.67,7.24-4,7.43-.08a.38.38,0,0,1,0,.14h2.26a1.13,1.13,0,0,0,0-.14C421.12,268.41,418.39,266.41,415.08,266.56Z"/><path class="cls-1" d="M433.71,172a2,2,0,0,1,.12.83c-.58,2.19-1.15,4.34-1.78,6.47s-1.37,4.27-2.09,6.36a1.16,1.16,0,0,1-1.42.7c-2.14-.64-4.26-1.26-6.36-1.83s-4.3-1.06-6.42-1.54a1.12,1.12,0,0,1-.66-.33s0,.06,0,.08H415l0,0,0-.05h0l.08,0,0,0a1.37,1.37,0,0,1,.07-.65l1-3.11c.32-1.05.61-2.09.87-3.13.55-2.08,1.07-4.2,1.57-6.34a1.16,1.16,0,0,1,1.32-.88c4.38.88,8.86,1.82,13.22,3.07A1.83,1.83,0,0,1,433.71,172Zm-2.37,1.38q-2.74-.74-5.41-1.38c-1.82-.42-3.66-.79-5.48-1.16-.42,1.77-.85,3.49-1.33,5.22l-1.56,5.17c3.52.81,7.15,1.67,10.63,2.74C429.41,180.42,430.37,177,431.34,173.33Z"/><path class="cls-1" d="M495,268.45q-.09-3.74-.2-7.59c0-1.28-.12-2.58-.22-3.88l-.3-3.94c-4.61,6.53-9.79,12-14.84,18.23h-3.19c3.06-3.54,6.11-6.94,9.14-10.58s5.75-7.42,8.59-11.41c0-.62-.09-1.25-.16-1.88s-.16-1.26-.23-1.9c-.17-1.26-.33-2.53-.49-3.81l-.51-3.86c-.08-.64-.17-1.29-.26-1.94s-.23-1.29-.34-1.94c-1.31,2.28-2.8,4.53-4.24,6.73s-2.91,4.36-4.38,6.48l-1.11,1.57-1.17,1.57-2.35,3.08q-2.36,3.06-4.73,6s-.07,0-.11.05c.2,4,.23,8.32.34,11.86H472c-.06-2.66-.11-5.06-.17-7.6-.05-1.26,0-2.54-.13-3.81s-.19-2.54-.29-3.82l-.29-3.82c-.1-1.28-.18-2.56-.37-3.83-.32-2.55-.65-5.1-1-7.65-.15-1.28-.39-2.55-.62-3.82l-.68-3.8-.69-3.81c-.27-1.26-.58-2.52-.86-3.78-.61-2.51-1.14-5-1.81-7.52L463,210.58a185.79,185.79,0,0,1-15.2,25.6A188.37,188.37,0,0,1,451,271.27h-2.25c0-.89-.06-2.55-.09-3.86-.11-.05-.21,0-.31-.12q-2.67-2.44-5.31-4.77c-1.78-1.55-3.67-3.06-5.48-4.52s-3.65-2.9-5.47-4.28-3.79-2.7-5.68-4l.35,2.73c.11.91.26,1.81.3,2.73.14,1.82.27,3.64.41,5.47,0,0,.07,0,.11,0,2.19,1.63,4.21,3.45,6.26,5.27s4.11,3.52,6.17,5.29h-3.14c-3.08-2.66-6.16-5.43-9.23-7.94l.06,2.82c0,1.73.12,3.35.19,5.12h-2.31c0-1.77-.08-3.09-.12-4.68,0-.8,0-1.6-.05-2.41s0-1.6-.11-2.39c-.18-2.36-.35-4.7-.53-7s-.58-4.65-.88-7c0,0,0-.05,0-.08A170.85,170.85,0,0,0,418,221.92q-3.19-1.29-6.34-2.45c-2.12-.77-4.12-1.53-6.29-2.18s-4.25-1.28-6.35-1.87l-3.12-.84c-1-.27-2.13-.51-3.19-.74a144.41,144.41,0,0,1,8,23.36l.7,3c.23,1,.52,2,.66,3l1.12,6.08.78,6.14c.17,1,.21,2.05.29,3.08l.24,3.09c.06.81.15,1.61.19,2.4s0,1.6,0,2.4c.05,1.6.09,3.09.14,4.86h-2.7a146.54,146.54,0,0,0-4.44-34.91A139.3,139.3,0,0,0,383,200.78c-1.56-2.86-3.48-5.51-5.22-8.29l-2.88-4c-.49-.66-.93-1.35-1.45-2l-1.54-1.91-1.53-1.92c-.5-.64-1-1.28-1.56-1.88l-3.22-3.65c-.52-.62-1.09-1.2-1.66-1.77l-1.68-1.73c-1.12-1.15-2.2-2.33-3.4-3.38l-3.45-3.25c-1.18-1-2.39-2-3.56-3l-1.75-1.51c-.6-.48-1.22-.93-1.82-1.4l-3.57-2.77a149.3,149.3,0,0,0-14.33-9.25l1.36-2.3c2.92,1.54,5.63,3.43,8.44,5.13A148.84,148.84,0,0,1,376.4,186c.34-1,.64-2.05.91-3.06l.83-3.1c.53-2.08,1.05-4.2,1.53-6.36.86-4.21,1.63-8.6,2.22-13.06a167.33,167.33,0,0,0-19.77-17.94l-.06,0-2.84-2.19c-.93-.75-2-1.38-2.92-2.07l-2.95-2-1.47-1-1.52-.94-4.09-2.57-1-.65-1.05-.59-2.11-1.18,1.16-2c1.51.9,3.06,1.73,4.51,2.69l2.38,1.5q-.48-2.94-1.06-5.94c-.39-2-.86-3.9-1.33-5.88l1.57-2.67c1.37,5.23,2.35,10.66,3.16,15.83a.53.53,0,0,1,0,.13c1.57,1,3,2.1,4.59,3.14s3.06,2.09,4.51,3.26c-.09-1.13-.17-2.28-.28-3.41l-.41-3.36c-.28-2.26-.61-4.54-1-6.86-.17-1.17-.37-2.31-.59-3.43l-.68-3.43q-.69-3.45-1.47-7a1.12,1.12,0,0,1,0-.36l-3.48-2,1.13-1.92A193.12,193.12,0,0,1,384.15,128q3.66-.3,7.41-.51c2.45-.08,4.93-.12,7.44-.14s5.1,0,7.61.09,5.08.25,7.66.43a206,206,0,0,0-23.07-20.8l-3.08-2.37c-1-.79-2.06-1.58-3.13-2.31l-6.4-4.45c-2.16-1.44-4.38-2.79-6.58-4.18-1.11-.68-2.19-1.4-3.32-2l-3.4-1.92,1.13-1.91,2.64,1.49,1.32.74,1.29.8,5.14,3.23.14,0,3.84-.59,3.82-.45c2.57-.29,5.18-.55,7.81-.78s5.25-.35,7.92-.47,5.35-.18,8.07-.23c-4.21-3.25-8.28-6.51-12.52-9.36q-3.67.27-7.26.61c-2.41.25-4.83.58-7.21.91s-4.72.69-7,1.06-4.67.89-7,1.36L369,83.44c1.93-.39,3.87-.76,5.84-1.12s3.89-.61,5.87-.89,4-.54,6-.79l3-.35,3-.26c-2.17-1.57-4.46-2.92-6.66-4.34l-3.29-2.06-1.63-1-1.66-.94-3.95.66,2.63-4.47c4.75,2.57,9.24,5.55,13.79,8.4a238.05,238.05,0,0,1,73.68,77.52c1.12,1.93,2.27,3.86,3.36,5.81l3.12,5.95c2.14,3.94,3.92,8.05,5.81,12.12,1,2,1.77,4.12,2.61,6.2l2.5,6.25c.77,2.1,1.49,4.23,2.22,6.35l1.09,3.19c.37,1.06.73,2.12,1,3.2a234.06,234.06,0,0,1,9.76,52.74c.09,1.32.21,2.62.28,3.92s.07,2.59.11,3.88q.09,3.89.19,7.88h-5.27C493.31,270.38,494.15,269.47,495,268.45ZM463.16,155.21h0Zm-71.72-50.88c2.55-.18,5.14-.34,7.76-.46s5.17-.1,7.8-.1,5.34,0,8,.14,5.31.28,8,.47c-1.92-1.8-3.82-3.61-5.75-5.35l-5.9-5-4,0-4.05.11c-2.69.09-5.34.2-8,.35s-5.27.41-7.86.67-5.17.57-7.69.9c3.9,2.74,7.89,5.37,11.61,8.35Zm13.78,11.35c2.53,0,5.1.12,7.69.22,1.29,0,2.6.11,3.91.19l3.87.31c5.18.46,10.53,1,15.77,1.9l-2.6-2.94c-.88-1-1.8-1.88-2.7-2.82L425.75,107c-5.46-.42-10.75-.76-16-.85q-4,0-7.89,0c-2.59,0-5.14.1-7.75.29,1.92,1.43,3.7,3,5.53,4.55l2.72,2.31,1.36,1.17L405,115.7Zm12.4,12.42c5.1.46,10.21,1.15,15.48,2,5.11.91,10.41,1.93,15.66,3.19-1.54-2.1-3.22-4.09-4.82-6.13l-2.44-3c-.8-1-1.69-2-2.53-2.93-5.36-.9-10.56-1.7-15.87-2.15-2.63-.25-5.24-.47-7.81-.65s-5.21-.23-7.77-.3C411.05,121.23,414.31,124.7,417.62,128.1ZM372,147.75c.07-4.15.14-8.47.15-12.81s-.08-8.68-.06-13.18a1.11,1.11,0,0,1,.08-.41L366,117.07c-1-.73-2.09-1.37-3.14-2l-3.18-2c.52,2.37,1,4.72,1.46,7s.8,4.72,1.15,7,.66,4.62.91,6.92.41,4.65.55,6.93l2.12,1.62c.71.53,1.36,1.14,2,1.7Zm10.19,9.83c.23-2.23.44-4.51.61-6.81.09-1.16.15-2.3.18-3.44l.1-3.45c.06-2.31.07-4.66.06-7s-.17-4.68-.31-7.06L380.76,128c-.69-.6-1.4-1.18-2.13-1.72L374.28,123c0,9.07.07,17.89-.27,26.46a.77.77,0,0,1,0,.15l4.2,3.92Zm2.18,40.25c.94-2.12,1.69-4.2,2.5-6.37s1.55-4.36,2.28-6.6,1.31-4.45,1.92-6.74,1.24-4.65,1.7-7,.94-4.7,1.37-7.1c.21-1.2.44-2.44.6-3.63l.47-3.63c.3-2.43.56-4.91.79-7.42s.31-5,.42-7.51a1.15,1.15,0,0,1,1.15-1.08c2.57,0,5.2.09,7.81.23s5.19.36,7.84.61c5.35.43,10.54,1.26,16,2.15,2.74.44,5.35,1,8.05,1.61s5.41,1.23,8.15,1.92,5.37,1.5,8.09,2.32l4.1,1.27,2.06.66,2,.71c-.79-1.4-1.68-2.73-2.55-4.07l-2.62-4c-1.71-2.71-3.63-5.29-5.5-7.88a214.48,214.48,0,0,0-33.53-5.91,1.11,1.11,0,0,1-.62-.06c-2.73-.23-5.45-.39-8.12-.53l-4-.17-2-.06h-2q-4,0-7.89.1c-1.31,0-2.58.07-3.88.15l-3.89.27.19,3.83c0,1.28,0,2.59,0,3.86,0,2.56,0,5.09-.1,7.57,0,1.23-.09,2.5-.18,3.76l-.28,3.73c-.22,2.48-.42,4.88-.75,7.31a152.4,152.4,0,0,1-6.23,27.79c1.16,1.61,2.36,3.19,3.4,4.88l1.62,2.49C383.35,196.14,383.9,197,384.38,197.83Zm1.38,1.4c2.3.27,4.66.57,7,1s4.61.83,7,1.32c4.76.94,9.3,2.21,14.07,3.61,2.41.69,4.68,1.49,7,2.32s4.69,1.72,7.07,2.65,4.61,2,6.95,3l3.51,1.63c1.18.55,2.35,1.12,3.47,1.71.66-1.13,1.26-2.25,1.85-3.39l1.76-3.45c1.16-2.32,2.33-4.7,3.43-7.11s2.07-4.83,3.08-7.32,2-5,2.86-7.56c1.72-5.09,3.48-10.42,4.79-15.77.69-2.69,1.36-5.43,2-8.21s1.09-5.53,1.59-8.36A201.3,201.3,0,0,0,398.58,143,158.75,158.75,0,0,1,385.76,199.23Zm61.37,50.39-5.82-3.36c-1.91-1.11-3.76-2.22-5.72-3.3l-5.71-3.21c-1.9-1.05-3.68-2.1-5.63-3.09.22.85.37,1.72.52,2.58l.46,2.6.47,2.59c.17.86.32,1.73.41,2.6a187.57,187.57,0,0,1,22.52,17.5c-.05-1.23,0-2.47-.13-3.7l-.28-3.69c-.2-2.46-.31-4.93-.68-7.37A1.36,1.36,0,0,1,447.13,249.62Zm-1.62-13.16a173.72,173.72,0,0,0-24.78-13.38l1.57,5.47c.28.9.49,1.83.7,2.75l.64,2.77.15.06c1.92,1,3.91,2,5.83,3.07l5.78,3.24,5.92,3.32,5.89,3.41c-.26-1.79-.41-3.59-.74-5.37ZM462,207.28a1,1,0,0,1,.26-.55c2.23-4.92,4.58-10.1,6.44-15.34q1.47-3.94,2.81-8c.85-2.69,1.59-5.4,2.31-8.16l-2-4.35c-.71-1.44-1.47-2.85-2.2-4.27-1.5-2.83-2.9-5.71-4.56-8.45a186,186,0,0,1-21.89,60.29,1.17,1.17,0,0,1-1.53.43c-4.45-2.4-9.22-4.49-13.8-6.43-2.26-1-4.64-1.85-7-2.68s-4.66-1.63-7-2.37-4.7-1.38-7-2-4.57-1.22-6.9-1.71-4.64-1-6.9-1.38l-3.37-.6c-1.13-.18-2.29-.34-3.42-.49,1.06,1.67,1.89,3.47,2.82,5.21l1.38,2.63,1.23,2.69a161,161,0,0,1,54.63,22.69c1.51-2.1,2.82-4.2,4.23-6.38s2.75-4.4,4.09-6.67,2.52-4.55,3.75-6.9S461,209.69,462,207.28Zm6.19,14.1a236.53,236.53,0,0,0,13-28.34c-.4-1.23-.87-2.43-1.36-3.62s-.95-2.4-1.43-3.6c-1-2.4-1.89-4.83-3-7.18-.77,2.56-1.64,5.12-2.51,7.62s-1.73,5-2.61,7.36l-.66,1.8-.72,1.81-1.46,3.56c-1,2.35-2,4.67-3,6.94.7,2.26,1.32,4.54,2,6.8l1,3.41C467.71,219.08,468,220.23,468.23,221.38Zm3.48,17.25c2.74-4.2,5.46-8.58,8-13.11q1.84-3.39,3.7-6.91c1.22-2.35,2.52-4.76,3.66-7.18L484.93,204l-.55-1.86-.62-1.84c-.42-1.23-.85-2.46-1.27-3.7q-1.56,3.7-3.08,7.33c-1.1,2.41-2.18,4.78-3.27,7.1s-2.15,4.59-3.34,6.84-2.42,4.47-3.67,6.65a1.4,1.4,0,0,1-.12.18l.8,3.46c.25,1.15.43,2.32.65,3.48Zm19.59-8.4-.69-3.76-.36-1.9-.43-1.88q-.88-3.78-1.78-7.6A204.69,204.69,0,0,1,472.24,242l-.07.08.9,7c.23,2.34.38,4.69.57,7q2.37-3,4.73-6.09c1.57-2.07,3-4.18,4.48-6.33s2.93-4.36,4.38-6.61S490,232.55,491.3,230.23Z"/></svg>