<svg id="Layer_1" data-name="Layer 1" xmlns="http://www.w3.org/2000/svg" viewBox="0 0 1197.29 1080"><defs><style>.cls-1{fill:none;stroke:#000;stroke-miterlimit:10;stroke-width:4px;}</style></defs><path class="cls-1" d="M188.57,540c.4-227.85,184.78-410.27,410.28-410,228.38.23,410.11,185.46,409.87,410.2-.23,228-185,410.11-410.15,409.92C371.07,949.88,188.76,765.66,188.57,540ZM271,632c-1.63.57-3.24-2.37-5.21-1.63-7.43,2.81-12.91,7.48-14.92,15.53-1.58,6.38-1.08,12.79.33,19,2.89,12.77,6.39,25.4,9.29,38.17,2.37,10.43,3.7,21,.83,31.18,4.61,2.23,9.3,4.09,13.55,6.65,10.19,6.12,18.13,14.92,26.67,23q10.65,10.13,22,19.54a25.12,25.12,0,0,0,15,5.84c8.38.35,14.19-4.61,19.22-9.41-3.56.12-7.66.86-11.56.28C338.08,779,331.8,774,326,768.65c-9.09-8.4-17.8-17.2-26.84-25.66-6.38-6-13.37-11.11-21.88-13.76-1.42-.44-2.86-.81-3.81-1.08.53-4.72,1.35-9.09,1.45-13.49.23-10.07-2.54-19.69-4.86-29.39-2.58-10.83-5-21.71-7.08-32.64a24,24,0,0,1,2.32-15.94C267,633.64,269,634.61,271,632Zm87.26-331,.21-.38c-1.72-1.46-3.39-3-5.18-4.37-5.74-4.41-12-6.66-19.34-4.74a32,32,0,0,0-13.06,6.77c-7.64,6.68-15,13.64-22.39,20.65-7.53,7.2-14.72,14.81-23.76,20.16-4.27,2.53-8.92,4.41-13.44,6.6,1.46,5.23,2.39,10.84,1.48,16.45-1.52,9.22-3.19,18.45-5.36,27.53-2.72,11.33-6.43,22.46-7.33,34.15-.58,7.41.57,14.55,6.11,20.17,4.26,4.31,9.93,5.83,14.84,7.42-1.78-2.45-4.16-5-5.75-8.06-3.57-6.78-3.09-14.18-1.61-21.28,2.47-11.82,5.68-23.47,8.47-35.22,2.74-11.51,4.71-23.07,1.09-34.21,5.14-2.45,10.57-4.16,14.94-7.33,7.13-5.18,13.67-11.19,20.25-17.08,7.86-7.05,15.24-14.67,23.32-21.44,6.39-5.35,13.85-8.76,22.66-6.86C355.66,300.22,356.93,300.65,358.21,301ZM988.43,540a53,53,0,0,1-11.06-16.43c-5.7-12.81-8.36-26.56-12.31-39.91-2.29-7.74-4.64-15.48-9.23-22.26a22.52,22.52,0,0,0-10.59-8.88c-5.42-2.11-11.82-1.36-18.09.34,2.64,1.28,6.23,2.48,9.22,4.55,6.54,4.55,9.74,11.59,12.06,18.84,3.74,11.74,6.85,23.67,10.41,35.47,2.68,8.92,6,17.57,12.38,24.65a33.69,33.69,0,0,0,3.76,3.18c-2.25,2.54-4.15,4.4-5.72,6.5-5.81,7.76-8.81,16.8-11.52,26-3.41,11.49-6.55,23.06-10.35,34.42-2.49,7.45-6.57,14.14-13.93,17.94-2.42,1.25-5.2,1.83-7.69,2.67,1.72.34,3.55.72,5.39,1,8.34,1.43,16.2.57,22-6.28a35.5,35.5,0,0,0,6.72-11C964,598.65,967.5,586.3,971.22,574S978.88,549.61,988.43,540ZM359.91,300.21c-1.72-4.67-2.32-8.71-1.47-12.93,1.31-6.58,4.73-12.12,9.08-16.93,7.61-8.42,15.67-16.44,23.48-24.69,5.81-6.13,11.61-12.31,15.43-19.95,1.8-3.6,3.08-7.48,4.46-10.89,4.2.49,8.49,1.31,12.8,1.42,10.25.28,20-2.54,29.91-4.9q16.11-3.87,32.39-7a24.53,24.53,0,0,1,16.19,2.38c3,1.6,5.57,4.08,8.26,6.11-1-2.66-2-5.57-3.22-8.34-2.91-6.43-7.69-10.75-14.7-12.34a41.67,41.67,0,0,0-18.79.41c-12.69,2.91-25.25,6.33-37.94,9.2-10.51,2.38-21.13,3.83-31.39.85-2.25,4.65-4.1,9.33-6.66,13.6-6.12,10.19-14.93,18.13-23,26.67-6.75,7.1-13.3,14.42-19.54,22a25,25,0,0,0-5.8,15C349.05,288.27,354.05,294,359.91,300.21Zm-.19,480.18-.47-.27c-2,2.6-4.19,5.09-6,7.82-3.37,5-4.66,10.48-3.13,16.54a32,32,0,0,0,6.82,13.31c6.73,7.71,13.74,15.18,20.83,22.57,10.64,11.07,21.79,21.75,25.89,36.43,6-.34,11.64-1.48,17.09-.79a271,271,0,0,1,28,5.4c11.17,2.63,22.1,6.34,33.64,7.16,7.44.53,14.56-.47,20.21-6,4.38-4.24,5.91-10,7.55-15-2.45,1.81-5,4.21-8,5.8-6.76,3.58-14.15,3.13-21.27,1.69-10.32-2.07-20.51-4.86-30.74-7.39-8.11-2-16.23-4.13-24.64-4-5,.09-9.91.87-14.69,1.33-1.42-3.44-2.72-7.32-4.59-10.91-4.81-9.26-12.25-16.46-19.34-23.93-7.27-7.65-14.71-15.19-21.47-23.29-5.34-6.39-8.7-13.88-6.79-22.68C358.93,782.94,359.36,781.67,359.72,780.39ZM222.65,540.14c1.95-2.21,3.84-4.07,5.42-6.18,5.87-7.83,8.9-17,11.6-26.2,3.07-10.52,5.94-21.11,9.26-31.55,2.29-7.2,5.54-14.12,12-18.59,3.2-2.23,7.11-3.43,10.05-4.8a25.75,25.75,0,0,0-4.91-.9c-4.14-.08-8.41-.44-12.4.39-6.83,1.43-10.91,6.6-14.13,12.42-4.49,8.12-6.65,17.08-9.23,25.9-2.76,9.46-5.3,19-8.48,28.32a52.55,52.55,0,0,1-12.43,20.6c3,4.4,6.13,8.34,8.51,12.71,6.28,11.54,9,24.35,12.42,36.88,2.46,8.93,4.76,17.93,9.23,26.15,3.18,5.85,7.33,10.67,14,12.67,5.92,1.77,11.66.28,16.76-.78-2.85-1.37-6.35-2.56-9.29-4.58-5.71-3.91-9-9.86-11-16.23-3.72-11.47-6.87-23.12-10.36-34.66S232.32,548.6,222.65,540.14ZM935.5,735c-.33-5.94-1.46-11.69-.78-17.22,1.15-9.35,3.33-18.57,5.32-27.8,2.14-10,4.69-19.85,6.81-29.83a32,32,0,0,0-.69-15.71c-2.65-9.06-9.74-13.39-19.59-15.64,1.61,2.19,3.95,4.71,5.5,7.65,3.52,6.68,3.13,14,1.73,21-2.08,10.42-4.91,20.69-7.44,31-2,8-4.07,15.9-4,24.14.06,5.13.84,10.26,1.32,15.61a37.74,37.74,0,0,0-16.31,7.52c-7,5.78-13.71,12-20.5,18-7.81,7-15.3,14.37-23.46,20.92-5.82,4.67-12.82,7.07-20.59,5.31-1.26-.28-2.48-.7-3.72-1.06a42.48,42.48,0,0,0,7.62,6.53,20,20,0,0,0,16.32,3,35.08,35.08,0,0,0,15.16-8.15c8.2-7.34,16.09-15,24-22.66C912.27,748.16,922.31,738.64,935.5,735ZM837.7,300.21c1.75-2.09,3.6-4.1,5.22-6.28,4.36-5.85,6.49-12.4,4-19.46a40.77,40.77,0,0,0-6.59-12.28c-6.44-7.72-13.46-15-20.41-22.24-7.26-7.59-14.93-14.84-20.33-23.95-2.54-4.27-4.4-8.93-6.58-13.43-5.3,1.5-11,2.44-16.69,1.49-9.3-1.54-18.58-3.33-27.77-5.49-11.17-2.63-22.11-6.35-33.66-7.15-7-.48-13.65.38-19.24,5.16-5.07,4.32-6.6,10.46-8.45,15.8,2.48-1.82,5-4.23,8.07-5.82,6.77-3.57,14.17-3.12,21.28-1.64,11.81,2.46,23.47,5.67,35.22,8.46,11.51,2.75,23.08,4.72,34.85.91.82,2.52,1.45,5,2.41,7.34,3.85,9.42,10.59,16.78,17.45,24,7.85,8.3,16.15,16.22,23.57,24.89C837.22,278.94,842.23,288.4,837.7,300.21Zm88.49,151.35c1.48-.52,3.56-1.19,5.6-2,9.21-3.5,14.6-9.86,15.42-20,.67-8.24-1.16-16.12-3-24-2.6-11.17-5.81-22.21-8.2-33.43-1.89-8.87-2.49-17.91.23-26.82-16-6.79-20.08-9.49-32.06-21.17-5.45-5.31-10.61-10.92-16.29-16-5.51-4.91-11.12-9.93-17.39-13.73-12.09-7.33-21.84-4-31.11,6.14a58.79,58.79,0,0,1,6.79-1.25c7.63-.52,13.95,2.94,19.6,7.47s10.66,9.33,15.82,14.17c5.79,5.43,11.28,11.19,17.16,16.52,7.37,6.69,15.43,12.36,25.21,14.24-.55,4.15-1.36,8.08-1.54,12-.49,10.71,2.33,20.93,4.94,31.18,2.77,10.87,6.22,21.59,7.09,32.88.4,5.19.17,10.32-2.27,15C930.51,446.06,928.07,448.88,926.19,451.56ZM511.82,866.1c-.52,2.59-.95,4.42-1.23,6.26-.63,4.23-1,8.46.24,12.68,1.95,6.72,6.72,10.94,12.57,14.1,10.59,5.71,22.32,8.1,33.76,11.32,14.83,4.18,29.89,7.88,41,18.69,5.18-3.3,9.89-6.84,15.06-9.47,12.07-6.13,25.37-8.65,38.27-12.32,8.26-2.34,16.54-4.64,24-9.06,8.94-5.3,13.42-12.83,11.63-23.46-.42-2.5-.87-5-1.3-7.43a57.13,57.13,0,0,1-2.6,7.35c-3.3,6.53-9,10.58-15.63,12.89-10.81,3.78-21.84,7-32.83,10.21-13.1,3.84-26.27,7.42-36,18.14-2-1.78-3.79-3.61-5.8-5.14-7.86-6-17.07-9.05-26.39-11.82-11.48-3.41-23.11-6.4-34.39-10.37C521.84,885,513.33,879,511.82,866.1Zm275-.92c-4.71-.52-9.09-1.33-13.48-1.43-10.07-.24-19.69,2.54-29.39,4.85-10.83,2.57-21.7,5-32.63,7.08a24.45,24.45,0,0,1-16.18-2.39c-3-1.58-5.49-4-8.13-6,.64,1.82,1.3,3.91,2.08,5.94,3.51,9.08,9.8,14.44,19.79,15.29,8.33.71,16.29-1.15,24.24-3,11.18-2.61,22.22-5.8,33.43-8.19,8.87-1.89,17.9-2.46,26.39.12,2.23-4.6,4.09-9.28,6.64-13.54,6.11-10.19,14.9-18.14,23-26.68,6.8-7.17,13.39-14.55,19.68-22.15A24.69,24.69,0,0,0,848,800c.27-8.3-4.68-14-10.07-19.7a65.56,65.56,0,0,1,1.3,7.16c.55,7.73-2.86,14.21-7.59,19.79-6.45,7.61-13.44,14.77-20.33,22C801.09,840,790.12,850.17,786.82,865.18ZM598.59,164c2.16,1.93,4,3.76,6,5.3,7.82,5.9,16.93,8.94,26.18,11.65,10.61,3.11,21.35,5.8,31.81,9.35,11.22,3.82,21.16,9.46,23,23.52.48-2.52.8-4.42,1.21-6.3,2.28-10.58-.95-18.93-9.95-24.79a40.77,40.77,0,0,0-9.72-5c-12.47-4-25.07-7.54-37.61-11.29-8.85-2.65-17.49-5.77-25-11.31-2-1.49-4-3.17-5.3-4.26-5.18,3.29-9.83,6.78-14.94,9.38-12.07,6.15-25.38,8.68-38.29,12.35-8.26,2.34-16.54,4.64-24,9.06-6.39,3.78-11.32,8.86-11.81,16.57-.31,4.77.67,9.62,1.07,14.43,1.23-2.54,1.8-5.12,2.95-7.42,3.29-6.55,9-10.59,15.63-12.9,10.89-3.82,22-7,33.09-10.29C575.89,178.25,589,174.65,598.59,164ZM255.81,446.26c-5.08-4.9-7.09-10.43-7.57-16.69-.63-8.13,1.16-15.95,3-23.75,2.78-11.66,6.1-23.2,8.47-34.94,1.16-5.76.93-11.85.89-17.78,0-3.08-1-6.17-1.53-9.37a8.67,8.67,0,0,1,1.14-.44,44,44,0,0,0,19.61-10.06c8-7,15.48-14.44,23.3-21.57,6-5.52,12-11.19,18.46-16.16,6.73-5.17,14.4-8.1,23.2-5.86.15,0,.36-.15.71-.3-.78-.68-1.4-1.25-2-1.79-8.76-7.48-18-8.21-28.07-2.46-7,4-12.89,9.51-18.66,15.07-5.54,5.34-10.91,10.86-16.46,16.19-9.38,9-19.18,17.45-31.87,21.17.46,3.84,1.14,7.46,1.29,11.09.39,9.21-1.56,18.14-3.66,27-3.08,13.07-6.44,26.08-9.19,39.22a31.48,31.48,0,0,0,1.06,17.44C240.87,440.33,247.4,443.91,255.81,446.26ZM938.18,736.32a8.93,8.93,0,0,1-1.11.4A39.24,39.24,0,0,0,920,745c-7.76,6.53-15.1,13.55-22.64,20.35-7.15,6.44-14,13.21-21.57,19.17-6.64,5.26-14.38,8.12-23.17,5.88-.17-.05-.39.13-1,.34,2.14,1.61,4,3.13,5.92,4.43,6.21,4.13,12.84,4.63,19.73,2a47,47,0,0,0,15.16-9.78c7.54-7.06,14.9-14.3,22.34-21.47s14.92-14.28,24.14-19.16c3.27-1.72,6.76-3,10.27-4.59-2.84-10.76-1.57-21.47.92-32.08,3-12.92,6.53-25.72,9.47-38.65,1.67-7.33,2.33-14.81.36-22.29s-10.2-14.33-17.18-14.81c1.5,2.66,3.51,5.46,4.74,8.57,2.77,7,2.17,14.32.67,21.43-2.16,10.22-4.88,20.32-7.42,30.46-2.39,9.51-4.78,19-4.4,28.94C936.51,727.78,937.51,731.88,938.18,736.32ZM848.51,287.85c1.56-1.83,2.75-3.16,3.85-4.56,3.78-4.84,5.72-10.28,4.89-16.45a26.19,26.19,0,0,0-5.81-13.43q-9.6-11.46-19.89-22.33c-8.4-8.84-17.48-17.1-23.94-27.57-2.7-4.36-4.67-9.16-7-13.71-3.5.41-7.2,1.09-10.92,1.22-10.51.38-20.62-2.18-30.72-4.64-10.82-2.63-21.61-5.42-32.48-7.81a39.67,39.67,0,0,0-18.51.14c-7.61,1.94-14.53,10-15.17,18,4.47-4.69,10-6.68,16.27-7.16,8.13-.62,15.94,1.17,23.73,3,11.66,2.78,23.2,6.1,34.94,8.47,5.75,1.16,11.83.92,17.76.89,3.09,0,6.17-1,9.31-1.52.8,2.41,1.47,4.87,2.42,7.22,4,9.95,11.11,17.7,18.35,25.32,7.93,8.35,16.24,16.36,23.8,25C846.65,266.23,852.12,275.46,848.51,287.85Zm94.14,342.37c6.54,1.63,12.37,2.11,18-.56,7-3.31,11.19-9.34,13.57-16.27,4.16-12.11,7.63-24.47,11.31-36.75,2.94-9.79,5.83-19.6,11.43-28.29,1.91-3,4.22-5.68,6.41-8.59a45.2,45.2,0,0,1-11.58-18.17c-4.42-13.38-8.3-26.93-12.4-40.42-2.49-8.23-5-16.43-10.09-23.56-5.92-8.31-14.93-11.29-25.21-8,2.71,1.67,5.78,3.15,8.34,5.24a29.9,29.9,0,0,1,9.36,14.09c4,12.27,7.6,24.69,11.3,37.06,2.58,8.66,5.23,17.3,10.32,24.87,2.2,3.28,4.91,6.21,7.32,9.21-2.07,2.47-4.39,4.88-6.29,7.57-5.66,8.05-8.63,17.29-11.35,26.61-3.09,10.61-5.79,21.35-9.29,31.82S955.27,626.43,942.65,630.22ZM348.18,793c-5.21,5.6-8.86,11.49-8.13,19.29a25.87,25.87,0,0,0,5.81,14.21c6.35,7.68,13,15.13,19.89,22.36,12,12.58,25.17,24.18,30.57,41.72,8.95-2.52,17.92-2.17,26.72-.29,11.72,2.49,23.29,5.7,34.95,8.52,8.45,2.05,16.91,3.9,25.73,3.48a21.9,21.9,0,0,0,20.86-18.87c-6.28,5.2-9.24,6.52-16.78,7.05-9.7.68-18.91-2.07-28.19-4.25-11.41-2.67-22.79-5.53-34.29-7.79-4.43-.87-9.15-.54-13.72-.34a65.61,65.61,0,0,0-8.67,1.43c-2.09-4.68-3.74-9.27-6.08-13.46-4.74-8.51-11.61-15.35-18.33-22.29-7-7.23-14.11-14.39-20.79-21.91-5.19-5.84-9.32-12.46-10-20.56C347.53,798.66,348,796,348.18,793Zm-93.3-159c-7.46,2.12-14,5.9-17,14.09a31.84,31.84,0,0,0-1.09,17.19c2.4,12,5.5,23.85,8.36,35.76,2.39,10,4.86,19.91,4.5,30.25-.12,3.7-.82,7.38-1.26,11.17,10.3,2.92,18.75,8.9,26.4,16,8.05,7.53,15.83,15.35,23.78,23,6.48,6.21,13.08,12.26,21.58,15.69A21.15,21.15,0,0,0,344.79,791a65.51,65.51,0,0,1-8.38-.06,29.68,29.68,0,0,1-16-7.35c-8.63-7.59-17-15.49-25.33-23.42-7.54-7.18-14.84-14.66-24.23-19.47-3.74-1.91-7.77-3.24-11.84-4.9.36-1.53.83-3.25,1.17-5,2.06-10.68,0-21-2.42-31.37-3-13-6.22-26-9.05-39a29.32,29.32,0,0,1,1.15-17.13C251.14,640,253.23,637,254.88,634Zm-.65-3.85c-8-2.24-12.71-7.37-16.15-13.78a57.34,57.34,0,0,1-4.54-10.24c-3.59-11.79-6.85-23.68-10.33-35.51-2.54-8.61-5.66-17-11.15-24.23-1.73-2.28-3.8-4.3-5.69-6.4,1.89-2.12,3.84-4,5.48-6.2,6.32-8.37,9.49-18.17,12.4-28.06,3.14-10.69,5.8-21.53,9.36-32.08s8.56-20.16,20.69-23.75a7.29,7.29,0,0,0-1.16-.57c-11.74-3-20.91.88-27.14,11.4-5.05,8.53-7.39,18-10.1,27.44-2.81,9.71-5.42,19.5-8.62,29.09A57.26,57.26,0,0,1,194,539.82c2.12,2.71,4.28,5.14,6,7.83a65,65,0,0,1,4.65,8.52c5.75,12.51,8.59,26,12.31,39.12,2.36,8.35,4.73,16.69,9.19,24.25C232.29,630,241.28,633.93,254.23,630.15Zm251-432.48c-2.13-6.76-4.53-12.4-10-16.12-6.63-4.48-14.16-4.75-21.46-3.46-11,1.94-21.71,5-32.57,7.41-7.88,1.78-15.76,3.6-23.71,5a51.36,51.36,0,0,1-21.16-1c-3.48,12.29-11.17,21.68-19.63,30.54-6.44,6.74-13.08,13.28-19.54,20-6.22,6.47-12.27,13.08-15.66,21.6a21.09,21.09,0,0,0,6.22,24.55,67.26,67.26,0,0,1,.06-8.37,29.8,29.8,0,0,1,7.34-16.05c7.59-8.63,15.48-17,23.42-25.33,7.24-7.6,14.78-15,19.6-24.45,1.87-3.67,3.16-7.63,4.79-11.64a19.3,19.3,0,0,0,2.75.64c4.56.46,9.14,1.34,13.69,1.19,12.44-.43,24.23-4.37,36.23-7.24a244.82,244.82,0,0,1,27-5.26C490.85,188.59,498.7,190.54,505.22,197.67Zm3.23,687.06c-2.13,8.45-2.23,16.64,4.71,22.93a38,38,0,0,0,12.08,7.82c10.93,3.93,22.17,7,33.31,10.37,9.53,2.86,19.23,5.31,28,10.27,4.32,2.45,8.3,5.51,12,8,4.7-3,9.19-6.44,14.14-9,13-6.65,27.26-9.45,41.15-13.39,8.27-2.34,16.53-4.67,24.06-9,8.89-5.11,13.63-12.41,12.26-23-.21-1.6-.54-3.18-.81-4.77h-.65a22.56,22.56,0,0,1-7.6,11.56c-7.56,6.24-16.7,9-25.85,11.7-10,2.91-20.05,5.36-29.93,8.51s-19.42,7.43-26.44,15.67c-2.2-2-4.11-3.92-6.27-5.54-9.46-7.08-20.61-10.25-31.73-13.48-10.36-3-20.83-5.76-31-9.33C520.2,900.71,511.8,895.43,508.45,884.73ZM688.89,195.42c1.9-7.12,2.23-14-2.27-20.43a28.53,28.53,0,0,0-14.44-10.54c-11-3.75-22.2-7-33.34-10.31-9.53-2.85-19.23-5.3-28-10.25-4.33-2.46-8.32-5.52-12.62-8.41a45.19,45.19,0,0,1-17.92,11.37c-13.38,4.44-26.94,8.33-40.43,12.4-8.31,2.51-16.6,5.05-23.78,10.2-8.48,6.07-11.14,15.54-7.65,25.62.34-.74.63-1.33.89-1.93s.44-1.29.73-1.9c3.59-7.39,10-11.76,17.3-14.28,12.28-4.26,24.84-7.68,37.3-11.41,8.65-2.59,17.29-5.27,24.88-10.33,3.29-2.19,6.2-4.92,9.22-7.36,2.09,1.81,4.09,3.8,6.33,5.48,8.33,6.22,18.06,9.32,27.86,12.22C644.57,169,656.29,172,667.68,176,677.3,179.3,685.66,184.67,688.89,195.42Zm252.38,251c6.87-2,12.74-4.7,16.4-10.67,3.93-6.42,4.21-13.64,3-20.6-2-10.95-5-21.7-7.42-32.56-1.78-7.88-3.62-15.75-5-23.7a51.4,51.4,0,0,1,1-21.23,51.32,51.32,0,0,1-18.19-9.23q-8-6.37-15.48-13.37c-5.75-5.36-11.16-11.07-16.82-16.54-5.83-5.64-11.86-11-19.23-14.67-10.38-5.14-20.54-2.45-27,5.16a61.91,61.91,0,0,1,8.37.06c7.91,1,14.38,5.28,20.1,10.46,8,7.26,15.68,14.9,23.47,22.4,6.83,6.58,13.66,13.17,22.23,17.47,3.67,1.85,7.62,3.16,11.64,4.8-.11.56-.34,1.37-.45,2.2-.55,4.38-1.79,8.82-1.45,13.13a163.59,163.59,0,0,0,3.34,21.42c2.78,13,6.31,25.77,8.83,38.77C950.49,429.36,949.24,438.7,941.27,446.39ZM801.05,890.62c3.44-12,10.67-21.16,18.86-29.71,6.67-7,13.5-13.8,20.21-20.75,5.7-5.9,11.15-12,14.84-19.43,4.84-9.78,2.46-21-5.22-26.89a74.58,74.58,0,0,1,0,7.89,29.82,29.82,0,0,1-7.11,16.16c-6,7.09-12.28,13.91-18.68,20.62-7.95,8.33-16.62,16-22.58,26-2.79,4.67-4.73,9.87-7.12,15-2.45-.43-5.44-1.07-8.47-1.45-9.4-1.18-18.51.77-27.56,2.91-11,2.6-21.89,5.77-32.95,8.1-11.46,2.41-22.93,3.34-32.85-6.28,2.38,8.25,6,14.77,13.92,17.78s15.89,2.08,23.72.38c11.21-2.43,22.24-5.66,33.4-8.33C775.72,889.7,788.1,887.17,801.05,890.62Zm59.51-62.37q5.21,5.75,11.89,13.16l27.69-27.58-13.24-12C878.08,810.71,869.4,819.41,860.56,828.25Zm39.08-562L872,238.72c-4.31,4.79-8.24,9.15-11.55,12.81L886.62,278ZM336.57,828.07,310.22,801.8,297,813.7l27.64,27.57ZM324.9,238.66c-9.29,9.27-18.38,18.32-27.62,27.53L310.37,278c8.86-8.79,17.57-17.44,26.37-26.19ZM986.26,664c3.39-12.74,6.69-25.15,10-37.73l-17.6-3.74-9.6,35.9Zm-.09-248.19L969,421.34c3.21,12,6.39,23.81,9.61,35.82l17.61-3.72ZM681.11,920c1.24,5.75,2.46,11.44,3.79,17.59l37.7-10.08L717,910.44ZM480,910.33l-5.56,17.11,37.75,10.11c1.31-6.29,2.51-12,3.69-17.6ZM722.51,152.4l-37.68-10c-1.35,6.36-2.55,12.06-3.72,17.58l35.82,9.57C718.74,164,720.54,158.44,722.51,152.4ZM201,626.18c3.38,12.67,6.67,25,10,37.63l17.14-5.61c-3.23-12.08-6.36-23.81-9.56-35.77Zm.06-172.66,17.47,3.66c3.28-11.66,6.48-22.94,9.58-34.24a2.15,2.15,0,0,0-1-1.84c-5.14-1.76-10.32-3.37-16-5.19C207.8,428.49,204.47,440.92,201.1,453.52ZM516,160.09c-1.24-5.79-2.45-11.5-3.76-17.67L474.59,152.5c1.79,5.61,3.47,10.71,5,15.83.42,1.35,1.1,1.47,2.29,1.08,3.08-1,6.15-2,9.27-2.83C499.32,164.4,507.47,162.31,516,160.09ZM888.15,281.45l25.51,27.22,13-9.44C918.29,289,910.17,279,902,269Zm25.79,489.73-25.66,27.17,13.92,12.51,24.56-30.32Zm-84.15,84,9.4,13,30.34-24.62L857,829.64ZM283.35,771l-12.87,9.4L295,810.7l13.89-12.53C300.3,789,291.91,780.08,283.35,771ZM857.18,249.88l12.2-13.54-30.33-24.56-9.39,12.95,26,24C856.05,249.07,856.54,249.39,857.18,249.88Zm-529.4-13.37,12.52,13.88,27.16-25.49c-3.23-4.46-6.16-8.48-9.39-12.93Zm-.18,606.82,30.34,24.58,9.34-12.85-27.14-25.64C335.85,834.19,331.91,838.55,327.6,843.33ZM985,667.7a11.12,11.12,0,0,0-1.19-.7c-3.39-1.12-6.8-2.2-10.18-3.37-5.87-2-5.86-2.06-7.8,3.69-.14.41-.32.8-.44,1.2-3,9.55-6,19.09-9,28.72l14.74,6.53C975.85,691.56,980.41,679.68,985,667.7ZM720.16,171.22l35.64,10.95c2.23-5,4.28-9.63,6.57-14.8-11.92-4.45-23.51-8.81-35.15-13.07a2.11,2.11,0,0,0-1.82,1C723.62,160.41,722,165.59,720.16,171.22ZM308.79,281.33l-13.62-12.22L270.65,299.4c3.91,2.85,7.46,5.33,10.88,8,1.3,1,2.07.91,3.2-.24,4.18-4.26,8.6-8.29,12.68-12.65C301.29,290.35,304.86,285.91,308.79,281.33Zm-82.55,94.74c-4.68,12.23-9.28,24.24-13.94,36.39L230,418.21l10.92-35.62ZM230,661.47c-5.78,1.88-11,3.51-16.09,5.33-.47.16-.89,1.69-.66,2.36,2,5.8,4,11.57,6.23,17.28s4.55,11.31,6.9,17.12l14.4-6.44ZM434.63,912.36l36.41,14c2-6.18,3.79-11.66,5.74-17.69l-35.67-10.92C438.87,902.76,436.86,907.31,434.63,912.36Zm568.42-416.84C1001,482.38,999,469.73,997,457l-17.82,3.81c.43,2.39.72,4.57,1.22,6.69q3.25,13.88,6.65,27.71c.17.68,1.13,1.72,1.65,1.68C993.26,496.57,997.81,496.05,1003.05,495.52Zm-18-83.17L971,376l-14.57,6.46,10.83,35.7ZM720.22,908.71c2,6.17,3.83,11.7,5.81,17.73l36.42-14c-2.27-5.11-4.33-9.72-6.49-14.56Zm-279-726.57,35.7-10.8c-2-6.13-3.81-11.67-5.79-17.71l-36.38,14ZM555.75,929c-12-3.61-23.9-6.74-36.36-8.39-1.26,5.93-2.47,11.62-3.71,17.5,7.1,1.23,14,2.51,21,3.61,5,.8,10.13,1.4,15.2,2,1.13.14,2.48.5,2.65-1.39C554.92,938,555.33,933.56,555.75,929ZM210.11,497.17c2.85-12.12,5.65-24.06,8.51-36.25l-18.27-3.87c-2,12.93-4,25.6-6,38.51Zm-15.85,87c2,12.89,4,25.57,6.05,38.43l18.23-3.88c-2.83-12.19-5.62-24.21-8.41-36.25Zm321.42-442.5c1.21,5.64,2.39,10.77,3.39,15.94.31,1.61,1,2,2.45,1.64,9.19-2.06,18.38-4.09,27.55-6.21,2.14-.5,5.12-.7,6.06-2.13s.12-4.35,0-6.6c-.13-2-.33-4.08-.54-6.11a25.49,25.49,0,0,0-.59-2.55ZM681.37,938.36c-1.34-6.26-2.57-12-3.91-18.21l-36.32,8.42c.61,5.55,1.14,10.44,1.72,15.81ZM997.06,622.7c2-13,4-25.63,6-38.51l-15.76-1.69c-2.86,12.18-5.68,24.19-8.52,36.31ZM641.13,151.31l36.32,8.54c1.36-6.39,2.56-12.08,3.86-18.23l-38.48-6C642.24,141.05,641.71,145.94,641.13,151.31ZM948.32,333.6l.65-.51c-6.74-10.29-13.49-20.57-20.3-31L916.48,311C926.09,320.21,935.48,329.32,948.32,333.6ZM798.11,186.47l.24-.92L765.58,169c-2.18,4.9-4.11,9.22-6.12,13.75C772.34,186,785,189,798.11,186.47Zm154.11,553.1.84.23c5.5-10.86,11-21.72,16.6-32.76l-13.77-6.14C952.69,713.74,949.61,726.38,952.22,739.57ZM392.3,190.29l-.46-.59L361,209.91l8.85,12.19C379,212.47,388.09,203.12,392.3,190.29Zm-.59,699.94.54-.65c-4.41-12.74-13.4-22.18-22.64-31.69-2.95,4.09-5.73,7.92-8.76,12.11ZM557.79,135.3c.56,5.37,1.05,10,1.57,14.95,12.64-3.83,25.17-7.16,35.14-16.05l-.19-.91ZM245,339.88a13.2,13.2,0,0,0-.86,1.16c-5.21,10.19-10.43,20.39-15.57,30.63a2.11,2.11,0,0,0,.78,1.87c4,1.85,8,3.55,12.12,5.35C244.73,366.17,247.67,353.62,245,339.88ZM827.45,858c-9.16,9.63-18.23,19-22.4,31.74l.5.55,30.74-20.14ZM988.63,500.66c2.84,12.36,9.74,30.56,16.8,35.34-.69-12.49-1.36-24.59-2-36.84Zm-761,206.25c5.66,11.15,11.16,22,16.67,32.81l.86-.34c2.31-13.11-.48-25.73-3.79-38.57Zm53-395.82-12.12-8.76L248.45,333l.62.48C261.72,329.26,271,320.31,280.65,311.09ZM248.38,746.85l20,30.61,12.12-8.87C270.93,759.55,261.68,750.5,248.38,746.85ZM765.73,911l32.67-16.59c-10.46-3.36-28-.42-38.68,3.15C761.65,901.87,763.58,906.18,765.73,911ZM192,535.57c7.54-6.31,13.42-21.28,16.69-34.91L194,499.17Zm207.29,358-.31.85,32.37,16.45c2.15-4.81,4.08-9.13,6.1-13.67C424.75,893.91,412.26,891,399.26,893.53Zm195,53.18.24-.9c-10.06-8.77-22.55-12.26-35.15-16-.52,4.89-1,9.58-1.56,14.85Zm334.62-169.1,20.09-30.7-.6-.46c-12.69,4.29-22.06,13.2-31.55,22.41ZM191.94,543.84c.69,12.51,1.34,24.5,2,36.69l14.8-1.61C203.6,560.48,197.93,548.39,191.94,543.84Zm207.12-358.3.25.89c13,2.36,25.6-.48,38.29-3.69-2-4.51-4-8.94-6.16-13.65ZM639.22,944.71c-.58-5.39-1.08-10-1.59-14.86-12.46,3.75-24.87,7.12-34.75,15.93l.2.91ZM953.06,340.25l-.84.31c-2.31,13,.4,25.52,3.69,38.18l13.63-6.1ZM805.66,189.77l-.54.54c4.22,12.62,13.13,21.93,22.25,31.44l8.77-12ZM1005.4,544.39l-.93-.2c-8.64,10-12.21,22.29-15.86,34.79l14.8,1.57C1004.09,568.3,1004.74,556.35,1005.4,544.39ZM639.23,135.27l-36.15-2-.18.93c10,8.59,22.29,12.2,34.75,15.79ZM964.68,657.92l.77.19q4.89-18.33,9.79-36.65l-.76-.35c-4.67,7.46-10.71,13-20.49,14C962,641,964.59,648.93,964.68,657.92ZM222.57,620.44l-.66.18q4.89,18.38,9.77,36.73l.91,0c.44-8.65,3.06-16.25,10.69-22C233.34,634,227,628.43,222.57,620.44Zm731.5-175.77c9.77,1.29,15.86,6.7,20.44,14.25l.75-.43-9.84-36.65-.75.18C964.59,430.88,961.9,438.58,954.07,444.67ZM221.91,459.38l.55.31c4.62-7.93,10.8-13.7,21-14.84-8.11-5.6-10.37-13.51-11-22.22h-.86Q226.8,441,221.91,459.38ZM715.88,907c0-.33,0-.66,0-1-8.63-.32-16.06-3.12-21.86-10.67-1.22,9.65-6.59,15.84-14.19,20.43l.45.72ZM517.62,164.17l-.38-.72L481.44,173l0,.93c8.65.4,16.18,3.16,21.94,10.7C504.65,174.89,510,168.72,517.62,164.17Zm162.53-.7-.35.72c7.55,4.69,13,10.85,13.89,19.41,3.37-2.4,6.48-5.33,10.16-7s7.92-2.17,11.91-3.18l.18-.41ZM503.57,895.2c-5.64,8-13.39,10.43-22.08,10.9l0,.92,35.74,9.51.33-.77C510,911.13,504.62,905,503.57,895.2Zm354.5-640.37-1.06.66c4.18,7.68,5.47,15.61,2.25,23.23,4.2-.35,8.36-1.28,12.39-.88s7.82,2.13,11.72,3.28l.53-.48Zm-544,543.53-.45.76L339.57,825l.8-.49c-4.22-7.65-5.46-15.58-1.81-24.44C329.56,804.26,321.75,802.36,314.11,798.36Zm-.44-517.52.53.82c7.61-4.19,15.47-5.51,24.36-1.73-4.09-9-2.25-16.87,1.78-24.56l-.75-.42Zm570,518.27c-.15-.27-.3-.55-.46-.82-7.65,4.28-15.59,5.47-23.26,2.34.34,4.23,1.24,8.31.83,12.25s-2.11,7.88-3.47,12.6Z"/></svg>