<svg id="Layer_1" data-name="Layer 1" xmlns="http://www.w3.org/2000/svg" viewBox="0 0 519.58 539.62"><defs><style>.cls-1{fill:#2a273d;}</style></defs><path class="cls-1" d="M403.3,327.4a155.11,155.11,0,0,0,11.12-57.59h1c0,1.32-.07,2.61-.11,4,3.17-1.3,6.32-2.61,9.46-4h2.05a.84.84,0,0,1-.33.39c-3.7,1.77-7.39,3.33-11.11,4.82l-.1,0c0,1.47,0,2.93-.19,4.39,3.78-1.36,7.36-2.89,11-4.52s7.24-3.36,10.84-5.11h2a.85.85,0,0,1-.32.41q-5.82,3.11-11.68,5.7c-2,.87-3.89,1.7-5.87,2.48s-4,1.54-6,2.26h0l-.35,4.6a166.94,166.94,0,0,0,17.38-6.95c5.64-2.65,11.27-5.57,16.94-8.51h2a1,1,0,0,1-.32.44q-4.47,2.49-8.9,4.79c-1.48.77-3,1.51-4.44,2.24s-2.92,1.43-4.46,2.12q-4.54,2-9.1,3.83-2.28.88-4.56,1.7c-1.52.55-3,1.07-4.61,1.55l-.07,0-.55,4.31c4.06-1.17,8.14-2.52,12.19-4s7.92-3.19,11.9-5c2-.9,4-1.83,6-2.78s3.88-1.95,5.83-2.95q5.85-3,11.79-6.24h2.1a1,1,0,0,1-.32.47q-6.18,3.38-12.24,6.54c-2,1.05-4,2.08-6.08,3.07s-4.14,2-6.2,2.89-4.12,1.83-6.17,2.69-4.08,1.68-6.21,2.45c-4.22,1.54-8.43,2.92-12.64,4.1h-.06c-.15,1.48-.46,2.93-.71,4.38,2.68-.66,5.42-1.4,8.06-2.22s5.27-1.72,7.91-2.67,5.29-2,7.94-3,5.19-2.21,7.8-3.39,5.21-2.38,7.83-3.63c1.3-.62,2.64-1.25,3.92-1.89l3.86-1.92c5.16-2.59,10.39-5.24,15.7-7.83h2.13a219.92,219.92,0,0,1-21.61,94.84l-2-.95c-3.63-4.68-7.17-9.37-10.68-14l-2.64-3.43-2.71-3.42q-2.71-3.4-5.45-6.69c-3.6-4.35-7.5-8.62-11.4-12.62-1-1-2-2-2.95-3s-2-1.92-3-2.87q-3.11-2.85-6.31-5.48c-.41,1.42-.78,2.85-1.22,4.26l.05,0a167.54,167.54,0,0,1,18.54,19.17c5.89,7,11.17,14.31,16.65,21.95a.68.68,0,0,1,0,.65l-1.94-.94c-2.61-3.67-5.22-7.29-7.85-10.81-1.31-1.77-2.61-3.5-4-5.22s-2.76-3.44-4.16-5.11-2.8-3.32-4.22-4.93-2.81-3.18-4.34-4.75q-4.5-4.66-9.21-8.89l-1.39,4.11.06.05c1.18,1.11,2.39,2.25,3.52,3.4s2.25,2.32,3.36,3.51c2.22,2.38,4.39,4.86,6.52,7.41l1.59,1.93,1.53,1.94c1,1.3,2,2.61,3,3.95q3,4,5.93,8.19a.65.65,0,0,1,.06.62l-1.86-.9c-3.72-5.3-7.49-10.4-11.44-15.23A166.08,166.08,0,0,0,406.14,323c-.53,1.44-1.13,2.86-1.68,4.29l0,0A166.71,166.71,0,0,1,421.19,347a.61.61,0,0,1,.07.58l-1.85-.89c-2.41-3.27-4.9-6.44-7.44-9.47q-1.92-2.28-3.87-4.47c-1.33-1.46-2.71-2.91-4.09-4.32l-.8,2-.91,2,.08.07c2.7,2.94,5.32,6,7.88,9.24a.55.55,0,0,1,.08.56l-1.88-.91c-2.16-2.7-4.39-5.32-6.66-7.84l-1.71,3.8-.93-.45,2.13-4.73c.35-.78.73-1.56,1.06-2.36Zm60.38-50A204.28,204.28,0,0,1,447,351a1.08,1.08,0,0,1-.11.18c3,4,6.13,8,9.29,12l2.79-6.17c.46-1,.95-2.05,1.37-3.1l1.25-3.15a217,217,0,0,0,15.63-80.19C472.66,272.87,468.14,275.16,463.68,277.41ZM458.46,280q-.25,3.33-.5,6.67L457.7,290l-.41,3.33a.63.63,0,0,1-.07.55,198.15,198.15,0,0,1-9,39.63.61.61,0,0,1-.18.53c-1.35,4.26-3.1,8.38-4.72,12.54,1,1.24,1.93,2.46,2.89,3.71.63-1.34,1.18-2.8,1.78-4.31s1.22-3.09,1.86-4.72,1.22-3.35,1.82-5.09l1.8-5.34c.59-1.82,1.08-3.69,1.62-5.56.27-.93.53-1.87.8-2.81s.55-1.87.75-2.83c.44-1.89.88-3.79,1.31-5.66.22-.94.43-1.87.64-2.8s.35-1.86.53-2.78c1.42-7.35,2.28-14.23,2.8-19.63s.74-9.35.71-10.86Zm-21.27,18.88c-.83,1.27-.31,2.46.56,3.57a18.85,18.85,0,0,0,7.28,5.2c2.79,1.27,5.73,2.24,8.28,3.55.38-1.48.61-3,.89-4.48l-.13-.1c-.65-.69-1.33-1.39-2-2.11a41.25,41.25,0,0,1-4.51-4.37,19.06,19.06,0,0,0-3.71-2.48,6.47,6.47,0,0,0-3.58-.66A4.18,4.18,0,0,0,437.19,298.91Zm12.57,1.67q1.17,1.05,2.31,2.16c.82.72,1.66,1.44,2.45,2.18.32-1.81.67-3.61.94-5.42l.7-5.45,0,0c-1.68-1.9-4.42-4.11-7.05-3.6-3.73.72-3.07,5-1.59,7.33A18.26,18.26,0,0,0,449.76,300.58Zm-14.21,5.23c-2.18-.45-6.13-.22-6.75,2.49s2.84,4.61,5,5.16a37.41,37.41,0,0,0,6.52.63q6.06.42,12.16.69h0l.49-2.11h0q-5.83-2.48-11.7-4.8A35,35,0,0,0,435.55,305.81Zm-1.17,11.6c-1.27.62-2.26,1.48-2.08,3,.33,2.71,3.08,4,5.47,4a19.73,19.73,0,0,0,4.38-.64,41.35,41.35,0,0,1,6-2l2.73-1a.42.42,0,0,1,.15,0c.45-1.46.75-3,1.1-4.43-2.86.08-6-.32-9-.37a25.8,25.8,0,0,0-4.5.26A15,15,0,0,0,434.38,317.41Zm6.75,8.47c-2.35,1.51-4.73,5.09-1.75,7.29,2.15,1.59,5.59.79,7.93-.2h0l.88-2.6c.29-.87.6-1.74.83-2.62l1.51-5.29c-1.05.32-2.11.61-3.17.9s-2,.65-3,.95A15.33,15.33,0,0,0,441.13,325.88ZM410,311.15c3,2.43,5.93,5,8.82,7.7s5.54,5.49,8.25,8.4c5.5,5.85,10.45,12,15.57,18.43l2.17-5.52c.36-.93.75-1.84,1.07-2.77l1-2.81c-4.29,1.3-11.48.75-9.94-5.43a6.66,6.66,0,0,1,2.35-3.6,9,9,0,0,1-4.12-.26,6.67,6.67,0,0,1-3.31-2.76,4.18,4.18,0,0,1-.44-4.1c.94-1.91,3.39-2.72,5.59-3.19-.87-.11-1.74-.24-2.6-.39-3.16-.58-7.64-3.18-6.78-6.83.45-1.94,2.06-2.93,3.88-3.36a11.41,11.41,0,0,1,5.56.23l2.23.72c-1.84-1.37-3.75-3.19-3.76-5.35a4.31,4.31,0,0,1,2.31-3.6,6.65,6.65,0,0,1,4.36-.94,9.08,9.08,0,0,1,3.5,1.51,6.82,6.82,0,0,1-.57-4.27c.62-3.14,2.65-4,4.9-3.77a12.51,12.51,0,0,1,6.42,3.17c.11-1,.28-2,.34-2.94l.23-3,.45-5.91c-3.69,1.79-7.35,3.53-11,5.19q-2.73,1.25-5.45,2.43c-1.84.78-3.71,1.54-5.56,2.27q-5.56,2.19-11.09,4c-1.82.61-3.75,1.17-5.62,1.69s-3.78,1-5.66,1.46l-.1,0-.6,3.4c-.24,1.13-.52,2.25-.77,3.37-.53,2.24-1,4.5-1.67,6.7Z"/><path class="cls-1" d="M469.41,289.57a4.36,4.36,0,0,1,.85-8.56c2.06.1,3.38,2,3.41,4.33a.89.89,0,0,1,0,.23.73.73,0,0,1,0,.23C473.24,288.16,471.52,289.9,469.41,289.57Zm3-4.09c.1-3.66-4.61-3.94-4.88-.35S471.93,289.11,472.38,285.48Z"/><path class="cls-1" d="M467.34,305.23a3.54,3.54,0,0,1-2.23-1.72,5,5,0,0,1-.56-3,4.07,4.07,0,0,1,4.25-3.73c2,.25,3.25,2.3,3.15,4.59a.66.66,0,0,1,0,.24.54.54,0,0,1-.05.22C471.33,304.13,469.4,305.72,467.34,305.23Zm3.33-3.84c.29-3.66-4.38-4.29-4.84-.72a3,3,0,0,0,.42,2.11,2.21,2.21,0,0,0,1.5.92,2.39,2.39,0,0,0,1.77-.41A2.82,2.82,0,0,0,470.67,301.39Z"/><path class="cls-1" d="M464.13,320.72a4.37,4.37,0,0,1,2.13-8.35c2,.4,3,2.53,2.71,4.8a1,1,0,0,1,0,.23,1,1,0,0,1-.07.22C468.13,319.9,466.16,321.37,464.13,320.72Zm3.55-3.6c.65-3.61-4-4.6-4.77-1.09S466.68,320.65,467.68,317.12Z"/><path class="cls-1" d="M459.72,335.91a4.11,4.11,0,0,1-2-5.12,4.06,4.06,0,0,1,4.75-3.06c2,.56,2.87,2.77,2.43,5a2.07,2.07,0,0,1,0,.22.63.63,0,0,1-.09.22C463.82,335.41,461.69,336.71,459.72,335.91Zm3.87-3.31c.84-3.57-3.68-4.9-4.67-1.44a2.45,2.45,0,0,0,1.43,3.3A2.61,2.61,0,0,0,463.59,332.6Z"/><path class="cls-1" d="M454.22,350.74a4.37,4.37,0,0,1,3.35-7.94c1.93.7,2.62,3,2,5.16a.7.7,0,0,1-.07.22.68.68,0,0,1-.1.21C458.29,350.53,456.13,351.69,454.22,350.74Zm4-3c1.17-3.47-3.24-5.14-4.56-1.79S456.76,351.05,458.27,347.71Z"/><path class="cls-1" d="M364.08,384a155.42,155.42,0,0,0,35.08-47.07l.93.45c-.61,1.17-1.19,2.31-1.83,3.55,3.41.21,6.81.4,10.25.51l1.84.89a.84.84,0,0,1-.46.2c-4.1,0-8.1-.22-12.09-.49l-.1,0-1,1.95-1.1,1.9c2,.19,4,.37,5.95.49s3.94.19,5.92.24c4,.12,8,.13,12,.12l1.81.87a.92.92,0,0,1-.47.23,168.25,168.25,0,0,1-25.76-.88h0c-.78,1.33-1.51,2.69-2.32,4a167.92,167.92,0,0,0,18.68,1.32c6.23.07,12.55-.11,18.94-.3l1.81.88a.94.94,0,0,1-.48.25c-3.4.21-6.77.36-10.09.45-1.66.05-3.32.08-5,.09h-2.46l-2.5,0q-5-.14-9.84-.51c-1.62-.13-3.23-.27-4.83-.45s-3.25-.4-4.86-.63l-.07,0-2.35,3.66c4.16.71,8.4,1.25,12.7,1.66,2.17.22,4.27.34,6.42.45s4.3.2,6.48.25,4.37.08,6.57.09,4.35-.06,6.55-.11c4.38-.11,8.83-.3,13.32-.5l1.89.91a1,1,0,0,1-.49.28c-9.38.48-18.41.88-27.51.6a171.81,171.81,0,0,1-26.53-2.58H389c-.84,1.22-1.72,2.41-2.57,3.62,2.7.57,5.45,1.07,8.22,1.51l2.09.31,2.06.27c1.37.17,2.76.32,4.15.47,5.55.55,11.33.95,17,1.07q4.26.11,8.61.12l4.36,0c1.46,0,2.88,0,4.32-.06,5.77-.08,11.63-.2,17.55-.23l1.91.92A222.7,222.7,0,0,1,430.6,406l-1.9,2.4c-.63.8-1.32,1.55-2,2.33l-4,4.63c-1.31,1.56-2.76,3-4.16,4.49l-4.23,4.43-4.43,4.23-2.22,2.12c-.37.34-.74.7-1.12,1l-1.15,1-4.64,4c-.78.66-1.54,1.35-2.34,2L396,440.6l-1.36-1.71q-.88-4.31-1.77-8.58c-.6-2.87-1.21-5.74-1.81-8.6s-1.2-5.67-1.82-8.46-1.34-5.64-2-8.41c-1.43-5.56-2.93-10.94-4.78-16.31-.91-2.67-1.86-5.29-2.87-7.87-.51-1.29-1-2.56-1.56-3.84s-1.13-2.56-1.71-3.82c-.49.55-1,1.13-1.46,1.67l-1.54,1.61,0,.05c1.71,4,3.3,8.22,4.7,12.46s2.59,8.51,3.72,12.92l.82,3.32.74,3.3c.49,2.21.95,4.44,1.4,6.69s.89,4.53,1.32,6.81.79,4.53,1.18,6.83a.67.67,0,0,1-.25.59l-1.34-1.68L384.5,421q-.62-3.3-1.26-6.56c-.87-4.35-1.76-8.58-2.82-12.8s-2.25-8.42-3.55-12.48c-.32-1-.66-2-1-3s-.71-2-1.09-3c-.74-2-1.53-4-2.34-6l-1.5,1.58c-.51.51-1,1.07-1.52,1.55l0,.07c1.15,3,2.2,6.07,3.18,9.2s1.91,6.35,2.66,9.51,1.49,6.42,2.15,9.71c.33,1.65.65,3.31,1,5l.81,4.95a.63.63,0,0,1-.22.57l-1.29-1.61c-1-6.26-2.25-12.61-3.71-18.67-.37-1.52-.75-3-1.15-4.52s-.87-3-1.33-4.52c-.92-3-1.91-5.93-3-8.81l-3.34,3.19v0c.72,2,1.36,4,2,6.08s1.19,4.09,1.73,6.18,1.05,4.19,1.53,6.32c.24,1.07.46,2.13.67,3.18l.59,3.19a.6.6,0,0,1-.2.55l-1.28-1.61q-.54-3-1.16-5.87t-1.41-5.85q-1.5-5.81-3.34-11.35L361,388.05l0,.09q.88,2.89,1.67,5.85c.52,2,1,3.9,1.41,5.88a.54.54,0,0,1-.17.53l-1.31-1.64c-.37-1.67-.77-3.32-1.18-5s-.9-3.31-1.38-4.95c-.53.45-1,.94-1.59,1.36l-1.65,1.29-.64-.81,2-1.6,2-1.71C361.46,386.24,362.8,385.13,364.08,384Zm76.15-18.81a205.08,205.08,0,0,1-47,59,.63.63,0,0,1-.18.12q1.59,7.41,3.17,14.85c1.8-1.37,3.48-2.87,5.19-4.34s3.42-2.93,5.09-4.45A218.6,218.6,0,0,0,434,400a216.38,216.38,0,0,0,21.36-35C450.28,365,445.22,365.07,440.23,365.16Zm-5.87.08c-2.24,3.85-4.37,7.78-6.85,11.49a.59.59,0,0,1-.31.47A200.15,200.15,0,0,1,401.89,409a.61.61,0,0,1-.39.41c-.38.4-.76.81-1.16,1.2l-1.21,1.16-2.42,2.31c-1.62,1.53-3.2,3.1-4.91,4.53l1,4.59,3.52-3.05,3.67-3.5c1.26-1.21,2.59-2.43,3.88-3.75l3.89-4.07,2-2.09c.67-.69,1.28-1.45,1.92-2.17l3.83-4.42.95-1.1.9-1.14,1.8-2.28c1.18-1.51,2.37-3,3.5-4.49l3.19-4.47,1.52-2.15.75-1.05.69-1.06c1.8-2.82,3.5-5.41,4.92-7.73l3.45-6,1.19-2.08c.3-.6.55-1.07.72-1.4C437.49,365.2,436,365.24,434.36,365.24ZM407,373c-1.28.8-1.33,2.1-1,3.49a15.28,15.28,0,0,0,1.66,4.15,25.8,25.8,0,0,0,2.6,3.67c1.94,2.34,4.18,4.51,5.91,6.8l1.41-1.79c.47-.6.94-1.19,1.37-1.82a1.16,1.16,0,0,1-.06-.15l-.92-2.78a41.77,41.77,0,0,1-2.18-5.92,20.25,20.25,0,0,0-2.25-3.85C412,372.86,409.3,371.53,407,373Zm10.59,7c.4,1,.78,2,1.15,2.95s.87,2,1.27,3.05l3.19-4.49c.26-.37.53-.74.79-1.12l.74-1.16,1.48-2.31v0c-.68-2.44-2.2-5.63-4.79-6.32-3.68-1-4.88,3.18-4.61,5.91A15.86,15.86,0,0,0,417.57,380Zm-15.08-1.49c-1.78-1.37-5.42-2.87-7.14-.68a3.47,3.47,0,0,0-.14,3.72,9.21,9.21,0,0,0,2.4,3.1,37.84,37.84,0,0,0,5.62,3.43q5.26,3,10.63,5.9h0l1.34-1.7,0,0q-4.18-4.77-8.47-9.43A35.41,35.41,0,0,0,402.49,378.46Zm-6.09,10c-1.4,0-2.65.37-3.13,1.81-.9,2.56,1,4.89,3.17,5.91a19.65,19.65,0,0,0,4.26,1.37,41.52,41.52,0,0,1,6.26.79l2.89.25.15,0c1-1.16,2-2.28,3-3.47-2.6-1.17-5.23-2.89-8-4.27A18.68,18.68,0,0,0,396.4,388.41ZM398.79,399c-2.79.32-6.4,2.59-4.7,5.84a5.73,5.73,0,0,0,3.14,2.49,13.44,13.44,0,0,0,4.08.76h0c2.52-2.66,5.1-5.26,7.45-8.08-1.08-.16-2.15-.36-3.23-.55s-2.07-.27-3.1-.44A17.31,17.31,0,0,0,398.79,399Zm-21.65-26.81a165.41,165.41,0,0,1,8.4,22c.61,1.93,1.14,3.81,1.66,5.72s1,3.85,1.54,5.79,1,3.92,1.45,5.89l.7,3,.65,2.95c1.53-1.27,2.91-2.68,4.35-4s2.88-2.71,4.27-4.12a12.65,12.65,0,0,1-6.52-3.06c-1.62-1.62-2.08-3.65-.1-6.16a6.63,6.63,0,0,1,3.65-2.26,9,9,0,0,1-3.6-2,6.52,6.52,0,0,1-1.76-3.92,5.16,5.16,0,0,1,.23-2.12,3.56,3.56,0,0,1,1.17-1.75c1.66-1.32,4.2-1,6.39-.47-.74-.48-1.47-1-2.18-1.48a11,11,0,0,1-3.39-4.15,4.64,4.64,0,0,1,.3-4.93c2.46-3.1,7.41-1,9.86,1.3.57.53,1.13,1.07,1.69,1.61-.26-.5-.5-1-.72-1.57a11.66,11.66,0,0,1-.53-1.68,4.94,4.94,0,0,1,.2-3.21,4.16,4.16,0,0,1,3.64-2.23,6.77,6.77,0,0,1,4.36,1.07,8.94,8.94,0,0,1,2.48,2.88,7,7,0,0,1,1.34-4.1c3.82-5.12,8.79.25,10.44,4.39l1.6-2.5c.54-.83,1-1.71,1.51-2.56l2.95-5.14c-8.21,0-16.11,0-24.11-.68q-3-.21-5.89-.51c-2-.21-3.85-.41-5.83-.7q-5.86-.84-11.52-2.07l-.09,0-1,1.42c-.33.47-.71.91-1.06,1.36l-2.14,2.72-1.07,1.37-.53.68-.57.65-2.27,2.62Z"/><path class="cls-1" d="M440.09,378.62a4.2,4.2,0,0,1-.91-5.49,4.16,4.16,0,0,1,5.38-1.87c1.8,1,2.16,3.32,1.19,5.4a2,2,0,0,1-.1.21c0,.07-.09.13-.13.19C444.15,379,441.85,379.84,440.09,378.62Zm4.44-2.4c1.67-3.26-2.44-5.56-4.23-2.44S442.55,379.31,444.53,376.22Z"/><path class="cls-1" d="M431.38,391.8a4.09,4.09,0,0,1-.43-5.49,4.83,4.83,0,0,1,2.56-1.88,3.56,3.56,0,0,1,2.89.38c1.71,1.11,2,3.51.83,5.51a1.36,1.36,0,0,1-.11.2l-.15.18C435.42,392.52,433,393.15,431.38,391.8Zm4.67-2a2.81,2.81,0,0,0,.45-2.17,2.43,2.43,0,0,0-1-1.51,2.27,2.27,0,0,0-1.73-.34A3,3,0,0,0,432,387C429.93,390,433.79,392.68,436.05,389.79Z"/><path class="cls-1" d="M421.77,404.34a4.22,4.22,0,0,1-.08-5.55,4.13,4.13,0,0,1,5.59-1.06c1.63,1.24,1.64,3.61.38,5.53a.92.92,0,0,1-.13.19.87.87,0,0,1-.16.17,5,5,0,0,1-2.82,1.58A3.28,3.28,0,0,1,421.77,404.34Zm4.76-1.7c2.12-3-1.61-5.88-3.83-3.05S424.12,405.41,426.53,402.64Z"/><path class="cls-1" d="M411.2,416.08a4.12,4.12,0,0,1,.37-5.51c1.62-1.64,4.11-2,5.64-.65s1.44,3.78,0,5.55a.73.73,0,0,1-.14.18l-.18.15C415.08,417.39,412.64,417.66,411.2,416.08Zm4.91-1.31a3,3,0,0,0,.79-2,2.41,2.41,0,0,0-.78-1.64,2.23,2.23,0,0,0-1.66-.6,2.78,2.78,0,0,0-1.94,1C410,414.05,413.45,417.3,416.11,414.77Z"/><path class="cls-1" d="M399.82,427a4.2,4.2,0,0,1,.77-5.48,4.11,4.11,0,0,1,5.67-.23c1.43,1.47,1.09,3.81-.43,5.53a1.19,1.19,0,0,1-.15.18,1.15,1.15,0,0,1-.19.14C403.65,428.69,401.12,428.7,399.82,427Zm5-.95c2.53-2.65-.72-6.06-3.33-3.58a2.49,2.49,0,0,0-.37,3.6A2.56,2.56,0,0,0,404.8,426.08Z"/><path class="cls-1" d="M304.25,417.93a154.47,154.47,0,0,0,51.91-27.24l.64.81L353.66,394c3,1.64,5.94,3.27,9,4.83l1.27,1.6a.78.78,0,0,1-.49,0c-3.68-1.76-7.17-3.64-10.65-5.61l-.08-.06-3.58,2.53c3.37,2,6.87,4,10.42,5.84s7.09,3.51,10.69,5.21l1.25,1.57a.88.88,0,0,1-.52,0c-2-.86-4-1.75-5.92-2.66s-3.84-1.83-5.77-2.86q-5.73-3-11.12-6.37l0,0c-1.23.93-2.55,1.72-3.84,2.55,1.29.86,2.6,1.69,3.94,2.51s2.69,1.63,4,2.37c2.7,1.52,5.47,3,8.29,4.38,5.68,2.88,11.39,5.36,17.2,7.93l1.26,1.57a.89.89,0,0,1-.54,0c-3.14-1.27-6.22-2.56-9.24-3.9s-6.07-2.83-9-4.31-5.81-3-8.62-4.65-5.61-3.41-8.3-5.22l-.06,0-1.83,1.18-.91.59-.95.53c.87.62,1.76,1.25,2.63,1.84l2.65,1.75q2.67,1.73,5.44,3.37c1.84,1.1,3.72,2.17,5.62,3.23l1.43.79,1.42.74,2.88,1.48c3.86,1.95,7.82,3.83,11.86,5.68s8,3.5,12.17,5.24l1.31,1.64a.93.93,0,0,1-.56.05l-6.4-2.68c-2.13-.91-4.19-1.77-6.31-2.75-4.2-1.91-8.32-3.86-12.32-5.88-1-.51-2-1-3-1.54l-3-1.63q-3-1.65-5.81-3.36T344,407.94c-1.84-1.2-3.68-2.5-5.47-3.8l0,0-3.85,2.22c4.36,3.33,9,6.47,13.8,9.46s9.71,5.62,14.83,8.29,10.25,5,15.54,7.53c2.66,1.26,5.28,2.44,7.92,3.65s5.3,2.44,8,3.69L396,440.6a222.48,222.48,0,0,1-41.35,26.09,219.63,219.63,0,0,1-46.28,16.13l-.48-2.13c2.84-11.35,5.84-22.72,8.13-33.86,1.11-5.67,2.08-11.23,2.77-16.76s1.08-11.19,1.18-16.66L315.86,415v.06q-.14,3.32-.42,6.65c-.2,2.19-.45,4.37-.75,6.58s-.62,4.41-1,6.63l-.58,3.34-.32,1.68-.33,1.64c-.92,4.39-2,8.82-3.12,13.29l-.87,3.36-.92,3.31c-.63,2.22-1.27,4.44-1.9,6.66a.65.65,0,0,1-.49.43l-.47-2.1c.61-2.14,1.23-4.27,1.84-6.41s1.2-4.21,1.74-6.38q1.67-6.47,3-12.81l.64-3.16c.21-1.06.4-2.14.58-3.21q.54-3.22,1-6.4t.76-6.34c.1-1.06.2-2.09.27-3.16s.14-2.14.2-3.21c-1.34.57-2.72,1-4.09,1.46V417q-.39,4.85-1.1,9.73c-.23,1.65-.5,3.24-.8,4.84s-.61,3.21-1,4.83c-.67,3.22-1.43,6.47-2.26,9.74s-1.77,6.41-2.74,9.65a.64.64,0,0,1-.45.42l-.45-2c.92-3.08,1.79-6.13,2.6-9.17s1.52-6.2,2.17-9.26,1.23-6.13,1.71-9.17.83-6.21,1.1-9.28l-2.18.74-1.09.38-1.1.31v0q-.75,6.27-2,12.65c-.21,1.07-.42,2.13-.65,3.2s-.47,2.08-.73,3.13c-.5,2.09-1,4.18-1.63,6.28a.6.6,0,0,1-.42.41l-.45-2c1.06-3.9,2-7.72,2.79-11.63s1.4-7.86,1.9-11.74l-4.2,1.19a.31.31,0,0,1,0,.1c-.3,2-.65,4-1.05,5.94s-.82,3.94-1.28,5.92a.56.56,0,0,1-.38.41l-.47-2c.77-3.35,1.45-6.68,2-10l-4.07.93-.22-1,2.52-.58c.84-.2,1.69-.36,2.52-.62ZM381,434a201.69,201.69,0,0,1-68,32.85.86.86,0,0,1-.21,0l-.9,3.7-.91,3.65q-.9,3.67-1.81,7.36l3.3-.77,1.65-.38,1.63-.46,6.52-1.85a217.27,217.27,0,0,0,72.44-37.82l-6.88-3.18C385.56,436.07,383.31,435.07,381,434Zm-5.36-2.5-2.72,1.93c-.92.64-1.8,1.32-2.76,1.9l-5.63,3.61a.59.59,0,0,1-.47.31,195.37,195.37,0,0,1-36.6,17.68.57.57,0,0,1-.53.18l-6.34,2.15-1.59.53-1.6.47-3.22.91-1.1,4.6a195,195,0,0,0,19.73-6.48l5.39-2.12c1.79-.74,3.56-1.58,5.34-2.37l2.65-1.21c.89-.4,1.77-.79,2.62-1.24l5.08-2.6A196.6,196.6,0,0,0,371,439.68c2.32-1.43,4.2-2.83,5.71-3.89l3.24-2.31Zm-28-4.84c-1.5.18-2.08,1.38-2.42,2.71a18.3,18.3,0,0,0,.43,8.86c.74,3,1.83,5.9,2.4,8.72l4.06-2.08a.92.92,0,0,1,0-.16c.13-.93.27-1.89.41-2.86a45.62,45.62,0,0,1,.56-6.31,19.29,19.29,0,0,0-.38-4.47C352.22,428.69,350.34,426.31,347.65,426.64Zm6.52,10.87c-.05,1.06-.14,2.12-.23,3.19s-.07,2.23-.16,3.3c1.61-.88,3.18-1.82,4.77-2.72l2.39-1.37c.79-.46,1.59-.91,2.35-1.42v0c.42-2.52.41-6.08-1.62-7.8a3.06,3.06,0,0,0-4.06-.19A7.49,7.49,0,0,0,355,434,16.35,16.35,0,0,0,354.17,437.51Zm-13-7.88c-1-2-3.64-4.91-6.11-3.64s-1.87,5-1,7.05a37.86,37.86,0,0,0,3.57,5.51q3.46,5,7.06,10v0c.67-.28,1.31-.62,1.95-.95v0q-1.71-6.12-3.57-12.19A35.82,35.82,0,0,0,341.21,429.63ZM331.43,436a4.57,4.57,0,0,0-1.87-.49,2.37,2.37,0,0,0-1.75.71c-1.93,1.89-1.24,4.85.29,6.71a20.57,20.57,0,0,0,3.24,3.06,47.77,47.77,0,0,1,5.34,3.5l2.48,1.45.12.09,4.16-1.88c-1.85-2.2-3.47-4.88-5.34-7.3A18.22,18.22,0,0,0,331.43,436ZM329,446.51a7.18,7.18,0,0,0-4.4-.05,3.05,3.05,0,0,0-2.37,3.25c.08,2.66,2.87,4.89,5.11,6.13l0,0c1.72-.63,3.41-1.33,5.12-2l2.56-1c.85-.35,1.71-.66,2.54-1.05l-1.34-.92-1.34-1c-.89-.58-1.76-1.18-2.62-1.79A16.14,16.14,0,0,0,329,446.51ZM321.12,413c0,2-.07,3.87-.17,5.8s-.23,3.88-.39,5.83-.37,3.91-.59,5.88l-.37,3-.43,2.91q-.92,5.84-2.11,11.79l-.6,3-.65,2.94L314.44,460l2.86-.81,1.42-.41,1.41-.47,5.62-1.9c-3.71-2.59-7.78-8.6-1.94-11.12a6.57,6.57,0,0,1,4.25-.5,8.86,8.86,0,0,1-2.36-3.36c-.9-2.56.13-6.58,3.05-7.15,2.07-.46,4.2.86,5.94,2.3-.45-.75-.9-1.51-1.31-2.28-1.52-2.84-2.27-7.93,1.16-9.47,3.52-1.79,7,2.27,8.29,5.37.28.72.56,1.45.82,2.18a13.31,13.31,0,0,1,.29-3.45,5.14,5.14,0,0,1,1.59-2.76c2.38-2,6.31-.1,7.69,2.35a9,9,0,0,1,1,3.66,7.08,7.08,0,0,1,3-3.05c5.6-3.05,7.78,4,7.51,8.45l5-3.21c.84-.52,1.63-1.12,2.44-1.68l2.42-1.72-5.47-2.61c-1.82-.88-3.59-1.74-5.4-2.69-3.6-1.85-7.13-3.74-10.55-5.69s-6.81-4.05-10.07-6.21-6.41-4.4-9.46-6.79l-.07-.07-6.16,3.16-6.29,2.85S321.12,413,321.12,413Z"/><path class="cls-1" d="M375,446a3.56,3.56,0,0,1-.25-2.81,5,5,0,0,1,1.84-2.48,4.08,4.08,0,0,1,5.62.59c1.2,1.67.53,3.94-1.23,5.43a.86.86,0,0,1-.17.15,1.36,1.36,0,0,1-.2.11,4.77,4.77,0,0,1-3.19.64A3.3,3.3,0,0,1,375,446Zm5.08-.19c2.89-2.26.17-6.12-2.76-4a2.94,2.94,0,0,0-1.26,1.75,2.23,2.23,0,0,0,.35,1.73A2.57,2.57,0,0,0,380.11,445.83Z"/><path class="cls-1" d="M361.51,454.19a4.37,4.37,0,0,1,7.56-4.12c1.07,1.76.21,3.95-1.67,5.26l-.19.13a.67.67,0,0,1-.21.1C364.83,456.57,362.42,456.13,361.51,454.19Zm5.05.16c3.09-2,.67-6-2.45-4.24S363.3,456,366.56,454.35Z"/><path class="cls-1" d="M347.38,461.29a4.39,4.39,0,0,1,7.84-3.56c.94,1.83-.07,4-2,5.2a.67.67,0,0,1-.2.12l-.21.09C350.53,463.94,348.14,463.29,347.38,461.29Zm5.06.6c3.19-1.82,1.08-6-2.13-4.4S349,463.26,352.44,461.89Z"/><path class="cls-1" d="M332.78,467.37a4.37,4.37,0,0,1,8.09-3c.8,1.89-.38,3.94-2.44,5a.68.68,0,0,1-.21.1.7.7,0,0,1-.22.07C335.7,470.21,333.39,469.42,332.78,467.37Zm5,.89c3.34-1.51,1.56-5.87-1.79-4.55S334.28,469.44,337.75,468.26Z"/><path class="cls-1" d="M317.73,472.24a4.08,4.08,0,0,1,3.1-4.55c2.19-.68,4.55.28,5.19,2.22s-.66,3.95-2.78,4.84a.93.93,0,0,1-.22.08.6.6,0,0,1-.22,0C320.44,475.33,318.18,474.33,317.73,472.24Zm4.92,1.36a2.62,2.62,0,0,0,1.85-3.25,2.44,2.44,0,0,0-3.3-1.43C317.74,469.91,319.07,474.44,322.65,473.6Z"/><path class="cls-1" d="M235.53,422.54a157.7,157.7,0,0,0,58.7-2l.22,1-1.91.45c-.64.14-1.29.32-2,.42,1,1.44,2,2.78,2.95,4.16s2,2.73,3,4.09l.45,2a.76.76,0,0,1-.44-.22q-1.91-2.37-3.66-4.77c-1.18-1.59-2.34-3.29-3.48-4.95a.41.41,0,0,1,0-.09l-4.31.77c2.14,3.29,4.43,6.54,6.83,9.75.6.8,1.2,1.61,1.81,2.41s1.21,1.55,1.83,2.33l3.71,4.63.44,2a.82.82,0,0,1-.46-.22q-2.16-2.44-4.17-4.94c-1.35-1.67-2.68-3.42-3.95-5.14-2.56-3.47-5-7-7.23-10.52l0,0c-1.52.22-3.05.38-4.57.58q2.37,4,5.05,7.88c1.77,2.59,3.62,5.05,5.54,7.54s3.91,5,5.93,7.43,4.06,4.79,6.11,7.2l.44,2a.9.9,0,0,1-.49-.2c-1.14-1.25-2.26-2.49-3.36-3.74l-1.64-1.87-1.63-1.94Q292,444.6,289,440.69c-1-1.3-2-2.61-2.92-3.93s-1.9-2.7-2.81-4.05q-2.75-4.09-5.19-8.27a.36.36,0,0,1,0-.07l-2.16.28c-.72.07-1.45.11-2.17.17,1,1.86,2.09,3.77,3.19,5.56s2.24,3.59,3.42,5.38,2.4,3.56,3.65,5.33,2.55,3.58,3.85,5.26c5.23,6.81,11,13.69,16.88,20.26l.46,2.05a.86.86,0,0,1-.52-.2l-4.59-5.16c-1.52-1.73-3-3.52-4.5-5.28-2.95-3.53-5.8-7-8.51-10.6s-5.32-7.33-7.75-11c-1.22-1.87-2.38-3.68-3.52-5.62s-2.22-3.86-3.26-5.8l0-.06-4.43.34c2.48,4.89,5.27,9.71,8.3,14.5l1.15,1.79,1.17,1.73c.78,1.16,1.58,2.32,2.4,3.47,1.62,2.31,3.3,4.61,5,6.92l2.61,3.45,2.66,3.36q2.67,3.36,5.44,6.75l5.55,6.78q2.77,3.35,5.56,6.75l.47,2.07a217.77,217.77,0,0,1-97.18,0l.48-2.13,5.61-6.72,5.6-6.78q2.78-3.37,5.47-6.73L231,457.1l2.62-3.45c1.73-2.3,3.42-4.6,5-6.91s3.2-4.57,4.72-7c3-4.78,5.82-9.59,8.3-14.47l-4.43-.35,0,.06a171,171,0,0,1-14.56,22.46c-2.73,3.56-5.59,7.07-8.55,10.6-1.48,1.76-3,3.55-4.51,5.28L215,468.49a.68.68,0,0,1-.62.17l.48-2.1c5.95-6.54,11.76-13.41,17-20.21,2.64-3.45,5.17-7,7.53-10.58q1.77-2.67,3.42-5.37c1.1-1.81,2.17-3.71,3.19-5.57l-2.17-.16-2.16-.28,0,.07q-2.44,4.19-5.2,8.27c-.92,1.36-1.87,2.75-2.82,4.06s-1.94,2.62-2.94,3.93c-4,5.2-8.37,10.41-12.9,15.32a.65.65,0,0,1-.58.18l.45-2,3.2-3.55c1-1.2,2.08-2.35,3.12-3.6q3.07-3.69,6-7.4c1-1.25,1.89-2.49,2.81-3.74s1.81-2.49,2.7-3.81q2.64-3.9,5-7.87l-4.58-.58v0q-3.41,5.31-7.27,10.51c-1.29,1.73-2.62,3.46-4,5.15s-2.75,3.3-4.18,4.93a.59.59,0,0,1-.55.19l.45-2a166.57,166.57,0,0,0,14.34-19l-4.31-.77,0,.08c-1.14,1.66-2.33,3.35-3.53,4.95s-2.44,3.18-3.71,4.76a.54.54,0,0,1-.52.2l.47-2c1.06-1.34,2.11-2.68,3.13-4s2-2.7,3-4.13c-.69-.1-1.37-.27-2-.43l-2-.47.23-1C228.7,421.42,232.13,421.89,235.53,422.54Zm62.21,47.78a203.35,203.35,0,0,1-75.45.08l-.2-.07-9.63,11.73,3.31.75c1.1.23,2.22.41,3.33.62l6.66,1.18a220.23,220.23,0,0,0,81.6-2.61ZM294,465.75l-3.29.58c-1.1.21-2.21.31-3.32.46l-6.64.84a.55.55,0,0,1-.55.07,201.14,201.14,0,0,1-40.61,0,.57.57,0,0,1-.56-.06l-6.64-.84c-1.1-.15-2.22-.26-3.32-.45l-3.29-.58-3,3.65c2.91.51,6.14,1.16,9.62,1.54l5.35.67c.46.06.92.13,1.38.17l1.4.11,2.83.22,5.77.43c1.94.07,3.89.11,5.83.16l2.91.08c1,0,1.94.06,2.9,0l5.68-.14c3.74,0,7.32-.39,10.66-.62s6.4-.66,9.1-1l3.75-.48c1.15-.13,2.18-.36,3.09-.51l3.91-.7Zm-23.09-16.54a2.33,2.33,0,0,0-1.88.12,4.41,4.41,0,0,0-1.49,1.24,18.44,18.44,0,0,0-3.46,8.17c-.62,3-.92,6.11-1.63,8.91l4.56-.12.07-.14c.53-.78,1.07-1.59,1.61-2.4a50.55,50.55,0,0,1,3.26-5.42,20.38,20.38,0,0,0,1.61-4.2C274.14,453,273.48,450.07,270.92,449.21Zm1.14,12.62c-.52.93-1.05,1.86-1.6,2.78s-1,1.94-1.58,2.87c.91,0,1.83-.08,2.74-.15l2.74-.21,5.48-.42v0c1.49-2.09,3-5.32,1.95-7.74a3.16,3.16,0,0,0-1.53-1.7,3.88,3.88,0,0,0-2-.26,7.31,7.31,0,0,0-3.92,2A15.52,15.52,0,0,0,272.06,461.83Zm-8.24-12.74c-.05-2.25-1.15-6-3.93-5.93-2.82-.07-3.87,3.71-3.92,5.93a38,38,0,0,0,.82,6.52q.94,6,2,12.06v0l1.08,0,1.08,0v0q1.11-6.27,2.08-12.54A36.28,36.28,0,0,0,263.82,449.09Zm-11.59,1.49a4.29,4.29,0,0,0-1.48-1.24,2.42,2.42,0,0,0-1.88-.12c-2.57.86-3.22,3.83-2.65,6.17a20.54,20.54,0,0,0,1.6,4.17,30.17,30.17,0,0,1,1.76,2.72c.54.94,1,1.84,1.53,2.73l1.6,2.39a.61.61,0,0,1,.07.14l4.56.11c-.71-2.79-1-5.91-1.64-8.9A18.3,18.3,0,0,0,252.23,450.58ZM245.49,459a7.21,7.21,0,0,0-4-2,4.18,4.18,0,0,0-1.06,0,3,3,0,0,0-1,.27A3.15,3.15,0,0,0,238,459c-1.07,2.43.47,5.67,2,7.73v0l5.48.42,2.74.21,1.37.1,1.38,0c-.55-.94-1.07-1.87-1.59-2.86s-1.08-1.83-1.58-2.76A17.14,17.14,0,0,0,245.49,459Zm7.41-33.6c-.42.88-.86,1.76-1.31,2.63s-.9,1.7-1.36,2.55c-.92,1.69-1.89,3.38-2.88,5.07s-2,3.36-3.09,5l-1.61,2.51-.83,1.25-.83,1.22c-2.22,3.23-4.56,6.45-7,9.68-1.21,1.61-2.45,3.23-3.69,4.83l-3.78,4.71,2.92.52c1,.15,2,.26,2.94.39l5.88.75a12.77,12.77,0,0,1-1.68-7c.25-2.27,1.56-3.95,4.75-3.87a6.56,6.56,0,0,1,4,1.39,9,9,0,0,1-.67-4c.3-2.7,3-5.86,5.85-5.1,2.07.44,3.42,2.59,4.36,4.63-.08-.87-.15-1.75-.2-2.62-.13-3.22,1.41-8.13,5.17-8,3.95-.08,5.37,5.1,5.14,8.43-.06.77-.13,1.55-.21,2.33.94-2.08,2.29-4.3,4.4-4.76,3-.81,5.71,2.63,5.89,5.44a9,9,0,0,1-.7,3.73,6.61,6.61,0,0,1,4-1.42c6.37-.31,5.27,6.94,3.08,10.88l5.88-.75c1-.13,2-.23,2.94-.4l2.92-.52-3.78-4.71c-1.25-1.57-2.49-3.21-3.7-4.82q-3.65-4.83-7-9.68c-1.11-1.6-2.21-3.3-3.27-5s-2.09-3.36-3.09-5-2-3.37-2.89-5.07c-.46-.84-.92-1.69-1.36-2.55s-.89-1.74-1.32-2.61l0-.1-6.94.18-6.94-.17A.36.36,0,0,1,252.9,425.39Z"/><path class="cls-1" d="M287.12,478.56a4.38,4.38,0,0,1,8.54-1.07c.36,2-1.24,3.8-3.47,4.37l-.22.05a.61.61,0,0,1-.23,0C289.34,482,287.26,480.69,287.12,478.56Zm4.66,2.08a2.63,2.63,0,0,0,2.31-2.94,2.42,2.42,0,0,0-3-1.9C287.48,476.26,288.12,480.93,291.78,480.64Z"/><path class="cls-1" d="M271.4,480.05a4.36,4.36,0,0,1,8.59-.45c.2,2-1.53,3.65-3.79,4a.85.85,0,0,1-.23,0h-.23C273.35,483.63,271.37,482.19,271.4,480.05Zm4.47,2.32c3.64-.45,3.23-5.15-.36-4.87S272.21,482.47,275.87,482.37Z"/><path class="cls-1" d="M255.62,480.28a4.38,4.38,0,0,1,8.59.2c.05,2.06-1.79,3.57-4.07,3.81a.8.8,0,0,1-.23,0,.58.58,0,0,1-.23,0C257.3,484,255.44,482.41,255.62,480.28Zm4.29,2.75c3.65-.26,3.59-5,0-4.89C256.32,478.06,256.26,482.78,259.91,483Z"/><path class="cls-1" d="M239.86,479.42a4.36,4.36,0,0,1,8.56.85c-.1,2.05-2,3.38-4.34,3.4a.85.85,0,0,1-.23,0l-.23,0C241.26,483.25,239.52,481.53,239.86,479.42Zm4.09,3c3.66.1,3.94-4.61.36-4.88S240.31,481.94,244,482.39Z"/><path class="cls-1" d="M224.2,477.33a4.12,4.12,0,0,1,4.76-2.78,4.07,4.07,0,0,1,3.72,4.25c-.25,2-2.3,3.25-4.6,3.15a.61.61,0,0,1-.23,0,.86.86,0,0,1-.23-.05C225.3,481.32,223.7,479.4,224.2,477.33Zm3.84,3.34c3.66.29,4.3-4.38.73-4.84a2.44,2.44,0,0,0-3,1.91A2.61,2.61,0,0,0,228,480.67Z"/><path class="cls-1" d="M171.74,396.9a153.75,153.75,0,0,0,53.62,23.65l-.23,1-3.9-.89c.57,3.34,1.15,6.66,1.82,10l-.45,2a.79.79,0,0,1-.3-.39q-.69-3-1.24-5.91c-.36-2-.7-3.89-1-5.92a.34.34,0,0,1,0-.1l-4.2-1.2c.5,3.9,1.16,7.83,1.92,11.78s1.68,7.73,2.59,11.6l-.44,2a1,1,0,0,1-.34-.4q-.87-3.15-1.61-6.28-.37-1.56-.72-3.12c-.22-1.06-.43-2.13-.63-3.19q-1.2-6.36-2-12.65v0l-1.11-.31-1.09-.37-2.18-.74c.28,3.07.65,6.21,1.14,9.29s1.09,6.11,1.74,9.19c.33,1.54.67,3.09,1,4.63s.72,3.12,1.11,4.62c.77,3,1.58,6.08,2.39,9.14l-.44,2a.89.89,0,0,1-.36-.4c-1-3.24-1.88-6.44-2.72-9.64s-1.57-6.51-2.24-9.74c-.33-1.61-.64-3.21-.93-4.82s-.56-3.17-.79-4.82c-.46-3.26-.83-6.51-1.09-9.73V417c-1.37-.47-2.76-.87-4.09-1.45.05,1.07.12,2.14.19,3.21s.18,2.11.28,3.16c.21,2.11.46,4.22.75,6.35.59,4.23,1.29,8.59,2.18,12.77s1.88,8.49,3,12.8c.53,2.17,1.12,4.24,1.7,6.38s1.19,4.27,1.79,6.4l-.46,2.05a.93.93,0,0,1-.39-.41c-.63-2.22-1.27-4.44-1.9-6.66l-.92-3.3-.86-3.36c-1.14-4.47-2.18-8.9-3.09-13.28-.46-2.16-.85-4.44-1.22-6.65s-.7-4.43-1-6.63-.54-4.39-.74-6.57-.33-4.44-.42-6.65v-.06l-4.13-1.62c.11,5.48.53,11,1.18,16.68s1.66,11.09,2.76,16.76c.27,1.42.57,2.81.87,4.2l.94,4.19c.64,2.8,1.31,5.62,2,8.46l1,4.27,1.06,4.21c.7,2.82,1.41,5.66,2.09,8.51l-.47,2.07A219.66,219.66,0,0,1,165,466.72a222.32,222.32,0,0,1-41.41-26.12l1.36-1.71,8-3.65c2.66-1.2,5.29-2.36,8-3.62,5.31-2.47,10.5-4.9,15.58-7.49s10.09-5.38,14.85-8.27,9.43-6.12,13.78-9.45l-3.84-2.22,0,0c-1.78,1.3-3.62,2.59-5.47,3.81s-3.7,2.37-5.61,3.51-3.85,2.26-5.82,3.36-4,2.17-6,3.16q-6,3-12.35,5.87c-2.12,1-4.19,1.84-6.32,2.74l-6.4,2.68a.71.71,0,0,1-.64-.11l1.35-1.68c4.14-1.71,8.22-3.41,12.23-5.18s8-3.69,11.9-5.63,7.69-4,11.37-6.23q2.78-1.63,5.44-3.36,1.34-.85,2.64-1.74l2.63-1.85c-1.28-.68-2.46-1.53-3.69-2.3l-.06.05q-4,2.71-8.3,5.21c-2.83,1.64-5.7,3.15-8.65,4.64s-6,2.94-9,4.3-6.12,2.62-9.25,3.89a.68.68,0,0,1-.62-.09l1.29-1.61q4.47-1.82,8.81-3.7l2.15-1,2.17-1c1.43-.68,2.86-1.37,4.26-2.08q4.23-2.12,8.25-4.39c1.33-.75,2.69-1.57,4-2.39s2.63-1.66,3.92-2.51c-1.28-.84-2.62-1.62-3.85-2.55l0,0q-5.4,3.33-11.16,6.34c-1.94,1-3.84,1.94-5.8,2.85s-3.93,1.8-5.94,2.65a.6.6,0,0,1-.58-.06l1.28-1.61q5.56-2.4,10.84-5.06c3.56-1.86,7-3.81,10.38-5.84L167,394.82l-.08.06c-3.49,2-7.05,3.8-10.73,5.56a.56.56,0,0,1-.56,0l1.31-1.64c3.1-1.49,6.13-3,9.08-4.68l-3.28-2.58.64-.81c1.37,1.06,2.71,2.15,4.09,3.21ZM207,467a202.31,202.31,0,0,1-35.58-13.15A205.34,205.34,0,0,1,139,434.25a2,2,0,0,0-.16-.14c-2.3,1.09-4.57,2.11-6.86,3.15l-6.88,3.19,2.66,2.09c.89.68,1.75,1.41,2.68,2l5.51,3.93a216.87,216.87,0,0,0,74.73,33.12c-.61-2.46-1.21-4.9-1.81-7.35l-.92-3.64Zm-1.38-5.75-3.22-.91-1.61-.46-1.59-.53-6.34-2.15a.57.57,0,0,1-.53-.18c-.81-.25-1.6-.57-2.39-.88l-2.36-.93-4.74-1.87c-3.11-1.35-6.19-2.78-9.28-4.17-3-1.55-6.05-3.07-9.05-4.66l-4.41-2.54-2.21-1.27c-.74-.42-1.47-.84-2.18-1.31a.6.6,0,0,1-.47-.3l-5.63-3.62c-1-.58-1.85-1.24-2.76-1.89l-2.73-1.93-4.28,2,3.8,2.7c1.32.94,2.69,1.94,4.18,2.86l4.55,2.92c.78.49,1.55,1,2.36,1.49l2.46,1.42,5,2.88c.84.5,1.72.92,2.58,1.37l2.6,1.34c.87.44,1.74.88,2.6,1.33s1.72.9,2.6,1.28l5.19,2.35a197.53,197.53,0,0,0,18.52,7.12c1.29.42,2.49.86,3.6,1.18l3,.86,3.83,1.09ZM192,436.3c-1.08-1.05-2.36-.77-3.63-.21a18.39,18.39,0,0,0-6.66,5.86c-1.86,2.42-3.48,5.1-5.33,7.31l4.16,1.88a.58.58,0,0,1,.12-.1l2.5-1.46a45.18,45.18,0,0,1,5.29-3.48,20,20,0,0,0,3.26-3.08C193.2,441.16,193.89,438.2,192,436.3Zm-4.45,11.88c-.86.61-1.74,1.21-2.63,1.8s-1.8,1.33-2.69,1.92c1.69.73,3.41,1.36,5.11,2.05s3.4,1.37,5.13,2l0,0c2.24-1.24,5-3.47,5.11-6.13a3.05,3.05,0,0,0-2.39-3.28,7.3,7.3,0,0,0-4.39.09A15.68,15.68,0,0,0,187.51,448.18Zm-1.89-15.05c.93-2,1.57-5.91-1-7.05s-5.1,1.67-6.11,3.64a37.38,37.38,0,0,0-2.09,6.23q-1.77,5.83-3.41,11.73v0l1,.5,1,.44h0q3.74-5.17,7.33-10.39A36.72,36.72,0,0,0,185.62,433.13Zm-11.08-3.69c-.35-1.32-.94-2.51-2.43-2.69-2.69-.34-4.57,2.05-5.07,4.4a20.17,20.17,0,0,0-.38,4.44,45.15,45.15,0,0,1,.58,6.36c.14,1,.28,1.92.41,2.84a.43.43,0,0,1,0,.16l4.07,2.08c.57-2.82,1.65-5.76,2.39-8.73A18.41,18.41,0,0,0,174.54,429.44Zm-9.73,4.64a7.3,7.3,0,0,0-2.71-3.48,3.06,3.06,0,0,0-4,.17c-2,1.73-2,5.29-1.61,7.81v0c.76.51,1.57.94,2.36,1.41l2.38,1.37c1.6.9,3.16,1.85,4.78,2.71-.09-1.06-.12-2.18-.17-3.29s-.17-2.11-.23-3.16A16.62,16.62,0,0,0,164.81,434.08Zm21.3-27c-1.55,1.23-3.07,2.34-4.65,3.48s-3.17,2.24-4.8,3.32c-3.26,2.16-6.67,4.31-10.07,6.22s-6.94,3.85-10.54,5.71c-1.8.94-3.59,1.82-5.4,2.69l-5.47,2.62,2.42,1.72c.81.57,1.61,1.15,2.45,1.67l5,3.21c-.29-4.51,1.87-11.44,7.49-8.45a6.78,6.78,0,0,1,3,3,8.87,8.87,0,0,1,1.15-3.94c1.45-2.3,5.24-4,7.5-2.06,1.65,1.34,1.94,3.82,1.9,6.08.3-.82.62-1.64,1-2.45,1.28-2.95,4.81-6.72,8.14-5,3.59,1.64,2.61,6.92,1,9.82q-.59,1-1.2,2a13.39,13.39,0,0,1,2.88-1.92,5.12,5.12,0,0,1,3.15-.48c3.07.6,4,4.87,3,7.48a9,9,0,0,1-2.25,3.05,6.87,6.87,0,0,1,4.26.47c5.88,2.47,1.75,8.55-1.93,11.13l5.62,1.9,1.41.47,1.43.4,2.85.82-1.37-5.9-.65-2.93-.61-3c-.79-4-1.51-7.9-2.12-11.79s-1.06-7.87-1.4-11.75c-.17-2-.31-3.9-.4-5.83s-.18-3.82-.18-5.8c0,0,0-.07,0-.1l-6.3-2.84L186.18,407Z"/><path class="cls-1" d="M193.86,469.79a3.54,3.54,0,0,1,2-1.94,4.82,4.82,0,0,1,3.08-.09,4.07,4.07,0,0,1,3.06,4.75c-.56,2-2.77,2.87-5,2.43l-.23,0a.73.73,0,0,1-.22-.09C194.35,473.91,193.06,471.76,193.86,469.79Zm3.31,3.87c3.57.84,4.9-3.68,1.43-4.67a2.92,2.92,0,0,0-2.15.09,2.24,2.24,0,0,0-1.14,1.35,2.39,2.39,0,0,0,.15,1.81A2.8,2.8,0,0,0,197.17,473.66Z"/><path class="cls-1" d="M179,464.3a4.38,4.38,0,0,1,7.95,3.35c-.71,1.93-3,2.62-5.16,2a.63.63,0,0,1-.22-.07.82.82,0,0,1-.21-.1C179.23,468.38,178.08,466.22,179,464.3Zm3,4.05c3.47,1.18,5.13-3.24,1.78-4.55S178.71,466.84,182.06,468.35Z"/><path class="cls-1" d="M164.68,457.66a4.39,4.39,0,0,1,7.66,3.92c-.84,1.87-3.16,2.43-5.33,1.66a1.19,1.19,0,0,1-.22-.08.69.69,0,0,1-.19-.12C164.56,461.77,163.59,459.5,164.68,457.66Zm2.67,4.34c3.41,1.36,5.4-2.92,2.13-4.41S164.17,460.18,167.35,462Z"/><path class="cls-1" d="M150.83,450a4.2,4.2,0,0,1,5.49-.9,4.14,4.14,0,0,1,1.87,5.38c-1,1.8-3.32,2.15-5.4,1.18a.67.67,0,0,1-.21-.1.91.91,0,0,1-.19-.13C150.43,454.08,149.61,451.78,150.83,450Zm2.4,4.45c3.26,1.67,5.57-2.44,2.45-4.24S150.14,452.49,153.23,454.47Z"/><path class="cls-1" d="M137.66,441.3a4.09,4.09,0,0,1,5.49-.43,4.83,4.83,0,0,1,1.87,2.57,3.53,3.53,0,0,1-.37,2.89,3.35,3.35,0,0,1-2.42,1.47,4.77,4.77,0,0,1-3.09-.65,1,1,0,0,1-.2-.11l-.18-.15C136.93,445.34,136.31,443,137.66,441.3Zm2,4.67a2.82,2.82,0,0,0,2.17.46,2.46,2.46,0,0,0,1.51-1,2.27,2.27,0,0,0,.34-1.73,3,3,0,0,0-1.26-1.75C139.49,439.85,136.78,443.71,139.67,446Z"/><path class="cls-1" d="M125.29,346.06a155.45,155.45,0,0,0,38.13,44.63l-.64.81c-1-.82-2.07-1.58-3.11-2.53-1,3.33-1.89,6.54-2.73,9.83l-1.27,1.6a.77.77,0,0,1-.11-.48c.45-2,.92-3.9,1.45-5.85s1.11-3.89,1.7-5.81a.3.3,0,0,1,0-.1l-3.32-2.86c-1.22,3.71-2.32,7.52-3.33,11.39-.5,1.93-1,3.89-1.45,5.83l-1.29,5.78-1.25,1.57a.86.86,0,0,1-.13-.5c.39-2.15.78-4.22,1.27-6.35s1-4.23,1.55-6.3,1.14-4.13,1.75-6.16,1.24-4,2-6.07l0,0-3.34-3.19c-1.08,2.89-2.06,5.84-3,8.84-.45,1.5-.9,3-1.3,4.53s-.78,3-1.15,4.54c-1.46,6.08-2.77,12.39-3.91,18.53l-1.26,1.57a.94.94,0,0,1-.15-.51c.26-1.66.54-3.31.82-4.95s.63-3.32,1-5c.67-3.28,1.39-6.51,2.18-9.69s1.69-6.36,2.67-9.48,2-6.19,3.19-9.2l0-.07c-.54-.48-1-1-1.53-1.55l-1.5-1.57a176.1,176.1,0,0,0-8,24.48c-1.06,4.21-2,8.44-2.86,12.77-.45,2.16-.87,4.34-1.3,6.54s-.76,4.34-1.15,6.52l-1.31,1.64a.9.9,0,0,1-.17-.53c.39-2.29.75-4.53,1.18-6.82s.87-4.55,1.32-6.8.92-4.48,1.41-6.69l.75-3.29c.26-1.1.55-2.22.83-3.31,1.14-4.4,2.37-8.71,3.74-12.9.33-1,.69-2.1,1.07-3.16s.76-2.1,1.16-3.14c.78-2.08,1.61-4.13,2.47-6.15l0,0-1.54-1.61c-.52-.53-1-1.12-1.47-1.67-.59,1.26-1.16,2.54-1.71,3.83s-1,2.55-1.56,3.84c-1,2.58-2,5.2-2.87,7.87-1.86,5.38-3.35,10.75-4.8,16.3l-1.05,4.19c-.35,1.4-.7,2.82-1,4.21l-1.86,8.44q-1.82,8.55-3.65,17.13l-1.33,1.66-2.4-1.9c-.8-.63-1.56-1.32-2.34-2l-4.62-4c-1.57-1.31-3-2.76-4.49-4.16l-4.42-4.23-4.23-4.42L99,417.69c-.35-.38-.71-.74-1-1.12l-1-1.15-4-4.63c-.66-.77-1.34-1.53-2-2.33l-1.9-2.4A222.68,222.68,0,0,1,62.9,364.65l2-.95c5.93.07,11.79.22,17.57.33,1.45,0,2.87.07,4.33.07h4.37c2.9,0,5.77,0,8.62-.11l4.25-.12c1.41-.06,2.86-.15,4.28-.23,2.84-.19,5.66-.41,8.44-.7a149.53,149.53,0,0,0,16.51-2.56l-2.58-3.61h-.06a169.27,169.27,0,0,1-26.54,2.56c-9.12.26-18.17-.17-27.54-.64a.69.69,0,0,1-.54-.37l1.94-.94c4.5.25,9,.46,13.35.6,2.2.06,4.35.13,6.56.14s4.4,0,6.58-.07,4.34-.12,6.48-.23,4.26-.23,6.43-.44c4.3-.41,8.53-.95,12.68-1.66l-2.34-3.66h-.07c-1.61.24-3.25.46-4.87.65s-3.21.31-4.83.44c-3.25.25-6.53.4-9.86.48s-6.6,0-9.94-.06-6.7-.26-10.1-.46a.7.7,0,0,1-.52-.34l1.86-.9c6.48.38,12.79.62,19,.53,3.17-.07,6.31-.21,9.41-.44,1.54-.11,3.08-.24,4.62-.4s3-.32,4.59-.55c-.43-.63-.78-1.32-1.17-2l-1.15-2h0a167.68,167.68,0,0,1-25.81.81.65.65,0,0,1-.51-.31l1.85-.89q6.1.22,12,.07c2-.05,3.94-.13,5.9-.25s4-.3,5.94-.5L123,344.1l-1-2h-.1c-4,.29-8,.41-12.13.42a.57.57,0,0,1-.49-.28l1.88-.91c3.47,0,6.9-.12,10.28-.33l-1.9-3.71.92-.45,2.37,4.61c.4.77.77,1.55,1.2,2.3Zm1.43,78.41a205.12,205.12,0,0,1-47.16-58.9l-.07-.2c-5-.09-10.07-.19-15.18-.22l3.08,6c.53,1,1,2,1.58,3l1.68,2.94a218.46,218.46,0,0,0,52.92,62.18C124.62,434.33,125.67,429.4,126.72,424.47Zm1.23-5.74-1.26-1.1c-.42-.36-.84-.73-1.24-1.12L123,414.2l-2.42-2.31c-.81-.77-1.62-1.53-2.38-2.35a.59.59,0,0,1-.39-.41A200.9,200.9,0,0,1,92.5,377.39a.56.56,0,0,1-.3-.47c-2.49-3.71-4.64-7.62-6.87-11.49-1.59,0-3.14,0-4.7-.05.64,1.33,1.46,2.66,2.26,4.08l2.53,4.4.66,1.14c.23.38.48.75.72,1.14.49.75,1,1.52,1.47,2.3l3,4.74c1.09,1.57,2.22,3.14,3.34,4.72.56.79,1.13,1.58,1.69,2.38.29.39.56.8.86,1.18l.9,1.15,3.59,4.57c.6.75,1.17,1.53,1.79,2.24l1.85,2.14,3.6,4.14c.57.69,1.2,1.31,1.79,1.94l1.76,1.85,3.32,3.48c1.07,1.1,2.15,2.07,3.12,3l2.74,2.61c.84.79,1.58,1.53,2.3,2.12l3,2.6Zm-1.51-28.36c-.47-1.45-1.71-1.79-3.13-1.8a18.64,18.64,0,0,0-8.58,2.43c-2.73,1.38-5.37,3.12-8,4.28,1,1.18,2,2.31,3,3.47l.16,0,2.9-.25a41,41,0,0,1,6.21-.79,21,21,0,0,0,4.3-1.38C125.49,395.26,127.36,392.92,126.44,390.37Zm-9.16,8.78c-1,.17-2.07.32-3.11.45s-2.16.39-3.23.55c2.35,2.82,4.94,5.41,7.46,8.07h0a13.85,13.85,0,0,0,4.08-.78,5.68,5.68,0,0,0,3.13-2.49c1.74-3.32-1.94-5.52-4.7-5.84A16.59,16.59,0,0,0,117.28,399.15Zm4.82-14.4a8.89,8.89,0,0,0,2.4-3.11,3.49,3.49,0,0,0-.15-3.7c-1.74-2.22-5.37-.67-7.14.68a37.53,37.53,0,0,0-4.56,4.7q-4.11,4.49-8.13,9.08h0l1.34,1.71,0,0c3.72-2,7.38-4.05,11-6.15A35.62,35.62,0,0,0,122.1,384.75Zm-8.36-8.14c.3-1.37.25-2.68-1-3.48-2.31-1.44-5-.1-6.5,1.8a20,20,0,0,0-2.24,3.82,41.58,41.58,0,0,1-2.2,6c-.31.95-.61,1.88-.91,2.78a.59.59,0,0,1-.06.14c.88,1.24,1.86,2.4,2.79,3.61,1.72-2.29,4-4.47,5.91-6.82A19.11,19.11,0,0,0,113.74,376.61Zm-10.82,0a7.72,7.72,0,0,0,0-1.08,7.48,7.48,0,0,0-.12-1.14,6.5,6.5,0,0,0-.75-2.13,3.12,3.12,0,0,0-3.75-1.55c-2.59.68-4.11,3.87-4.79,6.32v0L95,379.37l.75,1.16.79,1.12,3.19,4.48c.4-1,.84-2,1.27-3.05s.74-2,1.13-2.93A15.51,15.51,0,0,0,102.92,376.61Zm30.94-15.18q-5.66,1.23-11.51,2.07c-2,.3-3.88.51-5.84.71s-3.91.37-5.89.52c-8,.65-15.9.71-24.1.7,2,3.42,3.87,6.91,6.07,10.2,1.65-4.17,6.56-9.47,10.43-4.4a7,7,0,0,1,1.37,4.08,8.78,8.78,0,0,1,2.75-3.06,6.77,6.77,0,0,1,4.24-.87,4.15,4.15,0,0,1,3.47,2.22c.91,1.92,0,4.36-1,6.34.63-.61,1.27-1.21,1.93-1.78,2.42-2.11,7.25-4,9.55-1a4,4,0,0,1,.86,2.52,5.81,5.81,0,0,1-.63,2.59,11.38,11.38,0,0,1-3.66,4.2q-1,.66-2,1.29c2.22-.56,4.82-.92,6.51.44a3.65,3.65,0,0,1,1.21,1.82,4.9,4.9,0,0,1,.18,2.2,6.66,6.66,0,0,1-2,4,9.15,9.15,0,0,1-3.36,1.79,6.71,6.71,0,0,1,3.67,2.24,6.21,6.21,0,0,1,1.06,1.79,3.75,3.75,0,0,1,.27,1.6,4.33,4.33,0,0,1-1.41,2.75,12.88,12.88,0,0,1-6.54,3.09c1.4,1.39,2.85,2.74,4.28,4.11s2.84,2.76,4.35,4c.84-3.92,1.81-7.92,2.8-11.81q.74-2.92,1.52-5.8c.54-1.92,1-3.79,1.66-5.71a164.41,164.41,0,0,1,8.38-22,.41.41,0,0,1,.05-.09c-1.51-1.75-3.07-3.45-4.45-5.31L136,364.17c-.36-.45-.72-.9-1.07-1.36l-1-1.41Z"/><path class="cls-1" d="M113.65,421.34a4.12,4.12,0,0,1,5.51.37c1.63,1.62,2,4.1.65,5.64a3.37,3.37,0,0,1-2.61,1.11,4.55,4.55,0,0,1-1.52-.29,6.05,6.05,0,0,1-1.42-.83,1.19,1.19,0,0,1-.18-.15.8.8,0,0,1-.15-.17C112.34,425.23,112.07,422.78,113.65,421.34Zm1.31,4.91A2.91,2.91,0,0,0,117,427a2.42,2.42,0,0,0,1.65-.79,2.24,2.24,0,0,0,.59-1.65,2.83,2.83,0,0,0-1-1.94C115.68,420.18,112.43,423.6,115,426.25Z"/><path class="cls-1" d="M102.69,410a4.22,4.22,0,0,1,5.48.77,4.11,4.11,0,0,1,.24,5.66c-1.47,1.44-3.82,1.1-5.54-.42a.64.64,0,0,1-.17-.16.84.84,0,0,1-.15-.18C101,413.8,101,411.28,102.69,410Zm1,5c2.65,2.53,6.06-.73,3.58-3.33a2.47,2.47,0,0,0-3.6-.36A2.55,2.55,0,0,0,103.64,415Z"/><path class="cls-1" d="M92.62,397.8A4.14,4.14,0,0,1,98,399a4.63,4.63,0,0,1,1,3,3.49,3.49,0,0,1-1.2,2.64,3.33,3.33,0,0,1-2.75.71,5.13,5.13,0,0,1-2.72-1.56,1.29,1.29,0,0,1-.15-.17.76.76,0,0,1-.13-.2C90.76,401.44,90.84,399,92.62,397.8Zm.58,5c2.41,2.77,6-.23,3.82-3.05S91.08,399.85,93.2,402.83Z"/><path class="cls-1" d="M83.49,384.91a3.56,3.56,0,0,1,2.81-.25,5,5,0,0,1,2.47,1.84,4.08,4.08,0,0,1-.59,5.63c-1.66,1.19-3.94.52-5.43-1.24a1.29,1.29,0,0,1-.15-.17,1.06,1.06,0,0,1-.11-.21,4.82,4.82,0,0,1-.64-3.19A3.32,3.32,0,0,1,83.49,384.91Zm.18,5.08c2.26,2.88,6.12.17,4-2.76a3.48,3.48,0,0,0-.85-.86A2.47,2.47,0,0,0,86,386a2.26,2.26,0,0,0-1.72.35,2.46,2.46,0,0,0-1,1.51,2.78,2.78,0,0,0,0,1A3.4,3.4,0,0,0,83.67,390Z"/><path class="cls-1" d="M75.32,371.38a4.37,4.37,0,0,1,4.12,7.56c-1.75,1.07-3.94.21-5.26-1.67,0-.06-.09-.12-.13-.19l-.1-.21C72.94,374.7,73.39,372.29,75.32,371.38Zm-.15,5.05c2,3.09,6,.67,4.23-2.45S73.5,373.17,75.17,376.43Z"/><path class="cls-1" d="M105.55,280.21a153.41,153.41,0,0,0,14.87,56.69l-.92.45c-.55-1.2-1.07-2.37-1.65-3.64-2.28,2.53-4.56,5.08-6.78,7.7l-1.84.89a.81.81,0,0,1,.12-.48c2.56-3.21,5.22-6.21,7.93-9.16l.07-.07-.91-2c-.29-.67-.53-1.36-.8-2-1.38,1.41-2.78,2.88-4.09,4.35s-2.6,3-3.88,4.47c-2.55,3-5.06,6.16-7.54,9.3l-1.81.87a.83.83,0,0,1,.11-.5q3.9-5.34,8-10.2c.69-.81,1.38-1.61,2.08-2.41s1.41-1.58,2.15-2.37q2.21-2.37,4.45-4.63l0,0-1.69-4.28a167.32,167.32,0,0,0-12.66,13.78c-3.93,4.82-7.74,9.9-11.56,15l-1.81.88a.92.92,0,0,1,.1-.54q2.94-4.18,5.93-8.17c1-1.33,2-2.65,3-3.94l1.53-1.93,1.59-1.92c2.14-2.54,4.31-5,6.53-7.38s4.46-4.67,6.88-6.9l.06,0-1.39-4.11q-4.73,4.22-9.23,8.9c-3,3.1-5.76,6.31-8.57,9.65q-2.1,2.5-4.17,5.09c-1.34,1.71-2.66,3.44-4,5.19-2.64,3.5-5.27,7.1-7.9,10.74l-1.89.91a1,1,0,0,1,.08-.56c5.48-7.64,10.77-14.95,16.66-21.91,1.45-1.72,2.92-3.42,4.39-5.08.75-.84,1.47-1.65,2.24-2.47s1.55-1.64,2.33-2.44q4.68-4.81,9.59-9.15l0,0c-.26-.7-.42-1.42-.63-2.13l-.6-2.13c-2.14,1.76-4.24,3.59-6.32,5.49s-4,3.82-6,5.83c-3.91,4-7.8,8.26-11.4,12.6q-2.74,3.28-5.47,6.67l-2.73,3.41-2.64,3.41c-3.52,4.57-7.08,9.23-10.74,13.88l-1.91.92a220.08,220.08,0,0,1-21.61-94.84h2.19c5.31,2.63,10.53,5.32,15.69,7.93L63,279.68c1.29.64,2.62,1.28,3.92,1.91q3.93,1.88,7.82,3.65c2.62,1.18,5.16,2.33,7.8,3.4s5.3,2.1,7.93,3.06,5.28,1.85,7.91,2.67,5.38,1.55,8.06,2.22c-.24-1.46-.57-2.91-.71-4.38l-.06,0c-4.22-1.17-8.43-2.55-12.64-4.1-2.14-.77-4.17-1.6-6.23-2.46s-4.11-1.77-6.17-2.7S76.53,281,74.46,280s-4-2-6.09-3.09c-4-2.1-8.12-4.31-12.23-6.55a.7.7,0,0,1-.33-.57H58c4,2.17,7.87,4.3,11.77,6.33,2,1,3.89,2,5.83,3s4,1.91,6,2.81c4,1.81,7.93,3.5,11.89,5s8.12,2.87,12.18,4l-.55-4.32H105l-2.34-.75-2.28-.8c-1.52-.54-3-1.12-4.56-1.71-3-1.19-6.07-2.49-9.1-3.86-1.54-.69-3-1.41-4.47-2.14s-3-1.48-4.43-2.25q-4.44-2.31-8.9-4.81a.66.66,0,0,1-.33-.53h2.06c5.67,3.16,11.29,6.12,16.92,8.76a170,170,0,0,0,17.36,6.88l-.34-4.61h0c-2-.71-4-1.46-6-2.26s-3.92-1.64-5.89-2.51q-5.85-2.64-11.68-5.75a.61.61,0,0,1-.32-.5h2q5.4,2.87,10.83,5.31c3.61,1.64,7.21,3.14,11,4.49,0-.73-.14-1.45-.15-2.19l0-2.19-.09,0c-3.72-1.49-7.42-3.14-11.12-4.92a.58.58,0,0,1-.32-.47h2.09q4.69,2.25,9.41,4.19l-.11-4.19h1l.14,5.21.06,2.6C105.4,278.49,105.49,279.35,105.55,280.21Zm-32.8,71.24a204.1,204.1,0,0,1-16.84-73.59,1.36,1.36,0,0,1,0-.21c-4.47-2.25-9-4.54-13.59-6.78l.17,6.75L42.6,281l.25,3.37a215.54,215.54,0,0,0,20.63,79.09C66.64,359.45,69.71,355.42,72.75,351.45Zm3.58-4.64-2.46-6.22L73.26,339c-.21-.52-.41-1-.58-1.57l-1.07-3.17a.58.58,0,0,1-.18-.53,197.26,197.26,0,0,1-9-39.63.6.6,0,0,1-.07-.55l-.42-3.32-.26-3.34-.5-6.67L57,278.16c.24,5.89.82,13.11,1.89,20.66.2,1.9.59,3.8.92,5.71s.68,3.84,1,5.76.86,3.79,1.28,5.67c.22.94.43,1.87.65,2.8s.41,1.85.68,2.74c.51,1.8,1,3.57,1.5,5.29s.94,3.4,1.5,5L68,336.33l.71,2.12c.23.68.46,1.35.72,2l2.54,6.44c.34.86.62,1.61.89,2.22s.49,1.09.65,1.44C74.42,349.28,75.34,348.06,76.33,346.81Zm11-26.23c.19-1.5-.79-2.35-2.07-3a19.21,19.21,0,0,0-8.79-1.54c-3,.05-6.14.45-9,.38.34,1.48.67,3,1.11,4.42l.15,0,2.75,1a41.87,41.87,0,0,1,6,2,20,20,0,0,0,4.4.64C84.26,324.6,87,323.29,87.33,320.58Zm-12.06,3.93c-1-.29-2-.61-3-.95s-2.12-.57-3.16-.9l1.5,5.29c.52,1.76,1.15,3.48,1.73,5.22h0c2.33,1,5.77,1.79,7.92.19,3-2.26.58-5.8-1.76-7.28A15.43,15.43,0,0,0,75.27,324.51Zm10.56-10.86c2.18-.54,5.62-2.45,5-5.16s-4.59-2.92-6.76-2.48a37.38,37.38,0,0,0-6.15,2.24q-5.64,2.25-11.25,4.63h0l.49,2.11h0q6.33-.3,12.64-.74A34.83,34.83,0,0,0,85.83,313.65Zm-4-11c.86-1.1,1.38-2.3.56-3.57-1.5-2.3-4.47-2.29-6.65-1.21a18.55,18.55,0,0,0-3.67,2.46,41.15,41.15,0,0,1-4.56,4.41l-2,2.1-.13.1.41,2.25c.12.75.33,1.48.49,2.23,2.54-1.31,5.5-2.29,8.27-3.56A18.84,18.84,0,0,0,81.87,302.68ZM72.11,298c1.5-2.38,2-6.63-1.59-7.32-2.63-.51-5.38,1.7-7,3.6l0,0,.69,5.46c.3,1.8.64,3.61,1,5.41.79-.74,1.63-1.46,2.45-2.18s1.52-1.45,2.29-2.15A18,18,0,0,0,72.11,298Zm34.48-.19c-3.75-.9-7.57-1.94-11.29-3.14s-7.38-2.55-11.08-4q-2.79-1.09-5.57-2.26T73.2,286c-3.64-1.65-7.3-3.39-11-5.18l.45,5.91.22,3c.09,1,.24,2,.35,2.94,3.29-3,10-5.65,11.33.59a6.63,6.63,0,0,1-.56,4.27,9,9,0,0,1,3.83-1.56A6.48,6.48,0,0,1,82,297a4.21,4.21,0,0,1,2.18,3.5c0,2.13-1.84,3.92-3.64,5.29.83-.27,1.67-.54,2.52-.77a10.85,10.85,0,0,1,5.35-.07,4.58,4.58,0,0,1,3.69,3.3c.87,3.86-3.9,6.39-7.18,6.91-.77.11-1.55.22-2.32.31,2.24.45,4.77,1.26,5.73,3.2a4.19,4.19,0,0,1-.54,4.24,6.7,6.7,0,0,1-3.54,2.74,9,9,0,0,1-3.81.15,6.82,6.82,0,0,1,2.38,3.6c1.62,6.18-5.68,6.72-9.94,5.44l1,2.81c.33.93.71,1.84,1.07,2.76.73,1.84,1.45,3.69,2.18,5.52q3.81-4.81,7.63-9.44c1.29-1.54,2.54-3,3.88-4.55s2.68-3,4-4.45c2.71-2.92,5.43-5.72,8.24-8.4s5.82-5.29,8.82-7.72l.08-.06-.47-1.66-.24-.83-.2-.84-.77-3.37-.78-3.36-.6-3.41Z"/><path class="cls-1" d="M62.3,343a4.37,4.37,0,0,1,3,8.09c-1.9.8-3.94-.38-5-2.44a1,1,0,0,1-.11-.2,1.12,1.12,0,0,1-.06-.23C59.46,345.89,60.25,343.57,62.3,343Zm-.9,5c1.51,3.35,5.88,1.56,4.56-1.79S60.23,344.46,61.4,347.93Z"/><path class="cls-1" d="M57.41,327.92a4.39,4.39,0,0,1,2.34,8.29c-1.94.65-3.94-.66-4.85-2.78a1,1,0,0,1-.08-.21.7.7,0,0,1,0-.23C54.32,330.63,55.32,328.37,57.41,327.92Zm-1.36,4.92a2.63,2.63,0,0,0,3.25,1.84,2.42,2.42,0,0,0,1.43-3.29C59.74,327.93,55.21,329.26,56.05,332.84Z"/><path class="cls-1" d="M53.58,312.57A4.2,4.2,0,0,1,58,316a4.14,4.14,0,0,1-2.67,5c-2,.51-3.84-1-4.54-3.15a.81.81,0,0,1-.07-.22,1.11,1.11,0,0,1,0-.23C50.33,315,51.46,312.87,53.58,312.57ZM52,317.35c1,3.53,5.58,2.42,4.77-1.09S51.31,313.74,52,317.35Z"/><path class="cls-1" d="M51,297a4.39,4.39,0,0,1,1.06,8.55c-2,.35-3.81-1.25-4.36-3.48a.79.79,0,0,1,0-.22.66.66,0,0,1,0-.24C47.56,299.19,48.89,297.11,51,297Zm-2.08,4.65a2.62,2.62,0,0,0,2.93,2.32,2.43,2.43,0,0,0,1.91-3C53.32,297.33,48.65,298,48.94,301.62Z"/><path class="cls-1" d="M49.54,281.25a4.36,4.36,0,0,1,.44,8.59c-2,.2-3.64-1.53-4-3.8a.78.78,0,0,1,0-.22,1,1,0,0,1,0-.24C46,283.19,47.4,281.22,49.54,281.25Zm-2.33,4.47c.46,3.63,5.16,3.23,4.88-.36S47.12,282.06,47.21,285.72Z"/><path class="cls-1" d="M116.28,212.23a155.1,155.1,0,0,0-11.12,57.58h-1c0-1.32.07-2.6.11-4-3.17,1.3-6.32,2.61-9.46,4h-2a.84.84,0,0,1,.33-.38c3.7-1.78,7.39-3.34,11.11-4.83l.1,0c0-1.46,0-2.93.19-4.38-3.78,1.35-7.36,2.89-11,4.51s-7.24,3.36-10.84,5.11h-2a.85.85,0,0,1,.32-.41c3.88-2.07,7.78-4,11.68-5.7,2-.86,3.89-1.69,5.87-2.48s4-1.54,6-2.25h0l.35-4.61a169.18,169.18,0,0,0-17.38,7c-5.64,2.65-11.27,5.57-16.94,8.51h-2a1,1,0,0,1,.32-.44q4.47-2.49,8.9-4.79,2.22-1.14,4.44-2.24c1.48-.72,2.92-1.43,4.46-2.11q4.55-2.06,9.1-3.83,2.28-.9,4.56-1.71c1.52-.54,3-1.06,4.61-1.55H105l.55-4.32c-4.06,1.18-8.14,2.53-12.19,4s-7.92,3.2-11.9,5c-2,.9-4,1.83-6,2.79s-3.88,1.94-5.83,2.94c-3.9,2-7.83,4.11-11.79,6.24h-2.1a1,1,0,0,1,.32-.46c4.12-2.25,8.19-4.45,12.24-6.55,2-1.05,4-2.07,6.08-3.07s4.14-2,6.2-2.89,4.12-1.83,6.17-2.68,4.08-1.69,6.21-2.46q6.33-2.31,12.64-4.1h.06c.15-1.47.46-2.92.71-4.38-2.68.67-5.42,1.4-8.06,2.22s-5.27,1.72-7.91,2.68-5.29,2-7.94,3-5.19,2.21-7.8,3.38-5.21,2.39-7.83,3.63c-1.3.63-2.64,1.25-3.92,1.89L59.12,262c-5.16,2.58-10.39,5.23-15.7,7.82H41.29A219.92,219.92,0,0,1,62.9,175l2,.95c3.63,4.68,7.17,9.37,10.68,14l2.64,3.43,2.71,3.42q2.71,3.39,5.45,6.68c3.6,4.35,7.5,8.63,11.4,12.63,1,1,2,2,3,2.95s2,1.92,3,2.88c2.07,1.89,4.17,3.72,6.31,5.47.41-1.41.78-2.85,1.22-4.26l-.05,0a168.46,168.46,0,0,1-18.54-19.18c-5.89-7-11.17-14.31-16.65-21.95a.68.68,0,0,1,0-.65l1.94.94c2.61,3.67,5.22,7.29,7.85,10.82,1.31,1.76,2.61,3.49,4,5.21s2.76,3.44,4.16,5.12,2.8,3.32,4.22,4.93,2.81,3.17,4.34,4.74q4.5,4.68,9.21,8.89l1.39-4.11,0,0c-1.19-1.11-2.4-2.26-3.53-3.41s-2.25-2.31-3.36-3.5q-3.33-3.59-6.52-7.42L98,201.52l-1.53-1.93c-1-1.3-2-2.62-3-4-2-2.67-4-5.41-5.93-8.19a.66.66,0,0,1-.06-.62l1.86.89c3.72,5.31,7.49,10.41,11.44,15.23a166.23,166.23,0,0,0,12.67,13.71c.53-1.45,1.13-2.86,1.68-4.3l0,0a166.61,166.61,0,0,1-16.71-19.69.63.63,0,0,1-.07-.59l1.85.9c2.41,3.27,4.9,6.43,7.44,9.47,1.28,1.52,2.57,3,3.87,4.46s2.71,2.92,4.09,4.33l.8-2,.91-2-.08-.06q-4-4.42-7.88-9.25a.53.53,0,0,1-.08-.55l1.88.91c2.16,2.7,4.39,5.32,6.66,7.84l1.72-3.8.92.44-2.13,4.73c-.35.79-.73,1.57-1.06,2.36Zm-60.38,50a204.19,204.19,0,0,1,16.66-73.63.86.86,0,0,1,.11-.19c-3-4-6.13-8-9.29-12l-2.79,6.17c-.46,1-1,2.05-1.37,3.09L58,188.8A217.09,217.09,0,0,0,42.34,269C46.92,266.76,51.44,264.47,55.9,262.22Zm5.22-2.63q.26-3.33.5-6.66l.26-3.34.41-3.32a.64.64,0,0,1,.07-.56,198.15,198.15,0,0,1,9-39.63.62.62,0,0,1,.18-.53c1.35-4.26,3.1-8.37,4.72-12.53-1-1.25-1.93-2.47-2.89-3.71-.63,1.33-1.18,2.79-1.78,4.3l-1.86,4.73c-.68,1.62-1.22,3.34-1.82,5.08l-1.8,5.35c-.59,1.81-1.08,3.69-1.62,5.55-.26.94-.53,1.88-.8,2.81s-.55,1.88-.75,2.83q-.66,2.85-1.31,5.67c-.22.93-.43,1.87-.64,2.79s-.35,1.87-.53,2.78c-1.42,7.35-2.28,14.23-2.8,19.64s-.74,9.35-.71,10.85Zm21.27-18.87c.83-1.28.31-2.46-.56-3.58A18.83,18.83,0,0,0,74.55,232c-2.79-1.27-5.73-2.25-8.28-3.55-.38,1.47-.61,3-.88,4.47l.12.1c.65.69,1.33,1.4,2,2.11A42.19,42.19,0,0,1,72,239.45a19.12,19.12,0,0,0,3.71,2.49,6.38,6.38,0,0,0,3.58.65A4.14,4.14,0,0,0,82.39,240.72Zm-12.57-1.67c-.78-.71-1.55-1.43-2.31-2.17s-1.66-1.44-2.45-2.18c-.32,1.81-.67,3.61-.94,5.42l-.7,5.45,0,0c1.68,1.9,4.42,4.1,7,3.59,3.73-.71,3.07-5,1.59-7.32A17.36,17.36,0,0,0,69.82,239.05ZM84,233.81c2.18.45,6.13.22,6.75-2.49s-2.84-4.61-5-5.15a37.42,37.42,0,0,0-6.52-.64q-6.06-.41-12.16-.69h0L66.6,227h0q5.84,2.47,11.7,4.8A36,36,0,0,0,84,233.81Zm1.17-11.6c1.27-.62,2.26-1.48,2.08-3-.33-2.71-3.08-4-5.47-4a19.7,19.7,0,0,0-4.38.63,41.35,41.35,0,0,1-6,2l-2.73,1-.15,0c-.45,1.45-.75,2.95-1.1,4.43,2.87-.08,6,.31,9,.36a25.74,25.74,0,0,0,4.49-.26A15,15,0,0,0,85.2,222.21Zm-6.75-8.47c2.35-1.5,4.73-5.08,1.75-7.28-2.15-1.6-5.59-.8-7.93.19h0l-.88,2.61c-.29.87-.6,1.73-.83,2.62L69,217.18c1-.33,2.11-.61,3.17-.91s2-.65,3-.94A15.87,15.87,0,0,0,78.45,213.74Zm31.17,14.74c-3-2.43-5.93-5-8.82-7.71s-5.54-5.48-8.25-8.4c-5.5-5.85-10.45-12-15.56-18.42l-2.18,5.52c-.36.92-.75,1.83-1.07,2.77l-.95,2.81c4.29-1.31,11.48-.76,9.94,5.42a6.68,6.68,0,0,1-2.35,3.61,8.83,8.83,0,0,1,4.12.25,6.69,6.69,0,0,1,3.31,2.77,4.18,4.18,0,0,1,.44,4.1c-.93,1.91-3.39,2.72-5.59,3.18.87.12,1.74.24,2.6.39,3.16.58,7.65,3.19,6.78,6.84-.45,1.94-2.06,2.92-3.88,3.35a11.29,11.29,0,0,1-5.56-.23L80.37,234c1.84,1.38,3.75,3.19,3.76,5.36A4.3,4.3,0,0,1,81.82,243a6.6,6.6,0,0,1-4.36.95,9.25,9.25,0,0,1-3.5-1.52,6.75,6.75,0,0,1,.57,4.27c-.62,3.14-2.65,4-4.89,3.78a12.59,12.59,0,0,1-6.43-3.18c-.11,1-.28,2-.34,3l-.23,2.95-.45,5.92c3.69-1.79,7.35-3.54,11-5.2q2.73-1.24,5.45-2.43c1.84-.78,3.71-1.54,5.56-2.27,3.71-1.45,7.4-2.8,11.09-4,1.82-.61,3.75-1.16,5.62-1.69s3.78-1,5.66-1.46h.1l.6-3.41c.24-1.12.52-2.24.77-3.37.53-2.24,1-4.5,1.67-6.7Z"/><path class="cls-1" d="M50.17,250.06a4.36,4.36,0,0,1-.85,8.56c-2-.1-3.38-2.05-3.41-4.34a.88.88,0,0,1,0-.23.79.79,0,0,1,0-.23C46.34,251.46,48.06,249.72,50.17,250.06Zm-3,4.08c-.1,3.66,4.61,3.94,4.88.36S47.65,250.51,47.2,254.14Z"/><path class="cls-1" d="M52.24,234.39a3.49,3.49,0,0,1,2.23,1.73,5,5,0,0,1,.56,3,4.07,4.07,0,0,1-4.25,3.73c-2-.26-3.25-2.3-3.15-4.6a.6.6,0,0,1,0-.23.78.78,0,0,1,0-.23C48.25,235.5,50.18,233.9,52.24,234.39Zm-3.33,3.85c-.29,3.65,4.38,4.29,4.84.72a3,3,0,0,0-.42-2.12,2.25,2.25,0,0,0-1.5-.92,2.44,2.44,0,0,0-1.77.42A2.8,2.8,0,0,0,48.91,238.24Z"/><path class="cls-1" d="M55.46,218.91a4.37,4.37,0,0,1-2.14,8.35c-2-.41-3-2.53-2.71-4.81a1,1,0,0,1,0-.23,1.42,1.42,0,0,1,.07-.22C51.45,219.72,53.42,218.26,55.46,218.91Zm-3.56,3.6c-.65,3.61,4,4.59,4.77,1.08S52.9,219,51.9,222.51Z"/><path class="cls-1" d="M59.86,203.72a4.1,4.1,0,0,1,2,5.12,4.06,4.06,0,0,1-4.75,3c-2-.56-2.87-2.76-2.43-5a1.06,1.06,0,0,1,0-.23.58.58,0,0,1,.08-.22C55.76,204.21,57.89,202.92,59.86,203.72ZM56,207c-.84,3.57,3.68,4.9,4.67,1.44a2.44,2.44,0,0,0-1.43-3.29A2.61,2.61,0,0,0,56,207Z"/><path class="cls-1" d="M65.36,188.89A4.37,4.37,0,0,1,62,196.83c-1.93-.71-2.62-3-2-5.17a.7.7,0,0,1,.07-.22.68.68,0,0,1,.1-.21C61.29,189.09,63.45,187.94,65.36,188.89Zm-4,3c-1.17,3.48,3.24,5.14,4.56,1.79S62.82,188.57,61.31,191.91Z"/><path class="cls-1" d="M155.5,155.66a155.5,155.5,0,0,0-35.08,47.06l-.92-.44,1.82-3.56c-3.41-.21-6.81-.4-10.25-.51l-1.84-.88a.83.83,0,0,1,.46-.21c4.1,0,8.1.22,12.1.5h.09l1-1.95,1.1-1.89c-2-.2-4-.37-6-.49s-3.94-.19-5.92-.25c-4-.11-8-.13-12-.12l-1.81-.87a.92.92,0,0,1,.47-.23,169.53,169.53,0,0,1,25.76.88h0c.78-1.33,1.51-2.68,2.32-4a165.55,165.55,0,0,0-18.68-1.32c-6.23-.08-12.55.11-18.94.29l-1.81-.87a1,1,0,0,1,.48-.26c3.4-.2,6.77-.36,10.09-.45,1.66,0,3.32-.07,5-.08h2.46l2.5.06q5,.12,9.84.5,2.43.19,4.83.45c1.61.17,3.25.4,4.86.64l.07,0,2.35-3.67c-4.16-.71-8.4-1.25-12.7-1.66-2.17-.21-4.27-.33-6.42-.45s-4.3-.19-6.48-.25-4.37-.08-6.57-.09-4.35.06-6.55.11c-4.38.12-8.83.3-13.32.51L76,181.28a1,1,0,0,1,.49-.28c9.38-.47,18.41-.88,27.51-.6A173.06,173.06,0,0,1,130.51,183l.06,0c.84-1.22,1.72-2.42,2.57-3.63-2.7-.57-5.45-1.07-8.22-1.5l-2.09-.32-2-.26c-1.38-.17-2.77-.33-4.16-.47-5.55-.56-11.33-1-17-1.07q-4.26-.1-8.61-.13H86.68c-1.46,0-2.88,0-4.32,0-5.77.09-11.63.21-17.55.24L62.9,175A222.3,222.3,0,0,1,89,133.62l1.9-2.4c.63-.8,1.32-1.56,2-2.34l4-4.62c1.31-1.57,2.76-3,4.16-4.5l4.23-4.42,4.43-4.24,2.22-2.11c.37-.35.74-.71,1.12-1l1.15-1,4.64-4c.78-.67,1.54-1.36,2.34-2L123.57,99l1.36,1.71,1.77,8.59c.6,2.87,1.21,5.73,1.81,8.6s1.2,5.66,1.82,8.45,1.34,5.64,2,8.41c1.43,5.56,2.93,10.94,4.78,16.32.91,2.66,1.86,5.29,2.87,7.87.51,1.29,1,2.55,1.56,3.83s1.13,2.56,1.71,3.83c.49-.56,1-1.14,1.46-1.68l1.54-1.6,0-.06c-1.71-4-3.3-8.22-4.7-12.46s-2.59-8.51-3.71-12.91l-.83-3.33-.74-3.29c-.49-2.21-.95-4.45-1.4-6.7s-.89-4.52-1.32-6.81-.79-4.53-1.18-6.82a.69.69,0,0,1,.25-.6l1.35,1.69c.37,2.18.73,4.36,1.1,6.54s.83,4.4,1.26,6.56c.87,4.35,1.76,8.58,2.82,12.81s2.25,8.41,3.55,12.47c.32,1,.66,2,1,3s.72,2,1.09,3c.74,2,1.53,4,2.34,6l1.5-1.58c.51-.52,1-1.07,1.52-1.56l0-.06c-1.15-3-2.2-6.08-3.18-9.21s-1.91-6.35-2.66-9.5-1.49-6.43-2.15-9.72c-.33-1.64-.65-3.3-1-5l-.81-4.94a.62.62,0,0,1,.22-.57l1.29,1.6c1,6.27,2.25,12.62,3.71,18.68.37,1.52.75,3,1.15,4.52s.87,3,1.33,4.52c.92,3,1.91,5.93,3,8.81l3.34-3.2v0c-.72-2-1.36-4-2-6.07s-1.19-4.1-1.73-6.18-1-4.2-1.53-6.33c-.24-1.07-.46-2.12-.66-3.18l-.6-3.18a.58.58,0,0,1,.2-.55l1.28,1.6c.36,2,.75,3.93,1.16,5.87s.92,3.92,1.41,5.86q1.5,5.79,3.34,11.35l3.31-2.86,0-.1q-.89-2.88-1.67-5.84c-.52-2-1-3.9-1.41-5.88a.53.53,0,0,1,.17-.53l1.31,1.63c.37,1.67.77,3.32,1.18,5s.9,3.32,1.38,5c.53-.45,1-.94,1.59-1.36l1.65-1.28.64.8-2,1.61-2,1.7C158.12,153.39,156.78,154.49,155.5,155.66Zm-76.15,18.8a205.22,205.22,0,0,1,47-59l.18-.12q-1.59-7.41-3.17-14.84c-1.8,1.36-3.48,2.86-5.19,4.33s-3.42,2.94-5.09,4.46a217.2,217.2,0,0,0-48.9,65.41C69.3,174.66,74.36,174.56,79.35,174.46Zm5.87-.07c2.24-3.86,4.37-7.79,6.86-11.5a.57.57,0,0,1,.3-.47,200.15,200.15,0,0,1,25.31-31.77.6.6,0,0,1,.39-.4c.38-.4.76-.81,1.16-1.21l1.21-1.15,2.42-2.31c1.62-1.54,3.2-3.11,4.91-4.54l-1-4.59-3.52,3c-1.17,1.13-2.4,2.29-3.67,3.5s-2.59,2.43-3.88,3.75l-3.89,4.08-2,2.08c-.67.7-1.28,1.45-1.92,2.18l-3.83,4.41-.95,1.11-.9,1.14-1.8,2.27c-1.18,1.52-2.37,3-3.5,4.49L93.76,153l-1.52,2.15-.75,1.06-.69,1.06c-1.8,2.82-3.49,5.4-4.92,7.72s-2.52,4.39-3.45,6l-1.19,2.08-.72,1.4C82.09,174.42,83.63,174.38,85.22,174.39Zm27.38-7.73c1.28-.8,1.33-2.09,1-3.48A15,15,0,0,0,112,159a24.72,24.72,0,0,0-2.6-3.67c-1.94-2.35-4.18-4.52-5.91-6.81l-1.41,1.8c-.47.59-.94,1.19-1.37,1.82a.59.59,0,0,1,.06.14l.92,2.79a41.64,41.64,0,0,1,2.18,5.91,19.94,19.94,0,0,0,2.25,3.85C107.55,166.76,110.28,168.1,112.6,166.66Zm-10.59-7c-.4-1-.78-2-1.15-3s-.87-2-1.27-3l-3.19,4.48c-.26.38-.53.74-.79,1.12l-.74,1.16-1.48,2.31v0c.69,2.45,2.2,5.64,4.79,6.32,3.68,1,4.88-3.18,4.61-5.91A15.65,15.65,0,0,0,102,159.68Zm15.08,1.49c1.78,1.36,5.42,2.86,7.14.67a3.45,3.45,0,0,0,.14-3.71A9.25,9.25,0,0,0,122,155a38.17,38.17,0,0,0-5.62-3.43q-5.26-3-10.63-5.9h0l-1.34,1.71h0q4.19,4.77,8.47,9.43A36.22,36.22,0,0,0,117.09,161.17Zm6.09-10c1.4,0,2.65-.36,3.13-1.8.91-2.56-1-4.89-3.17-5.92a20.21,20.21,0,0,0-4.26-1.37,40.27,40.27,0,0,1-6.26-.79l-2.89-.25-.15,0c-1,1.16-2,2.27-3,3.47,2.6,1.16,5.23,2.88,8,4.27A18.67,18.67,0,0,0,123.18,151.21Zm-2.39-10.54c2.79-.32,6.4-2.6,4.7-5.85a5.72,5.72,0,0,0-3.14-2.48,13.77,13.77,0,0,0-4.08-.77h0c-2.52,2.66-5.1,5.27-7.45,8.08,1.08.16,2.15.36,3.23.55s2.07.28,3.1.44A17.31,17.31,0,0,0,120.79,140.67Zm21.65,26.8a164.88,164.88,0,0,1-8.4-22c-.61-1.92-1.14-3.8-1.66-5.72s-1-3.84-1.54-5.79-1-3.91-1.45-5.89l-.7-3-.65-3c-1.52,1.26-2.91,2.68-4.35,4s-2.88,2.71-4.27,4.11a12.65,12.65,0,0,1,6.52,3.06c1.62,1.62,2.08,3.65.1,6.16a6.57,6.57,0,0,1-3.65,2.26,9,9,0,0,1,3.6,2,6.52,6.52,0,0,1,1.76,3.91,5.23,5.23,0,0,1-.23,2.13,3.58,3.58,0,0,1-1.17,1.74c-1.66,1.33-4.2,1-6.39.47.74.48,1.47,1,2.18,1.49a10.83,10.83,0,0,1,3.39,4.15,4.63,4.63,0,0,1-.3,4.92c-2.46,3.1-7.41,1-9.86-1.3-.57-.52-1.13-1.06-1.69-1.61.26.5.5,1,.72,1.58a10.42,10.42,0,0,1,.53,1.67,4.94,4.94,0,0,1-.2,3.21,4.17,4.17,0,0,1-3.64,2.24,6.89,6.89,0,0,1-4.36-1.07,9.05,9.05,0,0,1-2.48-2.88,7,7,0,0,1-1.34,4.09c-3.82,5.12-8.79-.25-10.44-4.39l-1.6,2.5c-.54.83-1,1.71-1.5,2.56l-3,5.14c8.21,0,16.11,0,24.11.68q3,.23,5.89.52c2,.2,3.85.4,5.83.7q5.87.84,11.52,2.06l.09,0,1-1.41c.33-.48.71-.91,1.06-1.37l2.14-2.72,1.07-1.36.53-.69.57-.65,2.27-2.61Z"/><path class="cls-1" d="M79.49,161A4.37,4.37,0,0,1,75,168.37c-1.8-1-2.16-3.32-1.19-5.4a2,2,0,0,1,.1-.21,1,1,0,0,1,.13-.19C75.43,160.6,77.74,159.78,79.49,161Zm-4.44,2.4c-1.67,3.26,2.44,5.57,4.23,2.45S77,160.32,75.05,163.4Z"/><path class="cls-1" d="M88.2,147.82a4.09,4.09,0,0,1,.43,5.49,4.83,4.83,0,0,1-2.56,1.88,3.49,3.49,0,0,1-2.89-.38c-1.71-1.11-2-3.51-.83-5.51a.93.93,0,0,1,.11-.19.71.71,0,0,1,.16-.18C84.16,147.1,86.55,146.47,88.2,147.82Zm-4.67,2a2.83,2.83,0,0,0-.45,2.18,2.41,2.41,0,0,0,1,1.5,2.23,2.23,0,0,0,1.73.35,3,3,0,0,0,1.74-1.27C89.65,149.65,85.79,147,83.53,149.83Z"/><path class="cls-1" d="M97.81,135.28a4.22,4.22,0,0,1,.08,5.55,4.14,4.14,0,0,1-5.59,1.07c-1.63-1.25-1.64-3.61-.38-5.53a.72.72,0,0,1,.13-.19.66.66,0,0,1,.16-.17A5,5,0,0,1,95,134.43,3.3,3.3,0,0,1,97.81,135.28ZM93.05,137c-2.12,3,1.61,5.88,3.83,3.05S95.46,134.22,93.05,137Z"/><path class="cls-1" d="M108.38,123.55a4.11,4.11,0,0,1-.37,5.5c-1.61,1.64-4.11,2-5.64.65s-1.44-3.78,0-5.55a.73.73,0,0,1,.14-.18l.18-.15C104.5,122.23,106.94,122,108.38,123.55Zm-4.91,1.3a3,3,0,0,0-.79,2.06,2.45,2.45,0,0,0,.78,1.64,2.28,2.28,0,0,0,1.66.6,2.87,2.87,0,0,0,1.94-1C109.54,125.57,106.13,122.32,103.47,124.85Z"/><path class="cls-1" d="M119.76,112.6c1.21,1.54.81,3.92-.77,5.47a4.12,4.12,0,0,1-5.67.24c-1.43-1.47-1.09-3.82.43-5.54a.64.64,0,0,1,.16-.17.84.84,0,0,1,.18-.15C115.93,110.94,118.46,110.93,119.76,112.6Zm-5,.94c-2.53,2.65.73,6.07,3.33,3.59a2.49,2.49,0,0,0,.37-3.6A2.55,2.55,0,0,0,114.78,113.54Z"/><path class="cls-1" d="M215.33,121.7a154.27,154.27,0,0,0-51.91,27.23l-.64-.8,3.14-2.48c-3-1.64-5.94-3.26-9-4.83l-1.27-1.6a.8.8,0,0,1,.5,0c3.67,1.76,7.16,3.64,10.64,5.61l.08.06,3.58-2.53c-3.37-2-6.87-4-10.42-5.83S153,133,149.36,131.33l-1.25-1.57a.8.8,0,0,1,.52,0c2,.85,4,1.74,5.92,2.65s3.84,1.84,5.77,2.87c3.82,2,7.52,4.15,11.12,6.36l0,0c1.23-.92,2.55-1.72,3.85-2.55-1.3-.85-2.61-1.69-3.95-2.51s-2.69-1.62-4-2.37q-4.05-2.26-8.29-4.38c-5.68-2.88-11.39-5.36-17.2-7.92l-1.26-1.58a.92.92,0,0,1,.54,0q4.71,1.89,9.24,3.89c3,1.36,6.07,2.83,9,4.31s5.81,3,8.62,4.66,5.61,3.4,8.3,5.21c0,0,0,0,.06.05l1.83-1.18.91-.59.95-.54c-.87-.62-1.76-1.25-2.63-1.84s-1.76-1.17-2.65-1.74q-2.67-1.73-5.44-3.37c-1.84-1.1-3.72-2.18-5.62-3.23l-1.43-.79-1.42-.75L158,122.93c-3.86-2-7.82-3.83-11.86-5.68s-8.05-3.5-12.17-5.23l-1.31-1.65a1,1,0,0,1,.56,0l6.4,2.68c2.13.9,4.19,1.77,6.31,2.74q6.32,2.86,12.32,5.88c1,.51,2,1,3,1.55l3,1.63c2,1.09,3.9,2.21,5.8,3.36s3.78,2.31,5.61,3.51,3.68,2.5,5.47,3.8l0,0L185,133.3c-4.36-3.32-9-6.47-13.8-9.45s-9.71-5.63-14.83-8.29-10.25-5-15.54-7.54c-2.66-1.26-5.28-2.43-7.92-3.65s-5.3-2.43-8-3.68L123.57,99a222.44,222.44,0,0,1,41.35-26.08A219.1,219.1,0,0,1,211.2,56.8l.48,2.13c-2.84,11.35-5.84,22.72-8.12,33.87-1.12,5.66-2.09,11.22-2.78,16.76s-1.08,11.18-1.18,16.66l4.12-1.62v-.07q.14-3.3.42-6.65t.75-6.57q.44-3.3,1-6.64l.58-3.34.32-1.68.33-1.64c.92-4.38,2-8.81,3.12-13.29l.87-3.36.92-3.31c.63-2.22,1.27-4.44,1.9-6.66a.69.69,0,0,1,.49-.43l.48,2.1q-.93,3.21-1.85,6.41c-.6,2.14-1.2,4.21-1.74,6.39-1.1,4.31-2.12,8.57-3,12.8l-.64,3.16c-.21,1.06-.39,2.15-.58,3.22q-.54,3.21-1,6.4c-.29,2.12-.55,4.23-.76,6.34-.1,1.06-.2,2.09-.27,3.16s-.14,2.14-.19,3.2c1.33-.57,2.71-1,4.08-1.45v-.08q.39-4.83,1.1-9.73c.23-1.65.5-3.24.8-4.84s.61-3.21,1-4.82q1-4.84,2.26-9.75c.85-3.21,1.77-6.4,2.74-9.64a.62.62,0,0,1,.45-.42l.45,2q-1.38,4.62-2.6,9.18c-.8,3.06-1.52,6.19-2.17,9.25S211.7,110,211.22,113s-.83,6.2-1.1,9.27l2.18-.74,1.09-.37c.36-.12.74-.21,1.1-.32v0q.75-6.28,2-12.66c.21-1.06.42-2.13.65-3.19s.47-2.09.73-3.14c.5-2.08,1-4.18,1.63-6.28a.6.6,0,0,1,.42-.41l.45,2c-1.06,3.91-2,7.73-2.79,11.64s-1.4,7.85-1.9,11.74l4.2-1.2a.38.38,0,0,1,0-.1c.3-2,.65-4,1.05-5.94s.82-3.94,1.28-5.92a.53.53,0,0,1,.38-.4l.47,2c-.77,3.34-1.45,6.67-2,10l4.07-.93.23,1-2.53.58c-.84.2-1.69.36-2.52.62Zm-76.75-16.06a201.69,201.69,0,0,1,68-32.85l.21,0,.9-3.7.91-3.66c.6-2.45,1.21-4.9,1.81-7.36l-3.3.77-1.65.39-1.63.45-6.52,1.85a217.36,217.36,0,0,0-72.44,37.82l6.88,3.18C134,103.55,136.27,104.55,138.58,105.64Zm5.36,2.51,2.72-1.94c.92-.64,1.8-1.31,2.76-1.9l5.63-3.61a.58.58,0,0,1,.47-.3,196,196,0,0,1,36.6-17.69.59.59,0,0,1,.53-.18L199,80.38l1.59-.53,1.6-.46,3.22-.92,1.1-4.59a197.23,197.23,0,0,0-19.73,6.47l-5.39,2.12c-1.79.74-3.56,1.59-5.34,2.38l-2.65,1.2c-.89.4-1.77.79-2.62,1.25l-5.07,2.59a198,198,0,0,0-17.1,10c-2.32,1.43-4.2,2.83-5.71,3.9l-3.24,2.3Zm28,4.83c1.5-.18,2.08-1.37,2.43-2.71a18.38,18.38,0,0,0-.44-8.85c-.74-3-1.83-5.9-2.4-8.72l-4.06,2.08a.76.76,0,0,1,0,.15c-.13.93-.27,1.89-.41,2.87a44.26,44.26,0,0,1-.56,6.31,19.33,19.33,0,0,0,.38,4.47C167.36,110.93,169.24,113.31,171.93,113Zm-6.52-10.87c.05-1.06.14-2.12.23-3.18s.07-2.24.16-3.3c-1.6.88-3.18,1.81-4.77,2.72l-2.39,1.37c-.79.46-1.59.9-2.35,1.41v0c-.43,2.53-.42,6.08,1.61,7.81a3.05,3.05,0,0,0,4.06.18,7.39,7.39,0,0,0,2.66-3.5A16.35,16.35,0,0,0,165.41,102.11Zm13,7.88c1,2,3.64,4.92,6.11,3.64s1.87-5,1-7a37.86,37.86,0,0,0-3.57-5.51q-3.47-5-7.06-10v0c-.67.29-1.31.62-1.95,1v0q1.71,6.13,3.57,12.2A36,36,0,0,0,178.37,110Zm9.78-6.37a4.71,4.71,0,0,0,1.87.48,2.34,2.34,0,0,0,1.75-.71c1.93-1.89,1.24-4.85-.29-6.7a19.69,19.69,0,0,0-3.24-3.06,47.77,47.77,0,0,1-5.34-3.5l-2.48-1.46a.38.38,0,0,1-.12-.09l-4.16,1.88c1.85,2.2,3.47,4.88,5.34,7.31A18.41,18.41,0,0,0,188.15,103.62Zm2.43-10.5a7.18,7.18,0,0,0,4.4,0,3.07,3.07,0,0,0,2.37-3.26c-.08-2.66-2.87-4.88-5.11-6.13h0c-1.73.62-3.42,1.32-5.13,2l-2.56,1c-.85.34-1.71.65-2.54,1,.45.29.89.6,1.34.92l1.34,1c.89.59,1.76,1.18,2.62,1.79A15.67,15.67,0,0,0,190.58,93.12Zm7.88,33.49c0-2,.07-3.87.17-5.81s.23-3.87.39-5.83.37-3.91.59-5.88l.37-3,.43-2.91q.92-5.84,2.11-11.78l.6-3,.65-2.93,1.37-5.9-2.86.81-1.42.41-1.41.48-5.62,1.9c3.71,2.58,7.78,8.59,1.94,11.12a6.64,6.64,0,0,1-4.25.5,8.68,8.68,0,0,1,2.36,3.36c.9,2.56-.13,6.57-3,7.14-2.07.47-4.2-.86-5.94-2.3.45.76.9,1.52,1.31,2.28,1.53,2.84,2.27,7.93-1.16,9.47-3.52,1.79-7-2.27-8.29-5.36-.28-.73-.56-1.46-.82-2.19a13.31,13.31,0,0,1-.29,3.45,5.16,5.16,0,0,1-1.59,2.77c-2.38,2-6.31.09-7.69-2.36a9,9,0,0,1-1-3.66,7,7,0,0,1-3,3c-5.6,3.06-7.78-4-7.51-8.44l-5,3.2c-.84.52-1.63,1.12-2.44,1.69L145,108.65l5.47,2.62c1.82.88,3.59,1.73,5.41,2.68,3.59,1.86,7.12,3.75,10.54,5.7s6.81,4,10.07,6.21,6.41,4.39,9.46,6.78l.07.07,6.16-3.15,6.29-2.85S198.46,126.64,198.46,126.61Z"/><path class="cls-1" d="M144.55,93.61a3.54,3.54,0,0,1,.25,2.8A5,5,0,0,1,143,98.89a4.08,4.08,0,0,1-5.62-.58c-1.2-1.67-.53-4,1.23-5.43a.61.61,0,0,1,.17-.15.88.88,0,0,1,.2-.12,4.77,4.77,0,0,1,3.19-.64A3.34,3.34,0,0,1,144.55,93.61Zm-5.08.18c-2.89,2.26-.17,6.12,2.76,4a3,3,0,0,0,1.26-1.76,2.28,2.28,0,0,0-.34-1.73A2.58,2.58,0,0,0,139.47,93.79Z"/><path class="cls-1" d="M158.07,85.43a4.37,4.37,0,0,1-7.56,4.12c-1.07-1.75-.21-3.94,1.67-5.26l.19-.13.21-.1C154.75,83.05,157.16,83.5,158.07,85.43Zm-5-.15c-3.09,2-.67,6,2.45,4.23S156.28,83.61,153,85.28Z"/><path class="cls-1" d="M172.2,78.33a4.39,4.39,0,0,1-7.84,3.57c-.94-1.83.07-4,2-5.21l.2-.12a1,1,0,0,1,.21-.09C169.05,75.68,171.44,76.34,172.2,78.33Zm-5.06-.6c-3.19,1.82-1.08,6,2.13,4.41S170.54,76.36,167.14,77.73Z"/><path class="cls-1" d="M186.8,72.26a4.19,4.19,0,0,1-2.71,4.85,4.15,4.15,0,0,1-5.38-1.89c-.79-1.89.38-3.93,2.44-5a1,1,0,0,1,.21-.1l.22-.06C183.88,69.41,186.19,70.21,186.8,72.26Zm-5-.9c-3.34,1.51-1.56,5.88,1.79,4.55S185.31,70.18,181.83,71.36Z"/><path class="cls-1" d="M201.85,67.38a4.08,4.08,0,0,1-3.1,4.55c-2.19.69-4.55-.28-5.19-2.21s.66-4,2.78-4.84a.48.48,0,0,1,.22-.08,1,1,0,0,1,.23,0C199.14,64.29,201.4,65.29,201.85,67.38ZM196.93,66a2.61,2.61,0,0,0-1.85,3.24,2.43,2.43,0,0,0,3.3,1.43C201.84,69.71,200.51,65.19,196.93,66Z"/><path class="cls-1" d="M284.05,117.09a157.08,157.08,0,0,0-58.69,2l-.23-1,1.91-.44c.65-.15,1.29-.33,2-.43-1-1.43-2-2.78-3-4.16s-2-2.73-3-4.08l-.45-2a.84.84,0,0,1,.44.22q1.91,2.37,3.66,4.78c1.18,1.58,2.35,3.29,3.48,4.94a.41.41,0,0,1,0,.09l4.31-.77c-2.14-3.29-4.43-6.53-6.83-9.75l-1.81-2.4c-.61-.8-1.21-1.56-1.83-2.34l-3.71-4.62-.44-2a.86.86,0,0,1,.46.21q2.16,2.44,4.17,4.94c1.35,1.67,2.68,3.42,3.95,5.15,2.56,3.46,5,7,7.23,10.52l0,0c1.52-.22,3.05-.39,4.58-.59q-2.39-4-5.06-7.88c-1.77-2.58-3.62-5-5.54-7.54s-3.91-5-5.93-7.42-4.05-4.8-6.11-7.2l-.44-2a.92.92,0,0,1,.49.21c1.14,1.24,2.26,2.49,3.36,3.73l1.64,1.88,1.63,1.93q3.23,3.87,6.22,7.78c1,1.31,2,2.62,2.92,3.93s1.9,2.7,2.81,4q2.75,4.09,5.19,8.28s0,0,0,.06l2.15-.28c.72-.07,1.45-.11,2.17-.16-1-1.86-2.09-3.78-3.19-5.56s-2.24-3.6-3.42-5.39-2.4-3.56-3.65-5.33-2.55-3.57-3.85-5.26c-5.23-6.81-11-13.69-16.88-20.26L214.42,71a.94.94,0,0,1,.52.2l4.59,5.16c1.52,1.73,3,3.53,4.5,5.28,2.95,3.53,5.8,7.05,8.51,10.61s5.32,7.32,7.75,11c1.22,1.87,2.38,3.68,3.52,5.62s2.22,3.86,3.26,5.81l0,.06,4.43-.35c-2.48-4.89-5.27-9.71-8.3-14.49l-1.15-1.79-1.17-1.74c-.78-1.16-1.58-2.31-2.4-3.47-1.62-2.31-3.3-4.61-5-6.91l-2.61-3.46-2.66-3.36q-2.67-3.36-5.44-6.74l-5.55-6.79c-1.85-2.23-3.71-4.47-5.56-6.75l-.47-2.07a217.77,217.77,0,0,1,97.18,0l-.48,2.13-5.61,6.73-5.6,6.77q-2.78,3.39-5.47,6.74l-2.67,3.35L285.93,86c-1.73,2.3-3.41,4.61-5,6.91s-3.2,4.58-4.72,7c-3,4.78-5.82,9.6-8.3,14.48l4.44.34,0-.06a171.59,171.59,0,0,1,14.56-22.45c2.73-3.57,5.59-7.08,8.55-10.61,1.48-1.76,3-3.54,4.51-5.28l4.59-5.16a.66.66,0,0,1,.62-.18l-.47,2.1c-6,6.54-11.77,13.41-17,20.21-2.64,3.45-5.17,7-7.53,10.58q-1.77,2.69-3.42,5.38c-1.1,1.81-2.17,3.7-3.19,5.56l2.17.16,2.16.28,0-.06q2.44-4.19,5.2-8.28c.92-1.36,1.87-2.74,2.82-4.06s1.94-2.62,2.94-3.92c4-5.21,8.37-10.42,12.9-15.32a.6.6,0,0,1,.58-.18l-.45,2L298.68,89c-1.05,1.19-2.08,2.35-3.12,3.59q-3.07,3.69-6,7.41c-1,1.24-1.89,2.49-2.81,3.74s-1.81,2.49-2.7,3.8q-2.64,3.9-5,7.88l4.58.58,0,0q3.39-5.32,7.26-10.52c1.29-1.72,2.62-3.46,4-5.14s2.75-3.31,4.18-4.94a.6.6,0,0,1,.55-.19l-.45,2a165.8,165.8,0,0,0-14.34,19l4.31.77,0-.09c1.14-1.66,2.33-3.35,3.53-4.94s2.44-3.19,3.71-4.77A.53.53,0,0,1,297,107l-.47,2c-1.06,1.33-2.11,2.68-3.13,4s-2,2.7-3,4.13c.69.1,1.37.27,2,.43l2,.47-.22,1C290.88,118.21,287.45,117.74,284.05,117.09ZM221.84,69.31a203.35,203.35,0,0,1,75.45-.08,1.17,1.17,0,0,1,.2.06l9.63-11.72-3.31-.76c-1.1-.22-2.22-.41-3.32-.61L293.82,55a220.65,220.65,0,0,0-40.9-2.5,218.3,218.3,0,0,0-40.7,5.11Q217.05,63.49,221.84,69.31Zm3.73,4.57,3.29-.59c1.1-.2,2.21-.3,3.32-.46l6.64-.84a.6.6,0,0,1,.55-.07,201.14,201.14,0,0,1,40.61,0,.57.57,0,0,1,.56.06l6.64.84c1.1.15,2.22.27,3.32.45l3.29.59,3-3.66c-2.91-.51-6.14-1.16-9.62-1.53L281.8,68l-1.38-.17-1.4-.11-2.83-.21L270.42,67c-1.94-.07-3.89-.11-5.83-.16l-2.91-.07c-1,0-1.94-.07-2.9,0l-5.68.14c-3.74,0-7.32.38-10.66.62s-6.4.65-9.1,1l-3.75.48c-1.15.14-2.18.37-3.09.51l-3.91.7Zm23.1,16.53a2.31,2.31,0,0,0,1.87-.12A4.41,4.41,0,0,0,252,89.05a18.39,18.39,0,0,0,3.46-8.17c.62-3,.92-6.11,1.63-8.9l-4.56.11a.61.61,0,0,1-.07.14c-.53.78-1.07,1.59-1.61,2.41a49.47,49.47,0,0,1-3.26,5.41,20.38,20.38,0,0,0-1.61,4.2C245.44,86.59,246.1,89.55,248.67,90.41Zm-1.15-12.62c.52-.93,1-1.85,1.6-2.77s1-2,1.58-2.88c-.91,0-1.83.08-2.74.15l-2.74.21-5.48.42v0c-1.49,2.08-3,5.31-1.95,7.74a3.17,3.17,0,0,0,1.53,1.69,3.78,3.78,0,0,0,2,.26,7.3,7.3,0,0,0,3.92-2A15.93,15.93,0,0,0,247.52,77.79Zm8.24,12.75c.05,2.24,1.15,6,3.93,5.93s3.87-3.72,3.92-5.94a37.76,37.76,0,0,0-.82-6.51q-.94-6-2-12.06v0c-.36,0-.72,0-1.08,0l-1.08,0v0q-1.11,6.27-2.08,12.54A36.26,36.26,0,0,0,255.76,90.54Zm11.59-1.49a4.37,4.37,0,0,0,1.48,1.23,2.42,2.42,0,0,0,1.88.12c2.57-.86,3.22-3.83,2.65-6.16a20.1,20.1,0,0,0-1.6-4.17A30.17,30.17,0,0,1,270,77.35q-.81-1.41-1.53-2.73c-.54-.82-1.08-1.62-1.6-2.39,0,0-.05-.1-.07-.14L262.24,72c.71,2.79,1,5.91,1.64,8.9A18.33,18.33,0,0,0,267.35,89.05Zm6.74-8.42a7.22,7.22,0,0,0,4,2,4.69,4.69,0,0,0,1.06,0,2.81,2.81,0,0,0,1-.27,3.15,3.15,0,0,0,1.51-1.66c1.07-2.42-.47-5.67-2-7.73v0l-5.48-.42-2.74-.2-1.37-.1-1.38,0c.55.93,1.07,1.86,1.59,2.86s1.08,1.83,1.58,2.75A16.74,16.74,0,0,0,274.09,80.63Zm-7.41,33.6c.42-.87.86-1.75,1.31-2.62s.9-1.71,1.36-2.55c.92-1.7,1.89-3.39,2.88-5.07s2-3.36,3.09-5l1.61-2.51.83-1.25.83-1.21c2.22-3.24,4.56-6.46,7-9.69,1.21-1.61,2.45-3.23,3.69-4.83l3.78-4.71-2.92-.52-2.94-.39-5.88-.74a12.74,12.74,0,0,1,1.68,7c-.25,2.27-1.56,4-4.75,3.88a6.51,6.51,0,0,1-4-1.4,9,9,0,0,1,.67,4.06c-.3,2.69-3,5.86-5.85,5.09-2.07-.44-3.42-2.59-4.36-4.63.08.88.15,1.75.2,2.63.13,3.21-1.41,8.13-5.17,8-3.95.09-5.36-5.09-5.14-8.42.06-.78.13-1.56.21-2.33-.94,2.07-2.29,4.29-4.4,4.76-3,.8-5.71-2.64-5.89-5.44a9.06,9.06,0,0,1,.7-3.73,6.66,6.66,0,0,1-4,1.41c-6.37.32-5.27-6.93-3.08-10.87l-5.88.74c-1,.14-2,.23-2.94.4l-2.92.52,3.78,4.71c1.25,1.58,2.49,3.22,3.7,4.82q3.65,4.84,7,9.68c1.11,1.6,2.21,3.3,3.27,5s2.09,3.35,3.09,5,2,3.38,2.89,5.07c.46.85.92,1.7,1.36,2.55s.89,1.75,1.32,2.62l0,.09,6.94-.18,6.94.18Z"/><path class="cls-1" d="M232.46,61.06a4.39,4.39,0,0,1-8.54,1.08c-.36-2,1.24-3.81,3.47-4.38l.22,0h.24C230.24,57.6,232.32,58.93,232.46,61.06ZM227.8,59a2.62,2.62,0,0,0-2.31,2.93,2.43,2.43,0,0,0,3,1.91C232.1,63.37,231.46,58.69,227.8,59Z"/><path class="cls-1" d="M248.18,59.57a4.36,4.36,0,0,1-8.59.45c-.2-2,1.53-3.65,3.79-4a.85.85,0,0,1,.23,0,.59.59,0,0,1,.23,0C246.23,56,248.21,57.44,248.18,59.57Zm-4.47-2.32c-3.64.46-3.23,5.15.36,4.88S247.37,57.15,243.71,57.25Z"/><path class="cls-1" d="M264,59.34a4.08,4.08,0,0,1-4.29,3.43,4,4,0,0,1-4.3-3.63c-.05-2,1.79-3.56,4.07-3.81a1.33,1.33,0,0,1,.46,0C262.28,55.58,264.14,57.21,264,59.34Zm-4.29-2.75c-3.65.26-3.59,5,0,4.9S263.32,56.84,259.67,56.59Z"/><path class="cls-1" d="M279.72,60.21a4.36,4.36,0,0,1-8.56-.86c.1-2.05,2-3.38,4.34-3.4a.88.88,0,0,1,.23,0,.85.85,0,0,1,.23,0C278.32,56.37,280.06,58.09,279.72,60.21Zm-4.09-3c-3.66-.1-3.94,4.61-.36,4.88S279.27,57.69,275.63,57.23Z"/><path class="cls-1" d="M295.38,62.3a4.12,4.12,0,0,1-4.76,2.77,4.06,4.06,0,0,1-3.72-4.24c.25-2,2.3-3.26,4.6-3.16h.23l.23,0C294.28,58.31,295.88,60.23,295.38,62.3ZM291.54,59c-3.66-.3-4.29,4.38-.73,4.84a2.44,2.44,0,0,0,3-1.92A2.6,2.6,0,0,0,291.54,59Z"/><path class="cls-1" d="M347.84,142.72a153.57,153.57,0,0,0-53.61-23.64l.22-1,3.9.89c-.57-3.33-1.15-6.66-1.82-10l.45-2a.79.79,0,0,1,.3.39q.69,3,1.24,5.91c.36,2,.7,3.9,1,5.92a.38.38,0,0,1,0,.1l4.2,1.2c-.5-3.9-1.16-7.83-1.92-11.77s-1.68-7.73-2.59-11.6l.44-2a.9.9,0,0,1,.34.39c.58,2.1,1.12,4.2,1.62,6.28.24,1,.48,2.09.71,3.12s.43,2.13.63,3.19q1.2,6.38,2,12.65v0l1.11.31,1.09.37,2.18.75c-.28-3.08-.65-6.22-1.14-9.29s-1.09-6.12-1.74-9.2c-.33-1.54-.67-3.08-1-4.63s-.72-3.12-1.11-4.62c-.77-3-1.58-6.08-2.39-9.13l.44-2a.87.87,0,0,1,.36.41c1,3.23,1.89,6.44,2.72,9.63s1.57,6.52,2.24,9.74c.33,1.61.64,3.22.93,4.82s.56,3.18.79,4.83c.46,3.26.83,6.5,1.09,9.73v.07c1.37.48,2.76.88,4.09,1.45-.05-1.07-.12-2.14-.19-3.21s-.18-2.1-.28-3.16c-.21-2.1-.46-4.22-.75-6.34-.59-4.23-1.29-8.6-2.18-12.78s-1.88-8.49-3-12.79c-.53-2.18-1.12-4.25-1.7-6.39s-1.19-4.26-1.79-6.4l.46-2.05s.33.19.39.41c.63,2.22,1.27,4.44,1.9,6.66l.92,3.3.86,3.36c1.14,4.48,2.18,8.9,3.09,13.28.46,2.17.85,4.44,1.22,6.65s.7,4.43,1,6.63.54,4.39.74,6.57.33,4.44.43,6.65v.06l4.13,1.62c-.11-5.48-.53-11-1.18-16.68S317,98.38,315.88,92.72c-.27-1.43-.57-2.82-.87-4.2l-.94-4.19c-.64-2.8-1.31-5.62-2-8.46l-1-4.27L310,67.38c-.7-2.81-1.41-5.65-2.09-8.51l.47-2.07A219.68,219.68,0,0,1,354.6,72.91,222.27,222.27,0,0,1,396,99l-1.36,1.71-8,3.65c-2.66,1.2-5.29,2.37-8,3.62-5.31,2.48-10.5,4.9-15.58,7.49s-10.09,5.39-14.85,8.27-9.43,6.13-13.78,9.45l3.84,2.22.05,0c1.78-1.3,3.62-2.59,5.47-3.81s3.7-2.36,5.61-3.51,3.85-2.26,5.82-3.35,4-2.18,6-3.17c4-2,8.13-4,12.34-5.86,2.12-1,4.19-1.84,6.32-2.75l6.4-2.67a.68.68,0,0,1,.64.1l-1.34,1.69c-4.15,1.71-8.23,3.4-12.24,5.17s-8,3.7-11.9,5.64-7.69,4-11.37,6.22q-2.78,1.65-5.44,3.36c-.89.58-1.77,1.16-2.64,1.75s-1.76,1.22-2.63,1.84c1.28.69,2.46,1.53,3.69,2.3l.06,0q4-2.72,8.3-5.21c2.83-1.65,5.7-3.16,8.65-4.65s6-2.94,9-4.29,6.12-2.62,9.26-3.89a.62.62,0,0,1,.61.09L377.7,122q-4.47,1.81-8.81,3.71l-2.15,1-2.17,1c-1.43.68-2.86,1.38-4.26,2.08q-4.23,2.13-8.25,4.4c-1.33.74-2.69,1.57-4,2.38s-2.63,1.66-3.92,2.51c1.28.85,2.62,1.62,3.85,2.55l0,0q5.4-3.33,11.16-6.34c1.94-1,3.84-1.93,5.8-2.85s3.93-1.79,5.94-2.65a.6.6,0,0,1,.58.07l-1.28,1.6q-5.56,2.4-10.84,5.07T349,142.27l3.57,2.53.08-.06c3.49-2,7.05-3.79,10.73-5.56a.56.56,0,0,1,.56,0l-1.31,1.63q-4.65,2.23-9.08,4.68l3.28,2.59-.64.8c-1.37-1.06-2.71-2.15-4.09-3.2Zm-35.26-70a201.48,201.48,0,0,1,35.58,13.14,205.34,205.34,0,0,1,32.47,19.56l.16.15c2.3-1.09,4.57-2.11,6.86-3.16l6.88-3.19-2.66-2.09c-.89-.68-1.75-1.41-2.68-2l-5.51-3.92A216.6,216.6,0,0,0,309,58q.92,3.67,1.81,7.34l.92,3.64ZM314,78.41l3.22.92,1.61.46c.53.16,1.06.35,1.59.52l6.34,2.15a.57.57,0,0,1,.53.18c.81.26,1.6.57,2.39.89l2.36.93,4.74,1.87c3.11,1.35,6.19,2.77,9.28,4.17s6.05,3.07,9.05,4.66l4.41,2.53L361.69,99c.74.42,1.47.85,2.18,1.32a.58.58,0,0,1,.47.3l5.63,3.61c.95.59,1.86,1.24,2.76,1.89l2.73,1.94,4.28-2-3.8-2.7c-1.32-.94-2.69-2-4.18-2.87l-4.55-2.91c-.77-.5-1.55-1-2.36-1.5l-2.46-1.42-5-2.88c-.84-.5-1.72-.92-2.58-1.37L352.2,89l-2.6-1.33c-.87-.44-1.72-.9-2.6-1.28l-5.19-2.35A192.1,192.1,0,0,0,323.29,77c-1.29-.43-2.49-.86-3.6-1.19l-3-.86-3.82-1.09Zm13.66,24.91c1.08,1.05,2.36.78,3.63.21a18.36,18.36,0,0,0,6.66-5.85c1.86-2.43,3.48-5.11,5.33-7.31l-4.16-1.88-.12.09-2.5,1.47a45.12,45.12,0,0,1-5.29,3.47,20,20,0,0,0-3.26,3.09C326.38,98.47,325.69,101.42,327.62,103.32Zm4.45-11.87c.86-.62,1.74-1.22,2.63-1.81s1.8-1.33,2.69-1.92c-1.69-.72-3.41-1.36-5.11-2s-3.4-1.38-5.13-2l0,0c-2.24,1.24-5,3.47-5.11,6.13a3,3,0,0,0,2.39,3.28A7.22,7.22,0,0,0,328.8,93,16.2,16.2,0,0,0,332.07,91.45Zm1.89,15c-.93,2-1.57,5.9,1,7s5.1-1.66,6.11-3.64a37.58,37.58,0,0,0,2.09-6.22q1.77-5.85,3.42-11.74v0l-1-.49-1-.45v0q-3.74,5.16-7.33,10.39A36.14,36.14,0,0,0,334,106.5ZM345,110.18c.35,1.33.94,2.51,2.43,2.7,2.69.33,4.57-2,5.07-4.41a20.12,20.12,0,0,0,.38-4.44,45,45,0,0,1-.58-6.35c-.14-1-.28-1.92-.41-2.85a.43.43,0,0,1,0-.16l-4.07-2.08c-.57,2.83-1.65,5.76-2.39,8.73A18.41,18.41,0,0,0,345,110.18Zm9.73-4.63a7.35,7.35,0,0,0,2.71,3.48,3,3,0,0,0,4-.18c2-1.72,2-5.28,1.61-7.81v0c-.76-.51-1.57-.94-2.36-1.4l-2.38-1.37c-1.59-.91-3.16-1.86-4.78-2.72.09,1.07.12,2.19.17,3.3s.17,2.11.23,3.16A16.75,16.75,0,0,0,354.77,105.55Zm-21.3,27c1.55-1.23,3.07-2.34,4.65-3.48s3.17-2.23,4.81-3.32c3.25-2.16,6.66-4.3,10.06-6.22s6.94-3.85,10.54-5.7c1.81-1,3.59-1.83,5.4-2.7l5.47-2.62L372,106.81c-.81-.57-1.61-1.16-2.45-1.68l-5-3.2c.29,4.51-1.87,11.43-7.49,8.45a6.78,6.78,0,0,1-3-3,8.75,8.75,0,0,1-1.15,3.94c-1.45,2.29-5.23,4-7.5,2.06-1.65-1.35-1.94-3.83-1.9-6.09-.3.83-.62,1.65-1,2.45-1.28,3-4.81,6.72-8.14,5-3.59-1.64-2.61-6.92-1-9.82.39-.67.79-1.34,1.2-2a13.9,13.9,0,0,1-2.88,1.92,5.11,5.11,0,0,1-3.15.47c-3.07-.6-4-4.87-2.95-7.48a9.16,9.16,0,0,1,2.25-3.05,6.8,6.8,0,0,1-4.26-.47c-5.88-2.46-1.75-8.54,1.93-11.12l-5.62-1.9c-.47-.16-.94-.33-1.41-.47l-1.43-.41-2.85-.81,1.37,5.9.65,2.93.61,3c.79,4,1.51,7.9,2.12,11.79s1.06,7.86,1.4,11.75c.17,2,.31,3.89.4,5.82s.18,3.83.18,5.8c0,0,0,.07,0,.1l6.3,2.85,6.15,3.15Z"/><path class="cls-1" d="M325.72,69.83a3.56,3.56,0,0,1-2,2,5,5,0,0,1-3.08.09,4.09,4.09,0,0,1-3.06-4.76c.56-2,2.77-2.87,5-2.43a1,1,0,0,1,.23,0,.93.93,0,0,1,.22.08C325.23,65.72,326.52,67.86,325.72,69.83ZM322.41,66c-3.57-.84-4.9,3.69-1.43,4.68a3,3,0,0,0,2.15-.1,2.22,2.22,0,0,0,1.14-1.34,2.42,2.42,0,0,0-.15-1.82A2.83,2.83,0,0,0,322.41,66Z"/><path class="cls-1" d="M340.56,75.32A4.38,4.38,0,0,1,332.61,72c.71-1.93,3-2.62,5.16-2a.9.9,0,0,1,.22.06.82.82,0,0,1,.21.11C340.35,71.24,341.5,73.4,340.56,75.32Zm-3-4c-3.47-1.17-5.13,3.24-1.78,4.56S340.87,72.78,337.52,71.27Z"/><path class="cls-1" d="M354.9,82A4.39,4.39,0,0,1,347.24,78c.84-1.87,3.16-2.43,5.33-1.66a1.19,1.19,0,0,1,.22.08,1,1,0,0,1,.2.13C355,77.85,356,80.13,354.9,82Zm-2.67-4.34c-3.41-1.36-5.4,2.92-2.13,4.41S355.41,79.44,352.23,77.62Z"/><path class="cls-1" d="M368.75,89.6a4.21,4.21,0,0,1-5.49.91,4.15,4.15,0,0,1-1.87-5.38c1-1.8,3.32-2.16,5.4-1.19l.21.1.19.13C369.15,85.54,370,87.84,368.75,89.6Zm-2.4-4.44c-3.26-1.67-5.57,2.44-2.45,4.23S369.44,87.14,366.35,85.16Z"/><path class="cls-1" d="M381.92,98.33a4.1,4.1,0,0,1-5.49.43,4.89,4.89,0,0,1-1.87-2.58,3.5,3.5,0,0,1,.37-2.88,3.36,3.36,0,0,1,2.42-1.48,4.9,4.9,0,0,1,3.09.65,1.06,1.06,0,0,1,.2.12.9.9,0,0,1,.18.15C382.65,94.29,383.27,96.67,381.92,98.33Zm-2-4.68a2.82,2.82,0,0,0-2.17-.46,2.46,2.46,0,0,0-1.51,1,2.28,2.28,0,0,0-.34,1.73,3,3,0,0,0,1.26,1.75C380.09,99.77,382.8,95.91,379.91,93.65Z"/><path class="cls-1" d="M394.29,193.56a155.72,155.72,0,0,0-38.13-44.63l.64-.8c1,.81,2.07,1.58,3.11,2.52,1-3.32,1.89-6.54,2.73-9.83l1.27-1.6a.81.81,0,0,1,.11.49c-.45,2-.92,3.9-1.45,5.84s-1.11,3.89-1.7,5.82a.36.36,0,0,1,0,.09l3.32,2.86c1.22-3.71,2.32-7.52,3.33-11.39.5-1.93,1-3.89,1.45-5.83s.86-3.86,1.29-5.77l1.25-1.57a.84.84,0,0,1,.13.49c-.39,2.15-.78,4.23-1.27,6.36s-1,4.22-1.55,6.3-1.14,4.13-1.75,6.16-1.24,4-2,6.06l0,0,3.35,3.19c1.07-2.88,2.05-5.83,3-8.84.45-1.49.9-3,1.3-4.53s.78-3,1.15-4.54c1.46-6.07,2.77-12.39,3.91-18.52l1.26-1.58a1,1,0,0,1,.15.52c-.26,1.66-.54,3.31-.82,4.94s-.63,3.32-1,5c-.67,3.28-1.39,6.52-2.18,9.69s-1.69,6.37-2.67,9.49-2,6.19-3.19,9.2l0,.06c.54.49,1,1,1.53,1.55l1.5,1.58a175.8,175.8,0,0,0,8-24.49c1.06-4.2,2-8.43,2.86-12.77q.68-3.24,1.3-6.53t1.15-6.52l1.31-1.65a.94.94,0,0,1,.17.54c-.39,2.29-.75,4.52-1.18,6.81s-.87,4.56-1.32,6.81-.92,4.48-1.41,6.68l-.75,3.29c-.26,1.1-.55,2.22-.83,3.32-1.14,4.4-2.37,8.7-3.74,12.9-.33,1-.69,2.09-1.07,3.15s-.76,2.1-1.16,3.14c-.78,2.08-1.61,4.13-2.47,6.15l0,.06,1.54,1.6c.52.53,1,1.12,1.47,1.67.59-1.26,1.16-2.54,1.71-3.83s1.05-2.54,1.56-3.83c1-2.58,2-5.21,2.87-7.88,1.86-5.38,3.35-10.74,4.8-16.3l1.06-4.19c.34-1.4.69-2.82,1-4.2l1.86-8.44q1.82-8.55,3.65-17.13L396,99l2.4,1.9c.8.64,1.56,1.32,2.34,2l4.62,4c1.57,1.31,3,2.77,4.49,4.16l4.42,4.23,4.23,4.42,2.11,2.22c.35.37.71.73,1.05,1.11l1,1.16,4,4.62c.66.78,1.34,1.53,2,2.33l1.9,2.4A222.68,222.68,0,0,1,456.68,175l-2,.95c-5.93-.07-11.79-.22-17.57-.33-1.45,0-2.87-.06-4.33-.07h-4.37q-4.35,0-8.62.1l-4.25.13c-1.41.05-2.86.14-4.28.23-2.84.18-5.66.41-8.44.69a149.53,149.53,0,0,0-16.51,2.56l2.58,3.62.06,0a169.27,169.27,0,0,1,26.54-2.55c9.12-.26,18.17.16,27.54.63a.69.69,0,0,1,.54.37l-1.94.94c-4.5-.24-9-.45-13.35-.59-2.2-.07-4.35-.14-6.56-.14s-4.4,0-6.58.06-4.34.12-6.48.23-4.26.24-6.43.45c-4.3.4-8.53.94-12.68,1.66l2.34,3.66.07,0c1.61-.24,3.25-.46,4.87-.64s3.21-.32,4.84-.44q4.86-.37,9.85-.49c3.36-.09,6.6,0,9.94.07s6.7.26,10.1.46a.65.65,0,0,1,.52.34l-1.86.89c-6.48-.38-12.79-.61-19-.52q-4.75.11-9.41.43c-1.54.11-3.08.25-4.61.4s-3,.32-4.6.55c.43.64.78,1.32,1.17,2l1.15,2h0a169,169,0,0,1,25.81-.81.65.65,0,0,1,.51.31l-1.85.9q-6.11-.24-12.05-.08c-2,.05-3.94.13-5.9.25s-4,.3-5.93.51l1.09,1.89,1,1.95.1,0c4-.28,8-.4,12.13-.41a.56.56,0,0,1,.49.28l-1.88.91c-3.47,0-6.89.11-10.28.33l1.91,3.71-.93.44-2.37-4.61c-.4-.76-.77-1.55-1.2-2.3Zm-1.43-78.41A205.17,205.17,0,0,1,440,174.06a1.59,1.59,0,0,1,.07.2c5,.09,10.07.19,15.18.21l-3.08-6c-.53-1-1-2-1.58-3l-1.68-2.94A218.42,218.42,0,0,0,396,100.34Q394.43,107.77,392.86,115.15Zm-1.23,5.75,1.26,1.09c.42.36.84.73,1.24,1.13l2.42,2.3,2.42,2.31c.81.77,1.62,1.53,2.38,2.35a.61.61,0,0,1,.39.41,200.9,200.9,0,0,1,25.34,31.74.57.57,0,0,1,.3.47c2.49,3.71,4.64,7.63,6.87,11.49,1.59,0,3.14,0,4.7.05-.64-1.33-1.46-2.66-2.26-4.07l-2.53-4.4-.66-1.15c-.23-.38-.48-.75-.72-1.13l-1.47-2.3-3.05-4.75c-1.09-1.56-2.22-3.13-3.34-4.72l-1.69-2.37c-.29-.4-.56-.8-.86-1.19l-.9-1.15-3.59-4.57c-.6-.75-1.17-1.52-1.79-2.23l-1.85-2.14-3.6-4.15c-.57-.68-1.2-1.31-1.79-1.94s-1.18-1.24-1.76-1.85l-3.32-3.48c-1.07-1.09-2.15-2.07-3.12-3L397.91,121c-.84-.8-1.58-1.54-2.3-2.13l-3-2.6Zm1.51,28.35c.47,1.45,1.72,1.79,3.13,1.81a18.64,18.64,0,0,0,8.58-2.43c2.73-1.39,5.37-3.12,8-4.29-.95-1.18-2-2.31-3-3.46l-.16,0-2.9.26a39.78,39.78,0,0,1-6.21.78,20.42,20.42,0,0,0-4.3,1.39C394.09,144.36,392.22,146.7,393.14,149.25Zm9.16-8.78c1-.17,2.07-.31,3.11-.45s2.16-.39,3.23-.55c-2.34-2.82-4.94-5.4-7.46-8.07h0a13.24,13.24,0,0,0-4.08.78,5.62,5.62,0,0,0-3.13,2.48c-1.74,3.33,1.94,5.53,4.7,5.84A16.59,16.59,0,0,0,402.3,140.47Zm-4.82,14.4a8.93,8.93,0,0,0-2.4,3.12,3.5,3.5,0,0,0,.15,3.7c1.74,2.21,5.37.66,7.14-.68a38.23,38.23,0,0,0,4.56-4.7q4.11-4.49,8.13-9.09h0l-1.34-1.7h0c-3.72,2-7.38,4-11.05,6.16A34.72,34.72,0,0,0,397.48,154.87Zm8.36,8.14c-.3,1.38-.25,2.69,1,3.48,2.31,1.44,5.05.1,6.5-1.8a19.45,19.45,0,0,0,2.24-3.82,41.58,41.58,0,0,1,2.2-6c.31-.94.61-1.87.91-2.77l.06-.15c-.88-1.23-1.86-2.4-2.79-3.61-1.72,2.3-4,4.47-5.91,6.82A19.11,19.11,0,0,0,405.84,163Zm10.82,0a7.76,7.76,0,0,0,0,1.08,7.35,7.35,0,0,0,.12,1.14,6.56,6.56,0,0,0,.75,2.14,3.12,3.12,0,0,0,3.75,1.55c2.59-.69,4.11-3.88,4.79-6.33v0l-1.48-2.31-.75-1.15-.79-1.12-3.19-4.48c-.4,1-.84,2-1.27,3s-.74,2-1.13,2.93A15.51,15.51,0,0,0,416.66,163ZM385.72,178.2c3.77-.83,7.61-1.51,11.51-2.08,2-.29,3.88-.5,5.84-.71s3.91-.37,5.89-.52c8-.64,15.9-.71,24.1-.7-2-3.42-3.87-6.9-6.07-10.19-1.65,4.17-6.56,9.46-10.43,4.4a7,7,0,0,1-1.37-4.09,8.61,8.61,0,0,1-2.75,3.06,6.64,6.64,0,0,1-4.24.87,4.14,4.14,0,0,1-3.47-2.21c-.91-1.92,0-4.37,1-6.35-.63.61-1.27,1.21-1.93,1.79-2.42,2.11-7.25,4-9.55,1a4,4,0,0,1-.86-2.52,5.81,5.81,0,0,1,.63-2.59,11.46,11.46,0,0,1,3.66-4.2q1-.66,1.95-1.29c-2.22.57-4.82.92-6.51-.43a3.74,3.74,0,0,1-1.21-1.82,5,5,0,0,1-.18-2.21,6.66,6.66,0,0,1,2-4,9,9,0,0,1,3.36-1.78,6.73,6.73,0,0,1-3.66-2.25,6,6,0,0,1-1.07-1.78,3.77,3.77,0,0,1-.27-1.61,4.33,4.33,0,0,1,1.41-2.75,12.88,12.88,0,0,1,6.54-3.09c-1.4-1.39-2.85-2.74-4.28-4.11s-2.84-2.75-4.35-4c-.84,3.92-1.81,7.92-2.8,11.81-.49,2-1,3.89-1.52,5.8s-1.05,3.79-1.66,5.72a165.46,165.46,0,0,1-8.38,22,.35.35,0,0,1,0,.08c1.51,1.75,3.07,3.46,4.45,5.31l2.14,2.72c.36.46.72.9,1.07,1.36l1,1.42Z"/><path class="cls-1" d="M405.93,118.28a4.11,4.11,0,0,1-5.51-.37c-1.63-1.61-2-4.09-.65-5.63a3.34,3.34,0,0,1,2.61-1.11,4.31,4.31,0,0,1,1.52.29,5.43,5.43,0,0,1,1.42.83.73.73,0,0,1,.18.14,1.19,1.19,0,0,1,.15.18C407.24,114.4,407.51,116.84,405.93,118.28Zm-1.31-4.9a2.91,2.91,0,0,0-2.05-.8,2.51,2.51,0,0,0-1.65.79,2.25,2.25,0,0,0-.59,1.66,2.86,2.86,0,0,0,1,1.94C403.9,119.45,407.15,116,404.62,113.38Z"/><path class="cls-1" d="M416.89,129.65a4.21,4.21,0,0,1-5.48-.77,4.11,4.11,0,0,1-.24-5.66c1.48-1.43,3.82-1.1,5.54.43a.59.59,0,0,1,.17.15,1.19,1.19,0,0,1,.15.18C418.54,125.83,418.57,128.34,416.89,129.65Zm-.95-5c-2.65-2.53-6.06.72-3.58,3.33a2.49,2.49,0,0,0,3.6.36A2.55,2.55,0,0,0,415.94,124.68Z"/><path class="cls-1" d="M427,141.82a4.14,4.14,0,0,1-5.41-1.17,4.61,4.61,0,0,1-1-3,3.52,3.52,0,0,1,1.2-2.65,3.4,3.4,0,0,1,2.75-.71,5.09,5.09,0,0,1,2.72,1.57.86.86,0,0,1,.15.17.72.72,0,0,1,.13.19C428.82,138.18,428.74,140.63,427,141.82Zm-.58-5c-2.41-2.76-6.05.23-3.82,3.06S428.5,139.78,426.38,136.79Z"/><path class="cls-1" d="M436.09,154.71a3.52,3.52,0,0,1-2.81.25,4.89,4.89,0,0,1-2.47-1.84,4.07,4.07,0,0,1,.59-5.62c1.67-1.2,3.94-.52,5.43,1.23l.15.18a.66.66,0,0,1,.11.2,4.83,4.83,0,0,1,.64,3.19A3.3,3.3,0,0,1,436.09,154.71Zm-.18-5.08c-2.26-2.88-6.12-.17-4,2.77a3.42,3.42,0,0,0,.85.85,2.47,2.47,0,0,0,.91.41,2.21,2.21,0,0,0,1.72-.35,2.41,2.41,0,0,0,1-1.51,2.78,2.78,0,0,0,0-1A3.49,3.49,0,0,0,435.91,149.63Z"/><path class="cls-1" d="M444.26,168.25a4.37,4.37,0,0,1-4.12-7.57c1.75-1.07,3.94-.21,5.26,1.68a1,1,0,0,1,.13.19,2,2,0,0,1,.1.21C446.64,164.93,446.19,167.34,444.26,168.25Zm.15-5.06c-2-3.08-6-.67-4.23,2.45S446.08,166.46,444.41,163.19Z"/><path class="cls-1" d="M414,259.41a153.46,153.46,0,0,0-14.87-56.69l.93-.44,1.64,3.64c2.28-2.54,4.56-5.09,6.78-7.71l1.84-.88a.82.82,0,0,1-.12.48C407.67,201,405,204,402.3,207l-.07.06.91,2c.29.67.53,1.36.81,2,1.37-1.42,2.77-2.89,4.08-4.35s2.6-3,3.88-4.48c2.55-3,5.06-6.16,7.54-9.3l1.81-.87a.87.87,0,0,1-.11.51q-3.9,5.33-8,10.19c-.69.81-1.38,1.62-2.08,2.41s-1.41,1.58-2.15,2.38c-1.47,1.57-2.95,3.12-4.45,4.63l0,0,1.69,4.29a169,169,0,0,0,12.66-13.78c3.93-4.83,7.74-9.9,11.56-15l1.81-.87a.89.89,0,0,1-.1.53q-2.94,4.19-5.93,8.18-1.5,2-3,3.94l-1.53,1.92-1.59,1.92q-3.21,3.83-6.53,7.39c-2.22,2.38-4.46,4.66-6.88,6.9l-.06,0,1.39,4.12q4.72-4.23,9.23-8.9c3-3.11,5.76-6.31,8.57-9.66q2.1-2.49,4.17-5.09c1.34-1.71,2.66-3.43,4-5.19,2.64-3.5,5.27-7.09,7.9-10.73l1.89-.92a1,1,0,0,1-.08.56c-5.48,7.64-10.77,14.95-16.66,21.91-1.45,1.73-2.92,3.43-4.39,5.09-.75.83-1.47,1.65-2.24,2.47s-1.55,1.63-2.33,2.43q-4.68,4.81-9.59,9.15l-.05,0c.26.69.42,1.41.63,2.12l.6,2.14c2.14-1.76,4.24-3.6,6.32-5.49s4-3.83,6-5.83c3.91-4,7.8-8.27,11.4-12.61,1.83-2.18,3.65-4.41,5.47-6.66l2.73-3.41,2.64-3.41c3.53-4.57,7.08-9.24,10.74-13.88l1.91-.93a219.78,219.78,0,0,1,21.61,94.84H476.1c-5.31-2.63-10.53-5.31-15.69-7.92l-3.86-1.95c-1.29-.64-2.62-1.27-3.92-1.9q-3.93-1.89-7.82-3.66c-2.61-1.18-5.16-2.32-7.8-3.4s-5.3-2.1-7.93-3-5.28-1.86-7.91-2.68-5.38-1.55-8.06-2.21c.24,1.46.57,2.9.71,4.38h.07q6.32,1.77,12.63,4.1c2.14.78,4.17,1.6,6.23,2.47s4.11,1.76,6.17,2.7,4.13,1.9,6.2,2.9,4.05,2,6.09,3.09c4,2.11,8.12,4.31,12.23,6.55a.71.71,0,0,1,.33.57h-2.16q-5.92-3.26-11.77-6.33-2.93-1.53-5.83-3c-2-1-4-1.9-6-2.81q-6-2.72-11.89-5-6.09-2.26-12.18-4l.55,4.31.07,0c.78.24,1.57.49,2.34.75l2.28.79q2.28.83,4.56,1.72,4.55,1.78,9.1,3.86c1.54.69,3,1.4,4.47,2.13s3,1.49,4.43,2.25q4.44,2.31,8.9,4.81a.67.67,0,0,1,.33.53H449c-5.67-3.16-11.29-6.12-16.92-8.76a170,170,0,0,0-17.36-6.88l.34,4.61h0c2,.71,4,1.47,6,2.26s3.93,1.64,5.89,2.52q5.85,2.64,11.68,5.74a.62.62,0,0,1,.32.5h-2q-5.4-2.85-10.83-5.31c-3.61-1.64-7.21-3.14-11-4.49.05.73.14,1.46.15,2.19l.05,2.19.09,0c3.72,1.49,7.42,3.15,11.12,4.93a.55.55,0,0,1,.32.46h-2.09c-3.13-1.49-6.26-2.9-9.41-4.18l.11,4.18h-1l-.14-5.2-.06-2.61C414.18,261.14,414.09,260.28,414,259.41Zm32.8-71.24a204.1,204.1,0,0,1,16.84,73.59,1.36,1.36,0,0,1,0,.21c4.47,2.25,9,4.54,13.59,6.78l-.17-6.75-.09-3.37-.25-3.37a215.64,215.64,0,0,0-20.63-79.1C452.94,180.18,449.87,184.2,446.83,188.17Zm-3.58,4.64,2.46,6.23.61,1.55c.21.52.41,1,.58,1.58l1.08,3.17a.62.62,0,0,1,.18.53,197.67,197.67,0,0,1,9,39.62.58.58,0,0,1,.07.56l.42,3.32.26,3.33.5,6.67,4.19,2.09c-.24-5.88-.82-13.1-1.89-20.66-.2-1.9-.59-3.8-.92-5.71s-.68-3.84-1-5.75-.86-3.8-1.28-5.68c-.22-.93-.43-1.87-.65-2.79s-.41-1.85-.68-2.75l-1.5-5.28c-.5-1.72-.94-3.4-1.5-5s-1.05-3.11-1.55-4.56c-.24-.73-.48-1.44-.71-2.12s-.46-1.35-.72-2l-2.54-6.44c-.34-.86-.62-1.62-.89-2.23s-.49-1.09-.65-1.43C445.16,190.34,444.24,191.56,443.25,192.81Zm-11,26.23c-.19,1.51.8,2.35,2.07,3a19.08,19.08,0,0,0,8.79,1.55c3-.06,6.14-.46,9-.38-.34-1.49-.66-3-1.11-4.43l-.15,0-2.75-1a43.16,43.16,0,0,1-6-2,18.86,18.86,0,0,0-4.4-.64C435.32,215,432.58,216.33,432.25,219Zm12.06-3.93c1,.3,2,.62,3,.95s2.12.58,3.17.9L449,211.67c-.52-1.76-1.15-3.48-1.73-5.22h0c-2.33-1-5.77-1.79-7.92-.19-3.05,2.26-.58,5.8,1.77,7.29A15.57,15.57,0,0,0,444.31,215.11ZM433.75,226c-2.18.54-5.62,2.45-5,5.16s4.59,2.92,6.76,2.49a37.42,37.42,0,0,0,6.15-2.25q5.64-2.25,11.25-4.63h0l-.49-2.11h0q-6.33.3-12.64.74A35.83,35.83,0,0,0,433.75,226Zm4,11c-.86,1.1-1.38,2.31-.56,3.58,1.5,2.29,4.47,2.29,6.65,1.21a19,19,0,0,0,3.67-2.47,41.15,41.15,0,0,1,4.56-4.41l2-2.1.13-.1-.41-2.24c-.12-.75-.33-1.49-.49-2.23-2.54,1.31-5.5,2.29-8.27,3.56A18.93,18.93,0,0,0,437.71,236.94Zm9.76,4.71c-1.5,2.38-2.05,6.63,1.59,7.33,2.63.5,5.38-1.7,7.05-3.61l0,0-.69-5.45c-.3-1.81-.64-3.61-1-5.42-.79.74-1.63,1.46-2.45,2.19s-1.52,1.44-2.29,2.14A18,18,0,0,0,447.47,241.65Zm-34.48.2c3.75.89,7.57,1.94,11.29,3.14s7.38,2.54,11.08,4c1.86.72,3.72,1.48,5.57,2.26s3.63,1.59,5.45,2.42c3.64,1.66,7.3,3.4,11,5.18l-.44-5.91L456.7,250c-.09-1-.24-2-.35-3-3.29,3-10,5.65-11.33-.59a6.59,6.59,0,0,1,.56-4.26,9.13,9.13,0,0,1-3.83,1.55,6.42,6.42,0,0,1-4.15-1.07,4.21,4.21,0,0,1-2.18-3.5c0-2.12,1.84-3.91,3.65-5.29-.84.28-1.68.54-2.53.77a10.85,10.85,0,0,1-5.35.07,4.58,4.58,0,0,1-3.69-3.3c-.87-3.85,3.9-6.39,7.18-6.9.77-.12,1.55-.22,2.32-.31-2.24-.46-4.77-1.26-5.72-3.21a4.17,4.17,0,0,1,.53-4.24,6.75,6.75,0,0,1,3.54-2.74,9.2,9.2,0,0,1,3.81-.15,6.78,6.78,0,0,1-2.38-3.6c-1.61-6.17,5.68-6.72,9.94-5.43l-1-2.81c-.34-.93-.72-1.85-1.08-2.77l-2.18-5.52c-2.54,3.21-5.08,6.37-7.63,9.44-1.29,1.54-2.54,3-3.88,4.55s-2.68,3-4,4.45c-2.71,2.92-5.43,5.72-8.24,8.41s-5.82,5.28-8.82,7.72l-.08.05.48,1.66.23.83.2.85.77,3.36.78,3.37.6,3.4Z"/><path class="cls-1" d="M457.28,196.66a4.37,4.37,0,0,1-3-8.09c1.9-.8,3.94.38,5,2.44a1.08,1.08,0,0,1,.17.43C460.12,193.74,459.33,196.05,457.28,196.66Zm.9-5c-1.51-3.34-5.88-1.56-4.55,1.79S459.35,195.16,458.18,191.69Z"/><path class="cls-1" d="M462.17,211.71a4.4,4.4,0,0,1-2.34-8.3c1.94-.65,3.94.67,4.85,2.78a1.13,1.13,0,0,1,.08.22.62.62,0,0,1,0,.23C465.26,209,464.26,211.25,462.17,211.71Zm1.36-4.92a2.63,2.63,0,0,0-3.25-1.85,2.42,2.42,0,0,0-1.43,3.29C459.84,211.7,464.37,210.36,463.53,206.79Z"/><path class="cls-1" d="M466,227.05a4.37,4.37,0,0,1-1.73-8.44c2-.5,3.84,1,4.54,3.16a.63.63,0,0,1,.07.22,1,1,0,0,1,0,.23C469.25,224.59,468.12,226.76,466,227.05Zm1.63-4.78c-1-3.53-5.58-2.42-4.77,1.09S468.28,225.88,467.63,222.27Z"/><path class="cls-1" d="M468.56,242.65a4.38,4.38,0,0,1-1.06-8.54c2-.35,3.81,1.24,4.36,3.47a.78.78,0,0,1,.05.23.6.6,0,0,1,0,.23C472,240.44,470.69,242.52,468.56,242.65Zm2.08-4.65a2.61,2.61,0,0,0-2.93-2.31,2.42,2.42,0,0,0-1.91,3C466.26,242.29,470.93,241.66,470.64,238Z"/><path class="cls-1" d="M470,258.38a4.19,4.19,0,0,1-3.84-4,4.14,4.14,0,0,1,3.4-4.57c2-.2,3.64,1.53,4,3.79a.79.79,0,0,1,0,.23.88.88,0,0,1,0,.23C473.62,256.43,472.18,258.4,470,258.38Zm2.33-4.48c-.46-3.63-5.16-3.22-4.88.36S472.46,257.56,472.37,253.9Z"/></svg>