<svg id="Layer_1" data-name="Layer 1" xmlns="http://www.w3.org/2000/svg" viewBox="0 0 519.58 539.62"><defs><style>.cls-1{fill:#2a273d;}</style></defs><path class="cls-1" d="M359.42,422.69a11.73,11.73,0,0,0-6.52-4.85,10,10,0,0,0-3.74-.36,8.41,8.41,0,0,0-3.54,1l1.89,3.27c3.34-1.83,6.61-1.24,9.12,2.72s1.54,7.41-2.08,9.45l1.89,3.27a10.19,10.19,0,0,0,3-2.75,10.55,10.55,0,0,0,0-11.76Z"/><path class="cls-1" d="M333.06,396.79a146,146,0,0,0,53.71-53.71,144.84,144.84,0,0,0,8.51-17.16c1.15-3,2.4-5.92,3.35-9,.48-1.52,1.09-3,1.49-4.55l1.3-4.6a150.7,150.7,0,0,0,5-38h4.21a.62.62,0,0,0-.29.15,168.37,168.37,0,0,1,29.55,29.31A192.33,192.33,0,0,0,474.23,270a.43.43,0,0,0-.28-.18h4.34a223,223,0,0,1-7.43,56.54l-2,6.88c-.62,2.31-1.47,4.54-2.21,6.81-1.45,4.55-3.26,9-5,13.41A215.67,215.67,0,0,1,449,379.08,217.91,217.91,0,0,1,369.05,459L367,455.38c.68-1.93,1.32-3.82,1.91-5.69s1.07-3.83,1.54-5.7c.93-3.77,1.76-7.37,2.35-11.1s1.13-7.27,1.52-10.88.65-7.25.9-10.82c-3.6-.54-7.08-1.18-10.47-1.89s-6.8-1.65-10.09-2.54-6.59-2-9.83-3L340,402.11l-4.86-1.8ZM421.86,412a189.19,189.19,0,0,1-42.84-.11,193.36,193.36,0,0,1-7.27,42.26,227.54,227.54,0,0,0,26.66-19.18A213.73,213.73,0,0,0,421.86,412Zm38.87-64a200.76,200.76,0,0,1-20.1,8.58,187.33,187.33,0,0,1-20.23,6,186.9,186.9,0,0,1,7.54,42.19,208.59,208.59,0,0,0,18.55-27.09c2.82-4.71,5.26-9.63,7.73-14.52C456.5,358.13,458.81,353.15,460.73,348Zm-18.31-46a185.26,185.26,0,0,1,11.67,17.57,197.6,197.6,0,0,1,9.88,19.5c1.85-5.17,3.26-10.48,4.73-15.77,1.25-5.34,2.55-10.67,3.41-16.09l.72-4.05c.23-1.35.37-2.72.55-4.08.34-2.71.73-5.43,1-8.15l.63-8.19c.24-2.73.2-5.47.3-8.2-2.61,2.68-5.08,5.26-7.83,7.75s-5.41,4.88-8.11,7.17-5.6,4.48-8.38,6.57c-1.41,1.05-2.77,2.08-4.22,3.07Zm-41.07,15.82a157.11,157.11,0,0,0,17.9-7.16A171.71,171.71,0,0,0,436.68,301l-3.12-4c-1.05-1.29-2.2-2.57-3.29-3.83-2.23-2.51-4.4-4.91-6.7-7.24s-4.7-4.57-7.05-6.71-4.9-4.2-7.32-6.16c-.09,1.9,0,3.82-.21,5.71l-.43,5.69c-.18,1.9-.48,3.77-.7,5.66-.13.94-.2,1.89-.37,2.83l-.51,2.8c-.57,3.76-1.51,7.44-2.34,11.14C403.58,310.61,402.66,314.3,401.35,317.86Zm0,3.47A163.56,163.56,0,0,1,419,359a188.74,188.74,0,0,0,42.35-15.83,187.59,187.59,0,0,0-22.26-39.35A163.81,163.81,0,0,1,401.31,321.33Zm-24.92,42a159.71,159.71,0,0,0,39-3.7A169.57,169.57,0,0,0,408.21,341a157.72,157.72,0,0,0-9.1-17c-1.3,3.56-2.94,7-4.49,10.45-1.74,3.38-3.39,6.8-5.36,10A142.34,142.34,0,0,1,376.39,363.32Zm-1.27,3.23A162.64,162.64,0,0,1,378.88,408a186,186,0,0,0,45.17-.4,189.28,189.28,0,0,0-7.4-44.56A165.64,165.64,0,0,1,375.12,366.55Zm-3,1.8a147,147,0,0,1-16.29,16,161.89,161.89,0,0,1-18.49,13.32,164.62,164.62,0,0,0,37.89,9.76A161.58,161.58,0,0,0,372.16,368.35Z"/><path class="cls-1" d="M393,394.55a12.06,12.06,0,0,1-3.65-7.27,8.93,8.93,0,0,1,2-7.14,9.4,9.4,0,0,1,6.65-3.25,12.07,12.07,0,0,1,7.85,2.4,10.61,10.61,0,0,1,4.24,7,9.75,9.75,0,0,1-2.19,7.77,10,10,0,0,1-7.23,3.52A11.24,11.24,0,0,1,393,394.55Zm2.27-2.42a6.63,6.63,0,0,0,9.79-.56c2.26-2.62,2.45-6.82-1.25-9.67s-7.46-1.78-9.52.63S391.83,388.92,395.22,392.13Z"/><path class="cls-1" d="M427.64,341.54a12.48,12.48,0,0,1-6-5.61,9.11,9.11,0,0,1,4.63-12.7,11.94,11.94,0,0,1,8.16-.45,10.68,10.68,0,0,1,6.41,5.12,10.21,10.21,0,0,1,.61,8.06,10,10,0,0,1-5.65,5.76A10.93,10.93,0,0,1,427.64,341.54Zm1.25-3.08A6.68,6.68,0,0,0,438,334.6a6.51,6.51,0,0,0-4.49-8.65c-4.49-1.42-7.72.85-8.72,3.85S424.6,336.6,428.89,338.46Z"/><path class="cls-1" d="M442,279.83c6,.27,10.93-3.87,11.09-9.86a1.26,1.26,0,0,0,0-.16h-3.77a7,7,0,0,1-14.05,0H431.5a.52.52,0,0,0,0,.15C431.32,275.18,436.1,279.35,442,279.83Z"/><path class="cls-1" d="M177.21,432.55c2.66-5.36.95-11.45-3.25-14.06l-1.89,3.27a6.25,6.25,0,0,1,3.13,3.84,7.45,7.45,0,0,1-.94,5.44,7.16,7.16,0,0,1-4.09,3.8,6.68,6.68,0,0,1-5.14-.91l-1.89,3.27C168.06,440.05,174.59,437.85,177.21,432.55Z"/><path class="cls-1" d="M186.52,396.79a142.72,142.72,0,0,0,17.17,8.51c3,1.15,5.91,2.41,9,3.35,1.52.48,3,1.09,4.55,1.49l4.61,1.31a147,147,0,0,0,75.94,0l4.61-1.31c1.55-.4,3-1,4.55-1.49,3.06-.94,6-2.2,9-3.35a143.33,143.33,0,0,0,17.16-8.51l2.11,3.65c0-.08-.16-.12-.27-.17a160.65,160.65,0,0,1-10.57,40.26,184.56,184.56,0,0,0,42.54,15.06.45.45,0,0,0,0-.34l2.17,3.75a214,214,0,0,1-25.62,12.69c-4.44,1.76-8.86,3.57-13.41,5-2.27.74-4.5,1.59-6.81,2.22l-6.89,1.95a218.76,218.76,0,0,1-113.06,0l-6.89-1.95c-2.31-.63-4.54-1.48-6.81-2.22-4.55-1.45-9-3.26-13.41-5A214.77,214.77,0,0,1,150.53,459l2.09-3.62c16.1-3,29.46-8.46,42.42-14.93-5.38-13.33-8.24-26.6-10.56-40.14Zm31.22,84.52a191.31,191.31,0,0,1-21.37-37.16,192.47,192.47,0,0,1-40.26,14.74,229.24,229.24,0,0,0,29.95,13.59A227.53,227.53,0,0,0,217.74,481.31ZM292.51,483a196.67,196.67,0,0,1-32.72-27.67A196.67,196.67,0,0,1,227.07,483a239.28,239.28,0,0,0,32.72,2.48A239.28,239.28,0,0,0,292.51,483Zm30.71-38.81a191.88,191.88,0,0,1-21.38,37.16,227.15,227.15,0,0,0,31.68-8.83,229.24,229.24,0,0,0,30-13.59A192.18,192.18,0,0,1,323.22,444.15ZM289,416.44a163.33,163.33,0,0,0,32.22,22.23,164.13,164.13,0,0,0,10.41-37.73,164.24,164.24,0,0,1-20.72,9.4A159.5,159.5,0,0,1,289,416.44Zm-3,1.61a162.33,162.33,0,0,1-23.82,34.21A184.89,184.89,0,0,0,297,481a194.27,194.27,0,0,0,12.93-19.09q2.87-5,5.4-9.83c1.69-3.26,3.22-6.67,4.68-9.95-3.22-1.75-6.3-3.43-9.33-5.33s-6-3.85-8.79-5.81A157.76,157.76,0,0,1,286,418.05ZM237,417.59a167.33,167.33,0,0,0,22.76,31.87,167.33,167.33,0,0,0,22.76-31.87,173,173,0,0,1-22.76,1.72A173,173,0,0,1,237,417.59Zm-3.41.46A157.76,157.76,0,0,1,217.72,431q-4.23,2.94-8.79,5.81c-3,1.9-6.11,3.58-9.32,5.33,1.45,3.28,3,6.69,4.67,9.95s3.49,6.53,5.4,9.83A194.27,194.27,0,0,0,222.61,481a184.89,184.89,0,0,0,34.83-28.72A162.33,162.33,0,0,1,233.62,418.05Zm-3-1.61a159.5,159.5,0,0,1-21.91-6.1,164.24,164.24,0,0,1-20.72-9.4,164.13,164.13,0,0,0,10.41,37.73A163.33,163.33,0,0,0,230.58,416.44Z"/><path class="cls-1" d="M218.34,447.53c1.52-5.83,6.48-9.48,11.64-8.66a8.47,8.47,0,0,1,3.47,1.48,9.69,9.69,0,0,1,2.67,2.67,11.81,11.81,0,0,1,1.87,8,10.75,10.75,0,0,1-3.92,7.22,9.37,9.37,0,0,1-7.82,2C220.33,459.21,217,453.34,218.34,447.53Zm3.23.74c-1.93,9.28,11.94,11.8,13.13,2.28a7.14,7.14,0,0,0-1.27-5.48,6.58,6.58,0,0,0-4-2.47,6.5,6.5,0,0,0-4.68,1A7.37,7.37,0,0,0,221.57,448.27Z"/><path class="cls-1" d="M281.59,451a12.26,12.26,0,0,1,1.88-8,9.55,9.55,0,0,1,2.64-2.66,8.45,8.45,0,0,1,3.49-1.49c5.08-.81,10.22,2.81,11.64,8.66s-2.07,11.69-7.91,12.64a9.17,9.17,0,0,1-7.8-2A11.15,11.15,0,0,1,281.59,451Zm3.3-.42c1.34,9.43,15.24,7,13.12-2.28a7.2,7.2,0,0,0-3.05-4.74,6.36,6.36,0,0,0-4.65-.95,6.78,6.78,0,0,0-4.07,2.5A7.23,7.23,0,0,0,284.89,450.55Z"/><path class="cls-1" d="M342.22,432.62a11.22,11.22,0,0,0,6.13,5.46,9.26,9.26,0,0,0,7.95-.8.55.55,0,0,0,.13-.09l-1.89-3.26a7.14,7.14,0,0,1-4.79.8,6.78,6.78,0,0,1-4.77-3.52,7.13,7.13,0,0,1-.35-5.83,6.67,6.67,0,0,1,2.88-3.61l-1.89-3.27-.13.06a9.32,9.32,0,0,0-4.28,6A12.31,12.31,0,0,0,342.22,432.62Z"/><path class="cls-1" d="M77.56,279.67c5.89-.38,10.6-4.92,10.53-9.86H84.31c.09,3.81-2.18,6.35-6.86,6.54s-7.07-2.39-7.19-6.54H66.48A10.35,10.35,0,0,0,77.56,279.67Z"/><path class="cls-1" d="M113.17,269.81a150.24,150.24,0,0,0,5,38l1.3,4.6c.4,1.55,1,3,1.49,4.55,1,3.06,2.2,6,3.35,9a144.84,144.84,0,0,0,8.51,17.16,146,146,0,0,0,53.71,53.71l-2.11,3.65a.49.49,0,0,0,0-.32,163.59,163.59,0,0,1-40.19,10.94,187.56,187.56,0,0,0,8.17,44.35.46.46,0,0,0,.3-.16L150.53,459A217.91,217.91,0,0,1,70.6,379.08a215.67,215.67,0,0,1-12.69-25.63c-1.76-4.44-3.57-8.86-5-13.41-.74-2.27-1.59-4.5-2.21-6.81l-2-6.88a223,223,0,0,1-7.43-56.54h4.19C56.17,282.22,67.7,291,79.65,299.06c9-11.34,18.93-20.41,29.45-29.25Zm-57.56,69.3a197.6,197.6,0,0,1,9.88-19.5A185.26,185.26,0,0,1,77.16,302l-4.34-2.9c-1.45-1-2.81-2-4.22-3.07-2.78-2.09-5.64-4.28-8.38-6.57s-5.4-4.68-8.11-7.17-5.22-5.07-7.83-7.75c.1,2.73.06,5.47.3,8.2l.63,8.19c.26,2.72.65,5.44,1,8.15.18,1.36.32,2.73.55,4.08l.72,4.05c.86,5.42,2.16,10.75,3.41,16.09C52.35,328.63,53.76,333.94,55.61,339.11Zm36,65.62a186.9,186.9,0,0,1,7.54-42.19,188,188,0,0,1-20.23-6A200.76,200.76,0,0,1,58.85,348c1.92,5.14,4.23,10.12,6.51,15.11,2.47,4.89,4.91,9.81,7.73,14.52A208.59,208.59,0,0,0,91.64,404.73Zm48.92,7.13a189.19,189.19,0,0,1-42.84.11,213.73,213.73,0,0,0,23.45,23,227.54,227.54,0,0,0,26.66,19.18A193.36,193.36,0,0,1,140.56,411.86Zm6.86-43.51a162.09,162.09,0,0,0-3.11,39,164.84,164.84,0,0,0,37.9-9.76,161.13,161.13,0,0,1-18.5-13.32A147,147,0,0,1,147.42,368.35Zm-3-1.8a165.64,165.64,0,0,1-41.53-3.47,189.28,189.28,0,0,0-7.4,44.56,186,186,0,0,0,45.17.4A162.64,162.64,0,0,1,144.46,366.55Zm-24-42.53a157.72,157.72,0,0,0-9.1,17,169.57,169.57,0,0,0-7.14,18.61,159.71,159.71,0,0,0,39,3.7,143.31,143.31,0,0,1-12.87-18.8c-2-3.25-3.62-6.67-5.36-10C123.41,331,121.77,327.58,120.47,324Zm-2.2-2.69A163.81,163.81,0,0,1,80.5,303.84a187.59,187.59,0,0,0-22.26,39.35A188.74,188.74,0,0,0,100.59,359,164,164,0,0,1,118.27,321.33Zm0-3.47c-1.31-3.56-2.23-7.25-3.29-10.89-.83-3.7-1.77-7.38-2.34-11.14l-.51-2.8c-.16-.94-.24-1.89-.37-2.83-.22-1.89-.52-3.76-.7-5.66l-.43-5.69c-.19-1.89-.12-3.81-.21-5.71-2.42,2-5,4-7.32,6.16s-4.7,4.38-7,6.71-4.47,4.73-6.7,7.24c-1.09,1.26-2.23,2.54-3.29,3.83l-3.12,4a171.71,171.71,0,0,0,17.43,9.66A157.11,157.11,0,0,0,118.23,317.86Z"/><path class="cls-1" d="M85.12,322.78c5.71-1.55,11.63.84,13.3,5.78a9.08,9.08,0,0,1-.5,7.38,12.08,12.08,0,0,1-6,5.6,10.6,10.6,0,0,1-8.19.19A10.09,10.09,0,0,1,78.1,336C76.17,330.28,79.34,324.59,85.12,322.78Zm1,3.17a6.69,6.69,0,0,0-4.45,8.78,6.51,6.51,0,0,0,9,3.73c4.35-1.8,5.34-5.6,4.19-8.55S90.6,324.62,86.12,326Z"/><path class="cls-1" d="M113.77,379.29a12.43,12.43,0,0,1,7.85-2.39,9.27,9.27,0,0,1,6.65,3.24,9.05,9.05,0,0,1,2,7.15,11.68,11.68,0,0,1-3.66,7.26,10.92,10.92,0,0,1-7.68,3,10.13,10.13,0,0,1-7.23-3.53,9.66,9.66,0,0,1-2.19-7.76A11,11,0,0,1,113.77,379.29Zm2,2.61a6.63,6.63,0,0,0-1.17,9.77,6.46,6.46,0,0,0,9.71.46c3.47-3.18,3.14-7.13,1.06-9.51S119.6,379.1,115.82,381.9Z"/><path class="cls-1" d="M160,422.6a11.14,11.14,0,0,0-1.67,8,9.74,9.74,0,0,0,1.52,3.72,9.94,9.94,0,0,0,3.13,2.78.66.66,0,0,0,.15.07l1.89-3.26a6.93,6.93,0,0,1-2.42-9.66,7.09,7.09,0,0,1,4.89-3.2,6.91,6.91,0,0,1,4.56.7L174,418.5a.5.5,0,0,0-.12-.08,8.48,8.48,0,0,0-3.61-1.11,9.42,9.42,0,0,0-3.71.37A12.34,12.34,0,0,0,160,422.6Z"/><path class="cls-1" d="M160.16,116.94a11.74,11.74,0,0,0,6.53,4.84,9.93,9.93,0,0,0,3.73.37,8.28,8.28,0,0,0,3.54-1l-1.89-3.27c-3.34,1.83-6.61,1.24-9.12-2.71s-1.54-7.42,2.08-9.46l-1.89-3.26a9.93,9.93,0,0,0-3,2.75,10.55,10.55,0,0,0-1.56,3.74A10.71,10.71,0,0,0,160.16,116.94Z"/><path class="cls-1" d="M186.52,142.83a146,146,0,0,0-53.71,53.71,145,145,0,0,0-8.51,17.17c-1.15,3-2.4,5.92-3.35,9-.48,1.52-1.09,3-1.49,4.55l-1.3,4.61a150.11,150.11,0,0,0-5,38H109a.54.54,0,0,0,.29-.15,167.68,167.68,0,0,1-29.55-29.31,192.33,192.33,0,0,0-34.34,29.28.39.39,0,0,0,.28.18H41.29a223,223,0,0,1,7.43-56.53l2-6.89c.62-2.3,1.47-4.54,2.21-6.81,1.45-4.55,3.26-9,5-13.4A215.67,215.67,0,0,1,70.6,160.55a217.83,217.83,0,0,1,79.93-79.93l2.09,3.62q-1,2.9-1.91,5.7c-.55,1.92-1.07,3.82-1.54,5.7-.93,3.77-1.76,7.36-2.35,11.09s-1.13,7.28-1.52,10.89-.65,7.25-.9,10.81c3.61.54,7.08,1.18,10.47,1.89s6.81,1.65,10.09,2.55,6.59,2,9.83,3l4.83,1.61,4.86,1.8Zm-88.8-15.18a189.18,189.18,0,0,1,42.84.12,193.26,193.26,0,0,1,7.27-42.26,228.63,228.63,0,0,0-26.66,19.17A214.64,214.64,0,0,0,97.72,127.65Zm-38.87,64A198.46,198.46,0,0,1,79,183a185.74,185.74,0,0,1,20.23-5.95,186.89,186.89,0,0,1-7.54-42.2A208,208,0,0,0,73.09,162c-2.82,4.7-5.26,9.62-7.73,14.51C63.08,181.49,60.77,186.47,58.85,191.62Zm18.31,46A185.1,185.1,0,0,1,65.49,220a199.84,199.84,0,0,1-9.88-19.5c-1.85,5.17-3.26,10.48-4.73,15.76-1.25,5.34-2.55,10.68-3.41,16.1l-.72,4.05c-.23,1.35-.37,2.71-.55,4.07-.34,2.72-.73,5.43-1,8.16l-.63,8.19c-.24,2.73-.2,5.46-.3,8.19,2.61-2.67,5.08-5.26,7.83-7.75s5.41-4.87,8.11-7.17,5.6-4.47,8.38-6.57c1.41-1.05,2.77-2.07,4.22-3.07Zm41.07-15.82a159,159,0,0,0-17.9,7.16,169.9,169.9,0,0,0-17.43,9.67L86,242.54c1.06,1.29,2.2,2.58,3.29,3.83,2.23,2.51,4.4,4.92,6.7,7.25s4.7,4.56,7,6.71,4.9,4.2,7.32,6.16c.09-1.91,0-3.82.21-5.72l.43-5.69c.18-1.89.48-3.77.7-5.66.13-.94.21-1.89.37-2.82l.51-2.81c.57-3.75,1.51-7.43,2.34-11.13C116,229,116.92,225.33,118.23,221.76Zm0-3.46a164.37,164.37,0,0,1-17.68-37.69,187.78,187.78,0,0,0-42.35,15.83A188.1,188.1,0,0,0,80.5,235.79,163.39,163.39,0,0,1,118.27,218.3Zm24.92-42a160.21,160.21,0,0,0-39,3.7,169.74,169.74,0,0,0,7.14,18.62,157.72,157.72,0,0,0,9.1,17c1.3-3.57,2.94-7,4.49-10.46,1.74-3.37,3.39-6.8,5.36-10.05A144,144,0,0,1,143.19,176.3Zm1.27-3.23a162.64,162.64,0,0,1-3.76-41.49,186,186,0,0,0-45.17.41,189.28,189.28,0,0,0,7.4,44.55A165.64,165.64,0,0,1,144.46,173.07Zm3-1.8a147,147,0,0,1,16.29-16A163.59,163.59,0,0,1,182.21,142a164.84,164.84,0,0,0-37.9-9.76A162,162,0,0,0,147.42,171.27Z"/><path class="cls-1" d="M126.63,145.08a12.06,12.06,0,0,1,3.65,7.26,8.93,8.93,0,0,1-2,7.14,9.36,9.36,0,0,1-6.65,3.25,12,12,0,0,1-7.85-2.4,10.59,10.59,0,0,1-4.24-7,9.76,9.76,0,0,1,2.19-7.77,9.93,9.93,0,0,1,7.23-3.52A11.24,11.24,0,0,1,126.63,145.08Zm-2.27,2.41a6.63,6.63,0,0,0-9.79.57c-2.26,2.62-2.45,6.81,1.25,9.66s7.46,1.78,9.52-.62S127.75,150.71,124.36,147.49Z"/><path class="cls-1" d="M91.94,198.09a12.41,12.41,0,0,1,6,5.6,9.11,9.11,0,0,1-4.63,12.7,11.94,11.94,0,0,1-8.16.45,10.64,10.64,0,0,1-6.41-5.12,10.18,10.18,0,0,1-.61-8.05,10,10,0,0,1,5.65-5.77A10.93,10.93,0,0,1,91.94,198.09Zm-1.25,3.07A6.68,6.68,0,0,0,81.63,205a6.52,6.52,0,0,0,4.49,8.66c4.49,1.42,7.72-.85,8.73-3.85S95,203,90.69,201.16Z"/><path class="cls-1" d="M77.57,259.79c-6-.27-10.93,3.87-11.09,9.86a1.08,1.08,0,0,0,0,.16h3.77a7,7,0,0,1,14,0h3.77a.49.49,0,0,0,0-.14C88.26,264.45,83.48,260.27,77.57,259.79Z"/><path class="cls-1" d="M342.37,107.08c-2.66,5.35-.95,11.44,3.25,14l1.89-3.27a6.22,6.22,0,0,1-3.13-3.84,7.43,7.43,0,0,1,.94-5.43,7.18,7.18,0,0,1,4.09-3.81,6.73,6.73,0,0,1,5.14.91l1.89-3.26C351.52,99.57,345,101.78,342.37,107.08Z"/><path class="cls-1" d="M333.06,142.83a144.84,144.84,0,0,0-17.16-8.51c-3-1.15-5.92-2.4-9-3.35-1.52-.48-3-1.09-4.55-1.48l-4.61-1.31a147,147,0,0,0-75.94,0l-4.61,1.31c-1.55.39-3,1-4.55,1.48-3.06.95-6,2.2-9,3.35a144.22,144.22,0,0,0-17.17,8.51l-2.11-3.65a.53.53,0,0,0,.27.17,160.76,160.76,0,0,1,10.57-40.26,184.38,184.38,0,0,0-42.54-15,.42.42,0,0,0,0,.33l-2.17-3.75a216.29,216.29,0,0,1,25.62-12.69c4.44-1.76,8.86-3.57,13.41-5,2.27-.74,4.5-1.59,6.81-2.21l6.89-2a218.76,218.76,0,0,1,113.06,0l6.89,2c2.31.62,4.54,1.47,6.81,2.21,4.55,1.45,9,3.26,13.41,5a215.53,215.53,0,0,1,25.62,12.69L367,84.24c-16.1,3-29.46,8.46-42.42,14.93,5.38,13.33,8.24,26.6,10.56,40.14ZM301.84,58.32a191.81,191.81,0,0,1,21.38,37.15,192.74,192.74,0,0,1,40.25-14.74,229.24,229.24,0,0,0-30-13.59A227.11,227.11,0,0,0,301.84,58.32Zm-74.77-1.66a196.67,196.67,0,0,1,32.72,27.67,196.67,196.67,0,0,1,32.72-27.67,237.69,237.69,0,0,0-32.72-2.47A237.69,237.69,0,0,0,227.07,56.66Zm-30.7,38.81a191.24,191.24,0,0,1,21.37-37.15,227.5,227.5,0,0,0-31.68,8.82,229.24,229.24,0,0,0-29.95,13.59A193,193,0,0,1,196.37,95.47Zm34.21,27.71A163.76,163.76,0,0,0,198.36,101,164.07,164.07,0,0,0,188,138.69a147.14,147.14,0,0,1,42.63-15.51Zm3-1.61a162.27,162.27,0,0,1,23.82-34.2,184.94,184.94,0,0,0-34.83-28.73,194.27,194.27,0,0,0-12.93,19.09q-2.87,5-5.4,9.84c-1.69,3.25-3.22,6.67-4.67,10,3.21,1.74,6.29,3.43,9.32,5.33s6,3.84,8.79,5.8A159.15,159.15,0,0,1,233.62,121.57Zm48.93.46a167,167,0,0,0-22.76-31.86A167,167,0,0,0,237,122a174.77,174.77,0,0,1,22.76-1.72A174.77,174.77,0,0,1,282.55,122Zm3.41-.46a159.15,159.15,0,0,1,15.9-12.92q4.23-2.94,8.79-5.8c3-1.9,6.11-3.59,9.33-5.33-1.46-3.28-3-6.7-4.68-10s-3.49-6.53-5.4-9.84A194.27,194.27,0,0,0,297,58.64a184.94,184.94,0,0,0-34.83,28.73A162.27,162.27,0,0,1,286,121.57Zm3,1.61a147.14,147.14,0,0,1,42.63,15.51A164.07,164.07,0,0,0,321.22,101,163.76,163.76,0,0,0,289,123.18Z"/><path class="cls-1" d="M301.24,92.1c-1.52,5.82-6.48,9.48-11.64,8.65a8.34,8.34,0,0,1-3.47-1.48,9.56,9.56,0,0,1-2.67-2.67,11.8,11.8,0,0,1-1.87-7.95,10.77,10.77,0,0,1,3.92-7.22,10.43,10.43,0,0,1,3.63-1.86,10.16,10.16,0,0,1,4.19-.11C299.25,80.42,302.54,86.28,301.24,92.1ZM298,91.35c1.93-9.28-11.94-11.8-13.12-2.28a7.09,7.09,0,0,0,1.26,5.48,6.48,6.48,0,0,0,8.72,1.51A7.37,7.37,0,0,0,298,91.35Z"/><path class="cls-1" d="M238,88.65a12.26,12.26,0,0,1-1.88,7.95,9.59,9.59,0,0,1-2.64,2.67,8.38,8.38,0,0,1-3.49,1.48c-5.08.81-10.22-2.8-11.64-8.65s2.07-11.7,7.91-12.64a10.24,10.24,0,0,1,4.21.11,10,10,0,0,1,3.59,1.87A11.1,11.1,0,0,1,238,88.65Zm-3.29.42c-1.35-9.43-15.25-7-13.13,2.28a7.2,7.2,0,0,0,3.05,4.74,6.31,6.31,0,0,0,4.65,1,6.73,6.73,0,0,0,4.07-2.5A7.27,7.27,0,0,0,234.7,89.07Z"/><path class="cls-1" d="M177.36,107a11.22,11.22,0,0,0-6.13-5.46,9.26,9.26,0,0,0-7.95.8l-.13.09L165,105.7a7.14,7.14,0,0,1,4.79-.81,6.81,6.81,0,0,1,4.77,3.52,7.15,7.15,0,0,1,.35,5.84,6.67,6.67,0,0,1-2.88,3.61l1.89,3.26a.35.35,0,0,0,.13-.06,9.3,9.3,0,0,0,4.28-6A12.28,12.28,0,0,0,177.36,107Z"/><path class="cls-1" d="M442,260c-5.89.37-10.6,4.91-10.53,9.85h3.78c-.09-3.81,2.18-6.35,6.86-6.54s7.07,2.39,7.19,6.54h3.78A10.34,10.34,0,0,0,442,260Z"/><path class="cls-1" d="M406.42,269.81a150.57,150.57,0,0,0-5-38l-1.3-4.61c-.4-1.55-1-3-1.49-4.55-.95-3.05-2.2-6-3.35-9a145,145,0,0,0-8.51-17.17,146,146,0,0,0-53.71-53.71l2.11-3.65a.57.57,0,0,0,0,.32,164,164,0,0,1,40.19-10.93,187.38,187.38,0,0,0-8.17-44.35.45.45,0,0,0-.3.15l2.17-3.75A217.83,217.83,0,0,1,449,160.55a215.67,215.67,0,0,1,12.69,25.63c1.76,4.43,3.57,8.85,5,13.4.74,2.27,1.59,4.51,2.21,6.81l2,6.89a223,223,0,0,1,7.43,56.53H474.1c-10.69-12.4-22.22-21.23-34.17-29.24-9,11.33-18.93,20.41-29.45,29.24ZM464,200.52a199.84,199.84,0,0,1-9.88,19.5,185.1,185.1,0,0,1-11.67,17.56l4.34,2.9c1.45,1,2.81,2,4.22,3.07,2.78,2.1,5.64,4.28,8.38,6.57s5.4,4.69,8.11,7.17,5.22,5.08,7.83,7.75c-.1-2.73-.06-5.46-.3-8.19l-.63-8.19c-.26-2.73-.65-5.44-1-8.16-.18-1.36-.32-2.72-.55-4.07l-.72-4.05c-.86-5.42-2.16-10.76-3.41-16.1C467.23,211,465.82,205.69,464,200.52Zm-36-65.63a186.89,186.89,0,0,1-7.54,42.2A185.74,185.74,0,0,1,440.63,183a198.46,198.46,0,0,1,20.1,8.58c-1.92-5.15-4.23-10.13-6.51-15.12-2.47-4.89-4.91-9.81-7.73-14.51A208,208,0,0,0,427.94,134.89ZM379,127.77a189.18,189.18,0,0,1,42.84-.12,214.64,214.64,0,0,0-23.45-23,228.63,228.63,0,0,0-26.66-19.17A193.26,193.26,0,0,1,379,127.77Zm-6.86,43.5a161.54,161.54,0,0,0,3.11-39A164.62,164.62,0,0,0,337.38,142a164.38,164.38,0,0,1,18.49,13.32A147,147,0,0,1,372.16,171.27Zm3,1.8a165.64,165.64,0,0,1,41.53,3.47,189.28,189.28,0,0,0,7.4-44.55,186,186,0,0,0-45.17-.41A162.64,162.64,0,0,1,375.12,173.07Zm24,42.54a157.72,157.72,0,0,0,9.1-17A169.74,169.74,0,0,0,415.35,180a160.21,160.21,0,0,0-39-3.7,143,143,0,0,1,12.87,18.8c2,3.25,3.62,6.68,5.36,10.05C396.17,208.62,397.81,212,399.11,215.61Zm2.2,2.69a163.39,163.39,0,0,1,37.77,17.49,188.1,188.1,0,0,0,22.26-39.35A187.78,187.78,0,0,0,419,180.61,164,164,0,0,1,401.31,218.3Zm0,3.46c1.31,3.57,2.23,7.25,3.29,10.9.83,3.7,1.77,7.38,2.34,11.13l.51,2.81c.17.93.24,1.88.37,2.82.22,1.89.52,3.77.7,5.66l.43,5.69c.2,1.9.12,3.81.21,5.72,2.42-2,5-4,7.32-6.16s4.7-4.38,7.05-6.71,4.47-4.74,6.7-7.25c1.09-1.25,2.24-2.54,3.29-3.83l3.12-3.95a169.9,169.9,0,0,0-17.43-9.67A159,159,0,0,0,401.35,221.76Z"/><path class="cls-1" d="M434.46,216.84c-5.71,1.56-11.63-.84-13.3-5.78a9.06,9.06,0,0,1,.5-7.37,12,12,0,0,1,6-5.6,10.56,10.56,0,0,1,8.19-.2,10.11,10.11,0,0,1,5.65,5.78C443.42,209.35,440.24,215,434.46,216.84Zm-1-3.16a6.69,6.69,0,0,0,4.45-8.78,6.52,6.52,0,0,0-9-3.74c-4.35,1.8-5.34,5.61-4.19,8.55S429,215,433.46,213.68Z"/><path class="cls-1" d="M405.81,160.33a12.43,12.43,0,0,1-7.85,2.39,9.23,9.23,0,0,1-6.65-3.24,9,9,0,0,1-2-7.14,11.66,11.66,0,0,1,3.66-7.26,10.88,10.88,0,0,1,7.68-3,10.05,10.05,0,0,1,7.23,3.53,9.65,9.65,0,0,1,2.19,7.76A11,11,0,0,1,405.81,160.33Zm-2.05-2.61a6.62,6.62,0,0,0,1.17-9.76,6.47,6.47,0,0,0-9.71-.47c-3.47,3.18-3.14,7.13-1.06,9.52S400,160.53,403.76,157.72Z"/><path class="cls-1" d="M359.56,117a11.15,11.15,0,0,0,1.67-8,9.68,9.68,0,0,0-1.52-3.72,9.85,9.85,0,0,0-3.13-2.79.66.66,0,0,0-.15-.07l-1.89,3.27a6.93,6.93,0,0,1,2.42,9.65,7.06,7.06,0,0,1-4.89,3.2,6.85,6.85,0,0,1-4.56-.69l-1.89,3.26a.63.63,0,0,0,.12.09,8.51,8.51,0,0,0,3.61,1.1,9.24,9.24,0,0,0,3.71-.37A12.32,12.32,0,0,0,359.56,117Z"/></svg>