<svg id="Layer_1" data-name="Layer 1" xmlns="http://www.w3.org/2000/svg" viewBox="0 0 320.12 307.45"><defs><style>.cls-1{fill:#2a273d;}</style></defs><path class="cls-1" d="M275.72,174.78c4.52,1.44,8.9.21,12.58-3.34s6.21-9.35,7.19-16.21a4.65,4.65,0,0,0,.24-1.47l0,.73-3.59,0,.11-.35c-.63,5.82-2.69,10.06-5.3,12.58a11.05,11.05,0,0,1-9.06,3,11.39,11.39,0,0,1-7.64-4.83,16.74,16.74,0,0,1-3.12-11.11l0,.58-4.52,0,0-.55a19.6,19.6,0,0,0,1,6.85,33.12,33.12,0,0,0,2.84,6.14C268.67,170.5,272,173.59,275.72,174.78Z"/><path class="cls-1" d="M243.29,214.45a20.09,20.09,0,0,1,2.46-2.73,22,22,0,0,1,2.63-2.4,23.37,23.37,0,0,1,6.11-3.4c4.2-1.68,8.69-2.2,12.5-.64,4.2,1.73,6.77,5.41,7.53,10.42a24.06,24.06,0,0,1-.57,8.05,28.74,28.74,0,0,1-3.45,8.75,3.73,3.73,0,0,1-.75,1.27,3.77,3.77,0,0,1-1,1.1,26.89,26.89,0,0,1-15.32,9,12.81,12.81,0,0,1-6.89-.66,11.7,11.7,0,0,1-5.23-4.08,13.78,13.78,0,0,1-2.32-5.45,23.4,23.4,0,0,1-.41-6.47,22.44,22.44,0,0,1,1.49-6.53A23.18,23.18,0,0,1,243.29,214.45Zm3,2.22a19.51,19.51,0,0,0-3,5.65,13.79,13.79,0,0,0-1,5.14,11.59,11.59,0,0,0,3.51,8.4,10.92,10.92,0,0,0,9.1,2.78,16.41,16.41,0,0,0,5.9-2,25.3,25.3,0,0,0,5.85-5.1,26.63,26.63,0,0,0,2-3.64,17.73,17.73,0,0,0,1.07-3.53,16.64,16.64,0,0,0,.17-6.21,10.7,10.7,0,0,0-5.37-7.79,11.81,11.81,0,0,0-9.13-.8,14.2,14.2,0,0,0-4.66,2.49,27.47,27.47,0,0,0-2.2,2.05A21.67,21.67,0,0,0,246.33,216.67Z"/><path class="cls-1" d="M181.24,153.76l0,.12,3.89,0-.17-.07c.1.6.9,1.33,2.3,2.06a17.13,17.13,0,0,0,2.52,1,17.45,17.45,0,0,0,3.22.68,11.13,11.13,0,0,0,3.26-.05,3.78,3.78,0,0,0,1.84-.89,4.4,4.4,0,0,0,1.24-2.88l0,.21,4.52,0,0-.24a5.83,5.83,0,0,1-2.79,4.52c-2,1.06-4.78,1.36-8.62.64a31.51,31.51,0,0,1-3.92-1,57.4,57.4,0,0,0,12.77,7.71,23.74,23.74,0,0,0,9.66,2.1,16.2,16.2,0,0,0,4.49-.68,14.6,14.6,0,0,0,2.06-.79,7.33,7.33,0,0,0,1.77-1.08,10.67,10.67,0,0,0,3.57-5.24,44,44,0,0,0,.59-6.19l0,.34,6,0,0-.37a27.68,27.68,0,0,1-1.36,7.58,32.1,32.1,0,0,1,15.27,1.31,46.71,46.71,0,0,1,13.87,7.92c1.83,1.45,3.77,3.08,5.67,4.69s3.77,3.23,5.76,4.68c4,2.89,8.28,5.15,13.23,4.82a15.27,15.27,0,0,0,7.55-2.77,20.21,20.21,0,0,0,1.77-1.35,22.12,22.12,0,0,0,1.6-1.61,29.87,29.87,0,0,0,2.94-3.88,38.5,38.5,0,0,0,2.52-4.64c.38-.83.74-1.68,1.08-2.56s.54-1.77.78-2.68a52.56,52.56,0,0,0,1.63-11.51l0,.76,4.52,0,0-.78a66.72,66.72,0,0,1-.84,8.83,40,40,0,0,1-2.06,8.13,50.69,50.69,0,0,1-3.29,7.11,28.46,28.46,0,0,1-4.12,5.76c-6.22,6.7-13.47,9-20.49,6.33-4.26-1.6-8.1-4.78-11.85-8.18s-7.37-7-11.4-10a38.27,38.27,0,0,0-12.56-6.52,28.14,28.14,0,0,0-13.64-.26,12.31,12.31,0,0,1-2.12,2.61,16.69,16.69,0,0,1-2.75,2,14.23,14.23,0,0,1-3.09,1.36,15.41,15.41,0,0,1-1.69.4,16.24,16.24,0,0,1-1.87.17A14.16,14.16,0,0,1,220,183.6a28.67,28.67,0,0,0,11.53,8,38.79,38.79,0,0,0,14.31,2c2.56-.07,5.23-.26,7.85-.54s5.15-.65,7.72-.92c5.12-.52,10.15-.75,14.61.8a16,16,0,0,1,8.17,6.35,21.73,21.73,0,0,1,2.49,5.17,21.46,21.46,0,0,1,1.2,6.22,39.86,39.86,0,0,1-.2,7,34.83,34.83,0,0,1-1.6,7.53,50,50,0,0,1-7.6,14.93,61.68,61.68,0,0,1-5.79,6.77,59.85,59.85,0,0,1-6.6,5.28,36.7,36.7,0,0,1-13.61,6,25.75,25.75,0,0,1-6.3.59,20.9,20.9,0,0,1-5.68-1.11A16.44,16.44,0,0,1,232.1,251c-2.52-3.82-3.71-8.59-4.7-13.5-.47-2.43-1-5-1.54-7.54s-1.16-5-1.88-7.4A36.77,36.77,0,0,0,217.71,210a26.06,26.06,0,0,0-4.83-4.73,31.47,31.47,0,0,0-6-3.55,17.63,17.63,0,0,1-6.65.91,15.62,15.62,0,0,1-6.61-2.45,16.26,16.26,0,0,1,.6,3.65,12,12,0,0,1-.35,3.36,15.43,15.43,0,0,1-1.12,3.18,11.13,11.13,0,0,1-1.8,2.87,28,28,0,0,0,4.59,13.15A38.77,38.77,0,0,0,206,236.44c4.17,2.84,8.95,5.31,13.46,8a65.33,65.33,0,0,1,6.33,4.14,22.79,22.79,0,0,1,5,5.06,16.33,16.33,0,0,1,2.92,10,24.46,24.46,0,0,1-3.73,11.25c-4.53,7.64-13.64,14.71-24.6,18.35l-1.7-5.24a51,51,0,0,0,11.23-5.52,39.34,39.34,0,0,0,8.08-7.79c.51-.68,1-1.37,1.42-2.07a21.11,21.11,0,0,0,2.45-6.52,13.82,13.82,0,0,0-.87-8.12c-1.88-4.31-5.4-7.36-9.27-10s-8.09-4.87-12-7.6a43.85,43.85,0,0,1-11.12-10.61A32.31,32.31,0,0,1,188.05,216a14.19,14.19,0,0,1-1.53,1.18c-.55.32-1.11.62-1.67.91-1.12.57-2.26,1.08-3.38,1.52l-1.72-5.31a24.53,24.53,0,0,0,3.1-1.43q.77-.42,1.5-.9a9.36,9.36,0,0,0,1.35-1.18,18.2,18.2,0,0,0,2.28-2.71,9.26,9.26,0,0,0,.88-1.49,15.81,15.81,0,0,0,.58-1.72,12.16,12.16,0,0,0-.27-7.31,25,25,0,0,0-5.13-8.11,54.23,54.23,0,0,0-6.15-6c-1-.8-1.87-1.5-2.72-2.09s-1.72-1.29-2.48-1.77a28.79,28.79,0,0,1,2.45,4c1.7,3.3,2.12,5.89,1.67,7.94a4.41,4.41,0,0,1-1.27,2.4,5.85,5.85,0,0,1-2,1.35l-1.17-3.58a4,4,0,0,0,2.33-2.58c.34-1.43-.09-3.48-1.59-6.14a19.41,19.41,0,0,0-2.94-4.05c-.94-1-1.74-1.44-2.39-1.38L166.65,174a.22.22,0,0,1,.15,0,1.53,1.53,0,0,1,.36,0h.05a4.27,4.27,0,0,1,.65.2s0,0,0,0c.36.14.78.43,1.18.61a12.59,12.59,0,0,1,1.31.71c.93.55,2.12,1.49,3.26,2.21s2.53,1.81,4,3l2.23,1.77q1.13.9,2.31,1.95c-.93-2.14-1.7-4.17-2.33-6l-.93-2.7c-.3-.87-.56-1.68-.79-2.43s-.4-1.43-.56-2.07-.47-1.33-.59-1.89a12.1,12.1,0,0,1-.35-2.72h0c0-.1.27-.17.3-.31s.19,0,.26-.08.11-.11.21-.11a3.7,3.7,0,0,1,.4-.16l0,0a4.35,4.35,0,0,0,.63-.25s0,0,0,0a10.68,10.68,0,0,1,2.86-.38,32,32,0,0,1,3.84-.18c1.6,0,3.13,0,4.93.05s3.8.17,5.94.38c-1.9-1.14-3.87-2.36-5.51-3.47s-3-2.12-4.32-3.06a28.38,28.38,0,0,1-3.2-2.53c-.82-.75-1.88-1.46-1.88-2.08h0a1.7,1.7,0,0,0,0-.39C181.08,153.9,181.23,153.84,181.24,153.76Zm3.44,22.62c2,1.81,3.55,2.44,4.89,2.43a2.68,2.68,0,0,0,1.65-.52,4.79,4.79,0,0,0,1.09-1.06,3.4,3.4,0,0,0,.74-1.55,4.25,4.25,0,0,0-.3-2c-.56-1.37-2-2.71-4.86-4a17.05,17.05,0,0,0-4.88-1.51,6.12,6.12,0,0,0-1.6,0,2.36,2.36,0,0,0-1.13.29,2.19,2.19,0,0,0,.07,1.27,16.53,16.53,0,0,0,.72,1.89A16.2,16.2,0,0,0,184.68,176.38Zm34.67,11.23a20.61,20.61,0,0,1-3.35,6.92,33.11,33.11,0,0,1-2.44,2.92,23.29,23.29,0,0,1-3.12,2.37A32,32,0,0,1,222,209.87a40.32,40.32,0,0,1,3.9,6.94,49,49,0,0,1,2.71,7.7c1.21,4.45,2.15,9.52,3.68,14.24s3.64,9,7.84,11.67c4.35,2.75,10.31,2.71,16.71.35a41.32,41.32,0,0,0,9.19-5.5c.75-.58,1.49-1.19,2.21-1.82s1.37-1.35,2-2.06a52.77,52.77,0,0,0,3.74-4.52,38,38,0,0,0,3.44-5.39,50.31,50.31,0,0,0,2.45-5.71,45,45,0,0,0,1.6-5.62,31.51,31.51,0,0,0,.47-5.47,22.11,22.11,0,0,0-1.78-9.28,13.83,13.83,0,0,0-5.54-6.14c-4.08-2.39-8.67-2.78-13.31-2.66s-9.66.67-14.24.8a48.79,48.79,0,0,1-7.75-.31,39.74,39.74,0,0,1-7.48-1.73A32,32,0,0,1,219.35,187.61Zm-18.94-19.13a50.05,50.05,0,0,0-8.28-1.16,41.63,41.63,0,0,0-6.51-.1,28.51,28.51,0,0,1,4.26,1.75c3.32,1.68,5.37,3.63,6,5.48a5,5,0,0,1-.55,5,5.9,5.9,0,0,1-1.92,1.64,6.29,6.29,0,0,1-2.94.36c-2.15-.23-4.52-1.55-7.21-4.43a29.76,29.76,0,0,1-2.57-3.12,54.64,54.64,0,0,0,5.69,13.79,24,24,0,0,0,6.63,7.46,13.88,13.88,0,0,0,8.23,2.79,8.65,8.65,0,0,0,3.36-.56,14.48,14.48,0,0,0,4.95-3.63l1.92-2.51A14.7,14.7,0,0,0,213.9,178a11.58,11.58,0,0,0-.66-1.63,10.77,10.77,0,0,0-1-1.56,13.64,13.64,0,0,0-2.84-2.72A24.64,24.64,0,0,0,200.41,168.48Z"/><path class="cls-1" d="M216.27,258.39c-2.14-3.46-6.33-5.71-10.78-6.78s-9.37-1.29-13.58.18l1.16,3.58a18.63,18.63,0,0,1,6.12-1.1,17.42,17.42,0,0,1,5.15.82,11.39,11.39,0,0,1,6.79,5.86,11,11,0,0,1-.08,9.48,13.78,13.78,0,0,1-3.69,4.83,25.59,25.59,0,0,1-6.51,4.08L202,283a7.61,7.61,0,0,0,1.07-.53,37.71,37.71,0,0,0,8-5,22.66,22.66,0,0,0,5.12-6.32C218.55,266.69,218.66,262.26,216.27,258.39Z"/><path class="cls-1" d="M175.73,270.24c0,4.75,2.54,8.55,7,11a21.07,21.07,0,0,0,3.71,1.55,25.19,25.19,0,0,0,4.26.75,37.09,37.09,0,0,0,9.76-.44,5,5,0,0,0,1.47-.3l-.7.24-1.09-3.42.36,0c-5.73,1.32-10.46.52-13.68-1.16a10.79,10.79,0,0,1-5.62-7.66,11.59,11.59,0,0,1,2.24-8.79,14.71,14.71,0,0,1,3.84-3.73,17.13,17.13,0,0,1,2.65-1.46c1-.44,2-.79,3.16-1.23l-.55.2-1.37-4.31.52-.18c-1.11.44-2.22.81-3.26,1.31a21,21,0,0,0-3,1.74,28.55,28.55,0,0,0-5,4.63C177.65,262.24,175.72,266.33,175.73,270.24Z"/><path class="cls-1" d="M128.05,251.73c1.17.46,2.32.87,3.4,1.39a22.16,22.16,0,0,1,3.1,1.8,24.64,24.64,0,0,1,2.74,2.25c.42.41.83.83,1.23,1.27s.79.81,1.15,1.24c2.92,3.4,4.79,7.62,4.49,11.7-.33,4.53-3,8.09-7.55,10.33a18.83,18.83,0,0,1-3.67,1.38,27.78,27.78,0,0,1-4.17.65,36.57,36.57,0,0,1-9.45-.52,3.8,3.8,0,0,1-1.44-.35,4,4,0,0,1-1.35-.63A37.6,37.6,0,0,1,108.3,277a23.9,23.9,0,0,1-5.07-6.63c-2.26-4.54-2.08-9.06.71-12.91,2.29-3.18,6.26-5.34,10.55-6.33A25.25,25.25,0,0,1,128.05,251.73Zm-1.17,3.58a19.29,19.29,0,0,0-6.26-1.21,16.69,16.69,0,0,0-2.78.2,14.6,14.6,0,0,0-2.47.54,11.33,11.33,0,0,0-6.89,5.87,11.06,11.06,0,0,0,.14,9.58,13.51,13.51,0,0,0,1.52,2.55,18.33,18.33,0,0,0,2.26,2.35,25.6,25.6,0,0,0,6.65,4.1,17,17,0,0,0,4.1.66,22.65,22.65,0,0,0,3.71-.07,16.2,16.2,0,0,0,6-1.69,10.82,10.82,0,0,0,3.91-3.36,10.51,10.51,0,0,0,1.85-4.27,10.72,10.72,0,0,0-.13-4.51,13.36,13.36,0,0,0-2-4.31,14.22,14.22,0,0,0-3.8-3.73,17.42,17.42,0,0,0-2.64-1.47C129.06,256.12,128,255.74,126.88,255.31Z"/><path class="cls-1" d="M166.61,173.88l-.1.05,1.18,3.71v-.2a4.5,4.5,0,0,0-1.16,2.81,17.83,17.83,0,0,0,.19,6c.54,2.65,1.4,3.92,2.43,4.54a3.62,3.62,0,0,0,1.58.48,2.91,2.91,0,0,0,1.46-.2l-.19.08,1.37,4.3.22-.08a2.64,2.64,0,0,1-1.23.21,6.6,6.6,0,0,1-1.31-.16,5.78,5.78,0,0,1-2.52-1.29c-1.62-1.54-2.77-4.15-3.26-8a30.92,30.92,0,0,1-.26-4c-.33.81-.66,1.76-1,2.82s-.66,2.25-1,3.37a49.54,49.54,0,0,0-1.52,8.29,23.54,23.54,0,0,0,1,9.86,16,16,0,0,0,3.44,5.82,10.43,10.43,0,0,0,1.57,1.29,10.3,10.3,0,0,0,3,1.43,7.84,7.84,0,0,0,3.05.36,24.07,24.07,0,0,0,3-.5l1.52-.37.77-.18.74-.29-.32.12,1.83,5.74.35-.13a8.06,8.06,0,0,1-1.82.51c-.63.12-1.26.22-1.9.31a27.87,27.87,0,0,1-3.87.28,32,32,0,0,1,3.44,14.9,45.85,45.85,0,0,1-3.28,15.63c-.82,2.2-1.78,4.49-2.73,6.84s-1.9,4.58-2.66,6.94c-1.52,4.66-2.35,9.44-.51,14.06a15.4,15.4,0,0,0,4.92,6.36,24.43,24.43,0,0,0,8.44,3.87,32.33,32.33,0,0,0,10.77,1.12,52.65,52.65,0,0,0,5.78-.64,32.59,32.59,0,0,0,5.75-1.4l-.73.25,1.38,4.31.74-.26a30.48,30.48,0,0,1-4.35,1.19c-1.46.32-2.91.58-4.35.79a48.86,48.86,0,0,1-8.43.58,42.32,42.32,0,0,1-14.52-3.1c-8.22-3.91-12.62-10.15-12.25-17.62.2-4.57,2-9.17,4.1-13.77l3.19-6.91c.52-1.15,1-2.28,1.5-3.45s.92-2.39,1.33-3.58A38.24,38.24,0,0,0,173.8,233a28.41,28.41,0,0,0-4-13.08,18.86,18.86,0,0,1-3.13-1.17,17.59,17.59,0,0,1-2.78-2,14.69,14.69,0,0,1-3.92-5.68,14.53,14.53,0,0,1-3.93,5.72,16.34,16.34,0,0,1-2.79,2,18.91,18.91,0,0,1-3.14,1.15,28.31,28.31,0,0,0-4,13.4,39.09,39.09,0,0,0,2.56,14.29c.42,1.22.89,2.45,1.39,3.67s1,2.36,1.56,3.54c1.08,2.36,2.21,4.73,3.25,7.09,2.07,4.74,3.83,9.47,3.74,14.19-.11,7.15-4.86,13.14-13.12,16.8a45.36,45.36,0,0,1-14.39,2.82,58.4,58.4,0,0,1-8.2-.66c-1.4-.21-2.8-.47-4.21-.78l-2.12-.5c-.69-.2-1.38-.44-2.07-.68-5.74-2.07-11.13-4.6-15.36-8.13a49.56,49.56,0,0,1-5.77-5.31,30.48,30.48,0,0,1-4.13-5.83A22.63,22.63,0,0,1,86,262.34a16.63,16.63,0,0,1,3.71-10,25.07,25.07,0,0,1,5.12-4.71c1.93-1.38,4-2.63,6.29-3.94,4.44-2.55,9.09-5,13.14-7.79a44,44,0,0,0,5.68-4.62,32.75,32.75,0,0,0,4.47-5.33,28,28,0,0,0,4.5-12.87,11.92,11.92,0,0,1-1.77-2.91,16.83,16.83,0,0,1-1.09-3.18,13.72,13.72,0,0,1,.27-7,15.15,15.15,0,0,1-6.66,2.45,17.59,17.59,0,0,1-6.63-1,27.92,27.92,0,0,0-11.1,8.44A32.1,32.1,0,0,0,98.23,216a48.3,48.3,0,0,0-2.58,6.94c-.72,2.44-1.32,5-1.88,7.59s-1.07,5.16-1.59,7.7c-1.07,5-2.4,9.82-5.26,13.58a16.25,16.25,0,0,1-8.58,5.82,19.63,19.63,0,0,1-5.65.78,28.27,28.27,0,0,1-6.2-.82,40.58,40.58,0,0,1-6.64-2.24,42.32,42.32,0,0,1-6.54-3.83,55.27,55.27,0,0,1-6.3-5.13,65,65,0,0,1-5.47-6.45L46,236.68A39.45,39.45,0,0,0,64.5,250.9c6.68,2,12.67,1.39,16.78-2.27,3.51-3.11,5.34-7.41,6.73-11.95s2.27-9.33,3.53-13.69a44.19,44.19,0,0,1,6.72-13.9,32.18,32.18,0,0,1,11.26-9.49,20.25,20.25,0,0,1-3-2.35,35.1,35.1,0,0,1-2.42-2.82l4.51-3.28a24.59,24.59,0,0,0,2.25,2.58,15.44,15.44,0,0,0,2.93,2,15.86,15.86,0,0,0,3.23,1.4,15.41,15.41,0,0,0,3.56.35,11.81,11.81,0,0,0,3.48-.63,12.33,12.33,0,0,0,3.41-1.89,25.16,25.16,0,0,0,6.16-7.4c.8-1.34,1.48-2.65,2.07-3.9s1.18-2.55,1.64-3.72.88-2.29,1.2-3.3.53-1.9.83-2.85a29.45,29.45,0,0,1-3,3.58c-2.62,2.64-4.92,3.8-7,3.95a5.45,5.45,0,0,1-2.76-.42,6,6,0,0,1-1.83-1.54l3-2.21a4.4,4.4,0,0,0,1.27,1.09,3.89,3.89,0,0,0,.84.34,4.77,4.77,0,0,0,1.07,0c1.52-.14,3.26-1.11,5.36-3.38a17,17,0,0,0,2.89-4,4,4,0,0,0,.59-2.78l3.07-2.23a.23.23,0,0,1,0,.16,2.18,2.18,0,0,1,.05.38s0,0,0,.05a4.5,4.5,0,0,1,0,.73s0,0,0,0a13,13,0,0,1-.42,2.79c-.35,1.19-.59,2.34-1,3.77-.22.71-.47,1.47-.74,2.28s-.57,1.65-.86,2.47c-.58,1.67-1.28,3.51-2.13,5.46.87-.76,1.72-1.47,2.54-2.13l2.44-1.93c1.6-1.26,3.06-2.33,4.31-3.18.61-.38,1.26-.89,1.83-1.28s1.1-.89,1.58-1.16c.91-.43,1.8-1.29,2.46-1.29h0c.12,0,.21.3.35.3s.07.2.13.26.12.1.15.21.19.17.28.27l0,0a3,3,0,0,1,.42.49s0,0,0,0a8.81,8.81,0,0,1,.6,1.16l.3.73c.11.21.22.43.33.68a34.23,34.23,0,0,1,1.36,3.71A82.51,82.51,0,0,1,160,191.64c.51-2.31,1.09-4.46,1.65-6.36.29-.95.57-1.84.85-2.67l.42-1.18.37-1.22a33.52,33.52,0,0,1,1.44-4.11,29.57,29.57,0,0,0,1.31-2.76h0c.12,0,.25.34.34.22S166.55,173.91,166.61,173.88ZM146.15,184.2c-1.1,2.39-1.27,4.23-.81,5.39a4.05,4.05,0,0,0,2.3,2.14,2.74,2.74,0,0,0,1.71.11,3.88,3.88,0,0,0,1.77-.83c1.11-.92,1.92-2.69,2.3-5.83a18.47,18.47,0,0,0,0-5.17,6.22,6.22,0,0,0-.46-1.56,4.45,4.45,0,0,0-.64-.89c-.59-.05-1.55.55-2.7,1.73A16.79,16.79,0,0,0,146.15,184.2Zm0,36.46a31.31,31.31,0,0,1-3.87-.26c-.65-.08-1.28-.18-1.91-.29l-.94-.19-.88-.31a33.13,33.13,0,0,1-3.49-1.51c-.58-.29-1.14-.6-1.7-.93s-1-.8-1.54-1.23a32.1,32.1,0,0,1-6,14.08,47.51,47.51,0,0,1-11.89,10.79c-3.91,2.62-8.37,4.92-12.39,7.83s-7.46,6.24-8.68,11a14.7,14.7,0,0,0,.31,7.92,21.91,21.91,0,0,0,4.52,8.1,41.54,41.54,0,0,0,8,7.18,53.85,53.85,0,0,0,10.52,5c8.28,2.6,17,2.9,23.63.64a20.25,20.25,0,0,0,8.25-4.59,14.09,14.09,0,0,0,4.1-7.19c1-4.6,0-9.11-1.58-13.5S147,254.3,145.47,250a42.65,42.65,0,0,1-2.81-15.05A32,32,0,0,1,146.14,220.66Zm12.37-24a50,50,0,0,0-1.5-8.3c-.32-1.13-.64-2.26-1-3.39s-.65-2-1-2.82a29.9,29.9,0,0,1-.34,4.61c-.56,3.68-1.78,6.16-3.35,7.5a5.79,5.79,0,0,1-2.46,1.14,6.15,6.15,0,0,1-1.27.13,4.17,4.17,0,0,1-.61,0,5.27,5.27,0,0,1-.56-.19,6,6,0,0,1-2.09-1.42,5.82,5.82,0,0,1-.8-1.08,6.62,6.62,0,0,1-.45-1.51c-.42-2.16.15-4.87,2-8.3a31.16,31.16,0,0,1,2.16-3.39c-.75.47-1.64,1.16-2.48,1.74s-1.77,1.3-2.74,2.1a55,55,0,0,0-6.17,5.94,24,24,0,0,0-5,8.57,14.89,14.89,0,0,0-.14,8.71,10.61,10.61,0,0,0,3.86,5.07,10.3,10.3,0,0,0,2.71,1.42l2.94,1.14a11,11,0,0,0,3.25.66A22.55,22.55,0,0,0,147,215a15.38,15.38,0,0,0,6.59-2.55,12.52,12.52,0,0,0,4.24-6.19A24.05,24.05,0,0,0,158.51,196.67Z"/><path class="cls-1" d="M77.94,239.48a12.62,12.62,0,0,0,2.61-5.55,23.79,23.79,0,0,0,.5-6.74,24.3,24.3,0,0,0-1.4-6.74,20.66,20.66,0,0,0-2.93-6.13l-3,2.22a18.71,18.71,0,0,1,2.85,5.53,14.36,14.36,0,0,1,.89,5.07,11.65,11.65,0,0,1-3.53,8.31,10.92,10.92,0,0,1-9,2.81,15.55,15.55,0,0,1-5.8-1.93,24.78,24.78,0,0,1-5.8-5l-3.06,2.23a6.9,6.9,0,0,0,.82.86,37.87,37.87,0,0,0,3.48,3.37c.6.51,1.2,1,1.81,1.45s1.27.82,1.91,1.19a24.71,24.71,0,0,0,7.55,2.92A12.22,12.22,0,0,0,77.94,239.48Z"/><path class="cls-1" d="M54.15,204.72c-4.5,1.48-7.36,5.07-8.31,10.13a22,22,0,0,0,.35,8.25,28.6,28.6,0,0,0,3.48,9.08,4.76,4.76,0,0,0,.71,1.31L50,232.9l2.91-2.1.13.34a28.22,28.22,0,0,1-2-3.63A21.79,21.79,0,0,1,50,224a16.13,16.13,0,0,1-.14-6.16,10.54,10.54,0,0,1,5.43-7.67,12,12,0,0,1,9.15-.66A14.41,14.41,0,0,1,69.12,212a22.06,22.06,0,0,1,2.19,2.07,22.82,22.82,0,0,1,2.22,2.56l-.35-.47,3.67-2.64.33.45a19.69,19.69,0,0,0-2.35-2.63,21.1,21.1,0,0,0-2.53-2.3,23.17,23.17,0,0,0-5.93-3.3C62.24,204.11,57.88,203.48,54.15,204.72Z"/><path class="cls-1" d="M57,153.59a21.46,21.46,0,0,1-1,7.14A24,24,0,0,1,54.65,164c-.53,1.06-1,2.06-1.6,3-2.37,3.82-5.83,6.9-9.8,7.87-4.42,1.07-8.62-.41-12.11-4a21.9,21.9,0,0,1-2.46-3.07,21.53,21.53,0,0,1-1.91-3.74A38,38,0,0,1,24.39,155a3.61,3.61,0,0,1-.18-1.46,4,4,0,0,1,.2-1.48c1-6.87,3.38-12.72,7.19-16.23,3.66-3.55,8-4.78,12.56-3.33,3.72,1.19,7,4.29,9.2,8.05a32.78,32.78,0,0,1,1.5,3,23.8,23.8,0,0,1,1.24,3.2A20.21,20.21,0,0,1,57,153.59Zm-3.76,0a16.45,16.45,0,0,0-3.14-11.05,10.93,10.93,0,0,0-16.77-1.62c-2.62,2.56-4.69,6.82-5.32,12.63.59,5.83,2.68,10.1,5.29,12.67a11.19,11.19,0,0,0,9.08,3.13,11.34,11.34,0,0,0,7.7-4.71A16.6,16.6,0,0,0,53.21,153.58Z"/><path class="cls-1" d="M143,166.12l-.08-.09-3.15,2.27.19-.05a3.12,3.12,0,0,0-1.24-.3,6.38,6.38,0,0,0-1.86.07,16.7,16.7,0,0,0-5.62,2c-2.32,1.31-3.31,2.56-3.6,3.75a3.86,3.86,0,0,0,0,1.69,4.55,4.55,0,0,0,.75,1.29l-.13-.17-3.67,2.64.15.19c-1.12-1.23-1.2-3.34-.41-5.23a7.68,7.68,0,0,1,.84-1.44,11.15,11.15,0,0,1,1.41-1.44,19.74,19.74,0,0,1,4.29-2.67,31.49,31.49,0,0,1,3.72-1.48,41,41,0,0,0-6.49.08,50.22,50.22,0,0,0-8.29,1.14,23.93,23.93,0,0,0-9.08,4,17.34,17.34,0,0,0-3.3,3.21,11.9,11.9,0,0,0-1.89,3.72,8.78,8.78,0,0,0,.21,6.32,19.55,19.55,0,0,0,3.15,5.32l-.2-.27-4.9,3.52.23.3a20.17,20.17,0,0,1-3.39-6.89,32,32,0,0,1-13.1,7.9,39.75,39.75,0,0,1-7.85,1.61,55.68,55.68,0,0,1-8.08.16c-4.62-.21-9.91-.81-14.81-.84s-9.69.67-13.52,3.86c-4.12,3.38-5.88,9.07-5.56,15.92A33.13,33.13,0,0,0,40,226.77a52.53,52.53,0,0,0,2.33,5.31A37.93,37.93,0,0,0,45.51,237l-.45-.61-3.67,2.64.47.63c-.9-1.21-1.75-2.45-2.55-3.7s-1.43-2.59-2.08-3.89a61.62,61.62,0,0,1-3.12-7.83c-.2-.65-.4-1.29-.57-1.93s-.27-1.31-.39-2c-.23-1.3-.41-2.57-.54-3.82a38.23,38.23,0,0,1-.06-7.08A22.38,22.38,0,0,1,34,203.28a19.67,19.67,0,0,1,2.73-5.05,16.19,16.19,0,0,1,8.76-5.92c4.41-1.22,9.34-.87,14.33-.32l7.52.92c2.58.25,5.15.43,7.64.47a37.3,37.3,0,0,0,13.9-2,28.49,28.49,0,0,0,11.24-7.83,14.35,14.35,0,0,1,5.47-12.07,13.55,13.55,0,0,1-3.58-.57,14.61,14.61,0,0,1-3.1-1.37,16.82,16.82,0,0,1-2.75-2,13.47,13.47,0,0,1-2.08-2.62,28.11,28.11,0,0,0-14,.29A39.53,39.53,0,0,0,67.25,172c-4.1,3.11-7.78,6.85-11.69,10.32s-7.85,6.59-12.36,7.95c-6.85,2.12-14-.6-20-7.4A43.13,43.13,0,0,1,16.13,170a44,44,0,0,1-1.91-7.94,61.33,61.33,0,0,1-.77-8.54,65,65,0,0,1,.87-8.84,39.07,39.07,0,0,1,2.1-8.16,49.66,49.66,0,0,1,3.33-7.11,28.35,28.35,0,0,1,4.17-5.76c6.28-6.7,13.55-9,20.59-6.29,4.23,1.59,8.1,4.79,11.86,8.2s7.42,7.07,11.44,10.07a38.66,38.66,0,0,0,12.62,6.56,28.14,28.14,0,0,0,13.67.28A14.49,14.49,0,0,1,105.64,136a15.06,15.06,0,0,1-4.31-5.52c-.23-.52-.45-1.06-.63-1.61a12.42,12.42,0,0,1-.33-1.61,19.71,19.71,0,0,1-.18-3.37,28.56,28.56,0,0,0-11.52-8,38.56,38.56,0,0,0-14.3-2c-2.57.06-5.23.26-7.86.53s-5.16.65-7.72.92c-5.13.52-10.15.75-14.61-.81A16,16,0,0,1,36,108.16,21.38,21.38,0,0,1,33.56,103a27.44,27.44,0,0,1-.81-3,29.29,29.29,0,0,1-.38-3.19,39.42,39.42,0,0,1,.18-7,34.66,34.66,0,0,1,1.56-7.47,49.69,49.69,0,0,1,7.43-14.77L46,70.84a36.12,36.12,0,0,0-3.39,5.37,52,52,0,0,0-2.4,5.67,43.79,43.79,0,0,0-1.57,5.58,31.92,31.92,0,0,0-.44,5.42,22.15,22.15,0,0,0,1.8,9.19,13.86,13.86,0,0,0,5.52,6.1c4.08,2.39,8.66,2.77,13.33,2.65s9.66-.69,14.24-.82a47.69,47.69,0,0,1,7.75.34,39,39,0,0,1,7.48,1.74,32.26,32.26,0,0,1,12.48,7.77,20.38,20.38,0,0,1,3.25-6.76l4.51,3.28c-2.71,3.52-4,8.89-2.37,13.3a9,9,0,0,0,1.73,3.13,13.48,13.48,0,0,0,2.86,2.65,25.31,25.31,0,0,0,8.94,3.56,49.87,49.87,0,0,0,8.29,1.16,42.78,42.78,0,0,0,6.5.1,29.61,29.61,0,0,1-4.26-1.75c-3.3-1.67-5.33-3.61-6-5.44a4.92,4.92,0,0,1,.45-5l3,2.21a3.31,3.31,0,0,0-.68,1.52,4.13,4.13,0,0,0,.32,2c.56,1.37,2,2.71,4.82,4A17.67,17.67,0,0,0,137,139.4a5.38,5.38,0,0,0,1.59,0,2.57,2.57,0,0,0,1.18-.34l3.07,2.24a.27.27,0,0,1-.15.06,3.34,3.34,0,0,1-.38.15l-.05,0a4.35,4.35,0,0,0-.63.25s0,0,0,0a10.15,10.15,0,0,1-2.85.39,32.52,32.52,0,0,1-3.85.17c-1.58,0-3.13,0-4.93-.06s-3.79-.17-5.92-.39c1.9,1.14,3.84,2.37,5.49,3.48s3,2.13,4.31,3.06a28.77,28.77,0,0,1,3.21,2.54c.32.36.84.75,1.14,1.09s.73.68.73,1h0c0,.13-.09.26-.05.39s-.11.13-.16.2a.17.17,0,0,1,0,.2,2.32,2.32,0,0,1-.13.37s0,0,0,.05a3.11,3.11,0,0,1-.36.59s0,0,0,0a8.53,8.53,0,0,1-.95,1c-.43.36-.66.67-1.1,1-.81.72-1.9,1.54-3.15,2.44-1.1.86-2.43,1.82-4,2.84s-3.3,2.13-5,3.18c2.35-.24,4.54-.37,6.5-.43l5.34-.08c.81,0,1.54,0,2.19.05l.92.07.94.05a7,7,0,0,1,2.64.57h0a1.25,1.25,0,0,0,.3.25C143,165.93,142.91,166.06,143,166.12ZM126.8,149.85a11.66,11.66,0,0,0-3.32,0,4.19,4.19,0,0,0-2,.9,4.3,4.3,0,0,0-1.41,2.91,4.16,4.16,0,0,0,1.79,3.16c1.15.8,3.23,1,6.27.41a17.72,17.72,0,0,0,4.9-1.67c1.18-.64,1.82-1.28,1.94-1.87-.1-.61-.93-1.36-2.38-2.11a16.47,16.47,0,0,0-2.57-1.06A16.25,16.25,0,0,0,126.8,149.85ZM92.16,161.23a29.16,29.16,0,0,1-1.4-7.58,26.53,26.53,0,0,1,1.4-7.57,32,32,0,0,1-15.25-1.33,46.81,46.81,0,0,1-13.85-7.94c-1.83-1.45-3.78-3.08-5.63-4.68s-3.74-3.23-5.71-4.68c-3.95-2.88-8.21-5.14-13.16-4.82-5.16.34-10.26,3.84-13.72,9.58a38.91,38.91,0,0,0-2.46,4.63c-.38.83-.73,1.68-1.06,2.55s-.54,1.76-.77,2.67A53.4,53.4,0,0,0,19,153.53a51.81,51.81,0,0,0,1.8,12.39,28.31,28.31,0,0,0,2.11,5.47,35,35,0,0,0,2.78,4.71,19.81,19.81,0,0,0,6.92,6.45,14,14,0,0,0,8.09,1.72c4.68-.46,8.66-2.85,12.37-5.68,1.88-1.42,3.61-3,5.46-4.5S62.18,171,64,169.6a43.52,43.52,0,0,1,13.44-7.3A32.27,32.27,0,0,1,92.16,161.23Zm26.58,4.37a58.09,58.09,0,0,0,12.8-7.7A29,29,0,0,1,127,159c-3.7.6-6.33.2-8.19-.88a6,6,0,0,1-2.52-4.42,5.74,5.74,0,0,1,2.78-4.51c2-1.07,4.75-1.37,8.6-.63a28.63,28.63,0,0,1,3.87,1,63,63,0,0,0-5.3-3.76,52.14,52.14,0,0,0-7.5-4,23.9,23.9,0,0,0-9.7-2.13,16.35,16.35,0,0,0-4.52.67,13.72,13.72,0,0,0-2.06.79,7.47,7.47,0,0,0-1.79,1.08A11.21,11.21,0,0,0,97,147.44a41.24,41.24,0,0,0-.7,6.21,21.89,21.89,0,0,0,1.41,6.68,16,16,0,0,0,4.45,5.49,12.79,12.79,0,0,0,7.18,2.11A24.66,24.66,0,0,0,118.74,165.6Z"/><path class="cls-1" d="M53.18,102.14c3.79,1.56,8.31.82,12.58-.89a25.33,25.33,0,0,0,6.09-3.34,24,24,0,0,0,2.57-2.24,18.45,18.45,0,0,0,2.3-2.47l-3-2.22a20.4,20.4,0,0,1-2.18,2.46,23,23,0,0,1-2.16,2,14.09,14.09,0,0,1-4.6,2.39A11.91,11.91,0,0,1,55.68,97a10.73,10.73,0,0,1-5.38-7.65,16.41,16.41,0,0,1,.1-6.11,17.44,17.44,0,0,1,1-3.48,28.18,28.18,0,0,1,1.88-3.58l-3.06-2.23a7.43,7.43,0,0,0-.58,1,28.48,28.48,0,0,0-3.45,8.75,24.23,24.23,0,0,0-.57,8C46.41,96.73,49,100.41,53.18,102.14Z"/><path class="cls-1" d="M78.87,68.76a11.8,11.8,0,0,0-5.24-4.08,12.5,12.5,0,0,0-3.32-.8,14.49,14.49,0,0,0-3.58.14A26.69,26.69,0,0,0,51.43,73a4.86,4.86,0,0,0-1,1.07l.44-.59,2.89,2.13-.29.22a25.21,25.21,0,0,1,5.85-5.09,16.65,16.65,0,0,1,5.88-2,10.7,10.7,0,0,1,9,2.85A11.68,11.68,0,0,1,77.55,80a14.44,14.44,0,0,1-1,5.17,19.85,19.85,0,0,1-3,5.66l.34-.46,3.64,2.68-.33.44a21.58,21.58,0,0,0,3.14-6.2,22.55,22.55,0,0,0,1.4-6.58,23.76,23.76,0,0,0-.49-6.52A14.1,14.1,0,0,0,78.87,68.76Z"/><path class="cls-1" d="M128.37,55.68a25.73,25.73,0,0,1-14.05.44c-4.4-1.1-8.41-3.46-10.57-6.94-2.39-3.87-2.28-8.3.1-12.7A22.84,22.84,0,0,1,109,30.15a37.82,37.82,0,0,1,8-5,3.94,3.94,0,0,1,1.35-.62,3.8,3.8,0,0,1,1.45-.35,38.15,38.15,0,0,1,9.78-.44,23.6,23.6,0,0,1,4.27.76,21.39,21.39,0,0,1,3.7,1.54c4.51,2.42,7,6.22,7,11,0,3.9-1.94,7.94-4.84,11.18-.37.41-.75.8-1.15,1.18s-.79.82-1.21,1.21a24.06,24.06,0,0,1-2.67,2.14A25,25,0,0,1,128.37,55.68Zm-1.15-3.59c4.55-1.41,7.67-3.58,9.59-6.39a11.52,11.52,0,0,0,2.13-8.8,11,11,0,0,0-5.74-7.67,16.4,16.4,0,0,0-5.94-1.7,22.49,22.49,0,0,0-7.8.55,26.29,26.29,0,0,0-6.67,4.1A14.36,14.36,0,0,0,109,37.06a11.16,11.16,0,0,0-.17,9.59,11.39,11.39,0,0,0,6.88,5.88,17.8,17.8,0,0,0,5.26.76A19.1,19.1,0,0,0,127.22,52.09Z"/><path class="cls-1" d="M143,141.4l.07-.09L139.9,139l.1.16a2.24,2.24,0,0,0-.06-1.24,14.81,14.81,0,0,0-.7-1.82,15.9,15.9,0,0,0-3.58-4.68c-2-1.81-3.48-2.38-4.74-2.31a2.37,2.37,0,0,0-1.54.58,6.16,6.16,0,0,0-1,1.07l.13-.17-3.64-2.68-.14.19a6,6,0,0,1,1.93-1.64,6.16,6.16,0,0,1,2.95-.35c2.15.23,4.54,1.57,7.23,4.43a31.62,31.62,0,0,1,2.61,3.14c-.3-1-.46-1.79-.81-2.83s-.72-2.12-1.19-3.3a55.28,55.28,0,0,0-3.69-7.61,24,24,0,0,0-6.62-7.42,17.66,17.66,0,0,0-2-1.24,14.13,14.13,0,0,0-2-.84,13.59,13.59,0,0,0-4.15-.67,8.88,8.88,0,0,0-6,2.16,11.67,11.67,0,0,0-2.21,2.12l-1.89,2.53.21-.28-4.86-3.57-.22.3a35.07,35.07,0,0,1,2.44-2.93,20.75,20.75,0,0,1,3.09-2.4A31.94,31.94,0,0,1,98,97.66,40.4,40.4,0,0,1,94,90.72,50.91,50.91,0,0,1,91.31,83c-1.21-4.44-2.17-9.54-3.73-14.29S83.86,59.65,79.67,57c-4.35-2.74-10.38-2.75-16.84-.42a41.88,41.88,0,0,0-9.28,5.47c-.75.58-1.5,1.19-2.23,1.82s-1.38,1.35-2,2.07a54.73,54.73,0,0,0-3.76,4.53l.46-.61-3.64-2.68-.47.63A68.14,68.14,0,0,1,47.6,61a59.58,59.58,0,0,1,6.57-5.28,36.46,36.46,0,0,1,13.53-6A26.62,26.62,0,0,1,74,49.13a20.45,20.45,0,0,1,5.67,1.09A16.25,16.25,0,0,1,88,56.76c2.53,3.81,3.71,8.57,4.71,13.45s2,10.19,3.4,14.88a46.58,46.58,0,0,0,2.57,6.72,32.35,32.35,0,0,0,3.68,5.88,28.13,28.13,0,0,0,10.87,8.22,17.84,17.84,0,0,1,6.65-.91,15.69,15.69,0,0,1,6.62,2.44,13.52,13.52,0,0,1-.26-7,16.7,16.7,0,0,1,1.12-3.18,11.41,11.41,0,0,1,1.8-2.87,27.88,27.88,0,0,0-4.61-13.15,32,32,0,0,0-4.62-5.4,43.33,43.33,0,0,0-5.86-4.69c-4.17-2.83-9-5.31-13.46-7.95a65.11,65.11,0,0,1-6.32-4.13,23.1,23.1,0,0,1-5-5.07,16.41,16.41,0,0,1-2.94-10,24.49,24.49,0,0,1,3.73-11.29C94.62,25,103.83,17.92,115,14.25a49.69,49.69,0,0,1,8.74-1.95,47,47,0,0,1,8.45-.54A41.67,41.67,0,0,1,146.74,15c8.23,4,12.63,10.24,12.25,17.71-.21,4.57-2.06,9.18-4.13,13.8l-3.2,6.94c-.53,1.16-1,2.31-1.52,3.46s-.92,2.4-1.32,3.6a38.22,38.22,0,0,0-2.38,14,28.27,28.27,0,0,0,3.93,13.11,16.58,16.58,0,0,1,3.13,1.19,17,17,0,0,1,2.77,2,14.59,14.59,0,0,1,3.91,5.7,14.59,14.59,0,0,1,3.94-5.73,16.06,16.06,0,0,1,2.78-2A18.91,18.91,0,0,1,170,87.6a28.34,28.34,0,0,0,4-13.39,39,39,0,0,0-2.56-14.29c-.42-1.23-.89-2.45-1.38-3.68s-1-2.36-1.57-3.54c-1.07-2.37-2.2-4.73-3.25-7.1-2.07-4.74-3.82-9.47-3.72-14.18.11-7.13,4.87-13.1,13.09-16.75A45.43,45.43,0,0,1,189,11.84a55.55,55.55,0,0,1,8.11.62c1.38.2,2.77.45,4.15.75a26.84,26.84,0,0,1,4.13,1.13l-1.7,5.24c-8.23-2.53-16.85-2.79-23.43-.52a20.09,20.09,0,0,0-8.16,4.57A14.17,14.17,0,0,0,168,30.79c-1,4.61,0,9.11,1.6,13.5.39,1.1.82,2.2,1.26,3.28l1.35,3.36c.91,2.24,1.81,4.45,2.58,6.62a42.31,42.31,0,0,1,2.78,15A32.24,32.24,0,0,1,174,86.87a34.47,34.47,0,0,1,3.8.25c.63.08,1.25.18,1.86.29a7.43,7.43,0,0,1,1.77.46l-1.72,5.31a5.94,5.94,0,0,0-1.63-.43c-.57-.1-1.14-.17-1.72-.23a23,23,0,0,0-3.52-.06,15.45,15.45,0,0,0-6.51,2.59,12.6,12.6,0,0,0-4.11,6.21,25,25,0,0,0-.62,9.59,50,50,0,0,0,1.5,8.3c.33,1.13.65,2.26,1,3.4s.65,2,1,2.82a30,30,0,0,1,.34-4.62c.56-3.64,1.77-6.12,3.33-7.46a5.79,5.79,0,0,1,2.43-1.16,6.64,6.64,0,0,1,1.24-.14,2.34,2.34,0,0,1,1.15.2l-1.17,3.58a2.68,2.68,0,0,0-1.67-.07,4,4,0,0,0-1.74.85c-1.1.93-1.92,2.69-2.29,5.79a18.87,18.87,0,0,0,0,5.1,5.46,5.46,0,0,0,.45,1.57,3.2,3.2,0,0,0,.69.9l-1.17,3.61a.25.25,0,0,1-.1-.14,1.27,1.27,0,0,0-.27-.25l0,0a3,3,0,0,1-.43-.49s0,0-.05,0a8,8,0,0,1-.6-1.15l-.29-.73-.33-.69a34.77,34.77,0,0,1-1.36-3.7,84.62,84.62,0,0,1-3-10.47c-.51,2.28-1.09,4.46-1.66,6.36-.29,1-.57,1.84-.85,2.67l-.42,1.18-.38,1.21a34.37,34.37,0,0,1-1.44,4.12,24.28,24.28,0,0,0-1.32,2.76h0c-.13,0-.27-.39-.37-.29s-.13-.21-.21-.21-.12,0-.2-.08a2.66,2.66,0,0,1-.37-.07l-.05,0a3.76,3.76,0,0,1-.65-.21s0,0,0,0c-.35-.13-.78-.44-1.18-.6a12,12,0,0,1-1.31-.72c-.93-.55-2.11-1.47-3.26-2.2s-2.54-1.8-4-3l-2.22-1.75c-.76-.61-1.53-1.26-2.32-2,.93,2.14,1.7,4.16,2.33,6s1.3,3.67,1.73,5.13c.23.76.4,1.42.57,2.07s.39,1.32.51,1.88a8.43,8.43,0,0,1,.3,1.48c0,.41.16.91.16,1.25h0c0,.11-.24.22-.27.35S143,141.34,143,141.4Zm10.42-20.5c-.53-2.66-1.42-4-2.48-4.72a3.66,3.66,0,0,0-3.14-.44,4,4,0,0,0-2.41,2.57c-.34,1.43.1,3.49,1.61,6.18,2,3.51,4.29,5.55,5.38,5.43a3.33,3.33,0,0,0,.69-1,8.27,8.27,0,0,0,.5-1.91A18,18,0,0,0,153.38,120.9ZM132,91.51a14.72,14.72,0,0,1,1.56-1.2c.56-.33,1.13-.64,1.7-.93a34.31,34.31,0,0,1,3.48-1.55,17.59,17.59,0,0,1,3.72-.8,27.84,27.84,0,0,1,3.87-.25,32,32,0,0,1-3.41-14.9,46.4,46.4,0,0,1,3.3-15.6c.82-2.19,1.78-4.48,2.73-6.81s1.91-4.55,2.68-6.88c1.52-4.63,2.36-9.37.54-14a15.22,15.22,0,0,0-4.91-6.32,23.55,23.55,0,0,0-8.39-3.79,32.85,32.85,0,0,0-10.71-1,46.46,46.46,0,0,0-11.48,2.06A52.09,52.09,0,0,0,105.35,25a39.57,39.57,0,0,0-8.18,7.82c-.53.69-1,1.39-1.45,2.09a23.71,23.71,0,0,0-1.11,2.19,19.87,19.87,0,0,0-1.38,4.37,13.74,13.74,0,0,0,.86,8.17c1.88,4.3,5.39,7.36,9.26,10s8.06,4.86,11.93,7.6a44.22,44.22,0,0,1,11.15,10.58A32.34,32.34,0,0,1,132,91.51Zm4,26.53a54.32,54.32,0,0,0,6.14,6c1,.79,1.88,1.5,2.73,2.09s1.72,1.29,2.47,1.77a30.45,30.45,0,0,1-2.44-4c-1.72-3.34-2.15-5.93-1.68-8a4.48,4.48,0,0,1,1.31-2.41,6.32,6.32,0,0,1,2-1.35,4.43,4.43,0,0,1,2.53,0,5.77,5.77,0,0,1,2.52,1.26c1.62,1.56,2.76,4.14,3.24,8a30.23,30.23,0,0,1,.25,4c.33-.81.66-1.76,1-2.83s.65-2.25,1-3.37a50.2,50.2,0,0,0,1.53-8.33,23.62,23.62,0,0,0-1-9.9,17.05,17.05,0,0,0-2.05-4.12,10.82,10.82,0,0,0-3-3,11.19,11.19,0,0,0-3-1.45,12.34,12.34,0,0,0-1.55-.35c-.25,0-.51-.08-.77-.1l-.76,0a28.32,28.32,0,0,0-6.08,1.24,22.47,22.47,0,0,0-3,1.38,10.89,10.89,0,0,0-2.84,2,19.12,19.12,0,0,0-2.31,2.72,15.21,15.21,0,0,0-.91,1.49,14.77,14.77,0,0,0-.61,1.73,12.3,12.3,0,0,0,.16,7.39A24.41,24.41,0,0,0,136.05,118Z"/><path class="cls-1" d="M176.06,36.15c-.3,4.06,1.78,8.29,4.76,11.69a30.64,30.64,0,0,0,5.07,4.78,21.9,21.9,0,0,0,2.92,1.78c1,.5,2.06.89,3.1,1.32l1.16-3.58c-1.08-.43-2.11-.79-3-1.22a17.3,17.3,0,0,1-2.55-1.45,14.43,14.43,0,0,1-3.69-3.71,13.64,13.64,0,0,1-1.93-4.29,11.09,11.09,0,0,1-.12-4.48,10.87,10.87,0,0,1,5.63-7.59,15.94,15.94,0,0,1,5.82-1.72,21.68,21.68,0,0,1,3.64-.1,17.18,17.18,0,0,1,4,.6L202,24.57a6.82,6.82,0,0,0-1.15-.25,36.5,36.5,0,0,0-9.44-.52,28,28,0,0,0-4.17.65,17.54,17.54,0,0,0-3.66,1.38C179.1,28.06,176.4,31.62,176.06,36.15Z"/><path class="cls-1" d="M215.87,50.23c2.79-3.86,3-8.38.71-12.94a23.16,23.16,0,0,0-5.06-6.62,37.31,37.31,0,0,0-8.21-5.25,5.21,5.21,0,0,0-1.34-.68l.69.24-1.13,3.41-.29-.21a26.08,26.08,0,0,1,6.64,4.1,18.07,18.07,0,0,1,2.24,2.34,13.7,13.7,0,0,1,1.5,2.55,10.9,10.9,0,0,1,.06,9.5,11.47,11.47,0,0,1-7,5.79,18.72,18.72,0,0,1-5.28.72A19.49,19.49,0,0,1,193.13,52l.54.2-1.42,4.29-.52-.19c4.48,1.63,9.3,1.33,13.57.42S213.59,53.41,215.87,50.23Z"/><path class="cls-1" d="M243.49,93.34a23.5,23.5,0,0,1-3.28-6.47,22.69,22.69,0,0,1-1.43-6.77c-.2-4.61.68-9,3.32-12.13a12.22,12.22,0,0,1,12.15-3.9A24.75,24.75,0,0,1,261.8,67c.64.37,1.28.76,1.92,1.19s1.21.93,1.81,1.44A40.88,40.88,0,0,1,269,73a4,4,0,0,1,1,1.09,4,4,0,0,1,.76,1.28,29.33,29.33,0,0,1,3.48,9.11,21.81,21.81,0,0,1,.35,8.25c-.94,5.06-3.79,8.64-8.3,10.12-3.73,1.23-8.06.57-12.11-1.14a23.3,23.3,0,0,1-5.86-3.37A20.61,20.61,0,0,1,245.82,96,22.08,22.08,0,0,1,243.49,93.34Zm3-2.21a21.67,21.67,0,0,0,2.21,2.55,20.88,20.88,0,0,0,2.17,2.07,14.3,14.3,0,0,0,4.66,2.49,11.82,11.82,0,0,0,9.12-.77,10.74,10.74,0,0,0,5.41-7.78,16.78,16.78,0,0,0-.16-6.2,19.78,19.78,0,0,0-1-3.54,28.31,28.31,0,0,0-2-3.64,25.19,25.19,0,0,0-5.86-5.11,15.81,15.81,0,0,0-5.89-2,10.94,10.94,0,0,0-9.11,2.76,11.58,11.58,0,0,0-3.52,8.4,14.76,14.76,0,0,0,1,5.15A19.51,19.51,0,0,0,246.54,91.13Z"/><path class="cls-1" d="M166.61,133.64l.1.05,1.22-3.7-.11.15c.59.05,1.51-.52,2.62-1.67a16.52,16.52,0,0,0,3.33-4.85,11.08,11.08,0,0,0,1-3.1,3.94,3.94,0,0,0-.22-2.12,4.21,4.21,0,0,0-2.33-2l.2.08,1.42-4.29-.22-.09a6.05,6.05,0,0,1,2.09,1.43,5.77,5.77,0,0,1,.8,1.09,6.34,6.34,0,0,1,.46,1.51c.41,2.18-.16,4.89-2,8.33a31.91,31.91,0,0,1-2.17,3.43c.75-.48,1.62-1.15,2.47-1.75s1.76-1.29,2.72-2.08a54.22,54.22,0,0,0,6.16-5.95,23.49,23.49,0,0,0,5-8.52,14.87,14.87,0,0,0,.13-8.68,10.21,10.21,0,0,0-3.89-5,10.79,10.79,0,0,0-2.72-1.35l-2.94-1.1.32.12,1.89-5.72-.35-.13A35.19,35.19,0,0,1,185,89.3c.57.28,1.14.59,1.7.91a15,15,0,0,1,1.55,1.21,32,32,0,0,1,6-14.1A47.2,47.2,0,0,1,206.12,66.5c3.92-2.63,8.39-5,12.43-7.9s7.49-6.32,8.7-11.11a15,15,0,0,0-.31-8,22.79,22.79,0,0,0-1.73-4.19,23.44,23.44,0,0,0-2.77-4,41,41,0,0,0-8.05-7.28,53,53,0,0,0-10.56-5l.72.25L206,15l-.75-.26a67.55,67.55,0,0,1,8.23,3.49,37.56,37.56,0,0,1,3.74,2.1c1.18.79,2.3,1.61,3.38,2.46A48.48,48.48,0,0,1,226.34,28c.43.45.83.91,1.22,1.37s.73,1,1.08,1.46c.68,1,1.3,2,1.85,2.94a22.63,22.63,0,0,1,3.29,11.44,16.62,16.62,0,0,1-3.68,10A25.22,25.22,0,0,1,225,60c-1,.69-2,1.35-3,2s-2.15,1.31-3.26,1.95c-4.42,2.54-9.05,5-13.08,7.75a37.71,37.71,0,0,0-10.1,9.91,27.8,27.8,0,0,0-4.46,12.85,12,12,0,0,1,1.77,2.91,16.63,16.63,0,0,1,1.1,3.18,13.67,13.67,0,0,1-.26,7,15.51,15.51,0,0,1,6.66-2.46,17.77,17.77,0,0,1,6.63,1,28.08,28.08,0,0,0,11.11-8.45,32.34,32.34,0,0,0,3.72-6.07,48.75,48.75,0,0,0,2.58-6.94c.72-2.44,1.32-5,1.87-7.59s1.07-5.16,1.6-7.7c1.06-5,2.39-9.82,5.25-13.58a16.27,16.27,0,0,1,8.59-5.85,19.77,19.77,0,0,1,5.67-.79,28.45,28.45,0,0,1,6.22.82,39.84,39.84,0,0,1,6.67,2.27A41.11,41.11,0,0,1,266.84,56a53.63,53.63,0,0,1,6.35,5.21,63.35,63.35,0,0,1,5.53,6.57c.9,1.22,1.75,2.47,2.55,3.72s1.42,2.6,2.06,3.91a61,61,0,0,1,3.1,7.87,25.73,25.73,0,0,1,.94,3.9c.23,1.3.4,2.58.52,3.83a38.48,38.48,0,0,1,0,7.11,22.81,22.81,0,0,1-4.25,11.29,16.12,16.12,0,0,1-8.79,5.91c-4.41,1.22-9.35.87-14.37.31l-7.55-.92c-2.57-.26-5.17-.44-7.67-.48a37.67,37.67,0,0,0-14,2,28.48,28.48,0,0,0-11.27,7.83,14.39,14.39,0,0,1-5.49,12.06,13.76,13.76,0,0,1,6.67,1.94,17.42,17.42,0,0,1,2.75,2,13.87,13.87,0,0,1,2.07,2.63,28.15,28.15,0,0,0,14-.29,39.36,39.36,0,0,0,12.85-6.82c4.12-3.11,7.79-6.85,11.7-10.32s7.85-6.59,12.37-8c6.82-2.09,13.91.64,19.92,7.4a43.09,43.09,0,0,1,7.07,12.72,56.83,56.83,0,0,1,2.73,16.25h-5.51a52.88,52.88,0,0,0-1.85-12.29,27.81,27.81,0,0,0-2.13-5.41,34.91,34.91,0,0,0-2.76-4.66,19.71,19.71,0,0,0-6.89-6.36,14,14,0,0,0-8-1.7c-4.68.45-8.65,2.85-12.37,5.7-1.88,1.43-3.59,3-5.46,4.51s-3.7,3.09-5.53,4.5a43.56,43.56,0,0,1-13.45,7.26,32.43,32.43,0,0,1-14.7,1,30.8,30.8,0,0,1,1.39,7.41h-5.58a21.53,21.53,0,0,0-1.49-6.79,15.05,15.05,0,0,0-4.45-5.41,12.7,12.7,0,0,0-7.15-2,25.16,25.16,0,0,0-9.31,2.36,58,58,0,0,0-12.79,7.7,29.71,29.71,0,0,1,4.5-1.09c3.67-.59,6.29-.19,8.15.87a6,6,0,0,1,2.56,4.33H200a4.19,4.19,0,0,0-1.83-3.07c-1.15-.8-3.22-1-6.23-.43-4,.83-6.61,2.2-6.81,3.5h-3.8a.22.22,0,0,1,.06-.15,2.91,2.91,0,0,1,.12-.35.09.09,0,0,0,0,0,3.9,3.9,0,0,1,.36-.59s0,0,0,0a29.06,29.06,0,0,1,5.22-4.45,89,89,0,0,1,9-6c-2.35.24-4.54.36-6.5.42l-5.35.07c-.8,0-1.53,0-2.19-.05s-1.21-.11-1.85-.13a6.72,6.72,0,0,1-2.64-.58h0c-.09-.1-.14-.22-.27-.29s0-.14,0-.22-.09-.1-.06-.2a2.26,2.26,0,0,1-.07-.39s0,0,0-.06a4.39,4.39,0,0,1,0-.72s0,0,0,0c-.05-1.44.68-3.82,1.44-6.56.21-.71.46-1.48.74-2.28l.84-2.47c.58-1.67,1.28-3.52,2.13-5.47-.87.76-1.72,1.47-2.54,2.13l-2.44,1.94c-1.6,1.26-3,2.49-4.3,3.34-2.64,1.94-4.47,3.6-5.86,3.6h0c-.11,0-.23-.25-.36-.25S166.68,133.67,166.61,133.64Zm22.65,3.72c2.32-1.31,3.38-2.6,3.74-3.85a4,4,0,0,0,.1-1.78,3.59,3.59,0,0,0-.71-1.34,4.42,4.42,0,0,0-1.28-1.14,3.13,3.13,0,0,0-.84-.36,4.31,4.31,0,0,0-1.08,0c-1.52.14-3.27,1.12-5.38,3.42a15.59,15.59,0,0,0-2.87,4.13,4.13,4.13,0,0,0-.61,2.73,3,3,0,0,0,1.27.3,7.72,7.72,0,0,0,1.93-.07A17.31,17.31,0,0,0,189.26,137.36Zm21.3-29.48a20.71,20.71,0,0,1,3.11,2.39,37.16,37.16,0,0,1,2.47,2.9,20,20,0,0,1,3.35,6.9,31.94,31.94,0,0,1,13.1-7.87,39.68,39.68,0,0,1,7.83-1.59,55.55,55.55,0,0,1,8.07-.15c4.62.22,9.89.83,14.74.89s9.62-.64,13.46-3.82a14.38,14.38,0,0,0,4.42-6.62,25.38,25.38,0,0,0,1-9.2,32.73,32.73,0,0,0-2.37-10.48A54.5,54.5,0,0,0,277.44,76,36.29,36.29,0,0,0,274.26,71,39.7,39.7,0,0,0,255.67,56.6c-6.74-2.1-12.78-1.46-16.9,2.23-3.51,3.11-5.35,7.41-6.74,11.93s-2.29,9.32-3.55,13.68a44.12,44.12,0,0,1-6.69,13.92A32.27,32.27,0,0,1,210.56,107.88Zm-24.05,12a58,58,0,0,0-3.71,7.61c-.48,1.18-.88,2.29-1.2,3.31s-.53,1.89-.83,2.83a30.18,30.18,0,0,1,3-3.57c2.65-2.66,5-3.82,7-4a5.45,5.45,0,0,1,2.79.45,6.16,6.16,0,0,1,1.83,1.6,6,6,0,0,1,.65,1.06,3.73,3.73,0,0,1,.26,1.31,6.13,6.13,0,0,1-.49,2.84,7.31,7.31,0,0,1-.84,1.43,11.23,11.23,0,0,1-1.41,1.45,19.5,19.5,0,0,1-4.28,2.65,30.12,30.12,0,0,1-3.7,1.47,45.41,45.41,0,0,0,6.52-.08,50.3,50.3,0,0,0,8.31-1.14,24.06,24.06,0,0,0,9.13-4,17.61,17.61,0,0,0,3.33-3.23,11.4,11.4,0,0,0,1.91-3.73,9.23,9.23,0,0,0-.13-6.37,19.51,19.51,0,0,0-3.08-5.41,23.85,23.85,0,0,0-2.18-2.51,13.31,13.31,0,0,0-2.88-2,18.21,18.21,0,0,0-3.23-1.44,15.3,15.3,0,0,0-3.61-.39,11.47,11.47,0,0,0-7,2.43A24.59,24.59,0,0,0,186.51,119.91Z"/><path class="cls-1" d="M276.89,132.71c-3.95,1-7.36,4.23-9.71,8.12a34.3,34.3,0,0,0-3,6.27,19.38,19.38,0,0,0-1.06,6.66h3.76A16.07,16.07,0,0,1,270.13,143a11.44,11.44,0,0,1,7.67-4.62,11.08,11.08,0,0,1,9,3c2.61,2.5,4.67,6.66,5.33,12.38h3.79a6.64,6.64,0,0,0-.18-1.17,37.63,37.63,0,0,0-2.38-9.07,19.56,19.56,0,0,0-4.36-6.81C285.51,133.11,281.31,131.64,276.89,132.71Z"/></svg>