<svg id="Layer_1" data-name="Layer 1" xmlns="http://www.w3.org/2000/svg" viewBox="0 0 320.12 307.45"><defs><style>.cls-1{fill:#0a0505;}</style></defs><path class="cls-1" d="M177.6,280c3.76-5.76,3.91-11.49,2.17-17.81,1.21-.21,2.41-.45,3.61-.7.79,6.3,2.91,11.32,8.33,15.27,6.32,4.61,14.28,5.77,21.54,8.23a1.8,1.8,0,0,0,2-.82c3.36-6.82,8.09-13.19,9.39-20.85,1.12-6.59-.9-11.72-4.74-16.73,1-.65,2-1.32,3-2,3.06,5.33,6.92,9.12,13.19,10.65,7.64,1.87,15.4-.07,23.07-.58a1.83,1.83,0,0,0,1.79-1.78c.5-7.67,2.45-15.43.57-23.07-1.54-6.29-5.35-10.17-10.71-13.23.68-1,1.36-2,2-3.05,5,3.87,10.17,5.91,16.8,4.79,7.65-1.3,14-6,20.84-9.39a1.8,1.8,0,0,0,.82-2c-2.46-7.26-3.62-15.21-8.23-21.55-3.89-5.35-8.86-7.48-15.06-8.3.27-1.18.51-2.37.73-3.57,6.22,1.68,11.88,1.48,17.57-2.23,6.34-4.13,10.31-10.69,15.21-16.28a1.85,1.85,0,0,0,0-2.53c-4.9-5.58-8.87-12.14-15.21-16.28-5.67-3.7-11.31-3.9-17.51-2.24-.22-1.2-.46-2.38-.72-3.57,6.17-.83,11.1-3,15-8.29,4.61-6.33,5.77-14.29,8.23-21.54a1.8,1.8,0,0,0-.82-2c-6.82-3.36-13.19-8.09-20.84-9.39-6.63-1.13-11.77.92-16.8,4.79-.21-.32-.41-.64-.62-1-.47-.7-1-1.39-1.44-2.08C256.2,87.83,260,84,261.58,77.63c1.88-7.63-.07-15.39-.57-23.06a1.84,1.84,0,0,0-1.79-1.79c-7.67-.5-15.43-2.45-23.07-.58-6.28,1.54-10.15,5.34-13.21,10.68-1-.7-2-1.38-3-2.05,3.83-5,5.85-10.12,4.73-16.72-1.3-7.65-6-14-9.39-20.84a1.8,1.8,0,0,0-2-.82C206,24.91,198,26.07,191.71,30.68c-5.35,3.88-7.48,8.84-8.3,15-1.19-.25-2.38-.48-3.58-.69,1.68-6.23,1.49-11.89-2.23-17.58-4.13-6.34-10.69-10.31-16.28-15.21a1.92,1.92,0,0,0-1.26-.5v5c6.66,8.13,15.37,16.31,14.59,27.49-1.56-.2-3.12-.36-4.69-.49.39-6.81-5.25-11.93-8.36-17.61a1.73,1.73,0,0,0-1.54-.87v5a1.55,1.55,0,0,1,1.66,1.51,1.62,1.62,0,0,1-1.66,1.62v5.24c2.7,0,3.56,2.54,4.12,4.74-1.37-.05-2.75,0-4.12,0v3.28a107.24,107.24,0,0,1,79.29,35.16c29.85,33.22,36.56,83.77,14.62,123A109.76,109.76,0,0,1,209,248.84a105.73,105.73,0,0,1-49,11.9V264c1.38,0,2.77,0,4.15-.1-.56,2.22-1.4,4.84-4.15,4.84V274a.65.65,0,0,1,.2,0,1.58,1.58,0,0,1,1.46,1.64,1.55,1.55,0,0,1-1.66,1.46v5.05a1.73,1.73,0,0,0,1.54-.87c3.14-5.73,8.84-10.88,8.35-17.77,1.57-.15,3.13-.32,4.69-.53.89,11.27-7.88,19.51-14.58,27.69v5a1.88,1.88,0,0,0,1.26-.51C166.91,290.33,173.47,286.35,177.6,280Zm93-130.36c2.15.56,4.53,1.45,4.53,4.07s-2.39,3.5-4.54,4.07v-.12C270.68,155,270.68,152.33,270.58,149.66Zm17.07,5.61a1.81,1.81,0,0,0,0-3.09c-5.63-3.08-10.72-8.66-17.44-8.36-.15-1.57-.33-3.14-.54-4.7,11.11-.7,19.27,8,27.37,14.61-8.12,6.65-16.28,15.33-27.41,14.6.21-1.56.39-3.12.54-4.7C276.91,164,282,158.36,287.65,155.27Zm-7.3-1.54a1.49,1.49,0,0,1,0-.21,1.6,1.6,0,0,1,1.65-1.46,1.68,1.68,0,0,1,0,3.33A1.61,1.61,0,0,1,280.35,153.73ZM206.12,53.2c-1.3-.6-2.62-1.17-4-1.72s-2.39-1-3.6-1.4c1.43-1.86,3.37-3.84,5.87-2.47C206.51,48.74,206.41,51.14,206.12,53.2Zm2.08-11.35a1.67,1.67,0,0,1-3-1.39,1.67,1.67,0,0,1,3,1.39Zm7.27,16.24c-1.35-.79-2.71-1.54-4.09-2.27,2.93-6-.36-12.93-1-19.14a1.82,1.82,0,0,0-3.05-1.26C202.4,39.34,195.18,41.9,193,48.2c-1.5-.47-3-.9-4.52-1.29,3.46-10.58,14.79-14.79,24-19.71C215.48,37.18,220.51,48.15,215.47,58.09ZM241,78.65q-2.79-3-5.81-5.85c2-1.15,4.36-2.31,6.25-.42S242.13,76.68,241,78.65Zm6.77,8Q246.3,84.8,244.8,83c5.11-4.52,4.77-12.16,6.56-18.36a1.8,1.8,0,0,0-2.2-2.2c-6.19,1.8-13.79,1.45-18.32,6.53q-1.8-1.53-3.67-3c7.35-8.46,19.31-8,29.73-9.09C255.82,67.34,256.29,79.33,247.74,86.67Zm-2.62-20.36a1.68,1.68,0,0,1,2.32,2.39,1.61,1.61,0,0,1-2.32,0,.91.91,0,0,1-.13-.16A1.6,1.6,0,0,1,245.12,66.31Zm18.53,49c-1-2.56-2-5.1-3.17-7.58,2.09-.3,4.54-.45,5.7,1.67C267.56,111.86,265.52,113.83,263.65,115.26Zm3.22,10q-.62-2.27-1.32-4.5c6.32-2.14,8.89-9.39,12.82-14.27a1.82,1.82,0,0,0-1.27-3.05c-6.23-.69-13.21-4-19.21-1-.73-1.38-1.48-2.75-2.27-4.1,10-5.1,21,0,31,3C281.66,110.5,277.45,121.83,266.87,125.28ZM272,105.55a1.55,1.55,0,0,1,2.07,1,1.52,1.52,0,0,1-.89,2.06,1.66,1.66,0,0,1-1.18-3.1Zm-8.46,86.59c1.89,1.44,4,3.41,2.6,6-1.17,2.13-3.67,2-5.78,1.66Q262.14,196,263.58,192.14ZM257.84,205c6,3,13-.29,19.26-1a1.82,1.82,0,0,0,1.27-3.06c-3.94-4.9-6.51-12.17-12.89-14.28.47-1.49.91-3,1.32-4.51,10.63,3.43,14.85,14.79,19.78,24-10,3-21,8.09-31,3C256.36,207.73,257.12,206.36,257.84,205Zm13.35-5.2a1.6,1.6,0,0,1,2.13-.93,1.66,1.66,0,0,1-1.38,3A1.6,1.6,0,0,1,271.19,199.78ZM241.07,229c1.12,1.93,2.18,4.26.34,6.11s-4.17.78-6.1-.34C237.3,232.9,239.22,231,241.07,229Zm-10.15,9.62c4.53,5,12.09,4.66,18.24,6.44a1.8,1.8,0,0,0,2.2-2.2c-1.79-6.17-1.45-13.73-6.46-18.26,1-1.2,1.94-2.41,2.88-3.66l0-.06c8.46,7.35,8,19.3,9.08,29.72-10.4-1.08-22.33-.62-29.68-9C228.47,240.58,229.71,239.6,230.92,238.59Zm14.2.2a.58.58,0,0,1,.15-.13,1.6,1.6,0,0,1,2.2.13,1.55,1.55,0,0,1-.14,2.21,1.57,1.57,0,0,1-2.25.11A1.62,1.62,0,0,1,245.12,238.79Zm-36.88,26.92a1.66,1.66,0,0,1-3.11,1.17,1.67,1.67,0,0,1,3.11-1.17Zm-2.14-11.66c.3,2.12.48,4.62-1.66,5.8-2.58,1.41-4.58-.76-6-2.67C201,256.23,203.58,255.19,206.1,254.05Zm-13.16,5c2.05,6.48,9.4,9.06,14.34,13a1.81,1.81,0,0,0,3.05-1.26c.69-6.24,4-13.23,1-19.24q2.07-1.07,4.11-2.23c5.09,10,0,20.95-3,30.95-9.25-5-20.69-9.19-24-19.95C189.94,259.9,191.45,259.47,192.94,259Z"/><path class="cls-1" d="M142.51,27.44c-3.75,5.75-3.91,11.48-2.16,17.8-1.21.22-2.41.45-3.61.71-.8-6.31-2.92-11.33-8.33-15.27-6.32-4.62-14.29-5.77-21.54-8.24a1.8,1.8,0,0,0-2,.83c-3.36,6.81-8.09,13.19-9.39,20.84-1.12,6.6.9,11.72,4.74,16.73-1,.66-2,1.33-3,2C94.1,57.53,90.23,53.74,84,52.2c-7.63-1.87-15.39.08-23.06.58a1.85,1.85,0,0,0-1.79,1.79c-.5,7.67-2.45,15.43-.58,23.06,1.55,6.3,5.36,10.17,10.72,13.24-.69,1-1.36,2-2,3C62.2,90,57.07,88,50.44,89.13c-7.65,1.29-14,6-20.84,9.39a1.79,1.79,0,0,0-.82,2c2.46,7.26,3.62,15.2,8.23,21.54,3.89,5.36,8.85,7.48,15.05,8.3q-.39,1.77-.72,3.57c-6.23-1.68-11.88-1.48-17.57,2.23-6.34,4.14-10.31,10.7-15.21,16.28a1.84,1.84,0,0,0,0,2.53c4.9,5.59,8.87,12.15,15.21,16.28,5.67,3.7,11.31,3.91,17.51,2.25.22,1.19.46,2.38.72,3.56-6.17.83-11.1,3-15,8.29-4.62,6.33-5.77,14.29-8.23,21.55a1.79,1.79,0,0,0,.82,2c6.82,3.36,13.19,8.09,20.84,9.39,6.63,1.12,11.77-.92,16.8-4.79l.62,1c.47.7,1,1.38,1.44,2.07-5.39,3.07-9.22,6.95-10.77,13.26-1.87,7.64.08,15.4.58,23.07a1.83,1.83,0,0,0,1.79,1.78c7.67.51,15.43,2.45,23.06.58,6.28-1.54,10.15-5.33,13.21-10.67,1,.69,2,1.38,3,2-3.83,5-5.85,10.13-4.73,16.72,1.3,7.66,6,14,9.39,20.85a1.79,1.79,0,0,0,2,.82c7.26-2.46,15.2-3.63,21.54-8.23,5.35-3.89,7.48-8.85,8.3-15q1.78.38,3.57.69c-1.67,6.22-1.48,11.89,2.23,17.58,4.14,6.33,10.7,10.31,16.28,15.2a1.93,1.93,0,0,0,1.27.51v-5c-6.67-8.14-15.37-16.32-14.59-27.5,1.56.2,3.12.36,4.69.49-.4,6.82,5.25,11.94,8.35,17.62a1.75,1.75,0,0,0,1.55.87v-5.05a1.55,1.55,0,0,1-1.67-1.51,1.62,1.62,0,0,1,1.67-1.61v-5.25c-2.7,0-3.56-2.53-4.13-4.73,1.38,0,2.75,0,4.13,0v-3.29a107.24,107.24,0,0,1-79.29-35.16c-29.85-33.22-36.56-83.77-14.62-123a109.67,109.67,0,0,1,44.93-43.92,105.81,105.81,0,0,1,49-11.91V43.43c-1.39,0-2.77,0-4.15.09.56-2.22,1.4-4.84,4.15-4.84V33.44l-.2,0a1.6,1.6,0,0,1-1.46-1.65,1.55,1.55,0,0,1,1.66-1.46v-5a1.75,1.75,0,0,0-1.55.87c-3.13,5.72-8.84,10.87-8.34,17.77-1.57.14-3.13.31-4.69.52-.89-11.27,7.88-19.5,14.58-27.68v-5a1.91,1.91,0,0,0-1.27.5C153.21,17.13,146.65,21.1,142.51,27.44Zm-93,130.36c-2.15-.57-4.53-1.45-4.53-4.07s2.39-3.51,4.54-4.08a.49.49,0,0,1,0,.12Q49.39,153.77,49.54,157.8Zm-17.07-5.62a1.81,1.81,0,0,0,0,3.09c5.63,3.09,10.71,8.66,17.44,8.37.15,1.56.32,3.13.54,4.69-11.11.7-19.27-8-27.37-14.6,8.11-6.65,16.27-15.33,27.41-14.6-.21,1.55-.39,3.12-.54,4.69C43.2,143.5,38.11,149.09,32.47,152.18Zm7.3,1.55a1.23,1.23,0,0,1,0,.2,1.6,1.6,0,0,1-1.65,1.46,1.68,1.68,0,0,1,0-3.33A1.61,1.61,0,0,1,39.77,153.73ZM114,254.25c1.31.6,2.62,1.18,4,1.72,1.19.5,2.39,1,3.6,1.41-1.43,1.85-3.37,3.84-5.87,2.47C113.6,258.71,113.71,256.32,114,254.25Zm-2.07,11.35a1.67,1.67,0,0,1,3,1.39,1.53,1.53,0,0,1-2.08.77A1.56,1.56,0,0,1,111.92,265.6Zm-7.27-16.24c1.34.79,2.71,1.55,4.09,2.28-2.93,6,.36,12.92,1.05,19.13a1.81,1.81,0,0,0,3,1.26c4.88-3.91,12.1-6.47,14.25-12.77,1.5.46,3,.89,4.52,1.29-3.45,10.57-14.79,14.78-24,19.7C104.64,270.27,99.61,259.31,104.65,249.36ZM79.15,228.8q2.79,3,5.81,5.86c-2,1.15-4.36,2.31-6.25.42S78,230.77,79.15,228.8Zm-6.78-8c1,1.25,1.94,2.49,2.95,3.7-5.11,4.51-4.77,12.15-6.57,18.35A1.81,1.81,0,0,0,71,245c6.2-1.8,13.8-1.45,18.32-6.53,1.21,1,2.43,2,3.68,3-7.35,8.47-19.31,8-29.74,9.09C64.3,240.12,63.83,228.13,72.37,220.78ZM75,241.14a1.68,1.68,0,0,1-2.32-2.39,1.62,1.62,0,0,1,2.32,0l.13.15A1.6,1.6,0,0,1,75,241.14ZM56.47,192.19q1.44,3.85,3.17,7.59c-2.09.29-4.54.44-5.7-1.67C52.56,195.59,54.6,193.62,56.47,192.19Zm-3.22-10c.41,1.51.85,3,1.32,4.51-6.32,2.14-8.9,9.38-12.82,14.26A1.82,1.82,0,0,0,43,204c6.23.69,13.21,4,19.2,1q1.1,2.07,2.28,4.09c-10,5.1-21,.05-31-3C38.46,197,42.66,185.62,53.25,182.17Zm-5.17,19.74a1.67,1.67,0,0,1-1.18-3.11,1.67,1.67,0,0,1,1.18,3.11Zm8.45-86.6c-1.89-1.43-4-3.41-2.59-6,1.17-2.14,3.67-2,5.78-1.66Q58,111.44,56.53,115.31Zm5.75-12.84c-6-3-13,.29-19.26,1a1.82,1.82,0,0,0-1.27,3.05c3.94,4.9,6.51,12.18,12.89,14.29-.48,1.49-.92,3-1.33,4.5-10.63-3.42-14.85-14.79-19.77-24,10-3,21-8.08,31-2.95Q63.36,100.4,62.28,102.47Zm-13.35,5.21a1.61,1.61,0,0,1-2.14.93,1.67,1.67,0,0,1,1.39-3A1.61,1.61,0,0,1,48.93,107.68ZM79.05,78.49c-1.12-1.94-2.19-4.27-.34-6.11s4.16-.79,6.1.33C82.82,74.56,80.9,76.48,79.05,78.49ZM89.2,68.86c-4.53-5-12.1-4.65-18.25-6.44a1.81,1.81,0,0,0-2.2,2.2c1.79,6.17,1.46,13.74,6.47,18.27q-1.47,1.78-2.88,3.65l0,.07c-8.45-7.35-8-19.31-9.08-29.73,10.41,1.08,22.34.62,29.69,9C91.65,66.87,90.41,67.85,89.2,68.86ZM75,68.67l-.16.13a1.59,1.59,0,0,1-2.19-.13A1.67,1.67,0,0,1,75,66.35,1.61,1.61,0,0,1,75,68.67Zm36.88-26.93a1.66,1.66,0,0,1,3.1-1.17,1.66,1.66,0,0,1-3.1,1.17ZM114,53.4c-.3-2.11-.49-4.62,1.66-5.79,2.58-1.42,4.58.76,6,2.67Q117.8,51.69,114,53.4Zm13.15-5c-2-6.47-9.39-9.06-14.33-13a1.81,1.81,0,0,0-3,1.26c-.69,6.25-4,13.24-1,19.24-1.38.71-2.76,1.46-4.11,2.23-5.09-9.95,0-20.95,3-30.95,9.25,5,20.68,9.19,24,20C130.18,47.55,128.67,48,127.17,48.44Z"/><path class="cls-1" d="M193.18,247.78c1.94-5,1.15-9.41-1.16-14,.88-.35,1.75-.72,2.61-1.1,1.6,4.71,4,8.22,8.7,10.41,5.51,2.55,11.71,2.2,17.58,3a1.39,1.39,0,0,0,1.4-1c1.47-5.74,4-11.36,3.82-17.43-.19-5.22-2.53-8.84-6.22-12.09q1-1,2-2c3.15,3.61,6.67,5.92,11.65,6.12,6.07.25,11.63-2.45,17.34-4a1.44,1.44,0,0,0,1.08-1.65c-.83-6-.58-12.2-3.2-17.76-2.15-4.59-5.64-7-10.18-8.48.36-.88.71-1.76,1-2.65,4.42,2.19,8.62,3,13.45,1.06,5.58-2.18,9.66-6.79,14.28-10.43a1.41,1.41,0,0,0,.3-1.67c-3-5.18-5.13-11.09-9.61-15.23-3.78-3.5-7.87-4.36-12.68-4,0-.94,0-1.89,0-2.84,5,.31,9.21-.72,12.92-4.44,4.14-4.15,6.11-9.8,8.94-14.84a1.45,1.45,0,0,0-.4-1.93c-4.58-3.52-8.62-7.94-14.06-10.12-4.86-2-9.16-1.24-13.58,1-.36-.88-.73-1.76-1.11-2.62,4.54-1.6,7.93-4,10-8.68,2.49-5.57,2.11-11.85,2.83-17.79a1.42,1.42,0,0,0-.94-1.42c-5.68-1.52-11.24-4.15-17.23-4-5.18.17-8.75,2.53-11.94,6.28l-.62-.64c-.46-.46-.94-.91-1.41-1.36,3.58-3.19,5.87-6.75,6.05-11.83.21-6.14-2.48-11.79-4.07-17.59A1.43,1.43,0,0,0,219.13,61c-5.88.8-12,.52-17.52,3.13-4.51,2.16-6.84,5.67-8.31,10.23-.86-.37-1.73-.74-2.6-1.09,2.11-4.44,2.83-8.67,1-13.55-2.19-5.66-6.77-9.82-10.38-14.52a1.37,1.37,0,0,0-1.66-.31c-5.1,3-10.92,5.13-15,9.64-3.44,3.81-4.26,7.94-3.91,12.81-.94,0-1.88,0-2.81,0,.29-5-.75-9.34-4.45-13.13-4.12-4.21-9.71-6.24-14.7-9.13a1.54,1.54,0,0,0-1-.19l.78,3.85c6.32,5.2,14.19,10.12,15.36,18.81-1.21.09-2.42.2-3.62.35-.78-5.28-5.85-8.33-9.09-12.2a1.32,1.32,0,0,0-1.31-.43l.8,3.86a1.2,1.2,0,0,1,1.49.9,1.25,1.25,0,0,1-1,1.5l.82,4c2-.42,3.09,1.39,3.87,3-1.05.18-2.08.43-3.12.64l.52,2.52a82.27,82.27,0,0,1,65.46,14.64c27.79,20.83,40.81,58.53,30.4,92A85.31,85.31,0,0,1,212,219a80.73,80.73,0,0,1-35.15,16.72l.52,2.52q1.56-.33,3.12-.72c-.08,1.79-.3,3.93-2.38,4.36l.83,4h.15a1.24,1.24,0,0,1,1.37,1,1.21,1.21,0,0,1-1,1.38l.79,3.87a1.34,1.34,0,0,0,1-.91c1.47-4.87,5-9.71,3.52-14.91,1.16-.36,2.31-.73,3.46-1.13,2.44,8.5-2.89,16.16-6.67,23.47l.79,3.85a1.45,1.45,0,0,0,.88-.58C186.72,257.34,191.06,253.28,193.18,247.78ZM243,133.46c1.71.1,3.64.41,4.06,2.42s-1.26,3.06-2.79,3.83c0,0,0-.06,0-.09Q243.7,136.52,243,133.46Zm13.78,1.66a1.42,1.42,0,0,0-.49-2.37c-4.74-1.49-9.46-5-14.5-3.7-.35-1.18-.73-2.36-1.14-3.52,8.29-2.26,15.82,3.12,23,6.95-5.08,6.35-9.89,14.27-18.42,15.44-.08-1.23-.19-2.46-.33-3.68C250,143.43,253,138.36,256.74,135.12Zm-5.76-.05a1,1,0,0,1,0-.16,1.25,1.25,0,0,1,1-1.38,1.31,1.31,0,0,1,.48,2.56A1.25,1.25,0,0,1,251,135.07ZM179.07,69.55c-1.08-.26-2.17-.49-3.26-.71s-2-.36-2.94-.51c.78-1.65,1.94-3.47,4-2.81C178.66,66.07,179,67.92,179.07,69.55Zm-.22-9a1.23,1.23,0,0,1-1.46.89,1.25,1.25,0,0,1-1-1.49,1.17,1.17,0,0,1,1.45-.9A1.21,1.21,0,0,1,178.85,60.53Zm8.05,11.32q-1.71-.6-3.45-1.11c1.27-5-2.31-9.85-3.8-14.5a1.41,1.41,0,0,0-2.51-.5c-3.07,3.76-8.12,6.84-8.76,12-1.21-.13-2.42-.22-3.62-.29,1-8.64,8.85-13.63,15-18.82C183.61,55.82,189.15,63.44,186.9,71.85Zm22.51,11.79q-2.59-1.89-5.31-3.58c1.3-1.18,2.93-2.45,4.65-1.29S210,82,209.41,83.64Zm6.38,5.1c-.92-.81-1.86-1.6-2.81-2.37,3.15-4.26,1.69-10.06,2.08-15.09a1.4,1.4,0,0,0-2-1.34c-4.4,2.34-10.2,3.25-12.82,7.84-1.07-.59-2.15-1.16-3.25-1.71,4.23-7.63,13.34-9.13,21.05-11.58C218.85,72.67,221.09,81.79,215.79,88.74ZM210.6,73.55a1.19,1.19,0,0,1,1.7-.24,1.22,1.22,0,1,1-1.33,2,.4.4,0,0,1-.12-.1A1.25,1.25,0,0,1,210.6,73.55Zm21.71,34.63c-1.14-1.81-2.33-3.59-3.59-5.32,1.53-.55,3.36-1,4.57.4C234.73,105,233.5,106.8,232.31,108.18Zm4,7.18c-.55-1.09-1.12-2.18-1.71-3.25,4.44-2.62,5.25-8.57,7.44-12.92a1.42,1.42,0,0,0-1.43-2.14c-4.82.44-10.62-1-14.68,2.21-.77-1-1.55-1.88-2.36-2.79,6.73-5.45,15.83-3.29,23.87-2.53C245.17,101.74,243.77,111.07,236.32,115.36Zm.8-15.93a1.3,1.3,0,0,1,1.38,2.2,1.23,1.23,0,0,1-1.68-.43A1.25,1.25,0,0,1,237.12,99.43Zm7.23,67.67c1.65.81,3.56,2,2.9,4.17-.55,1.82-2.47,2.07-4.11,2.17Q243.86,170.29,244.35,167.1ZM242,177.83c5,1.4,9.78-2.24,14.4-3.74a1.43,1.43,0,0,0,.48-2.54c-3.75-3.14-6.84-8.32-12-8.94.12-1.22.22-2.44.29-3.66,8.57,1,13.55,9,18.72,15.31-7.09,3.87-14.62,9.45-23,7.07C241.34,180.17,241.7,179,242,177.83Zm9.27-6.06a1.23,1.23,0,0,1,1.47-1,1.21,1.21,0,0,1,.9,1.47,1.19,1.19,0,0,1-1.48,1.06A1.26,1.26,0,0,1,251.3,171.77Zm-18.18,27c1.15,1.31,2.33,2.93,1.22,4.63s-3,1.25-4.66.69Q231.49,201.55,233.12,198.81Zm-6.15,9c4.2,3.11,9.87,1.69,14.8,2.1a1.41,1.41,0,0,0,1.32-2c-2.33-4.45-3.26-10.3-7.76-13,.55-1.07,1.09-2.15,1.6-3.25l0-.06c7.55,4.32,9.08,13.56,11.54,21.37-8,.79-17,3-23.86-2.31C225.43,209.67,226.21,208.73,227,207.77Zm10.76-2.06a.4.4,0,0,1,.1-.12,1.21,1.21,0,1,1,1.92,1.47,1.18,1.18,0,0,1-1.68.43A1.27,1.27,0,0,1,237.73,205.71Zm-23.64,26.35a1.22,1.22,0,0,1-.46,1.75,1.18,1.18,0,0,1-1.7-.36,1.26,1.26,0,0,1,.41-1.71A1.24,1.24,0,0,1,214.09,232.06Zm-3.45-8.6c.56,1.57,1.09,3.47-.35,4.7-1.72,1.49-3.58.13-5-1.11C207.14,225.92,208.91,224.73,210.64,223.46Zm-9.17,5.84c2.57,4.65,8.53,5.49,12.88,7.76a1.4,1.4,0,0,0,2.11-1.44c-.46-4.89,1-10.77-2.27-14.9.94-.76,1.86-1.54,2.76-2.35,5.41,6.84,3.33,16,2.62,24.18-7.77-2.36-17.08-3.83-21.31-11.56C199.34,230.45,200.42,229.89,201.47,229.3Z"/><path class="cls-1" d="M126.93,59.68c-1.93,5-1.14,9.4,1.17,14-.88.36-1.75.72-2.62,1.11-1.59-4.71-4-8.23-8.7-10.42-5.5-2.55-11.7-2.2-17.57-3a1.38,1.38,0,0,0-1.4.94c-1.47,5.75-4,11.37-3.82,17.43.19,5.23,2.53,8.84,6.21,12.09q-1,1-2,2c-3.14-3.61-6.66-5.91-11.65-6.12-6.06-.24-11.62,2.45-17.34,4a1.42,1.42,0,0,0-1.07,1.64c.83,6,.58,12.21,3.19,17.77,2.16,4.58,5.65,7,10.19,8.48-.37.87-.71,1.75-1.05,2.64-4.41-2.18-8.61-3-13.45-1.06-5.57,2.18-9.65,6.8-14.27,10.43a1.42,1.42,0,0,0-.31,1.68c3,5.18,5.14,11.08,9.61,15.23,3.79,3.5,7.87,4.35,12.69,4,0,.95,0,1.9,0,2.85-5-.32-9.21.71-12.93,4.43-4.14,4.15-6.11,9.8-8.93,14.84a1.45,1.45,0,0,0,.4,1.94c4.58,3.52,8.61,7.93,14,10.11,4.87,2,9.16,1.24,13.59-1,.36.88.72,1.75,1.11,2.62-4.54,1.59-7.93,4-10,8.68-2.49,5.56-2.11,11.84-2.83,17.78a1.41,1.41,0,0,0,.93,1.42c5.69,1.52,11.25,4.16,17.24,4,5.18-.16,8.74-2.53,11.94-6.27l.62.63c.46.47.94.91,1.41,1.37-3.59,3.18-5.87,6.75-6,11.83-.21,6.14,2.48,11.78,4.06,17.58a1.43,1.43,0,0,0,1.64,1.09c5.87-.8,12.05-.51,17.52-3.13,4.51-2.15,6.83-5.66,8.31-10.23.86.38,1.72.75,2.6,1.1-2.11,4.43-2.83,8.66-.95,13.55,2.19,5.66,6.76,9.81,10.38,14.51a1.38,1.38,0,0,0,1.65.32c5.1-3,10.93-5.14,15-9.65,3.43-3.81,4.26-7.94,3.91-12.81.94,0,1.87,0,2.81,0-.29,5,.75,9.34,4.45,13.12,4.12,4.22,9.71,6.24,14.7,9.13a1.43,1.43,0,0,0,1,.19l-.79-3.85c-6.31-5.2-14.18-10.11-15.35-18.8,1.21-.09,2.42-.21,3.62-.35.78,5.28,5.85,8.33,9.09,12.2a1.35,1.35,0,0,0,1.3.43l-.79-3.87a1.21,1.21,0,0,1-1.5-.9,1.27,1.27,0,0,1,1-1.5l-.83-4c-2,.41-3.09-1.4-3.86-3,1.05-.18,2.08-.43,3.12-.65l-.52-2.52a82.22,82.22,0,0,1-65.46-14.64c-27.79-20.83-40.81-58.52-30.4-92a85.24,85.24,0,0,1,27.05-40.63,80.84,80.84,0,0,1,35.15-16.72l-.52-2.52q-1.58.33-3.12.72c.07-1.79.29-3.93,2.37-4.35l-.82-4-.16,0a1.25,1.25,0,0,1-1.36-1,1.2,1.2,0,0,1,1-1.38l-.8-3.86a1.32,1.32,0,0,0-1,.91c-1.46,4.87-5,9.7-3.51,14.91-1.16.35-2.32.73-3.46,1.13-2.45-8.5,2.89-16.17,6.66-23.48l-.78-3.85a1.47,1.47,0,0,0-.88.59C133.4,50.11,129.06,54.18,126.93,59.68ZM77.16,174c-1.71-.1-3.65-.41-4.06-2.42s1.26-3,2.79-3.82a.28.28,0,0,1,0,.09C76.24,169.91,76.67,172,77.16,174Zm-13.78-1.65a1.42,1.42,0,0,0,.48,2.36c4.75,1.49,9.46,5,14.5,3.71.36,1.18.74,2.35,1.15,3.51-8.29,2.26-15.82-3.11-23-6.94,5.09-6.36,9.89-14.27,18.43-15.44.08,1.22.19,2.45.32,3.68C70.13,164,67.16,169.1,63.38,172.34Zm5.76,0a.86.86,0,0,1,0,.16,1.23,1.23,0,0,1-1,1.37,1.31,1.31,0,0,1-.49-2.56A1.27,1.27,0,0,1,69.14,172.39Zm71.91,65.51c1.08.26,2.17.5,3.26.71s2,.36,2.94.52c-.78,1.64-1.94,3.46-4.05,2.8C141.46,241.38,141.16,239.53,141.05,237.9Zm.22,9a1.23,1.23,0,0,1,1.46-.89,1.26,1.26,0,0,1,1,1.49,1.19,1.19,0,0,1-1.45.91A1.22,1.22,0,0,1,141.27,246.92Zm-8.05-11.31q1.71.58,3.45,1.11c-1.27,5,2.31,9.84,3.8,14.49a1.4,1.4,0,0,0,2.51.5c3.07-3.76,8.12-6.84,8.76-12,1.21.12,2.41.22,3.62.28-1,8.64-8.85,13.63-15,18.82C136.5,251.63,131,244,133.22,235.61Zm-22.51-11.8q2.6,1.89,5.31,3.58c-1.3,1.19-2.93,2.45-4.65,1.3S110.14,225.5,110.71,223.81Zm-6.38-5.1c.92.81,1.86,1.61,2.81,2.38-3.15,4.25-1.69,10-2.08,15.08a1.41,1.41,0,0,0,2,1.35c4.4-2.34,10.2-3.26,12.82-7.85,1.07.59,2.15,1.17,3.25,1.71-4.23,7.63-13.34,9.14-21,11.58C101.27,234.78,99,225.67,104.33,218.71Zm5.19,15.2a1.2,1.2,0,0,1-1.7.23,1.22,1.22,0,1,1,1.33-2l.12.1A1.28,1.28,0,0,1,109.52,233.91ZM87.81,199.27c1.13,1.82,2.33,3.6,3.59,5.32-1.53.55-3.36,1-4.57-.39C85.39,202.49,86.62,200.66,87.81,199.27Zm-4-7.18c.55,1.1,1.12,2.18,1.71,3.25-4.45,2.62-5.25,8.57-7.45,12.92a1.43,1.43,0,0,0,1.44,2.15c4.82-.44,10.62,1,14.68-2.21.77.94,1.55,1.87,2.36,2.78-6.73,5.46-15.84,3.29-23.87,2.53C75,205.72,76.34,196.38,83.8,192.09ZM83,208a1.19,1.19,0,0,1-1.72-.48,1.2,1.2,0,0,1,.35-1.72A1.3,1.3,0,0,1,83,208Zm-7.22-67.67c-1.66-.8-3.56-2-2.9-4.17.55-1.82,2.46-2.07,4.1-2.17C76.5,136.11,76.09,138.23,75.77,140.35Zm2.32-10.73c-5-1.4-9.79,2.24-14.4,3.74a1.43,1.43,0,0,0-.48,2.54c3.75,3.15,6.83,8.32,12,8.95-.13,1.21-.22,2.43-.29,3.66-8.58-1-13.55-9-18.73-15.31,7.1-3.87,14.62-9.46,23-7.07C78.77,127.29,78.42,128.45,78.09,129.62Zm-9.27,6.06a1.23,1.23,0,0,1-1.47,1,1.2,1.2,0,0,1-.9-1.47,1.19,1.19,0,0,1,1.48-1.05A1.26,1.26,0,0,1,68.82,135.68Zm18.18-27c-1.16-1.31-2.33-2.93-1.22-4.63s3-1.25,4.66-.69Q88.63,105.9,87,108.64Zm6.15-9c-4.21-3.11-9.87-1.69-14.8-2.11a1.41,1.41,0,0,0-1.32,2c2.32,4.45,3.26,10.3,7.76,13-.55,1.06-1.09,2.14-1.6,3.24l0,.06c-7.54-4.32-9.08-13.55-11.53-21.37,8-.79,17-3,23.86,2.32C94.69,97.78,93.91,98.73,93.15,99.69Zm-10.76,2a.64.64,0,0,1-.1.13,1.22,1.22,0,0,1-1.68.24,1.24,1.24,0,0,1-.24-1.72,1.19,1.19,0,0,1,1.68-.43A1.27,1.27,0,0,1,82.39,101.74ZM106,75.39a1.22,1.22,0,0,1,.46-1.75,1.18,1.18,0,0,1,1.7.37,1.25,1.25,0,0,1-.42,1.7A1.22,1.22,0,0,1,106,75.39Zm3.45,8.6c-.56-1.57-1.09-3.46.34-4.7,1.73-1.48,3.59-.12,5,1.12C113,81.53,111.21,82.73,109.48,84Zm9.16-5.84c-2.56-4.64-8.52-5.48-12.88-7.76a1.41,1.41,0,0,0-2.11,1.45c.46,4.89-1,10.76,2.28,14.89-.94.76-1.86,1.55-2.76,2.35-5.42-6.84-3.33-16-2.62-24.18,7.77,2.37,17.08,3.84,21.31,11.56C120.77,77,119.7,77.56,118.64,78.15Z"/><path class="cls-1" d="M142,227.82c3.35-2.37,4.7-5.52,5.12-9.41.72.15,1.44.28,2.16.4-.94,3.68-.87,6.93,1.27,10.32,2.49,4,6.66,6.35,10.15,9.31a1.07,1.07,0,0,0,1.3,0c3.37-3.05,7.4-5.54,9.8-9.51,2.08-3.42,2.08-6.71,1.06-10.34.71-.13,1.42-.28,2.13-.44.52,3.63,1.83,6.58,5,8.82,3.83,2.72,8.56,3.35,12.93,4.75a1.09,1.09,0,0,0,1.39-.59c2-4.15,4.76-8,5.4-12.69.53-3.83-.74-6.82-3-9.7l1.79-1.25c1.94,3.25,4.35,5.52,8.27,6.35,4.54,1,9.12-.26,13.65-.63a1.06,1.06,0,0,0,.9-.94c.23-4.57,1.33-9.24.17-13.77-1-3.83-3.27-6.11-6.53-7.93.4-.6.8-1.2,1.18-1.82,3.09,2.3,6.28,3.44,10.25,2.63,4.43-.9,8.08-3.67,12-5.69a1.11,1.11,0,0,0,.56-1.41c-1.49-4.18-2.25-8.7-4.86-12.39-2.34-3.3-5.42-4.66-9.23-5.1.14-.71.27-1.42.38-2.14,3.61.9,6.82.8,10.15-1.3,4-2.5,6.35-6.67,9.32-10.15a1.08,1.08,0,0,0,0-1.31c-3-3.37-5.54-7.4-9.5-9.8-3.44-2.08-6.74-2.08-10.39-1,0-.22-.09-.44-.13-.66-.11-.5-.23-1-.34-1.47,3.66-.52,6.64-1.83,8.89-5,2.72-3.82,3.35-8.56,4.76-12.93a1.1,1.1,0,0,0-.6-1.39c-4.15-2-8-4.76-12.68-5.4-3.83-.53-6.81.73-9.69,3-.4-.6-.8-1.2-1.22-1.8,3.23-1.93,5.48-4.33,6.31-8.24,1-4.54-.26-9.12-.63-13.64a1.09,1.09,0,0,0-.94-.91c-4.58-.23-9.24-1.33-13.78-.17-3.82,1-6.09,3.27-7.91,6.53-.61-.41-1.22-.8-1.84-1.18,2.31-3.08,3.44-6.27,2.63-10.25-.9-4.43-3.67-8.08-5.69-12a1.18,1.18,0,0,0-.59-.56l-1.11,2.79c1.91,6,4.95,12.44,2.06,18.48-.83-.45-1.66-.89-2.5-1.3,1.72-3.7-.29-7.79-.77-11.62a1,1,0,0,0-.66-.83l-1.11,2.8a.93.93,0,0,1,.59,1.21,1,1,0,0,1-1.28.53l-1.15,2.91c1.49.6,1.41,2.19,1.24,3.54-.75-.33-1.52-.6-2.29-.9l-.72,1.82a64.06,64.06,0,0,1,36.29,37c9.27,25,1.86,54.58-19,71.56a65.61,65.61,0,0,1-34.62,14.5,63.24,63.24,0,0,1-29.82-4.17l-.72,1.82c.77.3,1.54.59,2.32.86-.8,1.11-1.84,2.38-3.37,1.78l-1.15,2.91.11.05a1,1,0,0,1,.44,1.24.91.91,0,0,1-1.24.44l-1.11,2.81a1.06,1.06,0,0,0,1.05-.15c3-2.49,7.3-4.09,8.55-8,.9.27,1.8.51,2.71.74-2,6.46-8.66,9.1-14.19,12.17l-1.1,2.78a1.08,1.08,0,0,0,.81,0C133.79,231.19,138.31,230.43,142,227.82Zm80.34-51.93c1.06.79,2.19,1.8,1.61,3.26s-2.1,1.42-3.42,1.26l0-.06Q221.54,178.16,222.34,175.89Zm8.24,6.88a1.09,1.09,0,0,0,.68-1.72c-2.45-3-4-7.16-7.85-8.48.27-.9.51-1.81.74-2.73,6.32,2.06,8.94,8.67,12,14.14-6,1.91-12.41,4.93-18.44,2.07.47-.81.91-1.64,1.34-2.48C222.71,185.23,226.76,183.24,230.58,182.77Zm-3.72-2.47.06-.1a.94.94,0,0,1,1.23-.45.92.92,0,0,1,.45,1.24.93.93,0,0,1-1.21.6A1,1,0,0,1,226.86,180.3Zm-19.09-72.16c-.59-.62-1.2-1.23-1.81-1.83s-1.12-1.06-1.69-1.57c1.2-.72,2.71-1.39,3.8-.08C209,105.75,208.38,107.05,207.77,108.14Zm3.65-5.85a1,1,0,0,1-1.37-1.44,1,1,0,0,1,1.37,1.44Zm.47,10.62c-.58-.73-1.17-1.46-1.78-2.17,2.95-2.67,2.65-7.25,3.63-10.85a1.08,1.08,0,0,0-1.41-1.38c-3.57,1.11-8.15.94-10.73,4-.73-.58-1.47-1.15-2.23-1.71,4.25-5.11,11.47-5,17.65-5.67C216.49,101.3,216.87,108.5,211.89,112.91Zm9.63,17q-.89-2.3-1.94-4.53c1.34-.2,2.93-.32,3.57,1.14S222.6,129.1,221.52,129.94Zm2,5.95c-.26-.91-.53-1.81-.83-2.7,3.84-1.39,5.33-5.7,7.69-8.75a1.08,1.08,0,0,0-.74-1.71c-3.83-.36-8-2.23-11.61-.41q-.66-1.25-1.38-2.46c5.94-3.08,12.48-.19,18.51,1.5C232.26,126.93,229.88,133.69,223.52,135.89Zm3-11.89a.94.94,0,0,1,1.2.57.93.93,0,0,1-.44,1.27,1,1,0,0,1-1.28-.53.56.56,0,0,1,0-.12A1,1,0,0,1,226.54,124Zm-.49,31.27c0-1.64,0-3.28-.08-4.91,1.22.29,2.61.75,2.79,2.18C229,154.24,227.41,154.88,226.05,155.27Zm-.41,6.27c.1-.93.19-1.86.26-2.79,4,.2,7-3.26,10.26-5.1a1.09,1.09,0,0,0,0-2c-3.31-1.75-6.46-5.13-10.45-4.79-.1-.92-.22-1.85-.36-2.77,6.65-.64,11.65,4.59,16.54,8.46C237.11,156.59,232.28,162,225.64,161.54Zm7.22-9.82a1,1,0,0,1,0,2,1,1,0,0,1,0-2ZM209.1,198c.73,1.21,1.46,2.77.12,3.88-1.12.93-2.47.28-3.57-.35Q207.44,199.79,209.1,198Zm-6,5.86c2.67,3,7.29,2.71,10.91,3.7a1.09,1.09,0,0,0,1.38-1.42c-1.11-3.59-.94-8.19-4-10.77.59-.72,1.16-1.46,1.72-2.21,5.15,4.24,5,11.48,5.71,17.67-6.23-.53-13.46-.14-17.87-5.19C201.65,205,202.37,204.42,203.08,203.81Zm8.56.05a1,1,0,0,1,1.39,0,1,1,0,0,1-1.44,1.37A1,1,0,0,1,211.64,203.86Zm-23.16,9.58c.2,1.32.28,2.85-1.15,3.47s-2.49-.48-3.31-1.53Q186.27,214.51,188.48,213.44Zm-7.75,3.12c1.42,3.76,5.69,5.24,8.71,7.59a1.08,1.08,0,0,0,1.71-.74c.36-3.82,2.22-7.95.43-11.57.81-.44,1.61-.91,2.4-1.39l0,0c3.08,5.94.2,12.48-1.5,18.51C187,226,180.26,223.67,178,217.37,178.93,217.12,179.83,216.85,180.73,216.56Zm7.84,3.23.12,0a1,1,0,0,1,1.19.56.92.92,0,0,1-.57,1.19.93.93,0,0,1-1.27-.43A1,1,0,0,1,188.57,219.79Zm-26.41,6.83a1,1,0,0,1-2,0,1,1,0,0,1,1-.91A.94.94,0,0,1,162.16,226.62Zm1.38-6.94c-.3,1.24-.75,2.67-2.2,2.85-1.74.22-2.37-1.43-2.75-2.81C160.24,219.77,161.89,219.75,163.54,219.68Zm-8.4-.15c-.28,4.05,3.23,7.1,5.1,10.39a1.08,1.08,0,0,0,2,0c1.76-3.31,5.14-6.46,4.79-10.46.93-.09,1.85-.21,2.77-.34.64,6.65-4.58,11.65-8.46,16.54-4-4.79-9.46-9.66-9-16.38C153.28,219.37,154.21,219.46,155.14,219.53Z"/><path class="cls-1" d="M178.12,79.83c-3.36,2.37-4.7,5.51-5.13,9.41-.71-.15-1.43-.28-2.15-.4.94-3.68.87-6.94-1.27-10.32-2.5-4-6.66-6.35-10.15-9.31a1.07,1.07,0,0,0-1.3,0c-3.37,3-7.4,5.54-9.81,9.51-2.07,3.41-2.07,6.7-1.05,10.33q-1.06.21-2.13.45c-.52-3.63-1.84-6.59-5-8.82-3.83-2.72-8.57-3.35-12.94-4.76a1.1,1.1,0,0,0-1.38.6c-2,4.15-4.76,8-5.4,12.68-.53,3.84.73,6.83,3,9.71-.61.41-1.2.83-1.79,1.25-2-3.26-4.35-5.52-8.28-6.35-4.53-1-9.11.26-13.64.62a1.08,1.08,0,0,0-.9.94c-.23,4.58-1.33,9.25-.17,13.78,1,3.83,3.27,6.1,6.53,7.92-.4.6-.8,1.21-1.19,1.83-3.08-2.3-6.27-3.44-10.24-2.63-4.43.9-8.09,3.67-12,5.69a1.1,1.1,0,0,0-.56,1.41c1.49,4.18,2.25,8.69,4.86,12.39,2.33,3.3,5.42,4.65,9.23,5.1-.14.71-.27,1.42-.38,2.14-3.61-.9-6.82-.8-10.16,1.3-4,2.5-6.35,6.67-9.31,10.15a1.08,1.08,0,0,0,0,1.3c3,3.37,5.55,7.4,9.51,9.81,3.43,2.08,6.74,2.08,10.39,1,0,.22.08.44.13.66.11.49.23,1,.34,1.47-3.66.52-6.65,1.83-8.9,5-2.72,3.83-3.34,8.57-4.75,12.94a1.1,1.1,0,0,0,.6,1.39c4.15,2,8,4.75,12.68,5.39,3.83.53,6.81-.72,9.68-3q.6.91,1.23,1.8c-3.23,1.94-5.48,4.34-6.31,8.25-1,4.53.26,9.12.63,13.64a1.05,1.05,0,0,0,.94.9c4.57.23,9.24,1.34,13.77.17,3.83-1,6.1-3.26,7.92-6.52.61.4,1.22.79,1.84,1.17-2.31,3.09-3.45,6.28-2.64,10.26.9,4.43,3.67,8.08,5.7,12a1.09,1.09,0,0,0,.59.55l1.1-2.78c-1.91-6-4.94-12.45-2.05-18.49.83.46,1.66.89,2.5,1.31-1.72,3.7.29,7.78.76,11.62a1.06,1.06,0,0,0,.67.83l1.11-2.81a.92.92,0,0,1-.59-1.2,1,1,0,0,1,1.28-.53l1.15-2.91c-1.5-.6-1.42-2.2-1.25-3.54.76.32,1.53.6,2.3.9l.72-1.82a64.08,64.08,0,0,1-36.29-37c-9.27-25-1.87-54.57,19-71.55a65.64,65.64,0,0,1,34.63-14.5,63.24,63.24,0,0,1,29.82,4.17l.72-1.82c-.77-.3-1.55-.59-2.33-.86.81-1.11,1.85-2.38,3.38-1.78L186.54,87l-.11-.06a1,1,0,0,1-.45-1.23.93.93,0,0,1,1.25-.45l1.11-2.8a1,1,0,0,0-1.05.15c-3,2.48-7.31,4.09-8.55,8-.9-.27-1.81-.52-2.72-.74,2-6.46,8.67-9.1,14.19-12.17L191.32,75a1.19,1.19,0,0,0-.81,0C186.33,76.45,181.81,77.22,178.12,79.83ZM97.78,131.75c-1.06-.78-2.19-1.8-1.61-3.25s2.09-1.42,3.41-1.27l0,.07C98.91,128.76,98.32,130.25,97.78,131.75Zm-8.24-6.87a1.07,1.07,0,0,0-.68,1.71c2.45,3,4,7.17,7.85,8.49-.27.9-.51,1.81-.74,2.72-6.32-2.05-9-8.66-12-14.13,6-1.91,12.41-4.93,18.43-2.08-.46.82-.9,1.65-1.33,2.49C97.41,122.42,93.35,124.4,89.54,124.88Zm3.71,2.46a.37.37,0,0,1,0,.11,1,1,0,0,1-1.24.45.94.94,0,0,1-.44-1.25.92.92,0,0,1,1.2-.59A1,1,0,0,1,93.25,127.34Zm19.1,72.17c.59.62,1.19,1.23,1.81,1.83s1.12,1.06,1.69,1.57c-1.2.72-2.71,1.39-3.8.08C111.15,201.9,111.73,200.6,112.35,199.51Zm-3.65,5.85a1,1,0,0,1,1.32,0,1,1,0,0,1,0,1.39,1,1,0,0,1-1.37-1.43Zm-.47-10.62c.58.73,1.17,1.45,1.78,2.16-3,2.68-2.65,7.26-3.63,10.86a1.08,1.08,0,0,0,1.41,1.37c3.57-1.1,8.15-.93,10.73-4,.73.59,1.47,1.16,2.23,1.71-4.25,5.12-11.47,5-17.65,5.67C103.63,206.35,103.24,199.15,108.23,194.74Zm-9.64-17c.6,1.53,1.24,3,1.94,4.52-1.34.21-2.93.33-3.56-1.14S97.52,178.54,98.59,177.71Zm-2-6c.26.91.53,1.81.82,2.7-3.83,1.38-5.32,5.7-7.68,8.75a1.07,1.07,0,0,0,.73,1.7c3.84.37,8,2.24,11.62.41.44.83.9,1.66,1.38,2.47-6,3.08-12.49.19-18.51-1.5C87.86,180.72,90.24,174,96.6,171.76Zm-3,11.88a1,1,0,0,1-.77-1.83,1,1,0,0,1,1.29.53.45.45,0,0,1,0,.11A1,1,0,0,1,93.58,183.64Zm.48-31.26c0,1.64,0,3.28.09,4.91-1.22-.3-2.62-.75-2.8-2.18C91.14,153.41,92.71,152.76,94.06,152.38Zm.42-6.27c-.11.93-.19,1.86-.26,2.79-4-.2-7,3.25-10.26,5.1a1.08,1.08,0,0,0,0,2c3.31,1.76,6.46,5.14,10.45,4.79.1.93.22,1.86.36,2.78-6.66.64-11.65-4.59-16.54-8.46C83,151.06,87.84,145.69,94.48,146.11Zm-7.22,9.82a1,1,0,0,1,0-2,.94.94,0,0,1,.91,1A1,1,0,0,1,87.26,155.93ZM111,109.7c-.73-1.21-1.47-2.77-.13-3.89,1.12-.92,2.47-.28,3.58.35Q112.69,107.87,111,109.7Zm6-5.87c-2.67-3-7.29-2.7-10.92-3.69a1.09,1.09,0,0,0-1.37,1.42c1.11,3.59.93,8.19,4,10.77-.59.72-1.17,1.46-1.73,2.21-5.14-4.24-5-11.48-5.7-17.67,6.23.52,13.46.13,17.86,5.18C118.46,102.63,117.74,103.23,117,103.83Zm-8.56,0a1,1,0,0,1-1.39,0,.91.91,0,0,1,0-1.32.92.92,0,0,1,1.4-.05A1,1,0,0,1,108.48,103.78Zm23.15-9.57c-.19-1.33-.27-2.86,1.16-3.47s2.49.48,3.31,1.53Q133.84,93.14,131.63,94.21Zm7.76-3.12c-1.42-3.76-5.69-5.25-8.72-7.59a1.07,1.07,0,0,0-1.7.74c-.37,3.82-2.22,8-.43,11.57-.81.44-1.61.91-2.4,1.39l0,0c-3.07-6-.19-12.48,1.5-18.51,5.55,2.89,12.27,5.26,14.5,11.55C141.19,90.53,140.29,90.8,139.39,91.09Zm-7.84-3.23-.12,0a1,1,0,0,1-1.19-.56.92.92,0,0,1,.56-1.19.94.94,0,0,1,1.28.43A1,1,0,0,1,131.55,87.86ZM158,81a.93.93,0,0,1,1-.92.91.91,0,0,1,.95,1,1,1,0,0,1-2,0ZM156.58,88c.29-1.24.74-2.67,2.19-2.85,1.75-.22,2.38,1.43,2.76,2.81C159.88,87.88,158.23,87.9,156.58,88Zm8.39.14c.29-4-3.22-7.1-5.09-10.38a1.08,1.08,0,0,0-2,0c-1.76,3.31-5.15,6.46-4.79,10.46-.93.09-1.85.2-2.78.33-.63-6.65,4.59-11.64,8.47-16.53,4,4.79,9.46,9.66,9,16.37C166.84,88.28,165.91,88.19,165,88.11Z"/><path class="cls-1" d="M157.75,213.35a9.67,9.67,0,0,0,2.43-8c.57,0,1.13,0,1.7,0a9.61,9.61,0,0,0,2.53,7.7c2.5,2.63,6,3.8,9.11,5.52a.85.85,0,0,0,1-.22c2.08-2.87,4.74-5.42,6-8.84a9.6,9.6,0,0,0-.78-8.08l1.54-.68a9.33,9.33,0,0,0,5.12,6c3.31,1.47,7,1.2,10.52,1.58a.84.84,0,0,0,.95-.67c.86-3.49,2.37-6.91,2.14-10.57a9.44,9.44,0,0,0-3.79-7c.4-.41.79-.82,1.17-1.24a9.33,9.33,0,0,0,7.23,3.55c3.58,0,6.86-1.65,10.23-2.65a.85.85,0,0,0,.53-.87c-.52-3.53-.41-7.28-2-10.57a9.34,9.34,0,0,0-6.16-5c.22-.52.42-1,.62-1.58A9.28,9.28,0,0,0,216,172c3.21-1.39,5.55-4.09,8.22-6.27a.87.87,0,0,0,.21-1.16c-1.77-3-3-6.31-5.58-8.72a9.28,9.28,0,0,0-7.76-2.44c0-.56,0-1.13,0-1.69a9.37,9.37,0,0,0,7.48-2.62c2.61-2.54,3.78-6.11,5.49-9.25a.84.84,0,0,0-.21-1c-2.82-2.1-5.33-4.79-8.7-6a9.28,9.28,0,0,0-8,.86l-.21-.49c-.15-.36-.32-.71-.48-1.07a9.45,9.45,0,0,0,6-5.24c1.47-3.36,1.22-7.09,1.62-10.66a.85.85,0,0,0-.67-1c-3.44-.85-6.8-2.37-10.42-2.12a9.36,9.36,0,0,0-6.87,3.85c-.39-.4-.79-.79-1.2-1.18a9.6,9.6,0,0,0,3.51-7.32c0-3.62-1.6-6.94-2.57-10.34a.81.81,0,0,0-.85-.54c-3.49.55-7.19.45-10.45,2.06a9.55,9.55,0,0,0-5,6.25c-.51-.21-1-.41-1.56-.61a9.62,9.62,0,0,0,.42-8.27c-1.36-3.24-4-5.6-6.16-8.3a.85.85,0,0,0-.53-.33l-.41,2.31c2.37,4.28,5.65,8.74,4.39,13.82-.69-.22-1.39-.42-2.09-.6.73-3.11-1.41-5.92-2.36-8.78a.8.8,0,0,0-.63-.52L170.1,97a.72.72,0,0,1,.63.83.76.76,0,0,1-.89.61l-.42,2.41c1.22.22,1.41,1.45,1.48,2.51-.62-.13-1.24-.22-1.87-.33l-.27,1.52a49.16,49.16,0,0,1,33.14,22.54c10.84,17.68,9.78,41.48-3.38,57.8a50.93,50.93,0,0,1-24,16.6,48.21,48.21,0,0,1-23.2,1.55l-.26,1.51c.63.11,1.26.21,1.89.29-.44,1-1,2.12-2.28,1.9l-.43,2.41s.07,0,.09,0a.73.73,0,0,1,.53.87.72.72,0,0,1-.87.54l-.41,2.32a.79.79,0,0,0,.77-.28c1.89-2.38,4.9-4.29,5.24-7.5.72.06,1.44.1,2.17.13-.52,5.26-5.17,8.34-8.87,11.57l-.41,2.31a.86.86,0,0,0,.61-.13C152.06,217.24,155.36,215.93,157.75,213.35Zm52.81-52.53c.93.43,1.93,1,1.72,2.23s-1.37,1.43-2.39,1.52v-.06Q210.3,162.68,210.56,160.82Zm7.29,4a.85.85,0,0,0,.25-1.42c-2.31-1.87-4.16-4.84-7.24-5.25.06-.73.11-1.47.14-2.2,5.1.57,8.1,5.21,11.24,8.91-4.23,2.41-8.64,5.75-13.63,4.52.22-.7.43-1.4.62-2.11C212.27,167.9,215,165.74,217.85,164.77Zm-3.19-1.29,0-.1a.74.74,0,0,1,.86-.54.73.73,0,0,1,.53.89.72.72,0,0,1-.82.64A.75.75,0,0,1,214.66,163.48Zm-25.51-52.22c-.55-.38-1.1-.75-1.66-1.11s-1-.63-1.52-.94c.8-.74,1.84-1.49,2.87-.66C189.69,109.24,189.44,110.33,189.15,111.26ZM191,106.2a.74.74,0,0,1-1,.18.76.76,0,0,1-.25-1.06.71.71,0,0,1,1-.18A.72.72,0,0,1,191,106.2Zm2,8.06c-.55-.47-1.1-.93-1.67-1.38,1.81-2.51.89-6,1.08-8.88a.84.84,0,0,0-1.29-.83c-2.53,1.41-6,2-7.5,4.73-.65-.33-1.3-.65-2-1,2.43-4.59,7.92-5.62,12.48-7.15C194.69,104.64,196.09,110.09,193,114.26Zm9.9,11.51c-.68-1.08-1.4-2.14-2.16-3.16,1-.37,2.17-.72,2.87.3S203.58,125,202.89,125.77Zm2.43,4.23c-.34-.65-.68-1.3-1-1.94,2.68-1.66,3.15-5.21,4.47-7.92a.83.83,0,0,0-.82-1.18c-3,.33-6.38-.44-8.84,1.53-.47-.56-.94-1.12-1.43-1.67,4-3.3,9.42-2.13,14.24-1.79C210.55,121.75,209.79,127.31,205.32,130Zm.46-9.58a.71.71,0,0,1,1,.25.73.73,0,1,1-1.18.84.41.41,0,0,1-.05-.09A.76.76,0,0,1,205.78,120.42Zm4.43,24c-.23-1.26-.5-2.51-.82-3.75,1,0,2.09.16,2.45,1.22C212.26,143.18,211.17,143.93,210.21,144.44Zm.65,4.86c-.07-.72-.15-1.45-.24-2.18,3-.47,4.8-3.6,7-5.53a.85.85,0,0,0-.32-1.51c-2.78-.82-5.68-2.9-8.64-2-.22-.7-.45-1.39-.7-2.07,4.94-1.55,9.52,1.66,13.81,3.85C218.77,143.69,215.94,148.57,210.86,149.3Zm3.95-8.66a.7.7,0,0,1,.85.64.72.72,0,0,1-.57.88.78.78,0,0,1-.28-1.52Zm-10.88,39.17c.74.81,1.53,1.89.69,2.95-.71.89-1.83.61-2.76.3C202.59,182,203.28,180.92,203.93,179.81Zm-3.66,5.45c2.48,1.88,5.93.91,8.83,1.09a.85.85,0,0,0,.82-1.31c-1.39-2.57-2-6.12-4.69-7.6.34-.65.66-1.31,1-2,4.55,2.43,5.54,8,7,12.62-4.8.59-10.2,2-14.31-1.13C199.38,186.4,199.83,185.83,200.27,185.26Zm6.49-1.33a.74.74,0,0,1,1-.26.73.73,0,0,1,.18,1,.7.7,0,0,1-1,.26A.75.75,0,0,1,206.76,183.93Zm-16,11c.35,1,.65,2.14-.34,2.84s-2,0-2.74-.65C188.68,196.45,189.71,195.72,190.71,195Zm-5.39,3.61c1.65,2.66,5.11,3.12,7.76,4.43a.84.84,0,0,0,1.18-.83c-.31-3,.45-6.44-1.45-8.93.54-.47,1.07-.95,1.6-1.45l0,0c3.24,4.06,2.06,9.53,1.7,14.41-4.63-1.33-10.09-2.08-12.74-6.54C184.05,199.28,184.69,198.93,185.32,198.56Zm6.43,1.23.08,0a.73.73,0,1,1,.74,1.25.72.72,0,0,1-1-.13A.77.77,0,0,1,191.75,199.79Zm-18.93,9.43a.73.73,0,0,1-.64.87.71.71,0,0,1-.87-.58.76.76,0,0,1,.61-.85A.73.73,0,0,1,172.82,209.22Zm0-5.53c0,1-.16,2.16-1.23,2.53-1.28.44-2-.72-2.51-1.71C170.31,204.28,171.56,204,172.8,203.69Zm-6.38,1.22c.41,3.15,3.53,4.93,5.45,7.15a.84.84,0,0,0,1.49-.34c.82-2.82,2.9-5.77,2-8.77.69-.22,1.37-.45,2-.7,1.5,5-1.68,9.64-3.86,14-3.8-3-8.65-5.89-9.29-11.11C165,205.08,165.7,205,166.42,204.91Z"/><path class="cls-1" d="M162.37,94.3a9.67,9.67,0,0,0-2.43,8c-.57,0-1.13,0-1.7,0a9.57,9.57,0,0,0-2.54-7.69c-2.49-2.63-6-3.8-9.11-5.52a.82.82,0,0,0-1,.22c-2.08,2.87-4.75,5.42-6,8.84a9.64,9.64,0,0,0,.79,8.08c-.52.21-1,.44-1.54.68a9.33,9.33,0,0,0-5.12-6c-3.32-1.48-7-1.2-10.52-1.59a.86.86,0,0,0-1,.68c-.85,3.49-2.36,6.91-2.14,10.57a9.47,9.47,0,0,0,3.79,7c-.39.41-.78.82-1.16,1.24a9.3,9.3,0,0,0-7.23-3.55c-3.58,0-6.86,1.65-10.23,2.65a.85.85,0,0,0-.54.86c.53,3.54.41,7.29,2,10.58a9.33,9.33,0,0,0,6.16,5c-.22.53-.42,1.06-.62,1.59a9.28,9.28,0,0,0-8.16-.38c-3.21,1.39-5.55,4.09-8.23,6.27a.87.87,0,0,0-.2,1.16c1.77,3,3,6.3,5.58,8.71a9.22,9.22,0,0,0,7.76,2.44c0,.57,0,1.14,0,1.7a9.36,9.36,0,0,0-7.48,2.61c-2.61,2.55-3.78,6.12-5.49,9.26a.84.84,0,0,0,.21,1c2.82,2.1,5.33,4.79,8.7,6a9.29,9.29,0,0,0,8-.86l.21.49c.15.36.32.71.48,1.07a9.46,9.46,0,0,0-6,5.24c-1.47,3.36-1.21,7.09-1.61,10.66a.85.85,0,0,0,.67,1c3.44.85,6.8,2.37,10.42,2.12a9.36,9.36,0,0,0,6.86-3.85l1.21,1.18a9.6,9.6,0,0,0-3.51,7.32c0,3.62,1.59,6.93,2.57,10.34a.83.83,0,0,0,.85.54c3.49-.55,7.19-.45,10.44-2.06a9.49,9.49,0,0,0,5-6.25c.52.21,1,.41,1.57.6a9.63,9.63,0,0,0-.42,8.27c1.36,3.25,4,5.61,6.15,8.31a.94.94,0,0,0,.54.33l.41-2.31c-2.37-4.28-5.65-8.74-4.39-13.82.69.21,1.39.41,2.09.6-.73,3.1,1.41,5.91,2.36,8.77a.79.79,0,0,0,.63.53l.41-2.32a.72.72,0,0,1-.63-.83.74.74,0,0,1,.88-.61l.43-2.41c-1.22-.22-1.41-1.46-1.49-2.51.62.13,1.25.22,1.88.32l.26-1.51a49.12,49.12,0,0,1-33.13-22.54c-10.85-17.68-9.78-41.49,3.38-57.8a51,51,0,0,1,24-16.61,48.22,48.22,0,0,1,23.2-1.54l.27-1.52-1.89-.29c.44-1,1-2.11,2.28-1.89l.42-2.41-.09,0a.75.75,0,0,1-.53-.87.73.73,0,0,1,.88-.54l.41-2.32a.79.79,0,0,0-.77.27c-1.89,2.39-4.9,4.3-5.24,7.51-.72-.06-1.44-.1-2.17-.13.52-5.26,5.16-8.35,8.87-11.57l.41-2.31a.81.81,0,0,0-.61.13C168.06,90.41,164.76,91.71,162.37,94.3Zm-52.81,52.53c-.93-.43-1.94-1-1.72-2.24s1.37-1.42,2.39-1.51v.06Q109.82,145,109.56,146.83Zm-7.29-4a.85.85,0,0,0-.25,1.42c2.3,1.87,4.16,4.84,7.24,5.25-.07.73-.11,1.46-.14,2.2-5.1-.57-8.1-5.21-11.24-8.92,4.23-2.41,8.64-5.75,13.63-4.52-.22.7-.43,1.41-.63,2.12C107.85,139.74,105.08,141.91,102.27,142.88Zm3.19,1.29a.46.46,0,0,1,0,.09.73.73,0,0,1-.86.54.78.78,0,0,1,.29-1.52A.75.75,0,0,1,105.46,144.17ZM131,196.39c.55.38,1.1.75,1.66,1.11s1,.63,1.52.93c-.8.74-1.85,1.5-2.87.67C130.43,198.41,130.68,197.32,131,196.39Zm-1.86,5.06a.73.73,0,0,1,1-.18.76.76,0,0,1,.25,1.06.71.71,0,0,1-1,.18A.72.72,0,0,1,129.11,201.45Zm-2-8.06c.54.47,1.1.93,1.67,1.37-1.82,2.52-.89,6-1.08,8.89a.84.84,0,0,0,1.28.83c2.53-1.41,6-2,7.51-4.74.64.34,1.29.65,2,1-2.43,4.59-7.92,5.62-12.48,7.14C125.42,203,124,197.56,127.13,193.39Zm-9.91-11.51c.69,1.08,1.41,2.13,2.17,3.16-1,.37-2.17.71-2.88-.31S116.54,182.69,117.22,181.88Zm-2.42-4.24c.34.66.68,1.31,1,1.94-2.69,1.67-3.15,5.21-4.47,7.92a.83.83,0,0,0,.82,1.19c3-.33,6.38.44,8.84-1.53.47.56.94,1.12,1.43,1.66-4,3.31-9.42,2.14-14.24,1.8C109.56,185.9,110.33,180.34,114.8,177.64Zm-.46,9.59a.71.71,0,0,1-1-.25.73.73,0,0,1,.13-1,.74.74,0,0,1,1,.2.56.56,0,0,0,0,.08A.77.77,0,0,1,114.34,187.23Zm-4.43-24c.23,1.26.5,2.51.82,3.75-1,0-2.1-.16-2.45-1.23C107.86,164.46,108.94,163.72,109.91,163.21Zm-.65-4.87c.07.73.14,1.46.24,2.18-3,.48-4.81,3.61-7,5.54a.85.85,0,0,0,.32,1.51c2.78.81,5.67,2.9,8.64,2,.22.7.45,1.39.7,2.07-4.94,1.55-9.52-1.66-13.82-3.85C101.34,164,104.18,159.08,109.26,158.34Zm-4,8.67a.71.71,0,0,1-.86-.64.72.72,0,0,1,.58-.88.74.74,0,0,1,.84.61A.75.75,0,0,1,105.31,167Zm10.88-39.17c-.74-.81-1.53-1.89-.69-3,.7-.89,1.82-.61,2.76-.3C117.53,125.65,116.84,126.73,116.19,127.84Zm3.65-5.45c-2.48-1.88-5.93-.91-8.82-1.09a.85.85,0,0,0-.82,1.3c1.39,2.58,2,6.13,4.68,7.61-.33.65-.65,1.31-1,2-4.55-2.43-5.54-8-7-12.63,4.79-.58,10.2-2,14.31,1.14C120.74,121.25,120.28,121.81,119.84,122.39Zm-6.48,1.32a.72.72,0,1,1-1.22-.76.71.71,0,0,1,1-.25A.74.74,0,0,1,113.36,123.71Zm16-11c-.35-1-.65-2.14.34-2.84s2,0,2.74.64C131.44,111.19,130.41,111.92,129.41,112.7Zm5.39-3.62c-1.65-2.65-5.11-3.11-7.76-4.42a.84.84,0,0,0-1.18.83c.31,3-.46,6.44,1.45,8.93-.54.47-1.08,1-1.6,1.45l0,0c-3.24-4.06-2.06-9.52-1.7-14.4,4.63,1.33,10.08,2.07,12.74,6.54C136.07,108.36,135.43,108.72,134.8,109.08Zm-6.43-1.22-.08,0a.72.72,0,1,1-.75-1.24.71.71,0,0,1,1,.13A.76.76,0,0,1,128.37,107.86Zm18.93-9.44a.72.72,0,0,1,.64-.86.69.69,0,0,1,.86.57.75.75,0,0,1-.6.86A.73.73,0,0,1,147.3,98.42Zm0,5.54c0-1,.16-2.16,1.23-2.53,1.28-.45,2,.72,2.51,1.71C149.81,103.37,148.56,103.64,147.32,104Zm6.38-1.23c-.41-3.14-3.53-4.92-5.45-7.14a.84.84,0,0,0-1.49.34c-.82,2.82-2.9,5.77-2,8.77-.68.22-1.37.45-2,.7-1.51-5,1.68-9.65,3.86-14,3.8,3,8.64,5.89,9.29,11.11C155.13,102.57,154.41,102.64,153.7,102.73Z"/></svg>