<svg id="Layer_1" data-name="Layer 1" xmlns="http://www.w3.org/2000/svg" viewBox="0 0 1200 1200"><defs><style>.cls-1{fill:#040204;}.cls-2{fill:#fff;}.cls-3{fill:none;stroke:#000;stroke-miterlimit:10;stroke-width:5px;}</style></defs><path class="cls-1" d="M516.22,516.22a125.08,125.08,0,0,1,51.49-29.52,111.23,111.23,0,0,1,64.58,0,113.38,113.38,0,0,1,81,81,111.23,111.23,0,0,1,0,64.58,113.38,113.38,0,0,1-81,81,111.23,111.23,0,0,1-64.58,0,113.38,113.38,0,0,1-81-81,111.23,111.23,0,0,1,0-64.58A125.08,125.08,0,0,1,516.22,516.22Z"/><path class="cls-2" d="M600,586.33a14.54,14.54,0,0,1,5.6,1.27,63.55,63.55,0,0,0,10.8-14.45c8.68-16.48,5.06-33-7-52.06l-1.52-2.42A69,69,0,0,1,600,501.86a69,69,0,0,1-7.86,16.81c-.49.79-1,1.6-1.53,2.42-12.07,19-15.69,35.58-7,52.06a63.55,63.55,0,0,0,10.8,14.45A14.54,14.54,0,0,1,600,586.33Zm0-60c4.84-.05,5.44,7.32.68,8.08a11.57,11.57,0,0,0-1.36,0C594.56,533.68,595.16,526.31,600,526.36Zm0,15c4.84,0,5.44,7.32.68,8.11a7.72,7.72,0,0,0-1.36,0C594.56,548.67,595.16,541.33,600,541.35Zm0,15c4.84-.06,5.44,7.32.68,8.08a7.72,7.72,0,0,0-1.36,0C594.56,563.69,595.16,556.31,600,556.37Zm0,15c4.84,0,5.44,7.31.68,8.1a11.57,11.57,0,0,0-1.36,0C594.56,578.67,595.16,571.33,600,571.36Z"/><path class="cls-2" d="M613.67,600a14.54,14.54,0,0,1-1.27,5.6,63.55,63.55,0,0,0,14.45,10.8c16.48,8.68,33,5.06,52.06-7l2.42-1.52A69,69,0,0,1,698.14,600a69,69,0,0,1-16.81-7.86l-2.42-1.52c-19-12.08-35.58-15.7-52.06-7a63.55,63.55,0,0,0-14.45,10.8A14.54,14.54,0,0,1,613.67,600Zm51.89-.68c.76-4.76,8.13-4.16,8.08.68s-7.32,5.44-8.08.68a11.57,11.57,0,0,0,0-1.36Zm-15,0c.79-4.76,8.13-4.16,8.11.68s-7.32,5.44-8.11.68a7.72,7.72,0,0,0,0-1.36Zm-15,0c.76-4.76,8.14-4.16,8.08.68s-7.32,5.44-8.08.68a7.72,7.72,0,0,0,0-1.36Zm-15,0c.79-4.76,8.13-4.16,8.1.68s-7.31,5.44-8.1.68a11.57,11.57,0,0,0,0-1.36Z"/><path class="cls-2" d="M573.15,616.4a63.55,63.55,0,0,0,14.45-10.8,13,13,0,0,1,0-11.2,63.55,63.55,0,0,0-14.45-10.8c-16.48-8.68-33-5.06-52.06,7l-2.42,1.52A69,69,0,0,1,501.86,600a69,69,0,0,1,16.81,7.86l2.42,1.52C540.13,621.46,556.67,625.08,573.15,616.4Zm6.31-17.08a11.57,11.57,0,0,0,0,1.36c-.79,4.76-8.13,4.16-8.1-.68S578.67,594.56,579.46,599.32Zm-15,0a7.72,7.72,0,0,0,0,1.36c-.76,4.76-8.14,4.16-8.08-.68S563.69,594.56,564.45,599.32Zm-15,0a7.72,7.72,0,0,0,0,1.36c-.79,4.76-8.13,4.16-8.11-.68S548.67,594.56,549.46,599.32Zm-15,0a11.57,11.57,0,0,0,0,1.36c-.76,4.76-8.13,4.16-8.08-.68S533.68,594.56,534.44,599.32Z"/><path class="cls-2" d="M600,613.67a14.54,14.54,0,0,1-5.6-1.27,63.55,63.55,0,0,0-10.8,14.45c-8.68,16.48-5.06,33,7,52.06.52.82,1,1.63,1.53,2.42A69,69,0,0,1,600,698.14a69,69,0,0,1,7.86-16.81l1.52-2.42c12.08-19,15.7-35.58,7-52.06a63.55,63.55,0,0,0-10.8-14.45A14.54,14.54,0,0,1,600,613.67Zm0,60c-4.84.05-5.44-7.32-.68-8.08a11.57,11.57,0,0,0,1.36,0C605.44,666.32,604.84,673.69,600,673.64Zm0-15c-4.84,0-5.44-7.32-.68-8.11a7.72,7.72,0,0,0,1.36,0C605.44,651.33,604.84,658.67,600,658.65Zm0-15c-4.84.06-5.44-7.32-.68-8.08a7.72,7.72,0,0,0,1.36,0C605.44,636.31,604.84,643.69,600,643.63Zm0-15c-4.84,0-5.44-7.31-.68-8.1a11.57,11.57,0,0,0,1.36,0C605.44,621.33,604.84,628.67,600,628.64Z"/><path class="cls-2" d="M592.06,603.26a7.43,7.43,0,0,0,4.68,4.68,9.61,9.61,0,0,0,6.52,0,7.43,7.43,0,0,0,4.68-4.68,9.77,9.77,0,0,0,0-6.52,7.43,7.43,0,0,0-4.68-4.68,9.61,9.61,0,0,0-6.52,0,7.43,7.43,0,0,0-4.68,4.68,9.61,9.61,0,0,0,0,6.52Z"/><path class="cls-2" d="M588.71,504.39v-.11c-2-9.61-11.51-13.47-19.28-11.46-5.74,1.47-10.5,6.13-10.5,14,0,15.24,17.76,18.45,26,9.93a14.82,14.82,0,0,0,4.13-9.93A16.6,16.6,0,0,0,588.71,504.39Z"/><path class="cls-2" d="M506.83,641.07c15.24,0,18.45-17.76,9.93-26a14.82,14.82,0,0,0-9.93-4.13,16.6,16.6,0,0,0-2.44.38h-.11c-9.61,2-13.47,11.51-11.46,19.28C494.29,636.31,499,641.07,506.83,641.07Z"/><path class="cls-2" d="M506.83,588.24c15.24,0,18.45-17.77,9.93-26a14.82,14.82,0,0,0-9.93-4.13,16.6,16.6,0,0,0-2.44.38h-.11c-9.61,2-13.47,11.51-11.46,19.29C494.29,583.47,499,588.24,506.83,588.24Z"/><path class="cls-2" d="M574,708.52c15.23,0,18.44-17.77,9.92-26a14.81,14.81,0,0,0-9.92-4.13,17,17,0,0,0-2.45.38h-.11c-9.6,2-13.47,11.51-11.45,19.29C561.46,703.75,566.11,708.52,574,708.52Z"/><path class="cls-2" d="M626,708.52c15.23,0,18.44-17.77,9.93-26a14.86,14.86,0,0,0-9.93-4.13,17,17,0,0,0-2.45.38h-.11c-9.6,2-13.46,11.51-11.45,19.29C613.44,703.75,618.09,708.52,626,708.52Z"/><path class="cls-2" d="M695.61,588.71h.11c9.61-2,13.47-11.51,11.46-19.28-1.47-5.74-6.13-10.5-14-10.5-15.24,0-18.45,17.76-9.93,26a14.82,14.82,0,0,0,9.93,4.13A16.6,16.6,0,0,0,695.61,588.71Z"/><path class="cls-2" d="M641.07,506.83c0-7.88-4.76-12.54-10.5-14-7.77-2-17.32,1.85-19.28,11.46v.11a16.6,16.6,0,0,0-.38,2.44,14.82,14.82,0,0,0,4.13,9.93C623.31,525.28,641.07,522.07,641.07,506.83Z"/><path class="cls-2" d="M693.17,641.07c7.88,0,12.54-4.76,14-10.5,2-7.77-1.85-17.32-11.46-19.28h-.11a16.6,16.6,0,0,0-2.44-.38,14.82,14.82,0,0,0-9.93,4.13C674.72,623.31,677.93,641.07,693.17,641.07Z"/><path class="cls-2" d="M622.06,625.41c4.16,7.5,6.56,15.83,5.74,25,1.77,10.23,5.39,20.16,13.17,27.45,10.39,9.71,27.8,12.6,38.62,1.74s8-28.23-1.74-38.62c-7.29-7.78-17.22-11.4-27.45-13.17-9.16.82-17.49-1.58-25-5.74a71.82,71.82,0,0,1-11.13-7.78A71.82,71.82,0,0,1,622.06,625.41Zm23.58,20.23a17.31,17.31,0,0,1,23.67-.59c7.32,6.74,6.91,17.62.44,24.7-7.08,6.47-18,6.88-24.7-.44A17.31,17.31,0,0,1,645.64,645.64Z"/><path class="cls-2" d="M577.94,574.59c-4.16-7.5-6.56-15.83-5.74-25-1.77-10.23-5.39-20.16-13.17-27.45-10.39-9.71-27.8-12.6-38.62-1.74s-8,28.23,1.74,38.62c7.29,7.78,17.22,11.4,27.44,13.17,9.17-.82,17.5,1.58,25,5.74a71.82,71.82,0,0,1,11.13,7.78A71.82,71.82,0,0,1,577.94,574.59Zm-23.58-20.23a17.31,17.31,0,0,1-23.67.59c-7.32-6.74-6.91-17.62-.44-24.7,7.08-6.47,18-6.88,24.7.44A17.31,17.31,0,0,1,554.36,554.36Z"/><path class="cls-2" d="M574.59,622.06c-7.5,4.16-15.83,6.56-25,5.74-10.22,1.77-20.15,5.39-27.44,13.17-9.71,10.39-12.6,27.8-1.74,38.62s28.23,8,38.62-1.74c7.78-7.29,11.4-17.22,13.17-27.45-.82-9.16,1.58-17.49,5.74-25a71.82,71.82,0,0,1,7.78-11.13A71.82,71.82,0,0,1,574.59,622.06ZM555,669.31c-6.74,7.32-17.62,6.91-24.7.44-6.47-7.08-6.88-18,.44-24.7A17.18,17.18,0,0,1,555,669.31Z"/><path class="cls-2" d="M625.41,577.94c7.5-4.16,15.83-6.56,25-5.74,10.23-1.77,20.16-5.39,27.45-13.17,9.71-10.39,12.6-27.8,1.74-38.62s-28.23-8-38.62,1.74c-7.78,7.29-11.4,17.22-13.17,27.45.82,9.16-1.58,17.49-5.74,25a71.82,71.82,0,0,1-7.78,11.13A71.82,71.82,0,0,1,625.41,577.94Zm19.64-47.25c6.74-7.32,17.62-6.91,24.7-.44,6.47,7.08,6.88,18-.44,24.7a17.18,17.18,0,0,1-24.26-24.26Z"/><path d="M530.25,530.25c-6.47,7.08-6.88,18,.44,24.7A17.18,17.18,0,0,0,555,530.69C548.21,523.37,537.33,523.78,530.25,530.25Zm20.49,20.49c-11.07,11.07-27.29-5.47-16.87-16.87C545.27,523.45,561.81,539.67,550.74,550.74Z"/><path d="M669.75,669.75c6.47-7.08,6.88-18-.44-24.7a17.18,17.18,0,0,0-24.26,24.26C651.79,676.63,662.67,676.22,669.75,669.75Zm-20.49-20.49c11.07-11.07,27.29,5.47,16.87,16.87C654.73,676.55,638.19,660.33,649.26,649.26Z"/><path d="M669.75,554.39c6.47-7.07,6.88-17.95-.44-24.7A17.18,17.18,0,0,0,645.05,554C651.79,561.27,662.67,560.86,669.75,554.39Zm-20.49-20.48c11.07-11.07,27.29,5.46,16.87,16.86C654.73,561.19,638.19,545,649.26,533.91Z"/><path d="M530.69,645.05c-7.32,6.74-6.91,17.62-.44,24.7,7.08,6.47,18,6.88,24.7-.44a17.18,17.18,0,0,0-24.26-24.26Zm3.18,21.08c-10.42-11.4,5.8-27.94,16.87-16.87S545.27,676.55,533.87,666.13Z"/><path class="cls-2" d="M533.87,533.87c-10.42,11.4,5.8,27.94,16.87,16.87S545.27,523.45,533.87,533.87Z"/><path class="cls-2" d="M666.13,533.87c-11.4-10.42-27.94,5.8-16.87,16.87S676.55,545.27,666.13,533.87Z"/><path class="cls-2" d="M666.13,666.13c10.42-11.4-5.8-27.94-16.87-16.87S654.73,676.55,666.13,666.13Z"/><path class="cls-2" d="M533.87,666.13c11.4,10.42,27.94-5.8,16.87-16.87S523.45,654.73,533.87,666.13Z"/><path class="cls-3" d="M499.11,700.89a144.35,144.35,0,0,0,201.78,0,144.35,144.35,0,0,0,0-201.78,144.35,144.35,0,0,0-201.78,0,144.35,144.35,0,0,0,0,201.78Z"/></svg>