<svg id="Layer_1" data-name="Layer 1" xmlns="http://www.w3.org/2000/svg" viewBox="0 0 320.12 307.45"><defs><style>.cls-1{fill:#040204;}.cls-2{fill:#fff;}.cls-3{fill:none;stroke:#000;stroke-miterlimit:10;stroke-width:5px;}</style></defs><path class="cls-1" d="M76.28,70.33a125.06,125.06,0,0,1,51.49-29.51A120.85,120.85,0,0,1,160.06,36a120.91,120.91,0,0,1,32.29,4.79,125.06,125.06,0,0,1,51.49,29.51,125,125,0,0,1,29.51,51.5,120.41,120.41,0,0,1,4.8,32.29,120.39,120.39,0,0,1-4.8,32.28,124.92,124.92,0,0,1-29.51,51.5,125,125,0,0,1-51.49,29.51,120.51,120.51,0,0,1-32.29,4.79,120.45,120.45,0,0,1-32.29-4.79A125,125,0,0,1,76.28,237.9a125.06,125.06,0,0,1-29.52-51.5A120.78,120.78,0,0,1,42,154.12a120.79,120.79,0,0,1,4.79-32.29A125.12,125.12,0,0,1,76.28,70.33Z"/><path class="cls-2" d="M160.06,140.44a14.92,14.92,0,0,1,5.6,1.27,63.51,63.51,0,0,0,10.8-14.44c8.68-16.49,5.06-33-7-52.07l-1.52-2.42A68.79,68.79,0,0,1,160.06,56a68.79,68.79,0,0,1-7.86,16.81c-.49.79-1,1.61-1.53,2.42-12.07,19-15.69,35.58-7,52.07a63.51,63.51,0,0,0,10.8,14.44A14.87,14.87,0,0,1,160.06,140.44Zm0-60c4.84,0,5.44,7.32.68,8.08a7.72,7.72,0,0,0-1.36,0C154.62,87.8,155.22,80.43,160.06,80.48Zm0,15c4.84,0,5.44,7.32.68,8.1a5,5,0,0,1-.68,0,5,5,0,0,1-.68,0C154.62,102.79,155.22,95.44,160.06,95.47Zm0,15c4.84,0,5.44,7.32.68,8.08a11.57,11.57,0,0,0-1.36,0C154.62,117.8,155.22,110.43,160.06,110.48Zm0,15c4.84,0,5.44,7.32.68,8.11a4.94,4.94,0,0,1-.68,0,5,5,0,0,1-.68,0C154.62,132.79,155.22,125.44,160.06,125.47Z"/><path class="cls-2" d="M173.73,154.12a14.73,14.73,0,0,1-1.27,5.6,63.33,63.33,0,0,0,14.45,10.8c16.48,8.68,33,5.06,52.06-7l2.42-1.52a68.59,68.59,0,0,1,16.81-7.86,69,69,0,0,1-16.81-7.87L239,144.73c-19-12.08-35.58-15.69-52.06-7a63.63,63.63,0,0,0-14.45,10.8A14.77,14.77,0,0,1,173.73,154.12Zm51.89-.68c.76-4.76,8.13-4.17,8.07.68s-7.31,5.44-8.07.68a11.57,11.57,0,0,0,0-1.36Zm-15,0c.79-4.76,8.13-4.17,8.11.68s-7.32,5.44-8.11.68a4.86,4.86,0,0,1,0-.68A5,5,0,0,1,210.6,153.44Zm-15,0c.76-4.76,8.14-4.17,8.08.68s-7.32,5.44-8.08.68a1.9,1.9,0,0,1,0-.68A1.93,1.93,0,0,1,195.61,153.44Zm-15,0c.78-4.76,8.13-4.17,8.1.68s-7.32,5.44-8.1.68a5,5,0,0,1,0-.68A5,5,0,0,1,180.6,153.44Z"/><path class="cls-2" d="M133.21,170.52a63.29,63.29,0,0,0,14.44-10.8,13.1,13.1,0,0,1,0-11.21,63.59,63.59,0,0,0-14.44-10.8c-16.48-8.67-33-5.06-52.06,7l-2.42,1.52a69.06,69.06,0,0,1-16.82,7.87A68.65,68.65,0,0,1,78.73,162l2.42,1.52C100.19,175.58,116.73,179.2,133.21,170.52Zm6.31-17.08a5,5,0,0,1,0,.68,4.86,4.86,0,0,1,0,.68c-.79,4.76-8.13,4.16-8.1-.68S138.73,148.68,139.52,153.44Zm-15,0a1.93,1.93,0,0,1,0,.68,1.9,1.9,0,0,1,0,.68c-.77,4.76-8.14,4.16-8.08-.68S123.74,148.68,124.51,153.44Zm-15,0c0,.24,0,.46,0,.68s.05.43,0,.68c-.79,4.76-8.14,4.16-8.11-.68S108.73,148.68,109.52,153.44Zm-15,0a1.72,1.72,0,0,1,0,.68,1.7,1.7,0,0,1,0,.68c-.76,4.76-8.13,4.16-8.08-.68S93.74,148.68,94.5,153.44Z"/><path class="cls-2" d="M160.06,167.79a14.68,14.68,0,0,1-5.6-1.27A63.51,63.51,0,0,0,143.66,181c-8.68,16.49-5.06,33,7,52.07.52.81,1,1.63,1.53,2.42a69,69,0,0,1,7.86,16.81,69,69,0,0,1,7.86-16.81l1.52-2.42c12.08-19,15.7-35.58,7-52.07a63.51,63.51,0,0,0-10.8-14.44A14.73,14.73,0,0,1,160.06,167.79Zm0,60c-4.84.06-5.44-7.32-.68-8.08a7.72,7.72,0,0,0,1.36,0C165.5,220.43,164.9,227.81,160.06,227.75Zm0-15c-4.84,0-5.44-7.31-.68-8.1a5,5,0,0,1,.68,0,5,5,0,0,1,.68,0C165.5,205.45,164.9,212.79,160.06,212.76Zm0-15c-4.84.05-5.44-7.32-.68-8.08a7.72,7.72,0,0,0,1.36,0C165.5,190.43,164.9,197.8,160.06,197.75Zm0-15c-4.84,0-5.44-7.32-.68-8.11.24,0,.46,0,.68,0s.43-.05.68,0C165.5,175.44,164.9,182.79,160.06,182.76Z"/><path class="cls-2" d="M152.12,157.38a7.51,7.51,0,0,0,4.67,4.68,9.8,9.8,0,0,0,6.53,0,7.49,7.49,0,0,0,4.68-4.68,9.8,9.8,0,0,0,0-6.53,7.49,7.49,0,0,0-4.68-4.68,9.8,9.8,0,0,0-6.53,0,7.51,7.51,0,0,0-4.67,4.68,9.64,9.64,0,0,0,0,6.53Z"/><path class="cls-2" d="M148.77,58.5v-.11c-2-9.6-11.51-13.46-19.29-11.45-5.74,1.47-10.5,6.12-10.5,14,0,15.23,17.77,18.44,26,9.93A14.86,14.86,0,0,0,149.15,61,17,17,0,0,0,148.77,58.5Z"/><path class="cls-2" d="M66.89,195.19c15.24,0,18.44-17.76,9.93-26A14.84,14.84,0,0,0,66.89,165a18.46,18.46,0,0,0-2.45.38h-.1c-9.61,2-13.47,11.51-11.46,19.29C54.35,190.43,59,195.19,66.89,195.19Z"/><path class="cls-2" d="M66.89,142.35c15.24,0,18.44-17.76,9.93-26a14.84,14.84,0,0,0-9.93-4.14,18.46,18.46,0,0,0-2.45.38h-.1c-9.61,2-13.47,11.51-11.46,19.29C54.35,137.59,59,142.35,66.89,142.35Z"/><path class="cls-2" d="M134.06,262.63c15.23,0,18.44-17.76,9.92-26a14.82,14.82,0,0,0-9.92-4.14,18.21,18.21,0,0,0-2.45.38h-.11c-9.6,2-13.47,11.51-11.45,19.29C121.51,257.87,126.17,262.63,134.06,262.63Z"/><path class="cls-2" d="M186,262.63c15.23,0,18.44-17.76,9.93-26a14.86,14.86,0,0,0-9.93-4.14,18.46,18.46,0,0,0-2.45.38h-.11c-9.6,2-13.46,11.51-11.45,19.29C173.5,257.87,178.15,262.63,186,262.63Z"/><path class="cls-2" d="M255.67,142.83h.11c9.6-2,13.47-11.51,11.45-19.29-1.46-5.74-6.12-10.5-14-10.5-15.24,0-18.45,17.76-9.93,26a14.82,14.82,0,0,0,9.93,4.14A18.31,18.31,0,0,0,255.67,142.83Z"/><path class="cls-2" d="M201.13,61c0-7.89-4.76-12.54-10.5-14-7.78-2-17.32,1.85-19.28,11.45v.11A17,17,0,0,0,171,61a14.86,14.86,0,0,0,4.13,9.93C183.37,79.39,201.13,76.18,201.13,61Z"/><path class="cls-2" d="M253.23,195.19c7.88,0,12.54-4.76,14-10.5,2-7.78-1.85-17.33-11.45-19.29h-.11a18.31,18.31,0,0,0-2.44-.38,14.82,14.82,0,0,0-9.93,4.14C234.78,177.43,238,195.19,253.23,195.19Z"/><path class="cls-2" d="M182.12,179.52c4.16,7.51,6.56,15.83,5.74,25,1.77,10.23,5.39,20.16,13.16,27.45,10.4,9.71,27.8,12.59,38.63,1.74s8-28.24-1.74-38.63c-7.29-7.78-17.22-11.4-27.45-13.16-9.16.81-17.49-1.58-25-5.74a72.51,72.51,0,0,1-11.13-7.78A71.73,71.73,0,0,1,182.12,179.52Zm23.58,20.24a17.3,17.3,0,0,1,23.67-.6c7.32,6.75,6.91,17.63.43,24.7-7.07,6.48-18,6.88-24.69-.43A17.31,17.31,0,0,1,205.7,199.76Z"/><path class="cls-2" d="M138,128.71c-4.16-7.51-6.56-15.83-5.74-25-1.77-10.23-5.39-20.16-13.17-27.45-10.39-9.71-27.8-12.59-38.62-1.74s-8,28.24,1.74,38.63c7.29,7.78,17.22,11.4,27.44,13.17,9.17-.82,17.5,1.57,25,5.73a72.51,72.51,0,0,1,11.13,7.78A70.59,70.59,0,0,1,138,128.71Zm-23.59-20.24a17.29,17.29,0,0,1-23.66.6c-7.32-6.75-6.91-17.63-.44-24.7,7.08-6.47,18-6.88,24.7.43A17.3,17.3,0,0,1,114.41,108.47Z"/><path class="cls-2" d="M134.65,176.18c-7.5,4.16-15.83,6.55-25,5.74-10.22,1.76-20.15,5.38-27.44,13.16-9.71,10.39-12.6,27.8-1.74,38.63s28.23,8,38.62-1.74c7.78-7.29,11.4-17.22,13.17-27.45-.82-9.17,1.58-17.49,5.74-25a71.06,71.06,0,0,1,7.78-11.12A72.51,72.51,0,0,1,134.65,176.18ZM115,223.43c-6.74,7.31-17.62,6.91-24.7.43-6.47-7.07-6.88-18,.44-24.7A17.18,17.18,0,0,1,115,223.43Z"/><path class="cls-2" d="M185.47,132.05c7.5-4.16,15.83-6.55,25-5.73,10.23-1.77,20.16-5.39,27.45-13.17,9.71-10.39,12.6-27.8,1.74-38.63s-28.23-8-38.63,1.74c-7.77,7.29-11.39,17.22-13.16,27.45.82,9.17-1.58,17.49-5.74,25a71.26,71.26,0,0,1-7.78,11.12A72.51,72.51,0,0,1,185.47,132.05ZM205.11,84.8c6.74-7.31,17.62-6.9,24.69-.43,6.48,7.07,6.89,17.95-.43,24.7A17.18,17.18,0,0,1,205.11,84.8Z"/><path d="M90.31,84.37c-6.47,7.07-6.88,17.95.44,24.7A17.18,17.18,0,0,0,115,84.8C108.27,77.49,97.39,77.9,90.31,84.37Zm20.49,20.48C99.73,115.92,83.51,99.39,93.93,88,105.33,77.57,121.87,93.78,110.8,104.85Z"/><path d="M229.8,223.86c6.48-7.07,6.89-18-.43-24.7a17.18,17.18,0,0,0-24.26,24.27C211.85,230.74,222.73,230.34,229.8,223.86Zm-20.48-20.48c11.07-11.07,27.29,5.47,16.87,16.86C214.79,230.66,198.25,214.45,209.32,203.38Z"/><path d="M229.8,108.51c6.48-7.08,6.89-18-.43-24.7a17.18,17.18,0,0,0-24.26,24.26C211.85,115.39,222.73,115,229.8,108.51ZM209.32,88c11.07-11.07,27.29,5.47,16.87,16.87C214.79,115.31,198.25,99.09,209.32,88Z"/><path d="M90.75,199.16c-7.32,6.75-6.91,17.63-.44,24.7,7.08,6.48,18,6.88,24.7-.43a17.18,17.18,0,0,0-24.26-24.27Zm3.18,21.08c-10.42-11.39,5.8-27.93,16.87-16.86S105.33,230.66,93.93,220.24Z"/><path class="cls-2" d="M93.93,88c-10.42,11.4,5.8,27.93,16.87,16.86S105.33,77.57,93.93,88Z"/><path class="cls-2" d="M226.19,88c-11.4-10.42-27.94,5.79-16.87,16.86S236.61,99.39,226.19,88Z"/><path class="cls-2" d="M226.19,220.24c10.42-11.39-5.8-27.93-16.87-16.86S214.79,230.66,226.19,220.24Z"/><path class="cls-2" d="M93.93,220.24c11.4,10.42,27.94-5.79,16.87-16.86S83.51,208.85,93.93,220.24Z"/><path class="cls-3" d="M59.17,255a147.63,147.63,0,0,0,100.89,41.11A147.63,147.63,0,0,0,261,255a147.67,147.67,0,0,0,41.11-100.89A147.67,147.67,0,0,0,261,53.22a147.58,147.58,0,0,0-100.89-41.1A147.58,147.58,0,0,0,59.17,53.22a147.58,147.58,0,0,0-41.11,100.9A147.58,147.58,0,0,0,59.17,255Z"/></svg>