<svg id="Layer_1" data-name="Layer 1" xmlns="http://www.w3.org/2000/svg" viewBox="0 0 1200 1200"><defs><style>.cls-1{fill:#1d0d1c;}.cls-2{fill:#100b0c;}</style></defs><path class="cls-1" d="M545.67,469.72A137.52,137.52,0,0,0,489,513a144.75,144.75,0,0,0-18.35,31.76,3.16,3.16,0,0,0-1.15,2.8c-13.5,34.06-13.88,72.49,0,106.61a3.35,3.35,0,0,0,.54,1.29,136,136,0,0,0,11.88,22.31c17.33,26.28,42.7,46.88,72.67,57.08a143.6,143.6,0,0,0,46.49,7.5v-4.94a140.89,140.89,0,0,1-49.78-9.68c4.78-10.46,10.31-21,18.62-29,8.49-8.21,19.45-11.92,31.16-11.91v-9.67h0a2,2,0,0,1-2-2,2,2,0,0,1,2-2h0v-3.92a5.06,5.06,0,0,0-4.51,2.75,6.34,6.34,0,0,0-.7,2.88,5.84,5.84,0,0,0-.77-1.71,5.13,5.13,0,0,0-5-2.32,5,5,0,0,0-4.09,3.46,6.33,6.33,0,0,0-.2,3.31,6.52,6.52,0,0,0-1.67-2.17,5.05,5.05,0,0,0-8.41,3.78,6.52,6.52,0,0,0,.57,2.71,5.82,5.82,0,0,0-1.75-1.39,5.05,5.05,0,0,0-7.39,5.45,6.47,6.47,0,0,0,1,2.49l0,0a6.24,6.24,0,0,0-2.63-2.17,6.32,6.32,0,0,0-3.43-.34v0a6.47,6.47,0,0,0,2.44-1,5.15,5.15,0,0,0,2.24-5.26,5.07,5.07,0,0,0-3.47-3.84,5.74,5.74,0,0,0-2.31-.28,6.37,6.37,0,0,0,2.39-1.6,5.06,5.06,0,0,0-3.44-8.55,6.21,6.21,0,0,0-2.61.37,6.52,6.52,0,0,0,2.16-2.41,5.06,5.06,0,0,0-5.53-7.33,6,6,0,0,0-1.83.67,6.47,6.47,0,0,0,1.49-2.34,5.06,5.06,0,0,0-6.51-6.51,6.46,6.46,0,0,0-2.35,1.49,6,6,0,0,0,.67-1.84,5.06,5.06,0,0,0-7.33-5.53,6.6,6.6,0,0,0-2.4,2.17,6.23,6.23,0,0,0,.37-2.61,5.15,5.15,0,0,0-3.27-4.52,5.09,5.09,0,0,0-5.29,1.08,6.16,6.16,0,0,0-1.59,2.39,6.13,6.13,0,0,0-.23-2.16,5,5,0,0,0-8.94-1.65,6.39,6.39,0,0,0-1.18,2.7h-.06a6.23,6.23,0,0,0-.33-3.43,6.31,6.31,0,0,0-2.18-2.63l0,0a6.39,6.39,0,0,0,2.49,1A5,5,0,0,0,521,627a6,6,0,0,0-1.39-1.75,6.47,6.47,0,0,0,2.7.56,5.05,5.05,0,0,0,3.79-8.4,6.4,6.4,0,0,0-2.18-1.67,6.69,6.69,0,0,0,3.17-.14,5.09,5.09,0,0,0,3.61-4.16,5,5,0,0,0-2.06-4.8,5.87,5.87,0,0,0-2-1,6.39,6.39,0,0,0,2.9-.7,5.06,5.06,0,0,0,0-9,6.49,6.49,0,0,0-2.88-.69,6,6,0,0,0,1.71-.78,5.12,5.12,0,0,0,2.32-5,5.06,5.06,0,0,0-3.46-4.1,6.43,6.43,0,0,0-3.31-.2,6.36,6.36,0,0,0,2.17-1.67,5.05,5.05,0,0,0-3.79-8.4,6.47,6.47,0,0,0-2.7.56A6,6,0,0,0,521,573.9a5,5,0,0,0-5.45-7.38,6.18,6.18,0,0,0-2.49,1l0,0a6.31,6.31,0,0,0,2.18-2.63,6.23,6.23,0,0,0,.33-3.43h0a6.26,6.26,0,0,0,1,2.43,5.13,5.13,0,0,0,5.25,2.25,5.07,5.07,0,0,0,3.85-3.48,5.9,5.9,0,0,0,.28-2.31,6.16,6.16,0,0,0,1.59,2.39,5.06,5.06,0,0,0,8.56-3.44,6.23,6.23,0,0,0-.37-2.61,6.52,6.52,0,0,0,2.4,2.17,5.06,5.06,0,0,0,7.33-5.53,6.15,6.15,0,0,0-.67-1.84,6.46,6.46,0,0,0,2.35,1.49,5.06,5.06,0,0,0,6.51-6.51,6.6,6.6,0,0,0-1.49-2.35,5.76,5.76,0,0,0,1.83.68,5.06,5.06,0,0,0,5.53-7.33,6.41,6.41,0,0,0-2.16-2.4,6.36,6.36,0,0,0,2.61.36,5.06,5.06,0,0,0,3.44-8.55,6.26,6.26,0,0,0-2.39-1.6,6.12,6.12,0,0,0,2.16-.22,5.06,5.06,0,0,0,1.65-8.95,6.51,6.51,0,0,0-2.7-1.18v0a5.88,5.88,0,0,0,6-2.51l0,0a6.47,6.47,0,0,0-1,2.49,5.05,5.05,0,0,0,7.39,5.45,5.82,5.82,0,0,0,1.75-1.39,6.52,6.52,0,0,0-.57,2.71,5.05,5.05,0,0,0,8.41,3.78,6.4,6.4,0,0,0,1.67-2.18,6.68,6.68,0,0,0,.14,3.17,5.06,5.06,0,0,0,9,1.56,6.11,6.11,0,0,0,1-2,6.23,6.23,0,0,0,.7,2.9,5.11,5.11,0,0,0,4.51,2.79v-4h0a2,2,0,0,1,0-4h0v-9.67c-11.72,0-22.66-3.69-31.16-11.91-8.31-8-13.84-18.56-18.62-29a132.61,132.61,0,0,1,49.78-9.21v-5.54a146.67,146.67,0,0,0-53.18,10.43A3.29,3.29,0,0,0,545.67,469.72Zm45.27,205H591a2,2,0,0,1,0,4h-.09a2,2,0,0,1,0-4Zm-10,3.63H581a2,2,0,0,1,0,4H581a2,2,0,0,1,0-4Zm-8.58,5.36h.09a2,2,0,1,1,0,4h-.09a2,2,0,0,1,0-4Zm18.56-161.48H591a2,2,0,0,1,0,4h-.09a2,2,0,0,1,0-4Zm-10-3.63H581a2,2,0,0,1,0,4H581a2,2,0,0,1,0-4Zm-8.58-5.36h.09a2,2,0,0,1,0,4h-.09a2,2,0,1,1,0-4Zm-8.94,177.24.18,0,.11,0a2.07,2.07,0,0,1,1.32,1.86,2,2,0,0,1-2,2,2.09,2.09,0,0,1-1.51-.63,2,2,0,0,1,0-2.81A1.92,1.92,0,0,1,563.44,690.47Zm-1-10.92.07.07a2,2,0,0,1-2.82,2.81l-.06-.06a2,2,0,0,1,2.81-2.82Zm-5.08-9.84a2,2,0,0,1,2.81,0l.06.06a2,2,0,0,1-2.81,2.81l-.06-.06A2,2,0,0,1,557.38,669.71Zm-4.5-9.63a2,2,0,0,1,2.82,0l.06.06A2,2,0,1,1,553,663l-.07-.06A2,2,0,0,1,552.88,660.08Zm-6.06-8.23a2,2,0,0,1,2.81,0l.06.07a2,2,0,1,1-2.81,2.81l-.06-.06A2,2,0,0,1,546.82,651.85Zm-8.23-6.06a2,2,0,0,1,2.82,0l.06.06a2,2,0,1,1-2.81,2.81l-.07-.06A2,2,0,0,1,538.59,645.79Zm-9.63-4.5a2,2,0,0,1,2.82,0l.06.07a2,2,0,0,1-2.81,2.81l-.07-.06A2,2,0,0,1,529,641.29ZM519.12,639a2,2,0,0,1,2.81,0l.06.06a2,2,0,1,1-2.81,2.82l-.06-.07A2,2,0,0,1,519.12,639ZM540,661.54c8.33,8.31,13.44,18.73,13.61,30.6.17,11.53-3.37,22.84-7.38,33.58a133,133,0,0,1-47.24-34,136.69,136.69,0,0,1-23.11-36.47c10.73-4,22-7.52,33.52-7.36C521.29,648.09,531.67,653.22,540,661.54Zm-32.87-23a2,2,0,0,1,2-2,1.92,1.92,0,0,1,1.69,1l.08.15.06.12a2.07,2.07,0,0,1-.39,2.25,2,2,0,0,1-2.81,0A2.13,2.13,0,0,1,507.14,638.49Zm10.71-9.33a2,2,0,0,1-4,0v-.09a2,2,0,0,1,4,0Zm9-18.64v.08a2,2,0,0,1-4,0v-.08a2,2,0,0,1,4,0Zm1.53-10.11v.09a2,2,0,0,1-4,0v-.09a2,2,0,0,1,4,0Zm-3.52-12.09a2,2,0,0,1,2,2v.09a2,2,0,0,1-4,0v-.09A2,2,0,0,1,524.84,588.32Zm-5.62-8a2,2,0,0,1,4,0v.09a2,2,0,0,1-4,0Zm0,40.18a2,2,0,0,1,4,0v.09a2,2,0,1,1-4,0Zm-5.35-48.75a2,2,0,0,1,4,0v.09a2,2,0,0,1-4,0Zm.84,28.71c0,11.71-3.69,22.65-11.91,31.15-8,8.3-18.53,13.83-29,18.6-12.26-31.75-12.85-67.67-.3-99.64,10.55,4.8,21.17,10.35,29.27,18.73S514.72,588.75,514.71,600.46Zm-7.57-38a2.14,2.14,0,0,1,.62-1.51,2,2,0,0,1,2.81,0,1.94,1.94,0,0,1,.51,1.9c0,.06,0,.11-.05.17s0,.07,0,.11a2.07,2.07,0,0,1-1.86,1.32A2,2,0,0,1,507.14,562.42Zm14.85-.59-.06.06a2,2,0,0,1-2.81-2.81l.06-.06a2,2,0,1,1,2.81,2.81Zm9.85-2.28-.06.07A2,2,0,1,1,529,556.8l.07-.06a2,2,0,0,1,2.81,2.81Zm9.63-4.49-.06.06a2,2,0,0,1-2.82-2.81l.07-.06a2,2,0,1,1,2.81,2.81Zm8.22-6.06-.06.06a2,2,0,0,1-2.81-2.82l.06-.06a2,2,0,1,1,2.81,2.82Zm11.86-41.87a2.09,2.09,0,0,1,1.51-.63,2,2,0,0,1,2,2,1.92,1.92,0,0,1-1,1.69.39.39,0,0,1-.14.08l-.12.07a2.09,2.09,0,0,1-2.25-.39A2,2,0,0,1,561.55,507.13Zm-1.9,11.41.06-.06a2,2,0,1,1,2.82,2.81l-.07.07a2,2,0,0,1-2.81-2.82Zm-2.27,9.85.06-.06a2,2,0,0,1,2.81,2.81l-.06.06a2,2,0,0,1-2.81-2.81ZM555.76,538a2,2,0,0,1,0,2.81l-.06.06a2,2,0,0,1-2.82-2.81L553,538A2,2,0,0,1,555.76,538Zm-2.14-29.19c-.17,11.88-5.29,22.27-13.61,30.6s-18.74,13.45-30.6,13.62c-11.6.16-23-3.41-33.78-7.45a130.4,130.4,0,0,1,6.2-12.26,141.27,141.27,0,0,1,64.45-58C550.27,486,553.79,497.27,553.62,508.77Z"/><path class="cls-1" d="M656,731.2a137.37,137.37,0,0,0,56.69-43.32,144.33,144.33,0,0,0,18.36-31.76,3.15,3.15,0,0,0,1.15-2.8c13.49-34.05,13.88-72.49,0-106.61a3.41,3.41,0,0,0-.54-1.29,136.38,136.38,0,0,0-11.88-22.31c-17.33-26.27-42.7-46.88-72.67-57.08a144,144,0,0,0-46.49-7.64v5.54a140.47,140.47,0,0,1,49.78,9.22c-4.78,10.47-10.31,21-18.62,29-8.49,8.21-19.45,11.92-31.16,11.91v9.67h0a2,2,0,1,1,0,4h0v4a5.1,5.1,0,0,0,4.51-2.79,6.47,6.47,0,0,0,.7-2.88,6,6,0,0,0,.77,1.71,5.13,5.13,0,0,0,5,2.32,5.06,5.06,0,0,0,4.1-3.46,6.43,6.43,0,0,0,.2-3.31,6.49,6.49,0,0,0,1.67,2.17,5.06,5.06,0,0,0,8.41-3.79,6.63,6.63,0,0,0-.57-2.7,5.82,5.82,0,0,0,1.75,1.39,5,5,0,0,0,7.38-5.45,6.24,6.24,0,0,0-1-2.49l0,0a5.85,5.85,0,0,0,6.05,2.5v.05a6.33,6.33,0,0,0-2.43,1,5.06,5.06,0,0,0,1.23,9.1,5.9,5.9,0,0,0,2.31.28,6.15,6.15,0,0,0-2.39,1.6,5.09,5.09,0,0,0-1.08,5.28,5.15,5.15,0,0,0,4.52,3.27,6.21,6.21,0,0,0,2.61-.37,6.49,6.49,0,0,0-2.16,2.4,5.05,5.05,0,0,0,5.52,7.33,5.79,5.79,0,0,0,1.84-.67,6.46,6.46,0,0,0-1.49,2.35,5.06,5.06,0,0,0,6.51,6.51,6.6,6.6,0,0,0,2.35-1.49,6,6,0,0,0-.67,1.84,5.05,5.05,0,0,0,7.33,5.52,6.49,6.49,0,0,0,2.4-2.16,6.21,6.21,0,0,0-.37,2.61,5.06,5.06,0,0,0,8.55,3.44,6.15,6.15,0,0,0,1.6-2.39,6.36,6.36,0,0,0,.22,2.16,5.1,5.1,0,0,0,3.91,3.62,5,5,0,0,0,5-2,6.39,6.39,0,0,0,1.18-2.7h.06a5.85,5.85,0,0,0,2.5,6l0,0a6.24,6.24,0,0,0-2.49-1,5,5,0,0,0-5.45,7.38,6,6,0,0,0,1.39,1.75,6.47,6.47,0,0,0-2.7-.57,5.06,5.06,0,0,0-3.79,8.41,6.4,6.4,0,0,0,2.18,1.67,6.69,6.69,0,0,0-3.17.14,5.09,5.09,0,0,0-3.61,4.15,5,5,0,0,0,2.05,4.81,6,6,0,0,0,2,1,6.26,6.26,0,0,0-2.9.7,5,5,0,0,0,0,9,6.45,6.45,0,0,0,2.88.69,5.73,5.73,0,0,0-1.71.78,5.12,5.12,0,0,0-2.32,5,5.07,5.07,0,0,0,3.46,4.1,6.43,6.43,0,0,0,3.31.2,6.36,6.36,0,0,0-2.17,1.67,5.05,5.05,0,0,0,3.79,8.4,6.47,6.47,0,0,0,2.7-.57,5.82,5.82,0,0,0-1.39,1.75,5.06,5.06,0,0,0,5.45,7.39,6.55,6.55,0,0,0,2.49-1l0,0a6.3,6.3,0,0,0-2.17,2.63,6.22,6.22,0,0,0-.33,3.43h-.05a6.37,6.37,0,0,0-1-2.44,5.14,5.14,0,0,0-5.25-2.24,5.07,5.07,0,0,0-3.85,3.47,5.92,5.92,0,0,0-.28,2.31,6.15,6.15,0,0,0-1.6-2.39,5.11,5.11,0,0,0-5.28-1.08,5.18,5.18,0,0,0-3.27,4.52,6.21,6.21,0,0,0,.37,2.61,6.57,6.57,0,0,0-2.4-2.16,5.05,5.05,0,0,0-7.33,5.53,5.51,5.51,0,0,0,.67,1.83,6.57,6.57,0,0,0-2.35-1.48,5,5,0,0,0-6.51,6.5,6.3,6.3,0,0,0,1.49,2.35,6,6,0,0,0-1.84-.67,5.05,5.05,0,0,0-5.52,7.33,6.49,6.49,0,0,0,2.16,2.4,6.37,6.37,0,0,0-2.61-.37,5.06,5.06,0,0,0-3.44,8.56,6.16,6.16,0,0,0,2.39,1.59,6.13,6.13,0,0,0-2.16.23,5,5,0,0,0-1.65,8.94,6.39,6.39,0,0,0,2.7,1.18v.06a5.88,5.88,0,0,0-6.05,2.51l0,0a6.2,6.2,0,0,0,1-2.48,5.05,5.05,0,0,0-7.38-5.46,6,6,0,0,0-1.75,1.4,6.72,6.72,0,0,0,.57-2.71,5.06,5.06,0,0,0-8.41-3.79,6.34,6.34,0,0,0-1.67,2.19,6.73,6.73,0,0,0-.14-3.18,5.06,5.06,0,0,0-9-1.55,6,6,0,0,0-1,2,6.42,6.42,0,0,0-.7-2.9,4.65,4.65,0,0,0-4.5-2.74v3.91h0a2,2,0,1,1,0,4h0v9.65c11.72,0,22.65,3.72,31.16,11.93,8.31,8,13.84,18.56,18.62,29a133.44,133.44,0,0,1-49.78,9.66v4.94a146.58,146.58,0,0,0,53.18-10.29A3.21,3.21,0,0,0,656,731.2Zm-45.26-205h-.09a2,2,0,1,1,0-4h.09a2,2,0,1,1,0,4Zm10-3.63h-.09a2,2,0,0,1,0-4h.09a2,2,0,0,1,0,4Zm8.57-5.35h-.08a2,2,0,0,1,0-4h.08a2,2,0,0,1,0,4ZM610.76,678.71h-.09a2,2,0,1,1,0-4h.09a2,2,0,0,1,0,4Zm10,3.63h-.09a2,2,0,0,1,0-4h.09a2,2,0,0,1,0,4Zm8.57,5.35h-.08a2,2,0,1,1,0-4h.08a2,2,0,1,1,0,4Zm9-177.23-.18,0-.11,0a2.07,2.07,0,0,1-1.32-1.86,2,2,0,0,1,2-2,2.13,2.13,0,0,1,1.51.62,2,2,0,0,1,0,2.81A1.93,1.93,0,0,1,638.26,510.46Zm1,10.91-.06-.06A2,2,0,1,1,642,518.5l.06.06a2,2,0,0,1-2.82,2.81Zm5.09,9.85a2,2,0,0,1-2.81,0l-.06-.06a2,2,0,0,1,2.81-2.82l.06.07A2,2,0,0,1,644.32,531.22Zm4.5,9.63a2,2,0,0,1-2.82,0l-.06-.06a2,2,0,0,1,2.81-2.82l.07.07A2,2,0,0,1,648.82,540.85Zm6.06,8.22a2,2,0,0,1-2.81,0L652,549a2,2,0,1,1,2.81-2.81l.06.06A2,2,0,0,1,654.88,549.07Zm8.22,6.07a2,2,0,0,1-2.81,0l-.06-.06a2,2,0,0,1,2.81-2.82l.06.07A2,2,0,0,1,663.1,555.14Zm9.63,4.49a2,2,0,0,1-2.81,0l-.06-.06a2,2,0,1,1,2.81-2.81l.06.06A2,2,0,0,1,672.73,559.63Zm9.85,2.28a2,2,0,0,1-2.81,0l-.06-.07a2,2,0,1,1,2.81-2.81l.06.06A2,2,0,0,1,682.58,561.91Zm-20.89-22.52c-8.33-8.32-13.44-18.74-13.61-30.6-.17-11.53,3.37-22.84,7.38-33.59a133,133,0,0,1,47.24,34,136.45,136.45,0,0,1,23.1,36.48c-10.72,4-22,7.52-33.51,7.35C680.41,552.83,670,547.71,661.69,539.39Zm32.87,23.05a2,2,0,0,1-2,2,1.92,1.92,0,0,1-1.69-1s0-.09-.08-.14l-.06-.12a2.06,2.06,0,0,1,.38-2.25,2,2,0,0,1,2.82,0A2.13,2.13,0,0,1,694.56,562.44Zm-10.71,9.32a2,2,0,0,1,4,0v.09a2,2,0,0,1-4,0Zm-9,18.65v-.09a2,2,0,1,1,4,0v.09a2,2,0,1,1-4,0Zm-1.53,10.11v-.09a2,2,0,0,1,4,0v.09a2,2,0,0,1-4,0Zm3.51,12.09a2,2,0,0,1-2-2v-.09a2,2,0,1,1,4,0v.09A2,2,0,0,1,676.85,612.61Zm5.63,8a2,2,0,0,1-2,2,2,2,0,0,1-2-2v-.09a2,2,0,0,1,4,0Zm0-40.18a2,2,0,0,1-4,0v-.09a2,2,0,1,1,4,0Zm5.35,48.75a2,2,0,0,1-4,0v-.09a2,2,0,0,1,4,0ZM687,600.47c0-11.72,3.69-22.65,11.91-31.16,8-8.3,18.53-13.82,29-18.59,12.26,31.74,12.85,67.67.29,99.64C717.62,645.56,707,640,698.9,631.63S687,612.18,687,600.47Zm7.57,38a2.12,2.12,0,0,1-.62,1.5,2,2,0,0,1-2.82,0,1.94,1.94,0,0,1-.5-1.89c0-.06,0-.11,0-.17a.36.36,0,0,1,0-.11,2,2,0,0,1,1.86-1.32A2,2,0,0,1,694.56,638.51Zm-14.85.59.06-.07a2,2,0,0,1,2.81,2.82l-.06.06a2,2,0,0,1-2.81-2.81Zm-9.85,2.27.06-.06a2,2,0,1,1,2.81,2.81l-.06.07a2,2,0,0,1-2.81-2.82Zm-9.63,4.5.06-.07a2,2,0,0,1,2.81,2.82l-.06.06a2,2,0,0,1-2.81-2.81ZM652,651.93l.06-.06a2,2,0,0,1,2.81,2.81l-.06.07a2,2,0,0,1-2.81,0A2,2,0,0,1,652,651.93ZM640.15,693.8a2.13,2.13,0,0,1-1.51.62,2,2,0,0,1-2-2,2,2,0,0,1,1-1.7l.14-.08.12-.06a2.07,2.07,0,0,1,2.25.39A2,2,0,0,1,640.15,693.8Zm1.9-11.42-.06.07a2,2,0,0,1-2.82-2.82l.06-.06a2,2,0,1,1,2.82,2.81Zm2.27-9.84-.06.06a2,2,0,1,1-2.81-2.82l.06-.06a2,2,0,0,1,2.81,2.82Zm1.62-9.57a2,2,0,0,1,0-2.82l.06-.06a2,2,0,1,1,2.82,2.82l-.07.06A2,2,0,0,1,645.94,663Zm2.14,29.18c.17-11.88,5.29-22.26,13.61-30.6s18.73-13.44,30.6-13.61c11.6-.17,23,3.41,33.77,7.45a125.76,125.76,0,0,1-6.2,12.26,141.25,141.25,0,0,1-64.44,58C651.43,714.93,647.91,703.65,648.08,692.15Z"/><path class="cls-2" d="M613.51,575.52c4.51-7.8,9.86-14.9,14.7-22.46,3.39-5.3,7.35-14.38-.47-17.83-.1-.05-.21-.07-.31-.11l-.32-.16c-7.69-3-11.44,5.62-12.83,11.65-2.06,8.94-3.24,18-5.62,26.86C607.89,576.36,612,578.15,613.51,575.52Z"/><path class="cls-2" d="M627.28,592.09c8.89-2.37,17.92-3.56,26.86-5.62,6-1.39,14.69-5.13,11.65-12.83,0-.11-.11-.21-.16-.32s-.06-.2-.1-.31c-3.45-7.82-12.53-3.85-17.83-.46-7.57,4.83-14.67,10.18-22.46,14.69A2.66,2.66,0,0,0,627.28,592.09Z"/><path class="cls-2" d="M654.14,614.31c-8.94-2.06-18-3.24-26.86-5.62-2.89-.77-4.68,3.33-2,4.85,7.79,4.51,14.89,9.86,22.46,14.7,5.3,3.39,14.38,7.35,17.83-.47,0-.1.06-.2.1-.31a2.39,2.39,0,0,0,.16-.32C668.83,619.45,660.17,615.7,654.14,614.31Z"/><path class="cls-2" d="M613.51,625.27a2.66,2.66,0,0,0-4.85,2c2.38,8.89,3.56,17.93,5.62,26.87,1.39,6,5.14,14.68,12.83,11.64a1.91,1.91,0,0,0,.32-.16l.31-.1c7.82-3.45,3.86-12.53.47-17.83C623.37,640.16,618,633.06,613.51,625.27Z"/><path class="cls-2" d="M603,590c.55-10.9,3.22-21.47,4.61-32.26.68-5.29.7-15.58-7.26-15.58v50.39h0A2.37,2.37,0,0,0,603,590Z"/><path class="cls-2" d="M609.55,595c8-7.23,17.19-12.76,25.71-19.27,4.29-3.28,12-10.68,6.25-16.44s-13,1.73-16.23,6c-6.6,8.6-12.18,17.93-19.48,26a2.65,2.65,0,0,0,3.75,3.75Z"/><path class="cls-2" d="M658.56,600.39c0-8-10.29-7.94-15.59-7.26-10.79,1.39-21.36,4.06-32.26,4.61a2.65,2.65,0,0,0,0,5.3c10.9.55,21.47,3.23,32.26,4.61C648.27,608.33,658.56,608.35,658.56,600.39Z"/><path class="cls-2" d="M641.51,641.54c5.64-5.64-1.73-13-6-16.23-8.59-6.6-17.93-12.17-26-19.48a2.66,2.66,0,0,0-3.75,3.76c7.23,8,12.76,17.18,19.27,25.7C628.35,639.58,635.75,647.3,641.51,641.54Z"/><path class="cls-2" d="M607.62,643c-1.39-10.79-4.06-21.36-4.61-32.26a2.37,2.37,0,0,0-2.65-2.54v50.39C608.32,658.59,608.3,648.3,607.62,643Z"/><path class="cls-2" d="M602.16,605.6a5.54,5.54,0,0,0,3.48-6.82,5.73,5.73,0,0,0-5.28-3.92v11A5.37,5.37,0,0,0,602.16,605.6Z"/><path class="cls-2" d="M588.19,625.26c-4.51,7.8-9.86,14.89-14.7,22.46-3.39,5.3-7.35,14.38.47,17.83a1.86,1.86,0,0,0,.31.1,2.4,2.4,0,0,0,.32.17c7.69,3,11.44-5.62,12.83-11.65,2.06-8.94,3.24-18,5.62-26.87C593.81,624.42,589.71,622.63,588.19,625.26Z"/><path class="cls-2" d="M574.42,608.69c-8.89,2.37-17.92,3.55-26.87,5.61-6,1.39-14.68,5.14-11.64,12.83a1.59,1.59,0,0,0,.16.32c0,.11.06.21.1.32,3.45,7.81,12.53,3.85,17.83.46,7.57-4.83,14.67-10.19,22.46-14.7C579.07,612,577.33,607.91,574.42,608.69Z"/><path class="cls-2" d="M547.55,586.47c9,2.06,18,3.24,26.87,5.61,2.89.78,4.67-3.32,2-4.84-7.79-4.51-14.89-9.87-22.46-14.7-5.3-3.39-14.38-7.35-17.83.46,0,.11-.07.21-.1.32a1.59,1.59,0,0,0-.16.32C532.87,581.33,541.52,585.08,547.55,586.47Z"/><path class="cls-2" d="M588.19,575.51a2.66,2.66,0,0,0,4.85-2c-2.38-8.9-3.56-17.93-5.62-26.87-1.39-6-5.14-14.69-12.83-11.65a2.4,2.4,0,0,0-.32.17,1.86,1.86,0,0,0-.31.1c-7.82,3.45-3.86,12.53-.47,17.83C578.33,560.62,583.68,567.71,588.19,575.51Z"/><path class="cls-2" d="M598.69,610.73c-.55,10.9-3.23,21.47-4.61,32.27-.68,5.29-.7,15.58,7.26,15.58V608.19h0A2.37,2.37,0,0,0,598.69,610.73Z"/><path class="cls-2" d="M592.14,605.83c-8,7.22-17.18,12.75-25.7,19.27-4.29,3.28-12,10.68-6.25,16.44s13-1.73,16.23-6c6.6-8.59,12.17-17.92,19.48-26a2.66,2.66,0,0,0-3.76-3.75Z"/><path class="cls-2" d="M543.14,600.38c0,8,10.29,8,15.59,7.27,10.79-1.39,21.36-4.07,32.26-4.61a2.66,2.66,0,0,0,0-5.31c-10.9-.54-21.47-3.22-32.26-4.61C553.43,592.44,543.14,592.42,543.14,600.38Z"/><path class="cls-2" d="M560.19,559.23c-5.64,5.64,1.72,13,6,16.23,8.59,6.61,17.93,12.18,26,19.48a2.66,2.66,0,0,0,3.76-3.75c-7.23-8-12.76-17.19-19.27-25.7C573.35,561.2,565.94,553.48,560.19,559.23Z"/><path class="cls-2" d="M594.08,557.77c1.38,10.8,4.06,21.37,4.61,32.27a2.37,2.37,0,0,0,2.65,2.54V542.19C593.38,542.19,593.4,552.48,594.08,557.77Z"/><path class="cls-2" d="M599.54,595.18a5.53,5.53,0,0,0-3.48,6.81,5.71,5.71,0,0,0,5.28,3.93v-11A5.13,5.13,0,0,0,599.54,595.18Z"/></svg>