<svg id="Layer_1" data-name="Layer 1" xmlns="http://www.w3.org/2000/svg" viewBox="0 0 1197.29 1080"><defs><style>.cls-1{stroke:#000;stroke-miterlimit:10;}</style></defs><path class="cls-1" d="M1064.07,485.48c.55-1.29,1-2.39,1.47-3.48q18.49-43.92-1.88-87a98.65,98.65,0,0,0-32.18-38.23c-1.75-1.26-2.45-2.41-2-4.7,1.67-8.42,2.88-16.94,4.62-25.34,3.32-16.08,8.12-31.67,16.47-46a15.6,15.6,0,0,0,.81-1.92c-1.34-.1-2.35-.21-3.37-.24a142,142,0,0,1-22.06-2.24c-17.09-3.23-33.26-9.33-49.46-15.38a3.53,3.53,0,0,1-2.52-3.42c-.26-2.73-.56-5.46-1-8.16a103.44,103.44,0,0,0-91.33-84.48c-2.05-.21-3.18-.92-3.87-2.92-3.11-9-6.55-17.93-9.51-27-4.88-14.93-8.13-30.18-7.86-46a11.72,11.72,0,0,0-.23-1.63c-.84.38-1.49.59-2.06.93A131.72,131.72,0,0,1,827.42,101c-13.22,3.75-26.74,6.06-40.27,8.31-2.35.39-3.64,0-5.06-2a103.35,103.35,0,0,0-126.5-33.51,24.89,24.89,0,0,1-2.35.83c-20.64-16.83-41.19-33.57-54.58-57.78-13.47,24.36-34.12,41.13-54.73,57.9-23.39-10.76-47.24-13.22-71.85-6.6s-44,20.72-58.72,41.56c-13.18-2.09-26.22-4.26-39.05-7.56A144.16,144.16,0,0,1,337,87.05c0,1.94.1,3.24,0,4.52-.61,6.65-.91,13.35-2,19.92-2.86,17.66-9.33,34.25-15.53,50.91a3.52,3.52,0,0,1-3.43,2.51c-3.2.33-6.39.77-9.55,1.37a103,103,0,0,0-80.75,77.25c-1.3,5.43-2,11-3.09,16.71C198,269.68,173.26,279,145.54,278.6a141.22,141.22,0,0,1,15.13,37.23A364.54,364.54,0,0,1,168.18,355c-21.07,14.91-35.08,34.41-41.6,59s-4,48.48,6.7,71.48c-16.94,20.76-33.67,41.31-57.9,54.7,24.35,13.45,41.12,34.11,57.91,54.74-10.77,23.33-13.17,47.21-6.6,71.81s20.73,44,41.55,58.74c-4.19,26.43-8.49,52.64-22.75,76.34,27.81-.45,52.57,8.94,77.46,18.45,2.38,25.41,12.09,47.35,30.1,65.39s40.14,27.88,65.75,30.27c3.35,9.45,6.84,18.71,9.91,28.11,5,15.38,8.56,31.06,8.29,47.39a15.82,15.82,0,0,0,.23,1.81c23.62-14.15,49.81-18.47,76-22.57,2.83,3.49,5.32,6.85,8.09,10,17.92,20.16,40.41,31.64,67.14,34.58a99.78,99.78,0,0,0,52.4-8.33c1.82-.81,3.28-1.41,5.16.26,8.14,7.19,16.62,14,24.63,21.34,10.7,9.8,20.06,20.78,27.2,33.52a7.19,7.19,0,0,0,.94,1.07c.37-.54.67-.91.9-1.32a130,130,0,0,1,18.62-24.89c9.91-10.58,21.09-19.72,32.17-29,2.15-1.8,3.78-2,6.35-.9a99.84,99.84,0,0,0,55.61,7.79q43.25-6.24,69.39-41.36c1.57-2.12,3.09-2.84,5.66-2.33,8.77,1.73,17.62,3.11,26.37,4.95,15.59,3.29,30.67,8.07,44.49,16.25.48.29,1,.46,2.1.94-.45-13.74,1.78-26.73,5.29-39.51a373.34,373.34,0,0,1,13.07-37.76c.83-.1,1.42-.18,2-.24,13.68-1.43,26.78-5,38.8-11.7,31.5-17.66,49.82-44.37,54.28-80.35.29-2.39,1.08-3.79,3.52-4.61,8.36-2.81,16.59-6,25-8.8,15.59-5.17,31.51-8.64,48.07-8.42a4.58,4.58,0,0,0,1.19-.4c-14.08-23.41-18.3-49.55-22.54-75.9,20.77-14.68,34.92-34.07,41.54-58.68s4.2-48.47-6.56-71.89c8.45-10.44,16.85-20.68,26.16-30.14a142.4,142.4,0,0,1,31.7-24.64C1097.55,526.64,1080.81,506.07,1064.07,485.48Zm-37.51-114.86c.81-3.82,1.39-7.68,2.15-11.94,38.17,25.53,54.18,79.89,33.35,123.36a15.2,15.2,0,0,1-1.77-1.52c-2.09-2.45-4-5-6.23-7.38-1.48-1.62-1.63-3.1-.89-5.16,4.13-11.5,5.35-23.4,4.73-35.56-.81-15.64-6.69-29.37-15.67-41.95a83.09,83.09,0,0,0-14-15.22A4.22,4.22,0,0,1,1026.56,370.62Zm6.42,79.23c.28-2.09.58-4.41.89-6.74,3.37-.81,6.38.08,9.38.59,3.16.54,6.27,1.38,9.4,2.09,1.15.25,2.1.75,1.9,2.12-.48,3.26-1,6.5-1.55,9.73Zm19.36,10.21c-.71,2.42-1.45,5-2.38,8.13l-13.7-14.71C1039.88,453.32,1047.75,456.54,1052.34,460.06Zm-4.13-52.81a45.06,45.06,0,0,1,4.12,10.56l-20.28,5.71c-.92-2.64-1.69-4.86-2.45-7.06Zm-19.49,7.34-3.24-5.85L1041.62,395l6,10.29A68.16,68.16,0,0,1,1028.72,414.59Zm24.19,4.78c.63,3.88,1.21,7.42,1.82,11.16l-21,1.46c-.42-2.49-.81-4.79-1.24-7.35Zm1.75,13.39v11.69l-20.47-3.78v-6.81C1041,432.75,1047.65,431.66,1054.66,432.76ZM1025.52,377l6.37,6.1a59.69,59.69,0,0,1-11.14,14.61C1022.42,390.4,1023.9,384,1025.52,377Zm7.94,7.61,7.11,8.84a94.7,94.7,0,0,1-16.06,13.75l-4.53-5.8Zm-3.67,62.61-10.69-8.54c2-7.92.29-14.9-5.52-20.63,1.69-4.39,3.26-8.49,4.85-12.64C1027.14,412.47,1033.59,434.1,1029.79,447.17ZM941.56,196.22c17,16.65,31.08,47,29,62.24-4.19-1.55-8.29-3.11-12.42-4.59-1.75-.62-1.68-2.16-1.94-3.5A91.74,91.74,0,0,0,949.62,230c-12-26.21-32.88-41-60.46-47.15-2.61-.58-4.23-1.4-5-4.15-1-3.53-2.46-6.92-3.95-11C904.39,170.17,924.66,179.63,941.56,196.22Zm-44.25-7.86c3.53.6,7,2.23,10.57,4a87.56,87.56,0,0,1-7,19.8l-6.75-2.89C895.22,202.13,896.23,195.47,897.31,188.36Zm-4.16,16c-1.23-1.55-4.92-12.63-6.21-18.88l7.76,1.84C895.65,191.86,895,198.93,893.15,204.4Zm21.77,17.49L910,217.63l11.66-17.52c2.84,2.3,5.74,4.67,8.76,7.13Zm16.83-13.31c2.42,3,4.77,5.89,7,8.71L921.31,229l-4.24-5Zm-23.44,7.9L902.62,213l7.11-20L920,199A69.33,69.33,0,0,1,908.31,216.48Zm17.1,27.64L912,242c-2.07-7.74-7.15-12.84-15.1-15.08-.72-4.55-1.41-9-2.13-13.5C907.75,216.24,923.13,232.45,925.41,244.12Zm-2.94-13.49A72.14,72.14,0,0,1,940,218.94l6,10.28-20,7.13C924.91,234.57,923.79,232.78,922.47,230.63Zm24.31.4c1.43,3.61,2.79,7.08,4.16,10.55l-21.29,3.26-2.82-6.76A86.16,86.16,0,0,1,946.78,231Zm4.7,13c.58,2.42,1.19,5,1.95,8.2l-19.61-6C937.91,244.3,945.35,243.34,951.48,244Zm-36.54,19.65c15.66.51,30.68,4.19,45.44,9.11,17.92,6,35.06,13.81,52.2,21.63,2.16,1,4.29,2,6.64,3.09-.65,7.07-1.12,13.61-1.89,20.12-1.26,10.65-2.51,21.32-4.14,31.92-2.6,16.79-6.58,33.23-13.67,48.78-6.14,13.45-14.46,25.25-26.37,34.26a72.87,72.87,0,0,1-17.44,9.76,5.64,5.64,0,0,1-2.16.38c10.76-8.48,13.74-19.1,9.08-32.16,1.1.18,2,.28,2.86.47,9,2,17.44-1.53,21.82-9.17s3.32-16.64-2.95-23.47c-.56-.61-1.08-1.23-1.93-2.2,10.09-2,17.22-7.1,19.4-17.31,2.15-10-2.1-17.57-10.57-23.59,1.66-.61,2.76-1,3.82-1.39,9.81-4.05,17-14.24,14.41-27.79a8.36,8.36,0,0,0-2.87-4.79,24.15,24.15,0,0,0-31.53-.79l-2.28,1.85c-1.79-21.71-26.73-29.35-40.15-12.74-4.78-12.37-10.17-16.8-20.28-16.67-9.3.11-14.94,5-19.4,17.05-3.91-4.88-8.52-8.5-14.54-10A27,27,0,0,0,861,281.86l-.24-.73c1-.81,2-1.66,3-2.42C879,267.38,896.22,263.08,914.94,263.69ZM953.79,619.5c-.17-3.29-.65-6.56-1-9.78l21.92-4.53c4.37,10.17-6.88,23.47-20.89,24.43C953.83,626.08,954,622.78,953.79,619.5ZM774.59,895c3.11.81,5.73,1.44,8.3,2.23a2.49,2.49,0,0,1,1.44,1.37c2.28,6.5,3.14,13.1,1.14,20.41l-12.45-3A36.25,36.25,0,0,0,774.59,895Zm-.79-33.95c2.55,2.16,5.1,4.27,7.59,6.46a3.16,3.16,0,0,1,1,1.73c.34,2.94.54,5.89.82,9.12a32.21,32.21,0,0,1-12.78-6.14C771.63,868.37,772.75,864.6,773.8,861.09Zm-4.49,9.23c-2.69-.8-5.11-3.27-7.52-7.57l8.6-11C773.61,858.17,772,864.26,769.31,870.32Zm14.63-1a4.93,4.93,0,0,1,5.23,2.67c1.45,2.54,3.07,5,4.62,7.45l-.43.69-8.43-1.05C784.58,875.62,784.26,872.5,783.94,869.3Zm6.29.15c-.46-1.11.15-2.67.34-4.74l8.66,6.17c-1.3,2.85-2.4,5.28-3.5,7.71l-.84,0C793.3,875.54,791.55,872.59,790.23,869.45Zm1.7-5.67a3.75,3.75,0,0,1-1-2.12c-.65-3.1-1.21-6.23-1.81-9.43l11.15,2.63c1.16,4.59.38,9.16-.72,14.36C796.67,867.21,794.24,865.57,791.93,863.78Zm-9.33-19.12,14.39-2,3.43,10.22C792.83,852.54,786.85,850.6,782.6,844.66Zm-10.07-4.13c-1.46,3.9-2.59,7.62-4.24,11.1a25.57,25.57,0,0,1-7.43,9.2c-3-2.82-2.92-7.07-5.23-9.7l8.19-10.56c5.66.55,10.31-1.57,12.41-7.33l13.13-1.67,6.49,9.08C787.72,843.78,780.13,843.35,772.53,840.53Zm-12.16,47a3.7,3.7,0,0,1,1,2.22,33.22,33.22,0,0,1-4.08,20.7,82.56,82.56,0,0,1-14.11-7.28,33.36,33.36,0,0,0,9-22.32C755.25,883.32,757.87,885.35,760.37,887.51ZM750.52,884a31.69,31.69,0,0,1-8.46,18c-3.1-1.23-7.41-4.4-10.64-7.89a53.89,53.89,0,0,0,13.74-21.88C748.4,875.62,751.31,878.69,750.52,884Zm-20.83,9L723,885.85c3-4.56,5.75-8.74,8.54-12.9.38-.55,1-1.32,1.51-1.34,3.29-.13,6.58-.06,9.89-.06C742.27,878.12,735.68,888.89,729.69,893Zm-7.64-8.41-4-5.69c1.91-2.49,3.63-4.89,5.54-7.13a3.46,3.46,0,0,1,2.4-1,31.33,31.33,0,0,1,4.68.74Zm.78,5.51c2.53,2.83,5.28,5.45,7.94,8.16-8,9-26.32,5.4-31.7-6l16.85-10.57C718.05,884.33,720.32,887.32,722.83,890.11Zm11.56,10.78A112.51,112.51,0,0,0,763.29,916c-3.08,7.58-8.13,11.9-15.76,12.35a16.36,16.36,0,0,1-15.36-9.24A16.58,16.58,0,0,1,734.39,900.89Zm24.36,10.29a39.91,39.91,0,0,0,4.25-21.8c3.16,1.55,5.92,2.85,8.63,4.27a2.76,2.76,0,0,1,1.33,1.53,30.41,30.41,0,0,1-1.57,20.44Zm7.87,6.56,36,7.83c-1.62,10.46-12.43,16.52-20.95,15C771.27,938.63,763.9,928.41,766.62,917.74Zm20.62,1.72c1-7.31,1.06-14.26-1.52-21.51,3.23.25,5.82.37,8.37.7.53.07,1.18.81,1.41,1.38,2.9,7.06,5.74,14.15,8.57,21.23.08.18,0,.44-.09,1Zm9.37-20.71,7.72-.86L819,923.56c-4.3.48-8-.48-11.62-1a2.43,2.43,0,0,1-1.52-1.33C802.77,913.92,799.79,906.56,796.61,898.75ZM822,821.37c4.5-.23,9-.44,14-.68,1,3.33,1.92,6.36,2.81,9.31-5.63,2.92-18.14,3.59-25.68.79,1-1.54,1.89-3,2.82-4.46s1.93-3,3-4.63C819.89,821.59,821,821.43,822,821.37Zm-2.34-1.47,2.33-5.54,10.38-1.52c.85,1.83,1.73,3.71,2.79,6C829.91,819.89,825.06,819.85,819.67,819.9Zm6.24,14.1c4.24-.1,8.45-1,13.16-1.59A38,38,0,0,1,840.55,845c-6.49,2.1-12.54,1.15-18.65-.86-5.4-1.78-7.78-5.76-9.12-11.1C817.45,833.41,821.69,834.1,825.91,834Zm8.17,43A32.11,32.11,0,0,1,820,869.58a4.32,4.32,0,0,1-1.63-4.05c.3-2.57.36-5.18.54-8.06,3.69,1.73,6.81,3.51,10.14,4.66s6.88,1.67,10.85,2.59c-.77,4-1.54,8.16-2.37,12.52A23.31,23.31,0,0,1,834.08,877Zm3,2c-1.25,4.3-2.39,8.25-3.63,12.52a34.41,34.41,0,0,1-17.13-11.4,3.52,3.52,0,0,1-.27-2.59c.5-2.31,1.21-4.59,2-7.61A35.15,35.15,0,0,0,837.11,879Zm-3.33-17a33.1,33.1,0,0,1-13-5.64,5.11,5.11,0,0,1-2.42-4.05c-.23-2.81-.83-5.58-1.36-8.92a33.38,33.38,0,0,0,23.86,3.35c.56,5.52-.38,10.5-.65,15.58C837.88,863.15,835.79,862.35,833.78,862ZM815,881.08a41,41,0,0,0,18,11.84l-6.28,16.71-15.71-20.22C812.33,886.72,813.54,884.17,815,881.08Zm11.08,30-5,11.58a21.57,21.57,0,0,1-1.64-2.06c-4.16-7.07-8.25-14.18-12.47-21.21-1-1.65-1.21-2.93.18-4.44a47.6,47.6,0,0,0,3.06-4.27Zm-19.39,14.62,15.65,1.71,6.44-14.62c5.83,3.08,9.58,7.46,11.3,13.5,1.89,6.65.45,12.67-3.47,18.31-2.47,3.56-6.08,4.16-9.79,4-11.45-.62-19.2-8.91-20.32-19.49A22.5,22.5,0,0,1,806.69,925.75Zm23.8-16.16,11.23-35.09c8.74,1.29,15,11.83,13,21.74C852.46,906.87,842.12,912.64,830.49,909.59Zm11.86-39.33c.51-5.58,1.19-10.9,1.45-16.24s.05-10.45.05-15.71c4.87-1.76,11.55.67,15.59,5.73a17.13,17.13,0,0,1,1,19.16A16.52,16.52,0,0,1,842.35,870.26Zm.84-36.5c-2.4-7.33-4.72-14.41-7-21.5l17.31-9C860.13,811.45,856.47,828.93,843.19,833.76ZM598.65,880.87c-188.26,0-340.88-152.61-340.88-340.87S410.39,199.13,598.65,199.13,939.52,351.74,939.52,540,786.91,880.87,598.65,880.87ZM579.09,888c3.72-1.6,7-2.89,10.22-4.46a3.16,3.16,0,0,1,3.61,0c3.88,2.63,7.81,2.54,11.67,0,1.27-.85,2.28-.63,3.61,0,3.19,1.55,6.51,2.84,10,4.35.29,3.14.62,6.75,1,10.87-8.74-1.07-14.89-5.59-20.45-12-5.4,6.31-11.68,10.68-19.88,12.07C577.58,894.92,579.84,891.36,579.09,888Zm84.5,13.47a29.67,29.67,0,0,1-2.17,10,45.72,45.72,0,0,1-22.31-12.06c2.74-2.74,6.55-3.11,9.34-5.59Zm-13.46-8.44c1.66-1.32,2.78-2.33,4-3.15a2.43,2.43,0,0,1,1.93-.31c2.86,1.09,5.66,2.33,8.81,3.67-.29,2.28-.54,4.24-.86,6.78Zm-1.37,15.2c3.73,2,7.81,3.41,12.07,5.22a56.08,56.08,0,0,1-4.94,11.83c-8.42-2.51-14.79-7.23-18.6-14.87-1.43-2.88-.2-6.22.26-9.71C641.66,903.54,645,906.23,648.76,908.27Zm5.92,18.22c-.92,3.47-5,10-8.45,13.49a33.54,33.54,0,0,1-13.87-16.59,2.58,2.58,0,0,1,0-1.71c1.15-3.11,2.37-6.19,3.75-9.73A32.65,32.65,0,0,0,654.68,926.49Zm-9,14.94-8.8,10.27a30.2,30.2,0,0,1-11.48-17,2.74,2.74,0,0,1,.32-2c1.66-2.6,3.43-5.12,5.42-8A38.5,38.5,0,0,0,645.69,941.43Zm-10.27,11-8.72,9.29a23.82,23.82,0,0,1-2.18-2.07,37.41,37.41,0,0,1-7.16-15.06,3.6,3.6,0,0,1,1.29-4.08c1.74-1.42,3.34-3,5.35-4.87A33.68,33.68,0,0,0,635.42,952.45Zm-35.7-29.31c-.13-2.39.8-4,3.13-5.44l4.14,9-7.28,5.4c-.14-1.46-.29-2.22-.27-3C599.51,927.15,599.82,925.13,599.72,923.14Zm7.84-17.53,8.52,8a34.44,34.44,0,0,1-8,11.83c-1.43-3.07-2.72-5.7-3.83-8.4a3.78,3.78,0,0,1,.13-2.36C605.36,911.68,606.46,908.72,607.56,905.61Zm-1.8-9.83,13.14,5.33a26.2,26.2,0,0,1-2.2,10.59C610.83,907.76,606.47,903.17,605.76,895.78Zm-5.86,56.91,6.29-2.94a4.32,4.32,0,0,1,.64,1.21c1,6.95,1.89,13.92,2.94,20.86.36,2.39-.16,4.06-2.29,5.41-2.41,1.52-4.61,3.36-7.58,5.56Zm8.13-4,7.64-5.15a39.49,39.49,0,0,0,9.55,19.14c-4.39,3.95-8.71,7.52-13.73,11.33C610.28,965.12,609.16,957,608,948.7Zm-10.31-17.06a20.42,20.42,0,0,1-7.11-5.22c1.39-3,2.67-5.78,4-8.72,2.27,1.39,3.26,3,3.12,5.37C597.6,925.76,597.72,928.47,597.72,931.64Zm-17.37-20.12c-.63-3.07-1.27-6-1.82-9-.23-1.26.5-1.89,1.68-2.31,3.77-1.34,7.51-2.79,11.2-4.18C592.21,901.67,585.72,909.27,580.35,911.52Zm12.88,3.36a3.64,3.64,0,0,1,0,2.35c-1.11,2.61-2.38,5.15-3.81,8.18a34.58,34.58,0,0,1-8-11.79l8.51-8C591.05,908.74,592.2,911.79,593.23,914.88Zm-11.35,28.69,7.59,5.17c-1.11,8.18-2.23,16.36-3.45,25.28-5-3.8-9.33-7.37-13.7-11.31A40.9,40.9,0,0,0,581.88,943.57Zm5.8,30c.94-7.88,2.05-15.74,3.18-24l6.76,3.13v30.17c-3.4-2.55-6.13-4.47-8.69-6.59A3.61,3.61,0,0,1,587.68,973.56Zm-8-32.13a2.92,2.92,0,0,1,.56,2.25,35.29,35.29,0,0,1-9.13,18l-9.44-9a34.12,34.12,0,0,0,11.85-17.36C575.8,937.61,577.82,939.44,579.67,941.43ZM572,935.16c-1.25,5.82-5.86,12.48-11.46,16.38-2.23-2.55-4.37-4.93-6.45-7.36-.69-.8-1.25-1.7-2.1-2.86a37.57,37.57,0,0,0,14.32-16.64c2.08,3.06,4,5.72,5.68,8.46A3.16,3.16,0,0,1,572,935.16Zm-6.94-11.57a33.5,33.5,0,0,1-14.16,16.58c-1.61-2.3-3-4.21-4.32-6.2-1.42-2.19-2.72-4.46-4.09-6.74,3.66-2.06,7.4-3.67,10.52-6.08s5.69-5.66,8.53-8.58c1.13,2.87,2.37,5.91,3.5,9A3.1,3.1,0,0,1,565.05,923.59Zm-6.51-10.07c-4.4,5.66-9.7,9.73-17,11.72a59.7,59.7,0,0,1-4.94-11.78c4.21-1.78,8.29-3.15,12-5.18s7.12-4.72,11.29-7.54C560.44,905.33,561.72,909.43,558.54,913.52Zm-22.69-1.88c-.79-3.46-1.51-6.64-2.26-9.94L548.74,894l10,5.12A46.87,46.87,0,0,1,535.85,911.64ZM533.37,900c-.28-2.58-.49-4.55-.72-6.66,3-1.27,5.76-2.53,8.61-3.61a3,3,0,0,1,2.24.38,45.56,45.56,0,0,1,3.77,2.89C542.65,895.62,538.26,897.72,533.37,900Zm.65,16.2c-10,4.81-24.72-7.66-24.48-20.81l19.93-.79c.52,3.28.95,7,1.71,10.63S533.06,912.51,534,916.15Zm1.8,4.17a108.65,108.65,0,0,0,17.3,27.35c-4.69,5.43-14,5.67-18.53,3.65a17.15,17.15,0,0,1-9.85-15.39C524.75,929.54,529.25,922.46,535.82,920.32Zm19.31,30.59L582.81,976c-4.55,5-10.36,7.34-17.12,6.23-7.44-1.22-12.54-5.78-14.71-13.05C549,962.42,550.61,956.32,555.13,950.91Zm31,27.2,12.7,9.19L611.46,978a20.2,20.2,0,0,1,3.82,13.66,20.56,20.56,0,0,1-14.36,18.21,6.46,6.46,0,0,1-3.46.31C581.9,1005.81,578.45,987.93,586.1,978.11Zm28.52-2L642.28,951a18.29,18.29,0,0,1,4.33,17.84,17.59,17.59,0,0,1-14.42,13.36C625.27,983.47,619.39,981,614.62,976.07Zm29.62-28.15c7.07-8.52,13.12-17.44,17.41-27.63,6.43,2.14,11.25,9.12,11.09,16.06-.15,6.5-4.28,13-10.26,15.07C656,953.72,649.89,952.69,644.24,947.92Zm19.46-31.45c1.52-7.36,3-14.73,4.54-21.94l19.47.81C689.51,907.06,675,919.91,663.7,916.47ZM377.45,821.6a2.2,2.2,0,0,1,1.54.69c1.82,2.74,3.53,5.55,5.47,8.63a43.64,43.64,0,0,1-25.91-.57c1.06-3.43,2-6.47,3-9.68C367,821,372.25,821.26,377.45,821.6ZM362.35,819l2.72-6.14,10.39,1.51,2.28,5.38A76.56,76.56,0,0,1,362.35,819Zm8.4,90.65-6.17-16.26c3.36-1.77,6.63-3.19,9.55-5.12s5.54-4.4,8.49-6.8c1.26,2.62,2.49,5.16,3.82,7.94Zm16.41-18.79c4.72,6.12,4.72,6.12,1.29,12-3.25,5.54-6.47,11.09-9.72,16.62-.59,1-1.26,2-2.25,3.52-1.78-4.13-3.36-7.78-5.1-11.79Zm-9-33.68c.92,3.58.68,6.86.84,10.09a2.45,2.45,0,0,1-.8,1.51,28.92,28.92,0,0,1-16.89,8.45,5.85,5.85,0,0,1-1.42-.29c-.77-3.93-1.57-8-2.47-12.54C365,863.71,371.89,861.66,378.21,857.15Zm-21.65-9.8c4.18,0,8.21.42,12.1-.12s7.74-2.05,11.65-3.15c-.46,3.13-.9,6.52-1.48,9.89a3.23,3.23,0,0,1-1.21,1.65,33.76,33.76,0,0,1-20.13,7.09A78,78,0,0,1,356.56,847.35Zm22.81,22.59c.84,3,1.68,5.47,2.17,8a3.84,3.84,0,0,1-.89,2.79A35.53,35.53,0,0,1,364,891.5c-1.25-4.35-2.38-8.29-3.61-12.53A35.48,35.48,0,0,0,379.37,869.94Zm-2.31-26.44c-6.47,2.59-12.95,3.65-20,1.59-.49-4.46.33-8.66,1.5-13.14,8.71,2.71,17.28,2.67,26.37.66C383.31,837.52,381.9,841.56,377.06,843.5Zm-22.67-10c-13.44-3.9-16.8-22.15-10.42-30.38l17.38,9.12C359.05,819.31,356.72,826.42,354.39,833.53Zm-.39,4.7a115.86,115.86,0,0,0,1.45,31.95c-7.36,1.74-14.11-.75-18.06-6.38a17.2,17.2,0,0,1-.2-18.6C340.12,840.58,347.51,836.29,354,838.23Zm2,36.08c1.69,5.85,3.27,11.77,5.13,17.6s4.06,11.63,6.1,17.43a18.18,18.18,0,0,1-24.05-11.82C340.15,887.59,345.94,876.8,356,874.31Zm12.88,38.78,6.28,14.26,15.4-1.55c1,2.51.36,4.61-.13,6.64-2.81,11.77-14.62,18.21-24.74,15.56a6.89,6.89,0,0,1-3.09-1.57C351.57,935.34,357.06,917.86,368.85,913.09Zm19.48,9.9c-3.05.21-6.08.61-9.94,1,5-9.16,9.9-17.49,14.74-26.06l7.4.74a20.68,20.68,0,0,1-.65,2.52c-2.53,6.28-5.17,12.52-7.62,18.83A4.07,4.07,0,0,1,388.33,923Zm72.5-51.58c3.36-.52,5.18,1.07,6.74,3.82,2,3.5,4.4,6.77,6.93,10.6l-7,7.52a45.4,45.4,0,0,1-13.34-21.53,10.88,10.88,0,0,1,2.37-.59C458,871.21,459.46,871.63,460.83,871.41Zm-1.2-3.41h3.06v.14h-2.91Zm7.66,4.28c3.43-2.32,5.52-2,7.69.86.71,1,1.44,1.89,2.18,2.82s1.47,1.82,2.33,2.89c-1.27,1.81-2.47,3.53-4,5.79Zm-.84,22.05-10.32,8a24.92,24.92,0,0,1-2.18-2,29.37,29.37,0,0,1-7.09-19c-.09-4.06,2.88-6.45,5.6-9.86A50.29,50.29,0,0,0,466.45,894.33Zm-12,8.77a80.17,80.17,0,0,1-14.13,7.3,31.26,31.26,0,0,1-4.38-14.71c-.09-1.18,0-2.37,0-3.56a6.54,6.54,0,0,1,3.22-6.26c2.07-1.27,3.8-3.1,6.19-5.11C445.63,889.51,448.45,896.76,454.43,903.1ZM437,861.23a32.06,32.06,0,0,1-11.41-21,33,33,0,0,1-16.76,2.36c-2.21-.29-4.37-1-7.17-1.59,1.28-2,2.24-3.54,3.3-5s2.26-3,3.26-4.33l12.4,1.55c1.75,2,3.27,4.69,5.57,6.07s5.21,1.25,8.17,1.85c1,1.47,2.06,3.33,3.36,5s2.84,3.19,4.16,4.65C440.29,854.11,438.76,857.4,437,861.23ZM424.52,916l-12.67,3.08c-.38-2.7-1.1-4.92-.92-7.06.37-4.24,1.21-8.43,1.91-12.63a2.89,2.89,0,0,1,2.61-2.49c2.31-.48,4.57-1.18,7.36-1.92A36.63,36.63,0,0,0,424.52,916Zm-15.37-45.23c.94-1.37,2.48-1.59,4.38-1.55-.3,3.19-.59,6.22-.94,9.81l-8.49,1-.44-.71C405.48,876.52,407.24,873.61,409.15,870.81Zm-6.64,7.94c-2.4-2.26-2.92-5-4-8l8-5.67a5.54,5.54,0,0,1,0,6.27C405.06,873.64,403.91,876.11,402.51,878.75Zm11.69-.21c.3-3.46.5-6.3.83-9.12a3,3,0,0,1,.94-1.79c2.56-2.25,5.18-4.42,7.74-6.57L427,872.21C423.6,875.12,419.36,877,414.2,878.54Zm12.88-26.84,8.48,10.86a17.26,17.26,0,0,1-7.25,8.07C425.62,864.48,423.81,858.42,427.08,851.7Zm-12.23-7c-4.15,5.91-10.14,7.78-17.23,8.25.06-4,1.73-7.07,3-10.26Zm-6.45,7.57c-.57,3.2-1.1,6.33-1.7,9.44a3.31,3.31,0,0,1-.81,1.87c-2.41,1.86-4.92,3.59-7.7,5.58a32.4,32.4,0,0,1-1.07-14.2Zm-5.9,46.5,9.07-.8a45.82,45.82,0,0,0-1.26,21.51l-17.38,3C396.07,914.13,399.29,906.53,402.5,898.73Zm28.45,19c1.34,6.32.14,12.16-4.41,17-5.26,5.56-11.82,7.41-19.26,5.23a18.27,18.27,0,0,1-12.41-14.34Zm-2-3.11c-.88.3-1.81.45-2.93.71-2.79-5.71-2.94-11.53-2.17-17.51.34-2.6,1.37-4.34,4-5.21,2.11-.68,4-2,6.5-3.23a40.29,40.29,0,0,0,4.37,21.84C435.24,912.44,432.11,913.54,429,914.6Zm34-13.67c4.68,4.41,5.05,13,2.44,18.14-3.11,6.09-9.59,9.75-15.69,9.31a16.77,16.77,0,0,1-15.21-12.44C444.62,912.18,454.35,907.52,463,900.93Zm3.62-2.59c2.64-2.68,5.4-5.27,7.92-8.07s4.67-5.7,7-8.6l16.77,10.58C492.8,905,474,906,466.57,898.34ZM243.68,460.66c.17,3.19.64,6.38,1,9.88a6.44,6.44,0,0,1-2,.82,78.84,78.84,0,0,0-18.48,3.79c-.54.17-1.12.23-1.67.35-3-12.24,9.08-26,21.12-24.35C243.65,454.32,243.51,457.49,243.68,460.66Zm61.65-164.85c3.49-12,20.08-17.34,30.45-10.51l-9.19,17.47Zm20.75,10.67c-.42,3.17-.75,6.22-1.28,9.23a2.94,2.94,0,0,1-1.45,1.79,40.11,40.11,0,0,1-4.49,1.77c.33-5.37.62-10.17.94-15.65C322.25,304.73,324.06,305.55,326.08,306.48ZM298.47,375,288,383.26l-10.16-4.8c5.5-6.63,12.25-10.13,20.63-11.46-.53-2-.92-3.56-1.35-5.11-1.72-6.17-1.15-12.2,1-18.8l9.25,6.41c-.57,4.3-1.13,8.52-1.75,13.16C300.16,364.86,297.62,369.26,298.47,375Zm-79.55-39.77c6.39,2.57,12.74,5.22,19.16,7.72,1.81.71,2.65,1.71,2.57,3.69s.14,4,.25,6.42a44.84,44.84,0,0,0-21.39-1.36c-.95-5.57-1.89-11-2.89-16.88A13.17,13.17,0,0,1,218.92,335.27Zm-2.51-3.95c-.65-3.57-1-7.2-1.54-11.33,1.43.67,2.3,1,3.1,1.47,6.74,3.82,13.42,7.74,20.22,11.45,2.05,1.12,3.13,2.33,2.59,4.75a32.74,32.74,0,0,0-.38,4.11,8.31,8.31,0,0,1-2.13-.23c-6.63-2.66-13.25-5.33-19.83-8.12A3.63,3.63,0,0,1,216.41,331.32Zm5.84,21.5a38.77,38.77,0,0,1,16.92,1.3,3.74,3.74,0,0,1,3,3.12c.41,2.17,1,4.3,1.75,7a36.58,36.58,0,0,0-20.61,1.54,49.63,49.63,0,0,1-3.13-12.27A12.08,12.08,0,0,1,222.25,352.82Zm21,13a3.74,3.74,0,0,1,2.1,1.67c1.42,2.58,2.64,5.27,4.17,8.43a39.21,39.21,0,0,0-21.81,4.31c-1.56-4.57-2.93-8.57-4.34-12.71A29.18,29.18,0,0,1,243.26,365.86Zm-13-54,15.78-6a40.94,40.94,0,0,0,11.86,18c-2.64,1.3-4.82,2.46-7.09,3.4a2.69,2.69,0,0,1-2.27-.32c-6.12-4.72-12.17-9.53-18.24-14.33C230.22,312.64,230.27,312.46,230.24,311.88Zm61.5-1.55c.53,3.82,2,7.5,3.09,11.41-3.32-.49-6.72-.94-10.09-1.54-.59-.1-1.15-.8-1.57-1.34-3.32-4.16-7.16-12.23-6.63-19.93a64.88,64.88,0,0,1,15.09-.79C291.63,302.52,291.22,306.49,291.74,310.33Zm4.61,31.94c-.75,4.86-1.43,9.3-2.13,13.88-6-4-7.64-10.07-8.22-17.13A25.29,25.29,0,0,1,296.35,342.27ZM284,338.53l2.65,11.3c-3.25-.56-6.28-1.06-9.29-1.63a3.16,3.16,0,0,1-1.88-.77c-1.87-2.42-3.59-4.95-5.59-7.74C274.84,338,279.38,338.09,284,338.53Zm-14.64,17.9a4.31,4.31,0,0,1,2.28,1.45c2.14,2.35,4.18,4.8,6.3,7.26l-11.23,3.33a32.62,32.62,0,0,1-6.12-12.71C263.76,356,266.58,356.08,269.36,356.43Zm-9.45-2.36c-.39-3-.74-5.64-1.09-8.3l.81-.55c2.89,1.81,5.89,3.47,8.6,5.51,1,.72,1.22,2.38,2.11,4.26Zm13.93-6.21a5.13,5.13,0,0,1-5.95.24c-2.44-1.43-5-2.7-7.46-4-.05-.28-.11-.57-.16-.85l7.88-3.4Zm-12.95-24.78a2.56,2.56,0,0,1-2-.4,34.32,34.32,0,0,1-11.38-17.23l12.39-3.55a34.64,34.64,0,0,0,9.22,18.88C266.09,321.65,263.51,322.44,260.89,323.08Zm-21.23,54.7c1.16-.2,2.37-.17,3.55-.3,4.79-.54,8.92.23,11.4,5a21.81,21.81,0,0,0,3,3.54c.07.08.05.22.14.79-8.37.19-15.46,3.16-21.89,9a89.42,89.42,0,0,1-7.28-14A27,27,0,0,1,239.66,377.78Zm18.87,10.65c3.55.14,5.71,3,9.06,5.35-9,3-16.6,7.22-22.94,14.15-2.8-3.62-5.38-7-8.14-10.56C243,391.08,250.15,388.09,258.53,388.43Zm9,7.44c1.06,3.54-.71,7,0,10.62-2.49,1.66-4.85,3.25-7.22,4.81s-4.57,3-7.15,4.67l-7.28-6.8C250.93,402.8,260,397.25,267.52,395.87Zm.11,12.32c.25,2.51.44,4.35.64,6.3l-8.14,6.44-5.79-4Zm0-37.94c6.74-3.42,12.91-4.73,19.7-1.76l-11.45,8.92Zm41-70.2c2.95.92,5.65,1.72,8.32,2.6,1.5.5,1.27,1.83,1.21,3-.28,4.73-.58,9.47-.89,14.38l-9.3,6A44.61,44.61,0,0,1,308.66,300.05Zm-2.12-.48c-.59,4.95-1.43,9.19-1.53,13.45s.56,8.5.92,13.29c-3.87-1.56-7.76-2.35-9.8-6.47a30.91,30.91,0,0,1-2.8-19.48,17.91,17.91,0,0,1,.86-2.4Zm-5.63-4.14c-10.83-.7-21.52-.59-32,1.39-2.06-6,.2-13.11,5.27-17.29a16.64,16.64,0,0,1,26.75,15.9ZM274.6,299c.66,7.67,2.72,14.62,7.56,21.11-3.83.18-7,.38-10.14.43a3.39,3.39,0,0,1-1.87-.87c-4.2-3.4-8.19-11.92-8.35-18.23Zm-45.27,9.44a18.17,18.17,0,0,1,2.86-17.54c4.72-6.17,11.33-8.24,18.77-6.63,7,1.52,11.5,6.15,13.83,12.83Zm-.17,5.57c6.26,4.75,12.46,9.59,19.05,14.7l-6.41,4.54L215.87,318c4-1.74,7.32-3.27,10.7-4.56A3.18,3.18,0,0,1,229.16,314Zm-17.68,2.62c.59,5.38,1.13,10.32,1.69,15.37-2.23.95-4.28.43-6.35-.06-11.38-2.69-18.29-13.18-16-24.51a8,8,0,0,1,2.16-3.93c9.54-9.15,26.51-6.2,32.43,5.56a5.33,5.33,0,0,1,.22,1.33Zm1.87,19.82,7.84,35.95c-11.63,2.38-21.76-4.82-23.05-17C197.22,346.66,205,336.92,213.35,336.42Zm9.57,39.39c3.71,10.15,8.42,19.84,14.94,28.44-3.05,4.38-12.32,5.1-17,3.05a16.78,16.78,0,0,1-10.26-16.1C210.92,384.21,215.55,378.28,222.92,375.81Zm17.62,32.13c2.7,2.67,5.3,5.44,8.12,8s5.88,4.82,8.61,7c-3.6,5.69-7.15,11.28-10.7,16.87C234.4,433.81,232.64,416.25,240.54,407.94Zm63.39,308.8c1.61.78,2.08,1.87,2.17,3.64.17,3.41.74,6.81,1.17,10.45l-9.06,6.46c-3.22-8.15-2.55-15.74.27-23.75-8.26-1.53-15.15-4.87-20.7-11.6l10.11-4.79,10.47,8.14c0,.34,0,.92,0,1.51C298.27,711.21,299.81,714.74,303.93,716.74Zm4,37.62c3.28,2.08,6,3.77,8.66,5.56a2.18,2.18,0,0,1,.75,1.5c.34,5.22.62,10.44.94,16l-9.65,3C305.78,771.74,305.73,763.42,308,754.36Zm-15.82,27.81a16.08,16.08,0,0,1-2.6.32c-4.25-.2-8.5-.46-13.18-.72.09-1.57.11-2.82.24-4.06A31.71,31.71,0,0,1,282.86,762a4.68,4.68,0,0,1,2.44-1.83c3.21-.69,6.48-1.11,10.33-1.72C291.27,766.17,290.68,774,292.14,782.17ZM240.5,734.85a3.06,3.06,0,0,1-1.51,2.08c-7.2,3-14.45,6-22.4,9.19,1-6.08,1.89-11.5,2.81-17.13,3.85.15,7.38.55,10.88.34s6.76-1.06,10.61-1.7C240.77,730.14,240.79,732.51,240.5,734.85Zm.28,10a2.31,2.31,0,0,1-1.07,1.65c-8,4.63-16.06,9.19-24.88,14.21.54-4.39,1-7.8,1.37-11.21a2.94,2.94,0,0,1,2.08-2.57c7.17-2.88,14.33-5.8,22-8.93C240.51,740.53,240.76,742.71,240.78,744.89Zm-.63-19c-6.51,2.22-13.11,3.07-20.28,1,1-4.14,2-8.13,3-12.5a35.65,35.65,0,0,0,21,1.64c-.81,3.07-1.47,5.79-2.3,8.46A2.58,2.58,0,0,1,240.15,725.86Zm3.73-11.46c-4.1,1.45-15.21,1.88-20.39-1.9l4.19-12.28a39,39,0,0,0,21.89,4.09c-1.69,3.45-3.1,6.38-4.58,9.29A2.14,2.14,0,0,1,243.88,714.4Zm25.53,9.47c-2.69.39-5.41.54-8.14.77-.12-3.61,2-8.33,5.61-12.7l11,3.35c-2.17,2.52-4.14,4.89-6.21,7.16A4.23,4.23,0,0,1,269.41,723.87Zm-1.16,5.84c-2.79,2-5.74,3.68-8.95,5.71a17.43,17.43,0,0,1,.67-8.11c.15-.59,1.43-1.12,2.26-1.24,2.35-.31,4.74-.4,7.4-.61C269.83,727.1,269.64,728.73,268.25,729.71Zm-.81-43.35c-4.23,4-7.88,6.65-13.5,5.54-6.52-1.29-12.23-3.75-16.95-8.36,1.25-3.19,4.25-7.28,7.86-10.65A49.86,49.86,0,0,0,267.44,686.36Zm-21.55-15.18,7.27-6.72c4.51,3,8.77,5.75,13,8.58.46.31,1,.84,1.08,1.3.29,3.28.44,6.56.65,10.09C260.71,683.64,250.48,677.4,245.89,671.18Zm12.18,22.5c-2.47,3.06-4.33,5.52-6.39,7.81a4.56,4.56,0,0,1-2.74,1.37,33.59,33.59,0,0,1-19.67-3.7c-.18-.1-.28-.36-.73-1,2.19-4.27,4.5-8.74,7.05-13.71A34.22,34.22,0,0,0,258.07,693.68Zm-.11,62.8a40.43,40.43,0,0,0-12,18l-16.68-6.23,20.24-15.74Zm-9.78,16.33a36.8,36.8,0,0,1,9.75-14.33,3.42,3.42,0,0,1,3.84-1c2.2.78,4.48,1.31,7.34,2.12a35.61,35.61,0,0,0-9.21,18.9l-12-3.46A11.32,11.32,0,0,1,248.18,772.81Zm19.92-32.2-7.82-3.34c3.76-3.93,9.45-6.08,13.54-4.93-.94,1.44-1.79,2.78-2.68,4.08S269.33,738.91,268.1,740.61Zm7.27-7.48a2.63,2.63,0,0,1,1.53-.73c3.24-.66,6.48-1.25,9.85-1.89-.89,3.59-1.76,7.15-2.78,11.26-4.36,1.19-8.93.32-14.2-.88C271.81,738,273.54,735.55,275.37,733.13ZM286,742c.57-7.48,2.18-13.53,8.23-17.78l2.22,14.12Zm1.31-30.21c-6.94,2.73-11.66,2.44-19.13-1.47,2.13-3.11,5-5.23,7.91-7.22Zm-19.54-40.29c-2.78-.85-9.78-5.31-13-8.28l5.32-3.78,8.25,6.41C268.1,667.77,267.91,669.62,267.72,671.53ZM244.93,490.22l-5.16,9.92a46.74,46.74,0,0,1-12.45-22.82l9.93-2.33Zm-6-15.45,6.88-.5c1.23,2.93,2.42,5.52,3.37,8.2a3.51,3.51,0,0,1-.31,2.59,34.72,34.72,0,0,1-3,3.86Zm-5.51,56.61c-3.13,1.12-6.23,2.27-9.37,3.3a3.58,3.58,0,0,1-2.31,0c-2.62-1.1-5.18-2.36-8.26-3.78a35.34,35.34,0,0,1,11.82-8C228.17,525.92,230.84,528.72,233.4,531.38Zm-6.25-9.1c3.81-1.53,7.18-2.38,10.74-2,1.8,4.35,3.54,8.58,5.32,12.89C236,532.71,231.42,528.2,227.15,522.28Zm-9.29,19.06c1.17.11,2.22,1.51,3.84,2.7l-9.49,4.47L207,541.23C211.1,541.23,214.51,541,217.86,541.34Zm-10.52-1.7c.77-2.89,2.59-4.77,4.29-6.67a2.09,2.09,0,0,1,1.92-.34c2.61,1.07,5.16,2.31,7.77,3.5a5.73,5.73,0,0,1-5.52,3.13C213.08,539.22,210.35,539.49,207.34,539.64Zm10.09-33.17a3.66,3.66,0,0,1-2.4-.07,33.83,33.83,0,0,1-16.33-14.19l12.93-8.41c2.12,3.76,3.73,7.5,6.14,10.63s5.66,5.69,8.58,8.55C223.54,504.1,220.51,505.36,217.43,506.47Zm-3.15,1.33c-2.93,2-5.56,3.8-8.24,5.54a2.65,2.65,0,0,1-1.67.31c-5.28-.59-13.93-6.62-16.75-11.83l9.9-8.57A38.25,38.25,0,0,0,214.28,507.8Zm-10.8,7.34c-2.17,2.18-4.15,4.29-6.31,6.22a3.11,3.11,0,0,1-2.36.27,35.36,35.36,0,0,1-17.57-9l8.69-9.22C195,511.6,195,511.6,203.48,515.14Zm-8.11,8.21L190.21,531l-25.41-3.52,11.37-13.76A40.92,40.92,0,0,0,195.37,523.35Zm-30,5.67c7.54,1,15.07,2.07,22.59,3.15.32,0,.61.33,1.18.66-1,2.13-2,4.25-2.91,6.26H156.14c2.69-3.57,4.81-6.51,7.09-9.33A2.79,2.79,0,0,1,165.42,529Zm20.77,12.17,3.12,6.7c-1.09.25-1.94.51-2.82.63-6.72.93-13.45,1.79-20.16,2.78a3.54,3.54,0,0,1-4-1.56c-1.87-2.7-3.9-5.29-6.33-8.55Zm-3.09,9.26a53.13,53.13,0,0,1,5.31-.67,3.39,3.39,0,0,1,2.48.79c1.53,1.93,2.79,4,4.45,6.54a40.45,40.45,0,0,0-18.58,9.08c-2.55-1.4-9.11-9.07-11.28-13.3Zm11.91,8.3a2.68,2.68,0,0,1,2.87.79c1.67,1.86,3.42,3.63,5.26,5.57A90.1,90.1,0,0,0,194,570c-2.82,1.92-5.23,4.43-8.06,6.88a81.38,81.38,0,0,1-8.6-9.22A36.31,36.31,0,0,1,195,558.75Zm-1.53,13.31a63.63,63.63,0,0,1,5.49-3.33c3.72-2.17,7.27-2.65,10.69.75,1.14,1.15,2.77,1.82,4.75,3.07a37.59,37.59,0,0,0-16.86,14.66l-10.08-8.75A18.93,18.93,0,0,1,193.48,572.06Zm14.26,6.09c1.53-1.12,3.21-2,4.85-3,2.25-1.36,4.42-1.85,7-.38,2,1.17,4.44,1.7,6.89,2.59-3,2.92-6.13,5.37-8.5,8.41s-4,6.7-6,10.2c-2.57-.45-9-4.39-12.94-8.13A30,30,0,0,1,207.74,578.15Zm17.56-20.63a34.83,34.83,0,0,1-11.55-7.71c2.76-2,5.76-3.07,8.64-4.28.53-.22,1.36.14,2,.35,3,1,6,2,9.06,3.08Zm17.9-10.27c-1.74,4.25-3.47,8.49-5.34,13-3.48.32-6.93-.67-10.76-2.11C231.3,552.3,235.85,547.75,243.2,547.25Zm2.72,44.27,3.83,5c-1.3,3.25-2.54,6.33-4,9.91l-6.67-.78C241.16,600.66,243.56,596.4,245.92,591.52Zm-8.59,13.83-9.94-2.2a45.54,45.54,0,0,1,12.42-22.85c1.81,3.49,3.44,6.61,5.13,9.88ZM240,560.58a32.62,32.62,0,0,1,11.86-20c-2.67-3.25-5.34-6.1-7.53-9.28a24.77,24.77,0,0,1-4.24-11.46l11,.86c1.53,3.78,3.18,7.82,5,12.34-3.47,4.5-3.82,9.58.07,14.28-1.87,4.54-3.5,8.48-5.12,12.43ZM225.4,477.89c1.81,4.29,3.21,8.45,5.27,12.24s4.79,7.25,7.42,11.13c-4.77,1.09-9,1.78-13.21-1.6a31.24,31.24,0,0,1-11.12-16.89Zm-21.33,7.2c-4.49,2.85-8.7,6.15-13,9.24-5-4-5.63-13.05-3.66-17.87a17.23,17.23,0,0,1,15.43-10.32c6.74,0,12.78,4.1,15.64,10.79C213.53,479.7,208.66,482.18,204.07,485.09Zm-16.19,11.65L163,524.12a18.37,18.37,0,0,1-1.5-26.67C169.73,488.55,182.86,490.87,187.88,496.74Zm-27.07,30.78-9.25,12.62,9.37,12.76a19.39,19.39,0,0,1-14.6,3.71c-8.35-1.16-14.15-5.83-17.2-13.79a7.23,7.23,0,0,1,0-5.2C133.54,524.62,149.63,519.25,160.81,527.52Zm2,28.5L188,583.73c-4.89,4.33-10.7,6.08-17.23,4.49A17.73,17.73,0,0,1,157,574.6C155.17,567.32,157.81,561.34,162.83,556Zm28.34,29.78c8.31,6.87,17.23,12.93,27.21,17.15-1.41,5.59-7.26,10.37-13.31,11.09a17.24,17.24,0,0,1-17-8.8C185.17,599.82,186,590.57,191.17,585.8Zm22.47,11.65c2.41-8.33,7-14.68,14.47-18.5,3.07-1.57,6.63-.8,10.5.36a49.9,49.9,0,0,0-12.65,23C221.37,601.32,217.59,599.42,213.64,597.45Zm8.92,7.41c3.89,1,7.53,2.07,11.24,2.84s7.25,1.17,10.56,1.68c-.28,6.89-.54,13.49-.8,20.1C229.59,629.81,220,616.09,222.56,604.86Zm24,35.59c3.48,5.55,6.94,11.08,10.48,16.71L240.4,672.08C233.06,665.06,233.66,647,246.57,640.45Zm-8.81,35.12c-2.89,4.86-5.83,9.36-8.31,14.1s-4.47,9.69-6.66,14.53c-5.76-1.18-11-6.89-12-12.89A16.89,16.89,0,0,1,219,674C224.83,670.55,233.5,671.41,237.76,675.57Zm-16.6,32.48c-2.64,12.15-5.22,24.08-7.81,36-10.25-1.61-16.93-11.63-14.65-22.14C200.87,711.92,211.35,705.36,221.16,708.05Zm-9.86,40a16.7,16.7,0,0,1,1.85.35c-.56,5.24-1.1,10.18-1.66,15.4L225.77,770a14,14,0,0,1-.93,2.33,21.1,21.1,0,0,1-28.24,7.23c-4.3-2.4-6.45-5.82-6.32-10.71C190.66,755.08,201.9,747.69,211.3,748Zm5.35,14.74c1.86-2.11,21-13.55,25.48-15.3l6.09,4.27-20.43,15.86ZM229.53,772l35.29,11.25c-2.13,6-6.06,10.45-12.36,12.43-7.38,2.3-13.9.45-19.32-5C228.91,786.42,226.74,777.41,229.53,772Zm31.8,6.93c.63-2.54,1-4.73,1.73-6.82a28,28,0,0,1,6.67-10.87,4.32,4.32,0,0,1,2.66-1.41c2.95,0,5.89.45,9.38.76-4.06,6.27-6.73,12.78-6.94,20.93Zm7.27,4.56c10.66,1.76,21.39,2.72,32.11,1.24,1.67,5.39-1.06,12.47-6,16.27a17.1,17.1,0,0,1-18.81,1C269.79,798.24,266.93,791.1,268.6,783.49Zm25.74-1.11c-1.66-2.83-1.51-5.64-1.53-8.29a30.8,30.8,0,0,1,3.26-13.39c2-4.22,5.91-4.92,10.23-6.81-1.78,9.32-1.91,17.78.76,26.9Zm32.27-4.83,9.1,17.39c-9.64,7-26.32,1.89-30.51-10.33Zm-7.81-16.48a44.7,44.7,0,0,1,4.69,1.92,3,3,0,0,1,1.34,1.85c.5,2.91.83,5.84,1.25,9.06l-6.25,2.88C319.47,771.35,319.15,766.48,318.8,761.07ZM422.47,185.24c-2.6-.65-5.15-1.2-7.64-2a3,3,0,0,1-1.71-1.61c-2.27-6.52-3.1-13.15-1.07-20.33l12,3c-.72,3.77-1.66,7.13-1.91,10.53A91.78,91.78,0,0,0,422.47,185.24Zm1.22,34c-2.62-2.18-5.33-4.39-8-6.68A2.61,2.61,0,0,1,415,211c-.29-2.82-.51-5.65-.8-9.09a34.35,34.35,0,0,1,12.8,6.25C425.85,212.1,424.76,215.7,423.69,219.28Zm4.74-9.73a26.43,26.43,0,0,1,7.36,8c-3,3.82-5.82,7.49-8.75,11.25C423.9,222.1,425.53,216,428.43,209.55Zm-14.84,1.92c-6.36-1.15-6.68-6.78-10.09-10.43a16.18,16.18,0,0,1,9.07.61C412.89,204.76,413.22,207.9,413.59,211.47Zm-6.5-.91c.52,1.23.09,2.87.09,4.33l-1,.25-7.57-5.31a19.54,19.54,0,0,1,3.82-8.32C404.11,204.71,405.82,207.54,407.09,210.56Zm-1.2,6.29a2.57,2.57,0,0,1,.78,1.53c.61,3.23,1.16,6.49,1.74,9.81l-11.26-2.73a33.2,33.2,0,0,1,1-14.22C400.94,213.25,403.45,215,405.89,216.85ZM415,235.76l-14.07,2a24.71,24.71,0,0,1-3.39-9.82C403.15,227,409.44,229.78,415,235.76ZM425.37,240c1.55-8.41,5-15.26,11.63-20.8l4.81,10.16c-2.63,3.38-5.33,6.84-8.12,10.44-8,.31-8,.31-12.61,7.17l-12.95,1.89-6.48-9.19C409.74,236.56,417.36,237.12,425.37,240Zm12.13-46.82a4.17,4.17,0,0,1-1.28-2.39c-1.05-7.29.34-14.13,4.06-21.07l14.29,7.34a33,33,0,0,0-9.24,22.48C442.26,197.1,439.81,195.23,437.5,193.21Zm9.42,3.94c.83-7.26,3.41-13.51,8.48-18.67,3.24,1.2,7.53,4.37,10.68,7.91a49.76,49.76,0,0,0-13.57,22.47C449.34,205.16,446.33,202.3,446.92,197.15Zm20.59-10.09,7,7.53-9.39,14.25-10.94.53C456.35,200.34,460.91,193.36,467.51,187.06Zm7.9,8.79,4.07,5.68c-2.19,2.82-4.24,5.44-6.44,8.26l-6.28-.8ZM467,181.94c6.5-7.69,25-6.74,31.48,6.05l-16.68,10.53Zm-3.69-2.76c-4.76-2.84-9.23-5.78-13.95-8.24s-9.69-4.46-14.58-6.67c.64-5.22,6.3-10.7,12.47-12A16.93,16.93,0,0,1,464.69,160,16.64,16.64,0,0,1,463.28,179.18Zm-24.94-10.11c-1.21,3.89-2.55,7.22-3.24,10.69A108.67,108.67,0,0,0,434,190.7c-2.85-1.35-5.62-2.62-8.33-4a2.73,2.73,0,0,1-1.23-1.64,30,30,0,0,1,1.66-20.27Zm-7.48-6.17c-5.94-1.48-11.85-3.11-17.83-4.41s-11.92-2.23-18.15-3.37c1.11-9.92,10.76-16.87,21.12-15.18C426.6,141.67,433.36,151.77,430.86,162.9Zm-20.67-1.51c-.95,6.87-1,13.84,1.53,21.06l-9.18-.58c-3.06-7.5-6.18-15.16-9.32-22.88C396.25,158.36,405.09,159.64,410.19,161.39Zm-9.29,20.36-7.78.7-14.91-26.16,13,1.61Zm-37.2,77.82c-.8,0-2.12-.43-2.35-1-1.09-2.71-2.38-5.43-2.25-8.7a46.86,46.86,0,0,1,25.48-.45l-6,9.34C373.68,259,368.69,259.38,363.7,259.57Zm14,.7c-.44,1.29-.83,2.24-1.09,3.22a3.89,3.89,0,0,1-4.11,3.13c-2.34.08-4.68.53-7.5.88-.89-2-1.69-3.82-2.76-6.22Zm.32-48.75a3.8,3.8,0,0,1,1,2.49c0,2.84-.32,5.67-.53,8.91-3.67-1.72-6.78-3.51-10.12-4.65s-6.89-1.62-10.84-2.5L360,203A29.76,29.76,0,0,1,378,211.52Zm-17.57-10.36L364,189a36.4,36.4,0,0,1,17,11.13,2.74,2.74,0,0,1,.43,3c-.73,2.27-1.28,4.59-2,7.27-2-1.43-3.84-2.89-5.82-4.06a40.8,40.8,0,0,0-6.1-2.95C365.34,202.46,363,201.92,360.47,201.16Zm7,18.29a52.49,52.49,0,0,1,6.21,2.73c3.37,1.64,5.91,3.78,5.68,8.12-.1,1.95.72,3.95,1.16,6.12-4-1.16-7.71-2.7-11.59-3.24s-8-.12-12.36-.12c-.39-4.84.34-9.86.71-14.91C361.09,217.48,364.31,218.42,367.46,219.45Zm-10.28,15.81c8.18-2,16-1.06,23.14,3.61,2.78,1.83,3.16,5.4,4.26,8.51a58,58,0,0,0-25.7.89A25.57,25.57,0,0,1,357.18,235.26Zm25.49-36.21a105.71,105.71,0,0,0-8.29-6.72c-2.95-2-6.24-3.38-9.75-5.23,1.92-5.13,3.85-10.33,6.08-16.3l15.7,20.2C385.15,193.7,384,196.27,382.67,199.05Zm2.85-11.63c-4.19-5.36-8.3-10.78-12.55-16.07a3.72,3.72,0,0,1-.55-4.53c1.4-2.87,2.55-5.86,4.13-9.54l15.18,25.93-4.31,6.27C386.62,188.62,386,188.06,385.52,187.42ZM391,153.28a8.36,8.36,0,0,1-.34,1.35l-15.49-1.71-6.51,14.59c-5.91-3.14-9.73-7.62-11.38-13.81-1.89-7.08-.21-13.42,4.43-19.06a7.19,7.19,0,0,1,4.21-2.48C378.85,129.39,391.56,140.08,391,153.28Zm-24,17.27-11.39,35.69c-6.48-2.33-11.13-6.66-12.72-13.53-1.71-7.43.23-14.05,6.29-19C354.51,169.45,360.61,169,367,170.55Zm-11.86,39.07c-.5,5.59-1.16,11-1.39,16.39s0,10.91,0,16.83c-7.39.15-13.3-2.15-16.88-8.48-3.38-6-3.34-12.23.69-17.92C341.73,210.52,347.81,208.77,355.16,209.62Zm-.57,37c1,3.62,1.87,7.28,3.05,10.84s2.7,7.11,4.11,10.76c-3.1,1.39-6.19,2.59-9.12,4.12s-5.51,3.3-8.25,5C336.28,269.08,342.18,250.78,354.59,246.61ZM443.1,105.5l8.84-7.07a87.86,87.86,0,0,1,13.75,16.06l-5.8,4.49C454.26,114.47,448.83,110.1,443.1,105.5Zm12.35,11.86c-2.79.54-4.68-.55-6.63-.91s-4.17-1-6.26-1.42l-7.13-1.53c2.31-2.44,4.08-4.3,6.1-6.45A59.14,59.14,0,0,1,455.45,117.36Zm34.1-22.5c.31,3.32.8,6.62,1.26,10.3l-7.58,1.45c-1.76-6.76-3.46-13.3-5.35-20.58l11.38-1.79C489.71,88.05,489.24,91.49,489.55,94.86Zm-7.5,12.1L475,109.38l-9.27-18.81,10.54-4.15Zm-8.88,3.22-5.88,3.27c-4.61-5.4-9-10.54-13.77-16.16l10.27-5.9A70.48,70.48,0,0,1,473.17,110.18ZM505.78,109c-1,1.23-1.81,2.28-2.65,3.33-1.55,2-3.15,3.9-4.65,5.9a2.7,2.7,0,0,1-3.05,1.26c-7-1.67-12.92.45-18.14,5.09a7.83,7.83,0,0,1-1,.62L464,120.52C471.13,111.75,491.14,105.66,505.78,109Zm2.61-3.05-7.13-.94A75.36,75.36,0,0,1,505,84.24l11.2,1.66Zm9.92-19.43L526.75,89,512.2,102.5l-.68-.43A57.05,57.05,0,0,1,518.31,86.56Zm-19.07,18.08h-6.71a58.83,58.83,0,0,1-1.24-20.47H503C501.73,91,500.51,97.68,499.24,104.64Zm34.34,74.16c.73-3.24,1.42-6.32,2.21-9.88,9,1.79,16.15,6,22.89,12.32l-9.88,5.2Zm13.89,8.57-5,3.85-9.87-4c.26-2.23.49-4.2.79-6.67C538.27,182.54,542.58,185,547.47,187.37Zm-11.18-20.06,4.91-11.93a22.93,22.93,0,0,1,3,.62,29.48,29.48,0,0,1,15.21,12.37,6.53,6.53,0,0,1,1.17,5.37c-.49,1.88.3,4-1.26,6.13A50.16,50.16,0,0,0,536.29,167.31Zm16.8-7.95c-3.05-2.38-6.71-4-10.73-6.26q4.07-6.25,8.27-12.77a24.61,24.61,0,0,1,8.79,7.16c1.43,1.75,2.6,3.69,3.86,5.57,1.82,2.73,2.5,5.44.65,8.59-1.12,1.9-1.59,4.19-2.34,6.29C558.74,165,556.21,161.79,553.09,159.36Zm-1.16-20.23A81,81,0,0,1,560.62,129a22.29,22.29,0,0,1,7.26,7.33c.93,1.37,1.65,2.89,2.46,4.34,2,3.59,2.53,7-.75,10.29-1.23,1.22-2,2.93-3.22,4.87A37.51,37.51,0,0,0,551.93,139.13Zm17.13-3.45c-1.92-2.82-4.4-5.27-6.92-8.22a91.41,91.41,0,0,1,9-8.73,37.73,37.73,0,0,1,8.59,15.34c.89,2.84.63,5-1.91,6.81a42.54,42.54,0,0,0-4,3.71A90.27,90.27,0,0,0,569.06,135.68ZM590,174.86l-8.55-8.05A34.34,34.34,0,0,1,589.37,155l4.22,9Zm1.77,10c-2.28-1.06-4.29-2.1-6.38-2.95s-4.42-1.56-7.12-2.49c.68-3.48,1.34-6.9,2.07-10.68C587,172.25,590.24,177,591.75,184.85Zm-1.34-31.14,7.21-5.22c0,4,.18,7.54-.1,11-.08,1.09-1.37,2.08-2.54,3.72C593.37,159.88,592,157.07,590.41,153.71Zm4.39-24.62a32.23,32.23,0,0,0-3.91,1.63c-.48-3.42-.91-6.44-1.34-9.46-.63-4.47-1.21-9-1.89-13.41a3.81,3.81,0,0,1,1.8-4.23c2.56-1.7,5-3.64,7.86-5.78a27.51,27.51,0,0,1,.39,3c.08,7.86,0,15.72.25,23.57C598,126.9,597.31,128.42,594.8,129.09Zm-5.31,2.5-7.28,5.12c-1.32-3.5-2.33-6.93-3.9-10.08s-3.6-5.86-5.73-9.24L586,106.28C587.22,115.19,588.33,123.26,589.49,131.59Zm9.26,62.12a32.86,32.86,0,0,1,20.41-12.34c-.33,4-.64,7.58-.94,11.17l-12.35,5.09c-4.66-3.68-9.73-3.66-14.36,0l-12.29-5.08-1-11.14C586.81,182.92,593.27,187.09,598.75,193.71Zm1-95.43c2.12.3,3.31,1.67,4.63,2.7,6.78,5.28,5.93,2.66,4.81,11.23-.78,6-1.62,12-2.52,18.58-2.29-1-4-1.77-5.74-2.49-1.43-.59-1.3-1.84-1.29-3,0-5.59.08-11.18.11-16.77C599.76,105.18,599.74,101.86,599.74,98.28Zm0,50.64c2.83.88,4.91,2.9,7.14,5.06-1.37,2.92-2.72,5.77-4.12,8.73-2.16-1.36-3.17-2.83-3-5.13C599.87,154.76,599.76,151.93,599.76,148.92Zm8.29,6a35.52,35.52,0,0,1,8,11.89l-8.56,8.09c-1.14-3.47-2.27-6.92-3.58-10.93Q605.62,160.26,608.05,154.9Zm8.61,13.7a26.25,26.25,0,0,1,2.23,10.73l-13,5.31C606.31,177.33,610.85,172.89,616.66,168.6Zm-1-31.69-7.6-5.26c1.11-8.13,2.21-16.24,3.46-25.39,4.91,4,9.17,7.55,13.76,11.31A40.84,40.84,0,0,0,615.64,136.91Zm2.2,2.07a3.35,3.35,0,0,1-.55-2.58,35.4,35.4,0,0,1,8.93-17.56,82.41,82.41,0,0,1,9.19,8.54,97.21,97.21,0,0,0-6.89,8.12c-1.91,2.8-3.24,6-4.94,9.22C621.65,142.82,619.63,141,617.84,139Zm7.6,6.47c1-5.78,6.24-13.23,11.59-16.47l8.42,9.61c-2.86,2.63-5.77,4.89-8.14,7.61s-4.24,6-6.42,9.11c-1.76-2.59-3.58-5.18-5.27-7.86A3.06,3.06,0,0,1,625.44,145.45Zm7.11,11a33.76,33.76,0,0,1,14.19-16.33l8.67,13.5c-8.38,2.68-14.64,7.34-19.19,14.83-1.46-3.67-2.76-6.79-3.91-9.95A3.09,3.09,0,0,1,632.55,156.47Zm5.86,11.24a30.91,30.91,0,0,1,14.2-11.49,16,16,0,0,1,2-.65,9.26,9.26,0,0,1,1.73,0c1.55,3.8,3.11,7.6,4.8,11.75a51.15,51.15,0,0,0-23.56,13C637.21,175.52,635.63,171.66,638.41,167.71Zm23.31,1.15c.81,3.63,1.47,6.61,2.19,9.86l-15.14,7.69-10-5.15A45.31,45.31,0,0,1,661.72,168.86Zm1.91,11.71a13.9,13.9,0,0,1,1,6.75l-9.58,3.89L650,187.39Zm0-16.82c12.45-2.21,24.69,8.3,24.4,21.29-3.26,0-6.52-.15-9.78,0s-6.57.69-9.93,1.06C666.78,178.69,665.23,171.31,663.65,163.75Zm-2-3.9a107.83,107.83,0,0,0-17.12-27c2.5-4.23,11.63-6.37,17.36-4.24a17.29,17.29,0,0,1,10.92,15.75C672.83,150.69,667.91,158.27,661.6,159.85Zm-19.48-30.62-27.31-24.81c5.05-6.64,18-10.06,26.9-1.27C649,110.34,649.19,122.63,642.12,129.23Zm-30.36-27.35c0,.08-.19.1-.58.27L598.78,93l-12.7,9.27c-8.06-10.59-3.35-28.1,11.33-32a5.61,5.61,0,0,1,2.76,0C614.24,74.08,619.52,90.82,611.76,101.88Zm-29,2.52-27.3,24.8c-6.86-5.76-7.07-18.18-.26-25.43C563.88,94.5,576.85,97.28,582.72,104.4Zm-29.76,28c-3.18,4.42-6.56,8.73-9.48,13.32s-5.26,9.29-7.86,13.94c-5.43-1.34-10.11-7.28-10.8-13.67A16.58,16.58,0,0,1,553,132.42ZM533.79,163.8l-4.58,22L509.69,185C507.91,175.39,519.3,161,533.79,163.8Zm285.16,95c-2-3.12-3.86-6-6-9.29a45.67,45.67,0,0,1,25.53.37c-.08,3.52-1.44,6.41-2.69,9.85Zm16.34,2.42-2.81,6.27c-3.14-.36-6.07-.6-9-1.09a3.57,3.57,0,0,1-2.07-1.61,33.19,33.19,0,0,1-1.77-4.44Zm-8.55-90.38L833,187.42a40.81,40.81,0,0,0-18,12l-4-8.36ZM810.55,189c-.06.07-.22.08-.62.21-1.31-1.83-2.67-3.74-4.2-5.9l15-25.71a71,71,0,0,1,4.89,10.94,2.41,2.41,0,0,1-.52,1.92C820.31,176.65,815.43,182.81,810.55,189Zm8.81,34.17c-1-3.5-.76-6.68-.93-9.82a3.17,3.17,0,0,1,1-1.8c3.69-4.28,11.44-7.94,18.11-8.41.82,4.19,1.65,8.44,2.54,13A39.74,39.74,0,0,0,819.36,223.15Zm21-4.75c.28,4.8.57,9.84.88,15.27-8.59-1.53-16.4-1-24.13,3.41.58-4,1-7.44,1.62-10.86a2.7,2.7,0,0,1,1.09-1.35c5.74-4.35,12.12-7,19.42-7C839.42,217.91,839.63,218.09,840.32,218.4Zm-22.17-7.79c-.87-3.08-1.65-5.56-2.24-8.08a3.31,3.31,0,0,1,.45-2.27c2.94-4.53,11.43-10,17.15-10.91,1.14,3.77,2.3,7.6,3.62,11.94C829.92,202.65,823.57,205.39,818.15,210.61Zm2,26.48a30.88,30.88,0,0,1,20.41-1.78c.34,4.64-.5,8.66-1.4,13.07a55.17,55.17,0,0,0-26.68-.54C814.3,243.17,815.42,239.09,820.12,237.09Zm23,9.63c12.18,3.77,17.39,21,10.29,30.39L836.13,268Zm.69-3.88c0-5.59.2-11-.05-16.43s-1-10.88-1.51-16.79c7.34-.81,13.44.89,17.64,6.8,4,5.67,4.12,11.92.73,17.91C857.08,240.67,851.19,243,843.86,242.84ZM841.8,206.1c-3.72-11.66-7.45-23.31-11.25-35.19A18.31,18.31,0,0,1,854,181.62,18.67,18.67,0,0,1,841.8,206.1ZM829.64,167a4.48,4.48,0,0,1-1,.15c-2-4.56-4.09-9.2-6.28-14.14l-15.64,1.66a22.69,22.69,0,0,1-.23-3.11,21.07,21.07,0,0,1,24.64-19.44,7.22,7.22,0,0,1,4.34,2.24A21,21,0,0,1,829.64,167Zm-10.71-10.63c-.53,1.16-.84,2-1.28,2.79-3.93,6.94-7.95,13.83-11.78,20.82-1.09,2-2.33,2.73-4.54,2.24a38.35,38.35,0,0,0-4.76-.39c3.28-8.07,6.43-15.86,9.7-23.92ZM723,194.59l6.84-7.44c6.8,6,11,13.13,13.69,22.24-3.94-.23-7.13-.36-10.3-.65a2.72,2.72,0,0,1-1.63-1.19C728.74,203.32,726,199.05,723,194.59ZM730.69,209l-6.21.85-6.49-8.3,4.07-5.68Zm.55-22.79a61.4,61.4,0,0,1,10.52-8c5.22,5.26,7.76,11.36,8.78,18.46C751.31,202,748.27,205,745,209A50.3,50.3,0,0,0,731.24,186.19Zm11.66-9.07,14.2-7.29a31.63,31.63,0,0,1,4.48,14.44c.08.82,0,1.66.06,2.49.3,3.57-.54,6.47-4,8.39-1.81,1-3.27,2.68-5.47,4.55A33,33,0,0,0,742.9,177.12Zm32.43-2.29c-.26-3.4-1.2-6.76-1.91-10.52l11.74-2.94a11.37,11.37,0,0,1,1.37,7A107.15,107.15,0,0,1,784.58,181a3.49,3.49,0,0,1-1.94,2.25c-2.45.85-5,1.34-7.61,2A94.11,94.11,0,0,0,775.33,174.83Zm12.81,34.93c-.73,1-2.39,1.21-4.21,2.05.32-3.67.58-6.69.85-9.81,2.73-1.6,5.59-1.44,9.18-1.18C791.87,204.1,790.19,207.08,788.14,209.76Zm6.79-7.93.88.06c1.08,2.48,2.16,5,3.38,7.72l-8,5.67c-1.44-2.19-1.48-3.95-.29-5.91C792.35,206.93,793.59,204.35,794.93,201.83Zm-11.68.09c-.3,3.48-.52,6.42-.84,9.35a2.55,2.55,0,0,1-.84,1.49c-2.57,2.22-5.19,4.37-7.77,6.53-1.07-3.52-2.15-7.11-3.36-11.1A35,35,0,0,1,783.25,201.92ZM770.39,229c-1.4-2-2.61-3.93-4-5.71s-3.09-3.56-5-5.79l7.34-8.43C772.08,215.84,773.47,222,770.39,229Zm-9.9-9.82a32.2,32.2,0,0,1,11.39,20.56c1.76-.38,3.23-.62,4.65-1a31.18,31.18,0,0,1,18,.47c.3.09.55.39,1.14.84l-6.21,8.82c-3.66-.45-7.2-.84-10.71-1.37-1-.14-2.36-.46-2.71-1.13-2.63-5.17-6.78-7.14-12-6.3l-8.25-10.62C757.18,226.3,758.76,222.92,760.49,219.2Zm22.42,16.6c2.44-5.06,9.2-7.88,17-8.29a24.74,24.74,0,0,1-3.3,10.24Zm6.18-7.6c.61-3.33,1.19-6.79,1.91-10.22a3.07,3.07,0,0,1,1.25-1.62c2.19-1.63,4.44-3.16,7.17-5.08,1.32,5.07,1.78,9.61.9,14.19Zm14.46-67.55c-2.51,6.3-5.11,12.56-7.59,18.86-.69,1.76-1.61,2.7-3.66,2.58a64,64,0,0,0-6.53.32c2.39-7,2.57-13.93,1.47-21.27A109.82,109.82,0,0,1,804,158.38,13,13,0,0,1,803.55,160.65Zm-37,1.94c-1.26-6.85.14-12.88,5.14-17.67,5.55-5.31,12.3-6.75,19.5-4.12,6.48,2.37,10.1,7.46,11.77,13.94Zm4.85,2.18A29.81,29.81,0,0,1,773,185.08a3.25,3.25,0,0,1-1.55,1.8c-2.51,1.32-5.1,2.49-8.21,4,.13-7.62-.81-14.71-4.58-21.62Zm-36.81,14.51c-4.36-4.3-5.35-11.74-2.58-17.75A16.92,16.92,0,0,1,748.53,152,17.13,17.13,0,0,1,763,164.42,113.41,113.41,0,0,0,734.54,179.28Zm-3.89,2.51-14.93,16.73-16.48-10.41C703,177.9,720.71,172.64,730.65,181.79Zm221.9,408.39c1.66-3.22,3.23-6.28,4.82-9.35,5.19,3.15,11.31,14,12.47,22.42l-9.64,2.1C957.52,600,955,595.07,952.55,590.18Zm6,15.33-6.75.87-4.09-9.89,3.87-5Zm-6.81-45.3c-1.76-.11-3.51-.41-5.39-.64l-5-12.21c3.71-4.6,3.6-9.68,0-14.3l5.06-12.37,11.11-.84c-1.41,8.56-5.71,14.88-11.84,20,2.75,3.36,5.4,6.24,7.63,9.42a24.59,24.59,0,0,1,4.11,11C955.27,560.23,953.51,560.31,951.75,560.21Zm2.53-13c7.25.48,11.85,5,16.06,11-3.94,1.4-7.31,2.34-10.75,2.08Zm9.61,1.56,1.68-.53a63.53,63.53,0,0,0,6.74-2.11,4.55,4.55,0,0,1,4.34-.1c2.19,1.16,4.48,2.13,7.31,3.44a35.34,35.34,0,0,1-11.74,8Zm15.31-10c-1.08-.14-2-1.47-3.4-2.58l9.54-4.39,5.54,7.75C986.38,539.39,982.76,539.34,979.2,538.87Zm11.43,2.26-5.32,7.32-9-4.09a5.33,5.33,0,0,1,5.56-3.26C984.48,541.24,987.08,541.13,990.63,541.13Zm-9.89,32.53a2.75,2.75,0,0,1,1.69.34,34,34,0,0,1,16.38,14.19l-12.95,8.38c-2.16-3.8-3.81-7.53-6.21-10.67s-5.49-5.55-8.46-8.47C974.26,576.2,977.48,574.87,980.74,573.66Zm2.48-1c3-2,5.47-3.81,8.07-5.42a3.78,3.78,0,0,1,2.39-.26c5.37.88,13,6.18,16.3,11.55l-10,8.71A37.52,37.52,0,0,0,983.22,572.64Zm20.24-2.75a89.25,89.25,0,0,0-8.92-4.78l6.64-6.53a35.21,35.21,0,0,1,19.09,9.24l-8.59,9A98.91,98.91,0,0,0,1003.46,569.89Zm-1.18-12.8,5-7.53,24.35,3.32c-1,2.94-6.87,10.27-10.65,13.45A40.64,40.64,0,0,0,1002.28,557.09Zm27.78-6c-4.23-.71-8.49-1.22-12.74-1.81l-9.16-1.3c1.14-2.46,2.14-4.59,3.15-6.76h29.81c-1,1.53-1.77,2.67-2.56,3.77-.91,1.26-2,2.4-2.77,3.73C1034.44,551,1032.56,551.5,1030.06,551.08Zm7.76-11.94c-7.64.11-15.29.07-22.92.33-2.7.09-4.28-.72-5-3.31a35.65,35.65,0,0,0-1.43-3.47,16.32,16.32,0,0,1,2.43-.76c6.85-1,13.71-1.93,20.57-2.78a3.68,3.68,0,0,1,2.86.71c2.28,2.71,4.3,5.63,6.74,8.9C1039.59,538.94,1038.7,539.13,1037.82,539.14Zm-30.47-8.25-5.18-7.47a41,41,0,0,0,19.13-9.67l11.25,13.66Zm-5.11-9.28a3.39,3.39,0,0,1-2.51-.83c-1.86-1.65-3.54-3.5-5.76-5.75a34.51,34.51,0,0,0,17.28-11.77l8.89,9.3A34.82,34.82,0,0,1,1002.24,521.61Zm6.36-17.5a29.52,29.52,0,0,1-14.26,9.14,4.31,4.31,0,0,1-3,0c-2.66-1.55-5.15-3.38-8.14-5.4a39,39,0,0,0,16.8-14.55l10,8.61A16.17,16.17,0,0,1,1008.6,504.11Zm-16.94-3.38c-1.44,1.24-3,2.27-4.61,3.37-3.31,2.32-6.65,3.45-10.53,1-1.66-1-3.75-1.42-5.72-2.12,10.19-9.5,10.19-9.5,14.62-19.05a78.44,78.44,0,0,1,13.11,8.34A25.25,25.25,0,0,1,991.66,500.73ZM972.14,523a33.29,33.29,0,0,1,11.64,7.66c-2.75,2-5.8,3-8.65,4.33a2,2,0,0,1-1.35-.05c-3.19-1.15-6.36-2.35-9.58-3.55C966.75,528.65,969.35,525.91,972.14,523Zm-17.89,10.22c1.75-4.22,3.45-8.34,5.34-12.91,3.53-.5,6.87.59,10.78,1.87C966.23,528.09,961.66,532.63,954.25,533.19Zm-1.93-42.58,7.9-15.57,9.89,2.24A46.5,46.5,0,0,1,958,499.82C955.09,497.21,955,493.09,952.32,490.61Zm-.63-1.93c-.66-.66-1-1.05-1.41-1.41-2.35-2.14-2.76-4.41-1-7.23a37.06,37.06,0,0,0,2.38-5.75l7,.4Zm-.77-48.88L940.4,423.19l16.75-15C964.75,416.05,963.22,433.72,950.92,439.8ZM905.34,298.18a63.44,63.44,0,0,1,15.8.82,32.82,32.82,0,0,1-7.21,20.33,2.57,2.57,0,0,1-1.43.93c-3.26.55-6.55,1-10.6,1.63C906.18,314.16,906.77,306.55,905.34,298.18Zm74.32,35c-7.24,3-14.51,6-22.49,9.21-.21-2.66-.49-4.63-.47-6.61a2.69,2.69,0,0,1,1.2-1.93c7.83-4.52,15.72-9,23.6-13.4.17-.1.46,0,1.08,0-.47,3.66-.87,7.3-1.46,10.91A2.79,2.79,0,0,1,979.66,333.2Zm1.13,1.92C979.88,340.56,979,346,978,351.7c-7.31-1-14.25-1-21.1,1.33,0-2.78-.12-5.15.08-7.48a3,3,0,0,1,1.53-2.09c7-2.94,14.1-5.75,21.17-8.57C979.87,334.82,980.13,335,980.79,335.12Zm-23.86,19.63c3.48-1.75,14.46-3.63,20.67-.9l-3.05,12c-6.93-2.45-13.57-3.21-20.92-1.47.84-3.26,1.46-5.85,2.2-8.41A2.33,2.33,0,0,1,956.93,354.75Zm-2.78,11.11a29.66,29.66,0,0,1,20,1.66l-4.29,12.61c-7-3.24-14-4.92-21.93-4.11,1.61-3.28,2.9-6.07,4.35-8.76A3.28,3.28,0,0,1,954.15,365.86ZM930,394c3.77-3.11,6.65-6.07,11.59-5.59A30.68,30.68,0,0,1,961,397.34l-8,10.61A50,50,0,0,0,930,394Zm21.62,15.26L944.42,416l-14.18-9.25c-.24-3.75-.46-7.15-.68-10.57C935.46,396,947,402.9,951.59,409.24Zm-14-55.17L928,355c-.27-2.39.44-3.9,2.27-5,2.61-1.55,5.16-3.21,7.73-4.82l.7.5Zm1.69,32.8c2.51-3.12,4.54-5.72,6.68-8.24a3,3,0,0,1,1.84-.89c7.13-.79,14-.05,20.38,3.57.19.1.3.35.76.91L961.89,396C955.38,390.16,948.26,387,939.32,386.87ZM945.84,327c-1.82-1.06-3.77-1.88-5.83-2.89,2.39-2.94,4.82-5.52,6.75-8.44s3.25-6,5.12-9.59l15.65,5.9c-.35.64-.45,1-.69,1.22-5.71,4.47-11.45,8.89-17.14,13.39A3,3,0,0,1,945.84,327ZM945.49,315c-.91,1.39-2,2.64-3,4-2.5,3.33-5.36,5.3-9.67,3a18.9,18.9,0,0,0-3.95-1,100.25,100.25,0,0,0,5.6-9.13c1.44-3,2.25-6.22,3.51-9.84l11.82,3.37A25.3,25.3,0,0,1,945.49,315Zm-16.2,24.8,7.83,3.28.06.91c-2.92,1.54-5.76,3.26-8.78,4.54-1.25.52-2.89.08-5.23.08Zm-7.1,7.39a3.73,3.73,0,0,1-2.15,1c-3,.6-6,1.1-9.2,1.66.81-3.48,1.68-7.23,2.64-11.34a34.76,34.76,0,0,1,14.21,1.08C925.66,342.45,924,344.91,922.19,347.23ZM911.48,339c-.55,7-2.23,13-8.18,17.18-.72-4.56-1.41-9-2.18-13.92A26.06,26.06,0,0,1,911.48,339Zm17.71,31.12c-2,3.05-4.81,5.13-8,7.27-1.79-1.58-3.47-3.22-5.31-4.65s-3.89-2.68-5.88-4C916,365.25,924.67,367.05,929.19,370.15Zm-9.63-5c2.11-2.42,4.06-4.79,6.18-7a5.55,5.55,0,0,1,2.86-1.72c2.56-.4,5.17-.43,8.29-.64a31.6,31.6,0,0,1-6.08,12.71Zm10.3,43.06,13.24,8.65-5.6,4.08c-2.56-2-5-3.79-7.4-5.7a2.1,2.1,0,0,1-.73-1.49C929.42,412.12,929.64,410.5,929.86,408.2Zm29.7-3.74a113,113,0,0,0,15.07-29c7.36,3.27,11.81,8.07,12.25,15.85a16.59,16.59,0,0,1-9.46,15.57A16.35,16.35,0,0,1,959.56,404.46Zm16.75-32.14c2.6-11.91,5.19-23.82,7.83-36,8,.68,16.52,10.07,15,20.23S988.17,375,976.31,372.32Zm9.1-39.9a5.52,5.52,0,0,1-1.06-.4c.44-4.13.85-8.15,1.29-12.16.36-3.26.38-3.27-2.75-4.66-2.72-1.2-5.47-2.35-8.19-3.54-1-.43-1.89-.92-3.06-1.49a24,24,0,0,1,1.32-2.64,21.2,21.2,0,0,1,29.61-5.75c3.69,2.49,4.58,5.92,4.64,9.82C1007.37,323.1,996.9,333.05,985.41,332.42Zm-13-18.47c2.75,1.41,5.65,2.51,9.27,4.09l-25.93,15.17-6.26-4.36c.9-.81,1.54-1.46,2.26-2,5.17-4,10.39-8,15.51-12.1C968.87,313.41,970.33,312.91,972.37,314Zm-4.08-5.49L933.2,297.22c0-4.19,4.48-9.71,10.29-12,7.29-2.87,14.15-1.81,19.89,3.54S970.2,300.93,968.29,308.46Zm-32.72-7.12a8.6,8.6,0,0,1,.19,2A30.16,30.16,0,0,1,927.94,319a4,4,0,0,1-2.31,1.45c-3.15,0-6.3-.22-10.13-.4A39.32,39.32,0,0,0,922.72,299Zm-6.76-4.48c-10.75-2.1-21.44-2.07-32-1.51-1.61-5.46,1.23-12.5,6.32-16.26a17,17,0,0,1,18.86-.6C927.73,282.23,930.45,289.18,928.81,296.86Zm-25.29,1.63c1.71,4.54,1.42,9.23.5,13.92-.32,1.63-1,3.18-1.46,4.78-1.54,5.35-5.67,7.54-10.94,9,.36-4.72,1-9,.91-13.21s-1-8.47-1.53-12.75C893.77,298.9,899.47,298.07,903.52,298.49Zm-13.94,27.17c-3.73-1.07-5.91-4.28-9.35-5.19-.35-5.84-.69-11.38-1.06-17.44l9.66-3A43.55,43.55,0,0,1,889.58,325.66Zm-18.7-22.9q-4.46-8.47-9-17.25c8-7.86,26.43-1.86,30.4,10.26Zm7.77,15.75c-4.64-.1-5.84-1.09-6.32-5-.28-2.23-.58-4.46-.91-7.05l6.23-2.79C878,308.94,878.33,313.71,878.65,318.51ZM957,736.4c-.15-3-.28-5.82-.45-9.16A39.1,39.1,0,0,0,978,728.5c1,6,1.9,11.48,2.92,17.6Zm24.21,13.11c.57,3.38.88,6.8,1.34,10.61a12.85,12.85,0,0,1-2.16-.67c-7.25-4.1-14.46-8.27-21.73-12.33-1.54-.85-2.33-1.83-2-3.66.26-1.61.32-3.25.51-5.45,7.83,3.18,15.11,6.09,22.33,9.15A3.58,3.58,0,0,1,981.25,749.51ZM968,728a77.5,77.5,0,0,1-10.11-2,3.58,3.58,0,0,1-2.16-2c-.85-2.45-1.38-5-2.17-8a35,35,0,0,0,21-1.54c1,4.17,2,8.14,3.07,12.29A19.25,19.25,0,0,1,968,728Zm-2-12.81c-2,.21-4,.21-6,.25-4.63.08-8.36-1.14-9.71-6.28-.4-1.51-1.39-2.87-2.34-4.77a38.85,38.85,0,0,0,21.62-4.1,76.09,76.09,0,0,1,4.43,12.48A18.26,18.26,0,0,1,966,715.19ZM901.87,758.5c3.87.62,7.12,1.07,10.34,1.68a3.6,3.6,0,0,1,2,1.29,32.76,32.76,0,0,1,6.91,19.71c-4.34,1.3-11.95,1.69-15.75.81C906.82,774,906.24,766.2,901.87,758.5ZM890,730.87l1.88-12.69c1.93-1.69,4.55-3.13,5.83-5.34s1.25-5.2,1.8-7.92l10.07-7.73L919.8,702c-5.85,6.5-12.41,10.21-20.71,11.49.43,1.81.67,3.3,1.12,4.71a28.34,28.34,0,0,1-1.11,18.91c-1.58-1-3.13-2-4.64-3S891.43,731.9,890,730.87Zm-1.1,49.46-9.68-2.89c.32-5.51.62-10.85,1-16.18a1.69,1.69,0,0,1,.58-1.22c2.75-1.83,5.55-3.58,8.78-5.64A44.59,44.59,0,0,1,888.87,780.33Zm38.94-56.5a3.05,3.05,0,0,1-1.75-1c-2.1-2.39-4.12-4.86-6.32-7.49l11-3.44A34.07,34.07,0,0,1,937,724.68C933.63,724.38,930.71,724.18,927.81,723.83Zm9.9,4c.49,2.28.64,4.63.92,7l-.88.38c-2.71-1.7-5.56-3.22-8.07-5.17-1.16-.9-1.65-2.64-2.76-4.53,3.49.25,6.21.33,8.89.7A2.78,2.78,0,0,1,937.71,727.81Zm-27.78-16c2-1.35,4-2.61,5.86-4.07s3.56-3.1,5.64-4.93l8.4,7.4C923,713.55,916.82,715.06,909.93,711.84Zm-6.64,12.38c6.07,4.25,7.66,10.32,8.22,17.26a25.43,25.43,0,0,1-10.36-3.42C901.87,733.42,902.55,729,903.29,724.22Zm10.2,17.54c-1-3.93-1.84-7.59-2.73-11.25,3.27.63,6.4,1.2,9.52,1.87a3.8,3.8,0,0,1,2.09,1.08c1.74,2.23,3.32,4.59,5.35,7.44C922.6,742.07,918.08,743,913.49,741.76Zm10.12-9.3c2.1-1.11,3.84-1.38,5.79-.23,2.52,1.48,5.13,2.78,8.5,4.59l-8.5,3.84Zm13.16,24.9a2.81,2.81,0,0,1,1.93.49c4.33,2.79,9.7,11.07,11,17.16l-12.08,3.55a35.59,35.59,0,0,0-9.26-18.93C931.56,758.75,934.15,758,936.77,757.36Zm2.73-.84,8.42-4,20.23,15.73-16.65,6.25A39.79,39.79,0,0,0,939.5,756.52ZM955,703c-.24,0-.48,0-.71,0-4.86.68-8.88-.38-11.39-5.1a21.43,21.43,0,0,0-3.16-3.65c4-1,8-1.63,11.61-3.1s6.81-3.8,10.28-5.81c2.06,1.82,5.71,8.56,7.1,13.49A30.52,30.52,0,0,1,955,703Zm-9.71-11.45c-.93.18-1.89.27-2.83.4-4.69.61-8.52-1.14-11.83-5.67a49.42,49.42,0,0,0,22.31-13.75L961,683A29.16,29.16,0,0,1,945.25,691.54Zm-15.65-6.7c.21-3.8.35-7.09.61-10.37a2.25,2.25,0,0,1,1-1.34c4.25-2.84,8.53-5.62,13.13-8.63,2.48,2.28,4.88,4.5,7.51,6.94C945.57,678,938.63,682.62,929.6,684.84Zm.28-12.66c-.28-2.59-.48-4.42-.69-6.3l8.18-6.4,5.79,4Zm-51.2,88.88c-.34,5.38-.64,10.2-1,15.56L871.4,774c.5-3.61,1-7.08,1.48-10.61Zm-7.8,16.49,21.4,7.05c-3.77,11.38-19.48,17.64-30.57,10.46Q866.3,786.29,870.88,777.55Zm19.73,3.26a55.44,55.44,0,0,0,.53-26.72c4.16,1.45,7.82,2.13,9.85,5.88a29.76,29.76,0,0,1,3.13,20.36,14,14,0,0,1-.85,2.09Zm5.94,3.91c10.88,1.44,21.52.6,32.06-1.23,2.06,5.62-.15,13-5,17.12a16.66,16.66,0,0,1-27-15.89Zm26.28-3.2a39.45,39.45,0,0,0-7.22-20.91c3.62-.33,6.66-.63,9.7-.84a2.34,2.34,0,0,1,1.58.61,30,30,0,0,1,9.1,18.56Zm45-9.51c4,8.57-1.07,19.73-10.48,23.33a18.6,18.6,0,0,1-24.57-12.14Zm-18.62-20.27,6.42-4.52,26,15.19-12,5.19Zm36.72,12c-.55-5.1-1.08-10-1.63-15.09,2.25-1.27,4.52-.67,6.63-.18A20.77,20.77,0,0,1,1006.65,773a7.24,7.24,0,0,1-1.95,3.68c-11.44,10.74-28.09,5-33.06-6.56Zm-1.78-19.47c-2.61-12-5.21-24-7.86-36.22,9.33-2.64,19.35,3.24,22.19,12.78C1001.92,732.25,994,742.18,984.2,744.28Zm-9.69-40a114,114,0,0,0-15-28.44c3.94-4.22,12.77-5.33,18.62-2.1a16.79,16.79,0,0,1,8.57,17.13A16.52,16.52,0,0,1,974.51,704.29ZM957,672.38c-2.69-2.67-5.28-5.45-8.09-8s-5.71-4.67-8.83-7.2c1.92-2.67,4-5.26,5.72-8s3.23-5.83,4.82-8.75C962.86,646,965,663.79,957,672.38Zm14.58-70.09a49.83,49.83,0,0,0-12.81-23.08c4.75-.89,8.66-2,12.55.71a30.28,30.28,0,0,1,12.52,17.42A46.35,46.35,0,0,1,971.53,602.29Zm34.6-16.38c4.44,3.59,6.25,11,4.25,17a16.56,16.56,0,0,1-15.11,11.21c-7.27.19-13.43-3.84-16.39-11.08A109,109,0,0,0,1006.13,585.91Zm3.45-2.18,25.07-27.62c4.85,5,7.41,10.77,5.93,17.78a17.7,17.7,0,0,1-13.53,14.2C1020.56,589.81,1014.69,588.1,1009.58,583.73Zm27.13-31,9.28-12.58c-3.19-4.37-6.19-8.47-9.54-13.07a62.89,62.89,0,0,1,6.54-2.69,20.78,20.78,0,0,1,25.2,12.83,7.72,7.72,0,0,1,.11,5.54C1063.37,556.72,1046.67,560.42,1036.71,552.76Zm-2.17-28.7-24.81-27.31c5.1-6,18-7.92,26,.52C1043.14,505,1042.67,516.6,1034.54,524.06Zm-28.23-29.57c-8.34-6.86-17.3-13-27.35-17.17a16.85,16.85,0,0,1,15.13-11.2c6.24-.33,12.81,3.75,15.61,9.47C1012.14,480.58,1011.56,489.74,1006.31,494.49Zm-22.7-11.81a19.37,19.37,0,0,1-4.15,9.67,74.56,74.56,0,0,1-6.59,7c-3.92,3.9-8.54,3-13.52,2,2.64-3.89,5.37-7.32,7.43-11.11s3.4-7.8,5.29-12.29Zm-8.25-7.38-22.2-4.65c.26-6.34.52-12.81.81-19.72,6.19-.27,11.46,2.23,15.77,6.81A21.1,21.1,0,0,1,975.36,475.3Zm-168.43-352c10.55-1.17,21.11-2.28,31.67-3.39.93-.1,1.88,0,3,0,10.72,23.81,21.89,47.06,28.6,72.09a142.17,142.17,0,0,1,5.1,31.37c.74,19.46-3.83,37.4-16,53a9.64,9.64,0,0,1-2.11,2c2-5.71,3.29-11.45,1.78-17.46s-4.86-10.82-10.16-14.89l4-1.45c10.56-3.79,15.86-14.75,12.1-25.18a18.81,18.81,0,0,0-11.83-11.66c-1.21-.45-2.44-.83-4.07-1.38,7.67-6.82,11.43-14.74,8.14-24.69-3.21-9.72-10.59-14.21-20.87-15.12,1-1.31,1.71-2.12,2.36-2.94a23.83,23.83,0,0,0-1.56-31.69,8.64,8.64,0,0,0-3.92-2.23A24,24,0,0,0,805,144.21c-.39,1-.73,2-1.27,3.5-5.92-8.47-13.64-12.75-23.72-10.55s-15.26,9.13-17.1,19.48c-1.07-1-1.88-1.71-2.72-2.44-5.66-5-12.18-6.56-19.31-4.18s-11.71,7.32-13.07,14.79a33.72,33.72,0,0,0,0,7.45,29.39,29.39,0,0,0,.83,4.12c-13.36-4.85-24-1.64-32.77,9.17.37-1,.72-2.07,1.14-3.08,6.07-14.69,15.95-26.19,29.13-35,12.28-8.16,25.87-13.23,40-16.93A288.58,288.58,0,0,1,806.93,123.31ZM681.38,86.13c3.52-.89,7.18-1.78,10.92-1.49,2.14,4.85,4.15,15.59,3.77,20.35l-7,1ZM686,102.07l-.67.42L670.72,89l8.44-2.5A57.14,57.14,0,0,1,686,102.07Zm8.55-17.86h11.69A59.81,59.81,0,0,1,705,104.69H698.3C697,97.9,695.81,91.3,694.5,84.21Zm39.32,36.16-12.09,4.68c-3.56-1.9-6.68-3.87-10-5.27a14.54,14.54,0,0,0-9.16-.36c-1.22.3-2.31.4-3.22-.77-2.4-3.09-4.87-6.14-7.32-9.23C700.32,104.55,724.53,110.78,733.82,120.37Zm3.79-1.4-5.86-4.47a90.16,90.16,0,0,1,13.84-16.07c3.13,2.51,6,4.79,8.83,7.08Zm18.3-11.92c1.89,2,3.74,3.9,6.09,6.35L742.27,118C746,113.38,750.53,110.05,755.91,107.05Zm-25.68,6.38-6-3.19a72.36,72.36,0,0,1,9.29-18.69,60.8,60.8,0,0,1,10.27,5.87Zm-7.72-4.07-7-2.36c1.74-6.83,3.55-13.52,5.79-20.53l10.45,4.07C728.59,97,725.61,103.07,722.51,109.36Zm-8.22-2.75L707,105.22c.46-6.82.91-13.5,1.38-20.57,3.85-.24,7.36.59,11.18,1.6Zm7.56-36.16c24.22,5.86,43.61,19,58.73,39.72l-13.81,2.35c-1.42.25-2.08-.77-2.95-1.61-4.27-4.14-8.35-8.55-13-12.26-9.78-7.86-20.77-13.62-33.14-16.1a87.8,87.8,0,0,0-47.19,3.34c-.68.24-1.37.43-2.48.77l-11.74-9.74C677.78,67.25,699.47,65,721.85,70.45Zm-149.06,3c7.86-5.83,15.85-11.49,23.79-17.21.67-.49,1.41-.89,2.09-1.32a6.63,6.63,0,0,1,1,.49C618,68.42,636.42,81.2,653,96.43c9.61,8.83,18.46,18.34,25.66,29.29s12.06,22.45,13.94,35.33c1,6.55.75,17-.92,23.51-.94-6.11-2.77-11.8-7.15-16.38s-9.81-6.94-16.39-7.89c8-8,10.7-16.88,4.48-26.65-5.55-8.74-14-10.46-24-7.69.3-1.26.52-2.23.78-3.2,2.26-8.57.57-16.15-6.07-22.21s-14.1-7-22.34-4.15l-2.68.92c-.08,0-.21-.06-.5-.15.07-.76.07-1.58.21-2.37A23.89,23.89,0,0,0,601,67.41a8.72,8.72,0,0,0-4.48,0A23.89,23.89,0,0,0,579.43,94.8c.14.8.14,1.61.22,2.53-19.4-9.41-38.38,8.36-30.86,28.52-10.43-2.77-19.26-.74-24.68,9-5.26,9.5-2.29,17.9,5.2,25.36-14.12,2.36-21.72,10.63-23.63,24.41a73.33,73.33,0,0,1,3.73-40.83c5.23-13.46,13.46-25,23.14-35.49C544.64,95.16,558.47,84,572.79,73.4Zm-31.86,3.75-11.27,9.34c-4.33-1.18-8.52-2.53-12.8-3.45-31.74-6.86-58.67,2-80.84,25.39-3.08,3.24-5.75,4.76-10.08,3.41a70,70,0,0,0-8.44-1.59C441.6,72.09,498.49,55.74,540.93,77.15ZM329.47,184.35c5.2-17.18,12.44-33.56,19.79-49.89,2.15-4.78,4.34-9.55,6.67-14.64,3.28.26,6.58.45,9.87.81,10.43,1.12,20.89,2.14,31.3,3.5,19.08,2.51,37.92,6.15,55.81,13.59,14,5.81,26.45,13.76,36.2,25.57a73.12,73.12,0,0,1,12,20.64,10.61,10.61,0,0,1,.4,1.36c0,.09-.11.21-.28.49-8.26-11.05-18.91-14.24-32.21-9.47,2.68-10.84.66-19.89-9.69-25.14-9.19-4.67-17.34-2.08-24.61,5.53-1.86-10.23-7-17.37-17.12-19.58s-17.67,1.92-23.68,10.46l-1.51-3.73a23.91,23.91,0,0,0-28.11-14.18,9.38,9.38,0,0,0-4.17,2.48,23.94,23.94,0,0,0-1.07,31.72c.58.71,1.13,1.44,2,2.54-10.14,1.17-17.64,5.54-20.77,15.35s.39,17.73,8.26,24.56c-10.77,2.93-17.19,9.22-17.13,20.54a18.29,18.29,0,0,0,5,12.36c3.14,3.48,7.26,5.26,12.16,6.65-10.66,9-13.4,19.7-8.51,32.49a9.66,9.66,0,0,1-1.35-1.19,76,76,0,0,1-16.26-42.1C321,217.62,324.47,200.88,329.47,184.35Zm-76.41,14.78c17.28-18.31,38.5-28.69,64.18-31.42-1.76,4.81-3.18,9.09-5,13.21-.39.89-2,1.5-3.2,1.74a91.61,91.61,0,0,0-34.33,14.51c-17.37,12-27.19,29-32.56,49a17.32,17.32,0,0,0-.7,3.14c-.23,3.07-1.6,4.89-4.74,5.72-3.31.87-6.48,2.28-9.75,3.46C224.65,245.28,237.73,215.36,253.06,199.13Zm-6.42,42.45q1.91-5,4-10.48a81.53,81.53,0,0,1,20,6.91l-2.79,6.83ZM264.35,246l-19.66,6c-.63-2.9.71-5.33,1.39-8.13C252.08,243.32,257.85,244.23,264.35,246Zm-12.81-16.77,6-10.28A70.46,70.46,0,0,1,275,230.63c-1.3,2.11-2.41,3.91-3.52,5.73Zm36-11.6-4.82,4.14-15.55-14.64,8.7-7Zm-9.6-18.9,9.85-5.78,7.13,20-5.46,3.36C285.23,212.72,279.43,203.94,277.91,198.75ZM281,223.33,276.17,229l-17.51-11.7,7.16-8.88Zm21.65-10.12c-.69,4.57-1.35,9-2.07,13.66-7.74,2.18-13,7.15-15.11,15.11L272,244.14C275.28,230.47,290.35,216.7,302.67,213.21Zm-6-1c-3.37-6.22-5.33-12.84-7.2-20l10.66-4.08c1.09,7.23,2.1,14,3.19,21.19Zm5.71-24.67,8.37-2.1c-2,6.9-4.13,13-6.14,19.12A42.22,42.22,0,0,1,302.4,187.5ZM180.6,296.29c18.41-8.2,36.65-16.82,55.79-23.27,12.81-4.32,25.84-7.74,39.34-9,21-1.9,40.67,1.67,58,14.58a16,16,0,0,1,3,2.8c-12.68-4.61-23.44-2.16-32.19,8.63-2.92-10.5-8.85-17.13-20-17.07s-16.8,6.68-19.59,17c-6.68-7.85-14.67-11.44-24.62-8.3S226.12,292.35,225,302.5l-2.83-2.21a24.19,24.19,0,0,0-31,.75,9.72,9.72,0,0,0-3.36,6.09,24.07,24.07,0,0,0,15.62,27.09l2.74,1c-8.23,6-12.76,13.52-10.51,23.7s9.14,15.21,19.4,17.15l-2.69,3.09c-9.59,11.1-4.15,28.55,10.08,31.79,2.93.67,6.14.16,9.22.09a19.08,19.08,0,0,0,3.19-.67c-4.68,13.09-1.78,23.83,8.87,32.62-1.18-.44-2.37-.85-3.53-1.34-17-7.18-29.27-19.42-38.15-35.33-7.34-13.16-11.75-27.37-15-42a377.15,377.15,0,0,1-6.54-43.86c-.67-6.76-1.34-13.52-2.08-20.28C178.28,298.34,178.7,297.14,180.6,296.29Zm-2.91,142.89c-.07.07-.7.6-1.34,1.11l-8.63,6.88c-3.57-11.83,1.43-32.31,11.22-42.09.84,2.22,1.59,4.27,2.38,6.3s1.66,4.2,2.24,5.68c-2,3.86-4.26,7.06-5.21,10.62S177.87,434.93,177.69,439.18Zm-32.85,18.34c-1.17-1.46-1-3.67-1.35-5.67-.87-5.57-.81-5.68,4.77-6.88,4.06-.87,8.19-1.46,12.29-2.12a21.37,21.37,0,0,1,3,0c.35,2.6.66,4.91.94,7Zm16.63-4.34-13.92,15c-1-3.16-1.7-5.63-2.4-8C148.44,457.21,156.43,453.72,161.47,453.18Zm-18.58-8.73V433c4.87-1.26,12.92-.83,20.33,1v6.62ZM163.82,432l-21-1.42c.58-3.7,1.14-7.25,1.76-11.17L165,424.62C164.59,427.15,164.23,429.44,163.82,432ZM145,417.74c1.44-3.76,2.74-7.15,4.06-10.63l18.81,9.3-2.37,7.08Zm5.23-12.2c1.3-3.88,3.51-7.06,5.73-10.44l16,13.62-3.22,5.88A69.92,69.92,0,0,1,150.22,405.54ZM173,407.2a96.54,96.54,0,0,1-16.08-13.77l7.13-8.82,13.46,16.75Zm3.58-10.1c-3.86-3-8.52-9.11-10.83-14.2L172,377ZM128,422c5.27-26.26,18.56-47.36,40.79-63.62.87,4.86,1.5,8.85,2.33,12.81.41,2-.51,3-1.87,4.21A88.55,88.55,0,0,0,143.42,413c-4.15,11.59-4.56,23.59-3.43,35.67a78.59,78.59,0,0,0,4.54,19.81c.45,1.23.86,2.41-.23,3.66-2.81,3.23-5.51,6.55-8.27,9.86C128.31,473.74,124,441.58,128,422Zm-3.55,133.9c-3.69-5.12-7.36-10.27-11.23-15.67,16.68-23.13,32.47-46.51,53.3-65.82,11.39-10.56,23.88-19.41,38.72-24.54a74.51,74.51,0,0,1,35.63-3.31,3.4,3.4,0,0,1,1.6.67c-13.29,2.19-21.24,9.66-23.56,23-1.42.08-1.94-1.2-2.76-1.92-7.43-6.5-17.29-7.09-25-1.33-6.74,5-8.75,11.91-7.42,20,.14.91.35,1.81.62,3.22-1.44-.33-2.53-.55-3.61-.83a21.4,21.4,0,0,0-27.2,21.87,22.87,22.87,0,0,0,.86,4.91c.43,1.6,1.12,3.12,1.83,5-1.24-.12-2.25-.16-3.24-.32a24.09,24.09,0,0,0-27,16.8,8.35,8.35,0,0,0,0,5.23,24.22,24.22,0,0,0,27.44,16.66l2.54-.44c-9.78,20.69,9.61,38.68,28.42,31-2.64,10.25-.86,19.09,8.77,24.54,9.43,5.33,17.89,2.6,25.57-5,2.55,14.24,10.91,21.86,24.88,23.47A58.45,58.45,0,0,1,228,634.74c-14.15-.42-27.17-4.68-39.3-11.88-11.08-6.57-20.7-14.92-29.63-24.12C146.18,585.51,135.17,570.79,124.41,555.87Zm24.88,117.31a39.52,39.52,0,0,1-4-10.61L165.36,657c.9,2.43,1.73,4.7,2.58,7Zm19.46-7.42,3.24,5.93-16,13.52a49.92,49.92,0,0,1-5.93-10.1A66.29,66.29,0,0,1,168.75,665.76Zm-4.24-35.18c-.29,2.21-.59,4.54-.94,7.17A77.7,77.7,0,0,1,142.71,634c.59-3.8,1.15-7.46,1.73-11.2ZM145,620.6l2.53-8.38c2.66,2.89,4.86,5.31,7.09,7.69s4.57,4.82,6.72,7.45A50,50,0,0,1,145,620.6ZM143,636l20.2,3.76v6.63c-6.43,1.79-13.11,1.86-19.79,1.43C142.43,645.18,142.28,640.43,143,636Zm20.79,12.52c.4,2.11.83,4.41,1.33,7.06-6.63,2.22-13.3,3.65-20.08,5.33-1.67-3.64-1.47-7.34-2.23-11.14Zm6.8,63.69a78.17,78.17,0,0,0-1.59,8.42c0,.2-.27.36-.59.77-39.44-26.86-53.05-81.76-32.85-123.14a18.42,18.42,0,0,1,1.76,1.57c1.85,2.18,3.52,4.54,5.52,6.57s2.34,3.91,1.34,6.66a82.39,82.39,0,0,0-4.54,22.71c-1.81,27.13,8.31,49.39,27.94,67.59C170.43,706,171.7,708.36,170.54,712.19Zm1.47-8.75-6.12-5.69c1.45-4.32,6.42-11.07,10.58-14.1C175,690.3,173.58,696.44,172,703.44Zm-8-7.59-7-8.77a84.67,84.67,0,0,1,16-13.78l4.59,5.77Zm3.78-62.69,10.61,8.51c-2,7.92-.28,14.77,5.48,20.64L179.06,675C169.19,666.55,164,643.92,167.81,633.16Zm86.3,249.24c-15.4-16.14-29.67-47.15-27-60.46l12.38,4.54c1.54.56,1.45,2,1.79,3.26,1.31,4.7,2.25,9.54,3.94,14.1,10.86,29.25,32.16,46.47,62.2,53.47.47.11.94.19,1.4.29l3.2.71,5,13.52C304.35,912.79,274.74,904,254.11,882.4Zm46.05,9.7a44,44,0,0,1-10.57-4,87.28,87.28,0,0,1,7-19.71l6.8,2.7C302.29,878.1,301.26,884.89,300.16,892.1Zm4.73-16.33c1.85,6,3.7,12,5.62,18.31-3.05.72-5.46-.43-8-1.39A36.79,36.79,0,0,1,304.89,875.77Zm-23-17.85,5.64,4.89c-3.92,5.85-7.68,11.46-11.69,17.42l-8.92-7.1Zm-16,14.05-7.21-8.84,17.52-11.7,4.87,5.64Zm23.38-8,5.67,3.51-7.13,19.93-10.24-5.87A66.78,66.78,0,0,1,289.22,864Zm-17.37-27.69c4.38.62,8.38,1.1,12.34,1.81A3.21,3.21,0,0,1,286,840a20.2,20.2,0,0,0,13,12.91,3.09,3.09,0,0,1,1.82,1.86c.73,4,1.24,8,1.83,12C291.47,865.22,275.83,849.78,271.85,836.26Zm3.2,13.52a69,69,0,0,1-17.58,11.65c-2-3.52-4-6.87-6-10.28l19.88-7Zm-24.36-.41-4.1-10.49,21.25-3.34,2.8,6.84A83.28,83.28,0,0,1,250.69,849.37Zm-4.09-12.78a11.63,11.63,0,0,1-1.75-8.16l18.57,5.7C259.57,836,252.13,837.08,246.6,836.59ZM296,816.3c-16.69,1.82-32.82-1.06-48.77-5.54-18-5-35.06-12.41-52-20.06-5.54-2.49-11.08-5-16.93-7.65.4-4.66.67-8.94,1.16-13.2,1.31-11.49,2.49-23,4.14-34.45,2.72-18.95,6.91-37.55,15.18-55,5.59-11.79,13-22.26,23.12-30.62a75.47,75.47,0,0,1,18.33-11.07,8.9,8.9,0,0,1,3.18-.69c-4.63,4-8.29,8.54-9.87,14.49s-.83,11.53,1.4,17.55c-10.56-2.8-19.35-.89-24.76,8.72-5.3,9.42-2.7,17.92,4.79,25.34-20.9,3.13-27.43,28.54-9,41.08-1.1.43-2.08.83-3.06,1.19-9.55,3.54-17.54,13.78-14.89,27.83a8.37,8.37,0,0,0,2.82,4.82,24,24,0,0,0,31.77.72c.62-.52,1.26-1,2.24-1.84.3,1.39.57,2.48.77,3.59,1.57,8.63,6.43,14.57,14.8,17.24s15.53.5,21.75-5.43a10.83,10.83,0,0,0,1.21-1.32c.35-.48.62-1,1.34-2.23,3.14,11.57,9.58,18.25,21.05,17.7,10.27-.48,16-6.93,18.63-17.05,9.05,10.62,19.79,13.56,32.74,8.35a13.5,13.5,0,0,1-1.48,1.54A75.63,75.63,0,0,1,296,816.3Zm85.43,141.83q-11.4,1.14-22.79,2.27c-.82.08-1.65,0-2.5,0a4.56,4.56,0,0,1-.68-.84c-8.48-18.56-17.12-37.06-23.73-56.4A180.09,180.09,0,0,1,322.84,866c-2-17.28-.52-34.12,7.61-49.83,2.45-4.74,5.76-9,8.66-13.54.37-.57.63-1.21.95-1.82.2.2.4.41.61.61-5.68,13.63-2.84,23.93,7.76,33.15-10.53,2.82-17.15,9.06-17,20.38.12,9.6,5.67,15.5,17.15,19.11-8.18,7-11.83,15.41-7.9,25.8,3.41,9,10.63,13.1,20.57,14-.94,1.14-1.64,2-2.32,2.81a24.08,24.08,0,0,0,.82,31.24,9.16,9.16,0,0,0,5.47,3.07c12.41,2.24,23.39-4.1,27.74-16.06.23-.63.51-1.24.9-2.19,6.29,8.86,14.31,12.94,24.91,10.24,8.26-2.1,13.39-8.24,15.94-19.08l2.91,2.57a19.34,19.34,0,0,0,25.58.3c5.82-4.88,7.79-11.23,6.62-18.63-.18-1.17-.53-2.32-.94-4.07,6,2,11.87,3.06,17.89,1.24s10.72-5.56,14.86-10.38c-.39,1.07-.73,2.15-1.16,3.2C494.19,913.35,483.79,925,470,933.82c-12.3,7.88-25.84,12.78-39.9,16.34C414.15,954.22,397.85,956.49,381.45,958.13Zm134.7,36.33-11.08,1.83a88.82,88.82,0,0,1-4-20.87l7.31-1C511,981.23,513.5,987.62,516.15,994.46Zm-4.68-17.28,15.16,14.13c-1.61.55-2.86,1-4.13,1.4s-2.5.72-3.71,1.06C516,990.85,512.54,983.21,511.47,977.18ZM503,996a42.47,42.47,0,0,1-11.71.07,60.47,60.47,0,0,1,1.31-20.5h6.62Zm-39.28-36c3.83-1.49,7.39-2.83,10.92-4.27a2.75,2.75,0,0,1,3.25.5c5.51,5,12,6,19.3,4.33l8.42,10.42C497.19,975,473.94,970.62,463.68,959.94Zm-3.8,1.52,5.83,4.49A95.27,95.27,0,0,1,452,982l-8.86-7.11Zm-18.47,11.7c-1.77-1.85-3.61-3.8-5.87-6.18l20.08-4.64A41.86,41.86,0,0,1,441.41,973.16Zm25.85-6.2,5.67,3.1c-1.27,5.66-5.32,13.88-9.3,18.88l-10.12-5.82ZM475,971l7,2.46L476.3,994l-10.59-4.12C468.91,983.41,471.91,977.3,475,971Zm8.24,2.78,7.25,1.42c-.46,6.9-.9,13.61-1.39,21l-11-1.75C479.5,987.35,481.46,980.72,483.24,973.82Zm-65.83-3.73,13.73-2.42c4.21,4,7.94,7.63,11.87,11.1a84.64,84.64,0,0,0,30.91,17.5,79.29,79.29,0,0,0,29.71,3,90,90,0,0,0,23.73-5,3.05,3.05,0,0,1,3.34.36c3.27,2.78,6.58,5.49,10.21,8.51C500.3,1023.63,443.47,1010.09,417.41,970.09Zm209.44,35.28c-8.62,6.4-17.37,12.63-26.07,18.94-.58.41-1.19.78-1.76,1.16a3.91,3.91,0,0,1-1.08-.35c-18.1-12.86-36.35-25.53-52.8-40.54-11-10-21-20.86-28.69-33.68a82,82,0,0,1-11.56-31.72,76.16,76.16,0,0,1,.72-24.36c.41,1.8.71,2.78.86,3.78a24.58,24.58,0,0,0,19.81,20.92c.8.17,1.6.38,2.88.68-1,1.16-1.82,2.08-2.62,3-9.34,10.94-4.72,27.52,8.83,31.63a17.4,17.4,0,0,0,8.83.59c1.38-.29,2.77-.52,4.67-.88-3.17,9.69-2.39,18.45,5.33,25.38s16.32,7,25.58,2.73c-.12,1.09-.14,1.91-.29,2.7a24,24,0,0,0,16.39,27.52,8.77,8.77,0,0,0,5.59,0A24.07,24.07,0,0,0,618,985.48c-.15-.8-.22-1.62-.39-2.82,9.26,4.17,17.95,4.18,25.58-2.65s8.66-15.49,5.37-25.31l4.61.71a19.46,19.46,0,0,0,22.57-21.48,19.84,19.84,0,0,0-5.21-11.17c-.63-.71-1.29-1.38-2.39-2.55,14.29-2.49,21.84-10.85,23.64-24.66,3.23,17.29.58,33.55-7.27,49-6,11.72-14,21.87-23.14,31.24A280.91,280.91,0,0,1,626.85,1005.37Zm127.5-30.48-8.74,7.16a92.45,92.45,0,0,1-13.8-16l5.76-4.59Zm-12.44-12.55,20,4.59c-2.07,2.27-3.85,4.22-5.55,6.1C752.05,971.65,745.08,966.54,741.91,962.34Zm-26.47,11.2,7-2.5c3.1,6.26,6.07,12.29,9.33,18.88L721.18,994Zm4.17,20.87-11.23,1.76c-.45-7.07-.88-13.68-1.34-20.83l7.24-1.63C716.06,980.62,717.78,987.33,719.61,994.41Zm4.75-24.23L730.2,967l13.74,16.12-10.27,6A68.11,68.11,0,0,1,724.36,970.18Zm-32.77,1.14c3-3.76,5.74-7.17,8.56-10.7,1.38.17,2.77.36,4.16.52a18.29,18.29,0,0,0,14.59-4.44,3.93,3.93,0,0,1,4.81-.71c3.22,1.44,6.56,2.61,9.93,3.91C726.46,968.21,706.15,975,691.59,971.32Zm-2.49,3.18,7.17.93c-.17,7-1.72,13.65-3.62,20.52-3.93.13-7.57-.81-11.28-1.55C684,987.59,686.49,981.21,689.1,974.5Zm-10,19.41-8.36-2.51c5.21-4.87,10-9.35,14.8-13.84A43.32,43.32,0,0,1,679.13,993.91Zm19.18-18.36h6.61a60.35,60.35,0,0,1,1.37,20.37,41,41,0,0,1-11.76.2C695.81,989.2,697,982.58,698.31,975.55Zm-41.85,27.75L667,994.57c1.24-1,2.43-.34,3.7,0,5.31,1.35,10.58,3,16,3.85,25.64,4.21,48.18-2.7,67.73-19.57,4-3.42,7.52-7.3,11.51-11.21l14.1,2.45C756.22,1007.54,700.62,1024.77,656.46,1003.3ZM867.55,897.72c-5.39,17.36-12.79,33.93-20.28,50.45-1.87,4.11-3.75,8.22-5.72,12.52-4.9-.43-9.64-.72-14.35-1.29-13-1.56-26.08-3-39.05-4.95-16.56-2.52-32.73-6.61-48-13.67-13.2-6.09-24.78-14.32-33.64-26a73.92,73.92,0,0,1-10.07-18.09,5.16,5.16,0,0,1-.35-1.85c8.55,10.83,19.2,14.29,32.57,9.17-2.84,10.38-.92,18.77,8.07,24.53a18.43,18.43,0,0,0,13.72,2.65c4.9-.9,8.63-3.75,12.23-7.11,3.94,22,29.3,26.64,41.08,8.9.37,1,.69,1.84,1,2.69a24,24,0,0,0,28.54,15.14,9.28,9.28,0,0,0,4.15-2.55,24,24,0,0,0,1.22-31.45l-2.31-2.8c10.93-1.14,18.62-6.12,21.33-16.81,2.39-9.36-1.31-16.78-8.77-23.07,11-2.89,17.63-9.36,17.09-20.94-.44-9.54-5.56-14.77-17-18.63,10.61-8.8,13.4-19.56,8.58-32.42a24.26,24.26,0,0,1,1.84,2,76.21,76.21,0,0,1,15.66,41.21C876.54,863.37,872.84,880.66,867.55,897.72Zm77.34-16.93c-20.27,22.11-49.16,31.62-64.38,31.09l5-13.49c3.56-.87,7-1.57,10.46-2.56,15.65-4.59,29.5-12.28,40.34-24.64a85.9,85.9,0,0,0,19.79-40.7c.52-2.64,1.54-4.2,4.24-4.93,3.21-.87,6.29-2.21,9.43-3.33a1.9,1.9,0,0,1,.7,0C973.13,834,959.56,864.79,944.89,880.79Zm6-41.88L947,849c-4.61-.17-15.11-3.77-20-6.81l2.67-6.62Zm-16.7-4.77,18.64-5.77c.44,3.08-.63,5.56-1.61,8.34C945.44,836.78,939.81,836.32,934.17,834.14Zm11.79,17c-2,3.39-3.87,6.74-5.93,10.31a72,72,0,0,1-17.56-11.66L926,844.1Zm-36,11.66,5-4.35,15.22,14.44a37.54,37.54,0,0,1-8.62,7.21Zm10,18.73-10.26,5.84c-2.42-6.78-4.68-13.12-7.1-19.92l5.72-3.53A69.54,69.54,0,0,1,920,881.55Zm-3.52-24.46c1.75-2,3.33-3.9,4.84-5.67l17.54,11.7L931.63,872Zm-21.71,10.37c.71-4.81,1.25-8.8,2-12.77a2.69,2.69,0,0,1,1.55-1.7,20.09,20.09,0,0,0,13.37-13.41,2.4,2.4,0,0,1,1.41-1.43c4.08-.7,8.19-1.26,13-2C920,851.3,909.92,861.29,894.75,867.46Zm5.85,1c2.64,3.83,5.94,12.91,7.13,19.64a53.29,53.29,0,0,1-10.39,4.16c-1.08-7.12-2.13-14-3.22-21.19Zm-5.76,24.6-7.15,1.67a4.82,4.82,0,0,1-.47-.41.53.53,0,0,1-.12-.32l5.42-18.14C894.5,878.21,895.68,886.71,894.84,893.05Zm92.24-95.71c-15.69,6.75-31.66,12.73-48.42,16.33-14.1,3-28.28,4.39-42.64,1.86A75.53,75.53,0,0,1,861.45,800c-.45-.37-1-.56-1.36-1.26,13,5.1,23.82,2.45,33-8.33,3,10.8,9.34,17.25,20.64,17.09,9.07-.13,14.29-5,18.92-16.65,14.52,17.32,38.81,7.66,40.1-12.91,1,.84,1.91,1.59,2.82,2.31a23.93,23.93,0,0,0,31.69-1.86,8.87,8.87,0,0,0,2.24-4.31c2.7-14.3-5.52-24.25-14.93-27.78-1-.36-1.95-.74-3.07-1.17,17.64-11.56,13.1-37.39-8.92-41.12,7.82-7.81,10-16.57,4.18-26.28-4.69-7.79-12.28-10.15-24.09-7.8,2.09-6.08,3-12.09,1.09-18.18s-5.69-10.65-10.66-14.61c1.2.43,2.41.83,3.58,1.31,16.29,6.73,28.43,18.14,37.36,33.16,7.58,12.76,12.22,26.64,15.6,41a323.75,323.75,0,0,1,6.58,40.59c.84,7.95,1.72,15.89,2.54,23.84.19,1.89.24,3.79.38,6.08C1008.23,788,997.71,792.77,987.08,797.34Zm32-155.53,10.44-8.47c3.84,8.2.07,31-11,41.91-1.64-4.28-3.25-8.46-4.95-12.86C1019.24,656.7,1021.16,649.9,1019.06,641.81Zm33.59-18.88c1.5,3.29,1.43,7.06,2,10.65-4.29,2.14-15.65,4.32-20.75,3.92-.31-2.38-.6-4.61-.91-6.93Zm-16.83,4.43L1050,612.22l2.34,8.07A39.36,39.36,0,0,1,1035.82,627.36Zm18.75,8.62v11.73a63.59,63.59,0,0,1-20.25-1.24v-6.75Zm-20.86,12.5,20.66,1.24c.24,3.58-.75,7.07-1.36,10.56-2.54.3-15.1-2.64-20.54-4.81C1032.9,653,1033.31,650.69,1033.71,648.48Zm18.83,14.16c-1.5,3.89-2.8,7.28-4.09,10.64L1029.67,664c.7-2.1,1.46-4.4,2.34-7.07Zm-5.1,12.38a58,58,0,0,1-5.94,10.25l-16-13.59,3.27-5.92A70.94,70.94,0,0,1,1047.44,675Zm-22.93-1.76a91.15,91.15,0,0,1,16,13.77l-7.1,8.81c-4.6-5.73-9-11.14-13.49-16.77ZM1021,683.89c3.29,1.91,7.29,7,10.82,13.58l-6.36,6C1023.92,696.56,1022.51,690.35,1021,683.89Zm47-18.52c-6.19,22.84-24.7,49.51-39.33,55.93-.79-4.5-1.72-8.9-2.23-13.35-.11-.94,1.09-2.26,2-3.05a91.88,91.88,0,0,0,16.77-19.45c14.48-22.4,16.18-46.38,8.49-71.36-1.09-3.53-.92-6,1.71-8.51,2.12-2.07,3.89-4.51,5.84-6.76.13-.14.43-.13.65-.19C1070.32,613.18,1074.64,640.8,1068,665.37Zm15.45-124.11c-12,16.79-23.82,33.77-37.5,49.29A185.41,185.41,0,0,1,1022,613.67c-11.75,9.3-24.59,16.45-39.42,19.49a68.54,68.54,0,0,1-28.38,0c13.7-1.73,21.95-9.17,24.57-23.28l3.05,2.62a19.61,19.61,0,0,0,31.73-9.35,21.53,21.53,0,0,0,.17-10.28c-.16-.8-.34-1.59-.62-2.87,9.77,3.48,18.47,2.39,25.41-5.27s7-16.29,2.81-25.47c2.41.22,4.52.54,6.64.58A24,24,0,0,0,1071.53,543a8.74,8.74,0,0,0,0-5.58,24.12,24.12,0,0,0-27.15-16.55c-.81.13-1.63.22-3,.39,4.1-9.22,4-17.88-2.74-25.47s-15.47-8.7-25.35-5.45c.25-1.39.42-2.39.61-3.38,2.42-13-7.07-24.42-19.86-23.92a20,20,0,0,0-12.37,5c-.81.69-1.6,1.39-2.82,2.47-2.52-13.36-10.21-21.16-23.6-23,0-.24.07-.48.11-.72,2.74-.31,5.47-.74,8.21-.89,17.31-1,33,4,47.53,13.12,11.63,7.28,21.62,16.48,30.91,26.5,11,11.85,20.65,24.74,30.09,37.81,4,5.51,7.94,11.05,11.94,16.63A7,7,0,0,1,1083.44,541.26Z"/></svg>