<svg id="Layer_1" data-name="Layer 1" xmlns="http://www.w3.org/2000/svg" viewBox="0 0 692.25 696.67"><path d="M214.33,31.59c11.2,7.12,22.09,14.25,33.21,21,4.62,2.82,9.75,4.79,14.57,7.3,2.08,1.08,3.35.63,4.94-1A216.84,216.84,0,0,1,324,16.26c5.9-3,12.14-5.39,18.18-8.15a9.69,9.69,0,0,1,8,0C374.86,17.64,396.5,32,416,49.75c3.21,2.93,6.39,5.93,9.32,9.14,1.57,1.71,2.8,2,4.93,1A216.32,216.32,0,0,0,474.8,33l2.94-2.25c1.17,6.32,1.88,12.4,3.46,18.25,3,11.18,6.33,22.29,9.86,33.32,1.82,5.7,2.14,5.59,8.07,5.49,28.32-.48,55.85,3.53,82.46,13.64,5.79,2.2,9.17,5.49,11.38,11.28,10.41,27.3,14.44,55.57,13.63,84.63-.09,3.12,1,4.36,3.69,5.46,17,6.88,34.72,11.12,53.49,13.79-.86,1.19-1.49,2.1-2.17,3a218.05,218.05,0,0,0-26.8,44.25c-1.13,2.5-.76,3.86,1.22,5.81,21.69,21.38,39.11,45.67,50.2,74.25a11.57,11.57,0,0,1-.05,9c-11.07,28.6-28.55,52.85-50.22,74.23-2,2-2.24,3.32-1.12,5.82a218.58,218.58,0,0,0,26.39,43.67c.66.86,1.34,1.7,2,2.58.11.15,0,.45,0,.46-10.17,2.23-20.36,4.11-30.35,6.77-7.91,2.1-15.55,5.24-23.36,7.78-2.39.78-3,2.1-2.89,4.54.78,27.81-2.42,55.1-12.34,81.21-5.67,14.92-1.64,10.92-16.59,16.6-25.89,9.83-52.93,13.06-80.49,12.28-3.05-.08-4.41.83-5.52,3.61a223.26,223.26,0,0,0-13.4,51.07c-.1.68-.24,1.36-.41,2.3-6.13-4.32-11.77-8.86-17.93-12.52-9.64-5.74-19.66-10.83-29.46-16.31-2.35-1.31-3.72-.66-5.49,1.14-21.44,21.82-45.84,39.26-74.52,50.42a11.27,11.27,0,0,1-8.7,0c-28.68-11.15-53.08-28.63-74.52-50.43-1.83-1.86-3.14-2.19-5.52-1.12a220,220,0,0,0-44,26.56l-3.19,2.52c-1.18-6.44-1.87-12.64-3.52-18.59-3.28-11.85-7.13-23.54-10.64-35.33-.79-2.66-2.21-3.38-5-3.31-29.17.8-57.57-3.11-85-13.65-5.64-2.17-8.93-5.4-11.1-11.07C89.08,557.2,85,529.29,85.71,500.6c.1-3.85-.95-5.67-4.6-7.08a232.57,232.57,0,0,0-50.07-13c-.68-.1-1.35-.23-2.43-.43,3.35-4.57,6.81-8.61,9.48-13.12,6.63-11.21,12.86-22.67,19.35-34,1.38-2.42.89-3.87-1.1-5.82C34.56,405.74,17.06,381.36,6,352.63a10.84,10.84,0,0,1,0-8.35,192.32,192.32,0,0,1,31.89-54c6-7.24,12.46-14.13,18.9-21,1.59-1.69,1.86-2.85.93-4.95a216.8,216.8,0,0,0-26.48-44c-.79-1-1.58-2.05-2.62-3.42,6.51-1.21,12.74-1.95,18.73-3.56,11-2.93,21.83-6.19,32.63-9.67,5.9-1.9,5.77-2.23,5.67-8.36-.45-27.08,3.12-53.53,12.54-79,4.39-11.88,4.49-11.79,16.3-16.08,26.14-9.48,53.19-13,80.87-12.22,2.92.09,4.17-.76,5.25-3.45a222.83,222.83,0,0,0,13.45-51C214.11,32.73,214.25,32,214.33,31.59ZM342.14,578.46c23.62-.2,43.08-2.21,62.1-7.25,50.92-13.52,94.37-38.67,126-81.89a234.39,234.39,0,0,0,43.72-108.85c5.43-40.57,1-80.15-13.87-118.31C541.8,215.33,512.66,177.27,468.48,152c-66.42-38-135.9-44.22-207.66-17.69-45.51,16.83-82.75,44.9-108.08,87-42.07,69.94-48.06,143.16-18.13,219,11.07,28.06,27,53.51,49.09,74.16C229.25,557.09,283.93,577.52,342.14,578.46ZM657.32,477.65c-.62-.95-.83-1.36-1.12-1.71-10.08-12.12-20.88-23.5-33.54-33-9.56-7.15-19.68-13.19-31.73-15.09-8.25-1.3-16.19-.48-23.35,4.18a13.45,13.45,0,0,0-4.4,4.14c-6.43,11.26-1.6,22.16,4.88,27.94,5.54,4.94,12.11,7.89,19.16,9.83C610.1,480.29,633.34,479.59,657.32,477.65ZM216.11,659l1.73.44c6.18-5.72,12.55-11.26,18.52-17.2,11-11,20.91-22.84,26.89-37.42,4.11-10,5.88-20.29,1.42-30.61-1.39-3.21-3.47-6.75-6.25-8.59-5.91-3.91-12.64-4.35-19.37-1.46-9.08,3.89-13.58,11.65-16.85,20.29-4.24,11.19-6,22.93-6.25,34.79C215.63,632.51,216,645.77,216.11,659ZM476.17,37.73l-1.52-.19c-11.71,9.73-22.8,20.08-32.21,32.14-6.51,8.33-12.11,17.18-15.21,27.39-3.18,10.48-3.33,20.74,2.95,30.29a12.34,12.34,0,0,0,4,4.06,21.46,21.46,0,0,0,28.25-5.74,66,66,0,0,0,8.46-15.83c3.9-10.36,5.27-21.37,5.52-32.37C476.69,64.24,476.27,51,476.17,37.73ZM34.91,477.42a30.2,30.2,0,0,0,3.74.65c12,.27,23.92.9,35.87.61s23.59-2,34.84-6.05c7.61-2.76,14.62-6.46,19.15-13.56,6.61-10.34,4.9-26-10.47-30.09a44.77,44.77,0,0,0-10-1.51c-9.08-.27-17.32,2.85-25.17,7.06-16.12,8.65-28.95,21.24-41,34.71C39.61,471.82,37.41,474.49,34.91,477.42ZM218,37.08l-1.16.73c-.32,4.69-.72,9.38-.94,14.07-.84,17.81-.46,35.55,4,52.94,2.4,9.34,5.83,18.24,13.67,24.56,9.77,7.86,27.1,7.43,31.95-8.56,3.13-10.3,1.49-20.06-2.54-29.65-5-11.75-12.44-21.85-21.17-31C234.16,52.23,226,44.77,218,37.08ZM657.09,219.65l-.31-1.3c-13.36-.08-26.73-.51-40.08-.15-12.22.33-24.3,2.16-35.78,6.72-7,2.77-13.24,6.5-17.31,13.1-6.42,10.39-4.48,25.79,10.65,29.78a43.46,43.46,0,0,0,8.52,1.49c9.87.58,18.79-2.72,27.25-7.36,17-9.35,30.38-22.94,43-37.36C654.43,223,655.74,221.29,657.09,219.65Zm-621.46-.57-.7,1.07c7,7.41,13.84,15.1,21.21,22.17,11.23,10.76,23.43,20.25,38.59,25,10.32,3.22,20.48,3.37,30-2.61a12.8,12.8,0,0,0,4.4-4.15,21.54,21.54,0,0,0-2.22-25c-5.69-6.94-13.53-10.41-21.88-12.72C82.18,216.48,58.93,217.16,35.63,219.08Zm439,440.21,1.53-.34c.05-13.39.39-26.77.06-40.15-.29-12.11-2.13-24.07-6.62-35.45-2.74-7-6.46-13.23-13-17.42-9.23-5.92-23.33-4.45-28.19,6.05a34.86,34.86,0,0,0-2.8,21.51c1.65,9,5.41,17,10.3,24.56C446.37,634.15,460.07,647.15,474.66,659.29ZM602.11,377.94a77.83,77.83,0,0,0,18.21-28.07,4.3,4.3,0,0,0,.07-2.81,78,78,0,0,0-19.27-29.16,40.32,40.32,0,0,1-22.18,7.91v43.91ZM113.38,371V327l-23.17-8.14a75.78,75.78,0,0,0-18.29,28.29A4.27,4.27,0,0,0,72,350a78,78,0,0,0,19.13,28.86C97.94,374.12,105.28,371.24,113.38,371ZM323.63,115.56h45.14c.15-8.1,3.17-15.49,7.88-22.27a80.15,80.15,0,0,0-28.5-18.91,5.41,5.41,0,0,0-3.5-.17A78,78,0,0,0,315.7,93.38,40.51,40.51,0,0,1,323.63,115.56Zm45,465.68H323.57c-.28,8-3.1,15.38-7.91,22.2a79.33,79.33,0,0,0,29.26,19.25,3.83,3.83,0,0,0,2.48,0,77.84,77.84,0,0,0,29.21-19.29A40.5,40.5,0,0,1,368.66,581.24ZM166.07,195.55l27.19-27.29c-3.16-7-6.34-14-9.81-21.71-7.61-.54-15.94,1.11-24.33,3-6.67,1.46-10.26,4.92-11.75,11.64-1.89,8.5-3.61,16.93-3,24.51Zm360.14,305.7L499.13,528.5c3.16,7.1,6.31,14.16,9.7,21.76a75.62,75.62,0,0,0,31.69-5.71,3.41,3.41,0,0,0,1.7-1.69A74.51,74.51,0,0,0,548,511.14Zm-361-.76a36.08,36.08,0,0,1-18.81,9c-2.31.37-2.15,1.75-2.18,3.35a83.25,83.25,0,0,0,4.62,27.35,7.82,7.82,0,0,0,5.47,5.55c9.82,3.18,19.76,5.19,29,4.5,3.51-7.75,6.69-14.8,9.81-21.71C184.35,519.63,174.85,510.1,165.25,500.49ZM547.61,186.92c1.38-8.75-1.28-25.23-5.28-32.82a4.39,4.39,0,0,0-2-1.91,74.09,74.09,0,0,0-30.77-5.63,2.9,2.9,0,0,0-2.18,1.63,40.4,40.4,0,0,1-9,19.35L527,196.23C532.54,191,539.71,188.33,547.61,186.92ZM298.48,619.81c.95,1.09,1.66,2,2.5,2.85,12.68,12.41,27.44,21.66,43.73,28.53a5.22,5.22,0,0,0,3.67-.27,139.47,139.47,0,0,0,33.78-20.08c4.13-3.4,8-7.14,12-10.82l-7.52-5.64a118.73,118.73,0,0,1-37.25,25.51c-2.27,1-4.27,1.25-6.49,0-6.94-3.89-14.19-7.31-20.81-11.67-6-4-11.31-8.91-17-13.49ZM617.48,396a12.18,12.18,0,0,0,1.2-.85,131.84,131.84,0,0,0,30.06-45.21,5.94,5.94,0,0,0-.39-4,134.52,134.52,0,0,0-27.3-41.94c-1.06-1.09-2.22-2.09-3.52-3.31l-5.38,7.2a113.14,113.14,0,0,1,25.56,37.88,7.3,7.3,0,0,1,0,5.38c-3.45,6.89-6.86,13.87-11.09,20.29s-9.24,12-14.06,18.07c.88,1.19,1.94,2.64,3,4.08C616.14,394.26,616.74,395,617.48,396ZM393.83,77c-.63-.76-1-1.25-1.38-1.67a133.92,133.92,0,0,0-44.74-29.56,6,6,0,0,0-4,.37,132.86,132.86,0,0,0-31.8,18.58c-4.67,3.71-9,7.83-13.81,12l7.55,5.65A119.21,119.21,0,0,1,341.69,57.4c3.07-1.41,5.76-1.83,8.84,0,4.39,2.53,9.24,4.34,13.41,7.17,7.94,5.4,15.54,11.3,23.59,17.22-.33.18,0,.05.28-.16C389.72,80.13,391.62,78.66,393.83,77Zm-319,223.89a7.52,7.52,0,0,0-1.18.75c-13.29,12.9-23.06,28.15-30.11,45.19a5.46,5.46,0,0,0,.35,4.05c4.7,8.82,9.09,17.87,14.54,26.22C63,384,68.76,390,74.34,396.8l5.6-7.54c-3.76-4.44-7.47-8.42-10.7-12.76a96.88,96.88,0,0,1-8.88-13.64c-8.78-17.2-9.21-11.83.22-29,5.16-9.41,12.29-17.75,18.53-26.57.67.29.65,0,.52-.15C78.1,305.09,76.56,303.08,74.87,300.86ZM571.62,188a12.76,12.76,0,0,0,.3-1.75,131.06,131.06,0,0,0-9.15-52,5.51,5.51,0,0,0-3.32-2.81c-10.47-2.78-20.91-5.81-31.54-7.8-6.89-1.3-14.08-1-21.49-1.41.59,3.58,1,6.29,1.51,9.12,1.17,0,2.12.14,3.07.14a121.65,121.65,0,0,1,40.46,7.15c2.26.79,3.76,1.94,4.33,4.31,2,8.19,4.43,16.3,6,24.57,1.15,6.22,1.17,12.65,1.71,19.14Zm-442.33-1.38v-3.42a115.36,115.36,0,0,1,7.39-40.4c.55-1.49,2-3.29,3.38-3.7,8-2.32,16-4.69,24.14-6.21,6.57-1.23,13.37-1.29,20.28-1.89.42-2.62.84-5.32,1.31-8.3-1.6-.08-2.91-.17-4.22-.19a129.7,129.7,0,0,0-48.51,8.87,7.13,7.13,0,0,0-3.9,4c-2.85,10.46-5.79,20.93-7.78,31.57-1.26,6.77-.94,13.83-1.34,21.13ZM506.5,573.94c.93.12,1.4.23,1.87.24,17.89.62,35.1-2.73,51.75-9.07a5.57,5.57,0,0,0,2.89-3.27c2.58-9,5.51-18,7.19-27.25,1.52-8.36,1.6-17,2.35-26-2.54.4-4.06.88-5.57.83-3.37-.09-4.05,1.47-4,4.63a110.74,110.74,0,0,1-7.4,40,7.32,7.32,0,0,1-3.79,3.76,64.49,64.49,0,0,1-12.44,3.81c-10.31,1.79-20.7,3.12-31.59,4.72C507.43,568.23,507,570.94,506.5,573.94ZM185.84,574c-.57-3.19-1-5.87-1.54-8.72h-2.44A115,115,0,0,1,140.73,558a7.56,7.56,0,0,1-4-4,92.31,92.31,0,0,1-4.57-15.61c-1.59-9.23-2.5-18.59-3.76-28.33l-7.65-1.2a7,7,0,0,0-.31,1.08c-.78,18.26,2.67,35.8,9.17,52.79a5.33,5.33,0,0,0,3.07,2.59c6.19,2,12.37,4.13,18.7,5.63A113.39,113.39,0,0,0,185.84,574Zm122.3,38.12a110,110,0,0,0,36.59,24.72,5.36,5.36,0,0,0,4-.49c6.59-3.53,13.33-6.88,19.54-11,5.65-3.76,10.69-8.43,16.18-12.84L379.35,607c-7.39,5.05-14.46,9.81-21.47,14.68-7.8,5.42-15.53,5.57-23.39.09-7.07-4.93-14.22-9.75-21.58-14.79Zm76-527.5a110.25,110.25,0,0,0-36.58-24.7,5,5,0,0,0-3.7.36c-7,3.8-14.12,7.43-20.76,11.8-5.36,3.53-10.09,8-15.26,12.23l5.08,5.43c7.4-5.06,14.48-9.83,21.49-14.7,7.81-5.43,15.54-5.54,23.39-.07,7.08,4.93,14.23,9.75,21.58,14.78ZM604,315.87a78.85,78.85,0,0,1,19.24,29.21,10.18,10.18,0,0,1,0,6.5A79.75,79.75,0,0,1,604,380.88l5.59,5.27a6.07,6.07,0,0,0,1.06-.62,110.28,110.28,0,0,0,23.88-35.6,3.88,3.88,0,0,0,.19-2.73,111.76,111.76,0,0,0-24.89-36.82Zm-521.3-5.26a6.82,6.82,0,0,0-1.07.67,110.34,110.34,0,0,0-23.8,35.58,4.78,4.78,0,0,0,.24,3.69c4.71,8.26,9.33,16.59,14.51,24.56,2.69,4.15,6.44,7.62,9.87,11.58l5.86-5.83a84.61,84.61,0,0,1-19.12-28.6,9.29,9.29,0,0,1,0-7.62A85.66,85.66,0,0,1,88.3,315.88ZM508.24,142c8.82,1.47,17.23,2.36,25.38,4.37,11.35,2.79,12.07,4,14.9,15.23.11.47.18.95.26,1.42,1.18,7.7,2.37,15.39,3.6,23.42h7.1a107.31,107.31,0,0,0-7.12-42.62,4.65,4.65,0,0,0-2.93-2.2c-8-2-16.07-4.26-24.23-5.72-5.48-1-11.17-.81-17-1.17ZM184,135.2c-11.22-1.08-33,2.43-42.18,6.89a4.86,4.86,0,0,0-2.32,2.83c-2.1,8.29-4.35,16.56-5.86,25-1,5.35-.75,10.92-1.07,16.42h8.24c0-1.24,0-2.29,0-3.35a79.18,79.18,0,0,1,6-30,7.39,7.39,0,0,1,3.78-3.84,117.71,117.71,0,0,1,16.29-4.68c5.63-1.09,11.41-1.31,17.28-1.93,0-1.9,0-3.82,0-5.73A13.44,13.44,0,0,0,184,135.2ZM508.22,561.77a109.18,109.18,0,0,0,42.48-7.15,4.25,4.25,0,0,0,2.06-2.61c1.87-6.73,4-13.44,5.19-20.3s1.41-14,2.06-21.17h-7.63c-1.27,8.19-1.7,16.25-3.86,23.83-4.18,14.67-1.68,12.32-16.63,16.47-7.57,2.1-15.6,2.56-23.67,3.8ZM184,554c-4.59-.33-9-.12-13.2-1.07-7.6-1.73-15.05-4.15-22.55-6.28q-3-8.69-5.89-17.37a8.9,8.9,0,0,1-.28-1.79c-.6-5.7-1.2-11.4-1.79-17h-7.19a5.5,5.5,0,0,0-.35,1.22,109.92,109.92,0,0,0,7,40.78,4.56,4.56,0,0,0,2.71,2.43c6.48,1.87,12.94,4,19.56,5.12,7.17,1.23,14.5,1.49,22,2.2ZM247.22,60.5c4.15,5.73,8.69,11.23,12.37,17.24,9.67,15.76,15.66,32.17,6.26,50.77,4.78-1.46,9.06-3.17,13.5-4,4.64-.87,6-3.89,6.61-7.8,1-6.69-1.14-12.66-4.32-18.33C273.09,83.14,260.42,71.59,247.22,60.5Zm179.5,68c-6.54-11.52-6-22.94-2-34.44,4-11.72,11-21.7,18.83-31.12a16.19,16.19,0,0,0,1.1-1.72,125.55,125.55,0,0,0-14.05,12.15c-8.83,8.81-17.19,18-22.14,29.73C406,109,404.9,115,407.78,121a5.75,5.75,0,0,0,3,2.74C415.78,125.39,420.89,126.79,426.72,128.51Zm-.08,439.7c-4.86,1.49-9.09,2.82-13.33,4.09-5.22,1.56-6.46,3-7.05,8.52-.87,8.19,2.52,15.11,6.77,21.67,7.49,11.56,17.22,21.12,27.46,30.21,1.46,1.3,3,2.57,4.44,3.86a5.81,5.81,0,0,0-1.34-2.62c-5.56-8.45-11.93-16.5-16.43-25.48C420.77,595.7,419,582.19,426.64,568.21ZM566,268c1.56,5.23,2.81,10.11,4.55,14.81a8,8,0,0,0,3.74,4.25c5.67,2.43,11.38,1.4,16.88-.92,12.41-5.24,22-14.24,31.31-23.63,3.67-3.72,7.08-7.69,10.61-11.54l-.58-.6-2.15,1.55c-4.89,3.54-9.55,7.47-14.72,10.53C600.19,271.65,584.12,277.25,566,268Zm-439.72-.12c-10.21,5.66-20.39,6.49-30.48,3A133.37,133.37,0,0,1,74,260.72c-5.56-3.14-10.44-7.47-15.62-11.28,9.11,11.17,18.73,21.87,30.78,29.89a89.28,89.28,0,0,0,16.75,8.33,15.55,15.55,0,0,0,13-.88,5,5,0,0,0,2.43-2.4C123.05,279.14,124.55,273.83,126.32,267.9ZM59.05,445.63l.45.17c7.91-5.07,15.5-10.74,23.79-15.07,13.67-7.16,28-9.94,43-1.85-1.79-6-3.34-11.51-5.2-16.94-.35-1-1.87-1.83-3-2.29-6-2.37-11.89-1.25-17.58,1.21-9.82,4.23-17.94,10.9-25.49,18.28C69.54,434.48,64.36,440.12,59.05,445.63ZM266,568.39c5.14,12.9,6.19,19.42,2.76,30a115,115,0,0,1-9.5,21c-3.39,6-8,11.26-12,16.85,11.16-9.18,21.93-18.83,30-31a88.32,88.32,0,0,0,8.14-16.41,15.85,15.85,0,0,0-.77-13,5,5,0,0,0-2.29-2.52C277,571.55,271.54,570,266,568.39ZM566,428.85a37.67,37.67,0,0,1,25.19-4.31c9.48,1.56,18,5.51,26,10.63,5.33,3.42,10.34,7.33,15.49,11a4.86,4.86,0,0,0-1.25-2.36c-5.88-6.08-11.59-12.34-17.75-18.13-6.62-6.22-13.87-11.71-22.42-15.14-5.75-2.31-11.63-3.45-17.55-.65a5.34,5.34,0,0,0-2.71,2.58C569.21,417.72,567.73,423,566,428.85ZM211.94,72l-1.42,0c-.1,13-.48,26-.21,39,.18,9,1.8,17.94,6.73,25.66,2,3.18,5.55,5.46,8.58,7.92A3.89,3.89,0,0,0,229,145c4.77-2.26,9.41-4.78,14.78-7.56-10.24-1.91-16.47-8-21.06-16.05-5.07-8.85-7.37-18.61-8.7-28.6C213.1,85.89,212.62,78.93,211.94,72ZM557,450.91c-2.21,4.31-3.77,8.17-6,11.55-2.52,3.77-1.46,6.73.89,9.86,4.1,5.45,10,7.82,16.27,9.48,12.65,3.38,25.59,3.43,38.54,2.68,5.32-.31,10.63-.86,15.94-1.31a5.49,5.49,0,0,0-3.42-1c-13.57-.61-27-2.14-39.71-7.33C568.59,470.39,560,463.63,557,450.91ZM448.63,559.32c12.58,2.64,19.25,11,23.67,21.62,5.38,12.9,7,26.55,7.6,40.38.06,1.18.17,2.37.26,3.55l1.51-.07c.2-12.53.72-25.07.49-37.6a58.39,58.39,0,0,0-5.59-24.93c-2.13-4.33-5-8-9.6-10-1.13-.48-2.77-.91-3.75-.45C458.44,554.09,453.81,556.63,448.63,559.32ZM69.41,214c8.72,1,17.55,1.42,26.13,3.13,17.29,3.45,34,8.23,40,28.4,2.12-4.14,3.82-8.17,6.16-11.78,2-3.13,1.34-5.62-.46-8.29-3.9-5.74-9.75-8.54-16.15-10.26C106.62,210.25,88,211.87,69.41,214Zm174.22,345.3c-5.19-2.7-9.61-5.17-14.19-7.3a5.71,5.71,0,0,0-4.08.29c-4.7,2-7.64,5.78-9.79,10.24-3.64,7.54-4.81,15.66-5.47,23.89-1,12.86-.12,25.65,1.7,38.43a46,46,0,0,0,.72-7c.8-12.72,2.51-25.29,7.53-37.13C224.47,570.27,231.09,562,243.63,559.31ZM556.41,244.64c2.48-4.16,4.6-8.8,7.69-12.66,4.25-5.28,10.32-8.27,16.61-10.63,12.72-4.76,26-6.27,39.47-6.83.93,0,1.86-.21,2.8-.31,0-.29-.05-.59-.07-.88-8.56-.47-17.11-1.16-25.68-1.36-11.27-.25-22.49.41-33.26,4.25-5.57,2-10.57,4.93-13.48,10.35-.74,1.37-1.42,3.48-.88,4.7C551.73,236.08,554.35,240.68,556.41,244.64ZM448.71,137.49c4.78,2.49,8.89,4.48,12.84,6.75a5.69,5.69,0,0,0,6.11,0,20.71,20.71,0,0,0,10.3-13,129.34,129.34,0,0,0,4.15-20.87c1.39-12.91.21-25.81-1.56-38.67a29,29,0,0,0-.67,5.3c-.71,13.32-2.33,26.49-7.55,38.92C467.93,126.36,461.34,134.65,448.71,137.49ZM135.92,452.21c-2.55,4.21-4.41,9.22-7.89,12.55a53.67,53.67,0,0,1-14.91,9.89c-11.58,5.23-24.12,6.62-36.7,7.39-2.24.14-4.48.35-6.71.53l.07,1.24c11.45.31,22.9,1,34.34.84,9.67-.13,19.29-1.41,28.16-5.79,4.43-2.19,8.21-5.17,10.12-9.9a5.69,5.69,0,0,0,.08-4.06C140.39,460.44,138,456.13,135.92,452.21ZM386.29,578.45l-14.06,1.95c.13,1.77-.12,3.44.42,4.8,2.17,5.44,3.83,11.28,7,16.06,8.42,12.58,21.26,19.66,34.68,25.72,3.22,1.45,6.55,2.63,9.84,3.94a8,8,0,0,0-2.53-2.82c-7-5.89-14.46-11.34-20.9-17.81C392.2,601.69,384.55,592.24,386.29,578.45ZM267.11,65.54c7.35,6.08,14.67,11.46,21.19,17.68,9.93,9.47,19.28,19.54,17.83,35.12l14-2c-.19-2-.24-3.66-.54-5.3-1.4-7.71-5.15-14.25-10.34-20C297.85,78.44,283.06,71.37,267.11,65.54ZM628.43,426.62c-2.27-10.45-13-29.54-22.07-38.62-5.63-5.64-12-10.21-19.78-12.33a82.7,82.7,0,0,0-8.47-1.39c-.69,5.2-1.28,9.66-1.9,14.4,7.89-1.41,14.48.91,20.35,5a82.62,82.62,0,0,1,13.3,11.14C616.5,411.94,622.53,419.63,628.43,426.62ZM578.11,322.23a32.27,32.27,0,0,0,18.34-5.59c17.3-11.19,25.44-28.66,32.1-47.11a18.82,18.82,0,0,0-2.3,2.69c-7,8.13-13.62,16.67-21.22,24.21s-16.81,13.44-28.86,11.76C576.82,312.94,577.43,317.34,578.11,322.23ZM305.89,578.46c1.49,9.36-2,16.95-7.39,23.71A113,113,0,0,1,286,615.68c-6,5.4-12.47,10.23-19.25,15.71,2.74-1,5-1.85,7.14-2.74,13.89-5.66,26.85-12.74,36.69-24.46a39,39,0,0,0,9.37-20.47c.2-1.57.78-3.46-2-3.72C314.09,579.63,310.28,579,305.89,578.46ZM63.4,269.58c4.2,11.86,9.53,23.17,17.28,33.18,5.63,7.26,12.25,13.46,20.93,16.87,3.9,1.53,8.16,2.16,12.54,3.27q1.09-8.32,1.75-13.37c-5.52-1.34-11-1.56-15.3-4a85.39,85.39,0,0,1-18.1-13.62C75.61,285.07,69.78,277.15,63.4,269.58ZM425.13,66c-14.22,4.72-27.51,11-38.52,21.4-5.52,5.19-10.05,11.15-12.45,18.41-1.1,3.32-1.52,6.87-2.3,10.55l14.63,2A25.21,25.21,0,0,1,392,97.27a225.68,225.68,0,0,1,19-20.23C415.33,72.93,420.41,69.65,425.13,66ZM63.21,427.75c5.83-7.15,10.8-14,16.56-20.12,9.83-10.39,20-20.61,36.36-19.22l-1.95-13.65c-7.62-.49-16.93,3.27-24.28,9.65C76.67,395.87,69.46,411,63.21,427.75Zm464.87,69.92c3.87,2.18,7.12,4.48,10.71,5.95,10.32,4.21,21,3.82,31.7,1.69,10.88-2.16,21.07-6.17,31.52-11.52-8.15,1.09-15.52,2.5-23,3-15.12,1-30.42,2-42.23-10.88Zm-436.7-3.08c-.36-.59-.3-.33-.14-.25,2.49,1.2,5,2.46,7.51,3.56,13.42,5.8,27.21,10,42.06,8.74,8.56-.71,16.48-3.17,23.06-9.51l-8.36-11c-6.38,6.12-9.41,8.1-16.5,9.56a56.14,56.14,0,0,1-13.62,1.49C113.87,496.6,102.38,495.46,91.38,494.59Zm403.67-328.7c6.21-6.68,8.68-14.5,9.34-23,1.27-16.18-3.69-31-10.3-45.41-.69-1.5-1.47-3-2.5-5,1.09,8,2.53,15.29,3,22.61.91,15.2,2.07,30.63-10.71,42.63ZM200.61,603.52c-1-7.28-2.44-14.54-2.87-21.86-.89-15.19-2.11-30.63,10.73-42.6l-11.23-8.15a33.11,33.11,0,0,0-8.58,17.58C185.16,568.48,192,586.27,200.61,603.52Zm328-404.06L537,210.94c5-6.6,11.75-9.58,19.18-10.36a152,152,0,0,1,23.47-.52c7.29.38,14.53,1.83,22.83,2.94-3.16-1.48-5.41-2.6-7.7-3.6-13.85-6.09-28.07-10.52-43.46-9.26C543,190.83,535.28,193.38,528.58,199.46ZM492.2,603.61l.29.23c3-8,6.29-15.88,8.85-24,3.22-10.24,4.38-20.8,2.25-31.47-1.3-6.54-3.68-12.6-8.68-17.43l-11.38,8.39A23.83,23.83,0,0,1,493,554.41c1,5.18,2,10.53,1.83,15.75C494.4,581.33,493.13,592.46,492.2,603.61ZM208.83,157.45c-6.86-5.06-9.77-12.08-10.54-19.79a150.48,150.48,0,0,1-.43-22.77c.41-7.28,1.83-14.51,2.81-21.77a132.84,132.84,0,0,0-7.39,16.44c-4.46,12.42-7.17,25.14-4.62,38.4,1.28,6.65,3.33,13,8.74,17.87ZM91.2,202.84c7.4-1,14.77-2.38,22.2-2.83,15.1-.92,30.39-1.94,42.13,10.77,2.75-3.8,5.41-7.49,8.16-11.28a34,34,0,0,0-18-8.62C126,187.54,108.43,194.26,91.2,202.84Zm313.07-80.92c-3.31-9.47-.62-17.62,3.66-25.43,6.36-11.58,15.36-21,24.87-30,.62-.59,1.17-1.24,1.75-1.86l-.87-.95c-9.56,7.73-19.46,15.09-28.54,23.36-5,4.55-8.89,10.44-12.77,16.08a16.88,16.88,0,0,0-2.62,13.19,4.8,4.8,0,0,0,2.65,3.13C396.07,120.47,399.9,121,404.27,121.92ZM630,436.53c-7.07-11.36-14.73-22.37-24.62-31.5a72.38,72.38,0,0,0-15.18-10.94c-3.5-1.82-8.08-1.68-12.21-2.08a3.6,3.6,0,0,0-2.74,2.11c-1.05,3.91-1.72,7.92-2.55,12,10.72-2,16.71-1,26.2,4.45C610.75,417.37,620.38,426.84,630,436.53ZM434.58,632a27.14,27.14,0,0,1-2-1.87C426,622.8,418.83,615.84,412.92,608c-7.16-9.54-12.91-20-8.86-33.06-4,.79-7.57,1.62-11.23,2.2-2.17.35-3,1.45-3.26,3.57-.91,7.14,2,13,6,18.48C405.81,613.3,420,622.88,434.58,632ZM259.65,66.08c4.91,5.29,9.78,10.17,14.23,15.41,6.84,8.06,13.19,16.56,15.07,27.29.73,4.2.12,8.65.12,13,3.23-.65,6.76-1.48,10.32-2,2.16-.34,3.06-1.35,3.35-3.5.93-6.86-1.77-12.6-5.56-17.89-9.69-13.52-22.84-23.15-36.49-32.2C260.54,66,260.26,66.08,259.65,66.08ZM63.94,262.3l-.86.61c6.5,8.16,12.79,16.5,19.56,24.44,5.35,6.27,11.4,12.07,19.13,15.24,3.86,1.58,8.35,1.72,12.59,2.16a3.57,3.57,0,0,0,2.74-2.1c1.06-3.91,1.72-7.93,2.61-12.32A24.74,24.74,0,0,1,100,289.28a88.06,88.06,0,0,1-15.82-9.41C77.1,274.42,70.65,268.19,63.94,262.3ZM288,574.85c3.36,9.39.63,17.5-3.58,25.34-5.33,9.9-12.8,18.13-20.67,26-1.37,1.36-2.89,2.58-4.34,3.86l.93,1c4.19-3,8.44-5.87,12.54-9,9.29-7,18.09-14.56,24.71-24.28,3.53-5.19,6.16-10.79,4.94-17.3a5,5,0,0,0-2.93-3.25C296.05,576.23,292.33,575.72,288,574.85ZM572.54,290.26l2,9.37c1.12,5.28,1.44,5.59,6.89,5.4a12.19,12.19,0,0,0,5-.82c4.49-2.27,9.22-4.35,13.15-7.41,11.4-8.86,19.84-20.41,27.85-32.27.48-.72.82-1.53,1.23-2.3l-.91-.77c-1.38,1.65-2.53,3.56-4.16,4.9-8.21,6.72-16.18,13.82-24.93,19.75C591.06,291.21,582.37,293.67,572.54,290.26ZM119.71,406.41c-.68-3.28-1.27-6.19-1.89-9.1-1.16-5.44-1.82-6-7.48-5.62-6.71.43-12.14,3.84-17.17,7.88-11.93,9.57-21,21.65-29.26,34.33-.12.17.07.54.28,1.85a30.93,30.93,0,0,1,3.2-3.94c7.41-6.36,14.53-13.14,22.44-18.81C98.51,406.78,108.18,402.71,119.71,406.41ZM84.14,488.65c16.42,3.53,33.64,7.11,51.45,4.33,6.09-1,11.77-2.87,15.83-7.88.68-.85,1.56-2.45,1.21-3.07-2.11-3.81-4.55-7.42-7.11-11.47a24.26,24.26,0,0,1-14.06,12.23c-5.1,1.79-10.38,3.56-15.7,4.08C105.1,487.92,94.35,488.12,84.14,488.65ZM546.71,226.24c4.44-8.33,11.73-12.1,20-14.37,12.5-3.44,25.27-3.81,38.13-3.12l3.57.18a2.37,2.37,0,0,0-1.59-1.15c-8.81-1.5-17.59-3.31-26.45-4.34-9.5-1.11-19.08-1.27-28.44,1.41-4.48,1.29-8.6,3.35-11.35,7.3a3.92,3.92,0,0,0-.42,3.4C542,219,544.27,222.34,546.71,226.24Zm-.06,244.37c-2.13,3.42-4,6.76-6.24,9.88-1.34,1.9-.94,3.15.45,4.73,4.06,4.63,9.43,6.59,15.23,7.61,12.21,2.16,24.34.84,36.42-1.13,5.39-.88,10.72-2.11,15.86-3.14-10.43-.51-21-.48-31.36-1.67C565.08,485.51,553.65,482.35,546.65,470.61ZM205.49,611.23l.42-.3c.53-10.58.51-21.23,1.72-31.74,1.37-11.9,4.51-23.32,16.24-30.3-3.51-2.17-6.85-4.07-10-6.25-1.62-1.13-2.72-.91-4.13.21a18.45,18.45,0,0,0-7.2,12.19c-1,7.85-2,15.87-1.46,23.71C201.82,589.63,204,600.41,205.49,611.23ZM486.39,85.52l-.9.11c0,8.77.61,17.59-.14,26.3-1.19,13.79-3.37,27.46-16.8,36,3.4,2.12,6.65,3.95,9.67,6.11,1.72,1.24,2.92,1.06,4.43-.18,4.77-3.91,6.82-9.23,7.93-15,2.05-10.71,1.19-21.42-.36-32.07C489.18,99.65,487.68,92.6,486.39,85.52ZM224,147.82c-9.09-5-12.74-13.32-14.93-22.42-2.76-11.48-3.14-23.18-2.52-34.93.07-1.44.14-2.88.2-4.32a97,97,0,0,0-3.93,16.2c-1.95,12-3.22,24-1.1,36,1.09,6.15,3,12,8.52,15.76a3.32,3.32,0,0,0,2.8.46C216.65,152.52,220.15,150.21,224,147.82ZM468.21,549c7.56,3.9,11.5,10.1,13.52,17.36a102.31,102.31,0,0,1,3.64,19.5c.62,8.23.15,16.54.15,24.82l.93.12c1.28-7.07,2.8-14.1,3.79-21.2,1.6-11.52,2.54-23.08-.38-34.56-1.21-4.78-3.3-9.12-7.35-12.14-.85-.63-2.58-1-3.38-.61C475.54,544.26,472.15,546.55,468.21,549ZM145.67,226.21c2.23-3.59,4.05-6.86,6.22-9.89,1.26-1.76.94-3-.27-4.43-4-4.91-9.52-6.88-15.43-7.94-12-2.13-23.86-.89-35.7,1-5.62.92-11.19,2.16-16.69,3.23,10.54.51,21.08.45,31.47,1.68C127.16,211.31,138.69,214.3,145.67,226.21ZM142.51,95.54l-16.59,4.23c4.24,9,8.24,17.4,12.33,26l10.44-3C146.64,113.8,144.65,105,142.51,95.54Zm-18.93,44.93L97.5,128.17c-1.44,5.83-2.74,11.07-4.1,16.59l27.26,6.18C121.65,147.38,122.58,144.06,123.58,140.47ZM138.2,571l-12.34,26.09,16.64,4.09c2.12-9.45,4.11-18.3,6.11-27.23Zm428.21,26.06L554.06,571l-10.44,3c2.07,9.12,4.08,18,6.18,27.24Zm5.26-51.2c-1,3.51-1.94,6.83-3,10.45l26.1,12.32c1.44-5.87,2.73-11.17,4.07-16.62ZM594.76,128l-26,12.38c1,3.61,1.9,6.94,2.87,10.52l27.36-6.27C597.51,139,596.2,133.77,594.76,128ZM120.65,545.89l-27.28,6.22c1.42,5.62,2.76,10.9,4.19,16.58l26-12.34C122.6,552.83,121.69,549.61,120.65,545.89ZM566.46,99.7l-16.64-4.08-6.14,27.19,10.41,3C558.18,117.17,562.19,108.73,566.46,99.7Zm-522.4,260-27.38,9.2,8.54,14.81,23.88-14.4ZM366.59,18.91c-3.13,9.39-6.12,18.33-9.12,27.32L367,51.35l14.48-24ZM643.17,327.52l5.15,9.56,27.3-9.17-8.54-14.83ZM325.7,677.85c3.13-9.33,6.11-18.21,9.15-27.29l-9.6-5.09c-4.84,8-9.53,15.85-14.42,24ZM643.15,369.22l24,14.45c2.9-5.15,5.54-9.81,8.4-14.87l-27.25-9.15ZM357.37,650.52c3.09,9.15,6.08,18,9.23,27.37l14.82-8.51-14.45-24ZM325.73,18.87,310.9,27.43l14.45,24,9.53-5.21ZM16.67,328,44,337.12l5.09-9.56L25.24,313.12ZM531.19,92.57c-1,9.47-1.85,18.39-2.76,27.44l11.92,2,6.14-27ZM145.85,95c2.09,9.23,4.08,18,6.14,27.05L163.93,120c-.94-9.24-1.84-18.15-2.78-27.38ZM540.32,574.72l-11.92,2.07c.91,9.13,1.81,18.05,2.74,27.41l15.31-2.42C544.34,592.49,542.38,583.83,540.32,574.72Zm-388.38,0c-2,9-4,17.76-6.12,27.06l15.31,2.36c1-9.42,1.84-18.34,2.74-27.41Zm450-41.39-27.4-2.73c-.69,4.16-1.33,8-2,12l27.09,6.09C600.38,543.41,601.1,538.59,601.89,533.36ZM397,38.21l-12.66-8.94L370,53.1c3.53,2.36,6.71,4.47,10,6.69ZM599.55,148l-27.11,6.13c.72,4.13,1.38,7.9,2.09,12l27.37-2.78C601.08,158,600.34,153.21,599.55,148ZM27.07,386.57c3,4.27,5.89,8.35,8.93,12.67l21.64-17c-2.41-3.53-4.55-6.69-6.8-10Zm92.8,156.05c-.74-4.24-1.4-8-2.1-12l-27.41,2.81,2.47,15.29Zm-2.06-376.46c.69-4.08,1.34-7.92,2-11.94L92.73,148.1c-.78,5.26-1.51,10.18-2.28,15.33ZM312.31,637l-17,21.68L308,667.51c4.88-8.13,9.58-15.93,14.32-23.81Zm353-326.75c-3.18-4.46-6.07-8.5-9-12.62l-21.59,17c2.37,3.49,4.51,6.64,6.79,10Zm-638.35,0,23.92,14.43,6.77-10L36,297.64C32.9,301.93,30,305.89,26.94,310.2Zm607.73,72,21.64,17,9-12.65-23.83-14.34ZM369.9,643.71l14.38,23.8L397,658.63,380,637ZM308,29.24l-12.6,9c5.86,7.47,11.36,14.46,17,21.59l10-6.85ZM66.08,304.4,47.3,283.74c-3.28,3.95-6.17,7.43-9.3,11.18l21.66,16.93C62.22,308.89,64.56,306.17,66.08,304.4Zm324.12,324-7.5,6.49,16.94,21.62,11.49-9.64ZM309.6,61.85,292.66,40.23l-11.52,9.66L302,68.43Zm38.11,624.29,15.78-6.76c-3.15-9.42-6.14-18.37-9.55-28.55-2.53,2.32-5.88,3.92-6,5.71C347.43,666,347.71,675.56,347.71,686.14ZM328.8,17.4,338,44.6c6.53-2.24,6.57-2.23,6.67-8.22.08-4,0-8,0-12V10.59ZM292.65,656.54c5.75-7.35,11.29-14.43,16.92-21.61-3-2.59-5.74-4.93-8.69-7.48l-19.16,20C285.59,650.67,289,653.51,292.65,656.54Zm45.23-4.33-9.1,27.26L344,685.86c.18-1.36.37-2.16.38-3,.09-7.47.19-14.95.21-22.42C344.63,654.27,344.58,654.27,337.88,652.21ZM625.17,393.6l20,19.17,9.06-10.94-21.61-16.91Zm24.38-53.36c2,2.46.94,6.4,5,6.43,9,.06,18.07,0,27.11-.1a7.85,7.85,0,0,0,1.92-.6c-2.17-5.07-4.23-9.91-6.4-15Zm4.75-45.38-9.69-11.51-18.5,20.86,6.54,7.6ZM410.59,49.33l-10.92-9.08-16.94,21.6,8.67,7.48ZM42.32,340.15l-27.19-9.08L8.66,346.44c1.69.1,2.74.22,3.79.22q10.85.07,21.69.11C40.27,346.79,40.27,346.79,42.32,340.15ZM59.65,385,38,402l9.51,11.31,18.61-20.74Zm624.21-35c-9.29,0-17.7,0-26.1,0-6.09,0-6.41.25-7.5,6.74l26.87,9ZM354.42,44.51l9.2-27.15L347.79,10.7c0,9.24-.07,17.64,0,26C347.89,42.55,348,42.55,354.42,44.51ZM42.2,356.74c-1.66-6.66-1.66-6.66-7.85-6.64l-16.26,0c-2.95,0-5.89,0-9.59,0l6.71,15.62Zm560-190-27.35,2.73c.27,3.92.52,7.57.76,11.13h27.63C602.92,176,602.6,171.67,602.23,166.74ZM117.48,527.32c-.3-4.05-.57-7.61-.83-11.15H89c.36,4.69.7,9.08,1.06,13.86ZM525.09,119.64c.91-9.31,1.78-18.22,2.67-27.4l-13.82-.92V118.9ZM167.23,577.12c-.91,9.27-1.79,18.2-2.7,27.41l13.89,1V577.9Zm436-61H575.6c-.24,3.81-.46,7.36-.7,11.2l27.34,2.65C602.6,525,602.92,520.73,603.26,516.09ZM117.49,169.53l-27.44-2.71c-.33,5-.63,9.44-.93,13.92h27.52C116.92,177.11,117.18,173.66,117.49,169.53Zm410.28,435c-.95-9.35-1.85-18.27-2.77-27.38l-11.08.8v27.59ZM178.42,118.89V91.25l-13.87,1c.94,9.31,1.83,18.24,2.75,27.33ZM104.3,587.13l1.3.53c5.93-6.18,11.83-12.41,17.81-18.55,4.1-4.19,4.17-4.17.85-9.33L98.56,572Zm31-17.88c-2.81-.21-6-1.43-7.2-.38-7.38,6.4-14.32,13.32-21.4,20.07l.66,1.26L122.59,596ZM557.48,126.63c3.82,2.59,6.5,2.56,9.54-1,4.7-5.5,10.09-10.41,15.18-15.58.95-1,1.87-2,3.16-3.37l-15.66-5.91Zm-422.61,0c-4.1-8.64-8.1-17.09-12.25-25.85L106,107.08c7,6.65,13.3,12.58,19.52,18.6C129.42,129.44,129.36,129.5,134.87,126.61Zm452.64-18.18c-6.66,6.9-12.58,13.1-18.58,19.21-4,4.11-4.11,4-1,9.37l25.83-12.2C591.76,119.53,589.87,114.6,587.51,108.43ZM567,559.24c-.31,2.93-1.54,5.92-.6,7,6.51,7.44,13.48,14.49,20.3,21.66l1.26-.72,5.82-15.29ZM124.49,137.15c2.71-5.72,2.69-5.71-1.17-9.5-4.67-4.58-9.3-9.18-13.95-13.76-1.49-1.46-3-2.88-4.91-4.67-2.08,5.59-3.95,10.6-5.85,15.69Zm433,433,12.27,25.9,16.54-6.41c-7-6.65-13.49-12.26-19.26-18.54C563.85,567.7,561.27,567.59,557.44,570.16ZM60,425.53l12.51-26.77L69,395.63,50.23,416.4Zm.39-153.61-11.19,9.29c7.15,6.87,13.71,13.18,20.27,19.47l3.08-2.42Zm581.59,8.57-9.65-9.09c-4,8.66-8.17,17.48-12.44,26.63l3.51,3.2ZM295.77,622.12l-26.36,12.35c3,3.4,6.19,7,9.62,10.87l19.46-20.29C297.36,623.83,296.48,622.87,295.77,622.12ZM414.51,52.78,393.79,71c1.74,3.68,3.37,4.31,6.27,2.38A75.63,75.63,0,0,1,410.31,68c4.36-2,8.83-3.76,12.85-5.46ZM619.85,398.71l12.13,26,10.82-9.47-20-19.16ZM414,644.17l8.94-9.63-26.52-12.45-3,3.44ZM299.44,71.56l-21.24-19-9.07,9.57,26.34,12.39ZM186.25,118.92c3.56-9.24,7.05-18.28,10.61-27.49H182.29v27.49ZM603,497.69l-27.71,10.69c.09,1.11.19,2.48.29,3.81H603ZM116.8,184.57H89.25v14.52L117,188.4ZM510,578c-3.39-1.19-4.68.07-5.55,3.16-1.45,5.08-3.41,10-5.32,15-1.15,3-2.61,5.87-4.12,9.22h15Zm65.76-393.54c-1.07,3.21-.25,4.62,2.88,5.44a134.19,134.19,0,0,1,14,4.88c3.44,1.33,6.76,3,10.5,4.62V184.49Zm-80.2-93.13c3.13,8.41,6.3,16.33,9,24.41,1,3.1,2.3,4.17,5.44,2.92V91.36ZM196.74,605.42c-3.17-8.48-6.36-16.4-9-24.49-1.06-3.2-2.43-4-5.36-2.88v27.37ZM89.21,512.2h27.34c1.06-3.13.16-4.47-2.9-5.37-5.65-1.65-11.12-3.91-16.63-6-2.54-1-5-2.2-7.81-3.47Z"/></svg>