<svg id="Layer_1" data-name="Layer 1" xmlns="http://www.w3.org/2000/svg" viewBox="0 0 1197.29 1080"><defs><style>.cls-1{fill:none;stroke:#000;stroke-miterlimit:10;}</style></defs><path class="cls-1" d="M334.79,150.84c16.67,3.85,30.53,12.47,42.38,24.4,7.21,7.26,13.8,15.14,20.66,22.74l1-.26c-4.55-10.43-7.82-21.69-13.95-31.09-9.78-15-23.61-25.69-41.85-29A18.29,18.29,0,0,0,333,139.2c-1.86.82-4.14,4.27-3.7,5.84C329.93,147.37,332.52,150.32,334.79,150.84Z"/><path class="cls-1" d="M324.8,171.87c11.75-1,22.73,1.4,33.53,5.66,15.1,6,27.74,15.33,38.6,27.26a132.11,132.11,0,0,0-31.6-35.55c-8.14-6.26-17-11.48-27.15-14.07-5.73-1.46-11.27-1.12-16.28,2.33-3.21,2.2-4.29,5.53-2.6,8.85C320.45,168.63,323.08,172,324.8,171.87Z"/><path class="cls-1" d="M343.64,134.14c4.26,1.63,9.19,2,13,4.29,9.22,5.58,17.95,12,26.11,17.51-3.67-16.41-5.8-26.11-.65-44.83.39-1.4-.47-3.61-1.47-4.85-7.26-9-21-11.43-30.86-5.77s-14.91,19.24-10.55,30C339.86,132.06,341.92,133.47,343.64,134.14Z"/><path class="cls-1" d="M326,199.12c25.91-5.76,49.91-2,72.07,13.82-.71-1.1-1.33-2.26-2.13-3.28-12.68-16-28.86-27-48.53-32.3-9.56-2.58-19.42-4.53-29.06.87-5.59,3.13-8.11,6.56-6.67,11C313.6,195.3,320.75,200.29,326,199.12Z"/><path class="cls-1" d="M590.61,109.38c2.62,9.36,4.55,18.92,7.09,29.64,1.78-10.23,4.79-19.4,4.67-28.53-.24-18.15-6.45-34.54-19.85-47.44a22.78,22.78,0,0,0-8.65-4.87c-3.09-1-7.29-.79-8.18,2.87-.67,2.77.13,7.14,2,9.08A90.09,90.09,0,0,1,590.61,109.38Z"/><path class="cls-1" d="M530.85,105A88.88,88.88,0,0,1,565.4,122.5a83.07,83.07,0,0,1,23.08,31c-3.61-22.48-13.48-41.68-30.18-57-7-6.37-14.6-12.27-25-12-6,.13-9.42,2.11-10,6.52C522.32,97.45,525.65,103.58,530.85,105Z"/><path class="cls-1" d="M425.85,192.12c.65,13.26,4.13,25.27,16.85,32.32,0-.1.15-.25.12-.36-.24-.89-.51-1.77-.76-2.66-7.61-27.43-2.95-52.74,14.34-75.22,14.09-18.33,33.16-27.94,56.44-26.27,27.31,2,48,15.89,62.29,38.92,4.31,6.93,7.14,14.77,11,23,.93-4.73,3.21-9.25,2.28-13-2.12-8.52-4.44-17.54-9.11-24.8-18.72-29.08-46.17-41.09-80.3-37.5C457.55,111,423.84,150.54,425.85,192.12Z"/><path class="cls-1" d="M411,192.27c-2.73-8.25-5.92-17-8.51-25.85-5.32-18.31-6.48-36.63.17-55,.82-2.28-.93-6.42-2.84-8.42-1.21-1.28-5.26-1-7.38,0a13.17,13.17,0,0,0-5.46,5.82c-4.26,8.6-4.74,17.92-4.41,27.35C383.35,159.5,395.6,177,411,192.27Z"/><path class="cls-1" d="M547.39,84.63c18.26,10.66,30.45,26.49,38.16,45.81,3.3,8.28,5.29,17.08,7.88,25.66.08-1.31.2-2.76.28-4.21.7-12.73-1.71-25-4.91-37.25a92.25,92.25,0,0,0-19.68-38c-4.59-5.26-9.94-9-17.43-8.77-3.88.14-6.46,1.8-7.61,5.44S544.77,83.11,547.39,84.63Z"/><path class="cls-1" d="M407.88,173.37c2.31,6.73,5,13.33,7.53,20l1.3-.46c-.32-1.29-.67-2.57-1-3.87-6.05-26-3.94-50.85,11-73.76.32-.5.94-1.24.79-1.54-1.62-3-2.78-6.77-5.29-8.77-1.7-1.36-5.7-1.13-8-.13-6.09,2.57-9.11,8-10.53,14.24C399.4,137.59,401.78,155.66,407.88,173.37Z"/><path class="cls-1" d="M415.83,164.73a80.82,80.82,0,0,0,6.7,33.26c0-5.21-.18-9.19,0-13.15,1.11-21.45,9.78-39.59,24.34-55.12,4-4.26,3.82-14.77-.72-18.36a7.73,7.73,0,0,0-6.64-1c-5.46,2.43-10.17,6-13.22,11.53C419,135.26,416,149.69,415.83,164.73Z"/><path class="cls-1" d="M283.22,336.87c3.51,3.78,11.67,6.59,17.28,6.07-17.72-19.91-25.83-43-22.21-69.53,3-22.1,13.54-39.89,33.53-50.54,26.21-14,52.42-11.45,77.69,2.89,7,4,13,9.55,19.16,14.13-.24-8.95-4.39-16.26-11.76-22.56-22.49-19.25-58.32-23.32-87-8.61-29.16,15-44.05,39.75-46.23,72C262.25,301.87,268.45,321,283.22,336.87Z"/><path class="cls-1" d="M123.62,508.92c9.16,12,22.23,18,36.39,21.73,5.13,1.35,10.59,2.72,15.77,2.33,9.27-.7,18.43-2.73,28.08-4.28-.66-.56-.85-.86-1.09-.91-2.85-.54-5.72-1-8.57-1.57-24.48-4.71-47.48-12.18-64-32.7-1.26-1.56-5-2.27-7.07-1.68-1.68.48-3.9,3.73-3.65,5.41C120.14,501.29,121.21,505.77,123.62,508.92Z"/><path class="cls-1" d="M224.3,520.14c8.18,2.58,14.69-1.2,21.77-3.45a87.25,87.25,0,0,1-44.57-27.3c-34.15-38.74-21.91-93.08,25.58-113.24A82.46,82.46,0,0,1,280.71,372l.68-1.33c-3.75-3-7.07-7-11.33-8.78-9.78-4.14-20.36-4.74-30.79-3.18-49.6,7.4-81.28,54.52-68.75,103C178,490.4,195,510.93,224.3,520.14Z"/><path class="cls-1" d="M187.76,512.6a76.93,76.93,0,0,0,28,8.79,12.08,12.08,0,0,0-1.89-1.46c-24-10.84-38.32-29.77-45.91-54.4-1.86-6-7.76-10.44-13.91-9.3-2.15.39-5.49,3.2-5.47,4.87.07,5.52.1,11.71,2.52,16.42C159.2,493.27,172.28,504.38,187.76,512.6Z"/><path class="cls-1" d="M167,515.47c13.83,5.1,28.12,8.64,44.29,9.3-6.07-2-11.11-3.28-15.91-5.19-21.15-8.41-37.56-22.36-48.53-42.43-2-3.7-5.06-5.41-10-4.45-4,.77-5.95,3.38-6.26,7.42-.54,6.84,2.29,12.26,7,16.84A82.9,82.9,0,0,0,167,515.47Z"/><path class="cls-1" d="M159.65,534.73a13.44,13.44,0,0,0-1.94-1.18c-14.37-4.22-27.29-10.77-37.12-22.53-.84-1-3-1.49-4.42-1.38-10.42.79-19.82,9.39-22,19.89-2,9.55,3,20.14,12,25.33,8.29,4.8,9.63,4.69,16.31-1.93C132.6,542.88,145.37,538.11,159.65,534.73Z"/><path class="cls-1" d="M254.37,321.33c3.87,3.38,8,6.51,12,9.76l.81-.82a7,7,0,0,0-.68-1.12C247.33,309,236.82,285.59,239,257.3c0-.43.1-1.11-.12-1.26-2.92-1.89-5.73-4.73-8.87-5.18-2.27-.33-5.8,2-7.36,4.11-4.68,6.43-3.54,13.59-1.17,20.66C227.77,294.25,239.88,308.65,254.37,321.33Z"/><path class="cls-1" d="M130.15,571.48a57.7,57.7,0,0,1,8.88-8.59,90.12,90.12,0,0,1,39-17.46c6.86-1.25,13.75-2.34,20.63-3.5,0-.25,0-.51,0-.76-5.86-.94-11.72-1.86-17.58-2.82-22.32-3.65-41.41,3.07-57.59,18.4a18.59,18.59,0,0,0-5.16,9.39c-.46,2.38,1,6.43,2.92,7.68C124.08,575.62,127.57,574.53,130.15,571.48Z"/><path class="cls-1" d="M175.17,314.42c3.62-.46,7.14-1.68,10.74-2.32,12.48-2.18,24.32,1,37.15,4.77-1.1-1.2-1.59-1.77-2.13-2.3-10.83-10.8-19.47-22.84-22.2-38.38-.24-1.39-2.07-2.94-3.53-3.62-10.71-4.93-24.59-.63-30.75,9.35-6,9.77-3.82,24.1,5.11,31.37C170.89,314.37,173.34,314.65,175.17,314.42Z"/><path class="cls-1" d="M259.05,354.53c-2.23-.88-4.41-1.89-6.69-2.62-17.94-5.72-36-5.35-53.83.07-9.3,2.83-18.56,6.34-24.12,15.54-4.09,6.76-2.34,11.55,5.52,12.89,4.73.8,8.92.26,13-3.41C211.63,360.15,233.55,352.5,259.05,354.53Z"/><path class="cls-1" d="M259.94,331.36c-7.92-7.88-16.39-15.47-23.85-23.95-10-11.41-17.12-24.49-19.94-39.75-.46-2.51-3.74-5.31-6.35-6.28-1.43-.54-5.31,2-6.08,4a20.83,20.83,0,0,0-1.31,11C207.7,303.28,231.83,325.26,259.94,331.36Z"/><path class="cls-1" d="M175.29,333c15-4.75,30-4.31,44.85-.54,11,2.81,21.76,6.88,33.44,10.66-6.44-5.38-12.19-11-18.71-15.48-17.86-12.28-37.46-16.11-58.44-9.77-3.19,1-6.14,3.89-8.29,6.63-1.13,1.44-1.24,5.43-.12,6.48C169.68,332.5,173.19,333.62,175.29,333Z"/><path class="cls-1" d="M254.08,348.44c-21.35-10.48-43.37-17.8-67.64-14.71-7.31.93-14.15,3-18.6,9.56-3.67,5.45-2.66,9.87,3,13,1.75.95,3.59,1.73,5.4,2.6C200.85,343.58,226.75,341,254.08,348.44Z"/><path class="cls-1" d="M593.28,70.92c4.69,8.83,8.48,18.14,12.38,26.68-.38.65-.07.29.05-.12,4.42-14.8,10.91-28.32,23.19-38.4a4.3,4.3,0,0,0,1-3.23c-.86-11.23-11.24-21.44-22.36-22.12-12-.73-23.47,7.74-25.88,19.18a6.5,6.5,0,0,0,2.13,6.88C587.35,63.09,591,66.7,593.28,70.92Z"/><path class="cls-1" d="M979.31,325.93c1-.33,1.57-.52,2.11-.67,15-4,30.06-5.47,45.14,0,1.22.45,3.25-.17,4.43-1a24.78,24.78,0,0,0,7.87-31c-5.31-10.47-18.64-15.93-29.76-11.84a7.57,7.57,0,0,0-4,4.64c-2.52,10.15-6.85,19.3-13.83,27.11C987.56,317.35,983.6,321.37,979.31,325.93Z"/><path class="cls-1" d="M805.88,222.43A31,31,0,0,0,795,244.62c.58-.46,1.08-.8,1.5-1.21,18.23-17.61,40.07-25.94,65.28-24.21s45.42,12.62,56.94,35.59c14.26,28.41,9.85,55.92-7.27,81.87-2.72,4.12-6.17,7.76-9.28,11.61,9.94,0,17.19-4.66,23.18-12.09,17.48-21.66,21.5-46.09,14.22-72.37a82.86,82.86,0,0,0-72.65-60.23C844.1,201.53,823.47,206.83,805.88,222.43Z"/><path class="cls-1" d="M941,338.93c7.33-2.66,14.65-4.92,21.65-7.93,19.94-8.6,32.73-23.68,38.82-44.41,1.33-4.49,1.21-9.15-1.91-13.17-2.48-3.2-5.39-3.71-8.16-.77-1.51,1.59-2.16,4.15-2.8,6.39a82.8,82.8,0,0,1-20.85,35.76C959.38,323.28,950.06,330.82,941,338.93Z"/><path class="cls-1" d="M1016.54,345.51a88.21,88.21,0,0,0-37-.21c-12.73,2.76-25.23,6.17-36.87,12.41,28.27-7,55.18-5.19,79.84,12,.36.24,1,.59,1.22.46,3.13-1.77,7-3,9-5.66,1.32-1.75.66-5.91-.46-8.39C1029.36,349.52,1023.17,346.88,1016.54,345.51Z"/><path class="cls-1" d="M932.7,338.78a21,21,0,0,0,1.9-.94c13.22-8,25.23-17.75,34.65-29.87,6.28-8.09,10.67-17.76,15.14-27.09,2.74-5.72,2.12-12-1.32-17.64-2-3.28-5.09-5.36-8.9-3.62-3.43,1.56-7.79,2.29-7.28,8.29a54.88,54.88,0,0,1-1.49,15.95A98.93,98.93,0,0,1,932.7,338.78Z"/><path class="cls-1" d="M944.86,301.9a92.77,92.77,0,0,1-12.45,31.78,13.77,13.77,0,0,0,1.28-1c16.77-15.59,26.83-34.55,29.68-57.45a28.67,28.67,0,0,0-3.76-18.87c-1.2-2-4.06-4.14-6.31-4.31-5.48-.42-11.09,7.47-9.8,12.92A88.91,88.91,0,0,1,944.86,301.9Z"/><path class="cls-1" d="M1023.23,328c-29.73-8.19-54.28,1.66-76.34,23.42,3.36-1.17,5.61-2,7.87-2.75,23.29-7.88,46.68-12.71,71-3.76,2.15.79,6.11-1,8-2.84,1.14-1.08.87-5.5-.42-6.87C1030.55,332.22,1027,329.05,1023.23,328Z"/><path class="cls-1" d="M210.16,545.08c-6.08.41-12.19.56-18.23,1.29-19,2.31-36.88,7.7-52,20-3.16,2.59-6.62,5.51-8.26,9.06a35.55,35.55,0,0,0-2.78,14c-.06,3.85,3.14,6.3,7.07,6.57,3.69.26,6.94.47,9.64-3.92a117.94,117.94,0,0,1,16.18-21C175.14,557.61,191.49,549.27,210.16,545.08Z"/><path class="cls-1" d="M1047.2,522.73c-15.24,9.65-32.64,12.65-50.28,15.58,5.22,1,10.43,2.05,15.66,3,23.42,4.37,43.63-2.15,60.73-18.4,2.51-2.39,4.2-6,5.39-9.35,1.11-3.11.63-7.37-2.94-8.13-2.88-.61-6.87.64-9.42,2.41C1059.71,512.47,1054,518.43,1047.2,522.73Z"/><path class="cls-1" d="M942.74,365.51c-11.08.84-19.6,5.05-25.6,14.77.86-.16,1.55-.27,2.23-.43,25.07-5.56,48.26-1.05,69,13.93,17.28,12.45,28,29.19,29.14,50.92,1.37,26.49-10.29,47.11-30.24,63.51C977,516.69,965,521.92,951.9,524.69c0,.56,0,1.12,0,1.68,4.9.76,9.88,2.47,14.67,2a55.36,55.36,0,0,0,16.31-4.51c34.31-14.49,53.88-54.11,45.67-92.18C1020.26,393.17,983,362.46,942.74,365.51Z"/><path class="cls-1" d="M1000.73,517.2c-6.65,4.93-14.24,8.58-21.09,12.63a43.69,43.69,0,0,0,5.25-.47c25.47-5.12,45.79-18.13,60.92-39.38,4.09-5.75,5.1-12,5.18-18.65,0-3.38-1.56-5.95-5-6.84-6-1.56-13.79,3-15.61,9C1025,491.13,1015.62,506.17,1000.73,517.2Z"/><path class="cls-1" d="M1013.39,367.51a93.37,93.37,0,0,0-26.9-8.92c-14.1-2.32-28-1.71-41.54,2.92,27.65,1.51,46.2,9,63.13,26.55,4.23,4.36,8.61,4.76,13.73,3.05,5.56-1.86,7.11-5.67,4.25-10.75C1023,375,1019.23,370.44,1013.39,367.51Z"/><path class="cls-1" d="M1034.82,507.56a94.46,94.46,0,0,1-54.69,25.88c0,.6.07,1.21.1,1.81,11.21-1.23,22.51-2,33.62-3.83,17.23-2.9,32.77-9.87,45.91-21.66,5.61-5.05,9.13-11.13,8.44-19-.35-4.14-2.63-7.19-6.71-7.63-3.65-.39-7.2-.84-10.09,3.7A109.18,109.18,0,0,1,1034.82,507.56Z"/><path class="cls-1" d="M620.73,155.22c-4.92,10.51-4.91,20.66.37,31.26a20,20,0,0,0,.9-2.22,81.34,81.34,0,0,1,28.62-43.93c17.88-14.21,38-21,61-16.29,22.16,4.56,37.47,18.26,47.6,37.9s12,40.61,5.68,62.54c7.07-4.37,10.48-10.29,12.33-17.65a72,72,0,0,0,.16-35.94c-11-43.23-53.66-70.32-97.31-61.18C653.2,115.32,632.68,129.73,620.73,155.22Z"/><path class="cls-1" d="M628,125.9c-3.87,7.15-6.31,15.07-9.39,22.64l1,.42c.22-.19.51-.33.64-.56,12.38-21.75,31.13-34.9,55.13-41.07,5.23-1.34,9.9-9.88,7.89-14.82-.73-1.81-3-4-4.77-4.21-5.94-.81-11.86-.46-17.34,2.74C646.75,99.47,635.85,111.38,628,125.9Z"/><path class="cls-1" d="M874.46,181.13c-12.84.37-24.79,3.76-36.25,9.23-12.36,5.9-22.86,14.14-30.44,25.91.61-.38,1.23-.73,1.81-1.14,20.6-14.78,43.46-18.39,67.83-13.08,6.74,1.47,11.33-.77,15.23-5.57,3.29-4,2.7-7.82-1.72-10.45C885.9,183.06,880.66,181,874.46,181.13Z"/><path class="cls-1" d="M782.28,203.52c.69-1.48,1.5-2.92,2.05-4.45,8.71-24.15,7.92-47.93-2.23-71.57a28.9,28.9,0,0,0-13-14.32c-2.18-1.2-5.85-1.61-8-.59-4.9,2.33-6.33,14.09-2.57,18.12C777.75,151.22,786,175.16,782.28,203.52Z"/><path class="cls-1" d="M640.25,79.91c-17.57,20.36-23,45-25.23,70.8,3.44-14.23,9.13-27.28,18.1-38.88s19.56-21,33-26.86c.15-1.06.26-2,.41-2.87,1.48-9-2.2-12.76-11.11-11.67C648.86,71.23,644.32,75.19,640.25,79.91Z"/><path class="cls-1" d="M611.64,148.58a141.78,141.78,0,0,1,10.14-44.83c5-12.38,11.88-23.88,22.73-32.36,3.11-2.42,4.92-7.26,3.43-10-2-3.79-5.93-4.34-9.2-3.17a28.91,28.91,0,0,0-10.82,6.51C604.77,88.68,602.9,117.09,611.64,148.58Z"/><path class="cls-1" d="M865,160.43c-25.42,8.41-42.61,26.74-57.11,48.35a10.11,10.11,0,0,0,1-.8c20-20.32,43.7-31.55,72.76-29.65.44,0,1.14.08,1.29-.15,1.87-2.92,4.6-5.71,5.17-8.89.37-2.13-1.76-5.58-3.78-7.09C878.42,157.79,871.58,158.23,865,160.43Z"/><path class="cls-1" d="M790.58,141.85c4.54,18.15,4.37,36.42-1.68,54.42l1.73.53c3.62-10,7.56-20,10.78-30.11a86.44,86.44,0,0,0,2.3-45c-1.36-6.27-4.51-11.39-10.32-14.51-3.48-1.86-6.84-1.65-9.64,1.34-3.48,3.73-3.67,7.56-2,11.21C785,127,788.67,134.21,790.58,141.85Z"/><path class="cls-1" d="M865,141.51c-11.33,1.16-20.73,6.64-29.61,13.54-15.26,11.86-23,28-28.18,46.55a11.58,11.58,0,0,0,1.47-1.18c16.85-21.24,35.59-39.72,63.73-45.19,2.07-.4,4.31-4,4.9-6.45.37-1.53-1.8-4.59-3.58-5.51A16.45,16.45,0,0,0,865,141.51Z"/><path class="cls-1" d="M826.71,140.19c-.93,7.39-2.63,14.68-4.05,22.34,11.3-12.07,24-21.36,40.36-24.56,1.15-.22,2.36-1.82,2.93-3.06,4.87-10.62.52-24.58-9.43-30.74-9.63-6-24-3.64-31.49,5-1.61,1.87-2.26,3.5-1.26,6.14A51.46,51.46,0,0,1,826.71,140.19Z"/><path class="cls-1" d="M808.8,139.63c.45,15.37-4,29.91-9.53,44.11-1.3,3.35-2.67,6.68-4,10l1,.62c5.91-7.35,12.91-14.08,17.5-22.17,8.06-14.21,11.82-29.86,9.27-46.38-1.05-6.76-2-14-9.05-17.58-1.91-1-5.69-1.07-6.87.13-1.51,1.54-1.91,4.88-1.63,7.32C806.33,123.71,808.56,131.63,808.8,139.63Z"/><path class="cls-1" d="M272.3,329.38c-12.64-21.71-15.1-44.51-8.84-68.47,1.43-5.5-3.19-14.4-8.76-15.72-2.08-.5-5.95.44-6.79,2-2.62,4.71-5.55,9.92-5.9,15.09-.91,13.53,2.83,26.39,8.53,38.64A80.64,80.64,0,0,0,272.3,329.38Z"/><path class="cls-1" d="M854,947.16c-4.84-1.84-9.91-3.14-14.7-5.11-10.16-4.2-17.65-12-25.53-19.86-.18.58-.29.74-.25.86,4.42,15.44,6.43,30.91.77,46.55a4.51,4.51,0,0,0,.79,3.3c6.19,9.87,21.3,13.56,31.92,7.87,10.43-5.59,15.63-19.89,10.89-30.6C857.27,948.83,855.46,947.73,854,947.16Z"/><path class="cls-1" d="M863,930.9c-14.65-2.82-27.09-10-37.84-19.78-9-8.19-16.89-17.7-25.43-26.81,3.65,10.27,6,21.1,12.58,30.12,10.12,13.85,22.68,24.55,39.79,28.78,4.54,1.12,9.32,1.58,13.19-1.67,1.52-1.28,3.19-4.11,2.72-5.59C867.32,933.89,865,931.29,863,930.9Z"/><path class="cls-1" d="M870.18,882.17c-8.16,1.1-16.46,2.11-24.65,1.8-17.68-.66-33.36-7.15-47.94-19.42a21.13,21.13,0,0,0,1,2.57c14.19,20,33.35,32.57,57.3,37.75,8.73,1.88,17.32,2,25.34-2.89,3.09-1.87,5.43-4.29,5.1-8.07C885.79,887.05,877,881.25,870.18,882.17Z"/><path class="cls-1" d="M873.28,909.07c-10.86,1.26-21.06-.91-31-4.56a98.1,98.1,0,0,1-43.55-31.42c-.08.65-.25,1-.13,1.19,13.78,22,30.58,40.75,55.41,50.56a31.35,31.35,0,0,0,12.49,2.34c3.6-.14,7.41-1.78,10.57-3.69a6,6,0,0,0,2.06-8.53C877.64,912.58,875,908.87,873.28,909.07Z"/><path class="cls-1" d="M925.06,748.77c-.37.72-.51.88-.48,1a13.11,13.11,0,0,0,.85,1.62c13.85,21.29,15.9,44.3,9.84,68.43A14.35,14.35,0,0,0,941.45,836c3.44,2.3,7.07,2,8.94-1.09,2.92-4.88,6.49-10.37,6.67-15.72.86-25.27-8-47.11-25.86-65.16C929.34,752.12,927.17,750.55,925.06,748.77Z"/><path class="cls-1" d="M916.79,745.71c-4.37-5-13.1-8.34-20.44-7.94a82.75,82.75,0,0,1,23.9,51.65c1.94,21.58-3,41.43-18.27,57.33-20.57,21.42-46,25.29-73.75,17.92-15.16-4-27.92-12.31-39.23-24.36.43,9.48,1.9,12.74,8.23,19.1C820.2,882.5,858,888,889,872.07c27.49-14.16,42.35-37.37,45.67-67.9C937,782.25,931.46,762.52,916.79,745.71Z"/><path class="cls-1" d="M781.32,922.85c1.09-13.09-.51-25.9-6.18-38.08,0,1.22,0,2.44,0,3.66,1.2,24.2-7.49,44.66-23.62,62.28-4.5,4.92-5.31,10.53-2.27,16.36,1.87,3.57,5.08,5.34,8.31,3.18,4.72-3.14,9.76-6.67,12.83-11.26C777.62,948.22,780.25,935.62,781.32,922.85Z"/><path class="cls-1" d="M662.5,974.87c-18.37-5.91-33.64-16.2-44.65-32.22-3.33-4.84-5.89-10.21-8.79-15.32,0,0-.24.15-.24.25a7.51,7.51,0,0,0,0,1.34c4.1,26.26,17.28,46.75,39,61.92,5.23,3.64,11.06,4.56,17,4.22a8.14,8.14,0,0,0,5.87-4C673.27,985.43,668.48,976.79,662.5,974.87Z"/><path class="cls-1" d="M771.48,884.56c-1.32-10-4-19.16-13.73-24.62.12.64.2,1.21.33,1.77,5.41,23.27,1.8,45.13-10.84,65.32-16.75,26.72-45.77,39.2-74.74,31.21-32-8.84-50.7-31-60-62.94-1.33,4.93-4.07,10-3.64,14.77a61.91,61.91,0,0,0,5.62,19.71c15.42,33.78,54.75,52.15,92.39,43.35C748.45,963.4,776.45,922.23,771.48,884.56Z"/><path class="cls-1" d="M813.94,940.87c-1.91-20.53-12.61-36.19-27.14-51.16,1.32,3.5,2.32,6,3.23,8.55,8.22,23,13.33,46.16,4.8,70.4-.75,2.14,1.16,6.07,3,8,1.1,1.1,5.25.65,6.88-.6a20.08,20.08,0,0,0,6.27-8.08C814.47,959.27,814.8,950.2,813.94,940.87Z"/><path class="cls-1" d="M967.38,783.56c-8.59-12.69-20-22.6-32.4-31.52,17.29,19.65,26.73,42.11,25.41,68.54-.29,5.66,4.17,6.77,7.53,8.45a6.37,6.37,0,0,0,9-3.18c1.71-4.09,3.39-8.78,3-13C979.08,801.83,973.41,792.47,967.38,783.56Z"/><path class="cls-1" d="M792.1,916.26c-3-10-6.59-19.89-9.92-29.83l-1.42.71c7.3,27.72,5.76,54.22-10.75,78.68-.24.36-.56,1-.41,1.24,1.68,3,2.83,6.82,5.38,8.69,1.86,1.36,6,1,8.43-.08,5.82-2.61,8.77-7.93,10.13-14A89,89,0,0,0,792.1,916.26Z"/><path class="cls-1" d="M1029,765.68a6.21,6.21,0,0,0-4.78-.7c-9,2.78-18.17,4.38-27.61,2.73-6.45-1.13-12.87-2.41-19.58-3.68a15,15,0,0,0,1.21,1.51c11.1,10.76,19.92,22.84,22.82,38.49.22,1.16,1.76,2.41,3,3,10.68,5.12,24.87.72,31-9.51S1038.57,772.69,1029,765.68Z"/><path class="cls-1" d="M1058.5,580.83c-13.16-11.48-28.69-18-45.59-21.55-7.68-1.59-15.46-2.71-23.19-4-.09.37-.19.75-.28,1.12a90.9,90.9,0,0,1,37.16,17.26c11.1,8.62,20,18.87,25.72,32.46l4.75.7c7.1,1,10.73-2.37,10.49-9.56S1063.49,585.18,1058.5,580.83Z"/><path class="cls-1" d="M996.51,561.7c-5-1.55-10.26-2.18-16.43-3.44,1,1.43,1.08,1.76,1.29,1.85,24.63,10.71,39.54,29.75,47.18,55,1.72,5.7,10,10.15,15.47,7.85,1.87-.79,4.48-3.08,4.43-4.62-.19-5.84.25-12.53-2.4-17.33C1035.12,581.23,1018,568.43,996.51,561.7Z"/><path class="cls-1" d="M1074.7,570.89c-6-5.5-12.38-11.13-19.55-14.89-19.62-10.26-40.3-9.7-61.08-3.61,6,1.08,12,1.93,17.79,3.22,21,4.64,40.36,12.29,55,29.12,1.56,1.79,5.75,2.31,8.37,1.76,1.48-.31,3.32-4.11,3.11-6.14C1078,577.05,1077,573,1074.7,570.89Z"/><path class="cls-1" d="M1083,521.4a7,7,0,0,0-5.27,2c-6.68,7.2-14.31,13-23.53,16.4-5.83,2.17-11.79,4-18.07,6.12,2,.52,3.64.92,5.24,1.36,13,3.64,25.16,9,34.26,19.42,2.61,3,5.28,3.19,8.52,2.52,11-2.26,19.77-13.22,19.5-24.24C1103.38,533.41,1094.41,523,1083,521.4Z"/><path class="cls-1" d="M1023.05,721.13c-24.85,16.46-50.95,18.7-78.58,11a20.07,20.07,0,0,0,1.94,1.14c17.31,7.73,35.06,13.84,54.32,13.52,8.55-.14,17.29-.36,24.82-5.3,4.06-2.65,7.52-6.23,7.42-11.45s-4.73-6.64-8.59-8.45A7.32,7.32,0,0,0,1023.05,721.13Z"/><path class="cls-1" d="M1023.72,746.54c-13.82,4.71-27.93,4.88-41.8,1.85-12.76-2.8-25.12-7.41-37.65-11.22l-.58.54c9.48,6.68,18.35,14.57,28.58,19.76,15.56,7.87,32.47,10.35,49.52,4.51,3.58-1.23,6.73-4.47,9.33-7.44,1.05-1.2.93-5.19-.15-6.08C1029.17,747,1025.77,745.85,1023.72,746.54Z"/><path class="cls-1" d="M647.84,994.79c-19-12.28-31.87-29.27-38.91-50.71-1.42-4.33-2.42-8.8-3.62-13.21L604,931c1.75,10.69,3.2,21.45,5.34,32.07a90.3,90.3,0,0,0,18.17,38.69c4,5,8.57,9.27,15.31,10.09,9,1.09,13.25-3.52,10.78-12.22C653,997.66,650,996.17,647.84,994.79Z"/><path class="cls-1" d="M982.53,774.77c-11.62-13.81-26.68-21.44-43.79-25.71,8.23,8,16.73,15.3,24.2,23.58,10.28,11.39,17.74,24.45,20.78,39.87.49,2.49,3.84,5.12,6.48,6.2,1.27.52,4.94-2,5.79-3.85a19.18,19.18,0,0,0,1.62-10.1C995.88,793.21,990,783.63,982.53,774.77Z"/><path class="cls-1" d="M938.56,725.2c1.37.62,2.71,1.33,4.12,1.86,23,8.62,45.5,7.69,67.9-2.34A29.21,29.21,0,0,0,1025,710.6a10.39,10.39,0,0,0,0-8.46c-2.93-5.23-14.29-6.49-18.64-2.36C987.3,717.81,965,726.72,938.56,725.2Z"/><path class="cls-1" d="M975.28,561.43c-7.46-2.7-14.64-2.69-21.89,1.15,1,.42,2,.9,3,1.21,17.1,5.31,31.27,15,41.86,29.36,17.4,23.6,22.84,49.15,9.2,76.35C993,698.28,958.94,712,930.1,709c-5.44-.56-10.82-1.73-16.41-2.65,7.31,9.41,9.11,10.9,15.41,12.66a69.77,69.77,0,0,0,36.81.1c42.65-11,71.75-55.06,60-100.23C1018.72,591.2,1002.66,571.37,975.28,561.43Z"/><path class="cls-1" d="M558.67,1000.68a90.4,90.4,0,0,0,20.91-41.33c2.07-9.48,3.58-19.08,5.33-28.63l-1.23-.24c-.43,1.6-.83,3.21-1.29,4.8-7.71,26.36-22.31,47.05-48.19,58.45a3.56,3.56,0,0,0-1.44,1c-3.84,5.39,0,13.84,6.57,14.53C547.43,1010.12,553.54,1006.47,558.67,1000.68Z"/><path class="cls-1" d="M253.05,785.92c.4-16.65,5.95-31.72,15.64-45.36-21.25,17.1-33.47,39.11-34.5,66.55-.2,5.13,2.4,10.6,4.6,15.51,1.76,3.92,5.7,4.35,9.4,2.08,5.56-3.4,7.67-9.45,6.71-16A136.64,136.64,0,0,1,253.05,785.92Z"/><path class="cls-1" d="M386.66,859.9c9.35-6.71,14.22-15.2,14.76-26.68-.84.76-1.64,1.43-2.38,2.16q-24.3,23.79-58.28,24.61c-31.53.74-57.86-16.25-67.63-44.14-7.36-21-5.83-41.86,4.11-61.62,4.56-9,11.08-17.09,16.34-25-7,.31-10.45,1.45-15.51,6.93A86.2,86.2,0,0,0,267,750.19c-22.66,38.26-9,88.71,29.93,111.69C325.4,878.67,362,877.59,386.66,859.9Z"/><path class="cls-1" d="M263.65,739.25C248.92,748.16,236,759,225.74,772.8c-6,8-10.87,16.67-13.29,26.52-1.41,5.78-.86,11.31,2.51,16.28,2.18,3.22,5.46,4.84,9.14,2.91,2.71-1.41,6.37-2,6.76-6.35.77-8.48.82-17.2,3-25.32A94.47,94.47,0,0,1,263.65,739.25Z"/><path class="cls-1" d="M350.71,891c15.6-5.77,28.84-14.64,38.61-28.38-22.05,14.71-45.86,17.88-71.22,11.68-6.21-1.52-13.39,1.51-15.43,7.49-.75,2.2.07,6.67,1.64,7.6,4.88,2.86,10.33,5.78,15.8,6.37C330.53,896.92,340.79,894.69,350.71,891Z"/><path class="cls-1" d="M232.25,760.09c7.54-7.15,15.42-14,23.8-21.49-7.3,2.68-14,4.74-20.42,7.57-20.73,9.16-34.3,24.72-39.74,46.8-.85,3.47.47,7.77,1.74,11.35.56,1.59,4,3.64,5.26,3.18a10.84,10.84,0,0,0,5.47-5.28c1.6-3.41,1.91-7.39,3.31-10.92A85.91,85.91,0,0,1,232.25,760.09Z"/><path class="cls-1" d="M331.14,917.55c25.48-7.92,42.76-25.92,57.21-47.43-.44.4-.89.79-1.31,1.2-20.12,19.94-43.83,30.32-72.58,27.38a3.22,3.22,0,0,0-1.75.26,9.87,9.87,0,0,0-.22,17.12C318.48,919.7,324.8,919.52,331.14,917.55Z"/><path class="cls-1" d="M181.21,708.15c12.46,8.49,27,11.43,41.86,12.14a71.26,71.26,0,0,0,32.06-5.68c-26.61,1.14-48.62-8.57-67.27-26.92-3.67-3.62-13.2-3.25-16.47.77-1.23,1.51-2.15,4.89-1.31,6.16C173.32,699.48,176.55,705,181.21,708.15Z"/><path class="cls-1" d="M337.62,935.76c28.11-9.36,43.61-30,50.75-58.14L387,879.35c-16.72,20.64-35.41,38.27-63,43.25-2.36.43-5,4.22-5.71,6.92-.43,1.59,2.24,4.78,4.27,6.09C327.3,938.72,332.67,937.41,337.62,935.76Z"/><path class="cls-1" d="M248.91,711.11c13.62,0,26-2.86,33.14-16.09-.89.2-2.06.41-3.2.71-16.52,4.39-32.84,3.43-48.92-2.07-49.38-16.88-65.58-70.57-33.68-111.66,11.36-14.63,26.13-24.36,45.21-29.91-6.71-1.7-11.9-5-17.9-2.77-6.15,2.28-12.56,4.27-18.18,7.55-28.68,16.74-43.47,50.43-37.78,85C173.87,680,210.34,711.14,248.91,711.11Z"/><path class="cls-1" d="M170.74,750.11c8.42,3.71,17.44,4.15,26.59,3.35,21.07-1.86,37.82-12.09,52.78-27.12-5.4,2.07-10.16,4.11-15.06,5.76-21.41,7.19-42.92,11.19-65,2.46-1.85-.73-5.42.5-6.92,2.05-1.19,1.24-1.39,5-.35,6.49A20.74,20.74,0,0,0,170.74,750.11Z"/><path class="cls-1" d="M180,734.27c8.79.91,17.73,1.65,26.49,1,16.84-1.21,32.31-7.43,47.23-15.62a4.91,4.91,0,0,0-1.33,0c-27.29,7.56-53,4.41-77-11.06-.49-.31-1.27-.85-1.56-.67-3.37,2-7.3,3.48-9.8,6.26-2.66,2.94-1.46,6.89.63,10.26A20,20,0,0,0,180,734.27Z"/><path class="cls-1" d="M217.66,752.57c-1.72.4-2.3.51-2.87.67-14.7,4.2-29.4,5.77-44.3.69-1.46-.49-3.88.36-5.27,1.39-9.31,6.9-12.23,20.84-6.73,31,5.43,10,18.91,15.25,29.75,11.12,1.72-.65,3.29-2.83,4-4.66,1.79-4.36,2.8-9,4.57-13.41C201.09,768.91,209.07,761.19,217.66,752.57Z"/><path class="cls-1" d="M410.26,955.71a88.33,88.33,0,0,1-8.67-51.38c.91-6.89,2.8-13.66,4.51-21.71-11,23.35-18.74,46.08-14.78,71.29,1.16,7.33,4.06,13.5,10.74,17.31a7.9,7.9,0,0,0,10.38-1.7c3.55-4.26,3.54-6.28.09-10.37A17.07,17.07,0,0,1,410.26,955.71Z"/><path class="cls-1" d="M575.39,923.1c4.59-9.65,6.62-19.38.56-29.38-.18.1-.38.14-.41.24-.35,1-.69,2-1,3-5.2,17.47-14.95,32-29.54,42.78-23.73,17.57-49.66,23.34-76.66,8.9s-38.58-39-39.56-68.69c-.29-8.73,1.76-17.55,2.7-25.94-6.79,4.06-9.8,8-12.11,16.56a71.19,71.19,0,0,0,.34,38.6,82.72,82.72,0,0,0,95,59C542.06,963.19,563.13,948.83,575.39,923.1Z"/><path class="cls-1" d="M415.08,903.5c-1.45-8.9-1.1-18.1-1.54-26.74a18.63,18.63,0,0,0-1.38,2.36c-9.15,19.45-10.15,39.63-4.72,60.12,2.73,10.3,6.81,20.06,16.93,25.76,3.45,2,6.86,3,10.35.77,5.81-3.75,6.86-14.8,2.08-19.94C425.59,933.76,417.74,919.78,415.08,903.5Z"/><path class="cls-1" d="M567,961.56c8.22-12.12,13.49-25.3,13-40.26-.27.51-.57,1-.8,1.53-10.28,23.37-28.29,38-52.19,45.75-6.87,2.22-10.12,6.92-11.06,13.59-.82,5.84,2,9.18,7.92,9.19,6.14,0,12-1,17.46-4.49A88.49,88.49,0,0,0,567,961.56Z"/><path class="cls-1" d="M587.3,938.07c-1,5.58-1.89,10.87-3,16.09-4.61,21.24-12.59,40.6-29.94,55-1.8,1.5-2.49,5.83-1.8,8.33.46,1.65,4.38,3.43,6.6,3.25,3.14-.24,7-1.44,9-3.65,5.5-6.07,11.12-12.37,15-19.5C593.41,978.72,593,958.67,587.3,938.07Z"/><path class="cls-1" d="M198.65,557.14c3.85-2.71,8.08-4.89,12.13-7.32-26.19,4.84-46.53,18.38-60.88,41C146.46,596.2,146,602,146,607.94c0,3.33,1.7,5.9,5.33,6.51,6,1,12.8-3.53,14.43-9.44C171.2,585.25,181.8,569,198.65,557.14Z"/><path class="cls-1" d="M593.84,978.19c-.68,2-1,3-1.31,4-3.76,13.61-9.18,26.38-20.14,35.86-2.77,2.4-3.34,4.79-2.71,8a25.06,25.06,0,0,0,24.64,20c11.55-.2,22.06-9.51,23.68-21.15a4.56,4.56,0,0,0-1-3.58C603.68,1010.45,597.75,995.61,593.84,978.19Z"/><path class="cls-1" d="M368.77,947.29c.44-10,2.13-19.95,3.28-29.74-.12.12-.79.71-1.43,1.34-10.57,10.38-22.28,18.69-37.3,21.38-1.43.26-3.06,2-3.76,3.42-5,10.51-.74,24.54,9.21,30.76s24.55,3.86,31.67-5.27c1-1.33,1.13-3.8.89-5.65C370.61,958.09,368.54,952.65,368.77,947.29Z"/><path class="cls-1" d="M390.31,915.33C393,905,397.08,895.11,400.53,885l-.6-.58c-6.09,7.45-13.3,14.27-18,22.51-7.88,13.75-11.66,29-9.61,45.07.88,7,1.64,14.36,8.53,18.44,1.88,1.12,6,1.62,6.91.53,1.73-2,3.19-5.75,2.46-8C385.11,947,386.14,931.07,390.31,915.33Z"/><path class="cls-1" d="M609.33,975.06c-3.78-12.2-5.84-24.93-8.49-36.71-2.46,12.59-6.52,26-3.51,40.09,3,14.27,7.93,27.8,19.19,37.79,3,2.67,7.28,4.33,11.26,5.27,1.73.42,5.45-1.76,6-3.44a8.41,8.41,0,0,0-2.12-7.17C620.69,1001.05,613.57,988.75,609.33,975.06Z"/><path class="cls-1" d="M413.58,876.71c.37-.26.14-.19,0,0Z"/><path d="M1107,544.35c-.32-13.07-9.61-23-24.52-26.88-.5-4.1-.25-8.23-1.6-11.73-1.71-4.43-6.1-4.91-10.83-3.87,1.57-6.12,3-11.85-.53-17.28-3.84-5.92-10-4.91-15.87-4.55,1-6.5,2.46-12.88-3.38-17.1-5.65-4.08-11.58-1.26-17.58,1.12,4-25.5-2.35-48-17.52-68.48,6.37-.63,12.15-1.27,14.78-7.15s-1.32-10.42-4.23-15.17c5.24-2.35,10.54-4.08,11.58-10.49,1-6.17-3.11-10.16-6.5-14.76,4.69-1.51,8.25-4.25,7.37-8.95-.75-4-3.31-7.59-5.18-11.61,11.81-11.35,15-23.89,8.79-35.93a26.5,26.5,0,0,0-12.44-11.86c-7.72-3.73-15.62-3.45-22.79-1.16-2.48-3.47-4.07-7.5-7-9.29-2.67-1.62-6.83-.8-10.84-1.1-1.36-4.08-2.81-9.36-8.57-11.62s-10.14,1.35-14.71,4.19c-2.35-5.48-4.09-11.18-10.67-12-6.25-.8-9.71,4-13.55,7.9-10.69-25.85-27.8-41.86-52.8-51.84,4.6-3.45,9.6-6.7,9.48-13.25-.13-7.13-6.46-8.85-11.58-11.8,3.7-4.52,7.77-9.42,4.47-14.67-2.69-4.28-7.71-7.09-11.79-10.63,5.92-8.16.12-13.93-10.19-16.85,5-15.7,1-29.36-10.84-36.38-12-7.11-26-4.19-37.18,7.74-9.22-7.33-13.14-7.28-19.2.41-4-3.62-8-7.22-14.06-6.39-6.49.89-8.14,6.61-10.79,11.48-5.18-4.17-10.13-8.41-16.57-5.2-6.11,3-6.53,9.62-7.48,15.94a87.06,87.06,0,0,0-32.27-17.19,90.59,90.59,0,0,0-36.72-2.34c2.67-5.61,5.09-11.07,1.8-16.57-3.46-5.78-9.8-4.42-15.24-4.48-.63-16.24-3.61-18.92-18.52-17.16-.2-11.7-4.83-14.68-18-11.59-4.2-15.64-12.76-24.77-25.87-25.35-17-.75-26.29,9.31-30.12,23.93-4.39.56-8.32.42-11.77,1.66-4.37,1.56-4.46,6-4.17,10.25-5.75-1.83-11.14-3.29-16.4-.08-6,3.65-4.59,9.73-4.39,15.5-6.52.25-13.27-2.24-18.28,3.12-5.31,5.68-2.78,11.92-.34,18.42-26-3.23-48.84,3.67-69,20.21-1.39-17.45-7.47-20.59-22.81-12-2.28-4.83-4.18-11.06-10.43-10.89-4.93.13-9.8,2.89-14.79,4.51-3.8-9.33-11.45-9.71-20.79,0-12.34-11.33-25-14.35-36.07-7.43a35.82,35.82,0,0,0-11.07,11.85c-4.57,7.63-3.77,16.11-.87,24.29-10.76,3.83-12.68,7.76-8.73,17.36-13.73,5.07-15.47,9.77-8.33,22.5-15.15,9.54-15.6,16-1.6,27.88-24.76,9.25-41.73,26.41-51.81,50.86-3.25-5.65-6.62-10.73-13.17-11.09-7.34-.4-9.39,6.13-12.46,11.48C236,249,231,245,225.8,248.16c-4.33,2.65-7.19,7.71-10.72,11.72-5.32-4.6-12.74-3.69-17,9.71-17.43-4.43-30-.72-36.75,11-5.18,9-6.9,23.4,7.37,36.93-7.26,9.35-7.18,13.09.44,19.09-3.69,4.11-7.7,8.06-6.57,14.41s6.87,8,11.84,10.72c-3.31,5.07-8.06,9.72-4.61,16,3.14,5.71,9.27,6.1,15.54,6.67-17.58,21-23.45,44.8-19.71,71.35-5.7-2.41-11.09-5.13-16.6-1.48s-4.34,9.85-4.2,15.36c-15.69-.48-19.28,3.43-17.21,17.69l-11.85,3.44c.26,5.54.5,10.34.73,15.14-16.39,4-25.58,13.53-26.17,27.13-.59,13.25,8.09,23.34,24.26,28.71.48,4.13-.15,8.66,1.7,11.67,1.69,2.77,6,3.9,9.57,5.94-2.72,15.18.88,19.78,16.84,20,.49,5.71-2,12.37,3.92,16.57,5.74,4.07,11.36,1,17.14-1.44-3.34,25.11,3.27,47.25,18.58,67.12-6.49.62-12.71,1-15.4,7.38-2.61,6.18,1.9,10.9,5,15.92-5.71,2.41-11.12,4.57-12.47,11.06-1.3,6.26,2.5,10.67,5.9,15.18-9.42,4.45-9.61,9.9-.93,20.14-12,10.56-15.38,24-9.17,36.09,6.39,12.47,19.33,17,35.81,13,2.36,3.26,4,7.29,6.91,9,2.74,1.62,6.91.81,11,1.11,1.29,4,3,9.13,8.69,11.39,5.95,2.36,10.08-1.76,14.67-4.4,2.55,5.74,4.53,11.81,11.79,11.8,6.49,0,9.87-5.13,13.46-10,9.36,24.93,26.41,41.93,50.84,52-5,3.73-10.18,7-10,13.78.18,7,6.45,8.91,11.11,12-10.65,12.72-4.75,20.75,8.7,25.11-2.95,3.58-6,7.69-2.44,11.86,2.7,3.19,6.83,5.16,10.53,7.82-4.81,14.5-1.12,27.73,10.23,35.14,11.77,7.68,24.84,5.29,38-6.93,8.95,7.56,13.82,7.29,19-1.06,12.32,10.11,16.46,9.52,25.31-3.75,5,3.82,10.4,7.36,16.76,3.73,5.94-3.38,7-9.8,7.93-16.47,21.47,17.37,45.39,23.38,72,19.06-6.43,18-4.45,21.53,12.84,23.19,1,17.13,2.55,18.45,20.12,17.38-.86,10.41,4.13,13.73,16.81,11.19,5.4,17.7,15,26.48,28.61,26.21,13.33-.26,23.34-9.37,27.63-25.16,11.51,1.49,13.79.15,16.69-9.91,5.12,1.08,10.26,2.16,15-1.44,5.13-3.91,3.75-9.58,3.67-15.22,6.3,1.11,12.54,2.09,16.2-3.88,3.35-5.46.64-11.1-1.65-16.76,27.15,4.63,50.87-2.1,72.09-18.94,1,6,1.17,12.12,7.14,15s10.73-1.11,15.64-4.39c2.24,5.32,4.23,10.54,10.52,11.53s10.21-3.1,14.46-6.54c5.35,9.38,10.46,9.58,20.29,1.06,12.89,12.32,25,15.59,36.51,8.6a36.43,36.43,0,0,0,11.45-12.09c4.52-7.45,3.75-15.83,1-23.86,11.31-5.21,13-8.28,9.7-15.44,4.18-3.64,9-6.4,11.7-10.55,3.33-5.17-.92-10-3.86-14.41,14.86-7.69,15.21-14.17,1.56-27.52,24.61-9,41.77-25.72,52.08-49.74,3.82,5.56,7.15,11.3,14.76,10.5s8.89-8,12.35-13.06c4.7,3.11,8.79,7.34,15.12,5,6.06-2.29,7.34-8,9.7-13.3,3.62,3.39,7.81,4.81,11.4,1.64,3-2.67,4.81-6.7,7.29-10.35,15.23,4.37,27.89.71,35.1-10.57,3.45-5.41,4.44-11.36,3.88-17.65-.76-8.42-5.17-14.87-10.65-19.68,1.72-3.92,4.39-7.35,4.4-10.79,0-3.12-2.89-6.24-4.73-9.8,2.94-3.19,6.42-7.23,5.55-13.33-.95-6.6-6.94-7.87-11.37-10.74,10.51-14.64,3.41-22.39-12.65-24.29,16.48-20.42,22.34-43.62,18.55-69.54,5.73,2.25,11.2,4.53,16.72,1.29,5.81-3.42,5.09-9.55,5.16-15.39,5.66-.1,11.46,1.77,15.75-3.32,4.16-4.93,2.4-10.61,2-16.12,10.39.45,13.43-4.46,10.78-16.84C1099.08,568,1107.32,558.69,1107,544.35Zm-31.21-38.89c3.57.76,4,5,2.94,8.13-1.19,3.36-2.88,7-5.39,9.35-17.1,16.25-37.31,22.77-60.73,18.4-5.23-1-10.44-2-15.66-3,17.64-2.93,35-5.93,50.28-15.58,6.79-4.3,12.51-10.26,19.14-14.86C1068.89,506.1,1072.88,504.85,1075.76,505.46Zm-24.36-18.61c2.89-4.54,6.44-4.09,10.09-3.7,4.08.44,6.36,3.49,6.71,7.63.69,7.85-2.83,13.93-8.44,19-13.14,11.79-28.68,18.76-45.91,21.66-11.11,1.87-22.41,2.6-33.62,3.83,0-.6-.07-1.21-.1-1.81a94.46,94.46,0,0,0,54.69-25.88A109.18,109.18,0,0,0,1051.4,486.85ZM1046,464.49c3.44.89,5,3.46,5,6.84-.08,6.64-1.09,12.9-5.18,18.65-15.13,21.25-35.45,34.26-60.92,39.38a43.69,43.69,0,0,1-5.25.47c6.85-4.05,14.44-7.7,21.09-12.63,14.89-11,24.31-26.07,29.65-43.73C1032.2,467.47,1040,462.93,1046,464.49Zm-17.42-32.77c8.21,38.07-11.36,77.69-45.67,92.18a55.36,55.36,0,0,1-16.31,4.51c-4.79.43-9.77-1.28-14.67-2,0-.56,0-1.12,0-1.68,13.1-2.77,25.1-8,35.42-16.48,19.95-16.4,31.61-37,30.24-63.51-1.12-21.73-11.86-38.47-29.14-50.92-20.79-15-44-19.49-69-13.93-.68.16-1.37.27-2.23.43,6-9.72,14.52-13.93,25.6-14.77C983,362.46,1020.26,393.17,1028.57,431.72ZM939.85,540c0,188.44-152.76,341.21-341.2,341.21S257.44,728.44,257.44,540,410.2,198.79,598.65,198.79,939.85,351.56,939.85,540Zm86.21-159.64c2.86,5.08,1.31,8.89-4.25,10.75-5.12,1.71-9.5,1.31-13.73-3.05-16.93-17.53-35.48-25-63.13-26.55,13.57-4.63,27.44-5.24,41.54-2.92a93.37,93.37,0,0,1,26.9,8.92C1019.23,370.44,1023,375,1026.06,380.36Zm6.28-24.26c1.12,2.48,1.78,6.64.46,8.39-2,2.65-5.9,3.89-9,5.66-.25.13-.86-.22-1.22-.46-24.66-17.17-51.57-19-79.84-12,11.64-6.24,24.14-9.65,36.87-12.41a88.21,88.21,0,0,1,37,.21C1023.17,346.88,1029.36,349.52,1032.34,356.1Zm1-20.89c1.29,1.37,1.56,5.79.42,6.87-1.93,1.84-5.89,3.63-8,2.84-24.29-8.95-47.68-4.12-71,3.76-2.26.77-4.51,1.58-7.87,2.75C969,329.67,993.5,319.82,1023.23,328,1027,329.05,1030.55,332.22,1033.35,335.21Zm-24.25-53.82c11.12-4.09,24.45,1.37,29.76,11.84a24.78,24.78,0,0,1-7.87,31c-1.18.81-3.21,1.43-4.43,1-15.08-5.47-30.1-4-45.14,0-.54.15-1.07.34-2.11.67,4.29-4.56,8.25-8.58,12-12.79,7-7.81,11.31-17,13.83-27.11A7.57,7.57,0,0,1,1009.1,281.39Zm-17.71-8.74c2.77-2.94,5.68-2.43,8.16.77,3.12,4,3.24,8.68,1.91,13.17-6.09,20.73-18.88,35.81-38.82,44.41-7,3-14.32,5.27-21.65,7.93,9.07-8.11,18.39-15.65,26.75-24.13A82.8,82.8,0,0,0,988.59,279C989.23,276.8,989.88,274.24,991.39,272.65Zm-26,11.21a54.88,54.88,0,0,0,1.49-15.95c-.51-6,3.85-6.73,7.28-8.29,3.81-1.74,6.89.34,8.9,3.62,3.44,5.61,4.06,11.92,1.32,17.64-4.47,9.33-8.86,19-15.14,27.09-9.42,12.12-21.43,21.84-34.65,29.87a21,21,0,0,1-1.9.94A98.93,98.93,0,0,0,965.4,283.86Zm-12.1-31.77c2.25.17,5.11,2.27,6.31,4.31a28.67,28.67,0,0,1,3.76,18.87c-2.85,22.9-12.91,41.86-29.68,57.45a13.77,13.77,0,0,1-1.28,1,92.77,92.77,0,0,0,12.45-31.78A88.91,88.91,0,0,0,943.5,265C942.21,259.56,947.82,251.67,953.3,252.09Zm-13.73,11.72c7.28,26.28,3.26,50.71-14.22,72.37-6,7.43-13.24,12.09-23.18,12.09,3.11-3.85,6.56-7.49,9.28-11.61,17.12-26,21.53-53.46,7.27-81.87-11.52-23-31.85-33.87-56.94-35.59s-47,6.6-65.28,24.21c-.42.41-.92.75-1.5,1.21a31,31,0,0,1,10.88-22.19c17.59-15.6,38.22-20.9,61-18.85A82.86,82.86,0,0,1,939.57,263.81ZM890.92,186c4.42,2.63,5,6.42,1.72,10.45-3.9,4.8-8.49,7-15.23,5.57-24.37-5.31-47.23-1.7-67.83,13.08-.58.41-1.2.76-1.81,1.14,7.58-11.77,18.08-20,30.44-25.91,11.46-5.47,23.41-8.86,36.25-9.23C880.66,181,885.9,183.06,890.92,186Zm-6.61-23.83c2,1.51,4.15,5,3.78,7.09-.57,3.18-3.3,6-5.17,8.89-.15.23-.85.18-1.29.15-29.06-1.9-52.76,9.33-72.76,29.65a10.11,10.11,0,0,1-1,.8c14.5-21.61,31.69-39.94,57.11-48.35C871.58,158.23,878.42,157.79,884.31,162.2Zm-10.63-18.93c1.78.92,4,4,3.58,5.51-.59,2.48-2.83,6.05-4.9,6.45-28.14,5.47-46.88,24-63.73,45.19a11.58,11.58,0,0,1-1.47,1.18c5.16-18.52,12.92-34.69,28.18-46.55,8.88-6.9,18.28-12.38,29.61-13.54A16.45,16.45,0,0,1,873.68,143.27ZM825,109.18c7.44-8.65,21.86-11,31.49-5,10,6.16,14.3,20.12,9.43,30.74-.57,1.24-1.78,2.84-2.93,3.06-16.39,3.2-29.06,12.49-40.36,24.56,1.42-7.66,3.12-14.95,4.05-22.34a51.46,51.46,0,0,0-2.94-24.87C822.77,112.68,823.42,111.05,825,109.18Zm-18-.8c1.18-1.2,5-1.09,6.87-.13,7.08,3.55,8,10.82,9.05,17.58,2.55,16.52-1.21,32.17-9.27,46.38-4.59,8.09-11.59,14.82-17.5,22.17l-1-.62c1.35-3.34,2.72-6.67,4-10,5.52-14.2,10-28.74,9.53-44.11-.24-8-2.47-15.92-3.37-23.93C805.15,113.26,805.55,109.92,807.06,108.38Zm-23.31.15c2.8-3,6.16-3.2,9.64-1.34,5.81,3.12,9,8.24,10.32,14.51a86.44,86.44,0,0,1-2.3,45c-3.22,10.16-7.16,20.08-10.78,30.11l-1.73-.53c6.05-18,6.22-36.27,1.68-54.42-1.91-7.64-5.55-14.88-8.84-22.11C780.08,116.09,780.27,112.26,783.75,108.53Zm-22.61,4.06c2.15-1,5.82-.61,8,.59a28.9,28.9,0,0,1,13,14.32c10.15,23.64,10.94,47.42,2.23,71.57-.55,1.53-1.36,3-2.05,4.45,3.76-28.36-4.53-52.3-23.71-72.81C754.81,126.68,756.24,114.92,761.14,112.59Zm16.22,58.3a72,72,0,0,1-.16,35.94c-1.85,7.36-5.26,13.28-12.33,17.65,6.28-21.93,4.52-42.76-5.68-62.54s-25.44-33.34-47.6-37.9c-22.93-4.71-43.09,2.08-61,16.29A81.34,81.34,0,0,0,622,184.26a20,20,0,0,1-.9,2.22c-5.28-10.6-5.29-20.75-.37-31.26,11.95-25.49,32.47-39.9,59.32-45.51C723.7,100.57,766.39,127.66,777.36,170.89ZM678.53,88.3c1.79.25,4,2.4,4.77,4.21,2,4.94-2.66,13.48-7.89,14.82-24,6.17-42.75,19.32-55.13,41.07-.13.23-.42.37-.64.56l-1-.42c3.08-7.57,5.52-15.49,9.39-22.64,7.86-14.52,18.76-26.43,33.2-34.86C666.67,87.84,672.59,87.49,678.53,88.3ZM655.45,70.43c8.91-1.09,12.59,2.69,11.11,11.67-.15.9-.26,1.81-.41,2.87-13.47,5.87-24.1,15.3-33,26.86s-14.66,24.65-18.1,38.88c2.19-25.76,7.66-50.44,25.23-70.8C644.32,75.19,648.86,71.23,655.45,70.43ZM638.74,58.18c3.27-1.17,7.16-.62,9.2,3.17,1.49,2.78-.32,7.62-3.43,10-10.85,8.48-17.69,20-22.73,32.36a141.78,141.78,0,0,0-10.14,44.83c-8.74-31.49-6.87-59.9,16.28-83.89A28.91,28.91,0,0,1,638.74,58.18Zm-57.08-5.27c2.41-11.44,13.86-19.91,25.88-19.18,11.12.68,21.5,10.89,22.36,22.12a4.3,4.3,0,0,1-1,3.23c-12.28,10.08-18.77,23.6-23.19,38.4-.12.41-.43.77-.05.12-3.9-8.54-7.69-17.85-12.38-26.68-2.25-4.22-5.93-7.83-9.49-11.13A6.5,6.5,0,0,1,581.66,52.91Zm-16,8.14c.89-3.66,5.09-3.88,8.18-2.87a22.78,22.78,0,0,1,8.65,4.87c13.4,12.9,19.61,29.29,19.85,47.44.12,9.13-2.89,18.3-4.67,28.53-2.54-10.72-4.47-20.28-7.09-29.64a90.09,90.09,0,0,0-22.9-39.25C565.82,68.19,565,63.82,565.69,61.05ZM544.08,73.26c1.15-3.64,3.73-5.3,7.61-5.44,7.49-.28,12.84,3.51,17.43,8.77a92.25,92.25,0,0,1,19.68,38.05c3.2,12.22,5.61,24.52,4.91,37.25-.08,1.45-.2,2.9-.28,4.21-2.59-8.58-4.58-17.38-7.88-25.66-7.71-19.32-19.9-35.15-38.16-45.81C544.77,83.11,542.93,76.86,544.08,73.26ZM523.22,91.05c.62-4.41,4-6.39,10-6.52,10.44-.24,18.08,5.66,25,12,16.7,15.28,26.57,34.48,30.18,57a83.07,83.07,0,0,0-23.08-31A88.88,88.88,0,0,0,530.85,105C525.65,103.58,522.32,97.45,523.22,91.05Zm-24.17,15.56c34.13-3.59,61.58,8.42,80.3,37.5,4.67,7.26,7,16.28,9.11,24.8.93,3.71-1.35,8.23-2.28,13-3.91-8.25-6.74-16.09-11-23-14.33-23-35-37-62.29-38.92-23.28-1.67-42.35,7.94-56.44,26.27-17.29,22.48-21.95,47.79-14.34,75.22.25.89.52,1.77.76,2.66,0,.11-.08.26-.12.36-12.72-7.05-16.2-19.06-16.85-32.32C423.84,150.54,457.55,111,499.05,106.61Zm-59.51,3.73a7.73,7.73,0,0,1,6.64,1c4.54,3.59,4.71,14.1.72,18.36-14.56,15.53-23.23,33.67-24.34,55.12-.21,4,0,7.94,0,13.15a80.82,80.82,0,0,1-6.7-33.26c.18-15,3.16-29.47,10.49-42.86C429.37,116.3,434.08,112.77,439.54,110.34Zm-25.38-5.51c2.35-1,6.35-1.23,8,.13,2.51,2,3.67,5.72,5.29,8.77.15.3-.47,1-.79,1.54-14.91,22.91-17,47.73-11,73.76.3,1.3.65,2.58,1,3.87l-1.3.46c-2.52-6.66-5.22-13.26-7.53-20-6.1-17.71-8.48-35.78-4.25-54.3C405.05,112.84,408.07,107.4,414.16,104.83Zm-27.23,4a13.17,13.17,0,0,1,5.46-5.82c2.12-1,6.17-1.32,7.38,0,1.91,2,3.66,6.14,2.84,8.42-6.65,18.42-5.49,36.74-.17,55,2.59,8.89,5.78,17.6,8.51,25.85-15.35-15.27-27.6-32.77-28.43-56.11C382.19,126.73,382.67,117.41,386.93,108.81Zm-37.17-8.32c9.88-5.66,23.6-3.19,30.86,5.77,1,1.24,1.86,3.45,1.47,4.85-5.15,18.72-3,28.42.65,44.83-8.16-5.54-16.89-11.93-26.11-17.51-3.8-2.29-8.73-2.66-13-4.29-1.72-.67-3.78-2.08-4.43-3.66C334.85,119.73,339.74,106.23,349.76,100.49ZM333,139.2a18.29,18.29,0,0,1,10.08-1.57c18.24,3.31,32.07,14,41.85,29,6.13,9.4,9.4,20.66,13.95,31.09l-1,.26c-6.86-7.6-13.45-15.48-20.66-22.74-11.85-11.93-25.71-20.55-42.38-24.4-2.27-.52-4.86-3.47-5.5-5.8C328.85,143.47,331.13,140,333,139.2ZM319.3,166.35c-1.69-3.32-.61-6.65,2.6-8.85,5-3.45,10.55-3.79,16.28-2.33,10.13,2.59,19,7.81,27.15,14.07a132.11,132.11,0,0,1,31.6,35.55c-10.86-11.93-23.5-21.29-38.6-27.26-10.8-4.26-21.78-6.65-33.53-5.66C323.08,172,320.45,168.63,319.3,166.35Zm-7.65,22.89c-1.44-4.45,1.08-7.88,6.67-11,9.64-5.4,19.5-3.45,29.06-.87,19.67,5.3,35.85,16.27,48.53,32.3.8,1,1.42,2.18,2.13,3.28-22.16-15.77-46.16-19.58-72.07-13.82C320.75,200.29,313.6,195.3,311.65,189.24Zm-1.74,19.48c28.68-14.71,64.51-10.64,87,8.61,7.37,6.3,11.52,13.61,11.76,22.56-6.12-4.58-12.18-10.17-19.16-14.13-25.27-14.34-51.48-16.84-77.69-2.89-20,10.65-30.51,28.44-33.53,50.54C274.67,300,282.78,323,300.5,342.94c-5.61.52-13.77-2.29-17.28-6.07-14.77-15.85-21-35-19.54-56.2C265.86,248.47,280.75,223.68,309.91,208.72ZM242,262.24c.35-5.17,3.28-10.38,5.9-15.09.84-1.52,4.71-2.46,6.79-2,5.57,1.32,10.19,10.22,8.76,15.72-6.26,24-3.8,46.76,8.84,68.47a80.64,80.64,0,0,1-21.76-28.5C244.84,288.63,241.1,275.77,242,262.24ZM222.69,255c1.56-2.14,5.09-4.44,7.36-4.11,3.14.45,5.95,3.29,8.87,5.18.22.15.16.83.12,1.26-2.22,28.29,8.29,51.71,27.43,71.85a7,7,0,0,1,.68,1.12l-.81.82c-4-3.25-8.1-6.38-12-9.76-14.49-12.68-26.6-27.08-32.85-45.7C219.15,268.56,218,261.4,222.69,255Zm-19,10.41c.77-2,4.65-4.54,6.08-4,2.61,1,5.89,3.77,6.35,6.28,2.82,15.26,9.91,28.34,19.94,39.75,7.46,8.48,15.93,16.07,23.85,23.95-28.11-6.1-52.24-28.08-57.53-55A20.83,20.83,0,0,1,203.72,265.38Zm-39.27,16.54c6.16-10,20-14.28,30.75-9.35,1.46.68,3.29,2.23,3.53,3.62,2.73,15.54,11.37,27.58,22.2,38.38.54.53,1,1.1,2.13,2.3-12.83-3.73-24.67-6.95-37.15-4.77-3.6.64-7.12,1.86-10.74,2.32-1.83.23-4.28-.05-5.61-1.13C160.63,306,158.43,291.69,164.45,281.92Zm3.57,49c-1.12-1.05-1-5,.12-6.48,2.15-2.74,5.1-5.66,8.29-6.63,21-6.34,40.58-2.51,58.44,9.77,6.52,4.48,12.27,10.1,18.71,15.48-11.68-3.78-22.4-7.85-33.44-10.66-14.87-3.77-29.89-4.21-44.85.54C173.19,333.62,169.68,332.5,168,330.94Zm2.85,25.31c-5.69-3.09-6.7-7.51-3-13,4.45-6.59,11.29-8.63,18.6-9.56,24.27-3.09,46.29,4.23,67.64,14.71-27.33-7.49-53.23-4.86-77.81,10.41C174.46,358,172.62,357.2,170.87,356.25Zm9.06,24.16c-7.86-1.34-9.61-6.13-5.52-12.89,5.56-9.2,14.82-12.71,24.12-15.54,17.81-5.42,35.89-5.79,53.83-.07,2.28.73,4.46,1.74,6.69,2.62-25.5-2-47.42,5.62-66.13,22.47C188.85,380.67,184.66,381.21,179.93,380.41Zm59.34-21.71c10.43-1.56,21-1,30.79,3.18,4.26,1.8,7.58,5.79,11.33,8.78l-.68,1.33a82.46,82.46,0,0,0-53.63,4.16c-47.49,20.16-59.73,74.5-25.58,113.24a87.25,87.25,0,0,0,44.57,27.3c-7.08,2.25-13.59,6-21.77,3.45C195,510.93,178,490.4,170.52,461.65,158,413.22,189.67,366.1,239.27,358.7Zm-85.19,97.53c6.15-1.14,12,3.27,13.91,9.3,7.59,24.63,21.95,43.56,45.91,54.4a12.08,12.08,0,0,1,1.89,1.46,76.93,76.93,0,0,1-28-8.79c-15.48-8.22-28.56-19.33-36.63-35.08-2.42-4.71-2.45-10.9-2.52-16.42C148.59,459.43,151.93,456.62,154.08,456.23Zm-23.53,23.89c.31-4,2.28-6.65,6.26-7.42,4.93-1,8,.75,10,4.45,11,20.07,27.38,34,48.53,42.43,4.8,1.91,9.84,3.23,15.91,5.19-16.17-.66-30.46-4.2-44.29-9.3A82.9,82.9,0,0,1,137.55,497C132.84,492.38,130,487,130.55,480.12Zm-7.38,11.72c2.09-.59,5.81.12,7.07,1.68,16.48,20.52,39.48,28,64,32.7,2.85.54,5.72,1,8.57,1.57.24.05.43.35,1.09.91-9.65,1.55-18.81,3.58-28.08,4.28-5.18.39-10.64-1-15.77-2.33-14.16-3.75-27.23-9.77-36.39-21.73-2.41-3.15-3.48-7.63-4.1-11.67C119.27,495.57,121.49,492.32,123.17,491.84Zm-17,63c-9-5.19-14-15.78-12-25.33,2.2-10.5,11.6-19.1,22-19.89,1.46-.11,3.58.36,4.42,1.38,9.83,11.76,22.75,18.31,37.12,22.53a13.44,13.44,0,0,1,1.94,1.18c-14.28,3.38-27.05,8.15-37.21,18.2C115.76,559.55,114.42,559.66,106.13,554.86Zm15.18,19c-1.93-1.25-3.38-5.3-2.92-7.68a18.59,18.59,0,0,1,5.16-9.39c16.18-15.33,35.27-22,57.59-18.4,5.86,1,11.72,1.88,17.58,2.82,0,.25,0,.51,0,.76-6.88,1.16-13.77,2.25-20.63,3.5a90.12,90.12,0,0,0-39,17.46,57.7,57.7,0,0,0-8.88,8.59C127.57,574.53,124.08,575.62,121.31,573.82Zm24.31,18.26c-2.7,4.39-6,4.18-9.64,3.92-3.93-.27-7.13-2.72-7.07-6.57a35.55,35.55,0,0,1,2.78-14c1.64-3.55,5.1-6.47,8.26-9.06,15.1-12.33,33-17.72,52-20,6-.73,12.15-.88,18.23-1.29-18.67,4.19-35,12.53-48.36,26A117.94,117.94,0,0,0,145.62,592.08Zm5.74,22.37c-3.63-.61-5.31-3.18-5.33-6.51,0-6,.43-11.74,3.87-17.15,14.35-22.59,34.69-36.13,60.88-41-4.05,2.43-8.28,4.61-12.13,7.32C181.8,569,171.2,585.25,165.79,605,164.16,610.92,157.35,615.45,151.36,614.45Zm16.24,27.42c-5.69-34.57,9.1-68.26,37.78-85,5.62-3.28,12-5.27,18.18-7.55,6-2.22,11.19,1.07,17.9,2.77-19.08,5.55-33.85,15.28-45.21,29.91-31.9,41.09-15.7,94.78,33.68,111.66,16.08,5.5,32.4,6.46,48.92,2.07,1.14-.3,2.31-.51,3.2-.71-7.14,13.23-19.52,16.08-33.14,16.09C210.34,711.14,173.87,680,167.6,641.87Zm2.48,52.75c-.84-1.27.08-4.65,1.31-6.16,3.27-4,12.8-4.39,16.47-.77,18.65,18.35,40.66,28.06,67.27,26.92a71.26,71.26,0,0,1-32.06,5.68c-14.88-.71-29.4-3.65-41.86-12.14C176.55,705,173.32,699.48,170.08,694.62Zm-5.44,29.86c-2.09-3.37-3.29-7.32-.63-10.26,2.5-2.78,6.43-4.3,9.8-6.26.29-.18,1.07.36,1.56.67,24,15.47,49.72,18.62,77,11.06a4.91,4.91,0,0,1,1.33,0c-14.92,8.19-30.39,14.41-47.23,15.62-8.76.63-17.7-.11-26.49-1A20,20,0,0,1,164.64,724.48Zm-1.88,18.62c-1-1.46-.84-5.25.35-6.49,1.5-1.55,5.07-2.78,6.92-2.05,22.1,8.73,43.61,4.73,65-2.46,4.9-1.65,9.66-3.69,15.06-5.76-15,15-31.71,25.26-52.78,27.12-9.15.8-18.17.36-26.59-3.35A20.74,20.74,0,0,1,162.76,743.1Zm25.48,54.38c-10.84,4.13-24.32-1.07-29.75-11.12-5.5-10.2-2.58-24.14,6.73-31,1.39-1,3.81-1.88,5.27-1.39,14.9,5.08,29.6,3.51,44.3-.69.57-.16,1.15-.27,2.87-.67-8.59,8.62-16.57,16.34-20.8,26.84-1.77,4.37-2.78,9.05-4.57,13.41C191.53,794.65,190,796.83,188.24,797.48Zm20.12,4.74a10.84,10.84,0,0,1-5.47,5.28c-1.3.46-4.7-1.59-5.26-3.18-1.27-3.58-2.59-7.88-1.74-11.35,5.44-22.08,19-37.64,39.74-46.8,6.39-2.83,13.12-4.89,20.42-7.57-8.38,7.54-16.26,14.34-23.8,21.49a85.91,85.91,0,0,0-20.58,31.21C210.27,794.83,210,798.81,208.36,802.22Zm22.5,9.94c-.39,4.32-4.05,4.94-6.76,6.35-3.68,1.93-7,.31-9.14-2.91-3.37-5-3.92-10.5-2.51-16.28,2.42-9.85,7.34-18.52,13.29-26.52C236,759,248.92,748.16,263.65,739.25a94.47,94.47,0,0,0-29.78,47.59C231.68,795,231.63,803.68,230.86,812.16Zm17.33,12.54c-3.7,2.27-7.64,1.84-9.4-2.08-2.2-4.91-4.8-10.38-4.6-15.51,1-27.44,13.25-49.45,34.5-66.55-9.69,13.64-15.24,28.71-15.64,45.36a136.64,136.64,0,0,0,1.85,22.81C255.86,815.25,253.75,821.3,248.19,824.7Zm48.74,37.18c-39-23-52.59-73.43-29.93-111.69a86.2,86.2,0,0,1,11.07-14.05c5.06-5.48,8.5-6.62,15.51-6.93-5.26,7.93-11.78,16-16.34,25-9.94,19.76-11.47,40.61-4.11,61.62,9.77,27.89,36.1,44.88,67.63,44.14q34-.78,58.28-24.61c.74-.73,1.54-1.4,2.38-2.16-.54,11.48-5.41,20-14.76,26.68C362,877.59,325.4,878.67,296.93,861.88Zm7.38,27.53c-1.57-.93-2.39-5.4-1.64-7.6,2-6,9.22-9,15.43-7.49,25.36,6.2,49.17,3,71.22-11.68-9.77,13.74-23,22.61-38.61,28.38-9.92,3.67-20.18,5.9-30.6,4.76C314.64,895.19,309.19,892.27,304.31,889.41Zm8.18,26.67a9.87,9.87,0,0,1,.22-17.12,3.22,3.22,0,0,1,1.75-.26c28.75,2.94,52.46-7.44,72.58-27.38.42-.41.87-.8,1.31-1.2-14.45,21.51-31.73,39.51-57.21,47.43C324.8,919.52,318.48,919.7,312.49,916.08Zm10,19.53c-2-1.31-4.7-4.5-4.27-6.09.72-2.7,3.35-6.49,5.71-6.92,27.59-5,46.28-22.61,63-43.25l1.42-1.73c-7.14,28.13-22.64,48.78-50.75,58.14C332.67,937.41,327.3,938.72,322.51,935.61Zm47.93,33.57c-7.12,9.13-21.78,11.44-31.67,5.27s-14.24-20.25-9.21-30.76c.7-1.44,2.33-3.16,3.76-3.42,15-2.69,26.73-11,37.3-21.38.64-.63,1.31-1.22,1.43-1.34-1.15,9.79-2.84,19.74-3.28,29.74-.23,5.36,1.84,10.8,2.56,16.24C371.57,965.38,371.48,967.85,370.44,969.18Zm17.3,1.81c-.95,1.09-5,.59-6.91-.53-6.89-4.08-7.65-11.47-8.53-18.44-2.05-16.09,1.73-31.32,9.61-45.07,4.72-8.24,11.93-15.06,18-22.51l.6.58c-3.45,10.09-7.49,20-10.22,30.31-4.17,15.74-5.2,31.65-.11,47.61C390.93,965.24,389.47,969,387.74,971Zm24.7-1.47a7.9,7.9,0,0,1-10.38,1.7c-6.68-3.81-9.58-10-10.74-17.31-4-25.21,3.8-47.94,14.78-71.29-1.71,8-3.6,14.82-4.51,21.71a88.33,88.33,0,0,0,8.67,51.38,17.07,17.07,0,0,0,2.27,3.44C416,963.24,416,965.26,412.44,969.52Zm22.28-3.75c-3.49,2.24-6.9,1.18-10.35-.77-10.12-5.7-14.2-15.46-16.93-25.76-5.43-20.49-4.43-40.67,4.72-60.12a18.63,18.63,0,0,1,1.38-2.36v0l0,0c.14-.19.37-.26,0,0l0,0h0c.44,8.64.09,17.84,1.54,26.74,2.66,16.28,10.51,30.26,21.72,42.33C441.58,951,440.53,962,434.72,965.77Zm80,2.46a82.72,82.72,0,0,1-95-59,71.19,71.19,0,0,1-.34-38.6c2.31-8.57,5.32-12.5,12.11-16.56-.94,8.39-3,17.21-2.7,25.94,1,29.73,12.66,54.3,39.56,68.69s52.93,8.67,76.66-8.9C559.6,929,569.35,914.46,574.55,897c.3-1,.64-2,1-3,0-.1.23-.14.41-.24,6.06,10,4,19.73-.56,29.38C563.13,948.83,542.06,963.19,514.77,968.23Zm9.05,23.13c-5.94,0-8.74-3.35-7.92-9.19.94-6.67,4.19-11.37,11.06-13.59,23.9-7.75,41.91-22.38,52.19-45.75.23-.53.53-1,.8-1.53.5,15-4.77,28.14-13,40.26a88.49,88.49,0,0,1-25.68,25.31C535.78,990.4,530,991.38,523.82,991.36Zm15.51,17.9c-6.57-.69-10.41-9.14-6.57-14.53a3.56,3.56,0,0,1,1.44-1c25.88-11.4,40.48-32.09,48.19-58.45.46-1.59.86-3.2,1.29-4.8l1.23.24c-1.75,9.55-3.26,19.15-5.33,28.63a90.4,90.4,0,0,1-20.91,41.33C553.54,1006.47,547.43,1010.12,539.33,1009.26Zm19.81,11.51c-2.22.18-6.14-1.6-6.6-3.25-.69-2.5,0-6.83,1.8-8.33,17.35-14.43,25.33-33.79,29.94-55,1.13-5.22,2-10.51,3-16.09,5.68,20.6,6.11,40.65-4.13,59.55-3.87,7.13-9.49,13.43-15,19.5C566.18,1019.33,562.28,1020.53,559.14,1020.77Zm58.86,4.14c-1.62,11.64-12.13,20.95-23.68,21.15a25.06,25.06,0,0,1-24.64-20c-.63-3.22-.06-5.61,2.71-8,11-9.48,16.38-22.25,20.14-35.86.27-1,.63-1.92,1.31-4,3.91,17.42,9.84,32.26,23.14,43.14A4.56,4.56,0,0,1,618,1024.91Zm15.73-6.85c-.5,1.68-4.22,3.86-6,3.44-4-.94-8.26-2.6-11.26-5.27-11.26-10-16.14-23.52-19.19-37.79-3-14.07,1-27.5,3.51-40.09,2.65,11.78,4.71,24.51,8.49,36.71,4.24,13.69,11.36,26,22.28,35.83A8.41,8.41,0,0,1,633.73,1018.06Zm9.07-6.17c-6.74-.82-11.32-5.08-15.31-10.09a90.3,90.3,0,0,1-18.17-38.69c-2.14-10.62-3.59-21.38-5.34-32.07l1.33-.17c1.2,4.41,2.2,8.88,3.62,13.21,7,21.44,19.91,38.43,38.91,50.71,2.13,1.38,5.17,2.87,5.74,4.88C656.05,1008.37,651.75,1013,642.8,1011.89Zm28-20.84a8.14,8.14,0,0,1-5.87,4c-6,.34-11.8-.58-17-4.22-21.75-15.17-34.93-35.66-39-61.92a7.51,7.51,0,0,1,0-1.34c0-.1.19-.2.24-.25,2.9,5.11,5.46,10.48,8.79,15.32,11,16,26.28,26.31,44.65,32.22C668.48,976.79,673.27,985.43,670.8,991.05Zm36-17.92c-37.64,8.8-77-9.57-92.39-43.35a61.91,61.91,0,0,1-5.62-19.71c-.43-4.78,2.31-9.84,3.64-14.77,9.33,31.89,28,54.1,60,62.94,29,8,58-4.49,74.74-31.21,12.64-20.19,16.25-42,10.84-65.32-.13-.56-.21-1.13-.33-1.77,9.76,5.46,12.41,14.57,13.73,24.62C776.45,922.23,748.45,963.4,706.84,973.13Zm50.73-2.88c-3.23,2.16-6.44.39-8.31-3.18-3-5.83-2.23-11.44,2.27-16.36,16.13-17.62,24.82-38.08,23.62-62.28-.06-1.22,0-2.44,0-3.66,5.67,12.18,7.27,25,6.18,38.08-1.07,12.77-3.7,25.37-10.92,36.14C767.33,963.58,762.29,967.11,757.57,970.25Zm25.84,5.42c-2.44,1.09-6.57,1.44-8.43.08-2.55-1.87-3.7-5.67-5.38-8.69-.15-.26.17-.88.41-1.24,16.51-24.46,18-51,10.75-78.68l1.42-.71c3.33,9.94,6.93,19.79,9.92,29.83a89,89,0,0,1,1.44,45.41C792.18,967.74,789.23,973.06,783.41,975.67ZM811,967.93a20.08,20.08,0,0,1-6.27,8.08c-1.63,1.25-5.78,1.7-6.88.6-1.89-1.88-3.8-5.81-3-8,8.53-24.24,3.42-47.39-4.8-70.4-.91-2.54-1.91-5-3.23-8.55,14.53,15,25.23,30.63,27.14,51.16C814.8,950.2,814.47,959.27,811,967.93ZM847,980.77c-10.62,5.69-25.73,2-31.92-7.87a4.51,4.51,0,0,1-.79-3.3c5.66-15.64,3.65-31.11-.77-46.55,0-.12.07-.28.25-.86,7.88,7.89,15.37,15.66,25.53,19.86,4.79,2,9.86,3.27,14.7,5.11,1.49.57,3.3,1.67,3.89,3C862.6,960.88,857.4,975.18,847,980.77Zm18.27-39.23c-3.87,3.25-8.65,2.79-13.19,1.67-17.11-4.23-29.67-14.93-39.79-28.78-6.59-9-8.93-19.85-12.58-30.12,8.54,9.11,16.39,18.62,25.43,26.81,10.75,9.74,23.19,17,37.84,19.78,2,.39,4.37,3,5,5.05C868.43,937.43,866.76,940.26,865.24,941.54ZM879.08,915a6,6,0,0,1-2.06,8.53c-3.16,1.91-7,3.55-10.57,3.69A31.35,31.35,0,0,1,854,924.84c-24.83-9.81-41.63-28.57-55.41-50.56-.12-.18.05-.54.13-1.19a98.1,98.1,0,0,0,43.55,31.42c10,3.65,20.19,5.82,31,4.56C875,908.87,877.64,912.58,879.08,915Zm7.3-21.05c.33,3.78-2,6.2-5.1,8.07-8,4.85-16.61,4.77-25.34,2.89-24-5.18-43.11-17.73-57.3-37.75a21.13,21.13,0,0,1-1-2.57c14.58,12.27,30.26,18.76,47.94,19.42,8.19.31,16.49-.7,24.65-1.8C877,881.25,885.79,887.05,886.38,893.91ZM889,872.07C858,888,820.2,882.5,797.23,859.41c-6.33-6.36-7.8-9.62-8.23-19.1,11.31,12.05,24.07,20.34,39.23,24.36C856,872,881.41,868.17,902,846.75c15.27-15.9,20.21-35.75,18.27-57.33a82.75,82.75,0,0,0-23.9-51.65c7.34-.4,16.07,2.93,20.44,7.94,14.67,16.81,20.21,36.54,17.83,58.46C931.3,834.7,916.44,857.91,889,872.07Zm68.11-52.92c-.18,5.35-3.75,10.84-6.67,15.72-1.87,3.14-5.5,3.39-8.94,1.09a14.35,14.35,0,0,1-6.18-16.19c6.06-24.13,4-47.14-9.84-68.43a13.11,13.11,0,0,1-.85-1.62c0-.07.11-.23.48-1,2.11,1.78,4.28,3.35,6.14,5.22C949,772,957.92,793.88,957.06,819.15Zm19.87,6.7a6.37,6.37,0,0,1-9,3.18c-3.36-1.68-7.82-2.79-7.53-8.45,1.32-26.43-8.12-48.89-25.41-68.54,12.39,8.92,23.81,18.83,32.4,31.52,6,8.91,11.7,18.27,12.59,29.25C980.32,817.07,978.64,821.76,976.93,825.85Zm19.06-11c-.85,1.89-4.52,4.37-5.79,3.85-2.64-1.08-6-3.71-6.48-6.2-3-15.42-10.5-28.48-20.78-39.87-7.47-8.28-16-15.63-24.2-23.58,17.11,4.27,32.17,11.9,43.79,25.71,7.46,8.86,13.35,18.44,15.08,30A19.18,19.18,0,0,1,996,814.86Zm39.12-17.34c-6.17,10.23-20.36,14.63-31,9.51-1.22-.59-2.76-1.84-3-3-2.9-15.65-11.72-27.73-22.82-38.49a15,15,0,0,1-1.21-1.51c6.71,1.27,13.13,2.55,19.58,3.68,9.44,1.65,18.57,0,27.61-2.73a6.21,6.21,0,0,1,4.78.7C1038.57,772.69,1041.27,787.31,1035.11,797.52ZM1031,748.46c1.08.89,1.2,4.88.15,6.08-2.6,3-5.75,6.21-9.33,7.44-17,5.84-34,3.36-49.52-4.51-10.23-5.19-19.1-13.08-28.58-19.76l.58-.54c12.53,3.81,24.89,8.42,37.65,11.22,13.87,3,28,2.86,41.8-1.85C1025.77,745.85,1029.17,747,1031,748.46Zm2-18.41c.1,5.22-3.36,8.8-7.42,11.45-7.53,4.94-16.27,5.16-24.82,5.3-19.26.32-37-5.79-54.32-13.52a20.07,20.07,0,0,1-1.94-1.14c27.63,7.69,53.73,5.45,78.58-11a7.32,7.32,0,0,1,1.33.47C1028.24,723.41,1032.88,724.79,1033,730.05Zm-8-27.91a10.39,10.39,0,0,1,0,8.46,29.21,29.21,0,0,1-14.43,14.12c-22.4,10-45,11-67.9,2.34-1.41-.53-2.75-1.24-4.12-1.86,26.45,1.52,48.74-7.39,67.78-25.42C1010.69,695.65,1022.05,696.91,1025,702.14Zm-59.07,17a69.77,69.77,0,0,1-36.81-.1c-6.3-1.76-8.1-3.25-15.41-12.66,5.59.92,11,2.09,16.41,2.65,28.84,3,62.88-10.72,77.32-39.5,13.64-27.2,8.2-52.75-9.2-76.35-10.59-14.36-24.76-24-41.86-29.36-1-.31-1.94-.79-3-1.21,7.25-3.84,14.43-3.85,21.89-1.15,27.38,9.94,43.44,29.77,50.63,57.45C1037.66,664.05,1008.56,708.1,965.91,719.11ZM1044,623c-5.47,2.3-13.75-2.15-15.47-7.85-7.64-25.27-22.55-44.31-47.18-55-.21-.09-.31-.42-1.29-1.85,6.17,1.26,11.44,1.89,16.43,3.44,21.52,6.73,38.61,19.53,49.54,39.33,2.65,4.8,2.21,11.49,2.4,17.33C1048.5,619.9,1045.89,622.19,1044,623Zm13-16.21-4.75-.7c-5.73-13.59-14.62-23.84-25.72-32.46a90.9,90.9,0,0,0-37.16-17.26c.09-.37.19-.75.28-1.12,7.73,1.34,15.51,2.46,23.19,4,16.9,3.51,32.43,10.07,45.59,21.55,5,4.35,8.83,9.34,9.06,16.38S1064.17,607.77,1057.07,606.77Zm18.19-20.28c-2.62.55-6.81,0-8.37-1.76-14.67-16.83-34-24.48-55-29.12-5.82-1.29-11.74-2.14-17.79-3.22,20.78-6.09,41.46-6.65,61.08,3.61,7.17,3.76,13.5,9.39,19.55,14.89,2.27,2.08,3.32,6.16,3.67,9.46C1078.58,582.38,1076.74,586.18,1075.26,586.49Zm8.91-17.27c-3.24.67-5.91.47-8.52-2.52-9.1-10.4-21.23-15.78-34.26-19.42-1.6-.44-3.22-.84-5.24-1.36,6.28-2.12,12.24-3.95,18.07-6.12,9.22-3.44,16.85-9.2,23.53-16.4a7,7,0,0,1,5.27-2c11.39,1.57,20.36,12,20.65,23.58C1103.94,556,1095.16,567,1084.17,569.22Z"/><path class="cls-1" d="M413.58,876.71l0,0v0h0Z"/></svg>