<svg id="Layer_1" data-name="Layer 1" xmlns="http://www.w3.org/2000/svg" viewBox="0 0 1200 1200"><defs><style>.cls-1{fill:#2a273d;}</style></defs><path class="cls-1" d="M794.1,626.13a6.2,6.2,0,0,1,6.71-5.21,5.85,5.85,0,0,1,5.11,6.83,6.25,6.25,0,0,1-2.34,4.1,5.82,5.82,0,0,1-4.48,1.09,6,6,0,0,1-3.86-2.41A6.14,6.14,0,0,1,794.1,626.13Zm2.23.28c-.59,4.73,6.63,6.06,7.36,1.06S797.1,621.7,796.33,626.41Z"/><path class="cls-1" d="M801.49,607.7a6,6,0,0,0,6.19-6v-.27h-2.26a2.53,2.53,0,0,1,0,.27c-.2,5-7.52,4.62-7.43-.14l0-.13h-2.26v.13A6,6,0,0,0,801.49,607.7Z"/><path class="cls-1" d="M744.57,639.2c.74-2.36,3.64-3.76,6.93-3a6.65,6.65,0,0,1,3.77,2.33,4.13,4.13,0,0,1,.81,3.74c-.8,2.59-4,3.91-7.12,2.93S743.88,641.58,744.57,639.2Zm2.18.56c-1,3.51,6,5.71,7.16,2,.58-1.87-1-3.28-2.81-3.72S747.32,638,746.75,639.76Z"/><path class="cls-1" d="M748.22,620.56c.43-2.44,3.27-4.18,6.56-3.84s5.66,2.75,5.27,5.44a4.37,4.37,0,0,1-2.21,3.14,6.76,6.76,0,0,1-4.42.69,7,7,0,0,1-3.92-2A4.23,4.23,0,0,1,748.22,620.56Zm2.23.28c-.43,3.63,6.79,4.93,7.36,1S751.09,617.24,750.45,620.84Z"/><path class="cls-1" d="M755.29,606.3c3.3.16,6-1.92,6.16-4.63v-.22h-2.26c0,.08,0,.14,0,.21-.19,3.94-7.51,3.55-7.43-.11,0,0,0-.06,0-.1h-2.26v.1C749.45,604,752,606.15,755.29,606.3Z"/><path class="cls-1" d="M748.45,717.5c-.21-1.57-.43-3.12-.67-4.65l-.37-2.29-.44-2.31c-.6-3.07-1.26-6.07-2-9s-1.6-5.91-2.45-8.76c-.44-1.43-.88-2.84-1.33-4.23s-1-2.83-1.53-4.21a1.06,1.06,0,0,1-.08-.68l0,.06-.05-.09v0l0,0h0l.08,0h0a1.28,1.28,0,0,1,.58-.22,170.48,170.48,0,0,0,17.85-4c2.95-.86,5.89-1.81,8.9-2.83,1.48-.51,3-1,4.5-1.59s2.93-1.15,4.41-1.75a1.17,1.17,0,0,1,1.49.55q1,2.18,2,4.41c.63,1.48,1.18,2.95,1.76,4.46,1.15,3,2.28,6.08,3.33,9.21a195.88,195.88,0,0,1,5.18,19.32,2.06,2.06,0,0,1-.11.81,2.24,2.24,0,0,1-.71.58q-2.46.79-4.89,1.53c-1.67.47-3.32.91-5,1.34-3.31.85-6.51,1.67-9.8,2.35s-6.55,1.25-9.76,1.78l-2.41.38-2.44.32c-1.63.2-3.24.38-4.84.55A1.15,1.15,0,0,1,748.45,717.5Zm3.2-2.73c2.81-.33,5.54-.79,8.36-1.26l4.24-.75,2.14-.4,2.09-.47c5.59-1.26,11.39-2.68,17-4.5-.65-2.88-1.28-5.67-2.05-8.46s-1.61-5.55-2.47-8.25c-.43-1.35-.85-2.68-1.31-4l-1.47-4c-1-2.64-2-5.21-3-7.74-2.66,1-5.29,1.91-7.89,2.77L763.36,679c-1.31.4-2.65.76-4,1.12-2.63.72-5.23,1.38-7.8,2s-5.27,1.09-7.84,1.57c1.84,4.94,3.26,9.91,4.64,15.13l.51,2,.43,2,.84,3.95C750.7,709.32,751.26,712.07,751.65,714.77Z"/><path class="cls-1" d="M725.44,764.61a6.11,6.11,0,0,1-4.62,1.3,5.84,5.84,0,0,1-4-2.28,5.66,5.66,0,0,1-1.07-4.36,6.66,6.66,0,0,1,2.33-3.91,6.2,6.2,0,0,1,8.48.83A5.84,5.84,0,0,1,725.44,764.61Zm-1.37-1.76c4-3.18-.79-8.65-4.62-5.73a3.68,3.68,0,1,0,4.62,5.73Z"/><path class="cls-1" d="M705.55,770.88a5.88,5.88,0,0,0-3.7-2.56,6.27,6.27,0,0,0-4.54.63s0,0,0,0l1.13,1.92.06,0c4.22-2.36,8.23,3.68,3.81,6.27a.62.62,0,0,1-.16.07l1.13,1.93.16-.09a6.15,6.15,0,0,0,2.91-3.68A5.7,5.7,0,0,0,705.55,770.88Z"/><path class="cls-1" d="M713.3,714.92c-2,1.9-5.39,1.51-7.65-.85s-2.59-5.64-.83-7.41,5-1.53,7.5.71S715.22,713,713.3,714.92Zm-1.58-1.57c1.39-1.4.68-3.39-.65-4.61s-3.31-1.77-4.67-.51C703.82,710.86,708.87,716.11,711.72,713.35Z"/><path class="cls-1" d="M697.54,728.4a4.13,4.13,0,0,1-1.79.83,5.18,5.18,0,0,1-2-.11,7,7,0,0,1-5.05-6.65,4.69,4.69,0,0,1,.43-1.84,4.35,4.35,0,0,1,1.1-1.49c2-1.52,5.22-.83,7.38,1.69S699.67,726.68,697.54,728.4Zm-1.37-1.76c3.09-2.49-1.67-8-4.6-5.74-1.4,1.23-1.08,3.19,0,4.66S694.65,727.91,696.17,726.64Z"/><path class="cls-1" d="M681.19,732.29a6.82,6.82,0,0,0-3.35-2.78,4.35,4.35,0,0,0-3.69.14l0,0,1.13,1.92,0,0c3.24-1.79,7.22,4.26,3.79,6.28a.35.35,0,0,1-.13,0l1.13,1.93.13-.06a4.27,4.27,0,0,0,2.06-3.2A6.58,6.58,0,0,0,681.19,732.29Z"/><path class="cls-1" d="M773.92,700.77a2,2,0,0,1-.68.52c-4.35,1.26-8.86,2.22-13.24,3.1a1.17,1.17,0,0,1-1.33-.85c-1-4.3-2-8.44-3.4-12.58a1.21,1.21,0,0,1,0-.72l-.05.06s0-.11-.06-.1l0,0,0,0h0l.07,0,0,0a1.32,1.32,0,0,1,.61-.27c2.12-.48,4.28-1,6.44-1.53s4.22-1.2,6.35-1.84a1.17,1.17,0,0,1,1.44.69q1.07,3.12,2.09,6.34c.63,2.12,1.21,4.25,1.78,6.44A1.69,1.69,0,0,1,773.92,700.77Zm-2.41-1.33c-1-3.61-2-7-3.17-10.53-3.47,1.07-7.1,1.89-10.61,2.71q.78,2.55,1.55,5.18c.46,1.73.89,3.47,1.31,5.24,1.82-.38,3.67-.76,5.5-1.19S769.69,699.94,771.51,699.44Z"/><path class="cls-1" d="M719.55,801.15c2.23-1.21,4.36-2.64,6.58-4l3.34-2.11,1.68-1.08,1.65-1.14c-1-.08-2-.17-3-.27l-3-.39c-2-.26-3.94-.55-5.88-.85s-3.86-.6-5.8-.93l-5.89-1.09-1.59-2.71c2.29.47,4.63,1,7,1.37s4.62.75,7,1.1,4.74.68,7.14,1,4.78.45,7.23.63c4.24-2.85,8.32-6.1,12.52-9.35-2.72,0-5.4-.13-8.06-.24s-5.24-.22-7.9-.49-5.23-.5-7.79-.79l-3.82-.46-3.84-.59s-.06-.05-.1-.06l-5.13,3.21c-.85.55-1.71,1-2.59,1.53l-2.59,1.47-1.13-1.92,3.35-1.89c1.13-.63,2.19-1.35,3.29-2,2.18-1.38,4.39-2.72,6.55-4.15l6.38-4.44c.53-.38,1.07-.74,1.59-1.12l1.55-1.19,3.09-2.38a205.52,205.52,0,0,0,23.15-20.85c-2.59.18-5.14.32-7.67.44s-5.11.09-7.61.09-5,0-7.46-.13-5-.3-7.41-.5A193.78,193.78,0,0,1,695,765.15l-1.13-1.91,3.41-1.92c0-.11-.08-.19,0-.32,1-4.73,2-9.27,2.76-13.85q.54-3.46,1-6.86l.41-3.36c.12-1.12.2-2.28.28-3.41-1.44,1.17-3,2.19-4.5,3.25l-2.28,1.59c-.76.52-1.51,1.07-2.31,1.54,0,.05,0,.07,0,.11-.8,5.18-2.17,10.81-3.1,15.79L688,753.13c.31-1.88.76-3.82,1.2-5.8s.84-4,1.16-6l-2.42,1.52c-1.45,1-3.11,1.84-4.44,2.65l-1.16-2,2-1.14,1-.58,1-.64,4.12-2.58,1.52-1c.5-.33,1-.68,1.46-1l2.93-2c1-.69,2-1.32,2.9-2.06l2.83-2.18.06-.05A164.85,164.85,0,0,0,722,712.37c-.56-4.45-1.35-8.85-2.19-13.06s-2-8.45-3.26-12.52a149.08,149.08,0,0,1-36.28,34.08c-2.81,1.71-5.37,3.5-8.33,5.06l-1.36-2.3A147.57,147.57,0,0,0,685,714.34l3.57-2.78c.6-.47,1.23-.91,1.82-1.4l1.75-1.51c1.17-1,2.38-2,3.55-3l3.45-3.24c1.2-1,2.27-2.23,3.39-3.38l1.68-1.73c.57-.56,1.13-1.14,1.65-1.76l3.21-3.65c.56-.59,1.06-1.24,1.56-1.88l1.52-1.91,1.54-1.9c.52-.64,1-1.32,1.45-2l2.88-4c1.73-2.77,3.65-5.42,5.21-8.28A139.31,139.31,0,0,0,738,636.3a145.86,145.86,0,0,0,4.42-34.85h2.7l-.14,4.91,0,2.45-.2,2.43-.23,3.09c-.08,1-.14,2.06-.3,3.08l-.8,6.14-1.11,6.08c-.14,1-.45,2-.67,3l-.7,3a144.38,144.38,0,0,1-8,23.35c1.05-.24,2.13-.48,3.19-.74l3.12-.84c2.1-.58,4.21-1.2,6.35-1.86s4.19-1.41,6.3-2.17,4.2-1.59,6.33-2.45a170.93,170.93,0,0,0,5.92-25.75s0-.05,0-.08l.89-7,.53-7.07a23.75,23.75,0,0,0,.11-2.39l.06-2.39.12-4.78h2.31c-.08,1.74-.15,3.47-.19,5.19l-.06,2.79q4.61-3.78,9.23-8h3.14q-3.09,2.85-6.17,5.51c-2.05,1.78-4.08,3.49-6.27,5.13a.41.41,0,0,1-.11.07l-.41,5.48c-.14,1.83-.45,3.64-.65,5.46,1.88-1.27,3.78-2.6,5.68-4s3.64-2.8,5.47-4.26,3.69-3,5.49-4.52,3.53-3.14,5.31-4.76a1.17,1.17,0,0,1,.31-.2l.09-3.94h2.25a188.71,188.71,0,0,1-3.31,35.17,185.84,185.84,0,0,1,15.2,25.57l2.13-7.42c.68-2.48,1.21-5,1.81-7.5l.86-3.76.69-3.79.68-3.79c.22-1.27.48-2.53.62-3.81l1-7.64c.19-1.27.29-2.55.38-3.83l.29-3.83.29-3.84c.1-1.28.09-2.56.13-3.84l.18-7.69h2.26c-.11,4-.14,8-.34,11.95a.94.94,0,0,0,.1.1c1.58,2,3.16,4,4.73,6s3.19,4.13,4.61,6.25,2.94,4.28,4.39,6.49,2.91,4.47,4.22,6.75c.51-2.59.76-5.19,1.12-7.74.16-1.28.33-2.55.49-3.82s.33-2.52.41-3.78c-2.84-4-5.64-7.83-8.59-11.52s-6.07-7.26-9.13-10.67h3.19a220.83,220.83,0,0,1,14.83,18.44c.18-2.65.45-5.26.53-7.83s.13-5.1.2-7.58l-2.5-3H838q-.11,4-.19,8l-.12,4-.29,4A233.18,233.18,0,0,1,827.59,670a230.54,230.54,0,0,1-21.71,49A237.85,237.85,0,0,1,732,796.57c-4.54,2.85-8.8,5.68-13.61,8.3l-2.63-4.48C717.14,800.59,718.23,800.94,719.55,801.15Zm83.82-83.64h0Zm9-86.56,2.2,3.16,2,3.2c1.36,2.16,2.72,4.36,4.06,6.61s2.6,4.52,3.82,6.84,2.45,4.67,3.65,7.08l1.78-7.6.44-1.89.36-1.89.69-3.77c-1.34-2.32-2.68-4.6-4.06-6.83s-2.91-4.45-4.38-6.61-2.91-4.27-4.46-6.34-3.15-4.11-4.74-6.09c-.19,2.34-.32,4.7-.58,7l-.89,7Zm-3.12,17.42q1.88,3.27,3.71,6.67c1.2,2.26,2.28,4.53,3.41,6.87s2.2,4.7,3.28,7.11,2,4.81,2.93,7.28c.43-1.23.85-2.46,1.27-3.69s.84-2.46,1.19-3.7l2.14-7.42c-1.07-2.41-2.32-4.81-3.53-7.16s-2.46-4.65-3.71-6.92c-.61-1.12-1.28-2.25-2-3.37l-2-3.32q-2-3.29-4.11-6.44l-1.25,7c-.23,1.16-.4,2.33-.67,3.48l-.8,3.45A1.18,1.18,0,0,1,809.3,648.37Zm-4.71,16.8c1,2.27,2.07,4.6,3.07,7s2.05,4.79,2.91,7.19,1.76,4.87,2.61,7.37l1.26,3.78c.41,1.27.75,2.52,1.13,3.79,1.12-2.34,2-4.77,3-7.16l1.44-3.6c.48-1.2,1-2.4,1.37-3.62-1-2.51-1.93-5-2.92-7.42s-2-4.81-3.12-7.19-2.23-4.7-3.37-7c-.58-1.14-1.14-2.27-1.73-3.39l-1.87-3.37c-.28,1.15-.51,2.31-.83,3.44l-1,3.41C805.92,660.63,805.31,662.92,804.59,665.17Zm-40.16-29c1.94-1,3.74-2,5.63-3.08l5.71-3.2c2-1.08,3.83-2.19,5.73-3.3l5.82-3.36a1.25,1.25,0,0,1,.41-.14c.36-2.45.49-4.91.69-7.37s.41-4.92.41-7.39l-2.69,2.42c-.92.79-1.87,1.57-2.81,2.35-1.87,1.55-3.73,3-5.58,4.52s-3.77,2.87-5.7,4.23-3.84,2.69-5.75,4c-.09.88-.26,1.74-.42,2.61l-.46,2.59-.47,2.59-.23,1.3Zm-3.53,13.58a173.21,173.21,0,0,0,24.79-13.36l1-5.34c.18-.88.3-1.78.4-2.68l.35-2.69-5.89,3.41-5.93,3.31-5.77,3.24c-1.94,1.05-3.92,2.07-5.85,3.07l-.14,0-.64,2.77-.32,1.39-.39,1.37Zm-34.42,21.87,3.47-.45,3.41-.58q3.43-.61,6.94-1.36c2.36-.48,4.58-1.09,6.92-1.7s4.67-1.29,7-2,4.58-1.54,6.91-2.38,4.71-1.72,7-2.7c4.54-1.94,9.3-4,13.76-6.43a1.17,1.17,0,0,1,1.53.44c2.62,4.44,4.82,9,7.09,13.73,1.16,2.4,2.15,4.78,3.15,7.22s2,4.94,2.93,7.47,1.74,5.06,2.57,7.66,1.67,5.25,2.36,7.89,1.36,5.33,2,8.06l.94,4.13c.29,1.38.53,2.75.79,4.14,1.66-2.74,3.07-5.61,4.57-8.44l2.2-4.27,2-4.35c-.78-2.78-1.56-5.51-2.41-8.21s-1.83-5.39-2.79-8c-1.84-5.23-4.11-10.39-6.34-15.31a1,1,0,0,1-.26-.56c-1.07-2.41-2.35-4.82-3.57-7.17s-2.49-4.65-3.75-6.9-2.71-4.5-4.08-6.67-2.73-4.29-4.22-6.38a165.06,165.06,0,0,1-54.65,22.63l-1.23,2.7-1.39,2.62C728.38,668.19,727.53,670,726.48,671.65Zm-.53,1.88a152.92,152.92,0,0,1,8.79,26.82c.55,2.37,1,4.71,1.43,7.13s.88,4.9,1.18,7.33.59,4.93.83,7.45l.33,3.81.19,3.78,3.95-.09,3.9-.24c2.63-.17,5.28-.39,8-.65s5.29-.64,8-1,5.43-.81,8.12-1.33a211.33,211.33,0,0,0,32.68-9A192.34,192.34,0,0,0,782,656.4,165.91,165.91,0,0,1,726,673.53Zm-13.77,77.52c0-4.48,0-8.9.06-13.17s-.07-8.66-.13-12.81c-2.74,2.27-5.36,4.67-8.24,6.77-.14,2.28-.33,4.59-.55,6.93s-.58,4.58-.92,6.91l-.54,3.52c-.18,1.19-.38,2.37-.62,3.52-.45,2.32-.94,4.68-1.46,7l3.18-2c1-.67,2.13-1.3,3.14-2l6.15-4.28A1.42,1.42,0,0,1,712.18,751.05Zm10.75-8q.21-3.57.31-7t0-7c-.07-2.33-.1-4.56-.28-6.88s-.37-4.58-.6-6.81c-1.34,1.36-2.66,2.75-4,4.1l-4.21,3.91,0,.15c0,1.08.1,2.18.12,3.25l0,3.22.08,6.58c0,2.24,0,4.43,0,6.65s0,4.5,0,6.76l4.35-3.34,1.08-.84,1.05-.88Zm34-.52a1.08,1.08,0,0,1,.61-.06,193.75,193.75,0,0,0,33.54-5.88c3.82-5.14,7.3-10.53,10.69-16-1.32.5-2.67,1-4,1.39l-4.06,1.29c-2.71.82-5.38,1.62-8.07,2.33s-5.45,1.33-8.14,1.92-5.34,1.16-8.08,1.59c-5.43.89-10.66,1.69-16,2.11q-4,.35-7.86.58c-2.62.13-5.25.17-7.82.21a1.16,1.16,0,0,1-1.15-1.08c-.1-2.54-.21-5-.41-7.51s-.52-5-.82-7.46c-.56-4.84-1.53-9.76-2.5-14.4-.47-2.31-1.1-4.68-1.71-7s-1.26-4.53-1.92-6.73-1.47-4.43-2.24-6.58-1.49-4.2-2.39-6.31c-.48.87-1,1.69-1.59,2.51L721.32,680c-1,1.7-2.25,3.27-3.41,4.88a145.41,145.41,0,0,1,6.29,27.87c.3,2.42.51,4.82.71,7.29l.27,3.72.11,1.89.06,1.85q.09,3.72.07,7.56c0,1.27,0,2.58-.06,3.85l-.19,3.83,3.89.27c1.31.09,2.58.11,3.88.16q3.88.11,7.89.1c2.69,0,5.28-.11,8-.23S754.19,742.73,756.93,742.52Zm-9.34,12.28c2.56-.07,5.17-.15,7.75-.32s5.13-.43,7.75-.69c5.28-.48,10.48-1.26,16-2.06.84-1,1.72-1.93,2.53-2.93l2.44-3c1.61-2,3.27-4,4.83-6.12-5.39,1.16-10.66,2.17-15.76,3.1s-10.28,1.56-15.39,2C754.39,748.16,751.13,751.62,747.59,754.8Zm-13.44,11.57c1.28.08,2.59.17,3.87.21l3.85.07c2.58,0,5.19,0,7.84,0,1.33,0,2.64,0,3.95-.11l4-.19,8.17-.45c1.82-1.83,3.61-3.69,5.42-5.55l2.7-2.82c.87-1,1.74-2,2.6-2.93a257.71,257.71,0,0,1-31.24,2.59l-.22,0-1.31,1.21-1.36,1.16-2.73,2.31C737.85,763.37,736.06,765,734.15,766.37Zm17.24,12.48,5.89-5c1.94-1.73,3.83-3.54,5.76-5.34q-4,.28-8,.47c-2.64.12-5.34.11-8,.13s-5.23,0-7.8-.11-5.21-.28-7.76-.46l-.1,0c-3.72,3-7.72,5.6-11.62,8.34q3.79.49,7.69.9c2.59.26,5.27.56,7.87.68s5.27.27,8,.36l4.05.1C748.7,778.89,750,778.86,751.39,778.85Z"/><path class="cls-1" d="M674.73,780a6.15,6.15,0,0,1,7.92,3,5.91,5.91,0,0,1-3.44,7.84,6.1,6.1,0,0,1-8-3.28A6,6,0,0,1,674.73,780Zm.87,2a3.66,3.66,0,1,0,2.74,6.79,3.48,3.48,0,0,0,2.1-4.79A3.67,3.67,0,0,0,675.6,782Z"/><path class="cls-1" d="M694.69,777.07a6,6,0,0,0,8.33,2.19l.23-.14-1.13-1.93c-.08,0-.15.11-.23.15-4.5,2.45-7.79-4-3.6-6.39l.12-.05L697.28,769l-.11,0A6,6,0,0,0,694.69,777.07Z"/><path class="cls-1" d="M638.47,744.28c2.44-.57,5.16,1.31,6.11,4.47s-.42,6.18-3.08,6.88a4.11,4.11,0,0,1-2,0,4.87,4.87,0,0,1-1.83-.89,6.47,6.47,0,0,1-2.34-3.75,6.58,6.58,0,0,1,.38-4.31,4.79,4.79,0,0,1,1.13-1.52A3.91,3.91,0,0,1,638.47,744.28Zm.59,2.14a2.61,2.61,0,0,0-1.75,1.68,4.65,4.65,0,0,0,1.18,4.85,2.57,2.57,0,0,0,2.42.55C644.77,752.5,642.67,745.57,639.06,746.42Z"/><path class="cls-1" d="M656.74,738.16c2.36-.85,5.25.57,6.63,3.6a6.37,6.37,0,0,1,.39,4.36,4.9,4.9,0,0,1-.92,1.77,3.58,3.58,0,0,1-1.61,1.14c-2.58.94-5.57-.73-6.7-3.79S654.4,739.07,656.74,738.16Zm.87,2c-3.45,1.35-1,8.14,2.76,6.78a2.44,2.44,0,0,0,1.61-1.86,4.23,4.23,0,0,0-.31-2.58C660.94,740.85,659.37,739.6,657.61,740.2Z"/><path class="cls-1" d="M672.81,737.07c1.53,2.92,4.71,4.17,7.11,2.85l.18-.11L679,737.88a1.13,1.13,0,0,1-.18.12c-3.5,1.9-6.82-4.53-3.62-6.37l.09,0-1.13-1.92-.09,0C671.87,731,671.29,734.18,672.81,737.07Z"/><path class="cls-1" d="M571.33,786.81q3.82-2.94,7.41-5.91c1.19-1,2.37-2,3.53-3.08s2.3-2.1,3.42-3.15a168.18,168.18,0,0,0,12.51-13.06,1.06,1.06,0,0,1,.56-.38l-.08,0s.07-.09.06-.09a.8.8,0,0,1,0-.15s.06-.14.06-.14h0v.41a1.27,1.27,0,0,1,.49.37,170,170,0,0,0,12.5,13.07q1.68,1.58,3.42,3.15c1.16,1,2.34,2.12,3.53,3.08q3.59,3,7.41,5.92a1.14,1.14,0,0,1,.25,1.55q-2.86,3.78-6,7.58c-1,1.3-2.09,2.49-3.17,3.71s-2.18,2.43-3.3,3.65a201,201,0,0,1-14.4,14.16,2.1,2.1,0,0,1-.77.33,2.28,2.28,0,0,1-.87-.33c-5.13-4.67-9.94-9.2-14.42-14.17-1.12-1.22-2.22-2.43-3.3-3.65s-2.14-2.42-3.18-3.71q-3.1-3.81-6-7.59A1.13,1.13,0,0,1,571.33,786.81Zm4,1.29c3.39,4.49,7.06,8.63,11,12.9,1.95,2.16,4,4.13,6,6.17s4.22,4.06,6.42,6.08q3.3-3,6.42-6.07c2.07-2,4.08-4,6-6.18,3.88-4.27,7.54-8.39,10.94-12.88-4.36-3.35-8.51-7.12-12.4-10.75-1.94-1.79-3.84-3.79-5.67-5.7s-3.6-3.85-5.32-5.78c-1.72,1.92-3.49,3.85-5.33,5.78s-3.74,3.9-5.69,5.69C583.87,781,579.71,784.76,575.35,788.1Z"/><path class="cls-1" d="M518.28,790.8a5.9,5.9,0,0,1-3.43-7.84,6.12,6.12,0,0,1,7.91-3,5.94,5.94,0,0,1,3.52,7.6A6.08,6.08,0,0,1,518.28,790.8Zm.87-2a3.66,3.66,0,1,0-2.1-4.8A3.5,3.5,0,0,0,519.15,788.76Z"/><path class="cls-1" d="M502.81,777a6,6,0,0,0-2.4-8h0l-1.13,1.92.08,0a3.67,3.67,0,1,1-3.63,6.37.75.75,0,0,1-.15-.11l-1.14,1.93.16.09A5.91,5.91,0,0,0,502.81,777Z"/><path class="cls-1" d="M556,755.59c-2.67-.7-4-3.77-3.08-6.88s3.67-5,6.12-4.46c2.4.76,3.84,3.53,3.1,6.76a6.52,6.52,0,0,1-2.34,3.75A4.29,4.29,0,0,1,556,755.59Zm.59-2.13a2.59,2.59,0,0,0,2.42-.54,4.38,4.38,0,0,0,1.3-2.27,4.5,4.5,0,0,0-.11-2.58,2.64,2.64,0,0,0-1.76-1.69C554.85,745.54,552.75,752.46,556.61,753.46Z"/><path class="cls-1" d="M536.29,749c-2.57-1-3.47-4.33-2.13-7.27s4.28-4.45,6.63-3.59,3.34,4,2.2,7.08S538.87,749.91,536.29,749Zm.87-2c3.75,1.36,6.21-5.43,2.76-6.78-1.76-.62-3.33.65-4.06,2.33S535.3,746.24,537.16,746.93Z"/><path class="cls-1" d="M524.72,737c1.52-2.88,1-6.07-1.17-7.32h0l-1.13,1.92.06,0c3.21,1.85-.15,8.25-3.65,6.36a.42.42,0,0,1-.11-.09l-1.14,1.93.12.08C520.08,741.2,523.18,739.93,524.72,737Z"/><path class="cls-1" d="M598.83,800.11a2.05,2.05,0,0,1-.8-.34c-3.28-3.23-6.39-6.44-9.36-9.69a1.12,1.12,0,0,1,.09-1.56c3.27-3,6.4-6.14,9.37-9.2a1.22,1.22,0,0,1,.62-.39h-.08s.07-.09.06-.09,0-.15,0-.15.06-.15.06-.15h0V779a1.38,1.38,0,0,1,.54.37c3,3.07,6.11,6.15,9.38,9.21a1.13,1.13,0,0,1,.11,1.56c-3,3.23-6,6.45-9.33,9.68A1.85,1.85,0,0,1,598.83,800.11Zm0-2.72c2.7-2.67,5.21-5.35,7.7-8-2.69-2.54-5.22-5.08-7.7-7.62q-3.72,3.81-7.75,7.62Q594.76,793.38,598.79,797.39Z"/><path class="cls-1" d="M483.09,804c1.11.61,2.21,1.25,3.35,1.85s2.3,1.17,3.47,1.76c2.34,1.17,4.7,2.4,7.14,3.54-3.37-7.36-6-14.36-8.63-21.85l1.6-2.71q1.1,3.28,2.25,6.6c.79,2.19,1.65,4.31,2.51,6.49s1.77,4.35,2.72,6.55,2,4.3,3.05,6.49c2.35,1,4.7,2.12,7.13,3.1l7.41,2.88q-2-3.49-3.84-6.95c-.62-1.16-1.23-2.29-1.81-3.47l-1.7-3.53c-2.23-4.71-4.31-9.3-6.1-14.08,0,0,0-.07,0-.12l-5.41-2.74L491,784.86l1.13-1.92,3.35,1.9,1.68.94,1.73.88,6.93,3.5c2.35,1.1,4.74,2.13,7.11,3.2,1.2.52,2.37,1.09,3.6,1.55l3.65,1.43c4.84,2,9.84,3.58,14.82,5.23,2.51.75,5,1.44,7.56,2.15,1.26.34,2.51.74,3.79,1l3.82.87c-1.45-2.1-2.87-4.13-4.22-6.28s-2.65-4.3-3.91-6.44c-2.53-4.2-4.78-8.66-6.88-13a194.06,194.06,0,0,1-32.55-14.78l1.13-1.91,3.4,1.93c.09-.07.13-.16.26-.2,4.63-1.39,9.21-3,13.57-4.52,4.46-1.74,8.71-3.44,12.85-5.39-1.74-.67-3.4-1.5-5.1-2.23s-3.4-1.47-5-2.35c0,0,0,.06-.08.07-2.5,1-5.15,1.85-7.8,2.73s-5.23,1.62-7.69,2.52l1.58-2.67c1.81-.67,3.76-1.28,5.72-1.87s4-1.3,5.86-2L518.74,748c-1.54-.81-3.17-1.76-4.54-2.48l1.16-2c1.33.75,2.71,1.55,4.12,2.33l4.34,2.19c1.07.53,2.11,1.11,3.21,1.59l3.25,1.45,3.26,1.46c1.1.46,2.22.87,3.33,1.31l.08,0c4.13,1.71,8.4,3.06,12.65,4.46l6.46,1.81c1.07.33,2.18.54,3.27.8l3.27.75a155.45,155.45,0,0,0,19.76-17.46,141.48,141.48,0,0,1-24.62-4.85,150.23,150.23,0,0,1-23.39-8.92L530,728.3c-.73-.34-1.43-.74-2.13-1.15l-2.15-1.22,1.35-2.3c1.18.66,2.37,1.36,3.59,2l3.79,1.89,1.92,1c.65.32,1.33.59,2,.89l4,1.81a145.65,145.65,0,0,0,17.54,6,145.86,145.86,0,0,0,77.78,0,143.9,143.9,0,0,0,17.54-6l4.05-1.8c.66-.3,1.34-.57,2-.89l1.91-1,3.77-1.89c1.22-.66,2.39-1.36,3.56-2l1.36,2.3-2.15,1.22c-.72.41-1.43.82-2.18,1.17l-4.41,2.22a149.84,149.84,0,0,1-23.4,8.89,141.75,141.75,0,0,1-24.63,4.84,157,157,0,0,0,19.75,17.47c2.18-.53,4.38-1,6.54-1.54l6.46-1.82c4.25-1.38,8.53-2.73,12.66-4.44l.07,0L664,752.6l3.28-1.47,3.28-1.46c1.1-.47,2.14-1.06,3.22-1.59l4.31-2.18c1.42-.76,2.81-1.58,4.21-2.37l1.16,2c-1.55.82-3.06,1.71-4.61,2.51l-2.51,1.27c1.88.7,3.83,1.42,5.76,2.06s3.87,1.21,5.86,1.79l1.57,2.67c-2.69-.78-5.28-1.52-7.89-2.42s-5.17-1.83-7.66-2.79l-.12-.06c-1.63.88-3.35,1.58-5.05,2.35L666.26,754c-.85.38-1.69.77-2.57,1.09l1.57.74,1.56.69,3.18,1.34q3.19,1.33,6.53,2.63c4.37,1.57,8.93,3.13,13.57,4.54a1.11,1.11,0,0,1,.33.15l3.47-2,1.13,1.91A193.38,193.38,0,0,1,662.39,780c-2.09,4.31-4.34,8.76-6.86,13-1.26,2.13-2.55,4.28-3.9,6.43s-2.76,4.18-4.21,6.28c2.54-.58,5.1-1.13,7.6-1.88s5-1.4,7.54-2.14c5-1.66,9.93-3.22,14.76-5.21,2.43-.94,4.88-1.86,7.24-3s4.77-2.1,7.13-3.2l7-3.52,1.74-.88,1.71-1,3.39-1.92,1.13,1.92c-1.76,1-3.51,2-5.29,3l-5.42,2.75a.65.65,0,0,1,0,.13c-1.79,4.79-3.89,9.37-6.12,14.09l-1.71,3.54c-.59,1.16-1.21,2.3-1.82,3.46q-1.86,3.45-3.86,7l7.41-2.87c2.44-1,4.79-2.08,7.13-3.1,1.07-2.18,2.12-4.29,3.1-6.49s1.89-4.41,2.79-6.59,1.77-4.33,2.57-6.53,1.55-4.42,2.27-6.6l1.59,2.71a204.7,204.7,0,0,1-8.82,21.94c2.45-1.13,4.8-2.37,7.15-3.53l3.47-1.76c1.15-.59,2.24-1.24,3.35-1.85l1.4-3.69,2.63,4.48-3.52,2c-1.17.67-2.35,1.32-3.56,1.92l-7.22,3.63a243.1,243.1,0,0,1-210.75-.09l-7.1-3.58c-1.19-.58-2.34-1.22-3.5-1.88l-3.52-2,2.64-4.48C482.38,801.64,482.62,802.74,483.09,804Zm115.74,29.55h0ZM679.61,798q-1.68,3.39-3.48,6.81l-.92,1.72-1,1.66-2,3.34q-2,3.35-4.11,6.72c-1.42,2.23-2.92,4.37-4.45,6.57,5.16-1.34,10.12-3.08,15-4.71.7-1.12,1.38-2.28,2-3.46l2-3.49q1.9-3.48,3.69-6.93,3.46-7.08,6.38-14.05c-2.16,1-4.36,2-6.55,3L683,796.55c-1.11.45-2.23.88-3.34,1.32A.36.36,0,0,1,679.61,798Zm-16.91,6.09c-2.62,4.22-5.4,8.57-8.4,12.8-1.5,2.08-3.06,4.16-4.65,6.25s-3.23,4.24-4.95,6.21c1.31-.21,2.6-.49,3.89-.79l3.85-.86c2.55-.61,5.12-1.11,7.61-1.85a202.32,202.32,0,0,0,16.35-26.68l-3.36,1.3-3.41,1.15-6.84,2.27A.88.88,0,0,1,662.7,804.05Zm-17.19,4.28a208.39,208.39,0,0,1-20.16,23.91l7.82-1c1.31-.15,2.6-.37,3.89-.6l3.86-.68c1.75-2,3.45-4,5.1-6.11s3.23-4.21,4.77-6.3l2.29-3.14c.75-1,1.49-2.08,2.2-3.18q2.16-3.24,4.17-6.45l-6.93,1.92ZM651,759.71l5.54,3.28,2.83,1.66,2.84,1.59,11.64,6.54a1.09,1.09,0,0,1,.33.26l6.86-3.06,6.71-3.37c-4.74-1.54-9.24-3-13.74-4.81-2.23-.89-4.42-1.78-6.56-2.7s-4.3-2-6.38-3l-2.49,1c-.83.32-1.65.66-2.5.93Zm-13.74,3.76c1.86,1.32,3.77,2.68,5.7,3.95s3.9,2.46,5.92,3.67c4.05,2.5,8.2,4.67,12.54,6.84l2.61-.87c.87-.31,1.72-.66,2.57-1l5.13-2-11.82-6.69c-3.9-2.3-7.67-4.48-11.36-6.75l-.12-.09C644.74,761.55,641.06,762.7,637.28,763.47Zm-36.55-18.34A165.43,165.43,0,0,0,644,783.45a1.13,1.13,0,0,1,.38,1.52,198.69,198.69,0,0,1-42.22,48.68c3.23-.09,6.46-.12,9.69-.29l9.69-.72c1-1,2.05-2,3.05-3.09l3-3.14q2.93-3.13,5.69-6.28c1.83-2.18,3.6-4.35,5.33-6.52s3.4-4.27,5-6.56a1.2,1.2,0,0,1,.36-.51c1.57-2.2,3.09-4.41,4.55-6.6.73-1.1,1.46-2.16,2.16-3.3l2-3.39q2-3.37,3.87-6.72c1.24-2.23,2.38-4.59,3.5-6.85-2.35-1.19-4.62-2.32-6.88-3.62s-4.48-2.59-6.64-3.91l-3.2-2c-1.05-.69-2.11-1.42-3.15-2.13q-3.1-2.14-6.06-4.31l-1.46-1.09-1.46-1.15-2.86-2.32q-2.82-2.32-5.47-4.67t-5.2-5l-2.47-2.48L614,745.82l-1.19-1.31-6,.45C604.77,745.05,602.75,745.06,600.73,745.13Zm-1.93.54a165.67,165.67,0,0,1-43.23,39,198.52,198.52,0,0,0,43.21,48.81A198.67,198.67,0,0,0,642,784.71,165.76,165.76,0,0,1,598.8,745.67Zm-75.17,27c7.88-4.45,15.56-8.62,22.86-13.05L541.42,758c-1.69-.57-3.33-1.28-5-1.91-2.07,1-4.24,2.08-6.37,3s-4.34,1.81-6.57,2.69L520.1,763c-1.14.43-2.26.8-3.4,1.19q-3.42,1.17-7,2.3l6.7,3.39L523.3,773A1.09,1.09,0,0,1,523.63,772.71Zm12.42,5.17c4.35-2.17,8.5-4.33,12.56-6.83,2-1.21,4-2.44,5.92-3.68s3.84-2.62,5.7-3.94c-3.78-.76-7.46-1.93-11.17-2.93l-.12.09c-3.68,2.26-7.46,4.44-11.37,6.74L525.75,774l5.13,2,2.56,1Zm17.5,28.62a1.2,1.2,0,0,1,.36.51c1.59,2.29,3.26,4.4,5,6.6s3.49,4.39,5.32,6.59,3.73,4.21,5.68,6.3,4,4.19,6,6.12l9.69.72c3.24.19,6.47.21,9.7.31a192.89,192.89,0,0,1-42.18-48.72,1.13,1.13,0,0,1,.38-1.52,171.13,171.13,0,0,0,43.29-38.29c-2-.07-4-.07-6-.17l-6-.45c-.8.91-1.6,1.75-2.41,2.58l-2.48,2.52c-1.68,1.66-3.42,3.34-5.21,5s-3.6,3.12-5.48,4.66-3.82,3.14-5.78,4.54-4,2.87-6.07,4.29c-1,.7-2.09,1.43-3.14,2.1l-3.2,2q-3.24,2-6.63,3.89c-2.26,1.28-4.54,2.41-6.88,3.6,1.11,2.26,2.26,4.61,3.49,6.85s2.53,4.47,3.87,6.72C547.46,797.79,550.42,802.06,553.55,806.5ZM538,804.74c1.34,2.15,2.74,4.28,4.18,6.42l1.08,1.6,1.12,1.55,2.29,3.11c1.55,2.08,3.14,4.17,4.77,6.29s3.34,4.12,5.07,6.24l3.86.67c1.29.22,2.58.46,3.89.61l7.82,1A240.33,240.33,0,0,1,552,808.29l-7-1.61Zm-16.94-5.68c2.27,4.61,4.85,8.91,7.57,13.38l2.07,3.35,2.16,3.28,4.52,6.68c2.49.74,5.06,1.26,7.61,1.86l3.85.87c1.29.29,2.58.59,3.88.8l-1.25-1.57-1.23-1.61-2.42-3.19c-1.59-2.1-3.14-4.17-4.65-6.23-3-4.2-5.8-8.46-8.42-12.68a.88.88,0,0,1-.09-.2l-6.83-2.28c-1.14-.38-2.28-.75-3.41-1.16ZM518.69,820c4.9,1.63,9.85,3.38,15,4.73-1.53-2.21-3-4.34-4.44-6.58s-2.78-4.49-4.1-6.72c-2.67-4.4-5.06-9-7.3-13.54l0-.09c-1.11-.44-2.24-.86-3.34-1.33L511.21,795c-2.18-1-4.39-1.92-6.54-3,1.92,4.67,4.06,9.33,6.36,14.07C513.41,810.69,515.93,815.4,518.69,820Z"/><path class="cls-1" d="M479.43,755.26a6.89,6.89,0,0,1,1.53,1.81,5.77,5.77,0,0,1,.79,2.1,5.62,5.62,0,0,1-1.07,4.36,5.83,5.83,0,0,1-4,2.27,5.9,5.9,0,0,1-4.62-1.31,5.82,5.82,0,0,1-1.13-8.41A6.21,6.21,0,0,1,479.43,755.26ZM478.06,757c-3.83-2.92-8.62,2.54-4.62,5.72a3.68,3.68,0,1,0,4.62-5.72Z"/><path class="cls-1" d="M492,770.79a5.64,5.64,0,0,0-.73,4.49,6.27,6.27,0,0,0,2.94,3.71l.24.13,1.14-1.93c-.08,0-.17-.07-.25-.12-4.41-2.59-.36-8.6,3.85-6.25l.1.08,1.13-1.92-.1-.07a6.41,6.41,0,0,0-4.57-.66A5.86,5.86,0,0,0,492,770.79Z"/><path class="cls-1" d="M492.74,706.57c1.75,1.77,1.47,5-.83,7.41s-5.68,2.74-7.66.84-1.44-5.36,1-7.55S490.94,704.82,492.74,706.57Zm-1.59,1.57c-1.35-1.28-3.3-.75-4.66.5s-2,3.21-.65,4.61C488.68,716,493.74,710.77,491.15,708.14Z"/><path class="cls-1" d="M507.35,719.06a4.14,4.14,0,0,1,1.09,1.5,4.48,4.48,0,0,1,.43,1.84,6.61,6.61,0,0,1-1.39,4.13,6.7,6.7,0,0,1-3.66,2.51,5.18,5.18,0,0,1-2,.11,4.33,4.33,0,0,1-1.79-.84c-2.13-1.71-2.17-5.08,0-7.57S505.36,717.54,507.35,719.06ZM506,720.82c-2.94-2.24-7.7,3.24-4.6,5.73,1.52,1.27,3.44.38,4.55-1.07S507.38,722.05,506,720.82Z"/><path class="cls-1" d="M516.35,732.22a6.46,6.46,0,0,0-1.07,4.28,4.3,4.3,0,0,0,2.08,3.21l.19.1,1.14-1.93a1.67,1.67,0,0,1-.2-.08c-3.43-2,.59-8,3.83-6.27l.07.06,1.13-1.92-.07,0a4.42,4.42,0,0,0-3.72-.16A6.7,6.7,0,0,0,516.35,732.22Z"/><path class="cls-1" d="M421.68,670.74c1.48.61,2.95,1.19,4.42,1.76s3,1.08,4.49,1.59c3,1,6,2,8.89,2.84a171.05,171.05,0,0,0,17.85,4,1.06,1.06,0,0,1,.62.28.64.64,0,0,0,0-.07s.11,0,.11,0l0,0,0,0h0l-.08,0h0a1.28,1.28,0,0,1-.1.61c-.52,1.39-1,2.79-1.53,4.21s-.9,2.81-1.34,4.24c-.85,2.85-1.73,5.8-2.45,8.76s-1.35,5.93-2,9l-.45,2.32-.36,2.29c-.24,1.53-.47,3.08-.68,4.65a1.16,1.16,0,0,1-1.23,1c-1.6-.17-3.22-.36-4.84-.56l-2.45-.31-2.39-.39c-3.21-.52-6.47-1.12-9.77-1.77s-6.47-1.49-9.78-2.34c-1.64-.43-3.31-.87-5-1.34s-3.24-1-4.88-1.53a2.07,2.07,0,0,1-.67-.5,2.16,2.16,0,0,1-.15-.9c1.34-6.6,3.25-13.14,5.17-19.33,1.06-3.14,2.19-6.22,3.33-9.22.58-1.51,1.13-3,1.77-4.47s1.29-3,1.95-4.4A1.18,1.18,0,0,1,421.68,670.74Zm.79,4.1q-1.56,3.78-3.05,7.74l-1.47,4c-.46,1.34-.88,2.67-1.31,4q-1.27,4-2.46,8.27c-.77,2.8-1.39,5.59-2,8.47,5.61,1.82,11.4,3.23,17,4.48,2.76.65,5.66,1.12,8.45,1.61s5.55.92,8.36,1.25c.4-2.71.95-5.45,1.48-8.09s1.07-5.23,1.79-7.86c1.39-5.21,2.82-10.18,4.66-15.11-2.57-.48-5.25-1-7.84-1.59s-5.18-1.28-7.81-2c-1.31-.37-2.66-.73-4-1.14l-3.88-1.26Q426.46,676.32,422.47,674.84Z"/><path class="cls-1" d="M391.71,627.57a6.16,6.16,0,0,1,1.12-4.58,5.76,5.76,0,0,1,4-2.24,6,6,0,0,1,4.37,1.28,6.32,6.32,0,0,1,2.33,3.93,6.13,6.13,0,0,1-5,6.8,5.75,5.75,0,0,1-4.47-1.08A6.28,6.28,0,0,1,391.71,627.57Zm2.23-.28c.74,5,7.95,3.68,7.36-1C400.53,621.53,393.22,622.29,393.94,627.29Z"/><path class="cls-1" d="M396.16,607.53a5.91,5.91,0,0,0,5.75-6s0,0,0,0h-2.26a.21.21,0,0,1,0,.08c.09,4.77-7.23,5.14-7.43.1a.63.63,0,0,1,0-.18H390s0,.09,0,.18A6,6,0,0,0,396.16,607.53Z"/><path class="cls-1" d="M441.53,642.15c-.74-2.62,1.41-5.34,4.6-6.08s6.19.64,6.92,3-1.2,5-4.39,6S442.34,644.73,441.53,642.15Zm2.18-.56c1.18,3.75,8.16,1.55,7.16-2-.56-1.75-2.54-2.21-4.35-1.76S443.15,639.71,443.71,641.59Z"/><path class="cls-1" d="M437.59,622c-.4-2.68,2-5.1,5.27-5.44s6.12,1.41,6.56,3.85a4.21,4.21,0,0,1-1.29,3.42,7,7,0,0,1-3.92,2,6.63,6.63,0,0,1-4.42-.69A4.36,4.36,0,0,1,437.59,622Zm2.23-.28c.58,3.89,7.8,2.6,7.36-1C446.55,617.11,439.23,617.85,439.82,621.74Z"/><path class="cls-1" d="M442.36,606.16c3.35-.15,5.84-2.18,5.78-4.68,0,0,0,0,0,0h-2.26a.14.14,0,0,1,0,.07c.09,3.66-7.24,4-7.43.07a.58.58,0,0,1,0-.14H436.2a.63.63,0,0,0,0,.15C436.33,604.31,439.06,606.32,442.36,606.16Z"/><path class="cls-1" d="M423.73,700.77a1.89,1.89,0,0,1-.11-.83c.57-2.19,1.14-4.33,1.78-6.47s1.37-4.27,2.08-6.36a1.17,1.17,0,0,1,1.42-.7c2.14.64,4.26,1.26,6.36,1.84s4.31,1,6.43,1.53a1.21,1.21,0,0,1,.66.33l0-.08s.12,0,.11,0l0,0,0,0h0l-.08,0,0,0a1.29,1.29,0,0,1-.06.66l-1,3.1c-.32,1-.62,2.09-.88,3.13-.54,2.08-1.06,4.2-1.57,6.34a1.16,1.16,0,0,1-1.32.88c-4.38-.88-8.86-1.82-13.21-3.07A1.92,1.92,0,0,1,423.73,700.77Zm2.38-1.38q2.73.74,5.41,1.38c1.81.42,3.65.79,5.47,1.16.43-1.77.85-3.49,1.34-5.21l1.56-5.17c-3.52-.82-7.16-1.68-10.64-2.75C428,692.3,427.07,695.78,426.11,699.39Z"/><path class="cls-1" d="M362.46,604.27q.1,3.74.2,7.59c0,1.28.12,2.58.22,3.88l.3,3.94c4.61-6.53,9.79-12,14.85-18.23h3.19c-3.06,3.55-6.11,6.94-9.14,10.58s-5.76,7.42-8.6,11.41c0,.63.1,1.26.16,1.89s.16,1.25.24,1.89c.16,1.26.32,2.54.49,3.81s.33,2.57.5,3.86c.09.65.18,1.29.26,1.94s.23,1.3.35,1.94c1.3-2.27,2.79-4.53,4.23-6.73s2.92-4.36,4.39-6.47l1.1-1.58,1.17-1.57,2.36-3.08c1.57-2,3.14-4,4.73-6,0,0,.07,0,.1-.05-.2-4-.23-8.31-.33-11.86h2.25c.06,2.66.12,5.06.18,7.6,0,1.27,0,2.54.13,3.81s.19,2.54.28,3.82l.29,3.82c.1,1.28.19,2.56.37,3.83.33,2.55.65,5.1,1,7.65.14,1.28.39,2.55.61,3.82l.69,3.81.69,3.8c.26,1.27.57,2.52.86,3.78.6,2.51,1.13,5,1.81,7.52l2.13,7.43a185.79,185.79,0,0,1,15.2-25.6,188.38,188.38,0,0,1-3.3-35.09h2.25c0,.89.07,2.55.1,3.86.1.05.2,0,.3.13q2.67,2.43,5.31,4.76c1.79,1.55,3.67,3.06,5.49,4.53s3.65,2.89,5.46,4.27,3.8,2.7,5.68,4l-.35-2.73c-.11-.91-.25-1.81-.3-2.72-.13-1.83-.27-3.65-.41-5.48,0,0-.07,0-.1,0-2.19-1.64-4.21-3.46-6.27-5.28s-4.11-3.65-6.17-5.29h3.14c3.08,2.42,6.17,5.43,9.23,7.94l-.06-2.82c0-1.72-.11-3.58-.19-5.12h2.32c0,1.52.08,3.09.12,4.69,0,.79,0,1.6.05,2.4s0,1.6.11,2.4c.17,2.35.35,4.69.52,7s.59,4.65.88,7a.22.22,0,0,1,0,.08,170.85,170.85,0,0,0,5.89,25.75c2.13.86,4.25,1.68,6.34,2.45s4.12,1.53,6.3,2.18,4.25,1.29,6.34,1.87l3.13.84c1,.27,2.13.51,3.18.75a144.37,144.37,0,0,1-8-23.36l-.71-3c-.23-1-.51-2-.66-3l-1.11-6.08-.79-6.13c-.17-1-.21-2.06-.29-3.09l-.24-3.09c-.06-.81-.14-1.6-.19-2.4s0-1.6,0-2.4c0-1.59-.09-3.2-.13-4.86h2.7a145.63,145.63,0,0,0,4.43,34.91,139.87,139.87,0,0,0,14.8,35.58c1.56,2.86,3.49,5.52,5.22,8.29l2.89,4c.49.66.93,1.35,1.45,2l1.54,1.91,1.52,1.92c.51.64,1,1.28,1.56,1.88l3.23,3.65a23,23,0,0,0,1.65,1.77l1.69,1.73c1.11,1.16,2.2,2.33,3.39,3.38s2.31,2.18,3.46,3.25,2.39,2,3.56,3l1.75,1.5c.6.49,1.21.94,1.82,1.4l3.57,2.77a150.45,150.45,0,0,0,14.32,9.25l-1.35,2.3c-2.93-1.54-5.64-3.42-8.45-5.13A148.84,148.84,0,0,1,481,686.69c-.34,1-.63,2-.91,3.07l-.82,3.09q-.81,3.12-1.54,6.36c-.86,4.22-1.63,8.6-2.21,13.06a168,168,0,0,0,19.76,17.94l.07,0,2.84,2.19c.93.75,1.95,1.38,2.92,2.08l2.94,2,1.47,1,1.53.95,4.09,2.56,1,.65,1,.59,2.11,1.18-1.16,2c-1.5-.9-3.05-1.72-4.5-2.69l-2.39-1.5q.49,2.94,1.06,5.94c.4,2,.86,3.9,1.33,5.88l-1.57,2.67c-1.37-5.23-2.34-10.66-3.16-15.83v-.13c-1.58-1-3.06-2.1-4.59-3.14s-3.07-2.09-4.51-3.26c.08,1.13.17,2.28.28,3.41l.4,3.37c.29,2.25.61,4.54,1,6.85.17,1.17.37,2.31.59,3.44l.67,3.43c.46,2.3,1,4.62,1.48,7a1.12,1.12,0,0,1,0,.36l3.48,2-1.13,1.91a193.36,193.36,0,0,1-29.34-20.4q-3.65.29-7.4.5c-2.45.08-4.94.12-7.45.14s-5.1,0-7.61-.09-5.07-.25-7.65-.43a205.94,205.94,0,0,0,23.06,20.8l3.09,2.37c1,.79,2.05,1.58,3.13,2.31l6.39,4.45c2.16,1.45,4.39,2.79,6.58,4.18,1.11.68,2.19,1.4,3.32,2l3.4,1.92L491,784.86l-2.64-1.49-1.32-.75-1.29-.8-5.13-3.22a.7.7,0,0,1-.14,0l-3.84.59-3.83.46q-3.85.42-7.81.77c-2.66.26-5.25.35-7.91.47s-5.35.19-8.07.23c4.21,3.25,8.28,6.51,12.51,9.36q3.68-.27,7.27-.6c2.41-.26,4.83-.59,7.2-.92s4.72-.68,7-1.06,4.67-.89,7-1.36l-1.6,2.71c-1.92.39-3.87.76-5.83,1.12s-3.89.61-5.87.89-4,.54-6,.79l-3,.36-3,.25c2.18,1.58,4.47,2.93,6.66,4.34l3.3,2.06,1.62,1,1.66.94,4-.66-2.64,4.48c-4.75-2.58-9.24-5.56-13.78-8.41a238,238,0,0,1-73.69-77.52c-1.12-1.93-2.26-3.86-3.36-5.81l-3.11-6c-2.14-3.94-3.93-8-5.81-12.12-1-2-1.78-4.12-2.62-6.2l-2.5-6.25c-.77-2.1-1.48-4.23-2.22-6.35l-1.09-3.18c-.37-1.06-.72-2.13-1-3.21a233,233,0,0,1-9.76-52.74c-.1-1.32-.21-2.62-.28-3.92s-.08-2.58-.11-3.88q-.11-3.89-.19-7.88H365C364.13,602.34,363.29,603.26,362.46,604.27Zm31.83,113.24h0ZM466,768.39c-2.56.18-5.15.34-7.76.46s-5.18.1-7.81.1-5.33,0-8-.13-5.32-.29-8-.48c1.93,1.8,3.82,3.61,5.76,5.35l5.89,5,4,0,4.06-.11c2.68-.08,5.34-.2,8-.35s5.27-.41,7.86-.67,5.17-.57,7.7-.9c-3.9-2.73-7.89-5.37-11.61-8.35ZM452.23,757q-3.81-.06-7.69-.22c-1.3-.05-2.61-.11-3.91-.18l-3.87-.32c-5.18-.46-10.54-1-15.78-1.89.87,1,1.74,2,2.6,2.93s1.8,1.88,2.7,2.82l5.41,5.55c5.47.42,10.76.76,16,.85,2.66,0,5.29,0,7.89,0s5.15-.1,7.75-.29c-1.92-1.42-3.69-3-5.52-4.55l-2.73-2.31-1.35-1.16L452.45,757Zm-12.41-12.42c-5.09-.46-10.21-1.15-15.47-2s-10.41-1.92-15.66-3.19c1.54,2.1,3.21,4.09,4.82,6.13l2.43,3c.81,1,1.69,2,2.53,2.94,5.37.89,10.57,1.69,15.88,2.14q3.94.38,7.8.65c2.59.17,5.22.23,7.78.3C446.39,751.49,443.14,748,439.82,744.62ZM485.44,725c-.07,4.15-.15,8.46-.15,12.8s.07,8.68,0,13.18a1.35,1.35,0,0,1-.07.41l6.15,4.28c1,.73,2.08,1.38,3.14,2l3.17,2c-.51-2.38-1-4.73-1.45-7.05s-.8-4.73-1.16-7-.65-4.62-.91-6.92-.4-4.65-.55-6.92l-2.11-1.63c-.71-.53-1.36-1.14-2.05-1.7Zm-10.2-9.84q-.35,3.36-.6,6.81c-.1,1.16-.16,2.31-.19,3.44l-.1,3.45q-.08,3.46-.05,7c.05,2.33.17,4.67.3,7l2.09,1.77c.69.6,1.39,1.18,2.13,1.73l4.34,3.34c0-9.07-.07-17.89.27-26.46a.77.77,0,0,1,0-.15l-4.2-3.91Zm-2.17-40.25c-.95,2.13-1.7,4.2-2.5,6.37s-1.55,4.36-2.29,6.61-1.31,4.44-1.92,6.73-1.24,4.65-1.69,7-.95,4.69-1.38,7.1c-.2,1.19-.44,2.43-.6,3.63l-.47,3.62c-.29,2.43-.56,4.91-.79,7.42s-.31,5-.42,7.51a1.14,1.14,0,0,1-1.15,1.08c-2.56,0-5.2-.08-7.8-.23s-5.2-.36-7.84-.6c-5.36-.44-10.55-1.27-16-2.16-2.73-.44-5.35-1-8.05-1.61s-5.41-1.23-8.15-1.92-5.37-1.5-8.09-2.32l-4.1-1.26-2.05-.66-2-.71c.79,1.39,1.68,2.72,2.55,4.06l2.63,4c1.71,2.71,3.62,5.28,5.5,7.87A214.07,214.07,0,0,0,440,742.32a1.07,1.07,0,0,1,.61.06c2.73.23,5.45.39,8.13.53l4,.17,2,.07h2c2.66,0,5.3,0,7.89-.1,1.3,0,2.57-.07,3.87-.15l3.89-.27-.18-3.83c0-1.28,0-2.58-.05-3.86,0-2.56,0-5.09.1-7.57,0-1.23.1-2.5.19-3.75l.28-3.74c.21-2.48.42-4.87.74-7.3a153.16,153.16,0,0,1,6.24-27.8c-1.16-1.61-2.37-3.19-3.4-4.88l-1.63-2.49C474.09,676.58,473.54,675.76,473.07,674.89Zm-1.39-1.4c-2.29-.27-4.65-.57-7-1s-4.61-.83-6.95-1.32c-4.77-.93-9.31-2.21-14.08-3.61-2.4-.69-4.68-1.49-7-2.32s-4.69-1.72-7.06-2.65-4.62-2-6.95-3L419.12,658c-1.18-.56-2.36-1.12-3.48-1.72-.66,1.13-1.26,2.26-1.84,3.39L412,663.12c-1.16,2.32-2.33,4.7-3.43,7.11s-2.07,4.83-3.07,7.32-2,5-2.86,7.56c-1.73,5.09-3.49,10.42-4.8,15.77q-1,4-2,8.21c-.58,2.76-1.09,5.53-1.59,8.36a201.41,201.41,0,0,0,64.58,12.31A159,159,0,0,1,471.68,673.49ZM410.31,623.1l5.82,3.36c1.92,1.11,3.77,2.22,5.73,3.3l5.71,3.21c1.9,1,3.68,2.1,5.62,3.09-.22-.85-.37-1.72-.51-2.58l-.47-2.6-.47-2.59c-.16-.86-.32-1.73-.41-2.6a188.27,188.27,0,0,1-22.51-17.5c0,1.24,0,2.47.13,3.7l.28,3.69c.2,2.46.31,4.93.68,7.37A1.31,1.31,0,0,1,410.31,623.1Zm1.63,13.16a173.08,173.08,0,0,0,24.77,13.38l-1.56-5.47c-.29-.9-.5-1.83-.71-2.75l-.64-2.77-.14-.06c-1.92-1-3.92-2-5.84-3.07l-5.77-3.24L416.12,629l-5.88-3.41c.25,1.79.4,3.59.74,5.37ZM395.4,665.44a.94.94,0,0,1-.25.55c-2.23,4.92-4.58,10.1-6.45,15.34q-1.45,3.95-2.81,8c-.85,2.7-1.59,5.41-2.31,8.16l2,4.35c.71,1.44,1.46,2.85,2.19,4.27,1.51,2.83,2.9,5.72,4.56,8.45a186.13,186.13,0,0,1,21.89-60.28,1.17,1.17,0,0,1,1.53-.44c4.46,2.4,9.23,4.49,13.8,6.43,2.26,1,4.65,1.85,7,2.69s4.66,1.62,6.95,2.36,4.71,1.38,7,2,4.56,1.22,6.9,1.72,4.63.95,6.9,1.37l3.37.6c1.13.19,2.28.34,3.41.5-1.06-1.68-1.88-3.48-2.82-5.22l-1.38-2.63L465.68,661a160.89,160.89,0,0,1-54.63-22.69c-1.5,2.1-2.82,4.21-4.22,6.38s-2.76,4.4-4.09,6.67-2.52,4.55-3.76,6.9S396.48,663,395.4,665.44Zm-6.18-14.1a234.45,234.45,0,0,0-13,28.35c.41,1.22.87,2.42,1.36,3.61l1.44,3.61c1,2.39,1.89,4.82,3,7.17.77-2.56,1.65-5.12,2.52-7.62s1.73-5,2.6-7.36l.66-1.8.72-1.81,1.47-3.56q1.47-3.52,3-6.94c-.71-2.25-1.33-4.53-2-6.8l-1-3.41C389.74,653.64,389.49,652.49,389.22,651.34Zm-3.49-17.25c-2.74,4.2-5.46,8.58-8,13.11q-1.86,3.39-3.7,6.91c-1.22,2.35-2.52,4.76-3.66,7.18l2.14,7.42.55,1.86.63,1.84,1.26,3.7,3.09-7.33q1.63-3.62,3.27-7.1c1.1-2.32,2.15-4.58,3.34-6.84s2.41-4.47,3.66-6.65a1.18,1.18,0,0,1,.13-.18l-.8-3.46c-.25-1.15-.44-2.32-.66-3.48Zm-19.58,8.4.69,3.77.35,1.89.43,1.89,1.79,7.6a203.07,203.07,0,0,1,15.8-26.87l.06-.08-.89-7c-.24-2.34-.38-4.69-.57-7q-2.38,3-4.74,6.09c-1.56,2.07-3,4.18-4.47,6.34s-2.93,4.35-4.38,6.6S367.49,640.17,366.15,642.49Z"/><path class="cls-1" d="M403.56,576.78a6.21,6.21,0,0,1-6.71,5.21,5.86,5.86,0,0,1-5.12-6.83,6.26,6.26,0,0,1,2.35-4.1,5.75,5.75,0,0,1,4.47-1.09,6,6,0,0,1,3.86,2.41A6.1,6.1,0,0,1,403.56,576.78Zm-2.24-.28c.59-4.73-6.62-6.06-7.35-1.06S400.55,581.21,401.32,576.5Z"/><path class="cls-1" d="M396.17,595.21a6,6,0,0,0-6.19,6v.27h2.26c0-.09,0-.17,0-.26.2-5,7.52-4.62,7.43.14l0,.12h2.26v-.12A6,6,0,0,0,396.17,595.21Z"/><path class="cls-1" d="M453.09,563.71c-.75,2.36-3.65,3.76-6.93,3a6.61,6.61,0,0,1-3.77-2.33,4.11,4.11,0,0,1-.82-3.74c.8-2.59,4-3.91,7.13-2.93S453.77,561.33,453.09,563.71Zm-2.18-.56c1-3.51-6-5.71-7.16-2-.58,1.87,1,3.28,2.8,3.72S450.33,564.89,450.91,563.15Z"/><path class="cls-1" d="M449.43,582.35c-.42,2.44-3.26,4.18-6.56,3.84s-5.65-2.75-5.26-5.44a4.36,4.36,0,0,1,2.2-3.14,6.79,6.79,0,0,1,4.43-.69,7,7,0,0,1,3.91,2A4.22,4.22,0,0,1,449.43,582.35Zm-2.23-.28c.43-3.63-6.78-4.93-7.36-1S446.56,585.67,447.2,582.07Z"/><path class="cls-1" d="M442.37,596.61c-3.31-.16-6,1.92-6.17,4.63v.21h2.27c0-.07,0-.13,0-.2.2-3.94,7.52-3.55,7.43.11a.29.29,0,0,1,0,.09h2.26l0-.09C448.2,598.87,445.71,596.76,442.37,596.61Z"/><path class="cls-1" d="M449.2,485.41c.21,1.57.44,3.12.68,4.65l.36,2.29.44,2.31q.92,4.6,2,9c.71,2.95,1.59,5.91,2.45,8.76.43,1.43.87,2.84,1.33,4.23s1,2.83,1.53,4.21a1,1,0,0,1,.07.68l.05-.06s.05.1.06.09l0,0,0,0h0l-.08,0h0a1.32,1.32,0,0,1-.59.22,170.31,170.31,0,0,0-17.84,4c-3,.86-5.9,1.81-8.9,2.83-1.49.51-3,1-4.5,1.59s-2.94,1.15-4.42,1.75a1.17,1.17,0,0,1-1.49-.55q-1-2.18-1.94-4.41c-.64-1.48-1.19-3-1.77-4.46-1.14-3-2.27-6.08-3.32-9.21A190.49,190.49,0,0,1,408,494.08a1.93,1.93,0,0,1,.1-.81,2.37,2.37,0,0,1,.71-.58q2.46-.79,4.89-1.53c1.67-.47,3.33-.91,5-1.34,3.31-.85,6.52-1.67,9.8-2.35s6.56-1.25,9.77-1.78l2.4-.39,2.45-.31c1.62-.2,3.24-.39,4.84-.56A1.16,1.16,0,0,1,449.2,485.41Zm-3.2,2.73c-2.81.33-5.53.79-8.36,1.26l-4.24.75-2.14.4-2.09.47c-5.58,1.26-11.39,2.68-17,4.5.65,2.88,1.28,5.67,2.05,8.46s1.62,5.55,2.47,8.25c.43,1.35.85,2.68,1.31,4l1.47,4c1,2.63,2,5.21,3.06,7.74,2.65-1,5.28-1.91,7.88-2.77l3.89-1.26c1.31-.4,2.64-.76,4-1.12,2.63-.72,5.23-1.38,7.8-2s5.26-1.09,7.84-1.57c-1.84-4.94-3.26-9.91-4.64-15.13l-.51-2-.44-1.95-.83-3.95C447,493.59,446.4,490.84,446,488.14Z"/><path class="cls-1" d="M472.21,438.3a6.13,6.13,0,0,1,4.63-1.3,5.86,5.86,0,0,1,4,2.28,5.65,5.65,0,0,1,1.06,4.36,6.67,6.67,0,0,1-2.32,3.91,6.21,6.21,0,0,1-8.49-.83A5.84,5.84,0,0,1,472.21,438.3Zm1.37,1.76c-4,3.18.79,8.65,4.62,5.73a3.68,3.68,0,1,0-4.62-5.73Z"/><path class="cls-1" d="M492.1,432a5.9,5.9,0,0,0,3.71,2.56,6.29,6.29,0,0,0,4.54-.63s0,0,0,0L499.24,432a.17.17,0,0,1-.06.05c-4.22,2.36-8.22-3.68-3.81-6.27a.62.62,0,0,1,.17-.07l-1.14-1.93-.16.09a6.07,6.07,0,0,0-2.9,3.68A5.66,5.66,0,0,0,492.1,432Z"/><path class="cls-1" d="M484.35,488c2-1.9,5.39-1.51,7.66.85s2.58,5.63.82,7.41-5,1.53-7.5-.71S482.44,489.94,484.35,488Zm1.59,1.57c-1.4,1.4-.69,3.38.65,4.61s3.3,1.77,4.66.51C493.84,492.05,488.79,486.8,485.94,489.56Z"/><path class="cls-1" d="M500.12,474.51a4,4,0,0,1,1.78-.83,5.23,5.23,0,0,1,2,.11,7,7,0,0,1,5,6.65,4.69,4.69,0,0,1-.43,1.84,4.19,4.19,0,0,1-1.09,1.48c-2,1.53-5.23.84-7.38-1.68S498,476.23,500.12,474.51Zm1.37,1.76c-3.1,2.49,1.66,8,4.6,5.74,1.4-1.23,1.07-3.19,0-4.66S503,475,501.49,476.27Z"/><path class="cls-1" d="M516.46,470.62a6.8,6.8,0,0,0,3.36,2.78,4.33,4.33,0,0,0,3.68-.14l0,0-1.13-1.92,0,0c-3.23,1.79-7.22-4.26-3.79-6.28a.44.44,0,0,1,.14-.05l-1.14-1.93-.13.06a4.28,4.28,0,0,0-2.06,3.2A6.58,6.58,0,0,0,516.46,470.62Z"/><path class="cls-1" d="M423.73,502.14a2,2,0,0,1,.68-.52c4.36-1.26,8.87-2.22,13.24-3.1a1.16,1.16,0,0,1,1.33.85c1,4.3,2,8.44,3.4,12.58a1.13,1.13,0,0,1,0,.72l.06-.06s0,.11,0,.1l0,0,0,0h0l-.08,0,0,0a1.28,1.28,0,0,1-.61.27c-2.12.48-4.28,1-6.43,1.53s-4.22,1.2-6.36,1.84a1.16,1.16,0,0,1-1.43-.69c-.71-2.08-1.41-4.2-2.09-6.34s-1.22-4.25-1.79-6.44A1.69,1.69,0,0,1,423.73,502.14Zm2.41,1.33c1,3.61,1.95,7,3.17,10.53,3.48-1.07,7.1-1.89,10.62-2.71q-.8-2.55-1.55-5.18c-.47-1.73-.9-3.47-1.32-5.24-1.82.38-3.66.76-5.49,1.18S428,503,426.14,503.47Z"/><path class="cls-1" d="M478.1,401.76c-2.22,1.21-4.36,2.64-6.58,4l-3.34,2.11L466.5,409l-1.65,1.15q1.51.12,3,.27l3,.39c2,.26,3.94.55,5.88.85s3.86.6,5.8.93l5.89,1.09,1.6,2.71c-2.3-.47-4.64-1-6.95-1.37s-4.63-.75-7-1.1-4.74-.68-7.14-1-4.78-.45-7.23-.63c-4.23,2.85-8.31,6.1-12.52,9.35q4.08.08,8.06.24c2.66.12,5.25.22,7.9.49s5.23.5,7.8.79l3.82.46,3.84.59c.05,0,.05.05.1.06l5.13-3.21c.84-.55,1.71-1.05,2.58-1.53l2.59-1.47,1.13,1.92-3.35,1.89c-1.12.63-2.19,1.35-3.29,2-2.17,1.38-4.38,2.72-6.54,4.15l-6.38,4.44-1.6,1.12-1.54,1.19-3.09,2.38A203.8,203.8,0,0,0,443.21,458c2.58-.18,5.14-.33,7.66-.44s5.11-.09,7.62-.09,5,0,7.46.13,5,.3,7.41.5a193.78,193.78,0,0,1,29.27-20.35l1.13,1.91-3.41,1.92c0,.11.07.19,0,.32-1,4.73-2,9.27-2.76,13.85-.35,2.31-.68,4.6-1,6.86l-.4,3.36c-.12,1.12-.2,2.28-.29,3.41,1.44-1.17,3-2.19,4.51-3.25l2.27-1.59c.76-.52,1.51-1.07,2.31-1.54,0-.05,0-.07,0-.11.8-5.18,2.17-10.81,3.09-15.8l1.57,2.67c-.3,1.89-.76,3.83-1.2,5.81s-.83,4-1.15,6l2.41-1.52c1.45-1,3.12-1.84,4.44-2.65l1.16,2-2,1.14-1,.58-1,.64-4.11,2.58-1.52.95c-.5.33-1,.68-1.47,1l-2.92,2c-1,.69-2,1.32-2.91,2.06l-2.83,2.18-.06.05a165.62,165.62,0,0,0-19.78,17.93c.57,4.45,1.35,8.85,2.2,13.06s2,8.45,3.26,12.52A148.85,148.85,0,0,1,517.39,482c2.81-1.71,5.38-3.5,8.34-5.06l1.35,2.3a148.68,148.68,0,0,0-14.38,9.29l-3.58,2.78c-.6.47-1.22.91-1.81,1.4l-1.76,1.51c-1.16,1-2.38,2-3.55,3l-3.45,3.24c-1.19,1.05-2.27,2.23-3.39,3.38l-1.68,1.73c-.57.56-1.13,1.14-1.65,1.76l-3.21,3.65c-.56.59-1.05,1.24-1.56,1.88l-1.52,1.91-1.54,1.9c-.51.64-1,1.32-1.44,2l-2.88,4c-1.74,2.77-3.66,5.42-5.22,8.28a139.63,139.63,0,0,0-14.81,35.64,144.84,144.84,0,0,0-4.42,34.84h-2.7l.13-4.9.06-2.45.19-2.43.24-3.09c.07-1,.13-2.06.3-3.08l.79-6.14,1.11-6.08c.15-1,.45-2,.67-3l.71-3a143.42,143.42,0,0,1,8-23.35c-1.06.24-2.14.48-3.2.74l-3.12.84c-2.09.58-4.21,1.2-6.34,1.86s-4.19,1.41-6.3,2.17-4.21,1.59-6.34,2.45a170.93,170.93,0,0,0-5.92,25.75.25.25,0,0,1,0,.08l-.89,7-.53,7.07c-.08.79-.1,1.59-.11,2.39l-.05,2.39-.12,4.77h-2.32c.08-1.73.15-3.46.19-5.18l.06-2.79q-4.59,3.78-9.23,8h-3.14c2.07-1.89,4.13-3.73,6.18-5.5s4.07-3.49,6.26-5.13l.11-.07.41-5.49c.15-1.82.45-3.63.66-5.45-1.89,1.27-3.78,2.6-5.68,4s-3.64,2.8-5.47,4.26-3.7,3-5.49,4.52-3.54,3.14-5.32,4.76a1.12,1.12,0,0,1-.3.2l-.1,3.93H406.4a189.54,189.54,0,0,1,3.31-35.16,185.84,185.84,0,0,1-15.2-25.57l-2.13,7.42c-.68,2.48-1.2,5-1.8,7.5l-.86,3.76-.69,3.79-.68,3.79c-.22,1.27-.48,2.53-.62,3.81l-1,7.64c-.18,1.27-.28,2.55-.37,3.83l-.3,3.83-.28,3.84c-.11,1.28-.09,2.56-.14,3.84l-.18,7.68h-2.25c.1-4,.13-8,.34-11.94,0,0-.07-.06-.1-.1-1.58-2-3.16-3.95-4.73-6s-3.19-4.13-4.62-6.25-2.93-4.28-4.38-6.49-2.92-4.47-4.23-6.75c-.51,2.59-.76,5.19-1.12,7.74-.16,1.28-.32,2.55-.49,3.82s-.32,2.52-.4,3.78c2.83,4,5.64,7.83,8.58,11.52s6.08,7.26,9.14,10.66H378A215.11,215.11,0,0,1,363.2,583c-.18,2.65-.46,5.26-.53,7.83s-.14,5.1-.2,7.58l2.49,3H359.7c.06-2.65.13-5.3.19-8l.11-4,.29-4A229.95,229.95,0,0,1,391.77,484a238,238,0,0,1,73.86-77.63c4.55-2.85,8.8-5.68,13.61-8.3l2.64,4.48C480.52,402.32,479.43,402,478.1,401.76ZM394.29,485.4h0ZM385.23,572,383,568.8,381,565.6q-2-3.24-4.05-6.61c-1.38-2.25-2.6-4.52-3.83-6.84s-2.44-4.67-3.64-7.08l-1.79,7.6-.44,1.89-.35,1.89c-.23,1.26-.47,2.52-.69,3.77,1.34,2.32,2.68,4.6,4.05,6.83s2.91,4.45,4.38,6.61,2.92,4.27,4.47,6.34,3.15,4.11,4.73,6.09c.2-2.34.33-4.7.58-7l.9-7Zm3.12-17.42c-1.25-2.18-2.48-4.41-3.71-6.67s-2.28-4.53-3.4-6.87-2.21-4.7-3.28-7.11-2-4.81-2.94-7.28l-1.27,3.69c-.42,1.23-.84,2.46-1.18,3.7l-2.15,7.42c1.07,2.41,2.32,4.81,3.54,7.16s2.46,4.65,3.71,6.92c.61,1.12,1.27,2.25,1.95,3.37l2,3.32q2,3.28,4.11,6.44l1.26-7c.22-1.16.39-2.33.66-3.48l.8-3.45C388.44,554.66,388.39,554.61,388.35,554.54Zm4.72-16.8c-1.05-2.28-2.07-4.6-3.08-7s-2.05-4.79-2.9-7.19-1.77-4.87-2.62-7.37l-1.25-3.78c-.41-1.27-.76-2.52-1.13-3.79-1.13,2.34-2,4.77-3,7.16-.48,1.2-1,2.41-1.44,3.6s-1,2.4-1.37,3.62c.95,2.51,1.92,5,2.91,7.42s2,4.81,3.13,7.19,2.23,4.7,3.37,7c.57,1.14,1.13,2.27,1.72,3.39l1.87,3.37c.28-1.15.51-2.31.84-3.44l1-3.41C391.74,542.28,392.34,540,393.07,537.74Zm40.16,29c-2,1-3.74,2-5.64,3.08l-5.7,3.2c-2,1.08-3.83,2.19-5.74,3.3l-5.81,3.36a1.42,1.42,0,0,1-.41.14c-.37,2.45-.5,4.91-.69,7.37s-.42,4.92-.42,7.39l2.7-2.42c.92-.79,1.87-1.57,2.8-2.35,1.87-1.55,3.73-3,5.58-4.52s3.77-2.87,5.7-4.23,3.84-2.69,5.75-3.95c.09-.88.26-1.74.42-2.61l.47-2.59.46-2.59.23-1.3Zm3.52-13.58A172.57,172.57,0,0,0,412,566.49l-1,5.34c-.17.88-.29,1.78-.4,2.68l-.34,2.69,5.88-3.41,5.93-3.31,5.78-3.24c1.94-1,3.92-2.07,5.84-3.07l.15-.06.64-2.76.32-1.39.39-1.37Zm34.43-21.88-3.48.46-3.41.58c-2.28.41-4.6.86-6.94,1.36s-4.58,1.09-6.91,1.7-4.68,1.29-7,2-4.59,1.54-6.92,2.38-4.7,1.72-6.95,2.7c-4.53,1.94-9.3,4-13.75,6.43a1.17,1.17,0,0,1-1.53-.44c-2.63-4.44-4.83-9-7.1-13.74-1.16-2.39-2.14-4.77-3.14-7.22s-2-4.93-2.93-7.46-1.74-5.06-2.58-7.66-1.66-5.25-2.36-7.89-1.36-5.33-2-8.06l-.94-4.13c-.28-1.38-.53-2.75-.78-4.14-1.66,2.74-3.07,5.61-4.57,8.44l-2.21,4.27-2,4.35c.77,2.78,1.56,5.51,2.4,8.21s1.84,5.39,2.79,8c1.84,5.23,4.11,10.39,6.35,15.31a1,1,0,0,1,.25.56c1.08,2.41,2.35,4.82,3.57,7.17s2.49,4.65,3.76,6.9,2.7,4.5,4.08,6.67,2.72,4.29,4.21,6.38a165.19,165.19,0,0,1,54.66-22.63l1.23-2.7,1.38-2.62C469.28,534.72,470.12,532.93,471.18,531.25Zm.53-1.87a152.92,152.92,0,0,1-8.79-26.82c-.56-2.37-1-4.71-1.43-7.13s-.89-4.9-1.19-7.33-.58-4.93-.82-7.45l-.34-3.81-.19-3.78-3.94.09-3.91.24c-2.62.17-5.28.39-8,.65s-5.3.64-8,1-5.42.81-8.11,1.33a211.45,211.45,0,0,0-32.69,9,192.58,192.58,0,0,0,21.33,61.14A165.89,165.89,0,0,1,471.71,529.38Zm13.77-77.52c0,4.48,0,8.9-.07,13.17s.07,8.66.14,12.81c2.73-2.27,5.36-4.67,8.23-6.77q.23-3.42.55-6.93t.92-6.91l.54-3.53c.19-1.18.39-2.36.62-3.51.46-2.32.95-4.68,1.46-7.05l-3.17,2c-1.06.67-2.14,1.3-3.15,2l-6.15,4.28A1.16,1.16,0,0,1,485.48,451.86Zm-10.75,8q-.21,3.57-.32,7.05t0,7.05c.07,2.33.1,4.56.28,6.88s.37,4.58.61,6.81c1.34-1.36,2.65-2.75,4-4.1l4.2-3.91a.77.77,0,0,1,0-.15c-.05-1.08-.1-2.18-.13-3.25l-.05-3.22-.08-6.58c0-2.24,0-4.43,0-6.65s0-4.5,0-6.76L479,456.38l-1.09.84-1,.88Zm-34,.52a1.11,1.11,0,0,1-.62.06,193.64,193.64,0,0,0-33.53,5.88c-3.83,5.14-7.31,10.53-10.69,16,1.31-.5,2.67-1,4-1.39l4.07-1.29c2.71-.82,5.37-1.62,8.06-2.33s5.46-1.33,8.15-1.92,5.33-1.16,8.07-1.59c5.44-.89,10.66-1.69,16-2.11q4-.35,7.86-.58c2.62-.13,5.25-.17,7.82-.21a1.15,1.15,0,0,1,1.15,1.08c.1,2.54.22,5,.42,7.51s.51,5,.82,7.46c.55,4.84,1.53,9.76,2.5,14.4.46,2.31,1.1,4.68,1.71,7s1.25,4.53,1.91,6.73,1.48,4.43,2.24,6.58,1.5,4.2,2.4,6.31c.47-.87,1-1.69,1.58-2.51l1.63-2.49c1-1.7,2.25-3.27,3.4-4.88a145.41,145.41,0,0,1-6.29-27.87c-.3-2.42-.5-4.82-.71-7.29l-.26-3.72-.12-1.89-.05-1.85q-.09-3.72-.08-7.56c0-1.27,0-2.58.06-3.85l.19-3.83-3.89-.27c-1.31-.09-2.57-.11-3.87-.16-2.6-.07-5.23-.1-7.89-.11s-5.29.12-8,.24S443.47,460.18,440.73,460.39Zm9.34-12.28c-2.57.07-5.17.15-7.75.32s-5.14.43-7.75.69c-5.29.48-10.49,1.26-16,2.06-.85,1-1.72,1.93-2.54,2.93l-2.44,3c-1.6,2-3.27,4-4.82,6.12,5.39-1.16,10.66-2.18,15.75-3.1,5.24-.81,10.28-1.56,15.39-2C443.27,454.75,446.53,451.29,450.07,448.11Zm13.44-11.57c-1.29-.08-2.6-.18-3.88-.21l-3.85-.07c-2.58,0-5.19,0-7.83,0-1.34,0-2.65.05-4,.11l-4,.19-8.17.45c-1.81,1.83-3.6,3.69-5.41,5.55l-2.71,2.82c-.87,1-1.73,2-2.6,2.93a257.88,257.88,0,0,1,31.24-2.59l.22,0,1.32-1.21,1.36-1.16,2.72-2.32C459.81,439.54,461.59,438,463.51,436.54Zm-17.24-12.48-5.9,5c-1.94,1.73-3.83,3.54-5.76,5.34q4-.29,8-.47c2.65-.12,5.35-.11,8-.13s5.23,0,7.81.11,5.2.28,7.76.46l.1,0c3.72-3,7.71-5.6,11.61-8.34-2.52-.33-5.09-.63-7.69-.9s-5.27-.56-7.86-.68-5.28-.27-8-.36l-4.06-.1C449,424,447.62,424.05,446.27,424.06Z"/><path class="cls-1" d="M522.92,422.92a6.14,6.14,0,0,1-7.91-3,5.91,5.91,0,0,1,3.44-7.84,6.09,6.09,0,0,1,8,3.28A6,6,0,0,1,522.92,422.92Zm-.87-2a3.66,3.66,0,1,0-2.74-6.79,3.48,3.48,0,0,0-2.1,4.78A3.66,3.66,0,0,0,522.05,420.88Z"/><path class="cls-1" d="M503,425.84a6,6,0,0,0-8.33-2.19l-.24.14,1.14,1.93c.08-.05.14-.11.22-.15,4.5-2.45,7.79,4,3.6,6.39l-.12.05,1.13,1.92.12-.05A6.06,6.06,0,0,0,503,425.84Z"/><path class="cls-1" d="M559.18,458.63c-2.44.57-5.15-1.31-6.11-4.47s.42-6.18,3.09-6.88a4.11,4.11,0,0,1,2,0,5,5,0,0,1,1.83.89,6.87,6.87,0,0,1,1.95,8.06,5,5,0,0,1-1.12,1.52A4,4,0,0,1,559.18,458.63Zm-.59-2.14a2.64,2.64,0,0,0,1.76-1.68,4.7,4.7,0,0,0-1.18-4.85,2.57,2.57,0,0,0-2.42-.55C552.88,450.41,555,457.34,558.59,456.49Z"/><path class="cls-1" d="M540.91,464.75c-2.36.85-5.25-.57-6.62-3.6a6.38,6.38,0,0,1-.4-4.36,4.77,4.77,0,0,1,.93-1.77,3.6,3.6,0,0,1,1.6-1.14c2.58-.94,5.57.73,6.7,3.79S543.26,463.84,540.91,464.75Zm-.86-2c3.44-1.35,1-8.14-2.76-6.78a2.43,2.43,0,0,0-1.62,1.86,4.31,4.31,0,0,0,.31,2.58C536.72,462.06,538.28,463.31,540.05,462.71Z"/><path class="cls-1" d="M524.85,465.84c-1.54-2.92-4.71-4.17-7.12-2.85l-.18.11,1.14,1.93c.06,0,.1-.09.17-.13,3.5-1.89,6.83,4.54,3.62,6.38l-.09,0,1.13,1.92.09,0C525.79,471.94,526.36,468.73,524.85,465.84Z"/><path class="cls-1" d="M626.32,416.1q-3.83,2.94-7.4,5.91c-1.2,1-2.38,2-3.54,3.08s-2.3,2.1-3.42,3.15a172,172,0,0,0-12.51,13.06,1,1,0,0,1-.55.38l.07,0s-.07.09-.05.09,0,.15,0,.15,0,.14,0,.14h0v-.41a1.27,1.27,0,0,1-.49-.37,168.29,168.29,0,0,0-12.51-13.07q-1.68-1.58-3.42-3.15c-1.16-1.05-2.34-2.12-3.53-3.08q-3.58-3-7.4-5.92a1.14,1.14,0,0,1-.26-1.55q2.87-3.78,6-7.58c1-1.3,2.09-2.49,3.17-3.71s2.17-2.43,3.29-3.65a201.2,201.2,0,0,1,14.41-14.16,2,2,0,0,1,.77-.33,2.25,2.25,0,0,1,.86.33c5.13,4.67,9.95,9.2,14.43,14.17,1.12,1.22,2.22,2.43,3.3,3.65s2.14,2.42,3.17,3.71q3.1,3.81,6,7.59A1.14,1.14,0,0,1,626.32,416.1Zm-4-1.29c-3.4-4.49-7.07-8.63-11-12.9-2-2.16-4-4.13-6.05-6.17s-4.22-4.06-6.43-6.08q-3.3,3-6.41,6.07c-2.07,2-4.09,4-6,6.18-3.89,4.27-7.55,8.39-10.95,12.88,4.37,3.35,8.51,7.12,12.4,10.75,2,1.79,3.84,3.79,5.67,5.7s3.61,3.85,5.32,5.78q2.58-2.88,5.33-5.78c1.84-1.92,3.74-3.9,5.69-5.69C613.78,421.91,617.94,418.15,622.31,414.81Z"/><path class="cls-1" d="M679.38,412.11a5.92,5.92,0,0,1,3.43,7.84,6.12,6.12,0,0,1-7.91,3,6,6,0,0,1-3.53-7.6A6.09,6.09,0,0,1,679.38,412.11Zm-.87,2a3.66,3.66,0,1,0,2.09,4.8A3.49,3.49,0,0,0,678.51,414.15Z"/><path class="cls-1" d="M694.85,425.92a6,6,0,0,0,2.39,8h0l1.13-1.92-.08,0a3.67,3.67,0,1,1,3.64-6.37l.15.11,1.13-1.93-.15-.09A5.91,5.91,0,0,0,694.85,425.92Z"/><path class="cls-1" d="M641.63,447.31c2.67.71,4,3.78,3.09,6.89s-3.68,5-6.12,4.46c-2.4-.76-3.84-3.53-3.11-6.76a6.53,6.53,0,0,1,2.35-3.75A4.28,4.28,0,0,1,641.63,447.31Zm-.59,2.14a2.57,2.57,0,0,0-2.41.54,4.32,4.32,0,0,0-1.3,2.27,4.42,4.42,0,0,0,.11,2.58,2.6,2.6,0,0,0,1.75,1.69C642.8,457.37,644.91,450.45,641,449.45Z"/><path class="cls-1" d="M661.36,453.94c2.57,1,3.47,4.33,2.13,7.27s-4.27,4.45-6.63,3.59-3.34-4-2.2-7.08S658.78,453,661.36,453.94Zm-.86,2c-3.75-1.36-6.21,5.43-2.77,6.78,1.76.62,3.33-.65,4.07-2.33S662.35,456.67,660.5,456Z"/><path class="cls-1" d="M672.93,465.91c-1.52,2.88-1,6.07,1.17,7.32h0l1.13-1.92-.06,0c-3.2-1.85.15-8.25,3.66-6.36a.4.4,0,0,1,.11.09l1.13-1.93L680,463C677.57,461.71,674.47,463,672.93,465.91Z"/><path class="cls-1" d="M598.83,402.8a2,2,0,0,1,.79.34c3.28,3.23,6.4,6.44,9.37,9.69a1.12,1.12,0,0,1-.09,1.56c-3.28,3-6.41,6.14-9.38,9.2a1.18,1.18,0,0,1-.62.39H599s-.08.09-.06.09,0,.15,0,.15-.06.15-.06.15h0V424a1.34,1.34,0,0,1-.55-.37c-3-3.07-6.1-6.15-9.38-9.21a1.13,1.13,0,0,1-.11-1.56c3-3.23,6.05-6.45,9.33-9.68A1.86,1.86,0,0,1,598.83,402.8Zm0,2.72c-2.7,2.67-5.21,5.35-7.7,8,2.7,2.54,5.23,5.08,7.71,7.62,2.48-2.54,5-5.08,7.75-7.62C604.13,410.87,601.56,408.19,598.86,405.52Z"/><path class="cls-1" d="M714.56,398.93c-1.1-.61-2.2-1.25-3.34-1.85l-3.48-1.76c-2.34-1.17-4.7-2.4-7.14-3.54,3.37,7.36,6,14.36,8.63,21.85l-1.59,2.71q-1.1-3.29-2.26-6.6c-.78-2.19-1.64-4.31-2.51-6.49s-1.77-4.35-2.72-6.55-2-4.3-3-6.49c-2.34-1-4.69-2.12-7.12-3.1l-7.41-2.88q2,3.5,3.84,6.95c.61,1.16,1.23,2.29,1.81,3.46l1.7,3.54c2.22,4.71,4.3,9.3,6.09,14.08,0,.05,0,.07,0,.12l5.41,2.74,5.21,2.93L705.5,420l-3.35-1.9-1.68-.94-1.72-.88-6.93-3.5c-2.35-1.1-4.74-2.13-7.12-3.2-1.2-.52-2.37-1.09-3.59-1.56l-3.65-1.42c-4.85-2-9.85-3.58-14.82-5.24-2.51-.74-5-1.43-7.56-2.14-1.27-.34-2.52-.74-3.8-1l-3.82-.87c1.45,2.1,2.88,4.13,4.23,6.28s2.64,4.3,3.9,6.44c2.53,4.2,4.79,8.66,6.88,13A194.16,194.16,0,0,1,695,437.76l-1.13,1.91-3.4-1.93c-.1.07-.13.16-.26.2-4.64,1.39-9.21,3-13.58,4.52-4.45,1.74-8.7,3.44-12.84,5.39,1.73.67,3.39,1.5,5.09,2.23s3.41,1.47,5,2.35c0,0,0-.06.09-.07,2.49-1,5.14-1.85,7.79-2.73s5.23-1.62,7.69-2.53L688,449.77c-1.82.68-3.77,1.29-5.72,1.88s-4,1.3-5.87,2l2.55,1.28c1.55.81,3.17,1.76,4.54,2.48l-1.16,2c-1.33-.75-2.7-1.55-4.12-2.33l-4.34-2.19c-1.07-.53-2.11-1.11-3.2-1.59l-3.26-1.45-3.25-1.46c-1.1-.46-2.23-.87-3.34-1.31l-.07,0c-4.14-1.71-8.41-3.06-12.65-4.46l-6.47-1.81c-1.07-.34-2.17-.54-3.26-.8l-3.28-.75a156.14,156.14,0,0,0-19.76,17.46,141.48,141.48,0,0,1,24.62,4.85,150,150,0,0,1,23.4,8.92c1.46.73,2.9,1.45,4.33,2.18.73.34,1.43.74,2.14,1.15l2.15,1.22-1.36,2.3c-1.18-.66-2.36-1.36-3.59-2l-3.78-1.89-1.93-1c-.65-.32-1.33-.59-2-.89l-4.06-1.81a146.1,146.1,0,0,0-17.53-6,145.9,145.9,0,0,0-77.79,0,144.49,144.49,0,0,0-17.54,6.05l-4.05,1.8c-.66.3-1.34.57-2,.89l-1.92,1-3.77,1.89c-1.21.66-2.39,1.36-3.56,2l-1.35-2.3,2.15-1.22c.71-.41,1.43-.83,2.17-1.17l4.41-2.22a150.22,150.22,0,0,1,23.4-8.89,141.75,141.75,0,0,1,24.63-4.84,157,157,0,0,0-19.75-17.47c-2.17.53-4.38.95-6.54,1.54l-6.46,1.82c-4.25,1.38-8.52,2.73-12.65,4.44l-.08,0-3.35,1.31-3.27,1.47-3.29,1.46c-1.1.47-2.14,1.06-3.21,1.59L519.57,457c-1.42.76-2.8,1.58-4.21,2.37l-1.16-2c1.55-.82,3.06-1.71,4.61-2.51l2.52-1.27c-1.89-.7-3.83-1.42-5.76-2.06s-3.88-1.21-5.87-1.8l-1.57-2.67c2.69.79,5.28,1.53,7.89,2.43s5.17,1.83,7.66,2.79l.12.06c1.64-.88,3.36-1.58,5.05-2.35l2.55-1.14c.84-.38,1.69-.77,2.56-1.09l-1.57-.74-1.56-.69L527.66,445q-3.21-1.33-6.54-2.63c-4.36-1.57-8.92-3.13-13.57-4.54a1.35,1.35,0,0,1-.32-.15l-3.47,2-1.13-1.91A193.75,193.75,0,0,1,535.26,423c2.1-4.3,4.35-8.75,6.87-12.95,1.25-2.13,2.55-4.28,3.89-6.43s2.77-4.18,4.22-6.28c-2.55.58-5.1,1.13-7.61,1.88s-5,1.4-7.53,2.14c-5,1.66-9.94,3.22-14.77,5.21-2.43.94-4.87,1.86-7.23,3s-4.77,2.1-7.13,3.2l-7,3.52-1.74.88-1.7,1-3.4,1.92L491,418.05c1.77-1,3.52-2,5.29-3l5.42-2.75a.65.65,0,0,1,0-.13c1.79-4.79,3.89-9.37,6.12-14.09l1.72-3.54c.59-1.16,1.2-2.3,1.82-3.46q1.86-3.45,3.85-6.95L507.87,387c-2.44,1-4.78,2.08-7.13,3.1-1.06,2.18-2.12,4.29-3.09,6.49s-1.9,4.41-2.8,6.59-1.77,4.33-2.57,6.53-1.54,4.42-2.26,6.6l-1.6-2.71a206.8,206.8,0,0,1,8.82-21.94c-2.45,1.13-4.8,2.37-7.14,3.53L486.62,397c-1.14.59-2.24,1.24-3.35,1.85l-1.39,3.69L479.24,398l3.52-2c1.18-.67,2.35-1.33,3.57-1.92l7.22-3.63a243.1,243.1,0,0,1,210.75.09l7.1,3.58c1.18.58,2.33,1.22,3.49,1.88l3.52,2-2.63,4.48C715.27,401.27,715,400.17,714.56,398.93ZM598.83,369.38h0ZM518,405q1.68-3.39,3.49-6.81l.91-1.72.95-1.66,2-3.34q2-3.35,4.1-6.72c1.43-2.23,2.92-4.37,4.45-6.57-5.15,1.34-10.12,3.08-15,4.71-.7,1.12-1.37,2.28-2,3.46l-1.94,3.49q-1.92,3.48-3.69,6.93c-2.31,4.72-4.45,9.4-6.38,14,2.16-1,4.36-2,6.54-2.95l3.28-1.46c1.11-.46,2.23-.88,3.35-1.32ZM535,398.86c2.62-4.22,5.4-8.57,8.39-12.8q2.26-3.12,4.66-6.25c1.6-2.07,3.23-4.24,4.94-6.21-1.31.21-2.6.49-3.88.79l-3.85.86c-2.56.61-5.13,1.11-7.62,1.85a203.3,203.3,0,0,0-16.34,26.68l3.35-1.3,3.42-1.15,6.83-2.27A1.86,1.86,0,0,1,535,398.86Zm17.19-4.28a206.38,206.38,0,0,1,20.16-23.91l-7.83,1c-1.3.15-2.59.37-3.88.6l-3.87.68c-1.74,2-3.45,4-5.09,6.11s-3.23,4.2-4.78,6.3l-2.29,3.14c-.75,1-1.48,2.08-2.2,3.18q-2.14,3.24-4.16,6.45l6.92-1.92Zm-5.52,48.62-5.53-3.28-2.84-1.66-2.83-1.59-11.65-6.54a1.23,1.23,0,0,1-.33-.26l-6.86,3.06-6.7,3.37c4.73,1.54,9.24,3,13.73,4.81,2.23.89,4.42,1.78,6.57,2.7s4.3,2,6.37,3l2.49-1c.83-.32,1.66-.66,2.51-.93Zm13.74-3.76c-1.85-1.32-3.76-2.68-5.7-3.95s-3.9-2.46-5.91-3.67c-4.06-2.5-8.21-4.68-12.55-6.84l-2.61.87c-.86.31-1.71.66-2.57,1l-5.13,2,11.82,6.69c3.9,2.3,7.68,4.48,11.36,6.75l.13.09C552.92,441.36,556.59,440.21,560.37,439.44Zm36.55,18.34a165.27,165.27,0,0,0-43.26-38.32,1.13,1.13,0,0,1-.37-1.52,198.86,198.86,0,0,1,42.21-48.68c-3.22.09-6.46.12-9.69.29l-9.69.72c-1,1-2,2-3,3.09l-3,3.14q-2.93,3.13-5.69,6.28c-1.83,2.17-3.61,4.35-5.33,6.52s-3.41,4.27-5,6.56a1,1,0,0,1-.36.51c-1.57,2.2-3.08,4.41-4.55,6.6-.73,1.1-1.46,2.16-2.15,3.3l-2,3.39q-2,3.38-3.87,6.72c-1.24,2.23-2.39,4.59-3.5,6.85,2.34,1.19,4.61,2.32,6.88,3.62s4.47,2.59,6.63,3.91l3.2,2c1.06.69,2.11,1.42,3.15,2.13,2.07,1.43,4.1,2.86,6.06,4.31l1.47,1.09,1.46,1.15,2.86,2.32c1.87,1.55,3.7,3.11,5.47,4.67s3.51,3.3,5.19,4.95l2.48,2.48,1.2,1.24,1.2,1.31,6-.45C592.89,457.86,594.91,457.85,596.92,457.78Zm1.93-.54a165.83,165.83,0,0,1,43.23-39,198.67,198.67,0,0,0-43.2-48.81,198.72,198.72,0,0,0-43.19,48.78A165.76,165.76,0,0,1,598.85,457.24Zm75.17-27c-7.88,4.45-15.56,8.62-22.86,13.05l5.08,1.69c1.69.57,3.32,1.28,5,1.91,2.08-1,4.24-2.08,6.38-3s4.33-1.81,6.57-2.69l3.38-1.31c1.13-.43,2.25-.8,3.39-1.19,2.28-.78,4.61-1.55,7-2.3L681.21,433l-6.86-3.06A1,1,0,0,1,674,430.2ZM661.6,425c-4.35,2.17-8.49,4.33-12.55,6.83q-3,1.81-5.92,3.68c-1.93,1.24-3.85,2.62-5.7,3.94,3.78.76,7.45,1.93,11.16,2.93l.13-.09c3.68-2.26,7.46-4.44,11.36-6.74l11.83-6.68-5.13-2-2.57-1Zm-17.49-28.62a1,1,0,0,1-.36-.51c-1.59-2.29-3.27-4.4-5-6.6s-3.49-4.39-5.31-6.59-3.74-4.21-5.69-6.3-4-4.19-6-6.12l-9.69-.72c-3.23-.19-6.46-.21-9.69-.31A193,193,0,0,1,644.53,418a1.13,1.13,0,0,1-.37,1.52,171,171,0,0,0-43.3,38.29c2,.07,4,.07,6,.17l6,.45c.79-.91,1.59-1.75,2.4-2.58l2.49-2.52c1.68-1.66,3.41-3.34,5.2-5s3.6-3.12,5.48-4.67,3.83-3.13,5.79-4.53,4-2.87,6.06-4.29c1-.7,2.09-1.43,3.15-2.1l3.2-2q3.22-2,6.63-3.89c2.26-1.28,4.53-2.41,6.88-3.6-1.12-2.26-2.26-4.61-3.5-6.85s-2.52-4.47-3.86-6.72C650.19,405.12,647.23,400.85,644.11,396.41Zm15.52,1.75c-1.34-2.14-2.73-4.27-4.17-6.41l-1.09-1.6-1.12-1.55L651,385.49c-1.54-2.08-3.14-4.17-4.77-6.29s-3.33-4.12-5.06-6.24l-3.87-.67c-1.29-.22-2.58-.46-3.88-.61l-7.83-1a240.33,240.33,0,0,1,20.14,23.92l7,1.61Zm16.94,5.69c-2.27-4.61-4.85-8.91-7.56-13.38l-2.07-3.35-2.17-3.28c-1.49-2.21-3-4.44-4.51-6.69-2.5-.73-5.06-1.25-7.62-1.85l-3.85-.87c-1.29-.29-2.57-.59-3.88-.8l1.26,1.57,1.23,1.61,2.41,3.19c1.59,2.1,3.14,4.17,4.65,6.23,3,4.2,5.8,8.46,8.42,12.68a.88.88,0,0,1,.09.2l6.84,2.28c1.14.38,2.28.75,3.41,1.16Zm2.4-20.94c-4.9-1.63-9.86-3.38-15-4.73,1.52,2.21,3,4.34,4.43,6.58s2.78,4.49,4.11,6.72c2.67,4.4,5,9,7.29,13.54a.32.32,0,0,1,0,.09c1.12.44,2.24.86,3.34,1.33l3.29,1.46c2.18,1,4.38,1.92,6.54,3-1.93-4.67-4.07-9.33-6.37-14.07C684.25,392.22,681.73,387.51,679,382.91Z"/><path class="cls-1" d="M718.22,447.65a7.09,7.09,0,0,1-1.53-1.81,5.75,5.75,0,0,1-.78-2.1,5.65,5.65,0,0,1,1.06-4.36,5.9,5.9,0,0,1,4-2.28,6.68,6.68,0,0,1,2.39.16,6.44,6.44,0,0,1,2.23,1.16,5.82,5.82,0,0,1,1.12,8.41A6.21,6.21,0,0,1,718.22,447.65Zm1.37-1.76c3.83,2.92,8.62-2.54,4.63-5.72a3.68,3.68,0,1,0-4.63,5.72Z"/><path class="cls-1" d="M705.7,432.12a5.56,5.56,0,0,0,.73-4.49,6.23,6.23,0,0,0-2.94-3.71l-.24-.13-1.13,1.93.24.12c4.42,2.58.37,8.6-3.85,6.24l-.1-.07-1.13,1.92.1.07a6.44,6.44,0,0,0,4.58.66A5.84,5.84,0,0,0,705.7,432.12Z"/><path class="cls-1" d="M704.92,496.34c-1.76-1.77-1.48-5,.83-7.41s5.68-2.74,7.66-.84,1.44,5.36-1,7.55S706.72,498.09,704.92,496.34Zm1.58-1.57c1.35,1.28,3.3.75,4.66-.5s2-3.21.66-4.61C709,486.89,703.91,492.14,706.5,494.77Z"/><path class="cls-1" d="M690.3,483.85a4.14,4.14,0,0,1-1.09-1.5,4.65,4.65,0,0,1-.43-1.84,7,7,0,0,1,5.05-6.64,5.23,5.23,0,0,1,2-.11,4.23,4.23,0,0,1,1.78.84c2.13,1.71,2.17,5.08,0,7.57S692.3,485.37,690.3,483.85Zm1.37-1.76c2.94,2.24,7.7-3.24,4.61-5.73-1.52-1.27-3.45-.38-4.56,1.07S690.27,480.86,691.67,482.09Z"/><path class="cls-1" d="M681.31,470.69a6.46,6.46,0,0,0,1.07-4.28,4.29,4.29,0,0,0-2.09-3.21l-.19-.1L679,465a1.54,1.54,0,0,1,.19.08c3.43,2-.58,8.05-3.82,6.27,0,0-.05-.05-.08-.06l-1.13,1.92.08.05a4.39,4.39,0,0,0,3.71.16A6.72,6.72,0,0,0,681.31,470.69Z"/><path class="cls-1" d="M776,532.17c-1.48-.61-3-1.19-4.42-1.76s-3-1.08-4.5-1.59c-3-1-5.95-2-8.89-2.84a170.31,170.31,0,0,0-17.84-4,1.09,1.09,0,0,1-.63-.28.64.64,0,0,0,0,.07s-.11,0-.1,0l0,0,0,0h0l.08,0h0a1.26,1.26,0,0,1,.09-.61c.52-1.39,1-2.79,1.53-4.21s.91-2.81,1.34-4.24c.86-2.85,1.73-5.8,2.46-8.76s1.35-5.94,2-9l.44-2.32.37-2.29c.23-1.53.46-3.08.67-4.65a1.17,1.17,0,0,1,1.24-1c1.6.17,3.21.36,4.84.56l2.44.31,2.4.39q4.81.78,9.76,1.77c3.27.68,6.48,1.49,9.78,2.34,1.65.43,3.31.87,5,1.34s3.25,1,4.89,1.53a2,2,0,0,1,.66.5,2.16,2.16,0,0,1,.15.9,197.56,197.56,0,0,1-5.17,19.33c-1.06,3.14-2.18,6.22-3.32,9.22-.59,1.51-1.13,3-1.78,4.47s-1.29,2.95-1.94,4.4A1.18,1.18,0,0,1,776,532.17Zm-.8-4.1q1.56-3.78,3.05-7.74l1.47-4c.47-1.34.88-2.67,1.31-4q1.28-4.05,2.46-8.27c.77-2.8,1.4-5.59,2-8.47-5.61-1.82-11.4-3.23-17-4.48-2.76-.65-5.67-1.12-8.46-1.61s-5.55-.92-8.35-1.25c-.4,2.71-1,5.45-1.48,8.09s-1.07,5.23-1.8,7.86c-1.38,5.21-2.82,10.18-4.66,15.11,2.58.48,5.25,1,7.84,1.58s5.18,1.29,7.81,2c1.31.37,2.66.73,4,1.13l3.89,1.27Q771.19,526.6,775.18,528.07Z"/><path class="cls-1" d="M806,575.34a6.18,6.18,0,0,1-1.13,4.57,5.74,5.74,0,0,1-4,2.25,6,6,0,0,1-4.38-1.28,6.26,6.26,0,0,1-2.32-3.93,6.12,6.12,0,0,1,5-6.8,5.73,5.73,0,0,1,4.47,1.08A6.33,6.33,0,0,1,806,575.34Zm-2.24.28c-.73-5-7.94-3.68-7.36,1C797.12,581.38,804.43,580.62,803.71,575.62Z"/><path class="cls-1" d="M801.49,595.38a5.91,5.91,0,0,0-5.75,6v0H798a.28.28,0,0,1,0-.08c-.1-4.76,7.22-5.14,7.43-.09a.79.79,0,0,1,0,.17h2.26a1.54,1.54,0,0,0,0-.17A6,6,0,0,0,801.49,595.38Z"/><path class="cls-1" d="M756.12,560.76c.75,2.62-1.4,5.34-4.59,6.08s-6.2-.64-6.93-3,1.2-5,4.39-6S755.32,558.18,756.12,560.76Zm-2.17.56c-1.18-3.75-8.17-1.55-7.17,2,.56,1.75,2.54,2.21,4.35,1.76S754.51,563.2,754,561.32Z"/><path class="cls-1" d="M760.07,580.89c.39,2.68-2,5.1-5.28,5.44s-6.12-1.41-6.55-3.85a4.23,4.23,0,0,1,1.28-3.43,7,7,0,0,1,3.92-2,6.63,6.63,0,0,1,4.42.69A4.4,4.4,0,0,1,760.07,580.89Zm-2.24.28c-.57-3.89-7.79-2.6-7.36,1C751.11,585.8,758.42,585.06,757.83,581.17Z"/><path class="cls-1" d="M755.29,596.74c-3.34.16-5.83,2.19-5.77,4.69,0,0,0,0,0,0h2.26a.09.09,0,0,1,0-.06c-.08-3.66,7.24-4,7.43-.07a.32.32,0,0,1,0,.13h2.26a.94.94,0,0,0,0-.14C761.33,598.6,758.6,596.59,755.29,596.74Z"/><path class="cls-1" d="M773.92,502.14a2,2,0,0,1,.12.83c-.58,2.19-1.15,4.33-1.78,6.47s-1.37,4.27-2.09,6.36a1.16,1.16,0,0,1-1.42.7q-3.21-1-6.36-1.84c-2.14-.55-4.3-1-6.43-1.53a1.18,1.18,0,0,1-.65-.33s0,.06,0,.08-.11,0-.11,0l0,0,0-.05h0l.08,0,0,0a1.42,1.42,0,0,1,.07-.66l1-3.1c.32-1.05.61-2.09.87-3.13.55-2.08,1.07-4.2,1.57-6.34a1.16,1.16,0,0,1,1.32-.88c4.38.88,8.86,1.82,13.22,3.07A1.71,1.71,0,0,1,773.92,502.14Zm-2.37,1.38q-2.74-.74-5.41-1.38c-1.82-.42-3.66-.79-5.48-1.16-.42,1.77-.85,3.49-1.33,5.21l-1.56,5.17c3.52.82,7.15,1.68,10.63,2.75C769.62,510.6,770.58,507.13,771.55,503.52Z"/><path class="cls-1" d="M835.19,598.64q-.09-3.74-.2-7.59c0-1.29-.12-2.58-.22-3.88l-.3-3.94c-4.61,6.53-9.79,12-14.84,18.22h-3.19c3.06-3.54,6.11-6.93,9.14-10.58s5.75-7.41,8.59-11.4c0-.63-.09-1.26-.16-1.89s-.16-1.26-.23-1.89c-.17-1.26-.33-2.54-.49-3.81l-.51-3.86c-.09-.65-.17-1.29-.26-1.94s-.23-1.3-.34-1.94c-1.31,2.27-2.8,4.53-4.24,6.73s-2.91,4.36-4.38,6.47l-1.11,1.58-1.17,1.57-2.35,3.08c-1.57,2-3.15,4-4.73,6,0,0-.07,0-.11.05.2,4,.23,8.31.34,11.85h-2.26c-.06-2.65-.12-5.05-.17-7.59,0-1.27,0-2.54-.13-3.81s-.19-2.54-.29-3.82l-.29-3.82c-.1-1.28-.18-2.56-.37-3.83-.32-2.55-.65-5.1-1-7.65-.15-1.28-.39-2.55-.62-3.82l-.68-3.81-.69-3.8c-.27-1.27-.58-2.52-.86-3.78-.61-2.51-1.14-5-1.81-7.53l-2.13-7.42a185.79,185.79,0,0,1-15.2,25.6,188.26,188.26,0,0,1,3.29,35.08H789c0-.88-.06-2.54-.09-3.85-.11-.05-.21,0-.31-.13q-2.67-2.43-5.31-4.76c-1.78-1.55-3.67-3.06-5.48-4.53s-3.65-2.89-5.47-4.27-3.79-2.7-5.68-4l.35,2.73c.11.9.26,1.81.3,2.72.14,1.83.27,3.65.41,5.48l.11,0c2.19,1.64,4.21,3.46,6.26,5.28s4.11,3.51,6.17,5.28h-3.14c-3.08-2.65-6.16-5.42-9.23-7.93l.06,2.82c0,1.72.12,3.34.19,5.11h-2.31c0-1.77-.08-3.08-.12-4.68,0-.79,0-1.6-.05-2.4s0-1.6-.11-2.4q-.27-3.53-.53-7c-.29-2.33-.59-4.66-.88-7,0,0,0-.05,0-.08a170.85,170.85,0,0,0-5.89-25.75q-3.19-1.29-6.34-2.45c-2.12-.77-4.12-1.53-6.29-2.18s-4.25-1.29-6.35-1.87l-3.12-.84c-1-.27-2.13-.51-3.19-.75a144.41,144.41,0,0,1,8,23.36l.7,3c.23,1,.52,2,.66,3l1.12,6.08.78,6.13c.17,1,.21,2.06.29,3.09l.24,3.08c.06.82.15,1.61.19,2.41s0,1.6,0,2.4c0,1.59.09,3.08.14,4.85h-2.7a146.52,146.52,0,0,0-4.44-34.9A139.15,139.15,0,0,0,723.19,531c-1.56-2.86-3.48-5.52-5.22-8.29l-2.88-4c-.49-.66-.93-1.35-1.45-2l-1.54-1.91-1.53-1.92c-.5-.64-1-1.29-1.56-1.88l-3.22-3.65c-.52-.63-1.09-1.2-1.66-1.77l-1.68-1.73c-1.12-1.16-2.2-2.33-3.4-3.38l-3.45-3.25c-1.18-1-2.39-2-3.56-3l-1.75-1.5c-.6-.49-1.22-.94-1.82-1.4l-3.57-2.77a149.3,149.3,0,0,0-14.33-9.25l1.36-2.3c2.92,1.54,5.63,3.42,8.44,5.13a148.84,148.84,0,0,1,36.24,34.11c.34-1,.64-2.05.91-3.07l.82-3.09c.54-2.08,1.06-4.2,1.54-6.36.86-4.22,1.63-8.6,2.22-13.06a167.33,167.33,0,0,0-19.77-17.94l-.06-.05-2.84-2.19c-.93-.75-1.95-1.38-2.92-2.08l-3-2.05-1.47-1-1.52-.95-4.09-2.56-1-.65-1.05-.59-2.11-1.18,1.16-2c1.51.9,3.06,1.72,4.51,2.69l2.38,1.5q-.48-2.94-1.06-5.94c-.39-2-.86-3.9-1.33-5.89l1.57-2.67c1.37,5.24,2.35,10.67,3.16,15.84a.49.49,0,0,1,0,.12c1.57,1,3,2.11,4.59,3.15s3.06,2.09,4.51,3.26c-.09-1.13-.17-2.28-.28-3.41l-.41-3.37c-.29-2.25-.61-4.54-1-6.85-.17-1.17-.37-2.31-.59-3.44l-.68-3.43c-.46-2.3-1-4.62-1.47-7a1.12,1.12,0,0,1,0-.36l-3.48-2,1.13-1.91a193.77,193.77,0,0,1,29.33,20.4c2.44-.19,4.9-.36,7.41-.5s4.93-.12,7.44-.14,5.1,0,7.61.09,5.08.25,7.66.43a206,206,0,0,0-23.07-20.8l-3.08-2.37c-1-.79-2.06-1.58-3.13-2.31l-6.4-4.45c-2.16-1.45-4.39-2.79-6.58-4.18-1.11-.68-2.19-1.4-3.32-2L705.5,420l1.13-1.92,2.64,1.49,1.32.75,1.29.8,5.14,3.22a.58.58,0,0,1,.14,0l3.84-.59,3.82-.46c2.57-.28,5.18-.54,7.81-.77s5.25-.35,7.92-.47,5.35-.19,8.07-.23c-4.21-3.25-8.28-6.51-12.52-9.36q-3.68.27-7.26.6c-2.41.26-4.83.59-7.21.92s-4.72.68-7,1.06-4.67.89-7,1.36l1.59-2.71c1.93-.39,3.87-.76,5.84-1.12s3.89-.61,5.87-.89,4-.54,6-.79l3-.36,3-.25c-2.17-1.58-4.46-2.93-6.66-4.34L723,403.82l-1.63-1-1.66-.94-4,.66,2.63-4.48c4.75,2.58,9.24,5.56,13.79,8.41A238.05,238.05,0,0,1,805.88,484c1.12,1.93,2.27,3.86,3.36,5.81l3.12,6c2.14,3.94,3.92,8,5.81,12.12,1,2,1.77,4.12,2.61,6.19l2.5,6.26c.77,2.1,1.49,4.23,2.22,6.35l1.09,3.18c.37,1.06.73,2.13,1,3.21a234.06,234.06,0,0,1,9.76,52.74c.09,1.32.21,2.62.28,3.92s.07,2.58.11,3.88c.06,2.59.12,5.22.19,7.87h-5.27C833.52,600.57,834.36,599.65,835.19,598.64ZM803.37,485.4h0Zm-71.72-50.88q3.83-.28,7.76-.46t7.8-.1c2.62,0,5.34,0,8,.13s5.31.29,8,.48c-1.92-1.8-3.82-3.61-5.75-5.35l-5.9-5-4,0-4,.11q-4,.12-8,.35c-2.59.12-5.27.41-7.86.67s-5.17.57-7.7.9c3.91,2.73,7.9,5.37,11.62,8.35Zm13.78,11.35c2.53,0,5.1.11,7.69.22l3.91.18,3.87.32c5.18.46,10.53,1,15.77,1.89l-2.6-2.93c-.88-1-1.8-1.88-2.7-2.82L766,437.17c-5.46-.41-10.75-.75-16-.84-2.66,0-5.29,0-7.89,0s-5.14.1-7.75.29c1.92,1.42,3.7,3,5.53,4.55l2.72,2.31,1.36,1.16,1.31,1.22Zm12.4,12.42c5.1.46,10.21,1.15,15.48,1.95,5.11.91,10.4,1.92,15.66,3.19-1.54-2.1-3.22-4.09-4.82-6.13l-2.44-3c-.8-1-1.69-2-2.53-2.94-5.36-.89-10.56-1.69-15.87-2.14-2.63-.26-5.24-.47-7.81-.65s-5.21-.23-7.77-.3C751.26,451.42,754.51,454.89,757.83,458.29Zm-45.61,19.64c.07-4.15.14-8.46.15-12.8s-.08-8.68-.06-13.18a1.11,1.11,0,0,1,.08-.41l-6.15-4.28c-1-.74-2.09-1.38-3.14-2l-3.18-2c.52,2.38,1,4.73,1.46,7s.8,4.73,1.15,7.05.66,4.62.91,6.92.41,4.64.55,6.92l2.12,1.63c.71.53,1.36,1.14,2,1.7Zm10.19,9.84c.23-2.24.44-4.51.61-6.81.09-1.17.15-2.31.18-3.44l.1-3.45c.06-2.31.07-4.66.06-7s-.17-4.67-.31-7L721,458.21c-.69-.6-1.4-1.18-2.13-1.73l-4.35-3.34c0,9.07.07,17.89-.27,26.46a.77.77,0,0,1,0,.15l4.2,3.91ZM724.59,528c.94-2.13,1.69-4.2,2.5-6.37s1.55-4.36,2.28-6.61,1.31-4.44,1.92-6.73,1.24-4.65,1.7-7,.94-4.69,1.37-7.1c.21-1.19.44-2.43.6-3.63l.47-3.62c.3-2.44.56-4.91.79-7.43s.31-5,.42-7.5a1.15,1.15,0,0,1,1.15-1.08c2.57,0,5.2.08,7.81.23s5.19.36,7.84.6c5.35.44,10.54,1.26,16,2.16,2.74.44,5.35,1,8.05,1.61s5.41,1.23,8.15,1.91,5.37,1.51,8.09,2.33l4.1,1.26,2.06.66,2,.71c-.79-1.39-1.68-2.72-2.55-4.06l-2.62-4c-1.71-2.71-3.63-5.28-5.5-7.88a215.61,215.61,0,0,0-33.53-5.9,1.11,1.11,0,0,1-.62-.06c-2.73-.23-5.45-.39-8.12-.53l-4-.17-2-.07h-2q-4,0-7.9.1c-1.3,0-2.57.07-3.87.15l-3.89.27.19,3.83c0,1.28,0,2.58,0,3.86,0,2.56,0,5.09-.1,7.57,0,1.23-.09,2.5-.18,3.75L725,483c-.22,2.48-.43,4.87-.75,7.3a152.32,152.32,0,0,1-6.23,27.8c1.16,1.61,2.36,3.19,3.4,4.88L723,525.5C723.56,526.33,724.11,527.15,724.59,528Zm1.38,1.4c2.3.27,4.66.57,7,.94s4.61.84,7,1.33c4.76.93,9.3,2.21,14.07,3.61,2.41.69,4.68,1.49,7,2.32s4.69,1.72,7.07,2.65,4.61,2,6.95,3l3.51,1.62c1.18.56,2.35,1.12,3.47,1.72.66-1.13,1.26-2.26,1.85-3.39l1.76-3.45c1.16-2.32,2.33-4.7,3.43-7.11s2.07-4.83,3.08-7.32,2-5,2.86-7.57c1.72-5.08,3.48-10.41,4.79-15.76.69-2.69,1.36-5.43,2-8.21s1.09-5.53,1.59-8.36a201,201,0,0,0-64.57-12.31A158.8,158.8,0,0,1,726,529.42Zm61.37,50.39-5.82-3.36c-1.91-1.11-3.77-2.22-5.72-3.3l-5.71-3.21c-1.9-1.05-3.68-2.1-5.63-3.09.22.85.37,1.72.52,2.58l.46,2.6.47,2.59c.17.86.32,1.73.41,2.6a187.57,187.57,0,0,1,22.52,17.5c-.05-1.24,0-2.47-.13-3.7l-.28-3.69c-.2-2.46-.31-4.93-.68-7.37A1.36,1.36,0,0,1,787.34,579.81Zm-1.62-13.16a173.72,173.72,0,0,0-24.78-13.38l1.57,5.47c.28.9.49,1.82.7,2.75l.64,2.77a.94.94,0,0,1,.15.06c1.92,1,3.91,2,5.83,3.07l5.78,3.24,5.92,3.32,5.89,3.41c-.26-1.79-.41-3.59-.74-5.37Zm16.53-29.18a1,1,0,0,1,.26-.56c2.23-4.91,4.58-10.09,6.44-15.33,1-2.64,1.92-5.31,2.81-8s1.59-5.41,2.31-8.16l-2-4.35c-.71-1.44-1.47-2.85-2.2-4.27-1.5-2.83-2.9-5.72-4.56-8.45a185.9,185.9,0,0,1-21.89,60.28,1.17,1.17,0,0,1-1.53.44c-4.45-2.4-9.22-4.49-13.8-6.43-2.26-1-4.64-1.85-7-2.69s-4.66-1.62-7-2.37-4.7-1.38-7-2-4.57-1.22-6.9-1.72-4.64-1-6.9-1.37l-3.37-.6c-1.13-.19-2.29-.34-3.42-.5,1.06,1.68,1.89,3.48,2.82,5.22l1.38,2.63L732,541.9a160.81,160.81,0,0,1,54.63,22.69c1.51-2.1,2.82-4.21,4.23-6.38s2.75-4.4,4.09-6.67,2.52-4.55,3.75-6.9S801.18,539.88,802.25,537.47Zm6.19,14.1a236,236,0,0,0,13-28.35c-.4-1.22-.87-2.42-1.36-3.61s-1-2.4-1.43-3.61c-1-2.39-1.89-4.82-3-7.17-.77,2.56-1.64,5.12-2.51,7.62s-1.73,4.95-2.61,7.36l-.66,1.8-.72,1.8L807.69,531q-1.49,3.53-3,6.94c.7,2.25,1.32,4.53,2,6.8l1,3.41C807.92,549.27,808.16,550.42,808.44,551.57Zm3.48,17.25c2.74-4.2,5.46-8.58,8-13.11q1.85-3.39,3.7-6.91c1.22-2.35,2.52-4.76,3.66-7.18l-2.15-7.42-.55-1.86L824,530.5l-1.27-3.7q-1.56,3.71-3.08,7.33c-1.1,2.41-2.18,4.78-3.27,7.1s-2.15,4.58-3.34,6.84-2.42,4.47-3.67,6.65l-.12.18.8,3.45c.25,1.16.43,2.33.65,3.49Zm19.59-8.4-.69-3.77-.36-1.89-.43-1.89c-.59-2.51-1.19-5-1.78-7.6a204.16,204.16,0,0,1-15.8,26.87l-.07.08.89,7c.24,2.34.39,4.69.58,7q2.37-3,4.73-6.09c1.57-2.07,3-4.18,4.48-6.34s2.93-4.35,4.38-6.6S830.16,562.74,831.51,560.42Z"/></svg>